<svg width="50" height="50" viewBox="0 0 50 50" fill="none" xmlns="http://www.w3.org/2000/svg">
<rect x="0.5" y="0.5" width="49" height="49" rx="9.5" fill="white" stroke="#E5E5E5"/>
<g clip-path="url(#clip0_24090_24872)">
<path d="M11.9215 15C11.4191 15 10.9374 15.1961 10.5821 15.5451C10.2269 15.8941 10.0273 16.3674 10.0273 16.861C10.0273 17.3546 10.2269 17.828 10.5821 18.177C10.9374 18.526 11.4191 18.722 11.9215 18.722H14.4046L18.7848 15H11.9215Z" fill="black"/>
<path d="M19.4891 20.8154L22.5489 18.2804C22.7395 18.1234 22.8968 17.9309 23.0116 17.714C23.1264 17.4972 23.1965 17.2602 23.2179 17.0167C23.2394 16.7731 23.2117 16.5279 23.1365 16.2949C23.0613 16.0619 22.94 15.8457 22.7796 15.6589V15.6589C22.6198 15.4716 22.4239 15.3171 22.2031 15.2043C21.9824 15.0915 21.7412 15.0226 21.4934 15.0015C21.2455 14.9805 20.9958 15.0077 20.7587 15.0816C20.5216 15.1555 20.3016 15.2746 20.1114 15.4322L12.0642 22.0889C11.9517 22.1765 11.8499 22.2766 11.7607 22.3872C11.5005 22.7235 11.3647 23.1369 11.3757 23.5593C11.3867 23.9816 11.5439 24.3877 11.8214 24.7105V24.7105C12.1456 25.0867 12.6081 25.3217 13.108 25.3641C13.6078 25.4066 14.1045 25.2531 14.4896 24.9371L15.7676 23.8903C16.2353 23.7514 16.7256 23.7008 17.2125 23.7412C18.2466 23.7831 19.2214 24.2269 19.9224 24.975C20.6235 25.7231 20.9934 26.7141 20.9507 27.7302C20.908 28.7462 20.4563 29.7039 19.6949 30.3927C18.9335 31.0815 17.9248 31.4449 16.8907 31.403C16.1273 31.4028 15.3808 31.1822 14.744 30.7686C14.1072 30.355 13.6081 29.7667 13.3088 29.0767C13.2317 28.8582 13.1098 28.6575 12.9506 28.4871C12.7915 28.3167 12.5984 28.1802 12.3834 28.086C12.1684 27.9918 11.936 27.942 11.7006 27.9395C11.4652 27.9371 11.2318 27.9822 11.0149 28.0719C10.7979 28.1616 10.602 28.2941 10.4392 28.4612C10.2764 28.6283 10.1503 28.8264 10.0685 29.0433C9.98678 29.2602 9.95119 29.4913 9.96396 29.7222C9.97673 29.9531 10.0376 30.1791 10.1428 30.386C10.6188 31.4819 11.3638 32.4449 12.3114 33.1886C13.2589 33.9324 14.3793 34.4337 15.5723 34.6479C16.7654 34.862 17.9938 34.7823 19.1478 34.4157C20.3018 34.0492 21.3453 33.4073 22.1849 32.5475C23.0246 31.6877 23.6342 30.6368 23.9593 29.4888C24.2843 28.3409 24.3147 27.1316 24.0476 25.9693C23.7805 24.807 23.2243 23.7279 22.4288 22.8285C21.6333 21.9291 20.6233 21.2374 19.4891 20.8154V20.8154Z" fill="url(#paint0_linear_24090_24872)"/>
<path d="M37.7205 15H28.963C27.9169 15 27.0688 15.8332 27.0688 16.861C27.0688 17.8888 27.9169 18.722 28.963 18.722H37.7205C38.7666 18.722 39.6146 17.8888 39.6146 16.861C39.6146 15.8332 38.7666 15 37.7205 15Z" fill="black"/>
<path d="M36.0662 28.8233C35.8097 29.5141 35.3501 30.1145 34.7458 30.5484C34.1415 30.9824 33.4197 31.2302 32.6719 31.2605C31.924 31.2909 31.1839 31.1024 30.5452 30.7189C29.9065 30.3354 29.3982 29.7743 29.0845 29.1066C28.9428 28.7877 28.7105 28.5157 28.4154 28.3232C28.1204 28.1306 27.7752 28.0257 27.421 28.021H27.3027C26.992 28.0214 26.6864 28.0982 26.4137 28.2444C26.141 28.3907 25.9099 28.6017 25.7415 28.8582C25.573 29.1147 25.4727 29.4085 25.4495 29.7129C25.4264 30.0173 25.4811 30.3225 25.6088 30.6008C26.2737 32.0552 27.3965 33.2614 28.8117 34.0415C30.2269 34.8217 31.8598 35.1346 33.4697 34.9342C35.0796 34.7338 36.5814 34.0306 37.7539 32.9282C38.9263 31.8259 39.7074 30.3827 39.982 28.8113L36.0662 28.8233Z" fill="black"/>
<path d="M32.5116 20.1148C30.8223 20.1128 29.1814 20.6684 27.852 21.6924C26.4466 22.7721 27.2632 24.9999 29.048 24.9999C29.4752 24.9948 29.8889 24.8523 30.2258 24.5943C30.8676 24.1146 31.6496 23.8507 32.456 23.8415C33.2624 23.8324 34.0503 24.0786 34.7032 24.5436H39.4234C38.8315 23.2271 37.8633 22.1078 36.6363 21.3217C35.4093 20.5355 33.9764 20.1162 32.5116 20.1148Z" fill="black"/>
<path d="M33.9807 27.0753H33.07L32.9091 27.4958H32.7148L33.4191 25.6616H33.6134L34.3419 27.4958H34.1476L33.9807 27.0753ZM33.1398 26.8934H33.9048L33.5162 25.9241L33.1398 26.8934Z" fill="black"/>
<path d="M34.7576 26.8876V27.4841H34.5664V25.6618H35.131C35.215 25.6548 35.2995 25.665 35.3792 25.6918C35.4589 25.7186 35.5321 25.7614 35.5941 25.8175C35.656 25.8736 35.7054 25.9418 35.7391 26.0177C35.7728 26.0936 35.79 26.1755 35.7897 26.2583C35.8024 26.3903 35.7674 26.5224 35.6908 26.6315C35.6142 26.7405 35.5009 26.8196 35.3708 26.8548L35.8019 27.496H35.5985L35.1948 26.8786C35.1574 26.8817 35.1198 26.8817 35.0824 26.8786L34.7576 26.8876ZM34.7576 26.7146H35.1067C35.1701 26.7205 35.234 26.7132 35.2943 26.6931C35.3547 26.6731 35.41 26.6407 35.4567 26.5982C35.5034 26.5557 35.5404 26.504 35.5654 26.4464C35.5903 26.3889 35.6027 26.3268 35.6015 26.2643C35.6015 25.966 35.3921 25.8408 35.1067 25.8408H34.7576V26.7146Z" fill="black"/>
<path d="M35.8867 25.8644V25.6616H37.2102V25.8644H36.6426V27.4958H36.4544V25.8644H35.8867Z" fill="black"/>
<path d="M38.4005 26.6727H37.6234V27.296H38.534V27.4958H37.4321V25.6616H38.534V25.8585H37.6234V26.4758H38.4005V26.6727Z" fill="black"/>
<path d="M38.7463 27.0755C38.9196 27.2242 39.1415 27.3068 39.3716 27.3081C39.6235 27.3081 39.8026 27.1799 39.8026 27.0099C39.8026 26.6043 38.7463 26.7862 38.7463 26.1719C38.7496 26.0952 38.7688 26.02 38.8029 25.951C38.8369 25.882 38.885 25.8205 38.9442 25.7705C39.0034 25.7204 39.0724 25.6829 39.147 25.6601C39.2215 25.6373 39.3 25.6298 39.3777 25.638C39.5919 25.6345 39.8001 25.7077 39.9635 25.8438L39.9271 26.0585C39.7769 25.9229 39.5816 25.8455 39.3777 25.8408C39.1288 25.8408 38.9406 25.972 38.9406 26.1569C38.9406 26.5954 40 26.4134 40 26.998C40 27.2962 39.7419 27.5169 39.3655 27.5169C39.1275 27.5232 38.8953 27.4436 38.7129 27.2932L38.7463 27.0755Z" fill="black"/>
</g>
<defs>
<linearGradient id="paint0_linear_24090_24872" x1="14.6201" y1="15.4173" x2="19.0273" y2="33.4347" gradientUnits="userSpaceOnUse">
<stop stop-color="#68E8CC"/>
<stop offset="1" stop-color="#51E37E"/>
</linearGradient>
<clipPath id="clip0_24090_24872">
<rect width="30" height="20" fill="white" transform="translate(10 15)"/>
</clipPath>
</defs>
</svg>
