<?xml version="1.0" encoding="UTF-8"?>
<svg width="29px" height="32px" viewBox="0 0 29 32" version="1.1" xmlns="http://www.w3.org/2000/svg" xmlns:xlink="http://www.w3.org/1999/xlink">
    <!-- Generator: Sketch 52.4 (67378) - http://www.bohemiancoding.com/sketch -->
    <title>abril</title>
    <desc>Created with Sketch.</desc>
    <g id="RELATORIOS" stroke="none" stroke-width="1" fill="none" fill-rule="evenodd">
        <g id="abril" fill="#008457" fill-rule="nonzero">
            <path d="M19.54759,15.6134838 C21.575122,15.2863026 23.7315436,16.3174192 23.9228951,18.2180445 C21.7912599,18.6513118 19.8846858,17.6489475 19.5465985,15.6134838 L19.54759,15.6134838 Z M18.6057047,13.9299878 C16.9172514,12.3139109 17.1205003,9.69051251 18.5918243,8.32626602 C19.9451647,9.52989628 20.1583282,12.2276541 18.6057047,13.9299878 Z M15.3735509,17.909701 C13.913133,16.3402227 14.1600061,13.8278676 15.9466138,12.4735357 C17.3842282,14.2482459 16.9975595,16.7764643 15.371568,17.9106925 L15.3735509,17.909701 Z M9.95721477,14.6418548 C10.2506864,12.5399634 11.8786608,10.7632703 14.5992221,10.8247407 C14.2422971,13.3727883 11.9361653,14.802471 9.95721477,14.6418548 Z M12.8582215,4.05308115 C14.0945699,6.13514338 13.6950122,8.84182428 11.7041641,10.1138652 C10.5996797,8.25983832 10.7226205,5.77127822 12.85723,4.05605552 L12.8582215,4.05308115 Z M17.8918548,3.42846248 C18.5938072,6.05285235 17.2206376,8.33419768 15.3210037,9.12934716 C14.6230171,7.30506406 15.3140635,4.74710189 17.8918548,3.42846248 Z M26.4937462,13.2270439 C25.2375686,14.8381635 21.5691733,14.5575808 20.4755949,13.2865314 C21.6653447,11.9351739 24.9510372,11.5911379 26.4937462,13.2270439 Z M24.5187614,5.97849298 C24.8905583,7.68776693 23.7880567,10.3230628 21.2043167,10.6680903 C20.817648,8.23901769 22.6359823,6.24916107 24.51777,5.97849298 L24.5187614,5.97849298 Z M9.05895363,7.99115314 C7.22574741,6.84106162 6.42266626,4.41496339 7.47559487,2.28233679 C9.43273337,3.55536913 10.0970104,5.99534777 9.05994509,7.99115314 L9.05895363,7.99115314 Z M2.80285235,7.64612569 C5.71179073,7.1523795 7.76410921,8.36394143 9.08076571,10.9734594 C5.71773948,11.2589994 3.65451495,9.79064979 2.80186089,7.64612569 L2.80285235,7.64612569 Z M3.3521202,18.1258389 C4.16214155,15.9307505 6.41374314,15.2704393 8.75755034,15.9466138 C7.6173734,18.2150702 5.47978951,18.6860128 3.3521202,18.1258389 Z M2.37652532,13.0198292 C3.97574741,11.5941123 6.65466748,12.0105247 7.81764796,13.4164124 C6.15199817,14.6309487 3.89147346,14.6755644 2.37652532,13.0198292 Z M28.8563911,13.1923429 C27.3830842,11.4136669 25.9881025,10.8425869 24.6397193,10.604637 C26.3172666,8.72582367 26.4768914,6.72605247 25.8869738,4.04614094 C23.4222087,4.35944173 21.0159396,5.36973764 20.0968578,7.57077486 C19.9640024,7.38735509 19.5862569,7.04530201 19.3602044,6.85692495 C19.9550793,5.05941123 19.6953173,3.4066504 18.8783557,1.25915192 C16.9519524,2.06520744 15.8167328,2.55003051 14.6131025,4.1323978 C14.3295455,3.28370958 13.9726205,2.61348383 13.2895058,1.76281269 C12.2583893,2.3676022 11.316504,3.17365772 10.769219,3.91130262 C10.308191,2.51136364 9.28698902,1.30376754 6.83114704,0 C5.22002746,2.64719341 5.16153142,4.38224527 5.68601281,6.11432276 C3.87660159,5.64139719 2.5430903,6.03798048 0.713849908,6.53866687 C1.25915192,8.40954851 1.85006101,9.69646126 3.07649481,10.8019372 C2.05529286,11.1786913 1.11836486,11.8786608 -4.4408921e-16,12.8364094 C1.02615924,14.0340909 1.82031727,14.9720104 3.18753813,15.5103722 C2.40924344,16.20241 1.6131025,17.7014948 1.15901464,19.0359976 C2.50541489,19.7914887 7.58068944,21.2895821 10.0067877,17.0491153 C11.2163667,19.1440665 11.3948292,20.7115619 11.3948292,23.5996797 C11.3948292,25.8869738 10.4955766,29.5851129 8.83686699,31.7028676 L19.346324,31.7028676 C17.68464,29.5851129 16.7863789,25.8869738 16.7863789,23.5996797 C16.7863789,20.6411684 16.9747559,19.0766473 18.2577029,16.9073368 C19.4920683,20.2188072 23.4846705,20.3278676 25.9514185,19.4206833 C25.7561013,18.1575656 25.3565436,16.8329774 24.6327791,15.8742373 C25.9662904,15.6620653 27.5129652,14.9948139 28.8563911,13.1933344 L28.8563911,13.1923429 Z" id="Shape"></path>
        </g>
    </g>
</svg>