<?xml version="1.0" encoding="UTF-8"?>
<svg width="140px" height="48px" viewBox="0 0 140 48" version="1.1" xmlns="http://www.w3.org/2000/svg" xmlns:xlink="http://www.w3.org/1999/xlink">
    <!-- Generator: Sketch 52.4 (67378) - http://www.bohemiancoding.com/sketch -->
    <title>Artboard</title>
    <desc>Created with Sketch.</desc>
    <g id="Artboard" stroke="none" stroke-width="1" fill="none" fill-rule="evenodd">
        <path d="M86.2239234,26.04 C86.9942584,26.04 87.1617225,26.5 87.1617225,26.8866667 L87.1617225,28.3133333 L85.6813397,28.3133333 C84.9444976,28.3133333 84.7904306,27.8733333 84.7904306,27.5066667 L84.7904306,26.04 L86.2239234,26.04 Z M86.0966507,30.7066667 C86.3468313,30.6681829 86.6008074,30.7472622 86.7843419,30.9207897 C86.9678763,31.0943171 87.0602455,31.3426991 87.0344498,31.5933333 L87.0344498,43.5933333 L85.6947368,43.5933333 L85.6947368,43.5466667 C85.2372986,43.5145876 84.8908891,43.1222745 84.9177033,42.6666667 L84.9177033,30.7133333 L86.0966507,30.7066667 Z M15.7215311,40.04 C15.9320646,40.2210621 16.1290763,40.4171357 16.3110048,40.6266667 L16.3645933,40.7 L16.3043062,40.76 C14.5846037,42.7532877 12.0573069,43.8739005 9.41818182,43.8133333 C4.4277512,43.82 0.669856459,40 0.669856459,34.8666667 C0.612218607,32.5070973 1.51156181,30.2238017 3.16503072,28.5317987 C4.81849963,26.8397956 7.08682809,25.8815969 9.45837321,25.8733333 C12.0074233,25.8082858 14.4643023,26.8236775 16.2172249,28.6666667 L16.2909091,28.7333333 L16.2239234,28.8133333 C16.2239234,28.8133333 15.8421053,29.2333333 15.4669856,29.6 C15.298994,29.788844 15.0604681,29.9007656 14.807196,29.9095879 C14.553924,29.9184102 14.3081194,29.8233594 14.1272727,29.6466667 C12.8357442,28.5055184 11.1652982,27.8808966 9.43827751,27.8933333 C5.7138756,27.8933333 2.90047847,30.8733333 2.90047847,34.82 C2.90047847,38.7666667 5.77416268,41.8266667 9.43827751,41.8266667 C11.2031704,41.841041 12.9077596,41.1881851 14.2076555,40 C14.6415543,39.6045491 15.3130547,39.6252487 15.7215311,40.0466667 L15.7215311,40.04 Z M47.2985646,30.3733333 C50.2861244,30.3733333 52.1416268,32.3733333 52.1416268,35.5666667 L52.1416268,43.4866667 L51.0363636,43.4866667 C50.1789474,43.4866667 50.0650718,42.9533333 50.0650718,42.4333333 L50.0650718,36 C50.0650718,33.6466667 48.9062201,32.3 46.8832536,32.3 C45.1751196,32.3 43.4535885,33.48 43.4535885,36.12 L43.4535885,43.4866667 L42.3148325,43.4866667 C42.0592548,43.5166812 41.8038817,43.4290069 41.621256,43.2485491 C41.4386303,43.0680914 41.3487082,42.8145694 41.3770335,42.56 L41.3770335,35.94 C41.3770335,33.6533333 40.1913876,32.2866667 38.2019139,32.2866667 C36.2124402,32.2866667 34.7722488,33.9066667 34.7722488,36.1466667 L34.7722488,42.56 C34.7722488,43.3 34.4507177,43.4466667 33.8813397,43.4466667 L32.6956938,43.4466667 L32.6956938,30.5866667 L33.8411483,30.5866667 C34.1102341,30.5547655 34.3792807,30.6464868 34.5721973,30.8358902 C34.7651139,31.0252936 34.8609259,31.2917864 34.8325359,31.56 L34.8325359,32.4666667 C35.6916851,31.0865182 37.2207927,30.2621957 38.8516746,30.3 C40.5746757,30.2316803 42.1763119,31.1802465 42.937799,32.72 C43.894057,31.2359952 45.5542149,30.3505897 47.3253589,30.38 L47.2985646,30.3733333 Z M62.2966507,30.4266667 C60.3713558,30.4234112 58.5777181,31.3989288 57.5406699,33.0133333 L57.5406699,31.68 C57.5704183,31.3959513 57.4669055,31.1141183 57.2601099,30.9161231 C57.0533144,30.7181279 56.7663395,30.6260907 56.4822967,30.6666667 L55.4641148,30.6666667 L55.4641148,46.4866667 C55.4277547,46.7346036 55.5082496,46.9853808 55.6823034,47.1664204 C55.8563572,47.34746 56.1045397,47.438552 56.3550239,47.4133333 L57.5406699,47.4133333 L57.5406699,41.3333333 C58.6194499,42.8842439 60.4014679,43.8009852 62.2966507,43.78 C65.2842105,43.78 68.4660287,41.44 68.4660287,37.1133333 C68.4660287,32.7866667 65.2842105,30.4266667 62.2966507,30.4266667 Z M61.9215311,41.8733333 C60.6781348,41.8423518 59.4995855,41.3146484 58.6515115,40.40916 C57.8034375,39.5036717 57.3572081,38.2965993 57.4133971,37.06 C57.362732,35.8287005 57.8120459,34.6289064 58.6600938,33.7309705 C59.5081417,32.8330346 60.6835754,32.3125023 61.9215311,32.2866667 C64.0985646,32.2866667 66.3023923,33.94 66.3023923,37.1 C66.3157895,39.9133333 64.5004785,41.8733333 61.9215311,41.8733333 Z M101.717703,30.6666667 C101.187207,30.6806599 100.760472,31.1053629 100.746411,31.6333333 L100.746411,32.6666667 C99.6086375,31.1534766 97.808719,30.2776516 95.9100478,30.3133333 C94.3448184,30.330207 92.8432014,30.932277 91.7033493,32 C90.4689154,33.1598979 89.783078,34.7840307 89.8143541,36.4733333 C89.7811196,38.0898533 90.4121814,39.6498587 91.5615753,40.7925208 C92.7109691,41.9351829 94.2791323,42.5615222 95.9033493,42.5266667 C97.8298648,42.5256707 99.6417388,41.6153901 100.786603,40.0733333 L100.786603,41.2666667 C100.786603,44.0666667 99.138756,45.6733333 96.2784689,45.6733333 C94.9016402,45.6740901 93.5476945,45.3228682 92.3464115,44.6533333 C92.1180987,44.4876425 91.850234,44.3842243 91.569378,44.3533333 C91.2835374,44.3535511 91.0231282,44.5168277 90.8995215,44.7733333 C90.5712919,45.3066667 90.4440191,45.5533333 90.4373206,45.5666667 L90.3971292,45.64 L90.4708134,45.6933333 C92.1761872,46.8907695 94.2183648,47.5208065 96.3052632,47.4933333 C100.465072,47.4933333 102.849761,45.2066667 102.849761,41.2266667 L102.849761,30.6666667 L101.717703,30.6666667 Z M96.2784689,40.7533333 C95.1356146,40.7844664 94.0296818,40.3490915 93.2174726,39.5483046 C92.4052635,38.7475177 91.9574406,37.6509876 91.9779904,36.5133333 C91.9488912,35.3773311 92.3956015,34.280414 93.2111974,33.4851385 C94.0267933,32.6898629 95.1378653,32.2678094 96.2784689,32.32 C98.4822967,32.32 100.826794,33.8 100.826794,36.5533333 C100.826794,39.1466667 98.5157895,40.72 96.2784689,40.72 L96.2784689,40.7533333 Z M112.643062,30.46 C115.657416,30.46 117.606699,32.46 117.606699,35.6066667 L117.606699,43.5266667 L116.34067,43.5266667 C115.757895,43.5266667 115.489952,43.2466667 115.489952,42.64 L115.489952,36 C115.489952,33.68 114.210526,32.3 112.060287,32.3 C111.037207,32.2751033 110.05092,32.6802981 109.343388,33.4161805 C108.635855,34.1520629 108.272544,35.1505417 108.342584,36.1666667 L108.389474,43.5 L106.266029,43.5 L106.266029,30.6666667 L107.411483,30.6666667 C107.662454,30.6421322 107.912115,30.7246008 108.098538,30.8936162 C108.284962,31.0626315 108.390682,31.3023588 108.389474,31.5533333 L108.389474,32.6666667 C109.312641,31.2272431 110.927976,30.3765847 112.643062,30.4266667 L112.643062,30.46 Z M76.2564593,30.54 C79.7866029,30.54 81.7559809,32.3666667 81.8028708,35.6866667 L81.8028708,43.4866667 L80.6574163,43.4866667 C80.0478469,43.4866667 79.7665072,43.22 79.7665072,42.64 L79.7665072,41.7733333 C78.6408136,43.0785925 76.986283,43.8126126 75.2583732,43.7733333 C71.9090909,43.7733333 70.415311,41.66 70.415311,39.7 C70.415311,37.1133333 72.4248804,35.6266667 75.9617225,35.6266667 L78.1052632,35.6266667 L78.1052632,36.3466667 C78.1052632,36.9466667 77.7971292,37.24 77.1674641,37.24 L76.1291866,37.24 C73.8114833,37.24 72.538756,38.1 72.538756,39.66 C72.538756,41.22 74.1397129,42.0733333 75.6334928,42.0733333 C78.0248804,42.0733333 79.7665072,40.6733333 79.7665072,38.74 L79.7665072,35.6933333 C79.7665072,33.5466667 78.4267943,32.36 76.0889952,32.36 C75.0181582,32.3589314 73.9575494,32.5673249 72.9674641,32.9733333 C72.5722488,33.1066667 72.0899522,33.0933333 71.922488,32.6666667 C71.7885167,32.34 71.6679426,32 71.5473684,31.6733333 L71.5473684,31.58 L71.6344498,31.54 C73.0988501,30.8464395 74.7017096,30.4909318 76.323445,30.5 L76.2564593,30.54 Z M23.954067,30.54 C27.4641148,30.5066667 29.4736842,32.3333333 29.4736842,35.6533333 L29.4736842,43.4866667 L28.3550239,43.4866667 C27.7454545,43.4866667 27.4641148,43.22 27.4641148,42.64 L27.4641148,41.7733333 C26.3384212,43.0785925 24.6838906,43.8126126 22.9559809,43.7733333 C19.6066986,43.7733333 18.1196172,41.66 18.1196172,39.7 C18.1196172,37.1133333 20.1291866,35.6266667 23.6660287,35.6266667 L25.7894737,35.6266667 L25.7894737,36.3466667 C25.7894737,36.9466667 25.4813397,37.24 24.8516746,37.24 L23.8267943,37.24 C21.5090909,37.24 20.2363636,38.1 20.2363636,39.66 C20.2363636,41.22 21.8373206,42.0733333 23.3311005,42.0733333 C25.722488,42.0733333 27.4641148,40.6733333 27.4641148,38.74 L27.4641148,35.6933333 C27.4641148,33.5466667 26.1244019,32.36 23.7866029,32.36 C22.7158336,32.3596226 21.6553584,32.5679898 20.6650718,32.9733333 C20.2698565,33.1066667 19.7875598,33.0933333 19.6200957,32.6666667 C19.492823,32.34 19.3655502,32 19.2449761,31.6733333 L19.2114833,31.58 L19.2985646,31.54 C20.7643814,30.850541 22.366292,30.4952438 23.9875598,30.5 L23.954067,30.54 Z M138.961722,35.3133333 C139.387363,35.5668894 139.652816,36.0197843 139.665072,36.5133333 L139.665072,36.7466667 C139.665044,37.2791432 139.402099,37.7776059 138.961722,38.08 L132.933014,42.24 C130.039234,44.24 126.777033,46.4866667 126.381818,46.7666667 L126.381818,47.0933333 L126.18756,46.7733333 C126.18756,46.7733333 126.18756,46.7733333 126.18756,46.72 L126.18756,44.9533333 C126.11722,44.4179831 126.404929,43.8993309 126.897608,43.6733333 C127.413397,43.3333333 135.980861,37.4266667 137.099522,36.6666667 C135.974163,35.8866667 127.533971,30.06 126.957895,29.64 L126.890909,29.5866667 C126.462201,29.28 126.127273,29.04 126.127273,28.4 L126.127273,26.4 L126.288038,26.5133333 C126.790431,26.86 138.633493,35.0733333 138.961722,35.32 L138.961722,35.3133333 Z M131.593301,37.5933333 C131.274853,37.5846808 130.966537,37.4800734 130.709091,37.2933333 C129.96555,36.8 126.174163,34.1733333 126.133971,34.1466667 L126.09378,34.1466667 L126.09378,32.7933333 C126.06101,32.5209516 126.199236,32.2563982 126.442105,32.1266667 C126.710263,32.0031634 127.025945,32.0447078 127.252632,32.2333333 C127.82201,32.6 133.341627,36.4066667 133.401914,36.4466667 L133.522488,36.5333333 L133.395215,36.62 L132.611483,37.1533333 C132.316778,37.4026145 131.946314,37.5458673 131.559809,37.56 L131.593301,37.5933333 Z M30.3177033,15.2466667 C30.5110221,15.4479124 30.7144733,15.6392693 30.9272727,15.82 L31.0143541,15.8866667 L30.9406699,15.9666667 C29.6973941,17.5816468 27.7598138,18.5161566 25.7157895,18.4866667 C22.045082,18.4464787 19.090687,15.473449 19.0909091,11.82 C19.0349657,9.01036988 20.7552949,6.46752261 23.3921052,5.46233023 C26.0289156,4.45713785 29.0159291,5.20547416 30.8602871,7.33333333 L30.9205742,7.40666667 L30.8602871,7.47333333 C30.6258373,7.73333333 30.3913876,7.98 30.1502392,8.22666667 C29.7416268,8.62666667 29.3129187,8.60666667 28.7636364,8.14666667 C27.9154445,7.38410605 26.8184508,6.95308192 25.6755981,6.93333333 C23.1904306,6.93333333 21.2478469,9.04666667 21.2478469,11.7466667 C21.2063425,12.9867666 21.6627688,14.192262 22.516249,15.0967212 C23.3697293,16.0011805 24.5499884,16.5301308 25.7961722,16.5666667 C26.9955578,16.5585511 28.14622,16.0933206 29.0114833,15.2666667 C29.3714364,14.9202275 29.9370301,14.9029075 30.3177033,15.2266667 L30.3177033,15.2466667 Z M44.1167464,0.706666667 C44.3758251,0.693751806 44.6276935,0.793858953 44.8065603,0.980838783 C44.9854271,1.16781861 45.0735269,1.42309999 45.0478469,1.68 L45.0478469,3.01333333 L43.5741627,3.01333333 C42.8373206,3.01333333 42.6832536,2.58 42.6832536,2.20666667 L42.6832536,0.706666667 L44.1167464,0.706666667 Z M43.9492823,5.37333333 C44.1996878,5.33673439 44.4530015,5.41766781 44.6352112,5.59248681 C44.817421,5.7673058 44.9079629,6.01628057 44.8803828,6.26666667 L44.8803828,18.2666667 L43.5406699,18.2666667 L43.5406699,18.22 C43.0822084,18.1844636 42.7367008,17.7902076 42.7636364,17.3333333 L42.7636364,5.38 L43.9492823,5.37333333 Z M57.6076555,6.06 C57.777871,5.59196992 58.2411011,5.29462293 58.7397129,5.33333333 L60.1866029,5.33333333 L60.1196172,5.47333333 C60.0727273,5.59333333 55.0488038,17.06 54.8478469,17.5066667 C54.6871649,17.9384566 54.2572795,18.2109651 53.7961722,18.1733333 L53.5483254,18.1733333 C53.0124402,18.1733333 52.677512,18.0733333 52.4564593,17.5066667 C52.2354067,16.94 47.2315789,5.50666667 47.1779904,5.39333333 L47.1177033,5.24666667 L48.6047847,5.24666667 C49.1230037,5.21568764 49.5999722,5.5276315 49.7770335,6.01333333 C49.9311005,6.46666667 53.0794258,14.0666667 53.6688995,15.5 L57.6076555,6.06 Z M70.6229665,11 C70.7198721,11.0108335 70.816352,10.9763646 70.8842105,10.9066667 C70.9602201,10.7703183 70.9771507,10.6090401 70.9311005,10.46 C70.896229,9.4808165 70.4711432,8.55572503 69.749718,7.88902016 C69.0282928,7.2223153 68.069877,6.86884429 67.0861244,6.90666667 C64.9760766,6.90666667 63.3282297,8.64 63.0669856,11.1133333 C63.0407923,11.334608 63.0273731,11.5571958 63.0267943,11.78 C63.0258607,12.0028487 63.0392853,12.2255278 63.0669856,12.4466667 C63.3282297,14.9666667 65.076555,16.66 67.4478469,16.66 C68.7088883,16.6992869 69.9360332,16.2499627 70.8708134,15.4066667 C71.2085923,15.0806759 71.7454747,15.0806759 72.0832536,15.4066667 L72.7129187,15.9466667 L72.7933014,16.0133333 L72.7196172,16.0933333 C71.4090328,17.6564828 69.4526126,18.5379586 67.4076555,18.4866667 C63.723445,18.4866667 60.9502392,15.5933333 60.9502392,11.7666667 C60.9502392,7.94 63.6363636,5.04666667 67.1732057,5.04666667 C70.3001131,4.95539686 72.9287562,7.36436338 73.0947368,10.4733333 C73.1760807,11.0570217 73.0112136,11.6481994 72.6392344,12.1066667 C72.2316286,12.4927199 71.6800655,12.6910142 71.1186603,12.6533333 C69.9799043,12.6533333 67.2401914,12.6533333 64.8755981,12.7 L64.7751196,12.7 L64.7751196,11.8933333 C64.7531732,11.6550963 64.8368604,11.4192008 65.0042407,11.2474918 C65.1716211,11.0757829 65.4060011,10.9853858 65.645933,11 L70.6229665,11 Z M10.891866,1.33333333 C11.1397129,1.86666667 18.3808612,17.8733333 18.4545455,18.0333333 L18.5215311,18.18 L17.2822967,18.18 C16.7289326,18.246399 16.1873811,17.9860257 15.8956938,17.5133333 C15.6679426,17.02 10.369378,5.05333333 9.5923445,3.33333333 L5.8076555,11.7466667 L11.3875598,11.7466667 L11.3875598,12.6666667 C11.3907026,12.9500318 11.2728966,13.2214184 11.0634252,13.4133669 C10.8539539,13.6053153 10.5724889,13.6997996 10.2889952,13.6733333 L4.93014354,13.6733333 C4.7291866,14.12 3.48325359,16.8466667 3.24880383,17.34 C3.05085002,17.8506129 2.55947209,18.1889743 2.00956938,18.1933333 L0.669856459,18.1933333 L0.736842105,18.0466667 C0.810526316,17.8866667 8.13205742,1.67333333 8.29282297,1.33333333 C8.47684001,0.939188287 8.86786417,0.68146501 9.30430622,0.666666667 L9.8,0.666666667 C10.2747391,0.612341139 10.7254281,0.887520816 10.891866,1.33333333 Z M39.6956938,16.36 C39.8821191,16.5008421 39.9811609,16.7283116 39.9569378,16.96 C39.9600516,17.2407253 39.944387,17.5213455 39.9100478,17.8 L39.9100478,17.8533333 L39.8564593,17.8533333 C39.0305989,18.2212825 38.1354535,18.4099133 37.230622,18.4066667 C34.8660287,18.4066667 33.5598086,17.0733333 33.5598086,14.7466667 L33.5598086,0.746666667 L34.5645933,0.746666667 C34.8390878,0.717753892 35.1127722,0.808094074 35.3154997,0.994532549 C35.5182273,1.18097103 35.6302903,1.44538362 35.6229665,1.72 L35.6229665,5.38 L38.5502392,5.38 C38.8279598,5.35402024 39.1040334,5.44410989 39.312379,5.62870506 C39.5207246,5.81330023 39.6425894,6.07578588 39.6488038,6.35333333 L39.6488038,7.24 L35.6296651,7.24 L35.6698565,14.4933333 C35.5960812,15.0430169 35.7839422,15.5955165 36.1779557,15.9876536 C36.5719691,16.3797908 37.1271122,16.5667573 37.6794258,16.4933333 C38.0934203,16.486077 38.504132,16.4186996 38.8985646,16.2933333 C39.1569368,16.1943113 39.4469967,16.221452 39.6822967,16.3666667 L39.6956938,16.36 Z" id="activecampaign_sqr_l" fill="#356AE6" fill-rule="nonzero"></path>
    </g>
</svg>