<svg width="121" height="42" viewBox="0 0 121 42" fill="none" xmlns="http://www.w3.org/2000/svg">
<path d="M74.1287 22.602C74.7929 22.602 74.9372 22.9985 74.9372 23.3319V24.5619H73.661C73.0257 24.5619 72.8929 24.1825 72.8929 23.8664V22.602H74.1287ZM74.019 26.6252C74.2347 26.592 74.4536 26.6602 74.6119 26.8098C74.7701 26.9594 74.8497 27.1735 74.8275 27.3896V37.7351H73.6725V37.6948C73.2781 37.6672 72.9795 37.329 73.0026 36.9362V26.631L74.019 26.6252ZM13.347 34.6717C13.5285 34.8278 13.6984 34.9968 13.8552 35.1775L13.9014 35.2407L13.8495 35.2924C12.3669 37.0109 10.188 37.977 7.91278 37.9247C3.61042 37.9305 0.370658 34.6372 0.370658 30.2116C0.320967 28.1774 1.09631 26.2089 2.5218 24.7502C3.9473 23.2915 5.90287 22.4654 7.94743 22.4583C10.145 22.4022 12.2632 23.2776 13.7744 24.8665L13.8379 24.924L13.7802 24.9929C13.7802 24.9929 13.451 25.355 13.1276 25.6711C12.9828 25.8339 12.7771 25.9304 12.5588 25.938C12.3404 25.9456 12.1285 25.8637 11.9726 25.7114C10.8591 24.7275 9.41901 24.189 7.93011 24.1998C4.71922 24.1998 2.29373 26.7689 2.29373 30.1714C2.29373 33.5739 4.77119 36.212 7.93011 36.212C9.45166 36.2244 10.9212 35.6616 12.0419 34.6372C12.416 34.2963 12.9949 34.3141 13.347 34.6774V34.6717ZM40.5703 26.3378C43.1459 26.3378 44.7456 28.0621 44.7456 30.8151V37.6431H43.7927C43.0535 37.6431 42.9554 37.1833 42.9554 36.735V31.1887C42.9554 29.1598 41.9563 27.9989 40.2123 27.9989C38.7396 27.9989 37.2555 29.0162 37.2555 31.2922V37.6431H36.2737C36.0534 37.669 35.8332 37.5934 35.6758 37.4378C35.5183 37.2823 35.4408 37.0637 35.4652 36.8442V31.137C35.4652 29.1656 34.4431 27.9874 32.7279 27.9874C31.0127 27.9874 29.7711 29.384 29.7711 31.3151V36.8442C29.7711 37.4822 29.4939 37.6086 29.003 37.6086H27.9808V26.5218H28.9684C29.2004 26.4942 29.4323 26.5733 29.5986 26.7366C29.7649 26.8999 29.8475 27.1296 29.8231 27.3609V28.1425C30.5638 26.9527 31.882 26.242 33.2881 26.2746C34.7735 26.2157 36.1543 27.0335 36.8108 28.3609C37.6352 27.0816 39.0665 26.3182 40.5934 26.3436L40.5703 26.3378ZM53.5005 26.3838C51.8407 26.381 50.2943 27.222 49.4003 28.6138V27.4643C49.4259 27.2195 49.3367 26.9765 49.1584 26.8058C48.9801 26.6351 48.7327 26.5557 48.4878 26.5907H47.61V40.2295C47.5787 40.4432 47.6481 40.6594 47.7981 40.8155C47.9482 40.9716 48.1621 41.0501 48.3781 41.0284H49.4003V35.7867C50.3303 37.1238 51.8666 37.9141 53.5005 37.896C56.0761 37.896 58.8193 35.8786 58.8193 32.1485C58.8193 28.4184 56.0761 26.3838 53.5005 26.3838ZM53.1771 36.2522C52.1051 36.2255 51.0891 35.7706 50.3579 34.9899C49.6268 34.2093 49.2421 33.1687 49.2905 32.1026C49.2469 31.041 49.6342 30.0067 50.3653 29.2325C51.0965 28.4584 52.1098 28.0096 53.1771 27.9874C55.054 27.9874 56.9539 29.4127 56.9539 32.137C56.9655 34.5625 55.4005 36.2522 53.1771 36.2522ZM87.4863 26.5907C87.0289 26.6028 86.661 26.9689 86.6489 27.4241V28.315C85.668 27.0104 84.1162 26.2553 82.4794 26.2861C81.1299 26.3007 79.8354 26.8197 78.8527 27.7402C77.7884 28.7402 77.1972 30.1404 77.2241 31.5968C77.1955 32.9904 77.7395 34.3353 78.7304 35.3204C79.7214 36.3056 81.0733 36.8455 82.4736 36.8155C84.1345 36.8146 85.6965 36.0299 86.6835 34.7004V35.7292C86.6835 38.1432 85.2629 39.5283 82.797 39.5283C81.61 39.5289 80.4427 39.2262 79.4071 38.6489C79.2102 38.5061 78.9793 38.4169 78.7372 38.3903C78.4907 38.3905 78.2662 38.5312 78.1597 38.7524C77.8767 39.2122 77.767 39.4248 77.7612 39.4363L77.7265 39.4996L77.7901 39.5455C79.2603 40.5779 81.0209 41.121 82.8201 41.0974C86.4063 41.0974 88.4622 39.126 88.4622 35.6947V26.5907H87.4863ZM82.797 35.2867C81.8117 35.3135 80.8583 34.9382 80.158 34.2478C79.4578 33.5574 79.0717 32.6121 79.0894 31.6313C79.0644 30.6519 79.4495 29.7062 80.1526 29.0206C80.8558 28.335 81.8136 27.9711 82.797 28.0161C84.6969 28.0161 86.7182 29.292 86.7182 31.6657C86.7182 33.9015 84.7258 35.2579 82.797 35.2579V35.2867ZM96.9053 26.4125C99.504 26.4125 101.185 28.1368 101.185 30.8496V37.6776H100.093C99.5906 37.6776 99.3596 37.4362 99.3596 36.9132V31.1887C99.3596 29.1886 98.2566 27.9989 96.4028 27.9989C95.5208 27.9774 94.6705 28.3267 94.0605 28.9611C93.4506 29.5956 93.1373 30.4564 93.1977 31.3324L93.2381 37.6546H91.4075V26.5907H92.395C92.6114 26.5696 92.8266 26.6407 92.9873 26.7864C93.148 26.9321 93.2392 27.1388 93.2381 27.3551V28.315C94.034 27.074 95.4266 26.3406 96.9053 26.3838V26.4125ZM65.5356 26.4815C68.579 26.4815 70.2768 28.0563 70.3172 30.9186V37.6431H69.3297C68.8042 37.6431 68.5616 37.4132 68.5616 36.9132V36.166C67.5912 37.2913 66.1648 37.9241 64.6751 37.8903C61.7876 37.8903 60.4998 36.0683 60.4998 34.3786C60.4998 32.1485 62.2323 30.8668 65.2815 30.8668H67.1295V31.4876C67.1295 32.0048 66.8638 32.2577 66.321 32.2577H65.4258C63.4277 32.2577 62.3304 32.9992 62.3304 34.3441C62.3304 35.689 63.7107 36.4247 64.9985 36.4247C67.0602 36.4247 68.5616 35.2177 68.5616 33.5509V30.9243C68.5616 29.0736 67.4067 28.0506 65.3912 28.0506C64.468 28.0497 63.5536 28.2293 62.7 28.5793C62.3593 28.6943 61.9435 28.6828 61.7991 28.315C61.6836 28.0333 61.5797 27.7402 61.4757 27.4586V27.3781L61.5508 27.3436C62.8133 26.7457 64.1952 26.4392 65.5933 26.447L65.5356 26.4815ZM20.4445 26.4815C23.4706 26.4528 25.2031 28.0276 25.2031 30.8898V37.6431H24.2387C23.7131 37.6431 23.4706 37.4132 23.4706 36.9132V36.166C22.5001 37.2913 21.0737 37.9241 19.584 37.8903C16.6965 37.8903 15.4145 36.0683 15.4145 34.3786C15.4145 32.1485 17.147 30.8668 20.1962 30.8668H22.0268V31.4876C22.0268 32.0048 21.7612 32.2577 21.2183 32.2577H20.3348C18.3366 32.2577 17.2394 32.9992 17.2394 34.3441C17.2394 35.689 18.6196 36.4247 19.9074 36.4247C21.9691 36.4247 23.4706 35.2177 23.4706 33.5509V30.9243C23.4706 29.0736 22.3156 28.0506 20.3001 28.0506C19.377 28.0503 18.4627 28.2299 17.609 28.5793C17.2683 28.6943 16.8525 28.6828 16.7081 28.315C16.5984 28.0333 16.4886 27.7402 16.3847 27.4586L16.3558 27.3781L16.4309 27.3436C17.6946 26.7492 19.0756 26.4429 20.4734 26.447L20.4445 26.4815ZM119.595 30.5967C119.962 30.8153 120.191 31.2058 120.202 31.6313V31.8324C120.202 32.2915 119.975 32.7212 119.595 32.9819L114.398 36.5683C111.903 38.2926 109.09 40.2295 108.75 40.4709V40.7525L108.582 40.4766C108.582 40.4766 108.582 40.4766 108.582 40.4307V38.9076C108.522 38.446 108.77 37.9989 109.194 37.8041C109.639 37.5109 117.025 32.4187 117.99 31.7635C117.02 31.091 109.743 26.0677 109.246 25.7056L109.189 25.6596C108.819 25.3952 108.53 25.1883 108.53 24.6366V22.9123L108.669 23.01C109.102 23.3089 119.312 30.3898 119.595 30.6025V30.5967ZM113.243 32.5624C112.968 32.5549 112.702 32.4647 112.48 32.3037C111.839 31.8784 108.571 29.6139 108.536 29.5909H108.501V28.4242C108.473 28.1893 108.592 27.9613 108.802 27.8494C109.033 27.7429 109.305 27.7788 109.5 27.9414C109.991 28.2575 114.75 31.5393 114.802 31.5738L114.906 31.6485L114.796 31.7232L114.12 32.183C113.866 32.3979 113.547 32.5214 113.214 32.5336L113.243 32.5624ZM25.9307 13.2968C26.0974 13.4703 26.2728 13.6353 26.4563 13.7911L26.5313 13.8486L26.4678 13.9175C25.3959 15.3098 23.7255 16.1155 21.9633 16.0901C18.7987 16.0554 16.2517 13.4923 16.2519 10.3426C16.2036 7.92035 17.6868 5.72811 19.96 4.86151C22.2333 3.99491 24.8084 4.64007 26.3985 6.47454L26.4505 6.53776L26.3985 6.59524C26.1964 6.81939 25.9943 7.03205 25.7864 7.2447C25.4341 7.58955 25.0645 7.57231 24.5909 7.17573C23.8597 6.51831 22.9139 6.14672 21.9287 6.12969C19.7861 6.12969 18.1114 7.95164 18.1114 10.2794C18.0756 11.3485 18.4691 12.3878 19.2049 13.1675C19.9407 13.9473 20.9583 14.4033 22.0326 14.4348C23.0666 14.4278 24.0586 14.0267 24.8046 13.314C25.1149 13.0154 25.6025 13.0004 25.9307 13.2796V13.2968ZM37.8272 0.761547C38.0505 0.750412 38.2677 0.836717 38.4219 0.997916C38.5761 1.15912 38.6521 1.3792 38.6299 1.60068V2.75017H37.3594C36.7242 2.75017 36.5913 2.37659 36.5913 2.05473V0.761547H37.8272ZM37.6828 4.78478C37.8987 4.75323 38.1171 4.823 38.2742 4.97372C38.4313 5.12443 38.5093 5.33908 38.4855 5.55494V15.9004H37.3305V15.8602C36.9353 15.8295 36.6374 15.4896 36.6606 15.0958V4.79053L37.6828 4.78478ZM49.458 5.37677C49.6047 4.97327 50.0041 4.71692 50.434 4.7503H51.6814L51.6236 4.87099C51.5832 4.97445 47.252 14.8601 47.0787 15.2452C46.9402 15.6175 46.5696 15.8524 46.172 15.8199H45.9584C45.4964 15.8199 45.2076 15.7337 45.017 15.2452C44.8265 14.7567 40.5126 4.89973 40.4664 4.80203L40.4144 4.67558H41.6964C42.1432 4.64887 42.5544 4.91781 42.7071 5.33654C42.8399 5.72737 45.5541 12.2795 46.0623 13.5152L49.458 5.37677ZM60.6788 9.63565C60.7623 9.64499 60.8455 9.61528 60.904 9.55519C60.9695 9.43764 60.9841 9.2986 60.9444 9.17011C60.9144 8.32593 60.5479 7.52839 59.9259 6.95361C59.304 6.37883 58.4777 6.0741 57.6296 6.1067C55.8105 6.1067 54.3898 7.60105 54.1646 9.73336C54.142 9.92413 54.1305 10.116 54.13 10.3081C54.1292 10.5002 54.1407 10.6922 54.1646 10.8829C54.3898 13.0554 55.8971 14.5153 57.9415 14.5153C59.0286 14.5491 60.0866 14.1618 60.8925 13.4347C61.1837 13.1537 61.6465 13.1537 61.9377 13.4347L62.4806 13.9003L62.5499 13.9578L62.4864 14.0267C61.3565 15.3744 59.6698 16.1343 57.9068 16.0901C54.7306 16.0901 52.3397 13.5957 52.3397 10.2966C52.3397 6.99756 54.6555 4.50316 57.7047 4.50316C60.4005 4.42447 62.6667 6.50129 62.8098 9.1816C62.8799 9.68481 62.7378 10.1945 62.4171 10.5897C62.0657 10.9226 61.5901 11.0935 61.1061 11.061C60.1244 11.061 57.7624 11.061 55.7239 11.1013H55.6372V10.4058C55.6183 10.2004 55.6905 9.99706 55.8348 9.84902C55.9791 9.70099 56.1811 9.62306 56.388 9.63565H60.6788ZM9.18328 1.30181C9.39695 1.76161 15.6397 15.5613 15.7032 15.6992L15.761 15.8257H14.6926C14.2155 15.8829 13.7487 15.6585 13.4972 15.2509C13.3008 14.8256 8.73283 4.5089 8.06293 3.02605L4.80007 10.2794H9.61063V11.0725C9.61334 11.3168 9.51177 11.5508 9.33118 11.7163C9.15059 11.8818 8.90794 11.9632 8.66353 11.9404H4.04355C3.8703 12.3255 2.79615 14.6762 2.59403 15.1015C2.42337 15.5417 1.99974 15.8334 1.52565 15.8372H0.370658L0.428407 15.7107C0.491932 15.5728 6.80399 1.59493 6.94259 1.30181C7.10123 0.962009 7.43834 0.73982 7.81461 0.727062H8.24196C8.65124 0.680227 9.03979 0.917465 9.18328 1.30181ZM34.0157 14.2566C34.1764 14.3781 34.2618 14.5742 34.2409 14.7739C34.2436 15.0159 34.2301 15.2579 34.2005 15.4981V15.5441H34.1543C33.4423 15.8613 32.6706 16.0239 31.8905 16.0211C29.8519 16.0211 28.7258 14.8716 28.7258 12.8657V0.796032H29.5921C29.8287 0.771105 30.0647 0.848989 30.2394 1.00972C30.4142 1.17045 30.5108 1.39841 30.5045 1.63516V4.79053H33.0282C33.2676 4.76813 33.5056 4.8458 33.6852 5.00494C33.8649 5.16409 33.9699 5.39038 33.9753 5.62966V6.39408H30.5103L30.5449 12.6473C30.4813 13.1212 30.6433 13.5976 30.983 13.9356C31.3227 14.2737 31.8013 14.4349 32.2774 14.3716C32.6343 14.3653 32.9884 14.3072 33.3285 14.1992C33.5512 14.1138 33.8013 14.1372 34.0042 14.2624L34.0157 14.2566Z" fill="#356AE6"/>
</svg>
