<?xml version="1.0" encoding="UTF-8"?>
<svg width="85px" height="71px" viewBox="0 0 85 71" version="1.1" xmlns="http://www.w3.org/2000/svg" xmlns:xlink="http://www.w3.org/1999/xlink">
    <!-- Generator: Sketch 52.4 (67378) - http://www.bohemiancoding.com/sketch -->
    <title>Artboard</title>
    <desc>Created with Sketch.</desc>
    <g id="Artboard" stroke="none" stroke-width="1" fill="none" fill-rule="evenodd">
        <path d="M50.0821785,20.0935674 C48.0545127,20.2543515 45.7142113,20.4079896 43.3756963,20.7224118 C39.7902115,21.1851126 36.2047268,21.8157434 33.2409404,23.2163513 C27.4723652,25.5637988 23.5724583,30.5570374 23.5724583,37.9012964 C23.5724583,47.1195832 29.500031,51.7983996 36.9818498,51.7983996 C39.4811488,51.7983996 41.5070281,51.4911234 43.3739098,51.0212766 C46.3394827,50.0833695 48.8334222,48.3683394 51.7954221,45.2419825 C53.5104522,47.5894299 53.976726,48.6827616 56.9422989,51.1767012 C57.7229949,51.4911234 58.5019043,51.4911234 59.1236028,51.0212766 C60.9940574,49.4598846 64.2669065,46.6497364 65.9872961,45.0883444 C66.7644191,44.4577135 66.6054215,43.5251659 66.1427207,42.740897 C64.4259041,40.5560201 62.7126605,38.6784195 62.7126605,34.4658768 L62.7126605,20.4062031 C62.7126605,14.4661249 63.1771478,9.00125302 58.81454,4.94413498 C55.2290553,1.65878047 49.6141182,0.411810682 45.249724,0.411810682 C44.6226661,0.411810682 44.0045407,0.411810682 43.3756963,0.411810682 C35.4240308,0.881657465 27.0043049,4.31529061 25.1284908,14.1570622 C24.8230011,15.404032 25.7591216,15.8738788 26.3826065,16.0346629 L35.1113951,17.1279945 C36.0475157,16.965424 36.512003,16.1865145 36.6674276,15.404032 C37.4499101,11.9721853 40.2564853,10.2553688 43.3739098,9.94094659 L44.0009677,9.94094659 C45.8660629,9.94094659 47.8937287,10.7252156 48.9888468,12.2794616 C50.2304572,14.1570622 50.080392,16.6581478 50.080392,18.8430246 L50.0821785,20.0935674 Z M50.0821785,29.158216 C50.0821785,32.7526332 50.2340301,35.560995 48.365362,38.6802059 C47.2738168,40.8668693 45.4033621,42.2728367 43.3756963,42.7426835 C43.0648471,42.7426835 42.6003598,42.9034675 42.130513,42.9034675 C38.7022393,42.9034675 36.6692141,40.2487439 36.6692141,36.341691 C36.6692141,31.3448793 39.6347869,28.9992184 43.3756963,27.9058867 C45.4051486,27.4360399 47.74545,27.2806153 50.0821785,27.2806153 L50.0821785,29.158216 Z" id="Shape" fill="#232F3D" fill-rule="nonzero"></path>
        <path d="M78.803573,66.2707524 C78.0389554,66.86744 77.2796973,66.5262205 77.6137709,65.6722784 C78.719608,62.9550276 81.2546368,56.6719434 80.0737671,55.2338192 C79.226971,54.1333416 75.7540351,54.2208796 72.7884623,54.4674152 C71.4343031,54.6424912 70.244501,54.7246697 69.3137398,54.8961727 C68.4669437,54.9765647 68.2972272,54.2208796 69.1458098,53.6224056 C70.244501,52.8595745 71.4343031,52.2700329 72.7884623,51.8412754 C77.6137709,50.3977917 83.210843,51.2517338 83.9736741,52.1824949 C84.1416041,52.4379629 84.3095341,52.941753 84.3095341,53.624192 L84.3095341,54.1351281 C84.2255691,57.1918119 82.6159419,63.0461386 78.803573,66.2707524 Z M0.953712549,54.1369146 C0.0175919608,53.372297 0.78220954,52.2718194 1.88268718,52.8649339 C13.6592271,59.7375597 28.2262639,63.8982942 43.3078097,63.8982942 C52.7994293,63.8982942 63.0413746,62.1153775 72.7884623,58.294076 C73.4637554,58.0403945 74.2265864,57.695602 74.903666,57.4419205 C76.4293282,56.7648409 77.7834874,58.469152 76.2578252,59.5678432 C75.159134,60.4146393 73.9764779,61.1774704 72.7884623,61.8616959 C63.8935302,67.2050865 52.3742448,70.0080888 42.3788351,70.0080888 C26.2807766,70.0080888 11.8798834,64.0644377 0.953712549,54.1369146 Z" id="Combined-Shape" fill="#FE9927"></path>
    </g>
</svg>