<?xml version="1.0" encoding="UTF-8"?>
<svg width="98px" height="24px" viewBox="0 0 98 24" version="1.1" xmlns="http://www.w3.org/2000/svg" xmlns:xlink="http://www.w3.org/1999/xlink">
    <!-- Generator: Sketch 52.4 (67378) - http://www.bohemiancoding.com/sketch -->
    <title>Artboard</title>
    <desc>Created with Sketch.</desc>
    <g id="Artboard" stroke="none" stroke-width="1" fill="none" fill-rule="evenodd">
        <path d="M17.2246667,6.5592 L19.9966667,13.1328 L14.2356667,13.1328 L17.2246667,6.5592 Z M68.138,16.8576 L58.5036667,16.8576 L58.5036667,13.296 L68.138,13.296 L68.138,10.0584 L58.5036667,10.0584 L58.5036667,7.1448 L68.138,7.1448 L68.138,4.392 L75.285,11.7432 L68.138,19.128 L68.138,16.8576 Z M78.12,9.1488 L73.3973333,3.9024 L54.4436667,3.9024 L54.4436667,20.0952 L72.7696667,20.0952 L77.966,14.784 L83.1926667,20.0952 L88.074,20.0952 L80.612,11.9016 L88.2956667,3.9024 L83.195,3.9024 L78.12,9.1488 Z M50.82,3.9024 L44.2073333,3.9024 L39.2326667,14.7528 L33.88,3.9024 L27.2673333,3.9024 L27.2673333,19.6104 L20.4353333,3.9024 L14.2333333,3.9024 L6.92766667,20.0952 L11.3983333,20.0952 L12.8776667,16.404 L21.378,16.404 L23.079,20.0952 L31.297,20.0952 L31.297,6.9144 L37.121,20.0952 L40.9616667,20.0952 L46.7553333,7.14 L46.7553333,20.0952 L50.8176667,20.0952 L50.82,3.9024 Z M18.641,19.9992 L15.743,19.9992 L18.641,19.9992 Z M15.7546667,19.7592 L14.2683333,23.3352 L0.947333333,23.3352 L11.4613333,0.6648 L36.5726667,0.6648 L39.1066667,5.6712 L41.475,0.6648 L50.3953333,0.6648 L54.8916667,0.6648 L75.3293333,0.6648 L78.2226667,3.7776 L81.3306667,0.6648 L97.0526667,0.6648 L85.89,11.9736 L96.5696667,23.3352 L81.3563333,23.3352 L77.952,19.9968 L74.5756667,23.3352 L54.8916667,23.3352 L50.3953333,23.3352 L20.2696667,23.3352 L18.6363333,19.7592 L15.7546667,19.7592 Z" id="Shape" fill="#129AD7" fill-rule="nonzero"></path>
    </g>
</svg>