<svg width="162" height="51" viewBox="0 0 162 51" fill="none" xmlns="http://www.w3.org/2000/svg">
<path fill-rule="evenodd" clip-rule="evenodd" d="M19.0357 37.5L22.8726 19.3496C20.3312 18.2012 18.3891 17.75 16.1958 17.5508C12.458 25.7012 9.71725 35.1504 9.71725 40.1992C9.71725 42.0938 10.116 42.75 10.4145 43.1992C7.7233 43.1992 3.73777 43.0996 3.73777 37.9004C3.73777 33.4004 6.7275 25.1992 11.0623 17.5488C7.97225 17.75 5.88037 18.4492 5.23264 20.1543C5.48158 20.1543 5.88037 21.0039 5.88037 21.7031C5.88037 22.9043 4.63445 23.6543 3.09003 23.6543C1.39576 23.6543 0 22.707 0 20.7539C0 17.3535 4.33477 14.6035 10.0653 14.6035C10.7626 14.6035 11.71 14.6523 12.7565 14.7539C17.7898 6.74805 24.2672 0 30.1971 0C31.1941 0 32.8376 0.199219 34.034 0.699219L26.2116 37.5H19.0357ZM26.2116 3.55078C23.2218 5.15234 20.0327 9.80078 17.2447 15.4023C19.2882 15.8027 21.3812 16.3496 23.3245 17.1523L26.2116 3.55078ZM43.8008 10.6543L43.0032 14.4043C44.4485 13.1543 46.3422 12.2539 48.8328 12.2539C52.2214 12.2539 54.9126 14.2051 54.9126 20.1543C54.9126 26.9023 52.3169 37.8047 42.6539 37.8047C40.1621 37.8047 38.9669 36.9551 38.4183 36.0039L35.8226 48.2031L28.2987 50.0039L36.6249 10.6543H43.8008ZM48.086 20.0059C48.086 16.1562 46.4908 15.8574 45.5941 15.8574C44.4981 15.8574 43.1023 16.707 42.1561 18.3066L39.2159 32.3008C39.4153 32.8496 39.9639 33.4492 41.1036 33.4492C46.3422 33.4492 48.086 24.6992 48.086 20.0059ZM66.3229 14.4043L67.1205 10.6543H59.9446L51.6184 50.0039L59.1423 48.2031L61.738 36.0039C62.2867 36.9551 63.4818 37.8047 65.9737 37.8047C75.6367 37.8047 78.2323 26.9023 78.2323 20.1543C78.2323 14.2051 75.5411 12.2539 72.1525 12.2539C69.6619 12.2539 67.7682 13.1543 66.3229 14.4043ZM68.9139 15.8574C69.8106 15.8574 71.4057 16.1562 71.4057 20.0059C71.4057 24.6992 69.6619 33.4492 64.4198 33.4492C63.2801 33.4492 62.7315 32.8496 62.5321 32.3008L65.4758 18.3066C66.422 16.707 67.8178 15.8574 68.9139 15.8574ZM104.344 16.8496C102.55 16.8496 101.204 18.9512 100.457 21.4512L97.0686 37.5H89.8928L93.5303 20.25C93.6321 19.8418 93.6825 19.4219 93.6801 19C93.6801 17.9004 93.2813 16.8008 92.1852 16.8008C90.242 16.8008 88.897 18.9512 88.149 21.4512L84.7604 37.5H77.5846L82.8668 12.5H90.0426L89.494 15.1055C91.5871 12.7051 93.8288 12.2559 95.5738 12.2559C98.0149 12.2559 100.009 13.2031 100.657 16.5547C103.099 12.8555 105.789 12.3047 107.633 12.3047C110.819 12.3047 113.164 13.9551 113.164 17.957C113.164 20.166 112.452 22.9707 111.805 25.5195C111.266 27.6426 110.773 29.5859 110.773 30.8594C110.773 32.1094 111.27 32.9609 112.765 32.9609C114.521 32.9609 115.446 31.8066 116.308 30.0117C116.307 29.9277 116.306 29.8418 116.306 29.7559C116.306 23.0078 120.441 12.2559 129.112 12.2559C130.757 12.2559 132.85 12.5566 133.198 14.8613L133.696 12.5117L140.874 12.5L137.286 29.5C137.19 29.9102 137.14 30.3301 137.136 30.75C137.136 32 137.634 32.9492 139.279 32.9492C141.875 32.9492 145.159 30.8008 147.252 28.25L144.362 12.5059H151.388L153.331 23.3047C156.271 20.1094 158.065 17.1543 158.065 15.3555C158.073 15.1543 158.056 14.9531 158.015 14.7559C157.736 14.8105 157.452 14.8438 157.168 14.8555C155.424 14.8555 154.826 13.6055 154.826 12.0547C154.826 10.5547 156.072 9.70508 157.616 9.70508C159.858 9.70508 161.005 11.7051 161.005 14.1543C161.005 17.4043 158.763 20.8555 153.878 26.0547L154.327 28.5547C154.875 31.5059 155.271 32.9551 157.466 32.9551C158.363 32.9551 158.764 32.8047 159.061 32.6562C158.813 36.207 156.271 37.8066 153.58 37.8066C150.44 37.8066 148.945 35.8555 147.799 31.1074C144.061 35.8555 140.13 37.8066 136.089 37.8066C133.348 37.8066 130.907 36.0566 130.408 33.1055C128.863 35.457 126.521 37.8066 122.933 37.8066C120.361 37.8066 117.876 36.5957 116.827 33.4102C114.438 37.2129 111.769 37.8086 109.778 37.8086C105.443 37.8086 103.898 35.0098 103.898 32.1582C103.898 30.4316 104.475 27.998 105.044 25.6016C105.596 23.2754 106.139 20.9844 106.139 19.4082C106.137 17.75 105.54 16.8496 104.344 16.8496ZM126.174 32.9492C125.276 32.9492 123.682 32.9004 123.682 29.0508L123.678 29.0488C123.678 24.3496 126.419 15.3496 130.658 15.3555C132.203 15.3555 132.652 16.6504 132.701 17.25L130.31 28.5488C129.714 31.4492 127.62 32.9492 126.174 32.9492Z" fill="black"/>
</svg>
