<svg width="50" height="50" viewBox="0 0 50 50" fill="none" xmlns="http://www.w3.org/2000/svg">
<rect x="0.5" y="0.5" width="49" height="49" rx="9.5" fill="white" stroke="#E5E5E5"/>
<path d="M9.60249 25.8956H7.54259L7.17539 26.8571H6.33569L8.12 22.3428H9.04485L10.8292 26.8571H9.97007L9.60249 25.8956ZM9.3269 25.1753L8.57273 23.1932L7.81818 25.1756L9.3269 25.1753Z" fill="#FF4F00"/>
<path d="M11.1702 25.5289V23.5195H11.9049V25.4307C11.9049 25.9084 12.233 26.2292 12.7184 26.2292C13.2038 26.2292 13.525 25.9084 13.525 25.4307V23.5203H14.2598V25.5297C14.2598 26.3805 13.6433 26.9366 12.7184 26.9366C11.7867 26.9359 11.1702 26.3797 11.1702 25.5289Z" fill="#FF4F00"/>
<path d="M16.1229 24.1877V25.7645C16.1229 26.0788 16.3 26.2293 16.6083 26.2293C16.7687 26.2277 16.9263 26.1873 17.0675 26.1114V26.7984C16.8786 26.8936 16.669 26.9409 16.4574 26.936C15.7351 26.936 15.3881 26.5299 15.3881 25.8824V24.1877H14.824V23.5204H15.3881V22.6567H16.1229V23.5204H17.0675V24.1877H16.1229Z" fill="#FF4F00"/>
<path d="M17.4148 25.1889C17.4148 24.1945 18.1823 23.4419 19.2056 23.4419C20.2224 23.4419 20.9967 24.1945 20.9967 25.1889C20.9967 26.1834 20.2224 26.936 19.2056 26.936C18.1823 26.936 17.4148 26.1834 17.4148 25.1889ZM20.2357 25.1889C20.2357 24.6001 19.7959 24.1486 19.2056 24.1486C18.6152 24.1486 18.1693 24.6001 18.1693 25.1889C18.1693 25.7777 18.6152 26.2293 19.2056 26.2293C19.7959 26.2293 20.2357 25.7777 20.2357 25.1889V25.1889Z" fill="#FF4F00"/>
<path d="M26.9332 24.6911V26.8567H26.1984V24.9072C26.1984 24.4492 25.9099 24.1489 25.4571 24.1489C24.985 24.1489 24.6634 24.4564 24.6634 24.9208V26.8574H23.9287V24.9072C23.9287 24.4492 23.6402 24.1489 23.1874 24.1489C22.7153 24.1489 22.3937 24.4564 22.3937 24.9208V26.8574H21.6589V23.5211H22.3937V23.9123C22.6431 23.6052 22.9974 23.4399 23.4303 23.4399C23.9222 23.4399 24.3046 23.6625 24.5061 24.0287C24.7684 23.6496 25.1751 23.4399 25.6803 23.4399C26.4413 23.4399 26.9332 23.9389 26.9332 24.6911Z" fill="#262E6C"/>
<path d="M31.12 23.5202V26.8565H30.3833V26.3796C30.244 26.5565 30.0654 26.6988 29.8617 26.7953C29.658 26.8918 29.4346 26.9399 29.2091 26.9358C28.2645 26.9358 27.5627 26.1832 27.5627 25.1887C27.5627 24.1943 28.2645 23.4402 29.2091 23.4402C29.4346 23.436 29.658 23.4841 29.8617 23.5806C30.0655 23.6771 30.244 23.8194 30.3833 23.9964V23.5202H31.12ZM30.3852 25.1884C30.3852 24.5996 29.9458 24.148 29.3554 24.148C28.7586 24.148 28.3188 24.5996 28.3188 25.1884C28.3188 25.7772 28.7586 26.2287 29.3554 26.2287C29.9439 26.2291 30.3833 25.7775 30.3833 25.1887L30.3852 25.1884Z" fill="#262E6C"/>
<path d="M35.3161 27.838L34.5559 28.0408C34.5365 27.7728 34.3069 27.6026 33.972 27.6026H32.824C32.2272 27.6026 31.8269 27.2556 31.8269 26.7518C31.8269 26.4181 31.9976 26.1042 32.2667 25.9473C32.1224 25.8138 32.0076 25.6518 31.9296 25.4715C31.8517 25.2913 31.8123 25.0968 31.814 24.9005C31.814 24.0694 32.483 23.4412 33.3687 23.4412C33.6325 23.4402 33.8928 23.5007 34.129 23.6179C34.2141 23.2645 34.5224 23.042 34.9489 23.042H35.2177V23.7229H34.9896C34.7862 23.7229 34.6357 23.8344 34.6159 24.0107C34.8175 24.2634 34.9254 24.5779 34.9212 24.9009C34.9212 25.7315 34.2453 26.3598 33.3665 26.3598C33.1536 26.3606 32.9424 26.323 32.743 26.2487C32.6893 26.2833 32.645 26.3307 32.614 26.3866C32.5831 26.4425 32.5666 26.5052 32.5659 26.569C32.5659 26.7586 32.7237 26.8898 32.9597 26.8898H34.1077C34.7585 26.8902 35.2177 27.2496 35.3161 27.838ZM32.5674 24.9005C32.5674 25.3319 32.9095 25.666 33.368 25.666C33.8207 25.666 34.1617 25.3319 34.1617 24.9005C34.1617 24.4618 33.8196 24.1346 33.368 24.1346C32.9088 24.135 32.5674 24.4637 32.5674 24.9009V24.9005Z" fill="#262E6C"/>
<path d="M37.0879 25.1885C37.0879 24.194 37.8546 23.4399 38.8779 23.4399C39.5469 23.4399 40.1114 23.7671 40.4128 24.271L39.7765 24.6585C39.686 24.5012 39.5549 24.371 39.3969 24.2812C39.2389 24.1915 39.0597 24.1456 38.8779 24.1482C38.2876 24.1482 37.8413 24.5997 37.8413 25.1885C37.8413 25.7773 38.2876 26.2288 38.8779 26.2288C39.0597 26.2314 39.2389 26.1855 39.3969 26.0957C39.5549 26.006 39.686 25.8758 39.7765 25.7185L40.4128 26.1045C40.1114 26.6083 39.5469 26.9355 38.8779 26.9355C37.8546 26.9355 37.0879 26.183 37.0879 25.1885Z" fill="#262E6C"/>
<path d="M40.7539 25.1889C40.7539 24.1945 41.5218 23.4419 42.5451 23.4419C43.5619 23.4419 44.3358 24.1945 44.3358 25.1889C44.3358 26.1834 43.5619 26.936 42.5451 26.936C41.5218 26.936 40.7539 26.1834 40.7539 25.1889ZM43.5748 25.1889C43.5748 24.6001 43.1354 24.1486 42.5451 24.1486C41.9547 24.1486 41.5085 24.6001 41.5085 25.1889C41.5085 25.7777 41.9543 26.2293 42.5451 26.2293C43.1358 26.2293 43.5748 25.7777 43.5748 25.1889V25.1889Z" fill="#262E6C"/>
<path d="M36.6096 25.7856L36.2006 26.1428C36.158 26.1806 36.1243 26.2275 36.1021 26.28C36.0799 26.3324 36.0696 26.3892 36.0722 26.4461V26.4461C36.0747 26.4861 36.093 26.5235 36.1232 26.5501C36.1533 26.5767 36.1928 26.5903 36.2329 26.5879C36.2671 26.5863 36.2996 26.5729 36.3249 26.55L36.5222 26.3756C36.5698 26.3341 36.6062 26.2812 36.6278 26.222C36.6495 26.1627 36.6558 26.099 36.6461 26.0366L36.6096 25.7856Z" fill="#FF4F00"/>
<path d="M36.164 22.7117L35.9021 22.6753L36.0583 26.1982L36.6004 25.7262L36.164 22.7117Z" fill="#FF4F00"/>
<path d="M36.6829 26.3081L36.2237 26.7066C36.18 26.7456 36.1454 26.7938 36.1223 26.8476C36.0993 26.9015 36.0883 26.9597 36.0903 27.0182V27.0182C36.0931 27.0691 36.1159 27.1169 36.1537 27.1512C36.1916 27.1855 36.2415 27.2035 36.2925 27.2013C36.3362 27.1993 36.378 27.1834 36.4119 27.1558L36.5959 26.9909C36.6438 26.9484 36.6805 26.8948 36.7029 26.8349C36.7253 26.7749 36.7326 26.7105 36.7244 26.647L36.6829 26.3081Z" fill="#FF4F00"/>
<path d="M36.2896 27.3386C36.2368 27.3844 36.1952 27.4416 36.1681 27.506C36.141 27.5704 36.1292 27.6401 36.1334 27.7098V27.7098C36.1356 27.7585 36.1475 27.8064 36.1684 27.8506C36.1893 27.8947 36.2187 27.9343 36.255 27.9671C36.2913 27.9999 36.3337 28.0252 36.3799 28.0415C36.426 28.0579 36.4749 28.0649 36.5238 28.0623H36.5515C36.6508 28.052 36.7419 28.0028 36.8047 27.9255C36.8676 27.8482 36.8971 27.7492 36.8868 27.6502V27.6408L36.7811 26.917L36.2896 27.3386Z" fill="#FF4F00"/>
<path d="M35.8012 20.943L35.9913 21.3001C35.9958 21.3051 36.005 21.3096 36.0095 21.3051L36.3817 21.1447C36.3908 21.1401 36.3999 21.1447 36.3999 21.1538V21.1629L36.2391 21.5341C36.2346 21.5432 36.2391 21.5477 36.2437 21.5523L36.6021 21.7449C36.6039 21.7455 36.6054 21.7466 36.6067 21.7479C36.6079 21.7493 36.6088 21.751 36.6092 21.7528C36.6097 21.7545 36.6097 21.7564 36.6092 21.7582C36.6088 21.76 36.6079 21.7617 36.6067 21.7631C36.6067 21.7676 36.6021 21.7676 36.5976 21.7722L36.2068 21.8775C36.1977 21.8775 36.1931 21.8866 36.1977 21.8957L36.2714 22.2946C36.2714 22.2982 36.2705 22.3017 36.2688 22.3048C36.2672 22.308 36.2648 22.3107 36.2619 22.3128C36.2594 22.3131 36.2569 22.3129 36.2546 22.3121C36.2522 22.3113 36.25 22.31 36.2482 22.3082L35.9221 22.0701C35.9197 22.0677 35.9164 22.0664 35.913 22.0664C35.9095 22.0664 35.9063 22.0677 35.9038 22.0701L35.6378 22.3735C35.6344 22.3757 35.6304 22.3769 35.6264 22.3769C35.6223 22.3769 35.6183 22.3757 35.6149 22.3735C35.6104 22.3689 35.6104 22.3689 35.6104 22.3644L35.5944 21.9613C35.5947 21.9595 35.5946 21.9575 35.594 21.9557C35.5935 21.9539 35.5925 21.9522 35.5911 21.9509C35.5898 21.9495 35.5882 21.9485 35.5864 21.9478C35.5846 21.9472 35.5826 21.947 35.5807 21.9473L35.1767 21.9291C35.1731 21.9289 35.1696 21.9275 35.167 21.9249C35.1645 21.9224 35.1629 21.9191 35.1626 21.9155C35.1626 21.9109 35.1626 21.9064 35.1672 21.9064L35.4751 21.6451C35.4773 21.6425 35.4785 21.6393 35.4785 21.6359C35.4785 21.6325 35.4773 21.6292 35.4751 21.6266L35.2409 21.3013C35.2397 21.2999 35.2388 21.2982 35.2384 21.2964C35.2379 21.2946 35.2379 21.2928 35.2384 21.291C35.2388 21.2892 35.2397 21.2875 35.2409 21.2862C35.2422 21.2848 35.2437 21.2837 35.2455 21.2831C35.2473 21.2813 35.2494 21.28 35.2518 21.2793C35.2542 21.2785 35.2567 21.2782 35.2592 21.2785L35.6587 21.3543C35.6623 21.3543 35.6658 21.3535 35.669 21.3519C35.6722 21.3503 35.6751 21.3481 35.6773 21.3453L35.783 20.9566C35.783 20.9475 35.7921 20.943 35.8012 20.943C35.8012 20.9377 35.7955 20.9339 35.8012 20.943Z" fill="#FF4F00"/>
<path d="M38.5019 21.6668C38.2815 21.6577 38.1712 21.7127 38.0458 21.8943C38.0416 21.9009 38.0361 21.9067 38.0297 21.9112C38.0233 21.9157 38.0161 21.9189 38.0084 21.9207C38.0007 21.9224 37.9928 21.9226 37.9851 21.9213C37.9773 21.9199 37.9699 21.9171 37.9633 21.9129C37.9545 21.9067 37.9474 21.8984 37.9425 21.8888C37.9377 21.8793 37.9353 21.8686 37.9355 21.8579C37.9447 21.638 37.8896 21.528 37.7075 21.4029C37.7008 21.3988 37.6951 21.3933 37.6905 21.3869C37.686 21.3805 37.6828 21.3733 37.6811 21.3656C37.6794 21.358 37.6792 21.35 37.6806 21.3423C37.682 21.3346 37.685 21.3272 37.6892 21.3207C37.6954 21.3119 37.7037 21.3048 37.7133 21.2999C37.7229 21.2951 37.7336 21.2927 37.7443 21.293C37.9648 21.3025 38.0751 21.2475 38.2005 21.0655C38.2091 21.0523 38.2225 21.0429 38.238 21.0395C38.2534 21.0361 38.2696 21.0389 38.283 21.0473C38.2918 21.0534 38.299 21.0617 38.3039 21.0713C38.3087 21.0809 38.3111 21.0915 38.3107 21.1023C38.3016 21.3222 38.3567 21.4321 38.5388 21.5572C38.5455 21.5614 38.5512 21.5669 38.5558 21.5734C38.5603 21.5798 38.5635 21.5871 38.5652 21.5948C38.5669 21.6025 38.5671 21.6104 38.5657 21.6181C38.5643 21.6259 38.5613 21.6333 38.5571 21.6399C38.5504 21.6482 38.5421 21.6549 38.5325 21.6596C38.523 21.6642 38.5126 21.6667 38.5019 21.6668V21.6668Z" fill="#FF4F00"/>
<path d="M37.5785 22.2671C37.4181 22.2626 37.3398 22.305 37.2478 22.432C37.244 22.4367 37.2393 22.4406 37.2339 22.4433C37.2286 22.4461 37.2227 22.4478 37.2167 22.4482C37.2107 22.4486 37.2046 22.4478 37.1989 22.4458C37.1932 22.4438 37.188 22.4407 37.1836 22.4366C37.1791 22.4326 37.1756 22.4277 37.1732 22.4222C37.1709 22.4167 37.1697 22.4107 37.1699 22.4047C37.1745 22.2444 37.1319 22.1663 37.0045 22.0749C36.9999 22.071 36.9962 22.0662 36.9934 22.0609C36.9907 22.0555 36.9891 22.0496 36.9886 22.0436C36.9882 22.0376 36.989 22.0316 36.9909 22.0259C36.9929 22.0202 36.996 22.0149 37 22.0104C37.0041 22.006 37.0091 22.0024 37.0146 22.0001C37.0202 21.9977 37.0262 21.9966 37.0323 21.9968C37.1927 22.0013 37.271 21.9589 37.363 21.8319C37.3669 21.8273 37.3716 21.8235 37.377 21.8208C37.3823 21.8181 37.3882 21.8165 37.3942 21.816C37.4002 21.8156 37.4062 21.8164 37.4118 21.8183C37.4175 21.8203 37.4228 21.8233 37.4272 21.8273C37.4317 21.8314 37.4353 21.8364 37.4376 21.8419C37.44 21.8475 37.4411 21.8535 37.4409 21.8595C37.4364 22.0199 37.4789 22.0976 37.6063 22.1894C37.6109 22.1932 37.6147 22.198 37.6174 22.2033C37.6201 22.2087 37.6217 22.2145 37.6222 22.2205C37.6226 22.2264 37.6218 22.2324 37.6199 22.2381C37.6179 22.2438 37.6148 22.249 37.6108 22.2535C37.6068 22.2579 37.6018 22.2615 37.5962 22.2638C37.5906 22.2662 37.5846 22.2673 37.5785 22.2671Z" fill="#FF4F00"/>
<path d="M37.1976 21.4054C37.1509 21.3978 37.1029 21.4053 37.0607 21.4268C37.0185 21.4483 36.9843 21.4826 36.9631 21.5248C36.961 21.5281 36.9583 21.531 36.9551 21.5332C36.9519 21.5355 36.9483 21.5371 36.9445 21.5379C36.9406 21.5387 36.9367 21.5388 36.9328 21.5382C36.929 21.5375 36.9253 21.536 36.922 21.5339C36.9176 21.5309 36.9139 21.5267 36.9115 21.5219C36.909 21.517 36.9078 21.5117 36.908 21.5063C36.9153 21.4591 36.9077 21.4109 36.8863 21.3683C36.8649 21.3256 36.8308 21.2906 36.7886 21.2682C36.7815 21.2643 36.7761 21.2579 36.7736 21.2502C36.771 21.2425 36.7715 21.2342 36.7749 21.2268C36.7775 21.2207 36.7821 21.2157 36.7878 21.2124C36.7936 21.2091 36.8003 21.2078 36.8069 21.2086C36.8535 21.2157 36.9013 21.2086 36.9439 21.1883C36.9865 21.168 37.022 21.1355 37.046 21.0949C37.0479 21.0914 37.0506 21.0883 37.0539 21.0859C37.0571 21.0835 37.0608 21.0818 37.0647 21.0809C37.0686 21.0799 37.0727 21.0798 37.0767 21.0805C37.0806 21.0813 37.0844 21.0828 37.0878 21.085C37.0921 21.0881 37.0956 21.0922 37.098 21.097C37.1004 21.1018 37.1016 21.107 37.1015 21.1123C37.0948 21.1582 37.1022 21.205 37.1225 21.2466C37.1428 21.2882 37.1752 21.3228 37.2155 21.3459C37.2225 21.351 37.2273 21.3585 37.229 21.367C37.2307 21.3755 37.2291 21.3844 37.2246 21.3918C37.2215 21.396 37.2175 21.3995 37.2128 21.4019C37.2081 21.4043 37.2029 21.4055 37.1976 21.4054V21.4054Z" fill="#FF4F00"/>
</svg>
