<?xml version="1.0" encoding="UTF-8"?>
<svg width="127px" height="39px" viewBox="0 0 127 39" version="1.1" xmlns="http://www.w3.org/2000/svg" xmlns:xlink="http://www.w3.org/1999/xlink">
    <!-- Generator: Sketch 52.4 (67378) - http://www.bohemiancoding.com/sketch -->
    <title>b2w-entrega</title>
    <desc>Created with Sketch.</desc>
    <g id="Page-1" stroke="none" stroke-width="1" fill="none" fill-rule="evenodd">
        <g id="b2w-entrega">
            <polygon id="Fill-1" fill="#00EACD" points="42.6799744 -0.000385822784 9.17658682 0.000578734178 17.5989512 8.25139899 33.5015171 8.25139899 33.5015171 38.3696901 42.6789899 29.3790547"></polygon>
            <path d="M62.7419948,17.5970157 C61.4782669,17.5970157 60.214539,17.5970157 58.9508111,17.5988392 C58.7324349,17.5988392 58.7318145,17.5982314 58.7318145,17.3903563 C58.7311941,16.936921 58.7336757,16.4834858 58.7299534,16.0300506 C58.7287126,15.9242896 58.7572504,15.8404101 58.8273541,15.7565307 C60.5650575,13.6911515 62.3015202,11.6239489 64.0361217,9.5561384 C64.3692694,9.15862281 64.65899,8.73679431 64.7501869,8.2146752 C64.8326984,7.74118187 64.8103645,7.27559021 64.6323134,6.82458628 C64.4226227,6.29578113 64.0410848,5.93898961 63.4870794,5.77123074 C62.9547875,5.6101579 62.4206345,5.6210987 61.9026115,5.82107214 C61.1972317,6.0933764 60.8578801,6.64102403 60.7579978,7.35339142 C60.7462105,7.43970216 60.7331824,7.52662069 60.732562,7.61353925 C60.7313212,7.71869245 60.6878941,7.76063216 60.5793264,7.76002436 C60.0228395,7.75698523 59.4669729,7.7557696 58.9104859,7.76063216 C58.7677969,7.76184781 58.7516669,7.68890919 58.7560096,7.57828558 C58.8168075,6.08851382 59.592291,4.82485187 61.0464777,4.25836175 C62.2227311,3.80006396 63.4194572,3.80857347 64.5876456,4.28389028 C65.7521116,4.75799145 66.4357779,5.640549 66.681451,6.84646787 C66.9215407,8.02442692 66.700683,9.10513447 65.9475335,10.0715714 C65.3798795,10.7997422 64.7768636,11.4987375 64.1874961,12.2092815 C63.2134888,13.3829857 62.2345184,14.5530431 61.25865,15.7255318 C61.2307326,15.7595698 61.1686939,15.7911766 61.1990928,15.8440571 C61.2263899,15.8908594 61.2884286,15.8714091 61.3355779,15.8714091 C63.053429,15.8720169 64.7712801,15.8720169 66.4891311,15.8720169 C66.5424844,15.8720169 66.5958377,15.8732325 66.6491909,15.8738404 C66.7254985,15.875056 66.7639625,15.9139566 66.7639625,15.9881109 C66.7639625,16.4847015 66.7639625,16.9818999 66.7645829,17.4790983 C66.7645829,17.5617621 66.7223966,17.5976236 66.6405055,17.5964079 C66.5958377,17.5951923 66.5517902,17.5970157 66.5071223,17.5970157 L62.7419948,17.5970157 Z M75.026274,8.39033577 C74.910882,8.7805575 74.8029347,9.1422116 74.6962282,9.50447351 C73.9176428,12.1484993 73.1390573,14.7919172 72.3648146,17.4371586 C72.3257302,17.5714872 72.2680342,17.60978 72.1284472,17.6073487 C71.6433047,17.5982314 71.1581622,17.599447 70.6730197,17.6067409 C70.5545259,17.6085644 70.5036542,17.5769576 70.4732552,17.4614714 C69.8336364,15.0465946 69.1896749,12.6335412 68.5463338,10.21988 C68.0432001,8.33259268 67.539446,6.44530534 67.0363123,4.558018 C67.0232842,4.5081766 67.0127376,4.45711955 66.9984687,4.39451388 C67.0443773,4.39025913 67.0816005,4.38418091 67.1194441,4.38418091 C67.7603037,4.38357309 68.4011633,4.38600438 69.0420229,4.38174962 C69.1412847,4.3811418 69.1766468,4.41274854 69.2002215,4.50756878 C69.9521303,7.54120842 70.7077614,10.5736324 71.4621518,13.6066642 C71.4733187,13.6522509 71.4863469,13.6978376 71.5086808,13.7829327 C71.5763029,13.5525681 71.6339989,13.3586729 71.6898337,13.1641698 C72.5137074,10.2885639 73.3382015,7.41295797 74.1583528,4.53674423 C74.1912333,4.42186587 74.2359012,4.37688704 74.365562,4.37992616 C74.8103794,4.38904348 75.2558171,4.38904348 75.7006344,4.38053398 C75.831536,4.37810269 75.8830281,4.41882676 75.9177698,4.54160681 C76.7794871,7.56065874 77.6455471,10.578495 78.5103663,13.5963313 C78.5233944,13.6413101 78.5382837,13.6856811 78.5643399,13.7695605 C78.5934981,13.6692699 78.6145912,13.6060565 78.6301009,13.5422351 C79.3733242,10.5517508 80.1159272,7.56065874 80.8603915,4.57017444 C80.9094021,4.37263229 80.8572895,4.38478873 81.1017218,4.38418091 L82.9045662,4.38418091 L83.0819965,4.38418091 C83.0311249,4.58111524 82.9858367,4.76103055 82.9374465,4.94094587 C81.8275744,9.10270316 80.7170821,13.2644605 79.6115528,17.4268256 C79.5743296,17.5672325 79.5191151,17.6109957 79.3720836,17.6079565 C78.8825983,17.5982314 78.3931132,17.6000549 77.903628,17.6073487 C77.7925787,17.6091722 77.752874,17.572095 77.7230954,17.4718044 C76.8458685,14.5025939 75.9649192,11.534599 75.0845903,8.56599635 C75.0703214,8.51615494 75.0523302,8.46813699 75.026274,8.39033577 Z M55.9084342,10.7863701 C56.2018771,10.9826967 56.5182744,11.1571415 56.7893834,11.3832514 C57.4060479,11.8980766 57.731751,12.5770138 57.8303925,13.3574572 C57.9222097,14.0831967 57.8496245,14.7955641 57.5636262,15.4745013 C57.1299758,16.5041518 56.3216118,17.1162286 55.2495834,17.4189239 C54.7985622,17.5465665 54.3357536,17.6037018 53.8661208,17.6037018 C52.081268,17.6037018 50.2964151,17.6037018 48.5115623,17.6037018 C48.4551071,17.6037018 48.3980315,17.6037018 48.3341317,17.6037018 C48.3341317,13.1951688 48.3341317,8.80122345 48.3341317,4.39147477 C48.3819014,4.38904348 48.4284304,4.38418091 48.4755798,4.38418091 C50.2294133,4.38357309 51.9832468,4.37263229 53.7370803,4.38843566 C54.6993003,4.39694517 55.6063058,4.62244714 56.3824097,5.21811271 C57.0747614,5.74934914 57.4581604,6.45928525 57.5989882,7.30051091 C57.7174821,8.00740791 57.6746754,8.70032501 57.3570374,9.35859623 C57.051807,9.99073112 56.5889985,10.4739496 55.9382127,10.7754293 C55.9264254,10.7808997 55.9140176,10.786978 55.9034711,10.7942718 C55.8966468,10.7979188 55.8923041,10.8052126 55.9084342,10.7863701 Z M50.3962974,11.7959625 L50.3962974,15.7899609 L50.5606999,15.7899609 C51.5576615,15.7899609 52.5540027,15.7923922 53.5509643,15.7875296 C53.7457658,15.786314 53.9424284,15.7705106 54.1341279,15.7395117 C55.6509736,15.492736 56.3470476,13.709994 55.3910316,12.5235255 C54.993984,12.0305818 54.4449417,11.811158 53.826416,11.7983938 C52.7146829,11.7752965 51.601709,11.7886686 50.4893554,11.7868452 C50.4632992,11.7868452 50.4372429,11.7917077 50.3962974,11.7959625 Z M50.3931955,9.96337914 L50.57683,9.96337914 C51.5111325,9.96337914 52.445435,9.96520259 53.3791172,9.96155566 C53.5565478,9.96094783 53.7352192,9.95243834 53.9107886,9.92690981 C54.7656817,9.8023063 55.4729226,9.31179393 55.5790088,8.3301614 C55.6590387,7.590442 55.4108839,6.88172155 54.7017818,6.4939311 C54.3233459,6.2866638 53.9107886,6.20582347 53.4839625,6.20278436 C52.5006494,6.19609832 51.5179567,6.20035307 50.5346437,6.20096089 C50.4881146,6.20096089 50.4415856,6.20703912 50.3931955,6.21007822 L50.3931955,9.96337914 Z" id="Combined-Shape" fill="#00EACD" fill-rule="nonzero"></path>
            <polygon id="Fill-2" fill="#353535" points="3.19744231e-14 8.99140709 3.19744231e-14 38.369883 33.5014186 38.369883 33.5014186 30.1180982 9.17648837 30.1180982 9.17648837 0.000771645569"></polygon>
            <path d="M121.448033,23.1149324 C121.430312,23.1110742 121.413575,23.1072159 121.395854,23.1033577 C120.615149,25.2205603 119.841335,27.3406565 119.054722,29.4829375 C119.11773,29.4829375 119.156126,29.4829375 119.194521,29.4829375 C120.662405,29.4829375 122.130288,29.4829375 123.598172,29.4829375 C123.740924,29.4829375 123.747816,29.4694337 123.699575,29.3372894 C123.510552,28.8202868 123.324482,28.3032843 123.137428,27.7862818 C122.887366,27.0946944 122.638288,26.4021425 122.388226,25.7105552 C122.136195,25.0122159 121.88318,24.3138767 121.631149,23.6155375 C121.57011,23.4486691 121.509071,23.2818008 121.448033,23.1149324 Z M126.339009,33.7009451 C126.296676,33.7096261 126.255327,33.725059 126.212994,33.725059 C125.939304,33.7269881 125.666598,33.725059 125.392909,33.7269881 C125.323009,33.7279527 125.283629,33.7115552 125.257048,33.6382489 C125.022738,32.9794565 124.782521,32.3216286 124.544273,31.6628362 C124.397583,31.2567577 124.252862,30.8497147 124.102234,30.4446008 C124.089436,30.4108413 124.040211,30.3819046 124.000831,30.3684008 C123.961451,30.3558615 123.914195,30.3655071 123.870878,30.3655071 C122.209048,30.3655071 120.548203,30.3664716 118.887358,30.3626134 C118.769219,30.3626134 118.719994,30.4031248 118.683567,30.5044033 C118.30749,31.5422666 117.928459,32.5782008 117.551397,33.6150995 C117.523831,33.6903349 117.487405,33.7308463 117.395847,33.7289172 C117.130033,33.7221653 116.864219,33.7260235 116.598405,33.7260235 C116.562963,33.7260235 116.528505,33.7212008 116.473374,33.7173425 C116.51866,33.590021 116.55804,33.4762033 116.599389,33.3643147 C117.083761,32.0583046 117.569118,30.753259 118.05349,29.4472489 C118.554598,28.0978337 119.055707,26.7484185 119.5578,25.3999678 C120.00673,24.191378 120.457629,22.9827881 120.904591,21.7741982 C120.928219,21.7105375 120.960707,21.6816008 121.030606,21.6816008 C121.285591,21.6835299 121.540575,21.6835299 121.79556,21.6816008 C121.86349,21.6816008 121.899916,21.7047501 121.923544,21.77034 C122.354753,22.9432413 122.788916,24.115178 123.22111,25.2880792 C123.600141,26.3172615 123.977203,27.3464438 124.356234,28.3756261 C124.704746,29.3208919 125.055226,30.2642286 125.404722,31.2094944 C125.698102,32.0033248 125.990498,32.7981197 126.283878,33.5919501 C126.295691,33.6237805 126.320304,33.6498235 126.339009,33.6797248 L126.339009,33.7009451 Z" id="Fill-5" fill="#353535"></path>
            <path d="M66.2585581,31.9427506 C66.2615116,31.9060975 66.2674186,31.8684797 66.2684031,31.8318266 C66.2684031,28.4944595 66.2684031,25.1570924 66.2654496,21.8187608 C66.2654496,21.7097658 66.2989225,21.6769709 66.4082016,21.6798646 C66.6562946,21.6866165 66.9034031,21.6866165 67.1514961,21.6798646 C67.2558527,21.6769709 67.2784961,21.7136241 67.2784961,21.8091152 C67.2755426,23.2945329 67.2765271,24.7799506 67.2765271,26.2644038 C67.2765271,28.7056975 67.2755426,31.1479557 67.2784961,33.5892494 C67.2784961,33.6972797 67.2519147,33.7320038 67.1386977,33.7281456 C66.8846977,33.7204291 66.6287287,33.7233228 66.3737442,33.727181 C66.299907,33.7281456 66.2536357,33.7059608 66.2122868,33.6451937 C64.7414496,31.449862 63.2696279,29.2554949 61.7968217,27.0620924 C61.0033178,25.878581 60.2088295,24.6950696 59.4143411,23.5115582 C59.3966202,23.4835861 59.3720078,23.4594722 59.3227829,23.4411456 C59.318845,23.4729759 59.310969,23.5048063 59.310969,23.5376013 C59.310969,26.8855785 59.310969,30.2335557 59.310969,33.5824975 C59.310969,33.7252519 59.310969,33.7252519 59.170186,33.7262165 C58.9230775,33.7262165 58.6749845,33.7223582 58.427876,33.7281456 C58.3274574,33.7300747 58.2979225,33.701138 58.2979225,33.6008241 C58.3018605,32.5726063 58.300876,31.5443886 58.300876,30.5161709 C58.300876,27.6176772 58.300876,24.7191835 58.300876,21.8206899 C58.300876,21.6827582 58.300876,21.6817937 58.4465814,21.6817937 C58.6946744,21.6817937 58.9417829,21.6856519 59.189876,21.6798646 C59.2774961,21.6779354 59.3277054,21.7088013 59.3759457,21.7792139 C60.4874419,23.4372873 61.6018915,25.0934316 62.7163411,26.7495759 C63.8662326,28.4597354 65.016124,30.1689304 66.1660155,31.8790899 C66.1837364,31.9041684 66.2053953,31.9263532 66.2250853,31.9504671 C66.2359147,31.9475734 66.2477287,31.9456443 66.2585581,31.9427506" id="Fill-11" fill="#353535"></path>
            <path d="M83.3221403,24.9867516 C83.3221403,25.7574327 83.3221403,26.5281137 83.3221403,27.2987947 C83.3221403,27.4386554 83.3231248,27.43962 83.4589853,27.43962 C84.3873651,27.4405846 85.3167295,27.4425137 86.2451093,27.4386554 C86.8525434,27.4367263 87.4540705,27.3856048 88.0240938,27.1570048 C88.7004426,26.8859643 89.1424814,26.4056149 89.3354426,25.7101694 C89.4555512,25.2751542 89.4545667,24.8343516 89.367931,24.3954782 C89.2497915,23.8003466 88.9465667,23.3199972 88.4159233,22.9949415 C87.8872488,22.6708504 87.2945822,22.5551035 86.6841946,22.5464225 C85.6032178,22.5309896 84.5212566,22.5406352 83.4392953,22.5377415 C83.3506907,22.536777 83.3191868,22.5618554 83.3201713,22.6525238 C83.3231248,23.4309213 83.3221403,24.2083542 83.3221403,24.9867516 M88.3470085,27.8321947 C88.5685202,27.9161111 88.7683729,27.981701 88.9593651,28.0656175 C89.6189775,28.3588428 90.0383729,28.8575187 90.2539775,29.5307795 C90.3809775,29.928177 90.4105124,30.33522 90.4164194,30.7461213 C90.4233109,31.2457618 90.4164194,31.7463668 90.4469388,32.2450428 C90.4754891,32.7041719 90.6083961,33.1353289 90.9450938,33.4844985 C90.9854581,33.526939 90.9785667,33.6156782 90.9834891,33.6841618 C90.9844736,33.6957365 90.9342643,33.7237086 90.9076829,33.7237086 C90.6123341,33.7266023 90.3179698,33.7285314 90.0226209,33.7227441 C89.9832411,33.7217795 89.9359853,33.68802 89.9074349,33.6561896 C89.6918302,33.4198732 89.5904271,33.1324352 89.5215124,32.8295643 C89.4102643,32.3443922 89.4122333,31.8524681 89.4102643,31.3595795 C89.4092798,31.0104099 89.4142023,30.6583466 89.381714,30.3111061 C89.2950783,29.3995997 88.6807527,28.6925795 87.7858457,28.4340782 C87.4393031,28.3347289 87.0888225,28.2884301 86.7294814,28.2874656 C85.6435822,28.286501 84.5576829,28.2874656 83.4717837,28.2874656 C83.3221403,28.2874656 83.3221403,28.2884301 83.3221403,28.4379365 C83.3221403,30.1548478 83.3211558,31.8717592 83.3250938,33.5896352 C83.3250938,33.696701 83.2965434,33.7323896 83.1843109,33.7285314 C82.9401558,33.7208149 82.6960008,33.7217795 82.4518457,33.7275668 C82.3474891,33.7304605 82.3159853,33.696701 82.3159853,33.5934934 C82.3199233,32.3125618 82.3189388,31.0306656 82.3189388,29.7487694 C82.3189388,27.1107061 82.3189388,24.4726428 82.3189388,21.8345795 C82.3189388,21.6879668 82.3189388,21.6879668 82.4705512,21.6879668 C83.8449078,21.6879668 85.2182798,21.6821795 86.5916519,21.6927896 C87.2246829,21.6966478 87.847869,21.7873162 88.4434891,22.0130225 C89.4112488,22.3795542 90.0629853,23.0277365 90.3091093,24.0337694 C90.4489078,24.6038225 90.4804116,25.1806276 90.3337217,25.7516453 C90.1319,26.5329365 89.6662333,27.1299972 88.9554271,27.5370403 C88.7929853,27.6306023 88.615776,27.6990858 88.4464426,27.7801086 C88.4188767,27.7926478 88.3922953,27.8090453 88.3470085,27.8321947" id="Fill-13" fill="#353535"></path>
            <path d="M113.589981,29.9834461 C113.589981,30.6441676 113.59195,31.3039246 113.587028,31.9646461 C113.586043,32.0379524 113.559462,32.1209043 113.518113,32.1816714 C113.264113,32.5491676 112.912648,32.8134562 112.539524,33.05556 C111.556997,33.6960258 110.457315,33.885079 109.302501,33.8735043 C108.490291,33.8648233 107.718447,33.7008486 107.013547,33.2957347 C106.043819,32.7391853 105.375346,31.929922 104.972687,30.9055625 C104.700966,30.2130106 104.599563,29.491522 104.596609,28.7546005 C104.592671,27.9270106 104.584795,27.0984562 104.604485,26.2708663 C104.627129,25.3477853 104.832888,24.4661803 105.31726,23.6627043 C105.85578,22.7714537 106.601043,22.1078385 107.60326,21.7480587 C108.372152,21.4721954 109.169594,21.4394005 109.974912,21.5223524 C110.667997,21.5927651 111.324656,21.7808537 111.913384,22.1570309 C112.648803,22.6258056 113.166648,23.2585549 113.405881,24.0938613 C113.498423,24.418917 113.533865,24.7526537 113.527958,25.0902486 C113.525989,25.1712714 113.49547,25.2040663 113.409819,25.2021372 C113.180431,25.198279 112.951043,25.1963499 112.721656,25.2031018 C112.619268,25.2059954 112.584811,25.1770587 112.579888,25.071922 C112.537555,24.1343727 112.140803,23.3829828 111.339423,22.853441 C110.875726,22.5467119 110.34902,22.4087803 109.799671,22.3566942 C109.385198,22.3181119 108.970726,22.3181119 108.558222,22.3885246 C107.827726,22.5148815 107.216353,22.8476537 106.718198,23.3820182 C106.167865,23.9723271 105.845935,24.6716309 105.699245,25.4548511 C105.627377,25.8358511 105.603749,26.2187803 105.604733,26.6055676 C105.608671,27.3762486 105.598826,28.1478942 105.61064,28.9185752 C105.624423,29.8426208 105.846919,30.7126511 106.384454,31.4871904 C106.863904,32.1768486 107.493981,32.6726309 108.321943,32.9021954 C108.75709,33.0237296 109.203067,33.0497727 109.653966,33.0314461 C110.121602,33.0121549 110.585299,32.9639271 111.031276,32.8202081 C111.581609,32.6417651 112.079764,32.378441 112.466671,31.9405322 C112.55626,31.8392537 112.597609,31.7321878 112.596625,31.5923271 C112.589733,30.6711752 112.592687,29.7509878 112.592687,28.8298359 C112.592687,28.6870815 112.592687,28.6870815 112.44895,28.6870815 C111.453625,28.6870815 110.459284,28.6880461 109.464943,28.6870815 C109.312346,28.6870815 109.312346,28.6870815 109.312346,28.5404689 C109.312346,28.3446638 109.314315,28.1478942 109.311361,27.9520891 C109.309392,27.8681727 109.342865,27.8382714 109.427532,27.8382714 C110.775307,27.8402005 112.123082,27.8402005 113.471842,27.8382714 C113.575214,27.8373068 113.590966,27.8855347 113.590966,27.9704157 C113.588997,28.6407828 113.589981,29.3121144 113.589981,29.9834461" id="Fill-15" fill="#353535"></path>
            <path d="M94.4868186,27.6986035 C94.4868186,25.7386238 94.4878031,23.7786441 94.4848496,21.8196289 C94.4838651,21.7115985 94.511431,21.6797681 94.6236636,21.6797681 C96.9588884,21.6826618 99.2950977,21.6826618 101.630322,21.6807327 C101.733695,21.6807327 101.771105,21.7058111 101.766183,21.8119124 C101.758307,22.0077175 101.759291,22.2044871 101.766183,22.4002922 C101.770121,22.5034997 101.736648,22.533401 101.630322,22.533401 C99.6475473,22.5305073 97.6657566,22.5314719 95.6839659,22.5314719 C95.4969116,22.5314719 95.4978961,22.5314719 95.4978961,22.7185959 C95.4978961,24.1114162 95.4978961,25.5032719 95.4978961,26.8951276 C95.4978961,27.0513858 95.4978961,27.0513858 95.6514775,27.0513858 C97.3635163,27.0513858 99.0765395,27.0513858 100.788578,27.0513858 C100.95102,27.0513858 100.95102,27.0513858 100.95102,27.2115023 C100.95102,27.392839 100.95102,27.5751403 100.95102,27.7574415 C100.950036,27.8924795 100.947082,27.8953732 100.810237,27.8953732 C99.716462,27.8963377 98.6236713,27.8953732 97.5308806,27.8953732 C96.8968651,27.8953732 96.2628496,27.8973023 95.6288341,27.8934441 C95.5294,27.8934441 95.4949426,27.9204516 95.4959271,28.0207656 C95.4978961,29.6016744 95.4988806,31.1835478 95.4949426,32.7644567 C95.4949426,32.8802035 95.5481054,32.8888846 95.6416326,32.8888846 C97.6421287,32.8869554 99.6426248,32.88792 101.642136,32.88792 C101.808516,32.88792 101.808516,32.88792 101.808516,33.0528592 C101.808516,33.2457706 101.806547,33.438682 101.809501,33.6306289 C101.81147,33.6991124 101.788826,33.7328719 101.716958,33.72612 C101.695299,33.7241909 101.672656,33.72612 101.650997,33.72612 C99.3157721,33.72612 96.9805473,33.72612 94.644338,33.72612 C94.4868186,33.72612 94.4868186,33.72612 94.4868186,33.5669681 C94.4868186,31.6108466 94.4868186,29.6547251 94.4868186,27.6986035" id="Fill-17" fill="#353535"></path>
            <path d="M47.9045969,27.7033299 C47.9045969,25.7433501 47.9045969,23.7843349 47.9045969,21.8243552 C47.9045969,21.6825653 47.9045969,21.6825653 48.0473488,21.6825653 C50.3796202,21.6825653 52.710907,21.6825653 55.0421938,21.6796716 C55.1514729,21.6796716 55.1898682,21.7057147 55.1839612,21.8166387 C55.1751008,22.0124438 55.1780543,22.2092134 55.1839612,22.405983 C55.1859302,22.5024387 55.1554109,22.5333046 55.0530233,22.5333046 C53.0633566,22.5304109 51.0736899,22.5313754 49.0850078,22.5313754 C48.9146899,22.5313754 48.9146899,22.5313754 48.9146899,22.702102 C48.9146899,24.0949223 48.9146899,25.486778 48.9146899,26.8786337 C48.9146899,27.0512894 48.9146899,27.0512894 49.0850078,27.0512894 C50.7931085,27.0512894 52.5021938,27.0512894 54.2102946,27.0512894 C54.3668295,27.0512894 54.3668295,27.0512894 54.3668295,27.2056185 C54.3668295,27.3879197 54.3668295,27.5692565 54.3668295,27.7515577 C54.3668295,27.892383 54.363876,27.8952767 54.2201395,27.8952767 C52.5120388,27.8952767 50.8029535,27.8952767 49.0938682,27.8952767 C48.9146899,27.8952767 48.9146899,27.8952767 48.9146899,28.0698615 C48.9146899,29.6266565 48.9146899,31.1824868 48.9146899,32.7392818 C48.9146899,32.886859 48.9146899,32.886859 49.0653178,32.886859 C51.065814,32.886859 53.0663101,32.886859 55.0658217,32.886859 C55.2262946,32.886859 55.2262946,32.886859 55.2262946,33.04794 C55.2262946,33.2408514 55.2233411,33.4337628 55.2272791,33.6257096 C55.2292481,33.6999805 55.2056202,33.7327754 55.127845,33.7260235 C55.0924031,33.7231299 55.0549922,33.7260235 55.0185659,33.7260235 C52.7020465,33.7260235 50.3845426,33.7260235 48.0670388,33.7260235 C47.9045969,33.7260235 47.9045969,33.7260235 47.9045969,33.5716944 C47.9045969,31.6155729 47.9045969,29.6594514 47.9045969,27.7033299" id="Fill-19" fill="#353535"></path>
            <path d="M75.2563605,33.5881884 C75.257345,33.6942896 75.2317481,33.7328719 75.1175465,33.7280491 C74.8812674,33.7203327 74.6440039,33.72612 74.4077248,33.72612 C74.2610349,33.72612 74.2610349,33.7251554 74.2610349,33.5862592 C74.2610349,32.4683377 74.2610349,31.3513808 74.2610349,30.2344238 C74.2610349,27.7178947 74.2610349,25.2013656 74.2610349,22.6848365 C74.2610349,22.5314719 74.2610349,22.5314719 74.1035155,22.5314719 C72.7773992,22.5314719 71.4512829,22.5314719 70.1251667,22.5314719 C69.9666628,22.5314719 69.9666628,22.5305073 69.9666628,22.3771428 C69.9666628,22.1813377 69.9696163,21.9845681 69.9646938,21.788763 C69.9637093,21.7096694 69.9912752,21.6749453 70.0720039,21.6816972 C70.0936628,21.6836263 70.1153217,21.6826618 70.1369806,21.6826618 C73.1721822,21.6826618 76.2063992,21.6826618 79.2416008,21.6826618 C79.4079806,21.6826618 79.4079806,21.6826618 79.4079806,21.8456719 C79.4079806,22.0279732 79.4089651,22.2093099 79.4079806,22.3916111 C79.4079806,22.5276137 79.4050271,22.5314719 79.2681822,22.5314719 C78.2590736,22.5314719 77.2499651,22.5314719 76.2408566,22.5314719 C75.9563372,22.5314719 75.6718178,22.5343656 75.3882829,22.5295428 C75.2809729,22.5266491 75.2524225,22.5642668 75.2524225,22.6655453 C75.255376,24.4895225 75.2543915,26.3134997 75.2543915,28.137477 C75.2543915,29.9547023 75.253407,31.770963 75.2563605,33.5881884 Z" id="Fill-21" fill="#353535"></path>
        </g>
    </g>
</svg>