<?xml version="1.0" encoding="UTF-8"?>
<svg width="40px" height="40px" viewBox="0 0 40 40" version="1.1" xmlns="http://www.w3.org/2000/svg" xmlns:xlink="http://www.w3.org/1999/xlink">
    <!-- Generator: Sketch 52.4 (67378) - http://www.bohemiancoding.com/sketch -->
    <title>Artboard</title>
    <desc>Created with Sketch.</desc>
    <g id="Artboard" stroke="none" stroke-width="1" fill="none" fill-rule="evenodd">
        <polygon id="Path" fill="#FFED00" points="4.92987397e-15 0 40 0 40 40 0 40"></polygon>
        <path d="M6.27733333,24.7066667 L23.1826667,13.4346667 L25.748,15.1466667 L11.4066667,24.7066667 L19.996,30.436 L24.6106667,27.36 L21.4146667,25.2226667 L27.9626667,20.8573333 L33.724,24.7053333 L19.996,33.852 L6.27733333,24.7066667 Z M28.5933333,9.832 L33.9986667,6.22933333 L33.9986667,9.64666667 L31.1573333,11.544 L28.5933333,9.832 Z M14.244,24.7066667 L28.5933333,15.1453333 L19.9946667,9.416 L15.388,12.4946667 L18.584,14.604 L12.0293333,18.9773333 L6.27866667,15.1373333 L19.9973333,6 L33.724,15.1373333 L16.8093333,26.4186667 L14.244,24.7066667 Z M6,30.2066667 L8.84266667,28.3106667 L11.4066667,30.0226667 L6,33.624 L6,30.2066667 Z" id="Combined-Shape" fill="#225198"></path>
    </g>
</svg>