<?xml version="1.0" encoding="UTF-8"?>
<svg width="84px" height="40px" viewBox="0 0 84 40" version="1.1" xmlns="http://www.w3.org/2000/svg" xmlns:xlink="http://www.w3.org/1999/xlink">
    <!-- Generator: Sketch 52.4 (67378) - http://www.bohemiancoding.com/sketch -->
    <title>Artboard</title>
    <desc>Created with Sketch.</desc>
    <g id="Artboard" stroke="none" stroke-width="1" fill="none" fill-rule="evenodd">
        <path d="M11.1395455,0.804090909 L14.9119091,0.804090909 L14.9119091,39.194 L11.1395455,39.194 L11.1395455,0.804090909 Z M34.3464545,0.804090909 L38.1188182,0.804090909 L38.1188182,39.194 L34.3464545,39.194 L34.3464545,0.804090909 Z M53.6454545,0.804090909 L57.4178182,0.804090909 L57.4178182,39.194 L53.6454545,39.194 L53.6454545,0.804090909 Z M61.3219091,0.804090909 L65.0942727,0.804090909 L65.0942727,39.194 L61.3219091,39.194 L61.3219091,0.804090909 Z M69.0880909,0.804090909 L72.8604545,0.804090909 L72.8604545,39.194 L69.0880909,39.194 L69.0880909,0.804090909 Z M42.0229091,0.804090909 L49.6955455,0.804090909 L49.6955455,39.194 L42.0229091,39.194 L42.0229091,0.804090909 Z M18.8599091,0.804090909 L30.3927273,0.804090909 L30.3927273,39.194 L18.8599091,39.194 L18.8599091,0.804090909 Z" id="Combined-Shape" fill="#000000"></path>
        <polygon id="Path" fill="#773CBC" points="0.952636364 22.0064545 83.0473636 22.0064545 83.0473636 27.7337273 0.952636364 27.7337273"></polygon>
    </g>
</svg>