<?xml version="1.0" encoding="UTF-8"?>
<svg width="122px" height="48px" viewBox="0 0 122 48" version="1.1" xmlns="http://www.w3.org/2000/svg" xmlns:xlink="http://www.w3.org/1999/xlink">
    <!-- Generator: Sketch 52.4 (67378) - http://www.bohemiancoding.com/sketch -->
    <title>Artboard</title>
    <desc>Created with Sketch.</desc>
    <g id="Artboard" stroke="none" stroke-width="1" fill="none" fill-rule="evenodd">
        <path d="M90.7237073,37.2825 C90.3774146,37.3095 90.0341463,37.332 89.6923902,37.3635 C89.21,37.4085 88.7366829,37.497 88.2784878,37.65 C88.094,37.7115 87.915561,37.7895 87.7386341,37.872 C86.9356585,38.2485 86.4532683,38.88 86.2581951,39.7335 C86.0797561,40.5105 86.1417561,41.274 86.412439,42.021 C86.497122,42.2565 86.598439,42.486 86.7163902,42.708 C86.7874634,42.84 86.7753659,42.873 86.6438049,42.9555 C86.1780488,43.2495 85.6880976,43.5015 85.1830244,43.719 C84.1985854,44.142 83.1733171,44.4315 82.1193171,44.6175 C80.9292195,44.829 79.7285366,44.922 78.5172683,44.916 C77.7233659,44.913 76.9309756,44.8995 76.1416098,44.823 C74.3738537,44.649 72.6439024,44.319 70.989561,43.6545 C70.6810732,43.5315 70.3831707,43.383 70.0837561,43.239 C69.9582439,43.1775 69.9552195,43.1535 69.99,43.023 C70.1639024,42.3615 70.3378049,41.7015 70.5101951,41.04 C70.7869268,39.9825 71.0636585,38.9235 71.3403902,37.866 C71.3494634,37.833 71.3509756,37.797 71.3645854,37.767 C71.3842439,37.7235 71.4175122,37.689 71.470439,37.7115 C71.5127805,37.728 71.5520976,37.7535 71.5914146,37.7745 C72.834439,38.4375 74.1530732,38.886 75.5367317,39.1545 C76.5438537,39.351 77.5585366,39.4545 78.5853171,39.4125 C79.5243902,39.3735 80.4347317,39.195 81.2830732,38.787 C82.5472683,38.178 83.3850244,37.191 83.8356585,35.877 C84.0322439,35.3025 84.1396098,34.71 84.1895122,34.1055 C84.2469756,33.411 84.2152195,32.715 84.2258049,32.0205 C84.2258049,31.998 84.2288293,31.974 84.2212683,31.953 C84.2152195,31.935 84.2000976,31.9125 84.1834634,31.905 C84.1653171,31.8975 84.1320488,31.899 84.1214634,31.9095 C84.0745854,31.959 84.0322439,32.013 83.9883902,32.067 C82.9101951,33.4155 81.506878,34.245 79.8253171,34.626 C78.7849268,34.863 77.732439,34.893 76.6723902,34.7745 C75.2221951,34.611 73.8778537,34.152 72.6529756,33.3615 C71.3963415,32.55 70.4073659,31.485 69.6452195,30.21 C68.881561,28.9305 68.4112683,27.546 68.1587317,26.0835 C67.9681951,24.9765 67.9092195,23.8635 67.9666829,22.7445 C68.0649756,20.8125 68.4717561,18.951 69.3412683,17.2095 C70.3861951,15.1155 71.9165366,13.4745 74.0260488,12.402 C74.9303415,11.943 75.8905854,11.64 76.8961951,11.478 C77.6492683,11.3565 78.4053659,11.316 79.1644878,11.3595 C80.1806829,11.418 81.1666341,11.6235 82.0936098,12.06 C83.2232195,12.591 84.1154146,13.392 84.8049756,14.421 C84.8563902,14.4975 84.8820976,14.646 85.001561,14.613 C85.0922927,14.5875 85.0544878,14.451 85.0620488,14.364 C85.1210244,13.6935 85.172439,13.023 85.2283902,12.354 C85.2389756,12.2295 85.2540976,12.105 85.2692195,11.9805 C85.2767805,11.916 85.319122,11.8815 85.3841463,11.88 C85.4537073,11.8785 85.5217561,11.877 85.5913171,11.877 L91.2847317,11.877 L91.3195122,11.877 C91.6159024,11.871 91.5826341,11.8845 91.5705366,12.1365 C91.5281951,12.99 91.4843415,13.842 91.449561,14.6955 C91.4299024,15.162 91.4253659,15.63 91.4223415,16.098 C91.4147805,17.2845 91.4072195,18.471 91.4072195,19.656 C91.4057073,23.751 91.4147805,27.8475 91.4026829,31.9425 C91.3981463,33.357 91.2892683,34.7655 91.008,36.156 C90.930878,36.5325 90.8522439,36.912 90.7237073,37.2825 Z M84.1169268,23.1315 L84.1320488,23.1315 C84.1320488,22.5495 84.1350732,21.9675 84.1320488,21.3855 C84.1290244,20.7435 84.0685366,20.112 83.8356585,19.5045 C83.560439,18.7875 83.1612195,18.1575 82.5639024,17.6625 C81.9151707,17.1255 81.1620976,16.857 80.3198049,16.8165 C79.0087317,16.7535 77.9139024,17.208 77.0186829,18.1485 C76.515122,18.678 76.1582439,19.299 75.8966341,19.977 C75.6335122,20.6625 75.4732195,21.3705 75.3945854,22.0995 C75.2705854,23.241 75.2947805,24.3765 75.5609268,25.4985 C75.7423902,26.2575 76.0251707,26.9775 76.4758049,27.624 C77.383122,28.926 78.6321951,29.583 80.2320976,29.508 C81.7276585,29.436 82.8466829,28.7265 83.568,27.423 C83.9520976,26.7285 84.1018049,25.971 84.1154146,25.1865 C84.126,24.4995 84.1169268,23.8155 84.1169268,23.1315 Z M7.72839024,7.983 L7.72839024,14.211 C7.72839024,14.313 7.72990244,14.4165 7.73443902,14.5185 C7.73595122,14.5365 7.75712195,14.5605 7.7737561,14.5665 C7.79039024,14.5725 7.82214634,14.568 7.8342439,14.556 C7.87356098,14.5155 7.90834146,14.469 7.94312195,14.424 C8.98956098,13.0365 10.3868293,12.1665 12.0517561,11.706 C13.314439,11.358 14.6043415,11.262 15.9093659,11.397 C17.9236098,11.607 19.661122,12.408 21.1203902,13.797 C21.8719512,14.514 22.4753171,15.345 22.9622439,16.2585 C23.6412195,17.5305 24.0570732,18.885 24.280878,20.304 C24.4502439,21.378 24.5016585,22.4565 24.474439,23.541 C24.4396585,24.8565 24.2748293,26.1525 23.9224878,27.423 C23.4249756,29.2185 22.6083902,30.8475 21.3396585,32.235 C19.7987317,33.9195 17.9009268,34.977 15.6417073,35.3925 C15.0186829,35.508 14.3896098,35.565 13.7575122,35.5575 C12.5522927,35.544 11.3788293,35.3535 10.2658537,34.8765 C8.95478049,34.314 7.90380488,33.441 7.10234146,32.268 C7.01917073,32.145 6.94204878,32.0175 6.85736585,31.896 C6.84073171,31.872 6.80746341,31.848 6.77873171,31.8435 C6.73034146,31.8345 6.73034146,31.8825 6.72580488,31.9125 C6.71068293,32.013 6.69707317,32.115 6.6895122,32.217 C6.63356098,32.853 6.58063415,33.489 6.52619512,34.125 C6.5035122,34.386 6.47780488,34.647 6.45663415,34.908 C6.44907317,34.992 6.40673171,35.0295 6.32507317,35.0295 C6.24492683,35.0295 6.16478049,35.031 6.08312195,35.031 C4.26546341,35.031 2.44931707,35.031 0.631658537,35.031 C0.574195122,35.031 0.516731707,35.0325 0.459268293,35.031 C0.286878049,35.0265 0.261170732,34.998 0.271756098,34.83 C0.338292683,33.8865 0.364,32.9415 0.395756098,31.9965 C0.509170732,28.587 0.454731707,25.1775 0.459268293,21.768 C0.468341463,15.117 0.462292683,8.4675 0.462292683,1.8165 C0.462292683,1.7145 0.460780488,1.611 0.463804878,1.509 C0.468341463,1.3755 0.483463415,1.3635 0.630146341,1.3575 C0.687609756,1.356 0.745073171,1.3575 0.802536585,1.3575 L7.42595122,1.3575 C7.73897561,1.3575 7.72385366,1.3305 7.72385366,1.6515 C7.72839024,3.7635 7.72839024,5.874 7.72839024,7.983 Z M7.72839024,23.4825 C7.72839024,24.0525 7.72082927,24.624 7.72990244,25.194 C7.73897561,25.743 7.79492683,26.286 7.98697561,26.8065 C8.53590244,28.299 9.55058537,29.307 11.1141951,29.7255 C11.7689756,29.901 12.4358537,29.8815 13.0966829,29.7615 C14.0539024,29.5875 14.8674634,29.1525 15.5267805,28.4355 C16.0711707,27.843 16.4325854,27.1485 16.6790732,26.3925 C16.9467317,25.5735 17.0677073,24.7305 17.1009756,23.871 C17.1372683,22.944 17.088878,22.0245 16.8832195,21.117 C16.732,20.4465 16.5081951,19.8015 16.1619024,19.2045 C15.7279024,18.459 15.1578049,17.8455 14.3850732,17.433 C13.872439,17.16 13.3265366,17.0055 12.748878,16.9335 C12.1470244,16.8585 11.5542439,16.884 10.9765854,17.07 C9.46741463,17.5545 8.49507317,18.5775 7.98546341,20.0505 C7.79643902,20.595 7.73746341,21.162 7.72839024,21.7335 C7.71931707,22.3185 7.72839024,22.9005 7.72839024,23.4825 Z M44.7907805,25.1325 C44.7907805,22.8855 44.7953171,20.637 44.7892683,18.39 C44.7862439,17.421 44.7680976,16.452 44.748439,15.483 C44.7348293,14.823 44.7060976,14.1615 44.6803902,13.5015 C44.6607317,13.0125 44.6350244,12.5235 44.6138537,12.033 C44.6078049,11.8935 44.6259512,11.8785 44.7696098,11.874 C44.8497561,11.8725 44.9299024,11.8725 45.011561,11.8725 L50.5325854,11.8725 C50.6248293,11.8725 50.7170732,11.874 50.8078049,11.8755 C50.8743415,11.877 50.9151707,11.91 50.9257561,11.9745 C50.940878,12.0765 50.9575122,12.177 50.9680976,12.279 C51.0482439,13.062 51.1253659,13.8435 51.2055122,14.6265 C51.219122,14.7615 51.2433171,14.8965 51.266,15.0315 C51.2720488,15.072 51.3506829,15.0915 51.3763902,15.06 C51.4126829,15.0165 51.4474634,14.9715 51.4792195,14.925 C52.2474146,13.812 53.2409268,12.948 54.4416098,12.3195 C55.2294634,11.907 56.0657073,11.6355 56.9427805,11.481 C57.6716585,11.3535 58.4050732,11.313 59.1415122,11.3535 C60.759561,11.4435 62.2596585,11.886 63.5677073,12.867 C64.5687805,13.6185 65.3097561,14.58 65.8450732,15.7005 C66.3410732,16.74 66.6314146,17.8365 66.7947317,18.9705 C66.9126829,19.785 66.9489756,20.604 66.9489756,21.426 C66.9474634,25.818 66.9474634,30.2115 66.9474634,34.6035 C66.9474634,34.7055 66.9474634,34.809 66.9459512,34.911 C66.944439,34.995 66.8960488,35.031 66.812878,35.028 C66.7327317,35.0265 66.6525854,35.028 66.5709268,35.028 C64.4084878,35.028 62.2460488,35.028 60.0836098,35.028 C60.0034634,35.028 59.9218049,35.0295 59.8416585,35.0265 C59.7010244,35.022 59.6889268,35.01 59.6843902,34.863 C59.6813659,34.7715 59.682878,34.68 59.682878,34.5885 C59.682878,30.459 59.682878,26.328 59.682878,22.1985 C59.682878,21.6165 59.643561,21.036 59.5392195,20.463 C59.4258049,19.8435 59.2443415,19.245 58.9131707,18.7005 C58.3914634,17.8455 57.6278049,17.3625 56.6327805,17.22 C55.8978537,17.115 55.1886341,17.19 54.5081463,17.481 C53.637122,17.853 53.0261951,18.498 52.5710244,19.3065 C52.2443902,19.887 52.0840976,20.508 52.0810732,21.171 C52.079561,21.5355 52.0674634,21.9 52.0674634,22.266 C52.0659512,26.385 52.0674634,30.5025 52.0659512,34.6215 C52.0659512,35.079 52.118878,35.025 51.6652195,35.025 C49.5027805,35.0265 47.3403415,35.025 45.1779024,35.025 C45.0856585,35.025 44.9934146,35.0265 44.9026829,35.022 C44.8361463,35.019 44.7983415,34.9815 44.7953171,34.914 C44.7922927,34.8225 44.7907805,34.731 44.7907805,34.641 C44.7907805,33.9 44.7907805,33.1575 44.7907805,32.4165 C44.7907805,29.994 44.7907805,27.564 44.7907805,25.1325 Z M32.8096585,18.2325 C32.8096585,23.685 32.8096585,29.139 32.8081463,34.5915 C32.8081463,35.1 32.8746829,35.031 32.3756585,35.031 C30.2359024,35.0325 28.0976585,35.0325 25.9579024,35.0325 C25.8550732,35.0325 25.7507317,35.034 25.6479024,35.031 C25.582878,35.0295 25.5420488,34.9935 25.5390244,34.926 C25.536,34.8465 25.5344878,34.767 25.5344878,34.686 C25.5344878,23.6895 25.5344878,12.6915 25.5344878,1.695 C25.5344878,1.3305 25.5042439,1.359 25.8641463,1.359 L32.4890732,1.359 C32.5586341,1.359 32.6266829,1.3575 32.6962439,1.3605 C32.7612683,1.3635 32.8036098,1.395 32.8066341,1.464 C32.8096585,1.578 32.8111707,1.692 32.8111707,1.806 C32.8096585,7.281 32.8096585,12.756 32.8096585,18.2325 Z M35.1822927,23.469 C35.1822927,19.7385 35.1822927,16.008 35.1838049,12.2775 C35.1838049,11.8275 35.1218049,11.8755 35.5830244,11.8755 C37.7454634,11.874 39.9079024,11.874 42.0688293,11.8755 C42.4998049,11.8755 42.4438537,11.8185 42.4438537,12.2625 C42.4453659,19.5525 42.4453659,26.841 42.4438537,34.131 C42.4438537,34.3815 42.4453659,34.6335 42.4423415,34.884 C42.4408293,35.004 42.4166341,35.0265 42.3062439,35.031 C42.2260976,35.034 42.1459512,35.0325 42.0642927,35.0325 C39.9018537,35.0325 37.7394146,35.0325 35.5784878,35.0325 C35.4862439,35.0325 35.394,35.0325 35.3017561,35.031 C35.2140488,35.0295 35.1822927,34.9785 35.1822927,34.899 C35.1822927,34.797 35.1822927,34.6935 35.1822927,34.5915 C35.1822927,30.8835 35.1822927,27.1755 35.1822927,23.469 Z M38.8569268,9.0405 C38.0070732,9.0405 37.2751707,8.8755 36.6173659,8.457 C35.7448293,7.9035 35.2352195,7.1055 35.0522439,6.102 C34.9327805,5.451 34.9811707,4.806 35.2049756,4.1805 C35.5603415,3.186 36.2499024,2.496 37.2343415,2.121 C38.2792683,1.722 39.3483902,1.7025 40.4039024,2.0925 C41.6665854,2.559 42.3818537,3.489 42.632878,4.7865 C42.7780488,5.535 42.694878,6.2655 42.3758049,6.9585 C41.911561,7.968 41.1040488,8.58 40.0424878,8.8815 C39.6296585,8.9985 39.2062439,9.036 38.8569268,9.0405 Z" id="Combined-Shape" fill="#0F0F0F" fill-rule="nonzero"></path>
        <path d="M101.900341,6.7155 C101.147268,6.543 100.432,6.378 99.7167317,6.216 C98.618878,5.967 97.5195122,5.733 96.4125854,5.532 C96.2764878,5.5065 96.2568293,5.484 96.2553171,5.358 C96.2538049,5.151 96.3006829,4.9485 96.3536098,4.752 C96.6726829,3.57 97.0945854,2.427 97.6540976,1.335 C97.711561,1.224 97.781122,1.119 97.8461463,1.011 C97.8869756,0.942 97.9565366,0.921 98.0230732,0.9405 C98.1319512,0.972 98.2393171,1.0155 98.3421463,1.0635 C98.6536585,1.2105 98.959122,1.368 99.2827317,1.491 C100.250537,1.8555 101.242537,2.142 102.246634,2.3835 C103.519902,2.691 104.805268,2.934 106.096683,3.1485 C107.09322,3.315 108.094293,3.459 109.095366,3.594 C109.960341,3.711 110.828341,3.801 111.696341,3.894 C112.529561,3.9825 113.364293,4.062 114.199024,4.1415 C114.542293,4.1745 114.885561,4.2 115.230341,4.2195 C115.826146,4.2525 116.423463,4.2735 117.02078,4.3065 C117.847951,4.353 118.675122,4.3755 119.502293,4.356 C120.167659,4.3395 120.833024,4.2975 121.49839,4.266 C121.533171,4.2645 121.567951,4.251 121.599707,4.2555 C121.645073,4.2615 121.687415,4.2825 121.71161,4.326 C121.735805,4.3695 121.735805,4.4145 121.704049,4.4535 C121.660195,4.506 121.613317,4.5555 121.564927,4.605 C120.842098,5.325 120.160098,6.081 119.503805,6.861 C118.619171,7.9125 117.785951,9.003 116.992049,10.1235 C115.377024,12.402 113.908683,14.772 112.528049,17.196 C111.566293,18.885 110.655951,20.5995 109.809122,22.347 C108.473854,25.1025 107.244439,27.9015 106.216146,30.786 C105.714098,32.1945 105.269512,33.6195 104.879366,35.0625 C104.858195,35.139 104.834,35.2155 104.811317,35.292 C104.793171,35.3565 104.74478,35.382 104.68278,35.382 C104.625317,35.382 104.567854,35.379 104.51039,35.3745 C103.904,35.3145 103.299122,35.253 102.692732,35.196 C102.361561,35.1645 102.028878,35.1375 101.696195,35.118 C101.10039,35.082 100.503073,35.0475 99.9057561,35.022 C99.378,34.9995 98.8502439,34.983 98.3209756,34.974 C97.8038049,34.965 97.2866341,34.9815 96.7709756,35.0205 C96.7029268,35.025 96.6333659,35.0265 96.5653171,35.028 C96.4972683,35.028 96.4579512,34.9905 96.448878,34.9275 C96.4307317,34.803 96.409561,34.68 96.402,34.5555 C96.2961463,32.9265 96.2916098,31.296 96.3490732,29.6655 C96.3672195,29.1315 96.3793171,28.596 96.4398049,28.062 C96.479122,27.723 96.4851707,27.381 96.5139024,27.039 C96.6016098,25.959 96.7240976,24.885 96.8632195,23.811 C97.0673659,22.2405 97.324439,20.6775 97.6178049,19.1205 C97.9020976,17.6085 98.2241951,16.104 98.6067805,14.613 C99.0332195,12.9555 99.5277073,11.319 100.190049,9.735 C100.537854,8.901 100.924976,8.0865 101.439122,7.338 C101.576732,7.14 101.724927,6.951 101.900341,6.7155 Z M90.8945854,37.4115 C91.9833659,37.413 92.8725366,37.5 93.7617073,37.6275 C95.8258537,37.923 97.7886829,38.532 99.6501951,39.459 C100.536341,39.9 101.374098,40.4175 102.128683,41.061 C102.804634,41.637 103.400439,42.2805 103.838976,43.0575 C104.018927,43.377 104.144439,43.716 104.218537,44.079 C104.291122,44.439 104.250293,44.781 104.147463,45.123 C104.04161,45.474 103.822341,45.7485 103.535024,45.9705 C103.261317,46.182 102.954341,46.338 102.62922,46.458 C102.066683,46.6665 101.484488,46.794 100.89322,46.8765 C100.221805,46.971 99.5473659,47.0235 98.8683902,47.0355 C98.5825854,47.0415 98.2952683,47.0775 98.0079512,47.061 C97.3894634,47.028 96.7694634,47.0205 96.1509756,46.968 C95.3721951,46.9035 94.5979512,46.8045 93.8282439,46.6725 C92.6835122,46.476 91.5523902,46.227 90.4772195,45.777 C89.7438049,45.471 89.0481951,45.0945 88.4281951,44.595 C87.5526341,43.89 86.8948293,43.0275 86.5137561,41.967 C86.2400488,41.2065 86.1765366,40.4385 86.3897561,39.6495 C86.613561,38.82 87.1277073,38.2485 87.9110244,37.9035 C88.4085366,37.6845 88.9332683,37.5675 89.4700976,37.4895 C90.0054146,37.416 90.5452683,37.4085 90.8945854,37.4115 Z" id="Combined-Shape" fill="#A2BF15"></path>
    </g>
</svg>