<svg width="104" height="36" viewBox="0 0 104 36" fill="none" xmlns="http://www.w3.org/2000/svg">
<path d="M25.3372 19.5357C25.3372 16.2554 22.6805 13.5976 19.4058 13.5976L16.1271 13.5877V10.4207C16.1271 7.14037 13.4704 4.48267 10.1957 4.48267C8.01387 4.48267 6.11026 5.66232 5.07897 7.41888C4.18081 7.94206 3.4317 8.696 2.91308 9.59716C1.16843 10.6316 0 12.5334 0 14.7097V23.1045C0 26.3849 3.29458 29.7627 6.57126 29.7627H15.1435C17.3591 29.7627 19.2905 28.5452 20.3079 26.7429C21.1504 26.2337 21.8578 25.5255 22.3605 24.686C24.137 23.6595 25.3372 21.7399 25.3372 19.5357Z" fill="white"/>
<path d="M30.4082 9.13585H35.1076L38.8712 16.4266L42.6188 9.13585H47.3182L40.9536 20.7394V26.9282H36.7728V20.7394L30.4082 9.13585Z" fill="#582DB4"/>
<path d="M49.9769 27.1586C49.1443 27.1586 48.4051 27.0173 47.7633 26.7368C47.1195 26.4563 46.6128 26.0306 46.2412 25.4617C45.8696 24.8908 45.6849 24.1766 45.6849 23.3132C45.6849 22.5872 45.812 21.9745 46.0683 21.4751C46.3227 20.9758 46.6744 20.57 47.1215 20.2597C47.5686 19.9474 48.0852 19.7106 48.6674 19.5495C49.2516 19.3884 49.8736 19.2789 50.5373 19.2213C51.2784 19.1536 51.8766 19.08 52.3296 19.0044C52.7827 18.9268 53.1125 18.8174 53.3192 18.6722C53.5258 18.527 53.6292 18.3221 53.6292 18.0555V18.0138C53.6292 17.5781 53.4781 17.2399 53.1801 17.0012C52.88 16.7625 52.4746 16.6431 51.964 16.6431C51.4135 16.6431 50.9724 16.7625 50.6386 17.0012C50.3048 17.2399 50.0922 17.5682 50.0008 17.9879L46.1677 17.8506C46.281 17.0569 46.573 16.3467 47.046 15.7201C47.5189 15.0935 48.1707 14.6001 49.0013 14.24C49.8319 13.88 50.8293 13.699 51.9977 13.699C52.8303 13.699 53.5973 13.7964 54.3008 13.9934C55.0022 14.1883 55.6142 14.4728 56.1368 14.8448C56.6574 15.2168 57.0608 15.6704 57.347 16.2095C57.6331 16.7486 57.7761 17.3633 57.7761 18.0555V26.9378H53.8676V25.1175H53.7663C53.5338 25.5592 53.2377 25.9351 52.878 26.2415C52.5184 26.5479 52.0951 26.7766 51.6122 26.9298C51.1274 27.081 50.583 27.1586 49.9769 27.1586ZM51.2585 24.4352C51.7056 24.4352 52.109 24.3437 52.4707 24.1627C52.8323 23.9817 53.1185 23.731 53.3331 23.4087C53.5477 23.0885 53.657 22.7165 53.657 22.2907V21.0494C53.5377 21.1111 53.3947 21.1688 53.2278 21.2205C53.0608 21.2722 52.878 21.32 52.6793 21.3657C52.4806 21.4115 52.2759 21.4513 52.0673 21.4851C51.8587 21.5189 51.656 21.5507 51.4632 21.5786C51.0718 21.6402 50.7399 21.7377 50.4637 21.867C50.1895 21.9983 49.9789 22.1654 49.8358 22.3723C49.6908 22.5792 49.6192 22.8239 49.6192 23.1084C49.6192 23.538 49.7742 23.8683 50.0822 24.095C50.3902 24.3218 50.7836 24.4352 51.2585 24.4352Z" fill="#582DB4"/>
<path d="M61.0072 13.7012H64.9595V16.2714C65.2317 15.4777 65.8338 14.8511 66.4796 14.3915C67.1254 13.932 67.8963 13.7032 68.7905 13.7032C69.6966 13.7032 70.4736 13.936 71.1194 14.4015C71.7652 14.867 72.1765 15.4896 72.3514 16.2734C72.5958 15.4956 73.2058 14.8729 73.9152 14.4055C74.6226 13.938 75.4591 13.7032 76.4229 13.7032C77.6568 13.7032 78.6603 14.0991 79.4313 14.8908C80.2022 15.6826 80.5878 16.7668 80.5878 18.1453V26.942H76.4328V19.0982C76.4328 18.4457 76.2659 17.9484 75.9321 17.6043C75.5982 17.2621 75.165 17.089 74.6325 17.089C74.0602 17.089 73.6112 17.276 73.2853 17.646C72.9594 18.018 72.7965 18.5154 72.7965 19.14V26.9401H68.8024V19.0545C68.8024 18.4477 68.6375 17.9683 68.3096 17.6162C67.9818 17.2641 67.5466 17.089 67.0101 17.089C66.6465 17.089 66.3266 17.1746 66.0504 17.3476C65.7722 17.5207 65.5556 17.7654 65.4006 18.0837C65.2436 18.402 65.1661 18.7759 65.1661 19.2076V26.9401H61.0072V13.7012Z" fill="#582DB4"/>
<path d="M83.6553 31.8377V13.7012H87.7685V16.1083C87.9394 15.7104 88.309 15.3285 88.6229 14.9605C88.9369 14.5925 89.3403 14.2901 89.8291 14.0553C90.3179 13.8206 90.9061 13.7012 91.5916 13.7012C92.4977 13.7012 93.3462 13.94 94.137 14.4154C94.9279 14.8908 95.5657 15.6269 96.0526 16.6195C96.5394 17.6122 96.7838 18.8774 96.7838 20.4131C96.7838 21.8932 96.5513 23.1325 96.0824 24.1311C95.6154 25.1298 94.9855 25.8778 94.1967 26.3771C93.4058 26.8764 92.5295 27.1251 91.5658 27.1251C90.9081 27.1251 90.3397 27.0176 89.8589 26.8028C89.378 26.5879 88.9727 26.3035 88.6488 25.9514C88.3249 25.5993 88.0725 25.2233 87.8977 24.8195H87.8122V31.8377H83.6553ZM87.7268 20.4032C87.7268 21.1054 87.8221 21.7181 88.0109 22.2393C88.2017 22.7605 88.4759 23.1663 88.8356 23.4528C89.1952 23.7393 89.6284 23.8825 90.1311 23.8825C90.6418 23.8825 91.075 23.7393 91.4307 23.4528C91.7864 23.1663 92.0586 22.7625 92.2414 22.2393C92.4262 21.7181 92.5176 21.1054 92.5176 20.4032C92.5176 19.699 92.4262 19.0903 92.2414 18.575C92.0566 18.0598 91.7883 17.66 91.4346 17.3755C91.0809 17.091 90.6458 16.9498 90.1291 16.9498C89.6205 16.9498 89.1853 17.089 88.8296 17.3655C88.4719 17.644 88.1997 18.0399 88.0089 18.5571C87.8221 19.0743 87.7268 19.689 87.7268 20.4032Z" fill="#582DB4"/>
<path d="M101.876 11.3008C101.286 11.3008 100.783 11.1058 100.364 10.7179C99.9444 10.33 99.7358 9.86054 99.7358 9.3095C99.7358 8.76444 99.9444 8.29894 100.364 7.90904C100.783 7.52112 101.284 7.32617 101.868 7.32617C102.458 7.32617 102.961 7.52112 103.376 7.90904C103.791 8.29695 104 8.76444 104 9.3095C104 9.86054 103.791 10.328 103.376 10.7179C102.961 11.1078 102.46 11.3008 101.876 11.3008Z" fill="#582DB4"/>
<path d="M103.946 13.745H99.7914V26.938H103.946V13.745Z" fill="#582DB4"/>
<path d="M15.1474 17.8848L11.8687 17.8748V14.7078C11.8687 11.4275 9.21201 8.76978 5.9373 8.76978C2.6626 8.76978 0.00585938 11.4295 0.00585938 14.7078V23.1027C0.00585938 26.3831 3.30045 29.7609 6.57714 29.7609H15.1494C18.4261 29.7609 21.0808 27.1012 21.0808 23.8228C21.0788 20.5445 18.4241 17.8848 15.1474 17.8848Z" fill="#582DB4"/>
<path opacity="0.5" d="M17.2716 15.732L13.9969 15.722C13.9949 15.722 13.991 15.72 13.991 15.716V12.6267C13.991 9.2349 11.1852 6.47574 7.80126 6.62096C4.6458 6.75623 2.12817 9.36023 2.12817 12.555V21.3856C2.12817 24.6679 5.02534 27.6101 8.30599 27.6101H17.2001C20.5881 27.6101 23.3441 24.8012 23.1991 21.4134C23.0639 18.2524 20.4609 15.732 17.2716 15.732Z" fill="#FE50B8"/>
<path opacity="0.5" d="M19.4115 13.5976L16.1328 13.5877V10.4207C16.1328 7.14037 13.4761 4.48267 10.2014 4.48267C6.92675 4.48267 4.27002 7.14236 4.27002 10.4207V19.5357C4.27002 23.3492 6.68633 25.4738 9.96301 25.4738H19.4135C22.6902 25.4738 25.3449 22.8141 25.3449 19.5357C25.3449 16.2573 22.6882 13.5976 19.4115 13.5976Z" fill="#FF0088"/>
</svg>
