<svg width="104" height="36" viewBox="0 0 104 36" fill="none" xmlns="http://www.w3.org/2000/svg">
<path d="M30.4038 9.13595H35.1035L38.8673 16.4272L42.6151 9.13595H47.3148L40.9498 20.7402V26.9293H36.7688V20.7402L30.4038 9.13595Z" fill="white"/>
<path d="M49.9736 27.1597C49.141 27.1597 48.4018 27.0185 47.7599 26.738C47.1161 26.4574 46.6093 26.0317 46.2377 25.4627C45.8661 24.8918 45.6813 24.1776 45.6813 23.3142C45.6813 22.588 45.8085 21.9753 46.0649 21.476C46.3192 20.9766 46.671 20.5708 47.1181 20.2604C47.5652 19.9481 48.0818 19.7113 48.6641 19.5502C49.2483 19.3891 49.8703 19.2796 50.534 19.2219C51.2752 19.1543 51.8734 19.0807 52.3265 19.0051C52.7796 18.9275 53.1094 18.8181 53.3161 18.6729C53.5228 18.5276 53.6261 18.3227 53.6261 18.0561V18.0144C53.6261 17.5787 53.4751 17.2405 53.177 17.0018C52.8769 16.763 52.4715 16.6437 51.9608 16.6437C51.4104 16.6437 50.9692 16.763 50.6354 17.0018C50.3015 17.2405 50.0889 17.5687 49.9975 17.9885L46.1642 17.8512C46.2775 17.0575 46.5696 16.3472 47.0425 15.7206C47.5155 15.0939 48.1673 14.6005 48.9979 14.2404C49.8286 13.8804 50.8261 13.6993 51.9946 13.6993C52.8272 13.6993 53.5943 13.7968 54.2977 13.9938C54.9992 14.1887 55.6113 14.4732 56.1339 14.8452C56.6545 15.2172 57.058 15.6708 57.3441 16.21C57.6303 16.7491 57.7733 17.3638 57.7733 18.0561V26.9389H53.8646V25.1186H53.7632C53.5307 25.5602 53.2346 25.9362 52.8749 26.2426C52.5153 26.549 52.092 26.7777 51.6091 26.9309C51.1242 27.0821 50.5797 27.1597 49.9736 27.1597ZM51.2554 24.4362C51.7025 24.4362 52.1059 24.3447 52.4676 24.1637C52.8292 23.9826 53.1154 23.732 53.33 23.4097C53.5446 23.0894 53.6539 22.7173 53.6539 22.2916V21.0502C53.5347 21.1119 53.3916 21.1696 53.2247 21.2213C53.0578 21.273 52.8749 21.3208 52.6762 21.3665C52.4775 21.4123 52.2728 21.4521 52.0642 21.4859C51.8555 21.5197 51.6528 21.5515 51.46 21.5794C51.0686 21.6411 50.7367 21.7386 50.4605 21.8679C50.1862 21.9992 49.9756 22.1663 49.8325 22.3732C49.6875 22.5801 49.6159 22.8248 49.6159 23.1093C49.6159 23.539 49.7709 23.8692 50.079 24.096C50.387 24.3228 50.7804 24.4362 51.2554 24.4362Z" fill="white"/>
<path d="M61.0045 13.7016H64.9571V16.2719C65.2293 15.4782 65.8314 14.8515 66.4773 14.3919C67.1231 13.9324 67.8941 13.7036 68.7883 13.7036C69.6945 13.7036 70.4715 13.9364 71.1173 14.4019C71.7632 14.8674 72.1745 15.4901 72.3494 16.2739C72.5938 15.4961 73.2039 14.8734 73.9133 14.4059C74.6207 13.9384 75.4573 13.7036 76.4211 13.7036C77.6552 13.7036 78.6587 14.0995 79.4297 14.8913C80.2007 15.6831 80.5863 16.7673 80.5863 18.146V26.9432H76.4311V19.0989C76.4311 18.4464 76.2641 17.949 75.9303 17.6048C75.5965 17.2627 75.1632 17.0896 74.6307 17.0896C74.0584 17.0896 73.6093 17.2766 73.2834 17.6466C72.9575 18.0186 72.7945 18.516 72.7945 19.1407V26.9412H68.8003V19.0551C68.8003 18.4484 68.6353 17.9689 68.3074 17.6168C67.9796 17.2647 67.5444 17.0896 67.0078 17.0896C66.6442 17.0896 66.3243 17.1751 66.048 17.3482C65.7698 17.5213 65.5532 17.766 65.3982 18.0843C65.2412 18.4026 65.1637 18.7766 65.1637 19.2083V26.9412H61.0045V13.7016Z" fill="white"/>
<path d="M83.6539 31.8391V13.7016H87.7674V16.1088C87.9383 15.7109 88.3079 15.329 88.6219 14.9609C88.9359 14.5929 89.3393 14.2905 89.8281 14.0557C90.317 13.821 90.9052 13.7016 91.5907 13.7016C92.4969 13.7016 93.3454 13.9403 94.1363 14.4158C94.9272 14.8913 95.5651 15.6274 96.0519 16.6201C96.5388 17.6128 96.7833 18.8781 96.7833 20.4139C96.7833 21.894 96.5508 23.1334 96.0818 24.1321C95.6148 25.1308 94.9849 25.8788 94.1959 26.3782C93.4051 26.8775 92.5287 27.1262 91.5649 27.1262C90.9072 27.1262 90.3388 27.0188 89.8579 26.8039C89.377 26.5891 88.9717 26.3046 88.6478 25.9524C88.3238 25.6003 88.0715 25.2243 87.8966 24.8205H87.8111V31.8391H83.6539ZM87.7257 20.404C87.7257 21.1062 87.821 21.719 88.0098 22.2402C88.2006 22.7614 88.4749 23.1673 88.8345 23.4537C89.1942 23.7402 89.6274 23.8834 90.1302 23.8834C90.6409 23.8834 91.0741 23.7402 91.4298 23.4537C91.7855 23.1673 92.0577 22.7634 92.2405 22.2402C92.4254 21.719 92.5168 21.1062 92.5168 20.404C92.5168 19.6997 92.4254 19.0909 92.2405 18.5757C92.0557 18.0604 91.7875 17.6605 91.4337 17.3761C91.08 17.0916 90.6449 16.9503 90.1282 16.9503C89.6195 16.9503 89.1843 17.0896 88.8286 17.3661C88.4709 17.6446 88.1986 18.0405 88.0078 18.5578C87.821 19.075 87.7257 19.6898 87.7257 20.404Z" fill="white"/>
<path d="M101.876 11.301C101.285 11.301 100.783 11.1061 100.363 10.7181C99.9441 10.3302 99.7354 9.86069 99.7354 9.30962C99.7354 8.76452 99.9441 8.29899 100.363 7.90907C100.783 7.52113 101.283 7.32617 101.868 7.32617C102.458 7.32617 102.961 7.52113 103.376 7.90907C103.791 8.297 104 8.76452 104 9.30962C104 9.86069 103.791 10.3282 103.376 10.7181C102.961 11.108 102.46 11.301 101.876 11.301Z" fill="white"/>
<path d="M103.946 13.7454H99.791V26.9392H103.946V13.7454Z" fill="white"/>
<path d="M25.3334 19.5351C25.3334 16.2546 22.679 13.5972 19.4021 13.5972L16.1253 13.5877V10.4211C16.1253 7.1405 13.4709 4.48315 10.194 4.48315C8.01365 4.48315 6.10818 5.66313 5.07803 7.41888C4.1806 7.94086 3.4317 8.69377 2.91347 9.59537C1.16917 10.6298 0 12.5311 0 14.7076V23.1004C0 26.3809 3.29585 29.7596 6.56956 29.7596H15.1394C17.3545 29.7596 19.2852 28.5416 20.3027 26.7416C21.1464 26.2322 21.8511 25.5268 22.3567 24.6853C24.1326 23.6603 25.3334 21.7369 25.3334 19.5351Z" fill="#582DB4"/>
<path d="M15.1457 17.8836L11.8688 17.8741V14.7074C11.8688 11.4269 9.21448 8.76953 5.9376 8.76953C2.66072 8.76953 0.00634766 11.4269 0.00634766 14.7074V23.1002C0.00634766 26.3807 3.30216 29.7594 6.57588 29.7594H15.1457C18.4226 29.7594 21.0769 27.102 21.0769 23.8215C21.0769 20.5409 18.4226 17.8836 15.1457 17.8836Z" fill="white"/>
<path opacity="0.5" d="M17.2695 15.7321L13.9958 15.7226C13.9926 15.7226 13.9895 15.7195 13.9895 15.7163V12.6256C13.9895 9.23428 11.1865 6.47571 7.79906 6.62123C4.64227 6.75726 2.12695 9.36082 2.12695 12.5528V21.3821C2.12695 24.6627 5.02465 27.6047 8.30153 27.6047H17.1937C20.5811 27.6047 23.3366 24.7987 23.1912 21.4074C23.0617 18.2503 20.4579 15.7321 17.2695 15.7321Z" fill="#FE50B8"/>
<path opacity="0.5" d="M19.4084 13.5967L16.1315 13.5872V10.4206C16.1315 7.14001 13.4772 4.48267 10.2003 4.48267C6.92341 4.48267 4.26904 7.14001 4.26904 10.4206V19.5346C4.26904 23.3466 6.68325 25.4725 9.96013 25.4725H19.4084C22.6853 25.4725 25.3396 22.8152 25.3396 19.5346C25.3396 16.2541 22.6853 13.5967 19.4084 13.5967Z" fill="#FF0088"/>
</svg>
