<svg width="50" height="50" viewBox="0 0 50 50" fill="none" xmlns="http://www.w3.org/2000/svg">
<rect x="0.5" y="0.5" width="49" height="49" rx="9.5" fill="white" stroke="#E3E3E3"/>
<path fill-rule="evenodd" clip-rule="evenodd" d="M9.52368 32.6851C9.35336 32.4258 9.10066 32.2354 8.76559 32.114C9.01283 31.9871 9.20508 31.8161 9.34233 31.6009C9.4797 31.3856 9.54839 31.1346 9.54839 30.8477C9.54839 30.5662 9.48249 30.3124 9.35069 30.0862C9.21877 29.8544 9.01005 29.6696 8.72441 29.5316C8.43876 29.3937 8.08165 29.3247 7.6533 29.3247H5V35.2179H7.74391C8.1943 35.2179 8.57068 35.1489 8.87268 35.0109C9.18037 34.873 9.40835 34.6771 9.55663 34.4233C9.71047 34.1694 9.78739 33.8715 9.78739 33.5293C9.78739 33.2204 9.69945 32.9389 9.52368 32.6851ZM6.11238 31.7829V30.2434H7.57081C7.851 30.2434 8.06529 30.3124 8.21356 30.4504C8.36741 30.5828 8.44421 30.7621 8.44421 30.9884C8.44421 31.2367 8.37008 31.4326 8.2218 31.576C8.07341 31.714 7.85645 31.7829 7.57081 31.7829H6.11238ZM8.40314 34.0839C8.23828 34.2218 7.99927 34.2908 7.68625 34.2908H6.11238V32.6603H7.68625C7.99382 32.6603 8.23004 32.7293 8.39479 32.8672C8.56511 33.0052 8.65027 33.2093 8.65027 33.4797C8.65027 33.739 8.56789 33.9405 8.40314 34.0839ZM12.7709 30.8973C12.7104 30.8863 12.6253 30.8808 12.5154 30.8808C12.2024 30.8808 11.9387 30.9553 11.7245 31.1042C11.5156 31.2532 11.3563 31.4546 11.2465 31.7084V30.947H10.2413V35.2179H11.2794V33.0493C11.2794 32.652 11.3866 32.354 11.6008 32.1554C11.815 31.9568 12.1172 31.8574 12.5072 31.8574H12.7709V30.8973ZM15.702 35.2179C15.647 35.1185 15.6086 34.9447 15.5867 34.6964C15.4438 34.895 15.2571 35.0495 15.0263 35.1599C14.7956 35.2648 14.5265 35.3172 14.2188 35.3172C13.9167 35.3172 13.6503 35.2675 13.4195 35.1682C13.1888 35.0688 13.0076 34.9226 12.8758 34.7295C12.7494 34.5364 12.6862 34.3046 12.6862 34.0342C12.6862 33.659 12.8125 33.3583 13.0652 33.1321C13.3234 32.9003 13.7409 32.7568 14.3177 32.7017L14.9604 32.6437C15.1691 32.6161 15.3202 32.5665 15.4136 32.4947C15.5125 32.423 15.562 32.3099 15.562 32.1554C15.562 31.9788 15.5042 31.8464 15.3889 31.7581C15.2736 31.6698 15.0731 31.6257 14.7873 31.6257C14.5842 31.6257 14.4193 31.6478 14.293 31.6919C14.1722 31.7305 14.0815 31.7995 14.0211 31.8988C13.9607 31.9926 13.9223 32.1278 13.9057 32.3044H12.884C12.9115 31.8298 13.0762 31.4684 13.3784 31.2201C13.686 30.9718 14.1584 30.8476 14.7956 30.8476C15.4054 30.8476 15.8531 30.9608 16.1387 31.187C16.4244 31.4132 16.5672 31.7278 16.5672 32.1306V34.4067C16.5672 34.5667 16.581 34.724 16.6084 34.8785C16.6413 35.0275 16.6853 35.1406 16.7402 35.2179H15.702ZM14.4661 34.5723C14.6583 34.5723 14.8369 34.5364 15.0016 34.4646C15.1719 34.3874 15.3065 34.2715 15.4054 34.117C15.5097 33.9625 15.562 33.7666 15.562 33.5293V33.1403C15.5125 33.19 15.4466 33.2286 15.3642 33.2562C15.2873 33.2838 15.1912 33.3031 15.0757 33.3142L14.5155 33.3804C14.2353 33.4135 14.0376 33.4797 13.9223 33.579C13.8068 33.6783 13.7492 33.8163 13.7492 33.9929C13.7492 34.1749 13.8096 34.3184 13.9305 34.4233C14.0513 34.5226 14.2298 34.5723 14.4661 34.5723ZM20.3085 31.0215C20.0889 30.9056 19.828 30.8476 19.5259 30.8476C19.2401 30.8476 18.9819 30.9139 18.7513 31.0463C18.526 31.1732 18.3421 31.3443 18.1992 31.5595V30.947H17.1939V35.2179H18.2321V32.8258C18.2321 32.583 18.2761 32.3816 18.364 32.2216C18.4573 32.0616 18.5755 31.943 18.7183 31.8657C18.8666 31.7885 19.0205 31.7498 19.1798 31.7498C19.7125 31.7498 19.979 32.0202 19.979 32.561V35.2179H21.0172V32.3871C21.0172 32.0561 20.9541 31.7747 20.8277 31.5429C20.7068 31.3112 20.5338 31.1373 20.3085 31.0215ZM25.7667 29.3247V35.2179H24.7615V34.6219C24.6132 34.8426 24.4264 35.0137 24.2012 35.1351C23.976 35.2565 23.715 35.3172 23.4184 35.3172C23.0283 35.3172 22.6878 35.2261 22.3966 35.044C22.111 34.8619 21.8913 34.6026 21.7375 34.266C21.5836 33.9239 21.5067 33.5293 21.5067 33.0824C21.5067 32.6355 21.5836 32.2437 21.7375 31.9071C21.8913 31.565 22.111 31.3029 22.3966 31.1208C22.6878 30.9387 23.0283 30.8477 23.4184 30.8477C23.704 30.8477 23.9567 30.9056 24.1764 31.0215C24.3962 31.1318 24.5802 31.2918 24.7285 31.5015V29.3247H25.7667ZM23.6573 34.4564C23.9979 34.4564 24.2643 34.3405 24.4566 34.1087C24.6543 33.8715 24.7532 33.5293 24.7532 33.0824C24.7532 32.6355 24.6543 32.2961 24.4566 32.0644C24.2643 31.8271 23.9979 31.7085 23.6573 31.7085C23.4322 31.7085 23.2371 31.7636 23.0723 31.874C22.913 31.9844 22.7894 32.1444 22.7015 32.354C22.6136 32.5637 22.5697 32.8175 22.5697 33.1155C22.5697 33.5569 22.6657 33.8908 22.8581 34.117C23.0503 34.3432 23.3167 34.4564 23.6573 34.4564ZM31.4905 35.1044C31.8202 35.2865 32.1992 35.3775 32.6275 35.3775C33.0561 35.3775 33.4324 35.2865 33.7564 35.1044C34.086 34.9168 34.3387 34.6547 34.5146 34.3181C34.6959 33.9815 34.7865 33.5897 34.7865 33.1428C34.7865 32.6958 34.6959 32.304 34.5146 31.9674C34.3387 31.6309 34.086 31.3715 33.7564 31.1894C33.4324 31.0018 33.0561 30.908 32.6275 30.908C32.1992 30.908 31.8202 31.0018 31.4905 31.1894C31.1664 31.3715 30.9138 31.6309 30.7325 31.9674C30.5511 32.304 30.4605 32.6958 30.4605 33.1428C30.4605 33.5897 30.5511 33.9815 30.7325 34.3181C30.9138 34.6547 31.1664 34.9168 31.4905 35.1044ZM33.4352 34.1608C33.2373 34.3981 32.9682 34.5167 32.6275 34.5167C32.2816 34.5167 32.0096 34.3981 31.8119 34.1608C31.6197 33.9236 31.5235 33.5842 31.5235 33.1428C31.5235 32.7013 31.6197 32.362 31.8119 32.1247C32.0096 31.8874 32.2816 31.7688 32.6275 31.7688C32.9682 31.7688 33.2373 31.8874 33.4352 32.1247C33.6329 32.362 33.7318 32.7013 33.7318 33.1428C33.7318 33.5842 33.6329 33.9236 33.4352 34.1608ZM39.0109 31.0073L37.4288 35.2782H36.2341L34.6602 31.0073H35.7726L36.1846 32.1578C36.355 32.693 36.5775 33.4186 36.8521 34.3346C37.0554 33.6449 37.2778 32.9165 37.5195 32.1495L37.9314 31.0073H39.0109ZM41.782 30.9577C41.7215 30.9466 41.6363 30.9411 41.5265 30.9411C41.2135 30.9411 40.9497 31.0156 40.7354 31.1646C40.5267 31.3136 40.3674 31.515 40.2576 31.7688V31.0073H39.2523V35.2782H40.2905V33.1097C40.2905 32.7124 40.3977 32.4144 40.6119 32.2158C40.8262 32.0171 41.1283 31.9178 41.5182 31.9178H41.782V30.9577ZM43.7616 35.3941C43.1464 35.3941 42.6767 35.2755 42.3525 35.0382C42.0285 34.8009 41.8499 34.4284 41.817 33.9208H42.8306C42.8579 34.1856 42.9431 34.3733 43.0859 34.4836C43.2342 34.594 43.465 34.6492 43.7781 34.6492C44.0693 34.6492 44.2807 34.605 44.4126 34.5167C44.5499 34.4284 44.6186 34.3015 44.6186 34.136C44.6186 34.0312 44.5938 33.9456 44.5444 33.8794C44.495 33.8077 44.4098 33.7497 44.2889 33.7056C44.1682 33.6559 44.0006 33.6118 43.7863 33.5731L43.3002 33.4904C42.8388 33.4131 42.4899 33.2697 42.2537 33.06C42.023 32.8448 41.9076 32.5579 41.9076 32.1992C41.9076 31.9288 41.9763 31.6971 42.1137 31.5039C42.251 31.3108 42.4515 31.1646 42.7151 31.0653C42.9788 30.9604 43.2974 30.908 43.671 30.908C44.3027 30.908 44.7696 31.0349 45.0717 31.2887C45.3739 31.5426 45.5332 31.8985 45.5496 32.3565H44.5691C44.5581 32.0971 44.4757 31.915 44.3219 31.8102C44.1736 31.7053 43.9567 31.6529 43.671 31.6529C43.4238 31.6529 43.237 31.6971 43.1106 31.7854C42.9899 31.8736 42.9294 31.995 42.9294 32.1495C42.9294 32.2985 42.9843 32.4116 43.0942 32.4889C43.2096 32.5661 43.3908 32.6268 43.6381 32.671L44.1736 32.7537C44.69 32.8476 45.0635 32.9965 45.2943 33.2007C45.5305 33.4049 45.6485 33.689 45.6485 34.0532C45.6485 34.3401 45.5743 34.583 45.4261 34.7816C45.2777 34.9802 45.0608 35.132 44.7751 35.2368C44.495 35.3417 44.1571 35.3941 43.7616 35.3941ZM30.168 35.2179V34.1404H27.5839V29.3408H26.56V34.1404V34.4832V35.2179H30.168Z" fill="url(#paint0_radial_25803_30832)"/>
<path fill-rule="evenodd" clip-rule="evenodd" d="M28.2187 14.7732L25.4579 12L22.6972 14.7732L25.4579 17.5463L28.2187 14.7732ZM25.4844 19.7519L22.7606 17.0159L20 19.7889L22.7481 22.5493L22.7458 22.5515L25.5066 25.3246L28.2672 22.5516L28.2429 22.5273L31.0028 19.7549L28.2422 16.9817L25.4844 19.7519Z" fill="url(#paint1_radial_25803_30832)"/>
<defs>
<radialGradient id="paint0_radial_25803_30832" cx="0" cy="0" r="1" gradientUnits="userSpaceOnUse" gradientTransform="translate(45.6484 28.3613) rotate(172.269) scale(55.5046 98.571)">
<stop stop-color="#FF5EDA"/>
<stop offset="1" stop-color="#FC3001"/>
</radialGradient>
<radialGradient id="paint1_radial_25803_30832" cx="0" cy="0" r="1" gradientUnits="userSpaceOnUse" gradientTransform="translate(109.25 12) rotate(172.271) scale(99.0752 175.903)">
<stop stop-color="#FF5EDA"/>
<stop offset="1" stop-color="#FC3001"/>
</radialGradient>
</defs>
</svg>
