<svg width="116" height="45" viewBox="0 0 116 45" fill="none" xmlns="http://www.w3.org/2000/svg">
<path d="M43.8918 8.16365H47.1784L49.8105 13.2631L52.4315 8.16365H55.7182L51.267 16.2797V20.6083H48.343V16.2797L43.8918 8.16365Z" fill="#582DB4"/>
<path d="M57.5776 20.7694C56.9953 20.7694 56.4784 20.6707 56.0295 20.4745C55.5792 20.2783 55.2248 19.9805 54.965 19.5826C54.7051 19.1833 54.5759 18.6837 54.5759 18.0799C54.5759 17.572 54.6648 17.1435 54.8441 16.7942C55.022 16.445 55.268 16.1611 55.5806 15.9441C55.8933 15.7256 56.2546 15.5601 56.6618 15.4474C57.0704 15.3347 57.5054 15.2581 57.9695 15.2178C58.4879 15.1705 58.9062 15.119 59.2231 15.0661C59.5399 15.0119 59.7706 14.9353 59.9151 14.8338C60.0597 14.7322 60.1319 14.5889 60.1319 14.4024V14.3732C60.1319 14.0685 60.0263 13.8319 59.8179 13.665C59.608 13.498 59.3245 13.4145 58.9673 13.4145C58.5824 13.4145 58.2739 13.498 58.0404 13.665C57.8069 13.8319 57.6583 14.0615 57.5943 14.3551L54.9136 14.2591C54.9928 13.7039 55.1971 13.2072 55.5278 12.7689C55.8586 12.3306 56.3144 11.9856 56.8953 11.7337C57.4762 11.4819 58.1738 11.3553 58.991 11.3553C59.5732 11.3553 60.1097 11.4234 60.6016 11.5612C61.0922 11.6975 61.5202 11.8965 61.8857 12.1567C62.2498 12.4169 62.532 12.7341 62.7321 13.1112C62.9322 13.4883 63.0322 13.9182 63.0322 14.4024V20.615H60.2987V19.3419H60.2278C60.0652 19.6508 59.8582 19.9137 59.6066 20.128C59.3551 20.3423 59.0591 20.5023 58.7214 20.6094C58.3823 20.7152 58.0015 20.7694 57.5776 20.7694ZM58.474 18.8646C58.7867 18.8646 59.0688 18.8006 59.3217 18.674C59.5747 18.5474 59.7748 18.3721 59.9249 18.1467C60.075 17.9227 60.1514 17.6625 60.1514 17.3647V16.4965C60.068 16.5396 59.968 16.58 59.8512 16.6161C59.7345 16.6523 59.6066 16.6857 59.4677 16.7177C59.3287 16.7497 59.1855 16.7775 59.0396 16.8012C58.8937 16.8248 58.7519 16.8471 58.6171 16.8666C58.3434 16.9097 58.1113 16.9779 57.9181 17.0683C57.7263 17.1602 57.579 17.277 57.479 17.4217C57.3775 17.5665 57.3275 17.7376 57.3275 17.9366C57.3275 18.2371 57.4359 18.4681 57.6513 18.6267C57.8667 18.7853 58.1419 18.8646 58.474 18.8646Z" fill="#582DB4"/>
<path d="M65.292 11.3569H68.0561V13.1545C68.2465 12.5994 68.6676 12.1611 69.1192 11.8397C69.5709 11.5183 70.1101 11.3583 70.7354 11.3583C71.3691 11.3583 71.9125 11.521 72.3642 11.8466C72.8159 12.1722 73.1035 12.6077 73.2258 13.1559C73.3967 12.6119 73.8234 12.1764 74.3195 11.8494C74.8142 11.5224 75.3993 11.3583 76.0733 11.3583C76.9363 11.3583 77.6381 11.6351 78.1773 12.1889C78.7165 12.7427 78.9861 13.501 78.9861 14.4652V20.618H76.0803V15.1317C76.0803 14.6753 75.9635 14.3275 75.7301 14.0868C75.4966 13.8475 75.1936 13.7264 74.8212 13.7264C74.421 13.7264 74.1069 13.8572 73.879 14.116C73.6511 14.3762 73.5371 14.724 73.5371 15.1609V20.6166H70.7438V15.1011C70.7438 14.6767 70.6284 14.3414 70.3991 14.0951C70.1698 13.8489 69.8655 13.7264 69.4903 13.7264C69.2359 13.7264 69.0122 13.7862 68.819 13.9073C68.6245 14.0283 68.473 14.1995 68.3646 14.4221C68.2548 14.6447 68.2006 14.9063 68.2006 15.2082V20.6166H65.292V11.3569Z" fill="#582DB4"/>
<path d="M81.1315 24.0422V11.3569H84.0082V13.0405C84.1277 12.7622 84.3862 12.495 84.6058 12.2376C84.8253 11.9802 85.1075 11.7687 85.4493 11.6045C85.7912 11.4403 86.2025 11.3569 86.682 11.3569C87.3157 11.3569 87.9091 11.5238 88.4622 11.8564C89.0153 12.1889 89.4614 12.7037 89.8019 13.398C90.1423 14.0923 90.3133 14.9773 90.3133 16.0514C90.3133 17.0866 90.1507 17.9535 89.8227 18.6519C89.4961 19.3504 89.0556 19.8736 88.5039 20.2228C87.9508 20.5721 87.3379 20.746 86.6639 20.746C86.2039 20.746 85.8065 20.6709 85.4702 20.5206C85.1338 20.3703 84.8504 20.1714 84.6238 19.9251C84.3973 19.6788 84.2208 19.4158 84.0985 19.1334H84.0387V24.0422H81.1315ZM83.979 16.0445C83.979 16.5356 84.0457 16.9642 84.1777 17.3287C84.3111 17.6933 84.5029 17.9771 84.7545 18.1775C85.006 18.3778 85.309 18.478 85.6606 18.478C86.0177 18.478 86.3207 18.3778 86.5694 18.1775C86.8182 17.9771 87.0086 17.6947 87.1364 17.3287C87.2657 16.9642 87.3296 16.5356 87.3296 16.0445C87.3296 15.5519 87.2657 15.1262 87.1364 14.7658C87.0072 14.4054 86.8195 14.1257 86.5722 13.9268C86.3248 13.7278 86.0205 13.629 85.6592 13.629C85.3034 13.629 84.9991 13.7264 84.7503 13.9198C84.5001 14.1146 84.3097 14.3915 84.1763 14.7533C84.0457 15.115 83.979 15.545 83.979 16.0445Z" fill="#582DB4"/>
<path d="M93.8746 9.6779C93.4618 9.6779 93.1102 9.54154 92.817 9.27021C92.5238 8.99889 92.3778 8.67052 92.3778 8.28511C92.3778 7.90387 92.5238 7.57828 92.817 7.30557C93.1102 7.03424 93.4604 6.89789 93.869 6.89789C94.2817 6.89789 94.6333 7.03424 94.9238 7.30557C95.2142 7.57689 95.3602 7.90387 95.3602 8.28511C95.3602 8.67052 95.2142 8.9975 94.9238 9.27021C94.6333 9.54293 94.2831 9.6779 93.8746 9.6779Z" fill="#582DB4"/>
<path d="M95.3226 11.3875H92.4167V20.6152H95.3226V11.3875Z" fill="#582DB4"/>
<path d="M36.1929 25.9269C36.1929 21.3702 32.5028 17.6783 27.9543 17.6783L23.4003 17.6645V13.2653C23.4003 8.7085 19.7101 5.01666 15.1616 5.01666C12.1311 5.01666 9.48704 6.65533 8.05459 9.09537C6.80707 9.82213 5.76658 10.8694 5.04621 12.1212C2.62293 13.5582 1 16.1999 1 19.2231V30.8844C1 35.4412 5.57611 40.1333 10.1274 40.1333H22.034C25.1114 40.1333 27.7941 38.4422 29.2073 35.9386C30.3775 35.2311 31.3601 34.2474 32.0584 33.0813C34.5258 31.6554 36.1929 28.9887 36.1929 25.9269Z" fill="white"/>
<path d="M22.0395 23.6336L17.4854 23.6198V19.2205C17.4854 14.6637 13.7954 10.9719 9.24685 10.9719C4.69834 10.9719 1.00818 14.6665 1.00818 19.2205V30.8818C1.00818 35.4386 5.5843 40.1308 10.1356 40.1308H22.0422C26.5935 40.1308 30.2809 36.4362 30.2809 31.8822C30.2781 27.3282 26.5907 23.6336 22.0395 23.6336Z" fill="#582DB4"/>
<path opacity="0.5" d="M24.9899 20.6432L20.4414 20.6293C20.4387 20.6293 20.4332 20.6266 20.4332 20.621V16.3296C20.4332 11.618 16.536 7.78528 11.8358 7.987C7.45287 8.17491 3.95593 11.7921 3.95593 16.2301V28.4966C3.95593 33.0561 7.98004 37.1431 12.5368 37.1431H24.8906C29.5964 37.1431 33.4245 33.2413 33.223 28.5353C33.0353 24.1443 29.4197 20.6432 24.9899 20.6432Z" fill="#F43EAB"/>
<path opacity="0.5" d="M27.9624 17.6784L23.4084 17.6645V13.2653C23.4084 8.70852 19.7183 5.01668 15.1698 5.01668C10.6213 5.01668 6.93115 8.71128 6.93115 13.2653V25.927C6.93115 31.2243 10.2874 34.1756 14.8386 34.1756H27.9652C32.5164 34.1756 36.2038 30.481 36.2038 25.927C36.2038 21.373 32.5137 17.6784 27.9624 17.6784Z" fill="#FF0088"/>
<path d="M46.3984 36.9979H48.1185V32.9895H50.4565C53.1006 32.9895 54.4088 31.3917 54.4088 29.2874C54.4088 27.1885 53.1118 25.5963 50.4621 25.5963H46.3984V36.9979ZM48.1185 31.5309V27.0716H50.2784C51.9818 27.0716 52.6776 27.9958 52.6776 29.2874C52.6776 30.5789 51.9818 31.5309 50.3006 31.5309H48.1185Z" fill="#582DB4"/>
<path d="M58.7035 37.1871C60.1174 37.1871 60.9134 36.469 61.2307 35.8288H61.2975V36.9979H62.923V31.3194C62.923 28.8308 60.9635 28.3354 59.6053 28.3354C58.0577 28.3354 56.6327 28.9589 56.076 30.5177L57.6402 30.874C57.8852 30.2672 58.5086 29.6826 59.6275 29.6826C60.7019 29.6826 61.253 30.2449 61.253 31.2136V31.2526C61.253 31.8594 60.6295 31.8482 59.0931 32.0264C57.4733 32.2157 55.8144 32.6388 55.8144 34.5817C55.8144 36.263 57.078 37.1871 58.7035 37.1871ZM59.0653 35.851C58.1245 35.851 57.4454 35.4279 57.4454 34.604C57.4454 33.7132 58.2359 33.3959 59.1989 33.2679C59.7389 33.1955 61.0192 33.0507 61.2586 32.8114V33.9137C61.2586 34.9269 60.4514 35.851 59.0653 35.851Z" fill="#582DB4"/>
<path d="M65.1399 36.9979H66.8043V31.7759C66.8043 30.6569 67.6672 29.8496 68.8473 29.8496C69.1924 29.8496 69.5821 29.9109 69.7157 29.9498V28.3576C69.5487 28.3354 69.2203 28.3187 69.0087 28.3187C68.0067 28.3187 67.1495 28.8865 66.8377 29.8051H66.7487V28.4467H65.1399V36.9979Z" fill="#582DB4"/>
<path d="M74.4515 37.1704C76.4722 37.1704 77.7804 35.9568 77.9641 34.2922H76.3442C76.1327 35.2164 75.4146 35.7619 74.4627 35.7619C73.0543 35.7619 72.1469 34.5873 72.1469 32.7223C72.1469 30.8907 73.071 29.7383 74.4627 29.7383C75.5203 29.7383 76.1661 30.4064 76.3442 31.208H77.9641C77.7859 29.4822 76.3776 28.3354 74.4348 28.3354C72.0245 28.3354 70.4658 30.1503 70.4658 32.7613C70.4658 35.3388 71.9688 37.1704 74.4515 37.1704Z" fill="#582DB4"/>
<path d="M83.4291 37.1704C85.294 37.1704 86.6133 36.2519 86.9918 34.8601L85.4164 34.5761C85.1158 35.3834 84.3922 35.7954 83.4458 35.7954C82.0208 35.7954 81.0633 34.8712 81.0188 33.2233H87.0976V32.6332C87.0976 29.5434 85.2494 28.3354 83.3122 28.3354C80.9297 28.3354 79.3599 30.1503 79.3599 32.778C79.3599 35.4335 80.9074 37.1704 83.4291 37.1704ZM81.0243 31.9763C81.0911 30.7627 81.9707 29.7105 83.3234 29.7105C84.6148 29.7105 85.461 30.668 85.4665 31.9763H81.0243Z" fill="#582DB4"/>
<path d="M88.9443 36.9979H90.6087V28.4467H88.9443V36.9979ZM89.7849 27.1273C90.3582 27.1273 90.8369 26.6819 90.8369 26.1364C90.8369 25.5908 90.3582 25.1398 89.7849 25.1398C89.2059 25.1398 88.7328 25.5908 88.7328 26.1364C88.7328 26.6819 89.2059 27.1273 89.7849 27.1273Z" fill="#582DB4"/>
<path d="M92.8479 36.9979H94.5123V31.7759C94.5123 30.6569 95.3752 29.8496 96.5553 29.8496C96.9004 29.8496 97.2901 29.9109 97.4237 29.9498V28.3576C97.2567 28.3354 96.9283 28.3187 96.7167 28.3187C95.7147 28.3187 94.8575 28.8865 94.5457 29.8051H94.4567V28.4467H92.8479V36.9979Z" fill="#582DB4"/>
<path d="M102.16 37.1704C104.57 37.1704 106.145 35.4057 106.145 32.7613C106.145 30.1002 104.57 28.3354 102.16 28.3354C99.7492 28.3354 98.1738 30.1002 98.1738 32.7613C98.1738 35.4057 99.7492 37.1704 102.16 37.1704ZM102.165 35.7731C100.59 35.7731 99.8549 34.398 99.8549 32.7557C99.8549 31.1189 100.59 29.7272 102.165 29.7272C103.729 29.7272 104.464 31.1189 104.464 32.7557C104.464 34.398 103.729 35.7731 102.165 35.7731Z" fill="#582DB4"/>
<path d="M114.41 30.5344C114.065 29.2038 113.024 28.3354 111.176 28.3354C109.244 28.3354 107.875 29.3542 107.875 30.8684C107.875 32.0821 108.61 32.8893 110.213 33.2456L111.66 33.5629C112.484 33.7466 112.868 34.1141 112.868 34.6485C112.868 35.311 112.161 35.8288 111.07 35.8288C110.074 35.8288 109.434 35.4001 109.233 34.5594L107.625 34.8044C107.903 36.3187 109.161 37.1704 111.081 37.1704C113.147 37.1704 114.577 36.0737 114.577 34.526C114.577 33.318 113.809 32.572 112.239 32.2101L110.881 31.8983C109.94 31.6757 109.534 31.3583 109.539 30.7794C109.534 30.1224 110.246 29.6548 111.193 29.6548C112.228 29.6548 112.707 30.2282 112.902 30.8016L114.41 30.5344Z" fill="#582DB4"/>
</svg>
