<svg width="116" height="45" viewBox="0 0 116 45" fill="none" xmlns="http://www.w3.org/2000/svg">
<path d="M43.8918 8.1467H47.1784L49.8105 13.2457L52.4315 8.1467H55.7182L51.267 16.262V20.5902H48.343V16.262L43.8918 8.1467Z" fill="white"/>
<path d="M57.5776 20.7514C56.9953 20.7514 56.4784 20.6526 56.0295 20.4564C55.5792 20.2602 55.2248 19.9625 54.965 19.5646C54.7051 19.1653 54.5759 18.6659 54.5759 18.062C54.5759 17.5542 54.6648 17.1257 54.8441 16.7765C55.022 16.4273 55.268 16.1435 55.5806 15.9264C55.8933 15.708 56.2546 15.5424 56.6618 15.4298C57.0704 15.3171 57.5054 15.2405 57.9695 15.2002C58.4879 15.1529 58.9062 15.1014 59.2231 15.0486C59.5399 14.9943 59.7706 14.9178 59.9151 14.8162C60.0597 14.7146 60.1319 14.5713 60.1319 14.3849V14.3557C60.1319 14.051 60.0263 13.8145 59.8179 13.6475C59.608 13.4806 59.3245 13.3971 58.9673 13.3971C58.5824 13.3971 58.2739 13.4806 58.0404 13.6475C57.8069 13.8145 57.6583 14.0441 57.5943 14.3376L54.9136 14.2416C54.9928 13.6865 55.1971 13.1898 55.5278 12.7516C55.8586 12.3133 56.3144 11.9683 56.8953 11.7165C57.4762 11.4646 58.1738 11.338 58.991 11.338C59.5732 11.338 60.1097 11.4062 60.6016 11.5439C61.0922 11.6803 61.5202 11.8792 61.8857 12.1394C62.2498 12.3996 62.532 12.7168 62.7321 13.0938C62.9322 13.4709 63.0322 13.9008 63.0322 14.3849V20.5969H60.2987V19.3239H60.2278C60.0652 19.6328 59.8582 19.8957 59.6066 20.11C59.3551 20.3242 59.0591 20.4842 58.7214 20.5914C58.3823 20.6971 58.0015 20.7514 57.5776 20.7514ZM58.474 18.8467C58.7867 18.8467 59.0688 18.7827 59.3217 18.6561C59.5747 18.5295 59.7748 18.3542 59.9249 18.1288C60.075 17.9048 60.1514 17.6447 60.1514 17.3469V16.4788C60.068 16.5219 59.968 16.5623 59.8512 16.5984C59.7345 16.6346 59.6066 16.668 59.4677 16.7C59.3287 16.732 59.1855 16.7598 59.0396 16.7835C58.8937 16.8071 58.7519 16.8294 58.6171 16.8489C58.3434 16.892 58.1113 16.9602 57.9181 17.0506C57.7263 17.1424 57.579 17.2593 57.479 17.404C57.3775 17.5487 57.3275 17.7198 57.3275 17.9187C57.3275 18.2193 57.4359 18.4502 57.6513 18.6088C57.8667 18.7674 58.1419 18.8467 58.474 18.8467Z" fill="white"/>
<path d="M65.292 11.3396H68.0561V13.1372C68.2465 12.582 68.6676 12.1438 69.1192 11.8224C69.5709 11.501 70.1101 11.341 70.7354 11.341C71.3691 11.341 71.9125 11.5038 72.3642 11.8294C72.8159 12.1549 73.1035 12.5904 73.2258 13.1385C73.3967 12.5946 73.8234 12.1591 74.3195 11.8321C74.8142 11.5052 75.3993 11.341 76.0733 11.341C76.9363 11.341 77.6381 11.6179 78.1773 12.1716C78.7165 12.7253 78.9861 13.4836 78.9861 14.4477V20.5999H76.0803V15.1141C76.0803 14.6578 75.9635 14.31 75.7301 14.0693C75.4966 13.83 75.1936 13.709 74.8212 13.709C74.421 13.709 74.1069 13.8397 73.879 14.0985C73.6511 14.3587 73.5371 14.7065 73.5371 15.1434V20.5985H70.7438V15.0835C70.7438 14.6592 70.6284 14.3239 70.3991 14.0777C70.1698 13.8314 69.8655 13.709 69.4903 13.709C69.2359 13.709 69.0122 13.7688 68.819 13.8898C68.6245 14.0109 68.473 14.182 68.3646 14.4046C68.2548 14.6272 68.2006 14.8888 68.2006 15.1907V20.5985H65.292V11.3396Z" fill="white"/>
<path d="M81.1315 24.0238V11.3396H84.0082V13.0231C84.1277 12.7448 84.3862 12.4777 84.6058 12.2203C84.8253 11.9629 85.1075 11.7514 85.4493 11.5873C85.7912 11.4231 86.2025 11.3396 86.682 11.3396C87.3157 11.3396 87.9091 11.5066 88.4622 11.8391C89.0153 12.1716 89.4614 12.6864 89.8019 13.3806C90.1423 14.0749 90.3133 14.9597 90.3133 16.0338C90.3133 17.0689 90.1507 17.9356 89.8227 18.6341C89.4961 19.3325 89.0556 19.8556 88.5039 20.2048C87.9508 20.554 87.3379 20.7279 86.6639 20.7279C86.2039 20.7279 85.8065 20.6528 85.4702 20.5025C85.1338 20.3523 84.8504 20.1533 84.6238 19.9071C84.3973 19.6608 84.2208 19.3979 84.0985 19.1154H84.0387V24.0238H81.1315ZM83.979 16.0268C83.979 16.5179 84.0457 16.9465 84.1777 17.311C84.3111 17.6755 84.5029 17.9593 84.7545 18.1596C85.006 18.36 85.309 18.4602 85.6606 18.4602C86.0177 18.4602 86.3207 18.36 86.5694 18.1596C86.8182 17.9593 87.0086 17.6769 87.1364 17.311C87.2657 16.9465 87.3296 16.5179 87.3296 16.0268C87.3296 15.5343 87.2657 15.1086 87.1364 14.7482C87.0072 14.3879 86.8195 14.1083 86.5722 13.9093C86.3248 13.7104 86.0205 13.6116 85.6592 13.6116C85.3034 13.6116 84.9991 13.709 84.7503 13.9024C84.5001 14.0971 84.3097 14.374 84.1763 14.7357C84.0457 15.0975 83.979 15.5274 83.979 16.0268Z" fill="white"/>
<path d="M93.8746 9.66082C93.4618 9.66082 93.1102 9.52447 92.817 9.25317C92.5238 8.98187 92.3778 8.65354 92.3778 8.26815C92.3778 7.88695 92.5238 7.56139 92.817 7.2887C93.1102 7.0174 93.4604 6.88106 93.869 6.88106C94.2817 6.88106 94.6333 7.0174 94.9238 7.2887C95.2142 7.56 95.3602 7.88695 95.3602 8.26815C95.3602 8.65354 95.2142 8.98048 94.9238 9.25317C94.6333 9.52586 94.2831 9.66082 93.8746 9.66082Z" fill="white"/>
<path d="M95.3226 11.3702H92.4167V20.5971H95.3226V11.3702Z" fill="white"/>
<path d="M36.1929 25.9084C36.1929 21.352 32.5028 17.6605 27.9543 17.6605L23.4003 17.6467V13.2479C23.4003 8.69151 19.7101 5 15.1616 5C12.1311 5 9.48704 6.63852 8.05459 9.07834C6.80707 9.80504 5.76658 10.8522 5.04621 12.1039C2.62293 13.5407 1 16.1823 1 19.2051V30.8654C1 35.4218 5.57611 40.1135 10.1274 40.1135H22.034C25.1114 40.1135 27.7941 38.4225 29.2073 35.9191C30.3775 35.2118 31.3601 34.2281 32.0584 33.0621C34.5258 31.6363 36.1929 28.9699 36.1929 25.9084Z" fill="white"/>
<path d="M36.1913 25.9095C36.1913 21.3524 32.5041 17.661 27.9521 17.661L23.4001 17.6478V13.2489C23.4001 8.69182 19.7128 5.00041 15.1608 5.00041C12.132 5.00041 9.48505 6.63955 8.05404 9.07851C6.8074 9.80361 5.76708 10.8495 5.04719 12.1019C2.62413 13.5389 1 16.1801 1 19.2035V30.8621C1 35.4193 5.57836 40.1126 10.126 40.1126H22.0305C25.1076 40.1126 27.7896 38.4207 29.2031 35.9202C30.3751 35.2127 31.354 34.2327 32.0563 33.0638C34.5233 31.64 36.1913 28.9681 36.1913 25.9095Z" fill="#582DB4"/>
<path d="M22.0392 23.6156L17.4872 23.6024V19.2035C17.4872 14.6464 13.8 10.955 9.24794 10.955C4.69593 10.955 1.00867 14.6464 1.00867 19.2035V30.8621C1.00867 35.4192 5.58698 40.1126 10.1346 40.1126H22.0392C26.5912 40.1126 30.2784 36.4212 30.2784 31.8641C30.2784 27.307 26.5912 23.6156 22.0392 23.6156Z" fill="white"/>
<path opacity="0.5" d="M24.9893 20.627L20.4416 20.6138C20.4373 20.6138 20.4329 20.6094 20.4329 20.605V16.3115C20.4329 11.6006 16.5393 7.7686 11.8336 7.97075C7.44841 8.15972 3.95432 11.7764 3.95432 16.2105V28.4755C3.95432 33.0327 7.97959 37.1196 12.5316 37.1196H24.8839C29.5896 37.1196 33.4173 33.2216 33.2153 28.5107C33.0354 24.125 29.4184 20.627 24.9893 20.627Z" fill="#F43EAB"/>
<path opacity="0.5" d="M27.9608 17.6605L23.4087 17.6473V13.2484C23.4087 8.69134 19.7215 4.99994 15.1695 4.99994C10.6175 4.99994 6.93027 8.69134 6.93027 13.2484V25.909C6.93027 31.2044 10.2839 34.1575 14.8359 34.1575H27.9608C32.5128 34.1575 36.2 30.4662 36.2 25.909C36.2 21.3519 32.5128 17.6605 27.9608 17.6605Z" fill="#FF0088"/>
<path d="M46.3984 36.9783H48.1185V32.9703H50.4565C53.1006 32.9703 54.4088 31.3727 54.4088 29.2685C54.4088 27.1699 53.1118 25.5778 50.4621 25.5778H46.3984V36.9783ZM48.1185 31.5119V27.053H50.2784C51.9818 27.053 52.6776 27.9771 52.6776 29.2685C52.6776 30.56 51.9818 31.5119 50.3006 31.5119H48.1185Z" fill="white"/>
<path d="M58.7035 37.1676C60.1174 37.1676 60.9134 36.4495 61.2307 35.8093H61.2975V36.9783H62.923V31.3003C62.923 28.8121 60.9635 28.3166 59.6053 28.3166C58.0577 28.3166 56.6327 28.9401 56.076 30.4987L57.6402 30.855C57.8852 30.2482 58.5086 29.6638 59.6275 29.6638C60.7019 29.6638 61.253 30.226 61.253 31.1946V31.2335C61.253 31.8403 60.6295 31.8292 59.0931 32.0073C57.4733 32.1966 55.8144 32.6196 55.8144 34.5624C55.8144 36.2435 57.078 37.1676 58.7035 37.1676ZM59.0653 35.8316C58.1245 35.8316 57.4454 35.4085 57.4454 34.5847C57.4454 33.694 58.2359 33.3767 59.1989 33.2487C59.7389 33.1763 61.0192 33.0316 61.2586 32.7922V33.8944C61.2586 34.9075 60.4514 35.8316 59.0653 35.8316Z" fill="white"/>
<path d="M65.1399 36.9783H66.8043V31.7568C66.8043 30.6379 67.6672 29.8307 68.8473 29.8307C69.1924 29.8307 69.5821 29.892 69.7157 29.931V28.3389C69.5487 28.3166 69.2203 28.2999 69.0087 28.2999C68.0067 28.2999 67.1495 28.8677 66.8377 29.7862H66.7487V28.428H65.1399V36.9783Z" fill="white"/>
<path d="M74.4515 37.1509C76.4722 37.1509 77.7804 35.9374 77.9641 34.2729H76.3442C76.1327 35.197 75.4146 35.7425 74.4627 35.7425C73.0543 35.7425 72.1469 34.568 72.1469 32.7031C72.1469 30.8717 73.071 29.7194 74.4627 29.7194C75.5203 29.7194 76.1661 30.3874 76.3442 31.189H77.9641C77.7859 29.4634 76.3776 28.3166 74.4348 28.3166C72.0245 28.3166 70.4658 30.1314 70.4658 32.7421C70.4658 35.3195 71.9688 37.1509 74.4515 37.1509Z" fill="white"/>
<path d="M83.4291 37.1509C85.294 37.1509 86.6133 36.2324 86.9918 34.8407L85.4164 34.5568C85.1158 35.364 84.3922 35.7759 83.4458 35.7759C82.0208 35.7759 81.0633 34.8519 81.0188 33.2041H87.0976V32.6141C87.0976 29.5246 85.2494 28.3166 83.3122 28.3166C80.9297 28.3166 79.3599 30.1313 79.3599 32.7588C79.3599 35.4141 80.9074 37.1509 83.4291 37.1509ZM81.0243 31.9572C81.0911 30.7437 81.9707 29.6916 83.3234 29.6916C84.6148 29.6916 85.461 30.649 85.4665 31.9572H81.0243Z" fill="white"/>
<path d="M88.9443 36.9783H90.6087V28.428H88.9443V36.9783ZM89.7849 27.1087C90.3582 27.1087 90.8369 26.6633 90.8369 26.1178C90.8369 25.5723 90.3582 25.1214 89.7849 25.1214C89.2059 25.1214 88.7328 25.5723 88.7328 26.1178C88.7328 26.6633 89.2059 27.1087 89.7849 27.1087Z" fill="white"/>
<path d="M92.8479 36.9783H94.5123V31.7568C94.5123 30.6379 95.3752 29.8307 96.5553 29.8307C96.9004 29.8307 97.2901 29.892 97.4237 29.931V28.3389C97.2567 28.3166 96.9283 28.2999 96.7167 28.2999C95.7147 28.2999 94.8575 28.8677 94.5457 29.7862H94.4567V28.428H92.8479V36.9783Z" fill="white"/>
<path d="M102.16 37.1509C104.57 37.1509 106.145 35.3863 106.145 32.7421C106.145 30.0813 104.57 28.3166 102.16 28.3166C99.7492 28.3166 98.1738 30.0813 98.1738 32.7421C98.1738 35.3863 99.7492 37.1509 102.16 37.1509ZM102.165 35.7537C100.59 35.7537 99.8549 34.3787 99.8549 32.7365C99.8549 31.0999 100.59 29.7083 102.165 29.7083C103.729 29.7083 104.464 31.0999 104.464 32.7365C104.464 34.3787 103.729 35.7537 102.165 35.7537Z" fill="white"/>
<path d="M114.41 30.5154C114.065 29.185 113.024 28.3166 111.176 28.3166C109.244 28.3166 107.875 29.3353 107.875 30.8494C107.875 32.063 108.61 32.8701 110.213 33.2264L111.66 33.5437C112.484 33.7274 112.868 34.0948 112.868 34.6292C112.868 35.2916 112.161 35.8093 111.07 35.8093C110.074 35.8093 109.434 35.3807 109.233 34.5401L107.625 34.7851C107.903 36.2992 109.161 37.1509 111.081 37.1509C113.147 37.1509 114.577 36.0543 114.577 34.5067C114.577 33.2988 113.809 32.5528 112.239 32.191L110.881 31.8793C109.94 31.6566 109.534 31.3393 109.539 30.7604C109.534 30.1035 110.246 29.6359 111.193 29.6359C112.228 29.6359 112.707 30.2093 112.902 30.7826L114.41 30.5154Z" fill="white"/>
</svg>
