<svg width="36" height="28" viewBox="0 0 36 28" fill="none" xmlns="http://www.w3.org/2000/svg">
<path d="M16.2224 13.8643C16.1858 14.3412 16.5154 14.7446 16.9914 14.818C17.028 14.818 17.1013 14.818 17.1379 14.818C17.4309 14.818 17.7238 14.6713 17.9069 14.4512L16.7717 12.874C16.4421 13.0574 16.2224 13.4609 16.2224 13.8643Z" fill="#212B36"/>
<path d="M18.0534 11.1135C18.0534 10.8568 17.9069 10.5634 17.6139 10.5634C17.3576 10.5634 17.1379 10.7834 17.1379 11.0402C17.1379 11.0769 17.1379 11.0769 17.1379 11.1135C17.1379 11.4436 17.2478 11.7371 17.4675 11.9938C17.8337 11.8471 18.0534 11.4803 18.0534 11.1135Z" fill="#212B36"/>
<path d="M34.1659 9.93989C33.6166 8.25267 33.9462 7.0056 32.9941 5.75853C31.8589 4.69485 30.5772 4.87825 29.1491 4.07132C27.7575 3.11768 27.4646 1.87061 26.1097 1.35711C24.535 0.880285 23.5829 1.65053 21.8618 1.43046C19.9576 1.06368 19.7013 0.0366786 18.0168 0C16.3689 0.0366786 16.1126 1.06368 14.1717 1.43046C12.4506 1.65053 11.4985 0.880285 9.96049 1.35711C8.60557 1.87061 8.27599 3.11768 6.92107 4.07132C5.49292 4.91493 4.17462 4.69485 3.07603 5.75853C2.08731 7.0056 2.41688 8.25267 1.86759 9.93989C1.17182 11.6271 0 12.1773 0 13.8278C0 15.4783 1.17182 16.0652 1.86759 17.7524C2.41688 19.4396 2.08731 20.7234 3.07603 21.9338C4.21124 22.9975 5.49292 22.8141 6.92107 23.621C8.31261 24.5746 8.60557 25.8217 9.96049 26.3352C11.4985 26.812 12.4506 26.0418 14.1717 26.2618C16.0759 26.6286 16.3323 27.6556 18.0168 27.6923C19.6646 27.6556 19.921 26.6286 21.8618 26.2618C23.6195 26.0418 24.5716 26.812 26.073 26.3352C27.428 25.8217 27.7575 24.5746 29.1125 23.621C30.5406 22.7774 31.8589 22.9975 32.9575 21.9338C33.9462 20.6867 33.6166 19.4396 34.1293 17.7524C34.7885 16.1019 35.9969 15.4783 35.9969 13.8278C36.0701 12.1406 34.8251 11.5904 34.1659 9.93989ZM15.5999 18.8895C15.5999 18.9628 15.5633 19.0362 15.49 19.0362H14.8309C14.7576 19.0362 14.6844 18.9995 14.6844 18.9261C14.6478 18.8161 14.5379 18.7427 14.4281 18.7427C14.0619 18.7427 13.4393 19.1095 12.0478 19.1095C8.8619 19.1095 7.17741 16.5053 7.17741 13.6077C7.17741 10.1966 9.2281 8.06928 12.0478 8.06928C12.6337 8.06928 13.183 8.14264 13.7323 8.36271C13.8788 8.47275 14.0619 8.50942 14.245 8.5461C14.4647 8.5461 14.5013 8.39939 14.6112 8.28935C14.6478 8.216 14.6844 8.14264 14.7576 8.14264H15.3802C15.4534 8.14264 15.5266 8.216 15.5266 8.28935V11.0402C15.5266 11.1136 15.49 11.187 15.4168 11.187H14.7576C14.6844 11.187 14.6112 11.1503 14.6112 11.0402C14.3548 9.7565 13.9154 8.94957 12.4506 8.94957C10.6196 8.94957 10.1802 11.7738 10.1802 13.1676C10.1802 15.295 10.4365 18.1192 12.5238 18.1192C14.0252 18.1192 14.5013 17.2389 14.6844 16.0285C14.6844 15.9552 14.7576 15.8818 14.8309 15.8818H15.4534C15.5266 15.8818 15.5999 15.9552 15.5999 16.0285V18.8895ZM16.9182 15.3683C15.8928 15.3683 15.0872 14.8181 15.0506 13.9012C15.014 13.0942 15.783 12.5074 16.4055 12.3607C16.1858 12.1039 16.0759 11.7738 16.0393 11.4437C16.0393 10.5634 16.8083 10.1233 17.6139 10.1233C18.4196 10.1233 19.0055 10.5634 19.0055 11.2603C19.0055 11.8839 18.383 12.2506 17.8337 12.5074L18.6027 13.6444C18.859 13.2776 19.0421 12.8742 19.152 12.4707C19.152 12.434 19.1886 12.3974 19.2984 12.3974H20.5069C20.5801 12.3974 20.6534 12.3974 20.6167 12.5441L20.5069 12.8375C20.4703 12.9109 20.4336 12.9475 20.3604 12.9475H20.2139C20.0675 12.9475 20.0308 13.0209 19.9576 13.1309C19.9576 13.1309 19.7745 13.4243 19.6646 13.6077C19.5182 13.8645 19.3351 14.0846 19.1153 14.268C19.2984 14.5247 19.5548 14.6714 19.8844 14.6714H20.1041C20.1407 14.6714 20.2505 14.6714 20.2139 14.8181L20.0675 15.1849C20.0308 15.2216 20.0308 15.295 19.921 15.295H19.4449C19.0787 15.3316 18.7125 15.2216 18.4562 14.9648C17.9435 15.2216 17.4309 15.3683 16.9182 15.3683ZM29.5153 18.8895C29.5153 18.9628 29.4786 19.0362 29.4054 19.0362H24.9012C24.828 19.0362 24.7547 18.9995 24.7547 18.9261V18.3026C24.7547 18.2292 24.7914 18.1559 24.8646 18.1559H25.2674C25.5604 18.1559 25.6336 18.0092 25.6336 17.8991C25.6336 17.8258 25.6336 17.7891 25.597 17.7524C25.5604 17.6057 25.5237 17.459 25.4505 17.3123C25.4505 17.3123 25.1942 16.4687 25.0111 16.0285H21.4956L20.9097 17.4957C20.8731 17.6057 20.8365 17.7157 20.8365 17.8625C20.8365 18.1559 21.1294 18.1926 21.3858 18.1926H21.7153C21.7886 18.1926 21.8618 18.2292 21.8618 18.3026V18.9261C21.8618 18.9995 21.8252 19.0728 21.7519 19.0728H18.7125C18.6393 19.0728 18.5661 19.0362 18.5661 18.9628V18.3393C18.5661 18.2659 18.6027 18.1926 18.6759 18.1926H18.8224C19.0055 18.1926 19.1886 18.1926 19.3351 18.1192C19.5182 18.0458 19.5914 17.8991 19.6646 17.7157L23.5463 8.39939C23.5829 8.28935 23.6562 8.25267 23.766 8.25267H25.0111C25.0843 8.25267 25.1942 8.28935 25.1942 8.39939C25.5604 9.38971 28.4167 17.6791 28.4167 17.6791C28.4899 18.0092 28.7829 18.2659 29.1491 18.1926H29.3322C29.4054 18.1926 29.4786 18.2292 29.4786 18.3026V18.3393L29.5153 18.8895Z" fill="#212B36"/>
<path d="M21.8618 15.1116H24.828L23.5463 10.8936L21.8618 15.1116Z" fill="#212B36"/>
</svg>
