<?xml version="1.0" encoding="UTF-8"?>
<svg width="160px" height="160px" viewBox="0 0 160 160" version="1.1" xmlns="http://www.w3.org/2000/svg" xmlns:xlink="http://www.w3.org/1999/xlink">
    <!-- Generator: Sketch 53.2 (72643) - https://sketchapp.com -->
    <title>XMLID_40_ Copy</title>
    <desc>Created with Sketch.</desc>
    <defs>
        <rect id="path-1" x="0" y="0" width="160" height="160"></rect>
    </defs>
    <g id="Page-1" stroke="none" stroke-width="1" fill="none" fill-rule="evenodd">
        <g id="XMLID_40_-Copy">
            <mask id="mask-2" fill="white">
                <use xlink:href="#path-1"></use>
            </mask>
            <use id="Mask" fill="#A60012" xlink:href="#path-1"></use>
            <path d="M192.885417,55 L193,119 L182,119 L182.114583,55 L192.885417,55 Z M155.920149,54.9485285 L146.595108,90.3304043 L137.624183,54.8305889 C135.027337,54.9485285 132.194413,54.8305889 129.715605,54.9485285 L114.842756,114.154201 L100.205983,54.8305889 L91.3530969,54.8305889 C90.9989815,56.9535014 91.3530969,55.7741056 75.7720168,109.200738 C75.2998628,110.616013 75.1818244,111.795409 73.883401,112.738926 C71.6406698,114.625959 67.6273612,115.333597 63.8501297,115.451536 C60.1909366,115.569476 54.4070508,114.508019 50.8658962,113.210684 C7.78184879,97.7605982 30.9173921,27.3506653 79.1951329,50.230945 C79.6672868,50.4668242 80.9657102,51.2924013 81.4378641,51.5282805 L86.1594036,43.9801469 L84.3888263,43.390449 C79.3131714,41.7392948 73.7653625,40.0881406 68.3355922,39.4984427 C46.9706262,36.7858322 29.3828917,45.1595428 19.3496204,64.2657558 C18.523351,65.91691 17.9331586,67.2142454 17.4610047,68.9833392 C11.3230034,93.3968336 25.0154678,114.979778 49.3313959,120.994697 C55.8235126,122.409972 64.0862067,122.056153 67.6273612,121.584395 C74.3555549,120.758818 73.5292855,120.640878 80.9657102,118.635905 C84.7429417,105.662551 88.4021348,93.5147731 92.2974048,80.5414187 C95.484444,93.0430148 98.5534446,105.89843 101.504407,118.400026 L120.036449,118.400026 C122.27918,109.318678 127.708951,87.3819147 129.597566,80.0696603 L139.394761,118.400026 L145.886878,118.400026 L155.684072,79.8337811 L165.363228,118.282086 L180,118.282086 L165.127151,54.8305889 C162.176189,54.9485285 159.107188,54.8305889 155.920149,54.9485285 L155.920149,54.9485285 Z M256.646524,55.2416833 L240.057924,113.497583 C227.469413,116.826492 216.527996,112.427577 211.469061,104.818643 C197.351104,83.2996269 212.292609,52.6261123 240.881472,59.997267 C243.822713,60.9483837 246.646304,62.4939484 248.881648,63.5639547 L252.293487,57.6194751 C250.058144,57.0250272 247.705151,56.1928 245.469808,55.5983521 C243.940363,55.1227937 242.528567,54.8850145 240.999121,54.6472354 C187.703833,46.5627431 179.350709,116.826492 228.881208,119.917621 C232.881296,120.27429 245.822757,119.442063 247.116903,118.015388 C250.646392,105.413091 254.293531,93.167463 257.82302,80.5651663 C260.881911,93.2863526 263.823152,106.720876 267.117342,119.323173 L281,119.323173 L265.587897,55.2416833 L256.646524,55.2416833 Z M376.909289,43.2600515 C403.72364,59.7930618 405.849888,96.3084156 378.208663,116.409702 C370.294295,120.929517 364.151801,121.762115 356.355558,122 C353.520561,122 351.158063,121.881057 348.44119,121.167402 C339.109324,118.788552 330.368082,113.317196 325.524961,105.348047 C325.406836,105.348047 325.288711,105.348047 325.170587,105.348047 C314.421221,120.334805 299.89186,118.431724 283,118.669609 L283,54.7974759 L300.128109,54.6785334 C308.987476,54.6785334 317.256219,55.8679586 323.162463,62.1719122 L323.753088,62.1719122 C333.321204,42.7842814 356.119308,30.4142592 376.909289,43.2600515 L376.909289,43.2600515 Z M297,112 C317.631952,111.175786 320.297879,94.5737645 318.559231,78.4427223 C316.125124,65.2553008 309.286444,59.2503143 297,60.0745281 L297,112 L297,112 Z M359.581722,115.810272 C393.542047,111.526852 396.479792,57.151227 365.457211,46.2047116 C362.284447,45.1338568 358.876663,44.7769053 355.58639,45.1338568 C320.803496,49.4172759 318.335791,107.005466 351.473548,115.215352 C354.293782,116.048239 356.761488,116.167223 359.581722,115.810272 L359.581722,115.810272 Z" fill="#FFFFFF" fill-rule="nonzero" mask="url(#mask-2)"></path>
        </g>
    </g>
</svg>