<svg width="39" height="26" viewBox="0 0 39 26" fill="none" xmlns="http://www.w3.org/2000/svg">
<path fill-rule="evenodd" clip-rule="evenodd" d="M39 22.75C39 24.5375 37.5375 26 35.75 26H3.25C1.4625 26 0 24.5375 0 22.75V3.25C0 1.4625 1.4625 0 3.25 0H35.75C37.5375 0 39 1.4625 39 3.25V22.75Z" fill="white"/>
<path d="M35.75 0H3.25C1.4625 0 0 1.4625 0 3.25V22.75C0 24.5375 1.4625 26 3.25 26H35.75C37.5375 26 39 24.5375 39 22.75V3.25C39 1.4625 37.5375 0 35.75 0ZM35.75 0.65C37.1839 0.65 38.35 1.8161 38.35 3.25V22.75C38.35 24.1839 37.1839 25.35 35.75 25.35H3.25C1.8161 25.35 0.65 24.1839 0.65 22.75V3.25C0.65 1.8161 1.8161 0.65 3.25 0.65H35.75Z" fill="#B3B3B3"/>
<path fill-rule="evenodd" clip-rule="evenodd" d="M23.0471 25.404C19.4882 25.404 15.9286 25.4033 12.3697 25.4061C12.2315 25.4061 12.1682 25.3854 12.1325 25.2245C11.9667 24.4742 11.779 23.728 11.5954 22.9819C11.4351 22.3327 11.2666 21.6855 11.1085 21.0363C10.9654 20.4497 10.8334 19.8604 10.691 19.2731C10.5631 18.7428 10.4256 18.2147 10.297 17.6851C10.1684 17.1549 10.0459 16.6233 9.91872 16.0931C9.80868 15.6358 9.69521 15.1798 9.5838 14.7232C9.45383 14.1902 9.32935 13.6552 9.19318 13.1243C9.07971 12.6834 8.99169 12.2426 9.00063 11.7839C9.01575 10.9807 9.26952 10.2654 9.76742 9.63413C10.33 8.9196 11.0651 8.46846 11.9351 8.23808C12.5678 8.07028 13.2073 7.93136 13.8435 7.77663C14.5085 7.61502 15.1728 7.44722 15.8385 7.28836C16.5035 7.12949 17.1706 6.98164 17.8356 6.82278C18.5006 6.66392 19.1629 6.49474 19.8279 6.33519C20.42 6.19283 21.0142 6.05942 21.607 5.91844C22.1524 5.78846 22.6957 5.64954 23.241 5.52026C23.9067 5.36208 24.5738 5.21147 25.2395 5.05261C25.7113 4.93983 26.1789 4.80848 26.6534 4.70532C27.1273 4.60285 27.6052 4.57259 28.0935 4.63449C28.764 4.71907 29.3747 4.94533 29.9228 5.33251C30.5342 5.7637 30.9915 6.32625 31.2817 7.02015C31.4818 7.49879 31.563 8.00976 31.6902 8.50835C31.8284 9.05095 31.9577 9.59631 32.0884 10.1403C32.2149 10.6698 32.336 11.2007 32.4632 11.7296C32.5925 12.2687 32.728 12.8072 32.8579 13.3464C32.9865 13.8814 33.1103 14.4178 33.2382 14.9536C33.3496 15.4212 33.4638 15.8888 33.5773 16.3558C33.6742 16.7554 33.7719 17.1542 33.8689 17.5538C33.9727 17.9822 34.0786 18.41 34.1804 18.8384C34.2904 19.3006 34.3957 19.7641 34.5064 20.2262C34.6357 20.7668 34.7725 21.3059 34.8997 21.8465C35.1363 22.8505 35.0827 23.8209 34.5456 24.7307C34.4142 24.9529 34.2347 25.1337 34.0408 25.3001C33.9569 25.3724 33.8613 25.4074 33.7416 25.4074C30.1759 25.4033 26.6115 25.404 23.0471 25.404V25.404Z" fill="#FF7900"/>
<path fill-rule="evenodd" clip-rule="evenodd" d="M12.0237 17.2375C12.0237 16.2569 12.0258 15.2762 12.021 14.2948C12.0203 14.1731 12.0492 14.1291 12.1785 14.1325C12.5485 14.1408 12.9191 14.1401 13.2891 14.1332C13.4088 14.1311 13.4432 14.1676 13.4425 14.2859C13.4377 14.9715 13.4432 15.6572 13.4377 16.3428C13.4363 16.4728 13.4693 16.5148 13.6048 16.5134C14.2705 16.5065 14.9362 16.5072 15.6012 16.5127C15.7215 16.5134 15.7532 16.4783 15.7525 16.3607C15.747 15.6702 15.7525 14.9798 15.7477 14.2893C15.747 14.1752 15.7724 14.1311 15.8955 14.1332C16.271 14.1408 16.6465 14.1428 17.0213 14.1325C17.165 14.1284 17.1678 14.1979 17.1678 14.3058C17.1657 16.0224 17.1657 17.7389 17.1657 19.4554C17.1657 19.7153 17.1616 19.976 17.1678 20.2359C17.1705 20.3364 17.1348 20.3645 17.0385 20.3639C16.6534 20.3597 16.2676 20.359 15.8825 20.3639C15.7786 20.3652 15.747 20.3329 15.747 20.2277C15.7511 19.4568 15.7463 18.6865 15.7518 17.9156C15.7525 17.7836 15.7154 17.7458 15.5826 17.7471C14.9224 17.754 14.2615 17.7526 13.6013 17.7478C13.4775 17.7471 13.437 17.7843 13.4377 17.9101C13.4425 18.6755 13.437 19.4416 13.4425 20.2071C13.4432 20.3357 13.4033 20.3666 13.2815 20.3645C12.9116 20.357 12.5409 20.3577 12.1709 20.3639C12.054 20.3659 12.021 20.3288 12.021 20.2105C12.0258 19.2195 12.0237 18.2285 12.0237 17.2375V17.2375Z" fill="white"/>
<path fill-rule="evenodd" clip-rule="evenodd" d="M22.8395 15.7944C22.2762 15.8164 21.7907 16.0186 21.429 16.522C21.4222 16.4682 21.4149 16.4177 21.408 16.3696C21.3915 16.2558 21.377 16.1551 21.376 16.055C21.374 15.9374 21.3368 15.8975 21.2185 15.9003C21.0466 15.9045 20.8749 15.9038 20.7031 15.9031C20.5946 15.9027 20.4861 15.9022 20.3775 15.903C20.2518 15.9041 20.1944 15.8926 20.1682 15.9161C20.1423 15.9393 20.1471 15.9968 20.1464 16.1348C20.1464 16.1451 20.1464 16.1547 20.1471 16.1651C20.1898 16.9739 20.1904 17.7837 20.1911 18.5933C20.1913 18.8141 20.1914 19.0349 20.1925 19.2556C20.1932 19.3794 20.1381 19.3925 20.046 19.3657C19.9153 19.3278 19.795 19.2687 19.6953 19.1724C19.4243 18.9111 19.3404 18.572 19.3349 18.2172C19.3244 17.5619 19.3283 16.9072 19.3322 16.252C19.3326 16.1763 19.3331 16.1005 19.3335 16.0248C19.3342 15.914 19.3046 15.8783 19.1905 15.8803C18.8102 15.8872 18.4299 15.8865 18.0496 15.8803C17.9402 15.8783 17.9155 15.9175 17.9162 16.0186C17.9188 16.5048 17.9186 16.9914 17.9184 17.4781C17.9183 17.6172 17.9182 17.7563 17.9182 17.8953L17.9182 17.9167C17.9182 18.1901 17.9181 18.4622 17.9684 18.733C18.0853 19.3636 18.3714 19.8773 18.9532 20.1909C19.2654 20.3594 19.6031 20.4426 19.9559 20.4646C20.0726 20.4718 20.1311 20.4749 20.1604 20.5057C20.1897 20.5367 20.1897 20.5955 20.1897 20.7143C20.1897 20.8358 20.19 20.9573 20.1903 21.0788C20.1911 21.4027 20.192 21.7264 20.187 22.0505C20.1849 22.1653 20.22 22.1935 20.3307 22.1915C20.7014 22.1846 21.072 22.1853 21.442 22.1908C21.5486 22.1928 21.5789 22.1578 21.5775 22.0539C21.5735 21.6871 21.5743 21.3198 21.575 20.9528C21.5752 20.8795 21.5753 20.8061 21.5754 20.7328C21.5758 20.593 21.5694 20.5301 21.5977 20.5019C21.6265 20.4731 21.6915 20.4805 21.8368 20.4791C21.9335 20.4781 22.0303 20.4789 22.1271 20.4798C22.3603 20.482 22.5937 20.4841 22.8264 20.4598C23.3566 20.4048 23.8415 20.2411 24.2197 19.8443C24.5305 19.5176 24.6873 19.1174 24.7506 18.678C24.8393 18.0645 24.8139 17.4635 24.5512 16.8878C24.2328 16.1898 23.5849 15.7648 22.8395 15.7944ZM21.5744 18.7525C21.5742 18.6713 21.574 18.5871 21.574 18.4987C21.5783 18.4096 21.5766 18.3137 21.5748 18.2137C21.572 18.0554 21.5689 17.8868 21.5892 17.7182C21.6421 17.2739 21.9241 16.9583 22.3168 16.8998C22.7335 16.8379 23.0732 17.0284 23.2493 17.461C23.4439 17.9403 23.4343 18.4279 23.2142 18.8997C23.0519 19.249 22.7535 19.401 22.38 19.4086C22.2475 19.4114 22.1145 19.4065 21.9814 19.4017C21.8846 19.3982 21.7877 19.3947 21.691 19.3941C21.5947 19.3934 21.5727 19.3487 21.5734 19.2642C21.5753 19.0987 21.5749 18.9329 21.5744 18.7525Z" fill="white"/>
<path fill-rule="evenodd" clip-rule="evenodd" d="M27.5876 18.5733C27.6964 18.5732 27.8052 18.5731 27.914 18.5731C28.023 18.5731 28.1319 18.5732 28.2408 18.5732C28.5671 18.5734 28.8933 18.5735 29.2186 18.5725C29.224 18.5725 29.2293 18.5725 29.2346 18.5726C29.2976 18.5733 29.3526 18.5738 29.3679 18.4755C29.4394 18.0127 29.4036 17.5581 29.2661 17.1138C29.1244 16.6558 28.8631 16.281 28.4429 16.0328C28.0736 15.8147 27.6678 15.759 27.2463 15.7824C26.4141 15.8278 25.798 16.2143 25.4135 16.955C25.1192 17.523 25.0738 18.1282 25.188 18.7471C25.2946 19.3228 25.58 19.7863 26.0861 20.0992C26.5022 20.3557 26.9602 20.4506 27.443 20.4595C27.9814 20.4699 28.5075 20.4004 29.0199 20.2305C29.1045 20.2023 29.1595 20.1666 29.1368 20.0607C29.0859 19.822 29.0405 19.582 28.9951 19.342C28.9786 19.2547 28.9477 19.2354 28.8514 19.2602C28.3466 19.3908 27.8343 19.4775 27.313 19.3681C26.9347 19.2884 26.6225 19.1206 26.4939 18.7148C26.4527 18.5835 26.5015 18.5711 26.6081 18.5718C26.9346 18.5738 27.2611 18.5736 27.5876 18.5733ZM27.487 17.6068C27.4199 17.6069 27.3527 17.607 27.2855 17.607H26.5655C26.5627 17.607 26.5598 17.607 26.557 17.607C26.502 17.6073 26.4481 17.6075 26.4658 17.5231C26.5387 17.1738 26.6893 16.8643 27.0483 16.7494C27.5785 16.5796 28.0496 16.8657 28.0991 17.5101C28.106 17.5967 28.0606 17.6084 27.9904 17.6077C27.8225 17.6062 27.6548 17.6065 27.487 17.6068Z" fill="white"/>
<path fill-rule="evenodd" clip-rule="evenodd" d="M29.8961 18.4411C29.8961 18.0361 29.8995 17.631 29.8954 17.2253C29.8913 16.8154 29.883 16.4062 29.8686 15.9963C29.8644 15.8925 29.8981 15.8705 29.993 15.8725C30.308 15.8774 30.6237 15.8801 30.9386 15.8712C31.0473 15.8684 31.0782 15.9111 31.081 16.0053C31.0858 16.1848 31.0927 16.3649 31.0996 16.5444C31.1009 16.5781 31.0947 16.6249 31.1353 16.6338C31.1814 16.6442 31.1841 16.5946 31.1979 16.5651C31.3856 16.1738 31.6814 15.9104 32.1071 15.8038C32.2645 15.7646 32.4255 15.7811 32.585 15.7838C32.6689 15.7852 32.66 15.8499 32.66 15.9028C32.6607 16.2632 32.6579 16.6228 32.6627 16.9832C32.6641 17.0864 32.629 17.1159 32.53 17.0974C32.2838 17.0499 32.0417 17.0657 31.8113 17.1696C31.4207 17.3449 31.3011 17.6785 31.2997 18.0739C31.2976 18.7843 31.2949 19.4947 31.3024 20.2051C31.3038 20.342 31.2612 20.3729 31.1326 20.3702C30.7674 20.3619 30.4022 20.3633 30.037 20.3695C29.9256 20.3715 29.8919 20.3385 29.8926 20.2257C29.8988 19.6316 29.8961 19.036 29.8961 18.4411V18.4411Z" fill="white"/>
<path fill-rule="evenodd" clip-rule="evenodd" d="M18.6258 15.3349C18.1657 15.3583 17.8721 15.0261 17.8769 14.6279C17.8824 14.2132 18.1836 13.9244 18.623 13.9237C19.0824 13.923 19.3823 14.2077 19.3809 14.6444C19.3802 15.055 19.0742 15.3349 18.6258 15.3349V15.3349Z" fill="#FFE701"/>
</svg>
