<svg width="39" height="26" viewBox="0 0 39 26" fill="none" xmlns="http://www.w3.org/2000/svg">
<path fill-rule="evenodd" clip-rule="evenodd" d="M39 22.75C39 24.5375 37.5375 26 35.75 26H3.25C1.4625 26 0 24.5375 0 22.75V3.25C0 1.4625 1.4625 0 3.25 0H35.75C37.5375 0 39 1.4625 39 3.25V22.75Z" fill="white"/>
<path d="M35.75 0H3.25C1.4625 0 0 1.4625 0 3.25V22.75C0 24.5375 1.4625 26 3.25 26H35.75C37.5375 26 39 24.5375 39 22.75V3.25C39 1.4625 37.5375 0 35.75 0ZM35.75 0.65C37.1839 0.65 38.35 1.8161 38.35 3.25V22.75C38.35 24.1839 37.1839 25.35 35.75 25.35H3.25C1.8161 25.35 0.65 24.1839 0.65 22.75V3.25C0.65 1.8161 1.8161 0.65 3.25 0.65H35.75Z" fill="#B3B3B3"/>
<path d="M16.0813 16.7106C16.3515 16.7116 16.6192 16.6588 16.8688 16.5555C17.1184 16.4521 17.3451 16.3002 17.5355 16.1085L19.6347 14.0094C19.7092 13.9384 19.8081 13.8987 19.9111 13.8987C20.014 13.8987 20.113 13.9384 20.1875 14.0094L22.2948 16.1172C22.4856 16.3086 22.7124 16.4603 22.9622 16.5635C23.2119 16.6667 23.4797 16.7194 23.7499 16.7184H24.1639L21.5037 19.3773C21.3064 19.575 21.072 19.7319 20.814 19.839C20.5559 19.946 20.2793 20.0012 20 20.0012C19.7206 20.0012 19.444 19.946 19.1859 19.839C18.9279 19.7319 18.6935 19.575 18.4962 19.3773L15.8252 16.7106H16.0813ZM23.7499 9.28252C23.4798 9.2817 23.2122 9.33446 22.9626 9.43773C22.7129 9.54101 22.4863 9.69275 22.2957 9.88419L20.1914 11.9929C20.1181 12.066 20.0187 12.1071 19.9152 12.1071C19.8116 12.1071 19.7123 12.066 19.639 11.9929L17.5399 9.89327C17.3494 9.70158 17.1228 9.54964 16.8732 9.44628C16.6235 9.34292 16.3558 9.29019 16.0856 9.29117H15.8252L18.4962 6.62279C18.8951 6.22402 19.436 6 20 6C20.564 6 21.1049 6.22402 21.5037 6.62279L24.1639 9.28208L23.7499 9.28252Z" fill="#4AB7A8"/>
<path d="M13.6231 11.4967L15.2115 9.90798H16.0813C16.4628 9.90841 16.8283 10.0594 17.0991 10.3275L19.1982 12.4267C19.2918 12.5208 19.403 12.5954 19.5255 12.6463C19.6479 12.6973 19.7793 12.7235 19.9119 12.7235C20.0446 12.7235 20.1759 12.6973 20.2984 12.6463C20.4209 12.5954 20.5321 12.5208 20.6256 12.4267L22.733 10.3193C23.0038 10.0509 23.3695 9.90009 23.7508 9.89976H24.782L26.3772 11.495C26.776 11.8938 27 12.4347 27 12.9987C27 13.5627 26.776 14.1036 26.3772 14.5025L24.782 16.0977H23.7499C23.3689 16.0977 23.0029 15.9463 22.7321 15.6782L20.6252 13.5699C20.433 13.3863 20.1773 13.2839 19.9115 13.2839C19.6457 13.2839 19.3901 13.3863 19.1978 13.5699L17.0987 15.6691C16.8279 15.9372 16.4624 16.0886 16.0809 16.0886H15.2115L13.6231 14.5042C13.4256 14.3068 13.2689 14.0724 13.162 13.8143C13.055 13.5563 13 13.2798 13 13.0005C13 12.7212 13.055 12.4446 13.162 12.1866C13.2689 11.9286 13.4256 11.6942 13.6231 11.4967Z" fill="#4AB7A8"/>
</svg>
