<svg width="39" height="26" viewBox="0 0 39 26" fill="none" xmlns="http://www.w3.org/2000/svg">
<path fill-rule="evenodd" clip-rule="evenodd" d="M38.5 22.75C38.5 24.5375 37.5375 25.5 35.75 25.5H3.25001C1.46251 25.5 0.5 24.5375 0.5 22.75L0.500013 3.25C0.500013 1.4625 1.46251 0.5 3.25001 0.5H35.75C37.5375 0.5 38.5 1.4625 38.5 3.25V22.75Z" fill="#152884"/>
<path fill-rule="evenodd" clip-rule="evenodd" d="M0.5 15.2555V22.7526C0.5 24.5401 1.46256 25.5 3.25006 25.5H35.5C37.2875 25.5 38.5 24.5401 38.5 22.7526V16.1447C31.3942 13.7761 19.8791 10.3278 0.5 15.2555Z" fill="#FFED00"/>
<path fill-rule="evenodd" clip-rule="evenodd" d="M0.500006 12.759L0.5 16.5544C19.8791 11.6274 31.3942 15.0756 38.5 17.4429V13.4792C33.5477 11.6423 19.6691 7.53042 0.500006 12.759Z" fill="#EB212E"/>
<path fill-rule="evenodd" clip-rule="evenodd" d="M12.4202 10.5033C13.3946 7.81038 15.6247 5.48468 19.5 5.51003C23.3746 5.53603 25.959 7.74928 26.6565 10.645C21.6632 10.1263 18.3346 10.0353 12.4202 10.5033Z" fill="#FFED00"/>
<path fill-rule="evenodd" clip-rule="evenodd" d="M11.2244 17.759L8.58731 21.6928H9.54476L10.3014 20.502H13.1763L13.9765 21.6928H15.0054L12.1955 17.759H11.2244ZM10.5678 20.0759H10.569L10.5665 20.0798L10.5678 20.0759ZM10.569 20.0759L11.3231 18.9287C11.4758 18.6921 11.6006 18.4379 11.6936 18.1721C11.8392 18.4535 12.0017 18.7259 12.1791 18.9878L12.896 20.0759H10.569ZM22.4238 21.6892V18.8429H23.1804V19.2738C23.3292 19.1042 23.5125 18.9683 23.7173 18.8741C23.8895 18.8084 24.0728 18.7753 24.2574 18.7772C24.5532 18.7779 24.8463 18.8292 25.1245 18.9287L24.834 19.3824C24.6357 19.3128 24.4271 19.2771 24.2165 19.2764C24.0455 19.2738 23.8765 19.3063 23.7186 19.372C23.5873 19.4227 23.4768 19.5156 23.4053 19.6365C23.311 19.8088 23.2623 20.0025 23.2649 20.1994V21.6899L22.4238 21.6892ZM28.6982 21.6617C29.0128 21.5902 29.3176 21.4823 29.6062 21.3393L29.5913 21.3471C29.614 21.4771 29.6719 21.5987 29.759 21.6981H30.6397C30.5422 21.6032 30.4688 21.4856 30.4265 21.3562C30.3771 21.0761 30.3583 20.7907 30.3719 20.506V19.8632C30.3791 19.7137 30.3648 19.5642 30.331 19.4186C30.279 19.2853 30.188 19.1703 30.069 19.0903C29.8883 18.9824 29.6894 18.909 29.4821 18.8739C29.1408 18.8095 28.7944 18.7809 28.4473 18.7874C28.0683 18.7829 27.6901 18.8167 27.3183 18.8875C27.0531 18.9304 26.7996 19.0286 26.574 19.1748C26.4044 19.297 26.2757 19.4673 26.2048 19.6636L27.0277 19.7286C27.107 19.5388 27.2572 19.3874 27.447 19.3068C27.7297 19.2132 28.028 19.1722 28.3257 19.1872C28.654 19.1683 28.9816 19.2242 29.2851 19.3503C29.4424 19.4264 29.5373 19.5908 29.5243 19.765V19.8905C29.0264 19.9756 28.5246 20.0309 28.0203 20.0569C27.6875 20.0796 27.4379 20.1056 27.2728 20.1297C27.066 20.1589 26.8633 20.2096 26.6676 20.2811C26.5045 20.3403 26.3563 20.4352 26.2334 20.558C26.1288 20.6581 26.0683 20.7959 26.067 20.9409C26.067 21.1788 26.212 21.3731 26.5071 21.5265C26.8022 21.6799 27.2214 21.7553 27.7674 21.7553C28.08 21.7573 28.392 21.7261 28.6982 21.6617ZM28.1588 20.4481C28.6209 20.4182 29.0811 20.3571 29.5355 20.2648L29.5361 20.437C29.5485 20.6093 29.5004 20.7802 29.3996 20.92C29.2482 21.0812 29.0551 21.1969 28.8413 21.2541C28.5605 21.3392 28.268 21.3802 27.9742 21.375C27.7187 21.388 27.4639 21.3444 27.228 21.2463C27.059 21.1598 26.9725 21.0526 26.9725 20.9239C26.9764 20.8335 27.0193 20.7497 27.0908 20.6951C27.1877 20.6184 27.3021 20.5664 27.4236 20.5436C27.6661 20.4942 27.9118 20.4624 28.1588 20.4481ZM19.6249 21.2728V21.6901V21.6908H20.3802V18.8444H19.5371V20.3726C19.5501 20.5682 19.5014 20.7632 19.398 20.9296C19.2771 21.0778 19.112 21.1838 18.9274 21.2325C18.698 21.3079 18.4575 21.345 18.2163 21.343C17.9986 21.3495 17.7815 21.3131 17.578 21.2358C17.4298 21.1831 17.3089 21.0746 17.2407 20.9329C17.1971 20.7671 17.1802 20.5949 17.1893 20.4233V18.8451H16.3463V20.6079C16.3398 20.7606 16.3567 20.914 16.3976 21.0616C16.4477 21.2033 16.538 21.3274 16.6576 21.4184C16.8279 21.5361 17.021 21.6186 17.2238 21.6602C17.4929 21.7259 17.7685 21.7577 18.0454 21.7558C18.7097 21.7558 19.2368 21.5946 19.6249 21.2728Z" fill="#152884"/>
<path d="M35.75 0H3.25C1.4625 0 0 1.4625 0 3.25V22.75C0 24.5375 1.4625 26 3.25 26H35.75C37.5375 26 39 24.5375 39 22.75V3.25C39 1.4625 37.5375 0 35.75 0ZM35.75 0.65C37.1839 0.65 38.35 1.8161 38.35 3.25V22.75C38.35 24.1839 37.1839 25.35 35.75 25.35H3.25C1.8161 25.35 0.65 24.1839 0.65 22.75V3.25C0.65 1.8161 1.8161 0.65 3.25 0.65H35.75Z" fill="#B3B3B3"/>
</svg>
