<svg width="39" height="26" viewBox="0 0 39 26" fill="none" xmlns="http://www.w3.org/2000/svg">
<path fill-rule="evenodd" clip-rule="evenodd" d="M39 22.75C39 24.5375 37.5375 26 35.75 26H3.25C1.4625 26 0 24.5375 0 22.75V3.25C0 1.4625 1.4625 0 3.25 0H35.75C37.5375 0 39 1.4625 39 3.25V22.75Z" fill="white"/>
<g clip-path="url(#clip0)">
<path d="M27.3234 21.0805C29.3941 21.0805 31.0728 19.4018 31.0728 17.3311C31.0728 15.2603 29.3941 13.5817 27.3234 13.5817C25.2526 13.5817 23.574 15.2603 23.574 17.3311C23.574 19.4018 25.2526 21.0805 27.3234 21.0805Z" fill="#773CBC"/>
<path fill-rule="evenodd" clip-rule="evenodd" d="M27.8797 16.9914H26.0821V17.6179L24.8692 16.4046L26.0821 15.1914V15.8179H27.8797V16.9914ZM26.7671 17.6712H28.5643V17.045L29.7776 18.258L28.5643 19.4712V18.8447H26.7671V17.6712Z" fill="white"/>
<path fill-rule="evenodd" clip-rule="evenodd" d="M19.2458 8.69409C21.5819 8.69409 23.4825 10.5947 23.4825 12.9305C23.4825 15.2666 21.5819 17.1672 19.2458 17.1672C16.91 17.1672 15.0094 15.2666 15.0094 12.9305C15.0094 10.5947 16.9097 8.69409 19.2458 8.69409ZM12.6136 13.924C12.0651 13.924 11.6204 13.4793 11.6204 12.9308C11.6204 12.3822 12.0651 11.9375 12.6136 11.9375C13.1622 11.9375 13.6069 12.3822 13.6069 12.9308C13.6069 13.4793 13.1622 13.924 12.6136 13.924ZM22.6875 18.4952C22.7912 18.9081 22.9449 19.3007 23.148 19.6633H10.5702C9.76496 19.6633 9.11012 19.0081 9.11012 18.2032V7.65835C9.11012 6.85314 9.76526 6.1983 10.5702 6.1983H27.9214C28.7266 6.1983 29.3814 6.85344 29.3814 7.65835V13.017C29.0147 12.8416 28.6241 12.7099 28.2134 12.6324V7.65835C28.2134 7.50014 28.0796 7.36634 27.9214 7.36634H10.5702C10.412 7.36634 10.2782 7.50014 10.2782 7.65835V18.2032C10.2782 18.3614 10.412 18.4952 10.5702 18.4952H22.6875ZM26.7988 12.5767C26.1217 12.6505 25.4889 12.8681 24.9269 13.1945C24.9024 13.1101 24.8847 13.023 24.8847 12.9308C24.8847 12.3823 25.3292 11.9375 25.8779 11.9375C26.3007 11.9375 26.6557 12.2042 26.7988 12.5767Z" fill="#93C649"/>
<path fill-rule="evenodd" clip-rule="evenodd" d="M20.7841 13.4193C20.7364 13.2972 20.6596 13.1881 20.5565 13.095C20.4562 13.0046 20.326 12.9227 20.1693 12.8512C20.0153 12.7813 19.8255 12.7162 19.6049 12.6584C19.3918 12.6014 19.2113 12.5499 19.0627 12.5038C18.9187 12.4598 18.7991 12.4107 18.7068 12.3582C18.6195 12.3085 18.5562 12.2534 18.5188 12.1943C18.4817 12.1364 18.4637 12.0659 18.4637 11.9791C18.4637 11.8932 18.4832 11.8176 18.5221 11.7543C18.5625 11.6889 18.617 11.6335 18.6842 11.5895C18.7545 11.544 18.8352 11.5096 18.925 11.4867C19.1348 11.4328 19.3882 11.4418 19.563 11.5075C19.6636 11.5452 19.7495 11.5901 19.8185 11.6416C19.8875 11.6928 19.9424 11.7459 19.9819 11.7992C20.0237 11.8559 20.0536 11.9014 20.0705 11.9351C20.1036 12.002 20.1365 12.0439 20.1732 12.0665C20.2094 12.0888 20.254 12.0997 20.31 12.0997H20.5451C20.5966 12.0997 20.6445 12.0807 20.6837 12.0439C20.7265 12.0044 20.7458 11.9535 20.7404 11.9017C20.7361 11.8086 20.7048 11.7028 20.6469 11.5874C20.5903 11.4744 20.5092 11.3644 20.4047 11.2595C20.3004 11.1552 20.1711 11.0624 20.021 10.9835C19.8848 10.9117 19.7299 10.8608 19.5591 10.831V10.5052C19.5591 10.4456 19.5365 10.391 19.4928 10.3473C19.4494 10.3042 19.3951 10.2816 19.3355 10.2816H19.1004C19.0404 10.2816 18.9859 10.3045 18.9428 10.3476C18.8994 10.391 18.8765 10.4456 18.8765 10.5052V10.8237C18.7111 10.85 18.5622 10.8955 18.4326 10.9597C18.288 11.032 18.1665 11.1221 18.0713 11.2276C17.9761 11.3333 17.9031 11.4527 17.8543 11.5822C17.8058 11.7118 17.7811 11.845 17.7811 11.9791C17.7811 12.1162 17.8004 12.2449 17.839 12.3621C17.8778 12.4815 17.9438 12.5921 18.0342 12.6909C18.1231 12.788 18.2391 12.8747 18.3796 12.9489C18.5182 13.0221 18.6873 13.0848 18.8825 13.1357C19.092 13.1891 19.2797 13.2397 19.4452 13.287C19.607 13.3334 19.745 13.3852 19.8553 13.4401C19.9605 13.4928 20.0421 13.5519 20.0976 13.6155C20.1482 13.6742 20.1726 13.7426 20.1726 13.8258C20.1726 13.912 20.15 13.9876 20.1036 14.0569C20.0557 14.1287 19.9894 14.1913 19.9065 14.2432C19.8218 14.2965 19.7215 14.3378 19.6079 14.367C19.359 14.4294 19.0567 14.4231 18.8581 14.3568C18.7499 14.3209 18.6577 14.2766 18.5827 14.2248C18.5086 14.1736 18.4495 14.119 18.4064 14.0621C18.3624 14.0045 18.3299 13.9503 18.3085 13.9017C18.2792 13.833 18.244 13.7884 18.2003 13.7649C18.1614 13.7441 18.1168 13.7336 18.0677 13.7336H17.8326C17.7805 13.7336 17.7329 13.7535 17.6955 13.7908C17.6575 13.8282 17.6376 13.8758 17.6376 13.931C17.6419 14.0485 17.6774 14.1696 17.7437 14.2914C17.8082 14.4107 17.8992 14.5222 18.014 14.6229C18.1276 14.7223 18.263 14.8103 18.4163 14.8854C18.5544 14.9526 18.7093 15.0017 18.8765 15.0312V15.357C18.8765 15.4166 18.8994 15.4715 18.9428 15.5146C18.9859 15.5577 19.0404 15.5806 19.1004 15.5806H19.3355C19.3951 15.5806 19.4497 15.558 19.4934 15.5143C19.5365 15.4709 19.5591 15.4166 19.5591 15.357V15.0457C19.736 15.0237 19.9005 14.9821 20.0494 14.9218C20.2169 14.854 20.3616 14.7669 20.4791 14.663C20.5987 14.5578 20.6921 14.4321 20.7569 14.2902C20.8217 14.1483 20.8549 13.9922 20.8549 13.8258C20.8546 13.6766 20.8311 13.5401 20.7841 13.4193Z" fill="white"/>
</g>
<path d="M35.75 0H3.25C1.4625 0 0 1.4625 0 3.25V22.75C0 24.5375 1.4625 26 3.25 26H35.75C37.5375 26 39 24.5375 39 22.75V3.25C39 1.4625 37.5375 0 35.75 0ZM35.75 0.65C37.1839 0.65 38.35 1.8161 38.35 3.25V22.75C38.35 24.1839 37.1839 25.35 35.75 25.35H3.25C1.8161 25.35 0.65 24.1839 0.65 22.75V3.25C0.65 1.8161 1.8161 0.65 3.25 0.65H35.75Z" fill="#B3B3B3"/>
<defs>
<clipPath id="clip0">
<rect width="22.3" height="15.2988" fill="white" transform="translate(9 6)"/>
</clipPath>
</defs>
</svg>
