<svg width="39" height="26" viewBox="0 0 39 26" fill="none" xmlns="http://www.w3.org/2000/svg">
<path fill-rule="evenodd" clip-rule="evenodd" d="M9 6H10.2389V19.46H9V6Z" fill="black"/>
<path fill-rule="evenodd" clip-rule="evenodd" d="M16.6214 6H17.8603V19.46H16.6214V6Z" fill="black"/>
<path fill-rule="evenodd" clip-rule="evenodd" d="M22.9595 6H24.1984V19.46H22.9595V6Z" fill="black"/>
<path fill-rule="evenodd" clip-rule="evenodd" d="M25.4806 6H26.7195V19.46H25.4806V6Z" fill="black"/>
<path fill-rule="evenodd" clip-rule="evenodd" d="M28.0311 6H29.27V19.46H28.0311V6Z" fill="black"/>
<path fill-rule="evenodd" clip-rule="evenodd" d="M19.1425 6H21.6623V19.46H19.1425V6Z" fill="black"/>
<path fill-rule="evenodd" clip-rule="evenodd" d="M11.5354 6H15.3229V19.46H11.5354V6Z" fill="black"/>
<path d="M35.75 0H3.25C1.4625 0 0 1.4625 0 3.25V22.75C0 24.5375 1.4625 26 3.25 26H35.75C37.5375 26 39 24.5375 39 22.75V3.25C39 1.4625 37.5375 0 35.75 0ZM35.75 0.65C37.1839 0.65 38.35 1.8161 38.35 3.25V22.75C38.35 24.1839 37.1839 25.35 35.75 25.35H3.25C1.8161 25.35 0.65 24.1839 0.65 22.75V3.25C0.65 1.8161 1.8161 0.65 3.25 0.65H35.75Z" fill="#B3B3B3"/>
</svg>
