<svg width="39" height="26" viewBox="0 0 39 26" fill="none" xmlns="http://www.w3.org/2000/svg">
<path fill-rule="evenodd" clip-rule="evenodd" d="M39 22.75C39 24.5375 37.5375 26 35.75 26H3.25C1.4625 26 0 24.5375 0 22.75V3.25C0 1.4625 1.4625 0 3.25 0H35.75C37.5375 0 39 1.4625 39 3.25V22.75Z" fill="white"/>
<path d="M35.75 0H3.25C1.4625 0 0 1.4625 0 3.25V22.75C0 24.5375 1.4625 26 3.25 26H35.75C37.5375 26 39 24.5375 39 22.75V3.25C39 1.4625 37.5375 0 35.75 0ZM35.75 0.65C37.1839 0.65 38.35 1.8161 38.35 3.25V22.75C38.35 24.1839 37.1839 25.35 35.75 25.35H3.25C1.8161 25.35 0.65 24.1839 0.65 22.75V3.25C0.65 1.8161 1.8161 0.65 3.25 0.65H35.75Z" fill="#B3B3B3"/>
<path fill-rule="evenodd" clip-rule="evenodd" d="M24.9729 16.0291C24.8546 16.3114 24.7371 16.5936 24.6181 16.8802C24.6277 16.8823 24.6356 16.8844 24.6423 16.8861C24.6543 16.8893 24.6627 16.8915 24.6711 16.8911C24.7714 16.8912 24.8717 16.8913 24.972 16.8915C25.524 16.8923 26.0759 16.8931 26.6278 16.8882C26.6692 16.8882 26.7316 16.8367 26.7476 16.7946C26.8658 16.4862 26.979 16.1764 27.0842 15.8637C27.1176 15.7643 27.1662 15.7317 27.2707 15.7324C28.0281 15.7368 28.7863 15.7382 29.5438 15.7317C29.6685 15.7309 29.7179 15.765 29.7404 15.8898C29.7833 16.1272 29.8336 16.3626 29.8841 16.5994C29.9045 16.6949 29.925 16.7906 29.945 16.8867H31.79C31.7873 16.8693 31.7849 16.8525 31.7825 16.8361C31.7773 16.7998 31.7723 16.7656 31.7653 16.7322C31.7035 16.4368 31.6417 16.1415 31.5799 15.8461C31.1214 13.6558 30.6629 11.4653 30.2083 9.27372C30.1858 9.16634 30.1423 9.14602 30.0451 9.14675C29.535 9.15037 29.0257 9.15037 28.5157 9.1482C28.0702 9.14675 27.7669 9.35425 27.5964 9.762C27.0836 10.9876 26.5706 12.213 26.0575 13.4383C25.6959 14.3019 25.3344 15.1655 24.9729 16.0291ZM29.0433 12.5748C29.1513 13.0926 29.2598 13.6126 29.3695 14.1376C28.8087 14.1376 28.2733 14.1376 27.7117 14.1369C28.0599 13.1777 28.4031 12.2309 28.7463 11.2841C28.7557 11.2855 28.7652 11.2863 28.7746 11.287C28.8642 11.7157 28.9536 12.1445 29.0433 12.5748Z" fill="#152884"/>
<path fill-rule="evenodd" clip-rule="evenodd" d="M25.081 9.35189C24.965 9.89459 24.8496 10.4308 24.7342 10.9713C24.5144 10.898 24.3055 10.8182 24.0907 10.7587C23.6169 10.6274 23.1337 10.5708 22.6476 10.6651C22.4728 10.6992 22.2928 10.7732 22.147 10.8748C21.8241 11.099 21.814 11.469 22.1281 11.7062C22.3683 11.8876 22.6396 12.0269 22.8979 12.1836C23.2193 12.3781 23.5589 12.5471 23.8607 12.7684C24.6283 13.3314 24.8837 14.1136 24.6232 15.0299C24.378 15.8926 23.7722 16.4099 22.9647 16.7211C22.2246 17.0062 21.4534 17.0469 20.6734 16.9838C20.183 16.9439 19.7005 16.8582 19.234 16.6957C19.1571 16.6689 19.0816 16.6377 18.9953 16.6043C19.1164 16.0355 19.2362 15.4776 19.3522 14.9312C19.6838 15.048 20.0016 15.1815 20.331 15.2715C20.8222 15.405 21.3279 15.4536 21.8292 15.3412C22.0244 15.2976 22.2239 15.2084 22.385 15.0908C22.6861 14.8703 22.7086 14.464 22.4271 14.2188C22.2152 14.0345 21.9627 13.8952 21.7218 13.7464C21.3598 13.523 20.9702 13.338 20.6306 13.0847C19.4974 12.2395 19.6998 10.9626 20.2882 10.1979C20.725 9.63049 21.3242 9.31634 22.0041 9.14801C23.0068 8.89988 23.9964 8.97098 24.97 9.30691C25.0056 9.31996 25.0382 9.33448 25.081 9.35189V9.35189Z" fill="#152884"/>
<path fill-rule="evenodd" clip-rule="evenodd" d="M19.2688 9.16081C19.2159 9.41474 19.1651 9.66432 19.1114 9.91318C18.6274 12.1761 18.1413 14.439 17.6625 16.7027C17.6313 16.85 17.5812 16.9001 17.426 16.8964C16.8796 16.8855 16.3333 16.8921 15.787 16.8921C15.7369 16.8921 15.6876 16.8921 15.6172 16.8921C15.6687 16.6497 15.7166 16.4227 15.7652 16.1963C16.26 13.884 16.7556 11.5717 17.2489 9.25875C17.2642 9.18692 17.2801 9.14557 17.3672 9.14557C17.9781 9.1492 18.5883 9.14775 19.1992 9.14847C19.2166 9.14992 19.234 9.155 19.2688 9.16081V9.16081Z" fill="#152884"/>
<path fill-rule="evenodd" clip-rule="evenodd" d="M7.04281 9.14396H7.19154C8.25227 9.14396 9.31299 9.14323 10.3737 9.14396C10.9338 9.14396 11.277 9.42982 11.3808 9.97832C11.655 11.4287 11.9293 12.879 12.2035 14.3293C12.205 14.338 12.2093 14.3467 12.2231 14.3845C12.2528 14.3192 12.2753 14.2749 12.2935 14.2285C12.9465 12.5794 13.6002 10.9302 14.2481 9.27963C14.2909 9.17008 14.3453 9.13961 14.457 9.14033C15.0541 9.14541 15.6512 9.14251 16.2476 9.14251H16.4036C16.3739 9.22014 16.3514 9.28326 16.3253 9.34493C15.2892 11.8183 14.2524 14.2909 13.2178 16.7649C13.1815 16.852 13.1409 16.8905 13.0393 16.889C12.4146 16.8839 11.79 16.8839 11.166 16.889C11.0681 16.8897 11.0347 16.8585 11.0107 16.7657C10.4855 14.724 9.95436 12.6838 9.43053 10.6415C9.35145 10.3346 9.18385 10.122 8.89727 9.98558C8.32264 9.71133 7.7161 9.5372 7.10012 9.38919C7.06965 9.38193 7.0399 9.3725 7 9.36162C7.00726 9.32244 7.01306 9.28762 7.01959 9.25279C7.02684 9.22304 7.03337 9.19185 7.04281 9.14396V9.14396Z" fill="#152884"/>
</svg>
