<svg width="39" height="26" viewBox="0 0 39 26" fill="none" xmlns="http://www.w3.org/2000/svg">
<path fill-rule="evenodd" clip-rule="evenodd" d="M39 22.75C39 24.5375 37.5375 26 35.75 26H3.25C1.4625 26 0 24.5375 0 22.75V3.25C0 1.4625 1.4625 0 3.25 0H35.75C37.5375 0 39 1.4625 39 3.25V22.75Z" fill="white"/>
<path d="M35.75 0H3.25C1.4625 0 0 1.4625 0 3.25V22.75C0 24.5375 1.4625 26 3.25 26H35.75C37.5375 26 39 24.5375 39 22.75V3.25C39 1.4625 37.5375 0 35.75 0ZM35.75 0.65C37.1839 0.65 38.35 1.8161 38.35 3.25V22.75C38.35 24.1839 37.1839 25.35 35.75 25.35H3.25C1.8161 25.35 0.65 24.1839 0.65 22.75V3.25C0.65 1.8161 1.8161 0.65 3.25 0.65H35.75Z" fill="#B3B3B3"/>
<path fill-rule="evenodd" clip-rule="evenodd" d="M22.6453 18.4765C25.5349 18.4765 27.8774 16.134 27.8774 13.2444C27.8774 10.3547 25.5349 8.01221 22.6453 8.01221C19.7557 8.01221 17.4131 10.3547 17.4131 13.2444C17.4131 16.134 19.7557 18.4765 22.6453 18.4765Z" fill="#F79E1B"/>
<path fill-rule="evenodd" clip-rule="evenodd" d="M16.2321 18.4643C19.1218 18.4643 21.4643 16.1218 21.4643 13.2321C21.4643 10.3425 19.1218 8 16.2321 8C13.3425 8 11 10.3425 11 13.2321C11 16.1218 13.3425 18.4643 16.2321 18.4643Z" fill="#EB001B"/>
<path fill-rule="evenodd" clip-rule="evenodd" d="M17.4132 13.2322C17.4095 14.9139 18.1987 16.412 19.429 17.3721C20.6642 16.4174 21.4606 14.9237 21.4649 13.2425C21.4685 11.5607 20.6794 10.0627 19.4491 9.10254C18.2133 10.056 17.4168 11.5504 17.4132 13.2322Z" fill="#FF5F00"/>
</svg>
