<svg width="39" height="26" viewBox="0 0 39 26" fill="none" xmlns="http://www.w3.org/2000/svg">
<path fill-rule="evenodd" clip-rule="evenodd" d="M39 22.75C39 24.5375 37.5375 26 35.75 26H3.25C1.4625 26 0 24.5375 0 22.75V3.25C0 1.4625 1.4625 0 3.25 0H35.75C37.5375 0 39 1.4625 39 3.25V22.75Z" fill="white"/>
<path fill-rule="evenodd" clip-rule="evenodd" d="M9 6H10.2835V20H9V6Z" fill="black"/>
<path fill-rule="evenodd" clip-rule="evenodd" d="M16.8959 6H18.1794V20H16.8959V6Z" fill="black"/>
<path fill-rule="evenodd" clip-rule="evenodd" d="M23.4623 6H24.7458V20H23.4623V6Z" fill="black"/>
<path fill-rule="evenodd" clip-rule="evenodd" d="M26.0741 6H27.3576V20H26.0741V6Z" fill="black"/>
<path fill-rule="evenodd" clip-rule="evenodd" d="M28.7165 6H30V20H28.7165V6Z" fill="black"/>
<path fill-rule="evenodd" clip-rule="evenodd" d="M19.5077 6H22.1183V20H19.5077V6Z" fill="black"/>
<path fill-rule="evenodd" clip-rule="evenodd" d="M11.6267 6H15.5506V20H11.6267V6Z" fill="black"/>
<path d="M35.75 0H3.25C1.4625 0 0 1.4625 0 3.25V22.75C0 24.5375 1.4625 26 3.25 26H35.75C37.5375 26 39 24.5375 39 22.75V3.25C39 1.4625 37.5375 0 35.75 0ZM35.75 0.65C37.1839 0.65 38.35 1.8161 38.35 3.25V22.75C38.35 24.1839 37.1839 25.35 35.75 25.35H3.25C1.8161 25.35 0.65 24.1839 0.65 22.75V3.25C0.65 1.8161 1.8161 0.65 3.25 0.65H35.75Z" fill="#B3B3B3"/>
</svg>
