<svg width="39" height="26" viewBox="0 0 39 26" fill="none" xmlns="http://www.w3.org/2000/svg">
<path fill-rule="evenodd" clip-rule="evenodd" d="M39 22.75C39 24.5375 37.5375 26 35.75 26H3.25C1.4625 26 0 24.5375 0 22.75V3.25C0 1.4625 1.4625 0 3.25 0H35.75C37.5375 0 39 1.4625 39 3.25V22.75Z" fill="white"/>
<path d="M35.75 0H3.25C1.4625 0 0 1.4625 0 3.25V22.75C0 24.5375 1.4625 26 3.25 26H35.75C37.5375 26 39 24.5375 39 22.75V3.25C39 1.4625 37.5375 0 35.75 0ZM35.75 0.65C37.1839 0.65 38.35 1.8161 38.35 3.25V22.75C38.35 24.1839 37.1839 25.35 35.75 25.35H3.25C1.8161 25.35 0.65 24.1839 0.65 22.75V3.25C0.65 1.8161 1.8161 0.65 3.25 0.65H35.75Z" fill="#B3B3B3"/>
<path d="M9.91172 11.56L10.7482 13.2998H9.00978L9.91172 11.56ZM25.2749 14.2856H22.3678V13.343H25.2749V12.4861H22.3678V11.715H25.2749V10.9864L27.4316 12.932L25.2749 14.8865V14.2856ZM28.287 12.2454L26.8619 10.8569H21.1426V15.1425H26.6725L28.2406 13.7368L29.8177 15.1425H31.2907L29.039 12.974L31.3576 10.8569H29.8184L28.287 12.2454ZM20.0492 10.8569H18.0538L16.5527 13.7286L14.9375 10.8569H12.9421V15.0142L10.8805 10.8569H9.00908L6.80458 15.1425H8.15361L8.6 14.1656H11.165L11.6783 15.1425H14.1581V11.654L15.9155 15.1425H17.0744L18.8227 11.7137V15.1425H20.0485L20.0492 10.8569ZM10.3391 15.1171H9.46462H10.3391ZM9.46815 15.0536L9.01964 16H5L8.17262 10H15.75L16.5147 11.325L17.2293 10H19.921H21.2778H27.4449L28.318 10.8238L29.2558 10H34L30.6316 12.993L33.8543 16H29.2636L28.2363 15.1165L27.2175 16H21.2778H19.921H10.8306L10.3377 15.0536H9.46815Z" fill="#129AD7"/>
</svg>
