<svg width="39" height="26" viewBox="0 0 39 26" fill="none" xmlns="http://www.w3.org/2000/svg">
<path fill-rule="evenodd" clip-rule="evenodd" d="M39 22.75C39 24.5375 37.5375 26 35.75 26H3.25C1.4625 26 0 24.5375 0 22.75V3.25C0 1.4625 1.4625 0 3.25 0H35.75C37.5375 0 39 1.4625 39 3.25V22.75Z" fill="white"/>
<path d="M35.75 0H3.25C1.4625 0 0 1.4625 0 3.25V22.75C0 24.5375 1.4625 26 3.25 26H35.75C37.5375 26 39 24.5375 39 22.75V3.25C39 1.4625 37.5375 0 35.75 0ZM35.75 0.65C37.1839 0.65 38.35 1.8161 38.35 3.25V22.75C38.35 24.1839 37.1839 25.35 35.75 25.35H3.25C1.8161 25.35 0.65 24.1839 0.65 22.75V3.25C0.65 1.8161 1.8161 0.65 3.25 0.65H35.75Z" fill="#B3B3B3"/>
<path fill-rule="evenodd" clip-rule="evenodd" d="M26.305 9.33775V15.5945L27.3907 16.0448L26.8769 17.2786L25.8029 16.8325C25.5617 16.728 25.3984 16.5681 25.2741 16.3884C25.1552 16.2039 25.0664 15.9518 25.0664 15.6123V9.33844L26.305 9.33775ZM30.8238 12.1336C30.612 12.1336 30.4091 12.1678 30.2192 12.2313C30.2192 12.2313 29.7962 10.9653 29.7969 10.966C30.1276 10.856 30.4747 10.7993 30.8238 10.8C32.3917 10.8 33.7001 11.9136 34 13.3934L32.6923 13.6599C32.5161 12.7888 31.7461 12.1336 30.8238 12.1336ZM28.6765 16.4646L29.5599 15.4651C29.165 15.116 28.917 14.6056 28.917 14.0365C28.917 13.4681 29.1657 12.9584 29.5599 12.6093L28.6758 11.6098C28.0056 12.2035 27.5827 13.0711 27.5827 14.0365C27.582 15.0026 28.0056 15.8709 28.6765 16.4646ZM32.6923 14.4229C32.5146 15.2926 31.7454 15.9471 30.8237 15.9471C30.6181 15.9471 30.4138 15.9143 30.2184 15.8487L29.7948 17.114C30.1262 17.2247 30.4739 17.2814 30.8237 17.2807C32.3903 17.2807 33.698 16.1685 33.9999 14.69L32.6923 14.4229ZM18.0704 13.9902C18.0977 12.2016 19.5707 10.773 21.3587 10.8004C22.8761 10.8236 24.1332 11.8867 24.4631 13.3002L18.5944 15.8089C18.2535 15.2876 18.0602 14.6611 18.0704 13.9902ZM19.4143 14.238C19.4061 14.1628 19.4006 14.0863 19.4027 14.0084C19.4198 12.9543 20.2867 12.1132 21.3402 12.1303C21.9134 12.1378 22.4224 12.4009 22.7668 12.8067L19.4143 14.238ZM21.2801 15.949C21.8096 15.9566 22.2892 15.7475 22.6431 15.4032L23.5736 16.359C22.9785 16.9417 22.1594 17.295 21.261 17.2813C20.6673 17.2731 20.0872 17.1009 19.5858 16.7832L20.2949 15.6532C20.5805 15.8343 20.9173 15.9429 21.2801 15.949Z" fill="#221F1F"/>
<path fill-rule="evenodd" clip-rule="evenodd" d="M13.3699 13.9377C13.0796 15.3628 11.8198 16.4348 10.3092 16.4348C9.97238 16.4348 9.63761 16.3808 9.31787 16.2742L8.62373 18.3477C9.16688 18.5295 9.73599 18.6217 10.3092 18.621C12.8767 18.621 15.0185 16.7989 15.5118 14.377L13.3699 13.9377Z" fill="#ED412F"/>
<path fill-rule="evenodd" clip-rule="evenodd" d="M6.79068 17.2915L8.23907 15.6538C7.59276 15.0813 7.18488 14.2457 7.18488 13.3138C7.18488 12.3826 7.59276 11.5471 8.23907 10.9752L6.78999 9.33829C5.69209 10.3112 5 11.7315 5 13.3145C4.99932 14.8975 5.69209 16.3186 6.79068 17.2915" fill="#1AA5DF"/>
<path fill-rule="evenodd" clip-rule="evenodd" d="M9.31781 10.3461C9.63686 10.2395 9.97163 10.1856 10.3085 10.1856C11.8204 10.1856 13.0809 11.2596 13.3706 12.6854L15.5124 12.2489C15.0212 9.82484 12.878 8 10.3085 8C9.73661 7.99932 9.16818 8.09155 8.62504 8.2726L9.31781 10.3461Z" fill="#FFCA32"/>
</svg>
