<svg width="39" height="26" viewBox="0 0 39 26" fill="none" xmlns="http://www.w3.org/2000/svg">
<path fill-rule="evenodd" clip-rule="evenodd" d="M39 22.75C39 24.5375 37.5375 26 35.75 26H3.25C1.4625 26 0 24.5375 0 22.75V3.25C0 1.4625 1.4625 0 3.25 0H35.75C37.5375 0 39 1.4625 39 3.25V22.75Z" fill="white"/>
<path d="M35.75 0H3.25C1.4625 0 0 1.4625 0 3.25V22.75C0 24.5375 1.4625 26 3.25 26H35.75C37.5375 26 39 24.5375 39 22.75V3.25C39 1.4625 37.5375 0 35.75 0ZM35.75 0.65C37.1839 0.65 38.35 1.8161 38.35 3.25V22.75C38.35 24.1839 37.1839 25.35 35.75 25.35H3.25C1.8161 25.35 0.65 24.1839 0.65 22.75V3.25C0.65 1.8161 1.8161 0.65 3.25 0.65H35.75Z" fill="#B3B3B3"/>
<path fill-rule="evenodd" clip-rule="evenodd" d="M17.6863 18.9093C17.8493 18.9154 18.1406 18.9264 18.1738 18.9337C19.3182 18.9337 21.3933 18.8992 21.5165 18.881C23.791 18.5616 25.4712 17.3937 26.5211 15.346C26.8261 14.7516 26.9942 14.1097 27.036 13.4397C27.1559 11.5178 26.5081 9.90083 25.0795 8.61041C24.1475 7.76838 23.0396 7.28089 21.802 7.08342C21.6909 7.06546 21.5784 7.05607 21.4658 7.04666C21.4027 7.04139 21.3396 7.03612 21.2767 7.02933C21.2323 7.02477 19.3404 7 18.196 7C18.1255 7.00907 17.9163 7.01908 17.7169 7.02862C17.5439 7.0369 17.3782 7.04483 17.3168 7.05149C15.881 7.20986 14.6434 7.78533 13.6371 8.82613C12.8296 9.66165 12.333 10.6633 12.1251 11.8058C12.0941 11.9776 12.0758 12.1514 12.0576 12.3253C12.0483 12.414 12.039 12.5027 12.028 12.5912C12.0243 12.6203 12.0167 12.6492 12.009 12.6779C12.0059 12.6896 12.0028 12.7013 12 12.713V13.2892C12.0059 13.3332 12.0119 13.3773 12.018 13.4214C12.0302 13.5096 12.0424 13.5978 12.0528 13.6861C12.191 14.8709 12.6563 15.9123 13.4312 16.8156C14.1813 17.6903 15.1074 18.3022 16.2069 18.6489C16.654 18.7904 17.1108 18.8803 17.5801 18.9051C17.5914 18.9057 17.6316 18.9072 17.6863 18.9093ZM18.0989 7.4784C21.1575 7.51425 23.5298 10.0273 23.505 12.9594C23.5272 15.9248 21.0878 18.4626 17.9758 18.4326C15.0221 18.4039 12.5528 16.0316 12.5534 12.9509C12.5541 9.87545 15.0476 7.44321 18.0989 7.4784Z" fill="#074C95"/>
<path fill-rule="evenodd" clip-rule="evenodd" d="M19.2935 16.1496C19.2935 14.0171 19.2935 11.8958 19.2935 9.77243C20.2372 10.0748 21.4044 11.1691 21.478 12.799C21.5543 14.5007 20.4164 15.7566 19.2935 16.1496V16.1496Z" fill="#074C95"/>
<path fill-rule="evenodd" clip-rule="evenodd" d="M16.7746 16.1522C15.7338 15.7879 14.4961 14.5789 14.5926 12.7554C14.6727 11.2427 15.7435 10.1178 16.7746 9.76982V16.1522Z" fill="#074C95"/>
</svg>
