<svg width="39" height="26" viewBox="0 0 39 26" fill="none" xmlns="http://www.w3.org/2000/svg">
<path fill-rule="evenodd" clip-rule="evenodd" d="M39 22.75C39 24.5375 37.5375 26 35.75 26H3.25C1.4625 26 0 24.5375 0 22.75V3.25C0 1.4625 1.4625 0 3.25 0H35.75C37.5375 0 39 1.4625 39 3.25V22.75Z" fill="white"/>
<path fill-rule="evenodd" clip-rule="evenodd" d="M39 22.75C39 24.5375 37.5375 26 35.75 26H3.25C1.4625 26 0 24.5375 0 22.75V3.25C0 1.4625 1.4625 0 3.25 0H35.75C37.5375 0 39 1.4625 39 3.25V22.75Z" fill="white"/>
<path d="M35.75 0H3.25C1.4625 0 0 1.4625 0 3.25V22.75C0 24.5375 1.4625 26 3.25 26H35.75C37.5375 26 39 24.5375 39 22.75V3.25C39 1.4625 37.5375 0 35.75 0ZM35.75 0.65C37.1839 0.65 38.35 1.8161 38.35 3.25V22.75C38.35 24.1839 37.1839 25.35 35.75 25.35H3.25C1.8161 25.35 0.65 24.1839 0.65 22.75V3.25C0.65 1.8161 1.8161 0.65 3.25 0.65H35.75Z" fill="#B3B3B3"/>
<g clip-path="url(#clip0_10369_9305)">
<path d="M8.99948 9C8.34964 9 7.79691 9.26064 7.37987 9.70706C7.35037 9.70614 7.32088 9.70521 7.29138 9.70521C6.44323 9.70521 5.64818 10.2039 5.26018 10.9784C5.09046 11.3167 5.02738 11.6808 5.00787 12.051C4.99017 12.3833 5.00787 12.7211 5.00787 13.0501V16.2397H6.74864C6.74864 16.2397 6.75 14.6685 6.74864 13.3177C6.74773 12.4082 6.74228 11.5981 6.74864 11.4317C6.7795 10.6447 6.98915 10.1304 7.37987 9.70937C8.67547 9.71076 9.51409 10.6175 9.56083 12.0616C9.57172 12.393 9.57489 14.1671 9.57489 14.1671V16.2397H11.3152V13.4378C11.3152 12.5908 11.3216 11.8574 11.2644 11.3527C11.1046 9.94136 10.2651 9 8.99948 9Z" fill="#4C0A77"/>
<path d="M18.1752 12.3614V9.17131H16.4344C16.4344 9.17131 16.4331 10.7426 16.4344 12.0934C16.4353 13.0028 16.4408 13.813 16.4344 13.9793C16.4036 14.7663 16.1939 15.2807 15.8032 15.7017C14.5076 15.7003 13.669 14.7936 13.6222 13.3494C13.6113 13.0181 13.6068 12.195 13.6068 11.2421V9.16992L11.8674 9.17177V11.9737C11.8674 12.8208 11.861 13.5542 11.9182 14.0588C12.0789 15.4697 12.9179 16.4111 14.1836 16.4111C14.8334 16.4111 15.3862 16.1504 15.8032 15.704C15.8327 15.7054 15.8622 15.7058 15.8917 15.7058C16.7398 15.7058 17.5349 15.2067 17.9229 14.4327C18.0926 14.0944 18.1552 13.7302 18.1752 13.3601C18.1929 13.0278 18.1752 12.69 18.1752 12.3609" fill="#4C0A77"/>
<path d="M22.2829 12.3391H20.7854V10.2406H22.2829C22.8878 10.2406 23.3339 10.6889 23.3339 11.2799C23.3339 11.871 22.8878 12.3396 22.2829 12.3396V12.3391ZM22.2829 9.10007H19.625V16.2312H20.7854V13.4806H22.2829C23.5622 13.4806 24.5042 12.5536 24.5042 11.2799C24.5042 10.0063 23.5622 9.09961 22.2829 9.09961" fill="#4C0A77"/>
<path d="M27.7676 14.2243C27.7676 14.8459 27.2421 15.4365 26.4784 15.4365C25.9924 15.4365 25.6752 15.1615 25.6752 14.7743C25.6752 14.2548 26.1612 14.0104 27.0239 14.0104H27.7676V14.2243ZM26.7361 11.1475C25.6947 11.1475 24.822 11.9317 24.7426 12.9304H25.7342C25.7641 12.4211 26.2002 12.0745 26.7357 12.0745C27.3606 12.0745 27.7672 12.4719 27.7672 13.0727V13.1642H27.0533C25.6053 13.1642 24.7031 13.8163 24.7031 14.8653C24.7031 15.7008 25.3475 16.3321 26.2896 16.3321C26.9345 16.3321 27.43 16.0775 27.7672 15.6089V16.2304H28.8086V13.1443C28.8086 11.9525 28.0848 11.1475 26.7361 11.1475Z" fill="#4C0A77"/>
<path d="M32.8118 11.2666L31.5125 14.6591L30.2133 11.2666H29.0234L30.9471 15.9836L30.0744 18.0003H31.2647L34.0016 11.2666H32.8118Z" fill="#4C0A77"/>
</g>
<defs>
<clipPath id="clip0_10369_9305">
<rect width="29" height="9" fill="white" transform="translate(5 9)"/>
</clipPath>
</defs>
</svg>
