<svg width="50" height="50" viewBox="0 0 50 50" fill="none" xmlns="http://www.w3.org/2000/svg">
<rect width="50" height="50" rx="10" fill="#FF3A00"/>
<path d="M28.74 12.1172C32.0512 11.5653 33.6148 13.037 34.0747 14.9685C34.8105 14.9685 35.7303 14.9685 36.5581 15.2445C36.7421 15.3364 36.7421 15.6124 36.5581 15.6124C31.7753 15.7963 25.6127 17.9118 25.6127 17.9118C24.9689 16.1642 25.9807 12.5771 28.74 12.1172ZM32.787 16.5321C33.2469 16.4402 33.7988 16.3482 34.2587 16.2562C34.2587 16.3482 34.2587 16.4402 34.2587 16.5321C34.2587 19.0155 32.2352 20.9471 29.8437 20.9471C28.0042 20.9471 26.4405 19.8434 25.7967 18.2797C25.8887 18.2797 26.0726 18.1877 26.3486 18.0958C26.9004 19.2915 28.0961 20.0273 29.3838 20.0273C31.2234 20.0273 32.787 18.5557 32.787 16.6241C32.787 16.6241 32.787 16.6241 32.787 16.5321ZM36.926 38.5149C35.8223 38.9748 34.6266 39.1587 34.5346 37.871C34.4426 36.5833 34.4426 34.0999 30.5796 33.2721C26.3486 32.3524 25.8887 32.5363 22.8534 33.3641C19.9101 34.1919 16.323 35.4796 14.8513 33.3641C13.5636 31.6165 13.6556 28.4893 13.7476 27.7535C13.7476 27.6615 13.6556 27.6615 13.6556 27.6615C13.1957 27.7535 12 27.9374 12 27.2936C12 26.8337 12.4599 26.1898 13.5636 25.8219C14.9433 25.362 15.1273 25.638 15.3112 26.3738C15.4952 27.1096 15.7711 29.1331 17.9786 29.4091C20.186 29.685 21.6577 26.8337 21.9336 24.7182C21.9336 24.5342 21.9336 24.4423 21.9336 24.3503L22.9454 23.3385C23.1293 23.1546 23.1293 22.7866 22.9454 22.5107L20.186 19.7514C20.0021 19.5674 19.6342 19.5674 19.3582 19.7514L16.5989 22.5107C16.4149 22.6947 16.4149 23.0626 16.5989 23.3385L17.4267 24.1663C17.5187 24.2583 17.4267 24.4423 17.3347 24.4423C16.6909 24.5342 16.139 24.4423 15.7711 24.2583C14.5754 23.4305 16.047 20.7631 17.9786 19.1075C20.0941 17.268 22.6694 18.3717 24.9689 19.3835C27.7282 20.5792 31.0394 23.6145 31.9592 24.2583C32.879 24.9021 34.9025 24.5342 35.2704 23.3385C35.7303 21.6829 34.9025 22.8786 34.2587 22.0508C33.7988 21.407 33.9827 20.2113 35.7303 20.2113C37.11 20.2113 37.11 22.1428 37.018 22.8786C36.6501 25.2701 36.1902 28.2134 34.6266 28.3053C33.1549 28.3973 31.1314 28.0294 30.7635 27.9374H30.6715C30.6715 28.0294 30.5796 28.1214 30.4876 28.3053C30.4876 28.3973 30.4876 28.3973 30.5796 28.3973C32.4191 28.4893 34.3507 28.8572 35.7303 29.777C37.294 30.7887 36.8341 34.8358 36.5581 36.8593C36.5581 36.9513 36.5581 36.9513 36.6501 36.9513C38.8576 37.0432 38.1218 37.963 36.926 38.5149ZM17.1508 23.3385C16.9668 23.1546 16.9668 22.8786 17.1508 22.6947L19.5422 20.3032C19.7262 20.1193 20.0021 20.1193 20.186 20.3032L22.5775 22.6947C22.7614 22.8786 22.7614 23.1546 22.5775 23.3385L20.186 25.7299C20.0021 25.9139 19.7262 25.9139 19.5422 25.7299L17.1508 23.3385Z" fill="white"/>
</svg>
