<svg width="138" height="39" viewBox="0 0 138 39" fill="none" xmlns="http://www.w3.org/2000/svg">
<path fill-rule="evenodd" clip-rule="evenodd" d="M0 0V38.9231H138V0H0ZM36.6231 6.63462C39.8077 6.10385 41.3115 7.51923 41.7538 9.37692C42.4615 9.37692 43.3462 9.37692 44.1423 9.64231C44.3192 9.73077 44.3192 9.99615 44.1423 9.99615C39.5423 10.1731 33.6154 12.2077 33.6154 12.2077C32.9962 10.5269 33.9692 7.07692 36.6231 6.63462ZM41.2229 10.7481L41.2231 10.7481L41.2231 10.7481L41.2232 10.7481L41.2232 10.748L41.2233 10.748L41.2233 10.748L41.2234 10.748L41.2234 10.748C41.4666 10.7038 41.7097 10.6596 41.9308 10.6154V10.8808C41.9308 13.2692 39.9846 15.1269 37.6846 15.1269C35.9154 15.1269 34.4115 14.0654 33.7923 12.5615C33.847 12.5615 33.9354 12.5277 34.0577 12.4811C34.1332 12.4522 34.2217 12.4184 34.3231 12.3846C34.8538 13.5346 36.0038 14.2423 37.2423 14.2423C39.0115 14.2423 40.5154 12.8269 40.5154 10.9692V10.8808C40.7364 10.8366 40.9795 10.7924 41.2226 10.7482L41.2227 10.7481L41.2227 10.7481L41.2228 10.7481L41.2228 10.7481L41.2229 10.7481L41.2229 10.7481ZM44.4962 32.0231C43.4346 32.4654 42.2846 32.6423 42.1962 31.4038C42.1925 31.3528 42.189 31.2998 42.1854 31.245C42.1014 29.9711 41.9545 27.7441 38.3923 26.9808C34.4342 26.1203 33.9076 26.2642 31.1953 27.0054L30.9615 27.0692C30.709 27.1403 30.4515 27.2148 30.191 27.2902L30.1907 27.2903C27.5312 28.0604 24.5544 28.9223 23.2654 27.0692C22.0269 25.3885 22.1154 22.3808 22.2038 21.6731C22.2038 21.5846 22.1154 21.5846 22.1154 21.5846C21.6731 21.6731 20.5231 21.85 20.5231 21.2308C20.5231 20.7885 20.9654 20.1692 22.0269 19.8154C23.3538 19.3731 23.5308 19.6385 23.7077 20.3462C23.7218 20.4025 23.7364 20.4667 23.7525 20.5373L23.7526 20.5375C23.9387 21.3534 24.3192 23.0211 26.2731 23.2654C28.3962 23.5308 29.8115 20.7885 30.0769 18.7538V18.4L31.05 17.4269C31.2269 17.25 31.2269 16.8962 31.05 16.6308L28.3962 13.9769C28.2192 13.8 27.8654 13.8 27.6 13.9769L24.9462 16.6308C24.7692 16.8077 24.7692 17.1615 24.9462 17.4269L25.7423 18.2231C25.8308 18.3115 25.7423 18.4885 25.6538 18.4885C25.0346 18.5769 24.5038 18.4885 24.15 18.3115C23 17.5154 24.4154 14.95 26.2731 13.3577C28.3077 11.5885 30.7846 12.65 32.9962 13.6231C35.0105 14.496 37.3307 16.3882 38.7188 17.5202L38.7188 17.5203L38.7192 17.5206C39.1596 17.8798 39.5061 18.1624 39.7192 18.3115C40.6038 18.9308 42.55 18.5769 42.9038 17.4269C43.1617 16.4987 42.9987 16.5024 42.6952 16.5092C42.4781 16.514 42.189 16.5205 41.9308 16.1885C41.4885 15.5692 41.6654 14.4192 43.3462 14.4192C44.6731 14.4192 44.6731 16.2769 44.5846 16.9846C44.2308 19.2846 43.7885 22.1154 42.2846 22.2038C40.8692 22.2923 38.9231 21.9385 38.5692 21.85H38.4808C38.4808 21.9047 38.447 21.9593 38.4003 22.0349L38.4003 22.0349C38.3714 22.0816 38.3376 22.1363 38.3038 22.2038C38.3038 22.2923 38.3038 22.2923 38.3923 22.2923C40.1615 22.3808 42.0192 22.7346 43.3462 23.6192C44.85 24.5923 44.4077 28.4846 44.1423 30.4308C44.1423 30.475 44.1423 30.4971 44.1534 30.5082C44.1644 30.5192 44.1865 30.5192 44.2308 30.5192C46.3538 30.6077 45.6462 31.4923 44.4962 32.0231ZM25.4769 17.4269C25.3 17.25 25.3 16.9846 25.4769 16.8077L27.7769 14.5077C27.9538 14.3308 28.2192 14.3308 28.3962 14.5077L30.6962 16.8077C30.8731 16.9846 30.8731 17.25 30.6962 17.4269L28.3962 19.7269C28.2192 19.9038 27.9538 19.9038 27.7769 19.7269L25.4769 17.4269ZM59.9771 13.1807C61.1271 13.9769 61.8348 15.0384 62.1886 16.3653L60.5963 16.7192C60.3309 15.7461 59.8001 14.95 59.004 14.3307C58.2078 13.7115 57.2348 13.4461 56.1732 13.4461C54.4925 13.4461 52.9886 14.0653 51.8386 15.3923C50.6886 16.6307 50.1578 18.223 50.3348 19.9923C50.4232 21.4077 50.954 22.5577 51.9271 23.4423C52.8117 24.3269 54.0501 24.8577 55.3771 24.8577C56.5271 24.8577 57.5001 24.5923 58.3848 23.973C59.2694 23.3538 59.8886 22.6461 60.2425 21.673L61.7463 22.2038C61.304 23.4423 60.5078 24.5038 59.3578 25.3C58.2078 26.0961 56.9694 26.45 55.3771 26.45C53.5194 26.45 52.0155 25.8307 50.7771 24.6807C49.5386 23.5307 48.8309 22.0269 48.654 20.1692C48.4771 17.9577 49.0963 16.0115 50.5117 14.4192C51.9271 12.8269 53.7848 12.0307 55.9963 12.0307C57.5001 12.0307 58.8271 12.3846 59.9771 13.1807ZM70.7693 26.0962H72.3616L73.6885 15.7462H72.1847L71.9193 17.9577C71.5654 17.25 71.0347 16.6308 70.327 16.1885C69.6193 15.7462 68.8231 15.5692 67.85 15.5692C66.4347 15.5692 65.1962 16.1 64.2231 17.0731C63.1616 18.1346 62.6308 19.3731 62.5424 20.9654C62.4539 22.5577 62.8962 23.8846 63.7808 24.8577C64.6654 25.8308 65.8154 26.3615 67.1424 26.3615C68.7347 26.3615 69.9731 25.7423 70.9462 24.5923L70.7693 26.0962ZM71.477 20.9654C71.3885 22.2039 70.9462 23.1769 70.1501 23.8846C69.3539 24.5923 68.4693 25.0346 67.5847 24.9462C66.5231 24.9462 65.6385 24.5923 65.0193 23.8846C64.3116 23.0885 64.0462 22.2039 64.1347 20.9654C64.2231 19.8154 64.6654 18.8423 65.3731 18.1346C66.1693 17.4269 67.0539 17.0731 68.1154 17.0731C69.0885 17.0731 69.8847 17.4269 70.5924 18.1346C71.3001 18.8423 71.5654 19.8154 71.477 20.9654ZM81.2077 15.9231L80.9423 17.4269H80.4115C79.2616 17.4269 78.2885 17.8693 77.4923 18.6654C76.6962 19.4616 76.2539 20.5231 75.9885 21.85L75.3692 26.1846H73.8654L75.2808 15.9231H76.7846L76.5192 18.1346C77.6692 16.6308 78.9962 15.8346 80.5885 15.8346C80.8539 15.8346 81.1192 15.8346 81.2077 15.9231ZM87.8426 17.4269L88.108 15.9231C87.931 15.8346 87.7541 15.8346 87.4003 15.8346C85.808 15.8346 84.481 16.6308 83.331 18.1346L83.5964 15.9231H82.0926L80.7657 26.0962H82.2695L82.8887 21.85C83.1541 20.5231 83.5964 19.4616 84.3926 18.6654C85.1887 17.8693 86.1618 17.4269 87.3118 17.4269H87.8426ZM87.7538 26.0962L89.1692 15.9231H90.6731L89.3461 26.0962H87.7538ZM91.0269 13.1808C91.2038 13.3577 91.3808 13.6231 91.3808 13.8885C91.3808 14.1539 91.2923 14.4193 91.1154 14.6846C90.9385 14.8616 90.6731 14.95 90.4077 14.95C90.1423 14.95 89.8769 14.8616 89.6115 14.6846C89.4346 14.5077 89.2577 14.2423 89.2577 13.8885C89.2577 13.6231 89.3461 13.3577 89.5231 13.1808C89.7 13.0039 89.9654 12.827 90.2308 12.827C90.4961 12.9154 90.7615 13.0039 91.0269 13.1808ZM93.681 24.0614C93.0617 23.4422 92.7079 22.6461 92.6194 21.673L92.7079 21.3191H101.289C101.377 19.6384 101.023 18.3114 100.139 17.2499C99.254 16.1884 98.104 15.6576 96.6887 15.6576C95.1848 15.6576 93.8579 16.2768 92.7963 17.4268C91.7348 18.5768 91.204 20.0807 91.381 21.7614C91.4694 23.1768 92.0002 24.2384 92.8848 25.123C93.7694 25.9191 94.9194 26.3614 96.2464 26.3614C97.3079 26.3614 98.1925 26.0076 99.0771 25.4768C99.9617 24.9461 100.581 24.1499 100.935 23.0884L99.5194 22.7345C98.8117 24.1499 97.6617 24.9461 96.1579 24.9461C95.0963 24.9461 94.3002 24.6807 93.681 24.0614ZM92.7079 20.1691C92.9733 19.196 93.4156 18.4884 94.0348 17.8691C94.7425 17.3384 95.5387 16.9845 96.5117 17.073C97.3963 17.073 98.1925 17.3384 98.7233 17.8691C99.254 18.3999 99.6079 19.196 99.6963 20.1691H92.7079ZM108.896 15.923L108.631 17.4268H108.1C106.95 17.4268 105.977 17.8691 105.181 18.6653C104.385 19.4614 103.942 20.523 103.677 21.8499L103.058 26.1845H101.554L102.969 16.0114H104.473L104.208 18.223C105.358 16.7191 106.685 15.923 108.277 15.923C108.542 15.8345 108.719 15.8345 108.896 15.923ZM111.108 24.5038C110.489 24.15 110.135 23.6192 109.958 23L108.543 23.1769C108.808 24.0615 109.427 24.7692 110.223 25.3C111.019 25.8308 111.993 26.0962 113.054 26.0962C114.293 26.0962 115.266 25.7423 115.973 25.2115C116.681 24.6808 117.035 23.8846 116.946 22.9115C116.858 22.2038 116.593 21.6731 116.15 21.2308C115.619 20.7885 115 20.4346 114.116 20.1692L112.789 19.7269C112.258 19.55 111.904 19.3731 111.639 19.1962C111.373 19.0192 111.196 18.7538 111.196 18.4C111.108 17.8692 111.285 17.5154 111.727 17.1615C112.081 16.8961 112.7 16.7192 113.408 16.7192C114.116 16.7192 114.735 16.8962 115.266 17.25C115.796 17.6038 116.15 18.1346 116.239 18.6654L117.566 18.2231C117.3 17.4269 116.858 16.8077 116.062 16.2769C115.266 15.7462 114.381 15.4808 113.319 15.4808C112.169 15.4808 111.285 15.7462 110.577 16.3654C109.869 16.9846 109.604 17.6923 109.693 18.6654C109.781 19.2846 109.958 19.8154 110.4 20.1692C110.754 20.6115 111.373 20.8769 112.081 21.1423L113.85 21.7615C114.381 21.9385 114.735 22.1154 115 22.2923C115.266 22.5577 115.443 22.8231 115.443 23.1769C115.443 23.7077 115.266 24.15 114.823 24.5038C114.381 24.8577 113.762 25.0346 113.054 25.0346C112.346 25.0346 111.639 24.8577 111.108 24.5038Z" fill="#FF3A00"/>
</svg>
