<?xml version="1.0" encoding="UTF-8"?>
<svg width="90px" height="77px" viewBox="0 0 90 77" version="1.1" xmlns="http://www.w3.org/2000/svg" xmlns:xlink="http://www.w3.org/1999/xlink">
    <!-- Generator: Sketch 52.4 (67378) - http://www.bohemiancoding.com/sketch -->
    <title>casas-bahia</title>
    <desc>Created with Sketch.</desc>
    <g id="RELATORIOS" stroke="none" stroke-width="1" fill="none" fill-rule="evenodd">
        <g id="Artboard" transform="translate(-68.000000, -95.000000)">
            <g id="casas-bahia" transform="translate(68.000000, 95.000000)">
                <path d="M90,67.250168 C90,72.1292021 86.0386816,76.0905381 81.1596387,76.0905381 L8.84235908,76.0905381 C3.95672432,76.0905381 0.00198951855,72.1292021 0.00198951855,67.250168 L0.00198951855,22.8634901 L0.00198951855,8.84038096 C0.00198951855,3.96134619 3.95672432,1.15697402e-05 8.84235908,1.15697402e-05 L81.1596387,1.15697402e-05 C86.0386816,1.15697402e-05 90,3.96134619 90,8.84038096 L90,22.8634901 L90,67.250168 Z" id="path4204" fill="#0B61AB"></path>
                <path d="M9.51893819e-06,22.8601752 L9.51893819e-06,8.84368096 C9.51893819e-06,3.95804619 3.96134414,0.00331156934 8.84037891,0.00331156934 L81.1576582,0.00331156934 C86.0432812,0.00331156934 89.9980371,3.95804619 89.9980371,8.84368096 L89.9980371,22.8601752 L9.51893819e-06,22.8601752 Z" id="path4206" fill="#E42529"></path>
                <path d="M15.6093835,22.9218853 L15.6093835,43.1250088 L15.6093835,68.3906338 L64.7343809,68.3906338 C71.6799053,68.3906338 77.3437559,62.6799082 77.3437559,55.7343838 C77.3437559,48.8218594 71.73404,43.1712246 64.8281309,43.1250088 L65.5781309,43.1250088 C71.1371895,43.1250088 75.7031309,38.5590703 75.7031309,33.0000088 C75.7031309,27.440935 71.1371895,22.9218853 65.5781309,22.9218853 L15.6093835,22.9218853 Z M31.8750088,32.4375088 L56.5781309,32.4375088 C58.4333467,32.4375088 59.9531309,33.9638936 59.9531309,35.8125088 C59.9531309,37.6677393 58.4333467,39.1875088 56.5781309,39.1875088 L31.8750088,39.1875088 L31.8750088,32.4375088 Z M31.8750088,48.7500088 L56.2968809,48.7500088 C58.9179521,48.7500088 61.0781309,50.8632979 61.0781309,53.4843838 C61.0781309,56.1120527 58.9179521,58.2656338 56.2968809,58.2656338 L31.8750088,58.2656338 L31.8750088,48.7500088 Z" id="path4208" fill="#FFFFFF" fill-rule="nonzero"></path>
            </g>
        </g>
    </g>
</svg>