<?xml version="1.0" encoding="UTF-8"?>
<svg width="112px" height="60px" viewBox="0 0 112 60" version="1.1" xmlns="http://www.w3.org/2000/svg" xmlns:xlink="http://www.w3.org/1999/xlink">
    <!-- Generator: Sketch 52.4 (67378) - http://www.bohemiancoding.com/sketch -->
    <title>Artboard</title>
    <desc>Created with Sketch.</desc>
    <g id="Artboard" stroke="none" stroke-width="1" fill="none" fill-rule="evenodd">
        <path d="M34.6353171,23.0127273 C34.6216585,23.1709091 34.6134634,23.3890909 34.6066341,23.6672727 C34.5998049,23.9468182 34.5970732,24.2345455 34.5970732,24.5318182 C34.5970732,24.8290909 34.5998049,25.1209091 34.6066341,25.4059091 C34.6134634,25.6909091 34.6216585,25.9118182 34.6353171,26.0686364 C34.6599024,26.3481818 34.7145366,26.6140909 34.7992195,26.8690909 C34.8839024,27.1254545 35.0177561,27.3490909 35.1994146,27.5427273 C35.382439,27.7377273 35.6132683,27.8918182 35.8919024,28.0063636 C36.1719024,28.1222727 36.5174634,28.1795455 36.9313171,28.1795455 C37.3438049,28.1795455 37.6839024,28.1318182 37.9516098,28.035 C38.2179512,27.9381818 38.4364878,27.8195455 38.6072195,27.6790909 C38.7765854,27.54 38.9077073,27.3859091 38.9978537,27.2154545 C39.0893659,27.045 39.1590244,26.8881818 39.2068293,26.7422727 C39.2682927,26.5472727 39.3352195,26.4122727 39.4076098,26.3318182 C39.48,26.2527273 39.6193171,26.2145455 39.8269268,26.2145455 L42.214439,26.2145455 C42.3223415,26.2145455 42.4165854,26.2527273 42.4958049,26.3318182 C42.5750244,26.4122727 42.6146341,26.505 42.6146341,26.6140909 C42.6023415,27.2331818 42.4507317,27.8154545 42.1598049,28.3595455 C41.8675122,28.905 41.4659512,29.3781818 40.9564878,29.7790909 C40.4456585,30.18 39.8474146,30.4977273 39.1617561,30.7336364 C38.4760976,30.9709091 37.7317073,31.0895455 36.9299512,31.0895455 C36.054439,31.0895455 35.2745366,30.9586364 34.5875122,30.6981818 C33.9018537,30.4377273 33.3145366,30.0831818 32.8296585,29.6345455 C32.3447805,29.1859091 31.9705366,28.6609091 31.7096585,28.0609091 C31.4487805,27.4609091 31.2999024,26.8281818 31.2630244,26.16 C31.238439,25.6622727 31.2275122,25.1290909 31.2275122,24.5577273 C31.2275122,23.9877273 31.2398049,23.4436364 31.2630244,22.9213636 C31.2889756,22.2545455 31.4337561,21.6204545 31.7000976,21.0190909 C31.966439,20.4204545 32.3420488,19.8954545 32.8200976,19.4468182 C33.300878,18.9981818 33.8868293,18.6436364 34.5793171,18.3831818 C35.2718049,18.1227273 36.054439,17.9918182 36.9299512,17.9918182 C37.7317073,17.9918182 38.4760976,18.1104545 39.1617561,18.3463636 C39.8487805,18.5836364 40.4456585,18.9013636 40.9564878,19.3009091 C41.4659512,19.7018182 41.8675122,20.175 42.1598049,20.7204545 C42.4507317,21.2659091 42.6023415,21.8481818 42.6146341,22.4659091 C42.6146341,22.575 42.5750244,22.6690909 42.4958049,22.7481818 C42.4165854,22.8272727 42.3223415,22.8668182 42.214439,22.8668182 L39.8282927,22.8668182 C39.6220488,22.8668182 39.4813659,22.8272727 39.4089756,22.7481818 C39.3352195,22.6690909 39.2682927,22.5340909 39.2081951,22.3390909 C39.1603902,22.1931818 39.0907317,22.035 38.9992195,21.8659091 C38.9090732,21.6954545 38.7779512,21.5413636 38.6085854,21.4009091 C38.4378537,21.2618182 38.2193171,21.1445455 37.9529756,21.0463636 C37.6852683,20.9495455 37.3451707,20.9018182 36.9326829,20.9018182 C36.5188293,20.9018182 36.1732683,20.9590909 35.8932683,21.0736364 C35.6146341,21.1895455 35.3838049,21.3436364 35.2007805,21.5386364 C35.019122,21.7322727 34.8852683,21.9572727 34.8005854,22.2109091 C34.7145366,22.4672727 34.6599024,22.7345455 34.6353171,23.0127273 Z M54.7884878,18.1745455 C54.9223415,18.1745455 55.0370732,18.2236364 55.1340488,18.3204545 C55.2310244,18.4172727 55.2788293,18.5318182 55.2788293,18.6654545 L55.2788293,30.4172727 C55.2788293,30.5509091 55.2310244,30.6668182 55.1340488,30.7636364 C55.0370732,30.8604545 54.9223415,30.9081818 54.7884878,30.9081818 L52.4009756,30.9081818 C52.267122,30.9081818 52.1510244,30.8604545 52.0540488,30.7636364 C51.9570732,30.6668182 51.9092683,30.5509091 51.9092683,30.4172727 L51.9092683,25.9595455 L47.8636098,25.9595455 L47.8636098,30.4172727 C47.8636098,30.5509091 47.8158049,30.6668182 47.7188293,30.7636364 C47.6218537,30.8604545 47.507122,30.9081818 47.3732683,30.9081818 L44.9857561,30.9081818 C44.8519024,30.9081818 44.7358049,30.8631818 44.6401951,30.7718182 C44.5432195,30.6804545 44.4940488,30.5618182 44.4940488,30.4159091 L44.4940488,18.6640909 C44.4940488,18.5304545 44.5432195,18.4159091 44.6401951,18.3190909 C44.7358049,18.2222727 44.8519024,18.1731818 44.9857561,18.1731818 L47.3732683,18.1731818 C47.507122,18.1731818 47.6218537,18.2222727 47.7188293,18.3190909 C47.8158049,18.4159091 47.8636098,18.5304545 47.8636098,18.6640909 L47.8636098,23.0495455 L51.9092683,23.0495455 L51.9092683,18.6640909 C51.9092683,18.5304545 51.9570732,18.4159091 52.0540488,18.3190909 C52.1510244,18.2222727 52.267122,18.1731818 52.4009756,18.1731818 L54.7884878,18.1731818 L54.7884878,18.1745455 Z M64.5720976,18.1745455 C64.8152195,18.1745455 64.9996098,18.2427273 65.1266341,18.375 C65.2550244,18.5086364 65.342439,18.6409091 65.3902439,18.7745455 L69.3635122,30.2359091 C69.4113171,30.3572727 69.4359024,30.4472727 69.4359024,30.5072727 C69.4359024,30.6163636 69.3962927,30.7104545 69.3170732,30.7895455 C69.2378537,30.87 69.1449756,30.9081818 69.0357073,30.9081818 L66.7383415,30.9081818 C66.4952195,30.9081818 66.3217561,30.8563636 66.2193171,30.7540909 C66.116878,30.6518182 66.0526829,30.5509091 66.0280976,30.4527273 L65.5172683,28.9445455 L60.6698537,28.9445455 L60.1603902,30.4527273 C60.134439,30.5495455 60.0729756,30.6518182 59.9678049,30.7540909 C59.8653659,30.8563636 59.6919024,30.9081818 59.4487805,30.9081818 L57.1527805,30.9081818 C57.0435122,30.9081818 56.9492683,30.87 56.8700488,30.7895455 C56.7908293,30.7104545 56.7512195,30.6163636 56.7512195,30.5072727 C56.7512195,30.4472727 56.7758049,30.3572727 56.8249756,30.2359091 L60.796878,18.7745455 C60.8446829,18.6409091 60.9334634,18.5086364 61.0604878,18.375 C61.1875122,18.2413636 61.3732683,18.1745455 61.6163902,18.1745455 L64.5720976,18.1745455 Z M61.6204878,26.1245455 L64.5720976,26.1245455 L63.0956098,21.7595455 L61.6204878,26.1245455 Z M80.2794146,18.1745455 C80.4132683,18.1745455 80.528,18.2236364 80.6249756,18.3204545 C80.7219512,18.4172727 80.771122,18.5318182 80.771122,18.6654545 L80.771122,20.5936364 C80.771122,20.7286364 80.7219512,20.8431818 80.6249756,20.94 C80.528,21.0368182 80.4132683,21.0845455 80.2794146,21.0845455 L77.0723902,21.0845455 L77.0723902,30.4172727 C77.0723902,30.5509091 77.0232195,30.6668182 76.9262439,30.7636364 C76.8292683,30.8604545 76.7145366,30.9081818 76.5806829,30.9081818 L74.1931707,30.9081818 C74.0593171,30.9081818 73.9432195,30.8604545 73.8476098,30.7636364 C73.7506341,30.6668182 73.7014634,30.5509091 73.7014634,30.4172727 L73.7014634,21.0845455 L70.494439,21.0845455 C70.3605854,21.0845455 70.2444878,21.0368182 70.148878,20.94 C70.0519024,20.8431818 70.0027317,20.7286364 70.0027317,20.5936364 L70.0027317,18.6654545 C70.0027317,18.5318182 70.0519024,18.4172727 70.148878,18.3204545 C70.2444878,18.2236364 70.3605854,18.1745455 70.494439,18.1745455 L80.2794146,18.1745455 Z" id="Combined-Shape" fill="#773CBC"></path>
        <path d="M24.9268293,59.9427273 C24.620878,59.9427273 24.3176585,59.8609091 24.0458537,59.6986364 C23.5322927,59.3904545 23.2195122,58.8368182 23.2195122,58.2381818 L23.2195122,47.5568182 L9.4995122,47.5568182 C4.79278049,47.5568182 0.962926829,43.7331818 0.962926829,39.0340909 L0.962926829,8.58 C0.962926829,3.88090909 4.79278049,0.0572727273 9.4995122,0.0572727273 L102.500488,0.0572727273 C107.20722,0.0572727273 111.037073,3.88090909 111.037073,8.58 L111.037073,39.0354545 C111.037073,43.7345455 107.20722,47.5581818 102.500488,47.5581818 L48.7418537,47.5581818 L25.7272195,59.7463636 C25.4759024,59.8772727 25.2013659,59.9427273 24.9268293,59.9427273 Z M9.4995122,3.46636364 C6.67629268,3.46636364 4.37756098,5.76136364 4.37756098,8.58 L4.37756098,39.0354545 C4.37756098,41.8540909 6.67629268,44.1490909 9.4995122,44.1490909 L24.9268293,44.1490909 C25.8692683,44.1490909 26.6341463,44.9127273 26.6341463,45.8536364 L26.6341463,55.4059091 L47.5166829,44.3481818 C47.7639024,44.2172727 48.038439,44.1490909 48.3170732,44.1490909 L102.500488,44.1490909 C105.323707,44.1490909 107.622439,41.8540909 107.622439,39.0354545 L107.622439,8.58 C107.622439,5.76136364 105.323707,3.46636364 102.500488,3.46636364 L9.4995122,3.46636364 Z" id="Shape" fill="#000000" fill-rule="nonzero"></path>
    </g>
</svg>