<svg width="62" height="18" viewBox="0 0 62 18" fill="none" xmlns="http://www.w3.org/2000/svg">
<path fill-rule="evenodd" clip-rule="evenodd" d="M28.9557 7.96799C28.946 8.07971 28.9402 8.23381 28.9354 8.43028C28.9306 8.62771 28.9286 8.83092 28.9286 9.04088C28.9286 9.25083 28.9306 9.45694 28.9354 9.65822C28.9402 9.85951 28.946 10.0155 28.9557 10.1263C28.973 10.3237 29.0116 10.5115 29.0714 10.6916C29.1312 10.8727 29.2258 11.0306 29.3541 11.1674C29.4833 11.3051 29.6464 11.4139 29.8431 11.4948C30.0409 11.5767 30.285 11.6172 30.5773 11.6172C30.8686 11.6172 31.1088 11.5834 31.2979 11.5151C31.486 11.4467 31.6403 11.3629 31.7609 11.2637C31.8805 11.1655 31.9731 11.0566 32.0368 10.9362C32.1014 10.8159 32.1506 10.7051 32.1844 10.6021C32.2278 10.4643 32.2751 10.369 32.3262 10.3122C32.3773 10.2563 32.4757 10.2293 32.6223 10.2293H34.3086C34.3848 10.2293 34.4513 10.2563 34.5073 10.3122C34.5632 10.369 34.5912 10.4345 34.5912 10.5115C34.5825 10.9488 34.4755 11.36 34.27 11.7443C34.0635 12.1295 33.7799 12.4637 33.4201 12.7469C33.0593 13.03 32.6368 13.2544 32.1525 13.421C31.6683 13.5886 31.1425 13.6724 30.5763 13.6724C29.9579 13.6724 29.4071 13.5799 28.9219 13.396C28.4376 13.212 28.0228 12.9616 27.6804 12.6448C27.3379 12.3279 27.0736 11.9571 26.8894 11.5334C26.7051 11.1096 26.6 10.6627 26.5739 10.1908C26.5565 9.83928 26.5488 9.46272 26.5488 9.05918C26.5488 8.6566 26.5575 8.27233 26.5739 7.90346C26.5922 7.43251 26.6945 6.98467 26.8826 6.55995C27.0707 6.13715 27.336 5.76636 27.6736 5.4495C28.0132 5.13264 28.427 4.88224 28.9161 4.69828C29.4052 4.51433 29.9579 4.42188 30.5763 4.42188C31.1425 4.42188 31.6683 4.50566 32.1525 4.67228C32.6378 4.83986 33.0593 5.06426 33.4201 5.34645C33.7799 5.6296 34.0635 5.96379 34.27 6.34903C34.4755 6.73427 34.5825 7.14551 34.5912 7.58179C34.5912 7.65884 34.5632 7.72529 34.5073 7.78115C34.4513 7.83701 34.3848 7.86494 34.3086 7.86494H32.6233C32.4776 7.86494 32.3783 7.83701 32.3271 7.78115C32.2751 7.72529 32.2278 7.62994 32.1853 7.49222C32.1516 7.38917 32.1024 7.27745 32.0378 7.15803C31.9741 7.03764 31.8815 6.92881 31.7619 6.82961C31.6413 6.73138 31.4869 6.64855 31.2988 6.57921C31.1097 6.51083 30.8695 6.47712 30.5782 6.47712C30.2859 6.47712 30.0419 6.51757 29.8441 6.59847C29.6473 6.68033 29.4843 6.78916 29.355 6.92689C29.2267 7.06365 29.1322 7.22256 29.0724 7.40169C29.0116 7.58275 28.973 7.77152 28.9557 7.96799ZM43.1892 4.55093C43.2838 4.55093 43.3648 4.5856 43.4333 4.65398C43.5018 4.72236 43.5355 4.80326 43.5355 4.89764V13.1976C43.5355 13.292 43.5018 13.3738 43.4333 13.4422C43.3648 13.5106 43.2838 13.5443 43.1892 13.5443H41.503C41.4085 13.5443 41.3265 13.5106 41.258 13.4422C41.1895 13.3738 41.1557 13.292 41.1557 13.1976V10.0492H38.2984V13.1976C38.2984 13.292 38.2646 13.3738 38.1961 13.4422C38.1277 13.5106 38.0466 13.5443 37.9521 13.5443H36.2659C36.1713 13.5443 36.0893 13.5125 36.0218 13.448C35.9533 13.3835 35.9186 13.2997 35.9186 13.1966V4.89668C35.9186 4.8023 35.9533 4.7214 36.0218 4.65302C36.0893 4.58464 36.1713 4.54997 36.2659 4.54997H37.9521C38.0466 4.54997 38.1277 4.58464 38.1961 4.65302C38.2646 4.7214 38.2984 4.8023 38.2984 4.89668V7.99399H41.1557V4.89668C41.1557 4.8023 41.1895 4.7214 41.258 4.65302C41.3265 4.58464 41.4085 4.54997 41.503 4.54997H43.1892V4.55093ZM50.0991 4.55093C50.2708 4.55093 50.401 4.59908 50.4908 4.69251C50.5814 4.78689 50.6432 4.88031 50.6769 4.97469L53.4831 13.0695C53.5169 13.1552 53.5343 13.2188 53.5343 13.2612C53.5343 13.3382 53.5063 13.4047 53.4503 13.4605C53.3944 13.5173 53.3288 13.5443 53.2516 13.5443H51.6291C51.4573 13.5443 51.3348 13.5077 51.2625 13.4355C51.1901 13.3632 51.1448 13.292 51.1274 13.2226L50.7666 12.1575H47.3431L46.9832 13.2226C46.9649 13.291 46.9215 13.3632 46.8472 13.4355C46.7749 13.5077 46.6524 13.5443 46.4807 13.5443H44.8591C44.7819 13.5443 44.7153 13.5173 44.6594 13.4605C44.6034 13.4047 44.5755 13.3382 44.5755 13.2612C44.5755 13.2188 44.5928 13.1552 44.6275 13.0695L47.4328 4.97469C47.4665 4.88031 47.5292 4.78689 47.619 4.69251C47.7087 4.59812 47.8399 4.55093 48.0116 4.55093H50.0991ZM48.0145 10.1658H50.0991L49.0563 7.08291L48.0145 10.1658ZM61.1927 4.55093C61.2872 4.55093 61.3683 4.5856 61.4368 4.65398C61.5053 4.72236 61.54 4.80326 61.54 4.89764V6.25946C61.54 6.35481 61.5053 6.43571 61.4368 6.50409C61.3683 6.57247 61.2872 6.60617 61.1927 6.60617H58.9277V13.1976C58.9277 13.292 58.893 13.3738 58.8245 13.4422C58.756 13.5106 58.6749 13.5443 58.5804 13.5443H56.8942C56.7996 13.5443 56.7176 13.5106 56.6501 13.4422C56.5816 13.3738 56.5469 13.292 56.5469 13.1976V6.60617H54.2819C54.1873 6.60617 54.1053 6.57247 54.0378 6.50409C53.9693 6.43571 53.9346 6.35481 53.9346 6.25946V4.89764C53.9346 4.80326 53.9693 4.72236 54.0378 4.65398C54.1053 4.5856 54.1873 4.55093 54.2819 4.55093H61.1927Z" fill="#773CBC"/>
<path d="M13.056 11.7966C14.3933 11.2328 15.4491 10.4653 16.2227 9.49398C16.9962 8.52285 17.383 7.46527 17.383 6.32121C17.383 5.1771 16.9962 4.11944 16.2224 3.14826C15.4488 2.17708 14.3933 1.40957 13.0558 0.845647C11.7183 0.28181 10.2636 0 8.69145 0C7.11942 0 5.6647 0.281983 4.32713 0.845647C2.98969 1.40953 1.9341 2.17704 1.16054 3.14826C0.386889 4.11961 0 5.1771 0 6.32125C0 7.3006 0.292621 8.22283 0.876955 9.08703C1.46125 9.95106 2.26378 10.6796 3.2843 11.2721C3.20205 11.4698 3.11769 11.6507 3.03124 11.8155C2.94476 11.9801 2.84197 12.1384 2.72254 12.2908C2.60319 12.4432 2.51069 12.5625 2.44479 12.6486C2.37893 12.735 2.27195 12.8567 2.12372 13.0128C1.97553 13.1692 1.88083 13.2721 1.83975 13.3213C1.83975 13.3131 1.82327 13.3317 1.79032 13.377C1.75733 13.4222 1.73882 13.4427 1.73475 13.4389C1.7306 13.4344 1.71413 13.455 1.68533 13.5003C1.65653 13.5456 1.64208 13.5682 1.64208 13.5682L1.61117 13.6297C1.59897 13.6546 1.59058 13.6789 1.58652 13.7038C1.58237 13.7283 1.58029 13.7552 1.58029 13.7839C1.58029 13.8126 1.58436 13.8393 1.59275 13.8641C1.60922 13.971 1.65653 14.0572 1.73471 14.1234C1.81285 14.1891 1.89713 14.2219 1.98776 14.2219H2.02482C2.43627 14.1643 2.79026 14.0985 3.08651 14.0244C4.35403 13.6953 5.49818 13.1683 6.51874 12.4441C7.25944 12.5758 7.98375 12.6416 8.69154 12.6416C10.2637 12.6422 11.7186 12.3604 13.056 11.7966Z" fill="#C3AEDD"/>
<path d="M21.2477 12.2524C21.8322 11.3924 22.1243 10.4688 22.1243 9.48105C22.1243 8.46857 21.8153 7.52148 21.1982 6.64089C20.5808 5.76039 19.7412 5.02774 18.6795 4.44336C18.8687 5.0606 18.9633 5.6861 18.9633 6.31999C18.9633 7.4228 18.688 8.4681 18.1362 9.45588C17.5847 10.4434 16.7946 11.3157 15.7658 12.0731C14.811 12.7644 13.7245 13.2951 12.5063 13.6656C11.2884 14.0359 10.0167 14.2212 8.69156 14.2212C8.44473 14.2212 8.08253 14.2049 7.60522 14.1721C9.2595 15.2583 11.202 15.8016 13.4324 15.8016C14.1403 15.8016 14.8645 15.7357 15.6054 15.604C16.6259 16.3285 17.7701 16.855 19.0375 17.1845C19.3338 17.2587 19.6877 17.3244 20.0993 17.382C20.198 17.3902 20.2887 17.3614 20.371 17.2955C20.4533 17.2297 20.5068 17.1394 20.5314 17.0243C20.5275 16.9749 20.5314 16.9478 20.5438 16.9439C20.556 16.94 20.5539 16.9131 20.5376 16.8638C20.5213 16.8143 20.513 16.7896 20.513 16.7896L20.4822 16.728C20.4737 16.7118 20.4597 16.689 20.439 16.6603C20.4184 16.6317 20.4021 16.6108 20.3896 16.5986C20.3775 16.5863 20.3591 16.5656 20.3343 16.537C20.3097 16.5084 20.2931 16.4898 20.2848 16.4815C20.2437 16.4321 20.1491 16.3292 20.001 16.1728C19.8527 16.0166 19.7459 15.8952 19.68 15.8088C19.6142 15.7223 19.5216 15.6031 19.4023 15.4507C19.283 15.2985 19.18 15.14 19.0935 14.9754C19.0071 14.8108 18.9228 14.6297 18.8405 14.4323C19.8611 13.8391 20.6634 13.1128 21.2477 12.2524Z" fill="#C3AEDD"/>
</svg>
