<svg width="93" height="33" viewBox="0 0 93 33" fill="none" xmlns="http://www.w3.org/2000/svg">
<path d="M61.696 0.612328C61.4095 0.612457 61.1259 0.669048 60.8613 0.778863C60.5967 0.888679 60.3564 1.04957 60.154 1.25233C59.754 1.65233 59.514 2.21733 59.514 2.79733V29.1703C59.514 29.7503 59.744 30.3053 60.154 30.7153C60.3565 30.9181 60.5969 31.0789 60.8616 31.1886C61.1263 31.2984 61.41 31.3548 61.6965 31.3548C61.983 31.3548 62.2667 31.2984 62.5314 31.1886C62.7961 31.0789 63.0365 30.9181 63.239 30.7153C63.639 30.3153 63.879 29.7503 63.879 29.1703V2.79633C63.879 2.21633 63.649 1.66133 63.239 1.25133C63.0365 1.04845 62.796 0.887491 62.5312 0.777672C62.2665 0.667852 61.9826 0.611326 61.696 0.611328V0.612328ZM28.454 9.90833C28.454 8.70233 27.477 7.72433 26.274 7.72433C25.071 7.72433 24.094 8.70233 24.094 9.90833V29.1683C24.094 30.3743 25.071 31.3523 26.274 31.3523C27.477 31.3523 28.454 30.3743 28.454 29.1683V9.90833Z" fill="#5A646E"/>
<path d="M29.07 2.8C29.0559 3.53269 28.755 4.23063 28.232 4.744C27.709 5.257 27.006 5.544 26.274 5.544C25.542 5.544 24.839 5.256 24.316 4.744C23.7931 4.23063 23.4922 3.53269 23.478 2.8C23.4777 2.05752 23.7723 1.34531 24.297 0.82C24.82 0.295 25.53 0 26.273 0C27.016 0 27.726 0.295 28.25 0.82C28.7748 1.34531 29.0693 2.05752 29.069 2.8H29.07Z" fill="#00AEEF"/>
<path d="M55.572 14.6946C53.476 9.94857 48.517 6.59456 42.859 7.17456C40.9514 7.3762 39.1165 8.01695 37.498 9.04656C35.8789 10.0769 34.5202 11.4678 33.528 13.1106C32.5355 14.7542 31.9362 16.6051 31.777 18.5186C31.617 20.4326 31.903 22.3586 32.61 24.1426C33.3169 25.9271 34.4268 27.524 35.853 28.8086C37.2789 30.0921 38.9822 31.0285 40.83 31.5446C42.677 32.0606 44.63 32.1406 46.503 31.7796C48.376 31.4186 50.161 30.6266 51.688 29.4646C51.9447 29.2677 52.1542 29.0159 52.301 28.7276C52.448 28.4396 52.529 28.1216 52.537 27.7976C52.5534 27.223 52.3412 26.6654 51.947 26.2471C51.5527 25.8288 51.0086 25.5841 50.434 25.5666C49.9403 25.5507 49.456 25.7046 49.062 26.0026C47.5516 27.169 45.674 27.757 43.768 27.6606C42.218 27.5806 40.722 27.0576 39.468 26.1556C38.2031 25.2532 37.2217 24.0089 36.639 22.5686C36.5595 22.3744 36.5547 22.1577 36.6254 21.9601C36.6961 21.7626 36.8374 21.5982 37.022 21.4986C37.1444 21.4328 37.2811 21.3985 37.42 21.3986H52.565C53.049 21.4006 53.529 21.3066 53.977 21.1226C54.425 20.9386 54.832 20.6676 55.175 20.3256C55.518 19.9836 55.791 19.5776 55.977 19.1296C56.1632 18.6821 56.2593 18.2022 56.26 17.7176C56.23 16.6776 56 15.6516 55.586 14.6976L55.572 14.6946ZM44.147 11.4426C45.7684 11.443 47.3524 11.93 48.694 12.8406C50.0364 13.7522 51.0745 15.0456 51.674 16.5536C51.7246 16.6822 51.7435 16.8211 51.729 16.9586C51.714 17.0959 51.6657 17.2275 51.5883 17.342C51.511 17.4565 51.4069 17.5504 51.285 17.6156C51.163 17.6806 51.027 17.7156 50.889 17.7156H37.404C37.2658 17.7157 37.1296 17.6814 37.008 17.6156C36.886 17.5496 36.782 17.4556 36.704 17.3426C36.626 17.2296 36.578 17.0966 36.564 16.9586C36.5495 16.8211 36.5684 16.6822 36.619 16.5536C37.2185 15.0456 38.2566 13.7522 39.599 12.8406C40.941 11.9406 42.525 11.4426 44.146 11.4426H44.147ZM79.57 27.6686C78.0155 27.6689 76.4938 27.2214 75.187 26.3796C73.88 25.5376 72.842 24.3366 72.187 22.9196C71.5425 21.5031 71.3186 19.9312 71.542 18.3911C71.7654 16.851 72.4266 15.4076 73.447 14.2326L70.147 11.4156C69.0786 12.6564 68.2664 14.0964 67.757 15.6526C67.2464 17.2088 67.0476 18.8504 67.172 20.4836C67.296 22.1166 67.742 23.7096 68.472 25.1706C69.2122 26.6309 70.2334 27.9307 71.477 28.9956C72.72 30.0606 74.161 30.8686 75.717 31.3756C77.2727 31.8821 78.9132 32.0759 80.544 31.9456C82.174 31.8156 83.764 31.3636 85.22 30.6156C86.6763 29.8685 87.9708 28.8412 89.029 27.5926L85.729 24.7766C84.9696 25.6827 84.0206 26.4112 82.949 26.9106C81.877 27.4106 80.711 27.6686 79.529 27.6676L79.57 27.6686Z" fill="#5A646E"/>
<path d="M79.57 7.09962C77.785 7.09762 76.02 7.48162 74.4 8.22462C72.7767 8.96822 71.3331 10.0536 70.168 11.4066L73.458 14.2236C74.86 12.6066 76.843 11.6106 78.975 11.4536C81.107 11.2966 83.215 11.9866 84.84 13.3786C86.465 14.7706 87.474 16.7486 87.65 18.8816C87.8243 21.0148 87.1494 23.1305 85.772 24.7686L89.062 27.5846C90.592 25.7726 91.575 23.5606 91.892 21.2086C92.2087 18.8566 91.8472 16.4631 90.85 14.3096C89.8531 12.1571 88.2615 10.3345 86.263 9.05662C84.26 7.78762 81.94 7.09962 79.57 7.09962Z" fill="#00AEEF"/>
<path d="M20.074 26.0994C19.698 25.7734 19.222 25.5854 18.724 25.5674C18.226 25.5494 17.739 25.7024 17.341 26.0004C16.141 26.9184 14.709 27.4824 13.206 27.6284C11.703 27.7744 10.189 27.4984 8.83603 26.8284C7.48303 26.1584 6.34203 25.1244 5.54303 23.8414C4.74434 22.5578 4.31987 21.0767 4.31739 19.5649C4.31492 18.0531 4.73455 16.5707 5.52903 15.2844C6.32288 13.9992 7.45993 12.9612 8.81203 12.2874C10.164 11.6144 11.677 11.3324 13.18 11.4734C14.683 11.6144 16.117 12.1734 17.32 13.0884C17.7139 13.392 18.2001 13.5511 18.6972 13.5391C19.1944 13.5271 19.6723 13.3447 20.051 13.0224C20.296 12.8124 20.491 12.5524 20.621 12.2594C20.751 11.9664 20.817 11.6464 20.811 11.3244C20.805 11.0024 20.725 10.6864 20.581 10.3994C20.437 10.1124 20.229 9.85944 19.976 9.66344C18.1338 8.25318 15.9333 7.38713 13.624 7.16344C11.314 6.93944 8.99003 7.36744 6.91103 8.39844C4.83203 9.42944 3.08403 11.0254 1.86203 12.9994C0.640029 14.9734 -0.00497115 17.2524 2.88503e-05 19.5744C0.00502885 21.8964 0.657029 24.1724 1.88503 26.1424C3.11303 28.1124 4.86703 29.6994 6.94903 30.7224C9.03103 31.7454 11.359 32.1664 13.666 31.9354C15.9743 31.704 18.1716 30.8307 20.009 29.4144C20.2588 29.2186 20.4618 28.9697 20.6034 28.6857C20.7451 28.4017 20.8218 28.0897 20.828 27.7724C20.8344 27.4552 20.7701 27.1405 20.6399 26.8512C20.5097 26.5618 20.3167 26.305 20.075 26.0994H20.074Z" fill="#5A646E"/>
</svg>
