<svg width="93" height="52" viewBox="0 0 93 52" fill="none" xmlns="http://www.w3.org/2000/svg">
<path d="M61.696 0.612328C61.4095 0.612457 61.1259 0.669048 60.8613 0.778863C60.5967 0.888679 60.3564 1.04957 60.154 1.25233C59.754 1.65233 59.514 2.21733 59.514 2.79733V29.1703C59.514 29.7503 59.744 30.3053 60.154 30.7153C60.3565 30.9181 60.5969 31.0789 60.8616 31.1886C61.1263 31.2984 61.41 31.3548 61.6965 31.3548C61.983 31.3548 62.2667 31.2984 62.5314 31.1886C62.7961 31.0789 63.0365 30.9181 63.239 30.7153C63.639 30.3153 63.879 29.7503 63.879 29.1703V2.79633C63.879 2.21633 63.649 1.66133 63.239 1.25133C63.0365 1.04845 62.796 0.887491 62.5312 0.777672C62.2665 0.667852 61.9826 0.611326 61.696 0.611328V0.612328ZM28.454 9.90833C28.454 8.70233 27.477 7.72433 26.274 7.72433C25.071 7.72433 24.094 8.70233 24.094 9.90833V29.1683C24.094 30.3743 25.071 31.3523 26.274 31.3523C27.477 31.3523 28.454 30.3743 28.454 29.1683V9.90833Z" fill="#5A646E"/>
<path d="M29.07 2.8C29.0559 3.53269 28.755 4.23063 28.232 4.744C27.709 5.257 27.006 5.544 26.274 5.544C25.542 5.544 24.839 5.256 24.316 4.744C23.7931 4.23063 23.4922 3.53269 23.478 2.8C23.4777 2.05752 23.7723 1.34531 24.297 0.82C24.82 0.295 25.53 0 26.273 0C27.016 0 27.726 0.295 28.25 0.82C28.7748 1.34531 29.0693 2.05752 29.069 2.8H29.07Z" fill="#00AEEF"/>
<path d="M55.572 14.6946C53.476 9.94857 48.517 6.59456 42.859 7.17456C40.9514 7.3762 39.1165 8.01695 37.498 9.04656C35.8789 10.0769 34.5202 11.4678 33.528 13.1106C32.5355 14.7542 31.9362 16.6051 31.777 18.5186C31.617 20.4326 31.903 22.3586 32.61 24.1426C33.3169 25.9271 34.4268 27.524 35.853 28.8086C37.2789 30.0921 38.9822 31.0285 40.83 31.5446C42.677 32.0606 44.63 32.1406 46.503 31.7796C48.376 31.4186 50.161 30.6266 51.688 29.4646C51.9447 29.2677 52.1542 29.0159 52.301 28.7276C52.448 28.4396 52.529 28.1216 52.537 27.7976C52.5534 27.223 52.3412 26.6654 51.947 26.2471C51.5527 25.8288 51.0086 25.5841 50.434 25.5666C49.9403 25.5507 49.456 25.7046 49.062 26.0026C47.5516 27.169 45.674 27.757 43.768 27.6606C42.218 27.5806 40.722 27.0576 39.468 26.1556C38.2031 25.2532 37.2217 24.0089 36.639 22.5686C36.5595 22.3744 36.5547 22.1577 36.6254 21.9601C36.6961 21.7626 36.8374 21.5982 37.022 21.4986C37.1444 21.4328 37.2811 21.3985 37.42 21.3986H52.565C53.049 21.4006 53.529 21.3066 53.977 21.1226C54.425 20.9386 54.832 20.6676 55.175 20.3256C55.518 19.9836 55.791 19.5776 55.977 19.1296C56.1632 18.6821 56.2593 18.2022 56.26 17.7176C56.23 16.6776 56 15.6516 55.586 14.6976L55.572 14.6946ZM44.147 11.4426C45.7684 11.443 47.3524 11.93 48.694 12.8406C50.0364 13.7522 51.0745 15.0456 51.674 16.5536C51.7246 16.6822 51.7435 16.8211 51.729 16.9586C51.714 17.0959 51.6657 17.2275 51.5883 17.342C51.511 17.4565 51.4069 17.5504 51.285 17.6156C51.163 17.6806 51.027 17.7156 50.889 17.7156H37.404C37.2658 17.7157 37.1296 17.6814 37.008 17.6156C36.886 17.5496 36.782 17.4556 36.704 17.3426C36.626 17.2296 36.578 17.0966 36.564 16.9586C36.5495 16.8211 36.5684 16.6822 36.619 16.5536C37.2185 15.0456 38.2566 13.7522 39.599 12.8406C40.941 11.9406 42.525 11.4426 44.146 11.4426H44.147ZM79.57 27.6686C78.0155 27.6689 76.4938 27.2214 75.187 26.3796C73.88 25.5376 72.842 24.3366 72.187 22.9196C71.5425 21.5031 71.3186 19.9312 71.542 18.3911C71.7654 16.851 72.4266 15.4076 73.447 14.2326L70.147 11.4156C69.0786 12.6564 68.2664 14.0964 67.757 15.6526C67.2464 17.2088 67.0476 18.8504 67.172 20.4836C67.296 22.1166 67.742 23.7096 68.472 25.1706C69.2122 26.6309 70.2334 27.9307 71.477 28.9956C72.72 30.0606 74.161 30.8686 75.717 31.3756C77.2727 31.8821 78.9132 32.0759 80.544 31.9456C82.174 31.8156 83.764 31.3636 85.22 30.6156C86.6763 29.8685 87.9708 28.8412 89.029 27.5926L85.729 24.7766C84.9696 25.6827 84.0206 26.4112 82.949 26.9106C81.877 27.4106 80.711 27.6686 79.529 27.6676L79.57 27.6686Z" fill="#5A646E"/>
<path d="M79.57 7.09962C77.785 7.09762 76.02 7.48162 74.4 8.22462C72.7767 8.96822 71.3331 10.0536 70.168 11.4066L73.458 14.2236C74.86 12.6066 76.843 11.6106 78.975 11.4536C81.107 11.2966 83.215 11.9866 84.84 13.3786C86.465 14.7706 87.474 16.7486 87.65 18.8816C87.8243 21.0148 87.1494 23.1305 85.772 24.7686L89.062 27.5846C90.592 25.7726 91.575 23.5606 91.892 21.2086C92.2087 18.8566 91.8472 16.4631 90.85 14.3096C89.8531 12.1571 88.2615 10.3345 86.263 9.05662C84.26 7.78762 81.94 7.09962 79.57 7.09962Z" fill="#00AEEF"/>
<path d="M20.074 26.0994C19.698 25.7734 19.222 25.5854 18.724 25.5674C18.226 25.5494 17.739 25.7024 17.341 26.0004C16.141 26.9184 14.709 27.4824 13.206 27.6284C11.703 27.7744 10.189 27.4984 8.83603 26.8284C7.48303 26.1584 6.34203 25.1244 5.54303 23.8414C4.74434 22.5578 4.31987 21.0767 4.31739 19.5649C4.31492 18.0531 4.73455 16.5707 5.52903 15.2844C6.32288 13.9992 7.45993 12.9612 8.81203 12.2874C10.164 11.6144 11.677 11.3324 13.18 11.4734C14.683 11.6144 16.117 12.1734 17.32 13.0884C17.7139 13.392 18.2001 13.5511 18.6972 13.5391C19.1944 13.5271 19.6723 13.3447 20.051 13.0224C20.296 12.8124 20.491 12.5524 20.621 12.2594C20.751 11.9664 20.817 11.6464 20.811 11.3244C20.805 11.0024 20.725 10.6864 20.581 10.3994C20.437 10.1124 20.229 9.85944 19.976 9.66344C18.1338 8.25318 15.9333 7.38713 13.624 7.16344C11.314 6.93944 8.99003 7.36744 6.91103 8.39844C4.83203 9.42944 3.08403 11.0254 1.86203 12.9994C0.640029 14.9734 -0.00497115 17.2524 2.88503e-05 19.5744C0.00502885 21.8964 0.657029 24.1724 1.88503 26.1424C3.11303 28.1124 4.86703 29.6994 6.94903 30.7224C9.03103 31.7454 11.359 32.1664 13.666 31.9354C15.9743 31.704 18.1716 30.8307 20.009 29.4144C20.2588 29.2186 20.4618 28.9697 20.6034 28.6857C20.7451 28.4017 20.8218 28.0897 20.828 27.7724C20.8344 27.4552 20.7701 27.1405 20.6399 26.8512C20.5097 26.5618 20.3167 26.305 20.075 26.0994H20.074Z" fill="#5A646E"/>
<rect x="11" y="36" width="70.05" height="15.1775" rx="6.5" fill="#5A646E"/>
<path fill-rule="evenodd" clip-rule="evenodd" d="M21.4899 47.749L18.5163 40.3412H20.3026L22.2254 45.5214L24.1483 40.3412H25.8926L22.9189 47.749H21.4899ZM27.028 47.6965V40.3412H32.576V41.7807H28.6356V43.2728H32.1031V44.7123H28.6356V46.2569H32.6285V47.6965H27.028ZM34.067 47.6965V40.3412H37.4294C38.3646 40.3412 39.0896 40.6039 39.573 41.0872C39.9828 41.497 40.2034 42.0749 40.2034 42.7684V42.7895C40.2034 43.9768 39.5625 44.7228 38.6273 45.0696L40.4241 47.6965H38.5327L36.9566 45.3428H35.6852V47.6965H34.067ZM35.6861 43.8778H37.3253C38.1133 43.8778 38.5651 43.4575 38.5651 42.8376V42.8166C38.5651 42.1231 38.0818 41.7658 37.2937 41.7658H35.6861V43.8778ZM44.2805 47.7897C43.1667 47.7897 42.0424 47.4009 41.1598 46.6129L42.116 45.4675C42.7779 46.0139 43.4714 46.3607 44.312 46.3607C44.974 46.3607 45.3733 46.098 45.3733 45.6672V45.6462C45.3733 45.2364 45.1211 45.0262 43.8917 44.711C42.4102 44.3327 41.454 43.9229 41.454 42.4624V42.4414C41.454 41.1069 42.5258 40.2243 44.0283 40.2243C45.1001 40.2243 46.0143 40.5605 46.7603 41.1595L45.9197 42.3783C45.2682 41.9265 44.6273 41.6533 44.0073 41.6533C43.3874 41.6533 43.0617 41.937 43.0617 42.2943V42.3153C43.0617 42.7986 43.3769 42.9563 44.6483 43.282C46.1403 43.6708 46.9809 44.2066 46.9809 45.4886V45.5096C46.9809 46.9701 45.8672 47.7897 44.2805 47.7897ZM47.6017 47.6638L50.754 40.256H52.246L55.3983 47.6638H53.7066L53.0341 46.0141H49.9239L49.2514 47.6638H47.6017ZM50.5013 44.5731H52.4557L51.4785 42.1879L50.5013 44.5731ZM50.1972 39.7377L49.3461 39.475C49.5877 38.5924 49.924 38.025 50.6595 38.025C51.311 38.025 51.9204 38.4348 52.2987 38.4348C52.6244 38.4348 52.761 38.2562 52.9081 37.9199L53.7592 38.1826C53.5175 39.0652 53.1813 39.6326 52.4458 39.6326C51.7943 39.6326 51.1849 39.2229 50.8066 39.2229C50.4809 39.2229 50.3443 39.4015 50.1972 39.7377ZM59.6325 47.8198C57.3628 47.8198 55.7342 46.1281 55.7342 44.0371V44.0161C55.7342 41.9251 57.3839 40.2124 59.6535 40.2124C61.9231 40.2124 63.5518 41.9041 63.5518 43.9951V44.0161C63.5518 46.1071 61.9021 47.8198 59.6325 47.8198ZM59.6541 46.3257C60.957 46.3257 61.8607 45.296 61.8607 44.0351V44.0141C61.8607 42.7532 60.936 41.7024 59.6331 41.7024C58.3301 41.7024 57.4265 42.7322 57.4265 43.9931V44.0141C57.4265 45.275 58.3512 46.3257 59.6541 46.3257ZM70.5281 47.8225C69.2042 47.8225 68.29 47.2972 67.6596 46.5511L68.7733 45.4899C69.2777 46.0573 69.8031 46.3725 70.5491 46.3725C71.1585 46.3725 71.5894 46.0258 71.5894 45.4794V45.4584C71.5894 44.8594 71.0535 44.5232 70.1498 44.5232H69.4773L69.2252 43.4935L70.9799 41.7282H68.0904V40.3412H73.0604V41.5601L71.2006 43.3358C72.1988 43.504 73.176 44.0293 73.176 45.3953V45.4163C73.176 46.8033 72.1673 47.8225 70.5281 47.8225Z" fill="black"/>
<path fill-rule="evenodd" clip-rule="evenodd" d="M21.4899 47.749L18.5163 40.3412H20.3026L22.2254 45.5214L24.1483 40.3412H25.8926L22.9189 47.749H21.4899ZM27.028 47.6965V40.3412H32.576V41.7807H28.6356V43.2728H32.1031V44.7123H28.6356V46.2569H32.6285V47.6965H27.028ZM34.067 47.6965V40.3412H37.4294C38.3646 40.3412 39.0896 40.6039 39.573 41.0872C39.9828 41.497 40.2034 42.0749 40.2034 42.7684V42.7895C40.2034 43.9768 39.5625 44.7228 38.6273 45.0696L40.4241 47.6965H38.5327L36.9566 45.3428H35.6852V47.6965H34.067ZM35.6861 43.8778H37.3253C38.1133 43.8778 38.5651 43.4575 38.5651 42.8376V42.8166C38.5651 42.1231 38.0818 41.7658 37.2937 41.7658H35.6861V43.8778ZM44.2805 47.7897C43.1667 47.7897 42.0424 47.4009 41.1598 46.6129L42.116 45.4675C42.7779 46.0139 43.4714 46.3607 44.312 46.3607C44.974 46.3607 45.3733 46.098 45.3733 45.6672V45.6462C45.3733 45.2364 45.1211 45.0262 43.8917 44.711C42.4102 44.3327 41.454 43.9229 41.454 42.4624V42.4414C41.454 41.1069 42.5258 40.2243 44.0283 40.2243C45.1001 40.2243 46.0143 40.5605 46.7603 41.1595L45.9197 42.3783C45.2682 41.9265 44.6273 41.6533 44.0073 41.6533C43.3874 41.6533 43.0617 41.937 43.0617 42.2943V42.3153C43.0617 42.7986 43.3769 42.9563 44.6483 43.282C46.1403 43.6708 46.9809 44.2066 46.9809 45.4886V45.5096C46.9809 46.9701 45.8672 47.7897 44.2805 47.7897ZM47.6017 47.6638L50.754 40.256H52.246L55.3983 47.6638H53.7066L53.0341 46.0141H49.9239L49.2514 47.6638H47.6017ZM50.5013 44.5731H52.4557L51.4785 42.1879L50.5013 44.5731ZM50.1972 39.7377L49.3461 39.475C49.5877 38.5924 49.924 38.025 50.6595 38.025C51.311 38.025 51.9204 38.4348 52.2987 38.4348C52.6244 38.4348 52.761 38.2562 52.9081 37.9199L53.7592 38.1826C53.5175 39.0652 53.1813 39.6326 52.4458 39.6326C51.7943 39.6326 51.1849 39.2229 50.8066 39.2229C50.4809 39.2229 50.3443 39.4015 50.1972 39.7377ZM59.6325 47.8198C57.3628 47.8198 55.7342 46.1281 55.7342 44.0371V44.0161C55.7342 41.9251 57.3839 40.2124 59.6535 40.2124C61.9231 40.2124 63.5518 41.9041 63.5518 43.9951V44.0161C63.5518 46.1071 61.9021 47.8198 59.6325 47.8198ZM59.6541 46.3257C60.957 46.3257 61.8607 45.296 61.8607 44.0351V44.0141C61.8607 42.7532 60.936 41.7024 59.6331 41.7024C58.3301 41.7024 57.4265 42.7322 57.4265 43.9931V44.0141C57.4265 45.275 58.3512 46.3257 59.6541 46.3257ZM70.5281 47.8225C69.2042 47.8225 68.29 47.2972 67.6596 46.5511L68.7733 45.4899C69.2777 46.0573 69.8031 46.3725 70.5491 46.3725C71.1585 46.3725 71.5894 46.0258 71.5894 45.4794V45.4584C71.5894 44.8594 71.0535 44.5232 70.1498 44.5232H69.4773L69.2252 43.4935L70.9799 41.7282H68.0904V40.3412H73.0604V41.5601L71.2006 43.3358C72.1988 43.504 73.176 44.0293 73.176 45.3953V45.4163C73.176 46.8033 72.1673 47.8225 70.5281 47.8225Z" fill="white"/>
</svg>
