<?xml version="1.0" encoding="UTF-8"?>
<svg width="104px" height="58px" viewBox="0 0 104 58" version="1.1" xmlns="http://www.w3.org/2000/svg" xmlns:xlink="http://www.w3.org/1999/xlink">
    <!-- Generator: Sketch 52.4 (67378) - http://www.bohemiancoding.com/sketch -->
    <title>Artboard</title>
    <desc>Created with Sketch.</desc>
    <defs>
        <path d="M23.2426316,53.43 L19.7572632,44.7473684 L21.8509474,44.7473684 L24.1047368,50.8190526 L26.3585263,44.7473684 L28.4029474,44.7473684 L24.9175789,53.43 L23.2426316,53.43 Z M29.7330526,53.3684211 L29.7330526,44.7473684 L36.2357895,44.7473684 L36.2357895,46.4346316 L31.6173684,46.4346316 L31.6173684,48.1834737 L35.6815789,48.1834737 L35.6815789,49.8707368 L31.6173684,49.8707368 L31.6173684,51.6811579 L36.2973684,51.6811579 L36.2973684,53.3684211 L29.7330526,53.3684211 Z M37.9846316,53.3684211 L37.9846316,44.7473684 L41.9256842,44.7473684 C43.0217895,44.7473684 43.8715789,45.0552632 44.4381053,45.6217895 C44.9184211,46.1021053 45.1770526,46.7794737 45.1770526,47.5923158 L45.1770526,47.6169474 C45.1770526,49.0086316 44.4257895,49.8830526 43.3296842,50.2894737 L45.4356842,53.3684211 L43.2188421,53.3684211 L41.3714737,50.6096842 L39.8812632,50.6096842 L39.8812632,53.3684211 L37.9846316,53.3684211 Z M39.8812632,48.9347368 L41.8025263,48.9347368 C42.7262105,48.9347368 43.2557895,48.4421053 43.2557895,47.7154737 L43.2557895,47.6908421 C43.2557895,46.878 42.6892632,46.4592632 41.7655789,46.4592632 L39.8812632,46.4592632 L39.8812632,48.9347368 Z M49.9555789,53.4915789 C48.6501053,53.4915789 47.3323158,53.0358947 46.2977895,52.1122105 L47.4185263,50.7697895 C48.1944211,51.4102105 49.0072632,51.8166316 49.9925263,51.8166316 C50.7684211,51.8166316 51.2364211,51.5087368 51.2364211,51.0037895 L51.2364211,50.9791579 C51.2364211,50.4988421 50.9408421,50.2525263 49.4998947,49.8830526 C47.7633684,49.4396842 46.6426316,48.9593684 46.6426316,47.2474737 L46.6426316,47.2228421 C46.6426316,45.6587368 47.8988421,44.6242105 49.66,44.6242105 C50.9162105,44.6242105 51.9876842,45.0183158 52.8621053,45.7203158 L51.8768421,47.1489474 C51.1132632,46.6193684 50.362,46.2991579 49.6353684,46.2991579 C48.9087368,46.2991579 48.5269474,46.6316842 48.5269474,47.0504211 L48.5269474,47.0750526 C48.5269474,47.6415789 48.8964211,47.8263158 50.3866316,48.2081053 C52.1354737,48.6637895 53.1207368,49.2918947 53.1207368,50.7944211 L53.1207368,50.8190526 C53.1207368,52.5309474 51.8152632,53.4915789 49.9555789,53.4915789 Z M53.8473684,53.3684211 L57.5421053,44.6857895 L59.2909474,44.6857895 L62.9856842,53.3684211 L61.0028421,53.3684211 L60.2146316,51.4348421 L56.5691579,51.4348421 L55.7809474,53.3684211 L53.8473684,53.3684211 Z M57.2465263,49.7598947 L59.5372632,49.7598947 L58.3918947,46.9642105 L57.2465263,49.7598947 Z M56.8893684,44.07 L55.8917895,43.7621053 C56.1750526,42.7275789 56.5691579,42.0625263 57.4312632,42.0625263 C58.1948421,42.0625263 58.9091579,42.5428421 59.3525263,42.5428421 C59.7343158,42.5428421 59.8944211,42.3334737 60.0668421,41.9393684 L61.0644211,42.2472632 C60.7811579,43.2817895 60.3870526,43.9468421 59.5249474,43.9468421 C58.7613684,43.9468421 58.0470526,43.4665263 57.6036842,43.4665263 C57.2218947,43.4665263 57.0617895,43.6758947 56.8893684,44.07 Z M67.9489474,53.5162105 C65.2887368,53.5162105 63.3797895,51.5333684 63.3797895,49.0825263 L63.3797895,49.0578947 C63.3797895,46.6070526 65.3133684,44.5995789 67.9735789,44.5995789 C70.6337895,44.5995789 72.5427368,46.5824211 72.5427368,49.0332632 L72.5427368,49.0578947 C72.5427368,51.5087368 70.6091579,53.5162105 67.9489474,53.5162105 Z M67.9735789,51.7673684 C69.5007368,51.7673684 70.5598947,50.5604211 70.5598947,49.0825263 L70.5598947,49.0578947 C70.5598947,47.58 69.4761053,46.3484211 67.9489474,46.3484211 C66.4217895,46.3484211 65.3626316,47.5553684 65.3626316,49.0332632 L65.3626316,49.0578947 C65.3626316,50.5357895 66.4464211,51.7673684 67.9735789,51.7673684 Z M80.7204211,53.5162105 C79.1686316,53.5162105 78.0971579,52.9004211 77.3582105,52.026 L78.6636842,50.7821053 C79.2548421,51.4471579 79.8706316,51.8166316 80.7450526,51.8166316 C81.4593684,51.8166316 81.9643158,51.4102105 81.9643158,50.7697895 L81.9643158,50.7451579 C81.9643158,50.0431579 81.3362105,49.6490526 80.2770526,49.6490526 L79.4888421,49.6490526 L79.1932632,48.4421053 L81.25,46.3730526 L77.8631579,46.3730526 L77.8631579,44.7473684 L83.6885263,44.7473684 L83.6885263,46.176 L81.5086316,48.2573684 C82.6786316,48.4544211 83.824,49.0702105 83.824,50.6712632 L83.824,50.6958947 C83.824,52.3215789 82.6416842,53.5162105 80.7204211,53.5162105 Z" id="path-1"></path>
    </defs>
    <g id="Artboard" stroke="none" stroke-width="1" fill="none" fill-rule="evenodd">
        <path d="M0.511789474,19.9734737 C0.634947368,19.6888421 0.614421053,19.3782105 0.659578947,19.0798947 C1.39852632,14.2904211 4.77578947,9.44210526 10.2864211,7.92726316 C12.0968421,7.42915789 13.9346316,7.34021053 15.7943158,7.54957895 C17.0327368,7.68915789 18.2396842,7.96557895 19.4288421,8.33368421 C19.5766316,8.37884211 19.6327368,8.41305263 19.5561053,8.58684211 C18.8595789,10.1769474 18.1726316,11.7711579 17.4897895,13.3667368 C17.4186316,13.5336842 17.3584211,13.5678947 17.1777895,13.5008421 C15.3495789,12.8289474 13.4871579,12.6729474 11.6493684,13.3886316 C8.58273684,14.5832632 6.78326316,16.8808421 6.24273684,20.0952632 C5.66526316,23.5286316 7.68368421,26.7485263 10.4082105,28.2578947 C13.4529474,29.9437895 16.3882105,29.6304211 19.188,27.638 C19.4384211,27.4587368 19.6737895,27.2562105 19.9077895,27.0564211 C19.9981053,26.9797895 20.0501053,26.9428421 20.1541053,27.0509474 C21.372,28.3317895 22.594,29.6098947 23.8214737,30.8811579 C23.9665263,31.0316842 23.8433684,31.0795789 23.7612632,31.1534737 C21.8331579,32.8913684 19.5916842,34.0203158 17.0505263,34.528 C14.1275789,35.1109474 11.2798947,34.8413684 8.554,33.6056842 C5.44357895,32.1962105 3.24863158,29.8657895 1.85421053,26.7690526 C1.17957895,25.2692632 0.733473684,23.7010526 0.559684211,22.0603158 C0.555578947,22.0247368 0.550105263,21.9932632 0.510421053,21.9823158 C0.511789474,21.3117895 0.511789474,20.6426316 0.511789474,19.9734737 Z M49.1208421,7.38126316 C55.2363158,7.38126316 60.3172632,11.0568421 62.3466316,16.9533684 C62.4355789,17.212 62.5012632,17.4788421 62.5997895,17.7347368 C62.6736842,17.9249474 62.608,17.992 62.4355789,18.0658947 C57.6570526,20.0911579 52.8798947,22.1218947 48.1041053,24.1526316 C44.7364211,25.5853684 41.3687368,27.0167368 38.0037895,28.4576842 C37.7957895,28.5466316 37.7041053,28.5137895 37.5891579,28.3235789 C36.0305263,25.7523158 35.2642105,22.9785263 35.4804211,19.9666316 C35.8717895,14.4915789 39.7143158,9.14789474 45.8325263,7.76305263 C46.9163158,7.51536842 48.0110526,7.38673684 49.1208421,7.38126316 Z M55.2595789,15.9352632 C55.2212632,15.8832632 55.1966316,15.8476842 55.1706316,15.8148421 C52.3243158,12.2802105 47.0093684,11.908 43.706,15.0197895 C42.3074737,16.3375789 41.5302105,17.9851579 41.1894737,19.8544211 C41.0594737,20.5701053 40.9992632,21.2912632 41.0238947,22.048 C45.7832632,20.0049474 50.5138947,17.9742105 55.2595789,15.9352632 Z M65.2463158,14.9773684 C65.2463158,10.4561053 65.2490526,5.93347368 65.2408421,1.41221053 C65.2408421,1.17136842 65.3078947,1.12210526 65.5364211,1.12347368 C67.0813684,1.13305263 68.6249474,1.13305263 70.1698947,1.12347368 C70.3724211,1.12210526 70.4408421,1.15357895 70.4408421,1.37936842 C70.4572632,6.96526316 70.4832632,12.5497895 70.5078947,18.1356842 C70.5215789,21.2502105 70.5366316,24.3647368 70.5421053,27.4792632 C70.5421053,27.6708421 70.5968421,27.7625263 70.7706316,27.8405263 C72.1171579,28.4330526 73.4568421,29.0392632 74.802,29.6345263 C74.9703158,29.7084211 75.0277895,29.7604211 74.9470526,29.9602105 C74.308,31.5188421 73.6812632,33.0815789 73.0586316,34.6470526 C72.9874737,34.8249474 72.9286316,34.8413684 72.7507368,34.7715789 C71.6997895,34.3596842 70.6365263,33.982 69.5896842,33.5605263 C68.51,33.1267368 67.5014737,32.5670526 66.6872632,31.7104211 C65.8566316,30.836 65.4132632,29.7891579 65.338,28.5931579 C65.2654737,27.4286316 65.3024211,26.26 65.2996842,25.0941053 C65.2928421,21.7223158 65.2969474,18.3505263 65.2969474,14.9773684 C65.2805263,14.9773684 65.2641053,14.9773684 65.2463158,14.9773684 Z M89.4673684,34.8618947 C85.6987368,34.7962105 82.5048421,33.3922105 79.8897895,30.6909474 C77.7947368,28.5261053 76.5344211,25.9315789 76.1115789,22.9511579 C75.7325263,20.2813684 76.1416842,17.7114737 77.1967368,15.236 C77.2487368,15.1155789 77.2897895,15.0854737 77.4156842,15.1484211 C79.0427368,15.9667368 80.6711579,16.7850526 82.3036842,17.5910526 C82.4870526,17.6813684 82.4049474,17.7675789 82.3570526,17.8688421 C81.8110526,19.0333684 81.5072632,20.2526316 81.5428421,21.5457895 C81.5907368,23.2672632 82.1996842,24.7807368 83.3217895,26.0670526 C85.1568421,28.1703158 87.49,29.2650526 90.2843158,29.276 C92.144,29.2828421 93.7710526,28.6328421 95.0888421,27.2876842 C95.1942105,27.1809474 95.2448421,27.1535789 95.3597895,27.2835789 C96.5078947,28.5698947 97.6628421,29.8507368 98.8191579,31.1274737 C98.9190526,31.2383158 98.9135789,31.2889474 98.7972632,31.3806316 C96.6707368,33.0391579 94.3225263,34.2187368 91.6445263,34.6771579 C90.9274737,34.8003158 90.2008421,34.8673684 89.4673684,34.8618947 Z M31.8595789,25.3541053 C31.8595789,28.236 31.8568421,31.1192632 31.8650526,34.0011579 C31.8664211,34.2597895 31.8103158,34.3418947 31.5338947,34.3391579 C29.9725263,34.3241053 28.4111579,34.3282105 26.8497895,34.3364211 C26.6636842,34.3377895 26.6075789,34.3008421 26.6062105,34.1010526 C26.5747368,28.5261053 26.5350526,22.9497895 26.5022105,17.3748421 C26.5008421,17.1873684 26.4378947,17.1093684 26.2750526,17.0382105 C24.9038947,16.4415789 23.5368421,15.8326316 22.1643158,15.2373684 C21.9836842,15.1593684 21.97,15.0882105 22.0452632,14.9198947 C22.7363158,13.3557895 23.4177895,11.7875789 24.1061053,10.2234737 C24.1430526,10.14 24.1362105,9.99084211 24.3250526,10.0647368 C25.5853684,10.5491579 26.8826316,10.9377895 28.0991579,11.5330526 C29.1405263,12.0421053 30.0970526,12.6647368 30.8250526,13.5884211 C31.5653684,14.5257895 31.9061053,15.6054737 31.9102105,16.7877895 C31.9211579,19.6436842 31.9129474,22.5009474 31.9129474,25.3568421 C31.8978947,25.3541053 31.8787368,25.3541053 31.8595789,25.3541053 Z M58.8817895,30.9728421 C58.1838947,31.5215789 57.4668421,32.032 56.7224211,32.5041053 C55.3061053,33.4031579 53.8145263,34.138 52.1765263,34.5416842 C50.0185263,35.074 47.8906316,34.8961053 45.7818947,34.2666316 C44.4914737,33.8821053 43.2585263,33.3552632 42.0474737,32.7695789 C41.886,32.6915789 41.8914737,32.6313684 41.9763158,32.4945263 C42.8849474,31.0522105 43.7894737,29.6085263 44.6857895,28.1593684 C44.7870526,27.9965263 44.8595789,27.9855789 45.0237895,28.0690526 C46.1198947,28.6314737 47.2652632,29.0433684 48.4968421,29.1966316 C50.4564211,29.4402105 52.2134737,28.9393684 53.7953684,27.7789474 C54.1142105,27.5449474 54.418,27.2945263 54.7026316,27.0208421 C54.7765263,26.9496842 54.8257895,26.9004211 54.9270526,27.0030526 C56.238,28.3276842 57.5544211,29.6441053 58.8817895,30.9728421 Z" id="Combined-Shape" fill="#000000"></path>
        <path d="M103.488211,21.7756842 C103.378737,22.0917895 103.396526,22.4270526 103.352737,22.7527368 C103.166632,24.1622105 102.791684,25.5196842 102.294947,26.8470526 C102.232,27.0153684 102.171789,27.0468421 102.004842,26.9661053 C100.435263,26.2189474 98.8629474,25.4772632 97.2865263,24.7451579 C97.1031579,24.6603158 97.1045263,24.5795789 97.1688421,24.4167368 C97.6081053,23.3069474 97.8749474,22.1533684 97.8557895,20.9587368 C97.8051579,17.7621053 96.3601053,15.3728421 93.5397895,13.8798947 C90.5662105,12.3062105 87.0261053,12.7728421 84.5041053,14.9978947 C84.344,15.1388421 84.2701053,15.1361053 84.1277895,14.9773684 C82.9673684,13.6787368 81.7987368,12.3896842 80.6287368,11.0992632 C80.5343158,10.9952632 80.4645263,10.9323158 80.6164211,10.8009474 C82.5910526,9.1 84.8503158,7.99157895 87.4256842,7.57421053 C90.2145263,7.12263158 92.9130526,7.47842105 95.4884211,8.64431579 C98.6604211,10.0811579 101.014105,12.3541053 102.422211,15.5630526 C103.002421,16.8849474 103.325368,18.2725263 103.438947,19.7107368 C103.443053,19.7654737 103.417053,19.8338947 103.488211,19.8694737 L103.488211,21.7756842 Z M29.6536842,0.717052632 C29.8931579,0.775894737 30.1367368,0.819684211 30.3721053,0.893578947 C32.0757895,1.43410526 33.1034737,3.01873684 32.9474737,4.84968421 C32.8106316,6.46305263 31.4586316,7.84242105 29.77,8.09010526 C27.4737895,8.42810526 25.4334737,6.62726316 25.4909474,4.31189474 C25.5333684,2.56442105 26.8785263,1.04 28.6136842,0.767684211 C28.6711579,0.758105263 28.7354737,0.773157895 28.7792632,0.717052632 L29.6536842,0.717052632 Z" id="Combined-Shape" fill="#1DAFEC"></path>
        <rect id="Rectangle" fill="#333333" x="10.9473684" y="39.6842105" width="82.1052632" height="17.7894737" rx="6.5"></rect>
        <g id="VERSÃO-3">
            <use fill="#000000" xlink:href="#path-1"></use>
            <use fill="#FFFFFF" xlink:href="#path-1"></use>
        </g>
    </g>
</svg>