<?xml version="1.0" encoding="UTF-8"?>
<svg width="132px" height="60px" viewBox="0 0 132 60" version="1.1" xmlns="http://www.w3.org/2000/svg" xmlns:xlink="http://www.w3.org/1999/xlink">
    <!-- Generator: Sketch 52.4 (67378) - http://www.bohemiancoding.com/sketch -->
    <title>Artboard</title>
    <desc>Created with Sketch.</desc>
    <g id="Artboard" stroke="none" stroke-width="1" fill="none" fill-rule="evenodd">
        <path d="M94.7566419,27.6436216 C94.7566419,27.6436216 101.001623,28.9731132 107.22791,26.4713818 C113.454198,23.9696503 115.798677,20.8169189 116.546448,19.8910034 C117.295318,18.9650878 117.950716,17.8874189 117.950716,17.8874189 C117.950716,17.8874189 116.566242,18.0545676 114.81228,19.2213091 C116.093387,17.3496841 115.974623,15.9509139 116.171463,14.8864409 C116.368302,13.8230676 117.15676,13.3502128 117.707691,13.1522736 C115.875654,13.1126858 112.821892,13.2116554 109.787924,17.3485845 C108.979672,14.2750287 108.186816,13.1533733 108.186816,13.1533733 C108.186816,13.1533733 108.016368,17.1429476 105.770858,20.5255084 C103.880539,23.3725338 101.140181,26.2151605 94.7566419,27.6436216 Z" id="Path" fill="#FB9F28"></path>
        <path d="M131.639311,18.2755997 C131.639311,18.2755997 129.880951,19.2356047 126.408218,19.1773226 C122.935485,19.1179409 121.931493,18.0985541 119.89162,17.9215084 C118.873333,17.8335355 118.285014,17.8489307 117.951816,17.8874189 C117.837451,18.0721622 117.22274,19.0563598 116.547547,19.8910034 C116.064796,20.4881199 114.917848,22.011152 112.495292,23.6881368 C114.083204,23.9443581 117.032498,24.2434662 119.773956,23.5649747 C119.094365,23.0921199 118.78426,22.7820152 118.78426,22.7820152 C118.78426,22.7820152 120.291897,23.6683429 121.665375,23.3142517 C120.527225,22.590674 120.187429,22.2211875 120.187429,22.2211875 C120.187429,22.2211875 121.931493,23.2702652 123.807517,22.4719105 C122.492321,22.102424 121.798434,21.7329375 121.798434,21.7329375 C121.798434,21.7329375 125.877081,22.8710878 127.989532,21.0533463 C127.989532,21.0533463 125.166699,21.275478 123.483117,20.787228 C127.60465,20.6695642 130.01401,19.9602821 131.639311,18.2755997 Z" id="Path" fill="#FF7721"></path>
        <path d="M96.4116334,13.724098 C96.4116334,13.724098 97.3430473,15.8816351 101.420595,16.324799 C99.4115118,16.8570355 98.2139797,16.8416402 98.2139797,16.8416402 C98.2139797,16.8416402 99.6919257,18.7473547 103.296618,18.1128497 C101.611936,18.6296909 100.445194,18.8078361 100.445194,18.8078361 C100.445194,18.8078361 103.099779,20.8741014 104.874633,21.7604291 C105.195735,21.3513547 105.491544,20.9389814 105.769758,20.5266081 C107.828326,17.4739459 108.147228,13.7999747 108.187916,13.154473 C107.963584,12.584848 107.220213,11.3092399 104.81965,9.86868243 C104.81965,9.86868243 103.0316,9.02634122 100.711312,8.15430912 C98.3910253,7.28227703 96.7063429,6.57299493 94.5202145,4.85862162 C92.3340861,3.14424831 90.590022,0.825060811 90.590022,0.825060811 C90.590022,0.825060811 90.7824628,3.70617568 93.1610321,6.6466723 C95.5396014,9.58716892 97.9192703,10.872674 98.7759071,11.4049105 C95.1558193,10.0600236 93.8406233,8.9075777 92.539723,7.91788176 C93.4711368,11.7007196 97.3122568,13.4447838 100.016326,14.2860253 C97.7125338,14.0792889 96.4116334,13.724098 96.4116334,13.724098 Z" id="Path" fill="#FF7721"></path>
        <path d="M72.0794505,18.024974 C72.0794505,19.8457708 72.0745646,21.6665676 72.0843363,23.4873644 C72.0859649,23.8293746 71.9833619,24.0313234 71.6299514,24.1127544 C69.9508445,24.5019945 68.25708,24.7772312 66.5291145,24.6257696 C64.317449,24.4303352 62.8728633,23.2479573 62.3696198,21.0851504 C61.8859198,19.0070316 61.8908056,16.8865688 62.385906,14.8117073 C62.9054357,12.6375 64.5568561,11.4095208 66.8874109,11.3329756 C68.4818296,11.2808598 70.0485617,11.5218955 71.6022649,11.8687915 C71.9605612,11.9485939 72.0908508,12.1472855 72.0875936,12.5202394 C72.0713074,14.3556938 72.0794505,16.1911482 72.0794505,18.024974 Z M69.9850455,18.0103164 C69.9850455,16.5673593 69.9817883,15.1244023 69.9883028,13.6814452 C69.9899314,13.4583243 69.9801597,13.2938338 69.6935226,13.2645186 C68.7945245,13.1716873 67.8987837,13.0462836 66.9932712,13.0869991 C65.5975441,13.1505152 64.6692308,13.862222 64.3923655,15.2335198 C64.0226688,17.0608311 64.0210402,18.9158289 64.3907369,20.7431402 C64.6676022,22.1095522 65.5095986,22.7838007 66.8906681,22.8880324 C67.8238672,22.958063 68.7505518,22.8391738 69.6772364,22.7284276 C69.9492159,22.6958553 69.9931886,22.5785946 69.99156,22.3375589 C69.9785311,20.8962305 69.9850455,19.4532734 69.9850455,18.0103164 Z M23.2485461,18.6666501 C22.0254528,18.6666501 20.8007307,18.6764218 19.5776374,18.6601356 C19.2698282,18.6552498 19.1769969,18.7448239 19.1997976,19.0510044 C19.2486562,19.7350246 19.2910003,20.4141591 19.5629798,21.0574638 C20.0189933,22.1356101 20.8398176,22.739828 21.9896231,22.8587172 C23.3755785,23.0020358 24.7533907,22.8277734 26.1246885,22.6600256 C27.1686338,22.5313647 27.4666712,22.8619745 27.1767769,23.8928907 C27.1230324,24.0850679 26.9992573,24.2104716 26.824995,24.243044 C24.87228,24.5997117 22.9114219,24.9124067 20.9359062,24.4661649 C19.0629935,24.0427237 17.8366429,22.8701176 17.4001728,21.0037194 C16.9409021,19.0412327 16.9132155,17.0364018 17.4099445,15.0788009 C18.110251,12.3231764 20.4212624,11.0398241 23.0840556,11.3736911 C25.5970157,11.6880147 27.1425758,13.318263 27.4780715,15.8426236 C27.5774173,16.5836455 27.5676456,17.3246675 27.5643883,18.0656895 C27.5627597,18.5249602 27.4178126,18.6633929 26.9617991,18.6650215 C25.7240481,18.6682787 24.4862971,18.6666501 23.2485461,18.6666501 Z M22.3609484,17.0820032 L23.7127028,17.0820032 C24.178488,17.0820032 24.6442732,17.0640883 25.1084298,17.0885176 C25.4080959,17.1048038 25.4764979,16.9956863 25.4618403,16.7171924 C25.4357824,16.2367495 25.3820379,15.7611926 25.2631487,15.297036 C24.9504537,14.0576564 24.1214863,13.3329206 22.8511629,13.1765731 C21.4261207,13.0023108 20.2665435,13.549527 19.6786118,14.6749033 C19.348002,15.3084363 19.2567993,15.9924566 19.2063121,16.6943917 C19.1835114,16.9973149 19.2470276,17.0982894 19.566237,17.0901463 C20.4994361,17.0689742 21.4310066,17.0820032 22.3609484,17.0820032 Z M86.8266018,18.6666501 C85.5888508,18.6666501 84.3494712,18.6747932 83.1117203,18.6601356 C82.8299691,18.6568784 82.7322519,18.7269091 82.7485381,19.0200606 C82.7778532,19.5444761 82.8136829,20.0688917 82.9504869,20.5753924 C83.3608991,22.0916373 84.4260164,22.8798893 86.1230381,22.90269 C87.3477601,22.9206048 88.5659676,22.8131159 89.7792893,22.6437394 C89.8949213,22.6274532 90.0105533,22.6079098 90.1261853,22.5997667 C90.6652584,22.5639371 90.7385463,22.6307105 90.7450608,23.168155 C90.7466894,23.2561004 90.7450608,23.3424173 90.7450608,23.4303627 C90.7434322,24.1339264 90.6994594,24.2039571 90.0186964,24.3212177 C88.4943084,24.5866827 86.9650345,24.7495447 85.4129599,24.6257696 C83.0026028,24.4319638 81.3039524,23.0134361 80.8593392,20.6454231 C80.5189577,18.834398 80.4847567,16.9859146 80.9261126,15.181404 C81.3756117,13.3426923 82.4814445,12.0104814 84.3673861,11.5349245 C86.2907859,11.0495958 88.1180972,11.2710881 89.5952553,12.7466175 C90.7336604,13.8833941 91.0528699,15.3589235 91.1245292,16.9061122 C91.142444,17.283952 91.1343009,17.6634204 91.1277864,18.0428888 C91.1196433,18.5200744 90.9730675,18.6650215 90.495882,18.6666501 C89.2744172,18.6682787 88.0513238,18.6666501 86.8266018,18.6666501 Z M85.8575731,17.0820032 L87.7370002,17.0820032 L87.9552352,17.0820032 C89.0692111,17.0803745 89.0854973,17.0787459 88.9486933,15.9810563 C88.8102606,14.881738 88.4438212,13.8768796 87.3217022,13.4290092 C86.162125,12.9648526 84.9944046,12.9957963 83.965117,13.7840483 C83.0286607,14.5006409 82.8462553,15.5722727 82.7550526,16.6699624 C82.7289946,16.9859146 82.7990253,17.1015466 83.1459213,17.0917749 C84.0498052,17.0640883 84.9536891,17.0820032 85.8575731,17.0820032 Z M39.9288691,17.9663437 C39.9288691,19.7578253 39.9304977,21.549307 39.9288691,23.3407887 C39.9288691,23.96455 39.8783819,24.0378379 39.2741639,24.1648702 C37.676488,24.5036231 36.0690404,24.7756026 34.4273917,24.6290268 C32.1196376,24.4238207 30.6864523,23.2332998 30.1815802,20.971147 C29.7337098,18.9630589 29.7418529,16.9142553 30.199495,14.9077959 C30.6994813,12.7156738 32.2645848,11.4746656 34.5837392,11.3411187 C36.2367882,11.2466588 37.860522,11.515381 39.4712269,11.8720488 C39.8816391,11.9632515 39.9304977,12.2417454 39.9304977,12.59027 C39.9239832,14.3833803 39.9272404,16.174862 39.9288691,17.9663437 Z M37.8442359,18.0559177 C37.8442359,16.5999317 37.8344641,15.1439457 37.852379,13.6879597 C37.8556362,13.3801506 37.7432614,13.2824334 37.4647675,13.2531183 C36.6537149,13.16843 35.8442909,13.0739701 35.0283524,13.0804846 C33.4795351,13.0935135 32.5039919,13.8215065 32.2108403,15.3410087 C31.8753447,17.0803745 31.8786019,18.8490555 32.19944,20.59005 C32.4795626,22.1079235 33.2971297,22.7886866 34.8345467,22.8978041 C35.7351733,22.9613203 36.6341714,22.8473169 37.5299123,22.7251704 C37.7953773,22.6893408 37.8507503,22.5834805 37.8491217,22.3359303 C37.8377214,20.9092594 37.8426072,19.4825886 37.8442359,18.0559177 Z M54.7183645,24.6664851 C53.7151348,24.6176265 52.7135337,24.5475958 51.7249615,24.3505329 C51.1614591,24.2397867 51.0767709,24.1388123 51.0735136,23.5736813 C51.0702564,22.6225674 51.0751423,22.6079098 52.0213703,22.6958553 C53.3698674,22.821259 54.7167359,22.9857496 56.0733761,22.8619745 C57.0065752,22.7772862 57.4984183,22.345702 57.6205648,21.5460497 C57.7003672,21.018377 57.5521628,20.5705066 57.1596654,20.2024385 C56.677594,19.7480536 56.1010626,19.43373 55.5440747,19.0917199 C54.6271618,18.5282175 53.6679048,18.0347457 52.7917074,17.4044699 C52.0571999,16.8751685 51.4041234,16.2497785 51.1924029,15.3410087 C50.7754762,13.5560415 51.3243211,11.7547881 54.0229439,11.4111494 C55.6727357,11.2010574 57.3062412,11.3867201 58.9381181,11.6114696 C59.3403872,11.6668427 59.4983633,11.8785632 59.4918488,12.2938613 C59.4771913,13.31012 59.4918488,13.31012 58.4918763,13.2531183 C57.1547796,13.1765731 55.8176828,13.0446549 54.4773288,13.1570297 C53.4887566,13.2400893 53.0197142,13.8149921 53.1858334,14.7221332 C53.2705216,15.1862898 53.5881024,15.4989848 53.9594277,15.7335061 C54.8812265,16.3165519 55.8176828,16.8784257 56.7525105,17.4402995 C57.4023298,17.8311682 58.0505204,18.2204083 58.609137,18.7383094 C60.1595829,20.1763806 60.1058385,22.7137701 58.4918763,23.8652042 C57.6531372,24.4645362 56.6759654,24.6143693 55.6759929,24.6615992 C55.3600407,24.6778854 55.0392026,24.6664851 54.7183645,24.6664851 Z M2.71816627,17.8979416 C2.72468075,18.8946569 2.68396526,19.767597 2.89731444,20.6275082 C3.25398215,22.0704653 4.19043848,22.8342879 5.67736826,22.8456883 C6.58125219,22.8522027 7.48025026,22.787058 8.37924833,22.6974839 C9.01115277,22.6339677 9.09421238,22.726799 9.09421238,23.3538176 C9.09421238,24.3261036 9.09746962,24.345647 8.15775605,24.4824511 C6.99003573,24.6534561 5.80928645,24.7918888 4.63505165,24.5883113 C2.76865348,24.2658446 1.49833012,23.1600119 0.996715253,21.3571299 C0.382725628,19.1503502 0.377839769,16.8833116 0.986943535,14.6732746 C1.55044595,12.6244711 3.12857843,11.460008 5.24904128,11.3362329 C6.38744644,11.2694595 7.51607989,11.4095208 8.63819886,11.5886689 C8.93786489,11.6358989 9.10561271,11.8085326 9.09421238,12.1244848 C9.0632686,13.0739701 9.34990567,13.4746105 7.98349374,13.2661472 C7.28155866,13.1586583 6.56333737,13.1488866 5.84837332,13.1537725 C4.07480648,13.1635442 3.08297708,14.0299699 2.80448311,15.8002795 C2.69047974,16.5396728 2.73770971,17.2823234 2.71816627,17.8979416 Z M11.9768692,15.609731 C11.9768692,12.8720213 11.9768692,10.1343115 11.9768692,7.39823046 C11.9768692,6.81029875 12.0745864,6.71258157 12.6576323,6.70932433 C14.1478193,6.70443847 14.0598738,6.59694957 14.0598738,8.09527969 C14.0566166,13.2938338 14.0582452,18.4907592 14.0582452,23.6893133 C14.0582452,24.4205635 13.9654139,24.508509 13.2292778,24.5150235 C11.8986955,24.5247952 11.9752406,24.5801682 11.9768692,23.2544718 C11.9801265,20.705682 11.9768692,18.1568922 11.9768692,15.609731 Z M77.5988426,15.6064737 L77.5988426,23.8212315 C77.5988426,24.4042773 77.4913537,24.5117662 76.916451,24.5150235 C76.6542432,24.5166521 76.3920354,24.5166521 76.1298276,24.5133948 C75.6819572,24.5068804 75.5370101,24.3651904 75.5125808,23.9124342 C75.5076949,23.8261173 75.5109522,23.7381719 75.5109522,23.6502264 C75.5109522,18.290439 75.5109522,12.9306516 75.5109522,7.57086415 C75.5109522,6.77609773 75.5777256,6.71909604 76.3871496,6.70769571 C77.7682191,6.68652365 77.597214,6.74678258 77.597214,7.91776014 C77.6004712,10.4795789 77.5988426,13.0430263 77.5988426,15.6064737 Z M43.1258495,18.27741 C43.1258495,16.4419556 43.1356212,14.6048726 43.1177064,12.7694182 C43.1128206,12.3362054 43.2838256,12.0951697 43.6681799,11.9388222 C44.7528406,11.4990948 45.8977602,11.4046349 47.0475657,11.3460046 C47.5556951,11.3199467 48.0670817,11.331347 48.5768396,11.3264612 C48.8651053,11.3232039 49.003538,11.460008 48.9953949,11.7564168 C48.9856232,12.0625973 48.9758515,12.3687778 48.9970235,12.6733296 C49.0230814,13.0446549 48.8471905,13.1635442 48.5051804,13.1602869 C47.5442948,13.1521438 46.5850378,13.1749445 45.629038,13.3117486 C45.2805134,13.3606072 45.2153686,13.4908967 45.2169972,13.8084776 C45.2267689,17.1162042 45.2235117,20.4239308 45.2235117,23.7316574 C45.2235117,24.4173063 45.1241659,24.5150235 44.4434029,24.5133948 C44.4140877,24.5133948 44.3847725,24.5133948 44.3554574,24.5133948 C43.0883913,24.5378241 43.1177064,24.5443386 43.1242209,23.2609863 C43.132364,21.5997942 43.1258495,19.9386021 43.1258495,18.27741 Z" id="Combined-Shape" fill="#841057" fill-rule="nonzero"></path>
        <path d="M45.1936468,41.5831975 L45.1917743,41.5831975 L45.1917743,58.47893 C45.216117,58.735465 45.1636865,58.9938725 45.0382278,59.2204472 C44.9034065,59.3627586 44.7105371,59.4339143 44.5157952,59.4133166 L42.0496886,59.4133166 C41.733233,59.450767 41.4467377,59.2241923 41.4092874,58.9077367 C41.4036698,58.8627962 41.4036698,58.8178558 41.4092874,58.7729154 L41.4092874,41.5869425 L36.7130115,41.5869425 C36.5220146,41.6112853 36.3272727,41.5588548 36.1737262,41.4427586 C36.0726102,41.2967022 36.0351599,41.1169404 36.0726102,40.9427962 L36.2392644,39.330558 C36.2186667,38.9897597 36.4789467,38.6976468 36.819745,38.6770491 C36.862813,38.6733041 36.9058809,38.6751766 36.9489488,38.6826667 L49.6184075,38.6826667 C49.7888067,38.6639415 49.9610784,38.716372 50.0921546,38.8268506 C50.2026332,38.972907 50.2719164,39.1451787 50.2943866,39.326813 L50.4966186,40.9390512 C50.5640293,41.3678579 50.3617973,41.5831975 49.8899227,41.5831975 L45.1936468,41.5831975 Z M60.2000084,44.0230888 C61.3010491,44.807674 61.8459519,46.18772 61.8384619,48.1650993 L61.8384619,54.482976 C61.8384619,56.4378851 61.2692163,57.8123135 60.1307252,58.6081338 C58.9922341,59.403954 57.4211912,59.8009279 55.4157241,59.8009279 L55.0786708,59.8009279 C53.0975465,59.8009279 51.5564639,59.4095716 50.4572957,58.6249864 C49.3581275,57.8422738 48.7982445,56.4603553 48.7795193,54.482976 L48.7795193,48.1650993 C48.7795193,46.2101902 49.3581275,44.8357618 50.5134713,44.0399415 C51.668815,43.2441212 53.2436029,42.8471473 55.2415799,42.8471473 L55.5786332,42.8471473 C57.5597576,42.8471473 59.1008401,43.2385037 60.2000084,44.0230888 Z M58.1027879,54.2901066 L58.1027879,48.1033062 C58.1027879,47.2007524 57.8986834,46.5622236 57.4923469,46.1858474 C57.0860104,45.8094713 56.4325016,45.6166019 55.5336928,45.6072393 L55.2303448,45.6072393 C54.3296635,45.6072393 53.6555569,45.8001087 53.2080251,46.1858474 C52.7604932,46.5697137 52.535791,47.2101149 52.532046,48.1033062 L52.532046,54.3219394 C52.532046,55.2244932 52.7398955,55.8686395 53.1555946,56.2543783 C53.5731661,56.640117 54.2173124,56.8329864 55.0917785,56.8348589 L55.0955235,56.8348589 L55.3670387,56.8348589 C57.1908715,56.8348589 58.1027879,55.9866082 58.1027879,54.2901066 Z M85.5145831,44.3507795 C86.5950261,45.1447273 87.1343114,46.5303908 87.1343114,48.5040251 L87.1343114,57.8347837 C87.1286938,58.2504828 86.8553062,58.6137513 86.4583323,58.735465 C84.9041421,59.3814838 82.9567231,59.7035569 80.6142027,59.7035569 C78.4271014,59.7035569 76.8223532,59.3477785 75.7980857,58.6399666 C74.7738182,57.9321546 74.2607482,56.6719498 74.2607482,54.8593521 L74.2607482,54.2451661 C74.2345329,53.4381108 74.4030596,52.6366729 74.751348,51.9082633 C75.0678036,51.2865873 75.5733835,50.7810073 76.1950596,50.4645517 C76.8242257,50.136861 77.4945873,49.8934336 78.187419,49.7398871 C79.007582,49.5713605 79.8371076,49.4627544 80.6722508,49.4159415 L83.4417053,49.3204431 L83.4417053,48.4534671 C83.4417053,47.5509133 83.2394734,46.906767 82.8350094,46.5210282 C82.4305455,46.1352894 81.767674,45.9424201 80.8426499,45.9424201 L69.2667419,45.9087147 L69.2667419,54.8368819 C69.2667419,55.6064869 69.3959457,56.1008318 69.6562257,56.3180439 C69.9165057,56.535256 70.4951139,56.6438621 71.3901776,56.6419896 C71.6167524,56.6419896 71.835837,56.636372 72.0493041,56.6251369 C72.2627712,56.6139018 72.4837283,56.5914316 72.7084305,56.5614713 C72.865722,56.535256 73.0230136,56.5202759 73.1821776,56.5127858 C73.5885141,56.5127858 73.7813835,56.6962926 73.7607858,57.0614336 L73.5585538,58.6418391 C73.5117409,59.1155862 73.2870387,59.3721212 72.8825747,59.4151891 C72.1953605,59.5575005 71.4931661,59.6230387 70.7890993,59.6080585 C68.9652665,59.6080585 67.6357785,59.2803678 66.8025078,58.6249864 C65.9692372,57.969605 65.5516656,56.7075277 65.5516656,54.8350094 L65.5516656,45.8431766 L63.6285893,45.8431766 C63.439465,45.8656468 63.2484681,45.8188339 63.0893041,45.7139728 C62.9788255,45.5660439 62.93014,45.3806646 62.9526102,45.1971578 L62.9526102,43.8807774 C62.93014,43.6972706 62.9788255,43.5118913 63.0893041,43.3639624 C63.2484681,43.2591014 63.439465,43.2122884 63.6285893,43.2347586 L65.5554107,43.2347586 L65.5554107,39.5927106 C65.5123427,39.2650199 65.744535,38.9635444 66.0740982,38.9204765 C66.1134211,38.9148589 66.1546165,38.9129864 66.1958119,38.9167315 L68.5926353,38.6920293 C68.7723971,38.6564514 68.9596489,38.6901567 69.1150679,38.7875277 C69.2367816,38.9298391 69.2929572,39.1189634 69.2686144,39.3043427 L69.2686144,43.1579854 L80.9887064,43.1579854 C82.9248903,43.1579854 84.43414,43.5549592 85.5145831,44.3507795 Z M83.4491954,56.6007941 L83.4510679,56.6007941 L83.4510679,51.8408527 C82.280744,51.8614504 81.3781902,51.9045183 80.7471515,51.9700564 C79.7341191,52.0561923 79.007582,52.2602968 78.5694127,52.5823699 C78.129371,52.9044431 77.9102863,53.4699436 77.9102863,54.280744 L77.9102863,54.7320209 C77.9102863,55.4847732 78.1181358,56.0390387 78.5338349,56.3929446 C78.949534,56.7468506 79.6648359,56.9247398 80.6797409,56.9247398 C81.6141275,56.9547001 82.5466416,56.8442215 83.4491954,56.6007941 Z M97.5211703,56.7075277 C97.6110512,56.8517116 97.6410115,57.0258558 97.6054336,57.1887649 L97.4032017,58.8010031 C97.3919666,59.1755068 97.0998537,59.4807273 96.7272226,59.508815 C96.2010449,59.5724807 95.6711223,59.6043135 95.1393271,59.6043135 C93.6525475,59.6043135 92.5309091,59.2822403 91.7762842,58.6362215 C91.0216594,57.9902027 90.6452832,56.7449781 90.6471557,54.9005475 L90.6471557,39.1564138 C90.6097053,38.7856552 90.8812205,38.4542194 91.2519791,38.4167691 C91.2632142,38.4167691 91.2763218,38.4148966 91.2875569,38.4148966 L93.7199582,38.2220272 C94.1712351,38.1602341 94.3959373,38.3512309 94.3959373,38.8006353 L94.3959373,54.7376385 C94.3959373,55.5334587 94.5026708,56.0484013 94.7161379,56.2862111 C94.929605,56.5240209 95.3752644,56.6419896 96.0512435,56.6419896 C96.1411243,56.6419896 96.3152685,56.6307544 96.5736761,56.6101567 C96.8339561,56.589559 96.9949927,56.5783239 97.0642759,56.5783239 C97.227185,56.5577262 97.3919666,56.6045392 97.5211703,56.7075277 Z" id="Combined-Shape" fill="#840857"></path>
    </g>
</svg>