<?xml version="1.0" encoding="UTF-8"?>
<svg width="132px" height="72px" viewBox="0 0 132 72" version="1.1" xmlns="http://www.w3.org/2000/svg" xmlns:xlink="http://www.w3.org/1999/xlink">
    <!-- Generator: Sketch 52.4 (67378) - http://www.bohemiancoding.com/sketch -->
    <title>Artboard Copy</title>
    <desc>Created with Sketch.</desc>
    <g id="Artboard-Copy" stroke="none" stroke-width="1" fill="none" fill-rule="evenodd">
        <path d="M45.3628458,62.6774704 C43.5035573,62.6774704 41.5470356,62.2671937 40.16917,61.6387352 L40.773913,58.8355731 C42.2466403,59.2956522 43.7454545,59.6086957 45.4126482,59.6086957 C47.2719368,59.6086957 47.6347826,59.2458498 47.6347826,57.8940711 C47.6347826,56.4450593 47.5612648,56.2743083 44.9288538,55.6956522 C41.0395257,54.8513834 40.458498,54.0782609 40.458498,50.5992095 C40.458498,47.3857708 41.5944664,46.1051383 46.0150198,46.1051383 C47.4166008,46.1051383 49.1075099,46.2498024 50.8956522,46.6363636 L50.5328063,49.6814229 C48.6972332,49.3683794 47.513834,49.2213439 46.0624506,49.2213439 C44.4426877,49.2213439 44.0822134,49.5106719 44.0822134,50.6940711 C44.0822134,52.2403162 44.1557312,52.2640316 46.6909091,52.8687747 C51.0403162,53.9075099 51.2561265,54.7541502 51.2561265,57.9177866 C51.258498,61.1075099 50.2197628,62.6774704 45.3628458,62.6774704 Z M57.7328063,62.6774704 C55.4869565,62.6774704 54.1826087,61.8332016 54.1826087,59.658498 L54.1826087,53.4735178 L52.5889328,53.4735178 L52.5889328,50.6703557 L54.1826087,50.6703557 L54.1826087,47.8434783 L57.6616601,47.3596838 L57.6616601,50.6703557 L60.3438735,50.6703557 L60.1517787,53.4735178 L57.6640316,53.4735178 L57.6640316,59.1747036 C57.6640316,59.658498 57.9533597,59.8268775 58.3897233,59.8268775 C58.7762846,59.8268775 59.3312253,59.7794466 59.8387352,59.6086957 L60.2490119,62.2411067 C59.4711462,62.5090909 58.5296443,62.6774704 57.7328063,62.6774704 Z M68.7960474,62.4355731 L68.5541502,61.686166 C67.2023715,62.4355731 65.9928854,62.6774704 65.1960474,62.6774704 C63.0213439,62.6774704 62.1272727,61.1075099 62.1272727,59.1011858 C62.1272727,56.7343874 63.2134387,55.7905138 65.6300395,55.7905138 L68.1675889,55.7905138 L68.1675889,54.8964427 C68.1675889,53.6893281 67.9494071,53.2766798 66.0901186,53.2766798 C65.0513834,53.2766798 64.0126482,53.3976285 62.9003953,53.6158103 L62.4403162,51.0071146 C63.5525692,50.6679842 65.3146245,50.4284585 66.6687747,50.4284585 C70.7525692,50.4284585 71.6442688,51.6592885 71.6442688,54.9225296 L71.6442688,62.4355731 L68.7960474,62.4355731 Z M68.1675889,58.2094862 L66.5003953,58.2094862 C65.7509881,58.2094862 65.4616601,58.401581 65.4616601,59.0561265 C65.4616601,59.7106719 65.7272727,59.973913 66.4031621,59.973913 C67.1288538,59.973913 67.6339921,59.8055336 68.1675889,59.5636364 L68.1675889,58.2094862 Z M78.0237154,55.2616601 L78.0237154,62.4355731 L74.544664,62.4355731 L74.544664,50.6703557 L77.4426877,50.6703557 L77.684585,51.8063241 C78.4102767,51.3225296 79.9067194,50.6229249 80.8482213,50.4284585 L81.1375494,53.7130435 C80.1035573,54.1256917 78.7731225,54.7304348 78.0237154,55.2616601 Z M87.0592885,62.6774704 C84.8134387,62.6774704 83.5090909,61.8332016 83.5090909,59.658498 L83.5090909,53.4735178 L81.9130435,53.4735178 L81.9130435,50.6703557 L83.5067194,50.6703557 L83.5067194,47.8434783 L86.9857708,47.3596838 L86.9857708,50.6703557 L89.6679842,50.6703557 L89.4758893,53.4735178 L86.9881423,53.4735178 L86.9881423,59.1747036 C86.9881423,59.658498 87.2774704,59.8268775 87.713834,59.8268775 C88.1003953,59.8268775 88.655336,59.7794466 89.1628458,59.6086957 L89.5731225,62.2411067 C88.8,62.5090909 87.8561265,62.6774704 87.0592885,62.6774704 Z M31.7786561,51.2964427 L26.5280632,51.2964427 C27.6,43.1928854 34.5486166,36.9177866 42.9391304,36.9177866 L86.8980237,36.9177866 C95.2885375,36.9177866 102.237154,43.1928854 103.309091,51.2964427 L98.058498,51.2964427 C97.0387352,46.0671937 92.4237154,42.1067194 86.8980237,42.1067194 L42.9391304,42.1067194 C37.4158103,42.1067194 32.798419,46.0671937 31.7786561,51.2964427 Z M98.058498,57.486166 L103.309091,57.486166 C102.237154,65.5897233 95.2885375,71.8648221 86.8980237,71.8648221 L42.9391304,71.8648221 C34.5486166,71.8648221 27.6,65.5897233 26.5280632,57.486166 L31.7786561,57.486166 C32.798419,62.715415 37.4134387,66.6758893 42.9391304,66.6758893 L86.8980237,66.6758893 C92.4213439,66.6758893 97.0387352,62.715415 98.058498,57.486166 Z" id="Combined-Shape" fill="#840857"></path>
        <path d="M94.7566419,27.6436216 C94.7566419,27.6436216 101.001623,28.9731132 107.22791,26.4713818 C113.454198,23.9696503 115.798677,20.8169189 116.546448,19.8910034 C117.295318,18.9650878 117.950716,17.8874189 117.950716,17.8874189 C117.950716,17.8874189 116.566242,18.0545676 114.81228,19.2213091 C116.093387,17.3496841 115.974623,15.9509139 116.171463,14.8864409 C116.368302,13.8230676 117.15676,13.3502128 117.707691,13.1522736 C115.875654,13.1126858 112.821892,13.2116554 109.787924,17.3485845 C108.979672,14.2750287 108.186816,13.1533733 108.186816,13.1533733 C108.186816,13.1533733 108.016368,17.1429476 105.770858,20.5255084 C103.880539,23.3725338 101.140181,26.2151605 94.7566419,27.6436216 Z" id="Path" fill="#FB9F28"></path>
        <path d="M131.639311,18.2755997 C131.639311,18.2755997 129.880951,19.2356047 126.408218,19.1773226 C122.935485,19.1179409 121.931493,18.0985541 119.89162,17.9215084 C118.873333,17.8335355 118.285014,17.8489307 117.951816,17.8874189 C117.837451,18.0721622 117.22274,19.0563598 116.547547,19.8910034 C116.064796,20.4881199 114.917848,22.011152 112.495292,23.6881368 C114.083204,23.9443581 117.032498,24.2434662 119.773956,23.5649747 C119.094365,23.0921199 118.78426,22.7820152 118.78426,22.7820152 C118.78426,22.7820152 120.291897,23.6683429 121.665375,23.3142517 C120.527225,22.590674 120.187429,22.2211875 120.187429,22.2211875 C120.187429,22.2211875 121.931493,23.2702652 123.807517,22.4719105 C122.492321,22.102424 121.798434,21.7329375 121.798434,21.7329375 C121.798434,21.7329375 125.877081,22.8710878 127.989532,21.0533463 C127.989532,21.0533463 125.166699,21.275478 123.483117,20.787228 C127.60465,20.6695642 130.01401,19.9602821 131.639311,18.2755997 Z" id="Path" fill="#FF7721"></path>
        <path d="M96.4116334,13.724098 C96.4116334,13.724098 97.3430473,15.8816351 101.420595,16.324799 C99.4115118,16.8570355 98.2139797,16.8416402 98.2139797,16.8416402 C98.2139797,16.8416402 99.6919257,18.7473547 103.296618,18.1128497 C101.611936,18.6296909 100.445194,18.8078361 100.445194,18.8078361 C100.445194,18.8078361 103.099779,20.8741014 104.874633,21.7604291 C105.195735,21.3513547 105.491544,20.9389814 105.769758,20.5266081 C107.828326,17.4739459 108.147228,13.7999747 108.187916,13.154473 C107.963584,12.584848 107.220213,11.3092399 104.81965,9.86868243 C104.81965,9.86868243 103.0316,9.02634122 100.711312,8.15430912 C98.3910253,7.28227703 96.7063429,6.57299493 94.5202145,4.85862162 C92.3340861,3.14424831 90.590022,0.825060811 90.590022,0.825060811 C90.590022,0.825060811 90.7824628,3.70617568 93.1610321,6.6466723 C95.5396014,9.58716892 97.9192703,10.872674 98.7759071,11.4049105 C95.1558193,10.0600236 93.8406233,8.9075777 92.539723,7.91788176 C93.4711368,11.7007196 97.3122568,13.4447838 100.016326,14.2860253 C97.7125338,14.0792889 96.4116334,13.724098 96.4116334,13.724098 Z" id="Path" fill="#FF7721"></path>
        <path d="M72.0794505,18.024974 C72.0794505,19.8457708 72.0745646,21.6665676 72.0843363,23.4873644 C72.0859649,23.8293746 71.9833619,24.0313234 71.6299514,24.1127544 C69.9508445,24.5019945 68.25708,24.7772312 66.5291145,24.6257696 C64.317449,24.4303352 62.8728633,23.2479573 62.3696198,21.0851504 C61.8859198,19.0070316 61.8908056,16.8865688 62.385906,14.8117073 C62.9054357,12.6375 64.5568561,11.4095208 66.8874109,11.3329756 C68.4818296,11.2808598 70.0485617,11.5218955 71.6022649,11.8687915 C71.9605612,11.9485939 72.0908508,12.1472855 72.0875936,12.5202394 C72.0713074,14.3556938 72.0794505,16.1911482 72.0794505,18.024974 Z M69.9850455,18.0103164 C69.9850455,16.5673593 69.9817883,15.1244023 69.9883028,13.6814452 C69.9899314,13.4583243 69.9801597,13.2938338 69.6935226,13.2645186 C68.7945245,13.1716873 67.8987837,13.0462836 66.9932712,13.0869991 C65.5975441,13.1505152 64.6692308,13.862222 64.3923655,15.2335198 C64.0226688,17.0608311 64.0210402,18.9158289 64.3907369,20.7431402 C64.6676022,22.1095522 65.5095986,22.7838007 66.8906681,22.8880324 C67.8238672,22.958063 68.7505518,22.8391738 69.6772364,22.7284276 C69.9492159,22.6958553 69.9931886,22.5785946 69.99156,22.3375589 C69.9785311,20.8962305 69.9850455,19.4532734 69.9850455,18.0103164 Z M23.2485461,18.6666501 C22.0254528,18.6666501 20.8007307,18.6764218 19.5776374,18.6601356 C19.2698282,18.6552498 19.1769969,18.7448239 19.1997976,19.0510044 C19.2486562,19.7350246 19.2910003,20.4141591 19.5629798,21.0574638 C20.0189933,22.1356101 20.8398176,22.739828 21.9896231,22.8587172 C23.3755785,23.0020358 24.7533907,22.8277734 26.1246885,22.6600256 C27.1686338,22.5313647 27.4666712,22.8619745 27.1767769,23.8928907 C27.1230324,24.0850679 26.9992573,24.2104716 26.824995,24.243044 C24.87228,24.5997117 22.9114219,24.9124067 20.9359062,24.4661649 C19.0629935,24.0427237 17.8366429,22.8701176 17.4001728,21.0037194 C16.9409021,19.0412327 16.9132155,17.0364018 17.4099445,15.0788009 C18.110251,12.3231764 20.4212624,11.0398241 23.0840556,11.3736911 C25.5970157,11.6880147 27.1425758,13.318263 27.4780715,15.8426236 C27.5774173,16.5836455 27.5676456,17.3246675 27.5643883,18.0656895 C27.5627597,18.5249602 27.4178126,18.6633929 26.9617991,18.6650215 C25.7240481,18.6682787 24.4862971,18.6666501 23.2485461,18.6666501 Z M22.3609484,17.0820032 L23.7127028,17.0820032 C24.178488,17.0820032 24.6442732,17.0640883 25.1084298,17.0885176 C25.4080959,17.1048038 25.4764979,16.9956863 25.4618403,16.7171924 C25.4357824,16.2367495 25.3820379,15.7611926 25.2631487,15.297036 C24.9504537,14.0576564 24.1214863,13.3329206 22.8511629,13.1765731 C21.4261207,13.0023108 20.2665435,13.549527 19.6786118,14.6749033 C19.348002,15.3084363 19.2567993,15.9924566 19.2063121,16.6943917 C19.1835114,16.9973149 19.2470276,17.0982894 19.566237,17.0901463 C20.4994361,17.0689742 21.4310066,17.0820032 22.3609484,17.0820032 Z M86.8266018,18.6666501 C85.5888508,18.6666501 84.3494712,18.6747932 83.1117203,18.6601356 C82.8299691,18.6568784 82.7322519,18.7269091 82.7485381,19.0200606 C82.7778532,19.5444761 82.8136829,20.0688917 82.9504869,20.5753924 C83.3608991,22.0916373 84.4260164,22.8798893 86.1230381,22.90269 C87.3477601,22.9206048 88.5659676,22.8131159 89.7792893,22.6437394 C89.8949213,22.6274532 90.0105533,22.6079098 90.1261853,22.5997667 C90.6652584,22.5639371 90.7385463,22.6307105 90.7450608,23.168155 C90.7466894,23.2561004 90.7450608,23.3424173 90.7450608,23.4303627 C90.7434322,24.1339264 90.6994594,24.2039571 90.0186964,24.3212177 C88.4943084,24.5866827 86.9650345,24.7495447 85.4129599,24.6257696 C83.0026028,24.4319638 81.3039524,23.0134361 80.8593392,20.6454231 C80.5189577,18.834398 80.4847567,16.9859146 80.9261126,15.181404 C81.3756117,13.3426923 82.4814445,12.0104814 84.3673861,11.5349245 C86.2907859,11.0495958 88.1180972,11.2710881 89.5952553,12.7466175 C90.7336604,13.8833941 91.0528699,15.3589235 91.1245292,16.9061122 C91.142444,17.283952 91.1343009,17.6634204 91.1277864,18.0428888 C91.1196433,18.5200744 90.9730675,18.6650215 90.495882,18.6666501 C89.2744172,18.6682787 88.0513238,18.6666501 86.8266018,18.6666501 Z M85.8575731,17.0820032 L87.7370002,17.0820032 L87.9552352,17.0820032 C89.0692111,17.0803745 89.0854973,17.0787459 88.9486933,15.9810563 C88.8102606,14.881738 88.4438212,13.8768796 87.3217022,13.4290092 C86.162125,12.9648526 84.9944046,12.9957963 83.965117,13.7840483 C83.0286607,14.5006409 82.8462553,15.5722727 82.7550526,16.6699624 C82.7289946,16.9859146 82.7990253,17.1015466 83.1459213,17.0917749 C84.0498052,17.0640883 84.9536891,17.0820032 85.8575731,17.0820032 Z M39.9288691,17.9663437 C39.9288691,19.7578253 39.9304977,21.549307 39.9288691,23.3407887 C39.9288691,23.96455 39.8783819,24.0378379 39.2741639,24.1648702 C37.676488,24.5036231 36.0690404,24.7756026 34.4273917,24.6290268 C32.1196376,24.4238207 30.6864523,23.2332998 30.1815802,20.971147 C29.7337098,18.9630589 29.7418529,16.9142553 30.199495,14.9077959 C30.6994813,12.7156738 32.2645848,11.4746656 34.5837392,11.3411187 C36.2367882,11.2466588 37.860522,11.515381 39.4712269,11.8720488 C39.8816391,11.9632515 39.9304977,12.2417454 39.9304977,12.59027 C39.9239832,14.3833803 39.9272404,16.174862 39.9288691,17.9663437 Z M37.8442359,18.0559177 C37.8442359,16.5999317 37.8344641,15.1439457 37.852379,13.6879597 C37.8556362,13.3801506 37.7432614,13.2824334 37.4647675,13.2531183 C36.6537149,13.16843 35.8442909,13.0739701 35.0283524,13.0804846 C33.4795351,13.0935135 32.5039919,13.8215065 32.2108403,15.3410087 C31.8753447,17.0803745 31.8786019,18.8490555 32.19944,20.59005 C32.4795626,22.1079235 33.2971297,22.7886866 34.8345467,22.8978041 C35.7351733,22.9613203 36.6341714,22.8473169 37.5299123,22.7251704 C37.7953773,22.6893408 37.8507503,22.5834805 37.8491217,22.3359303 C37.8377214,20.9092594 37.8426072,19.4825886 37.8442359,18.0559177 Z M54.7183645,24.6664851 C53.7151348,24.6176265 52.7135337,24.5475958 51.7249615,24.3505329 C51.1614591,24.2397867 51.0767709,24.1388123 51.0735136,23.5736813 C51.0702564,22.6225674 51.0751423,22.6079098 52.0213703,22.6958553 C53.3698674,22.821259 54.7167359,22.9857496 56.0733761,22.8619745 C57.0065752,22.7772862 57.4984183,22.345702 57.6205648,21.5460497 C57.7003672,21.018377 57.5521628,20.5705066 57.1596654,20.2024385 C56.677594,19.7480536 56.1010626,19.43373 55.5440747,19.0917199 C54.6271618,18.5282175 53.6679048,18.0347457 52.7917074,17.4044699 C52.0571999,16.8751685 51.4041234,16.2497785 51.1924029,15.3410087 C50.7754762,13.5560415 51.3243211,11.7547881 54.0229439,11.4111494 C55.6727357,11.2010574 57.3062412,11.3867201 58.9381181,11.6114696 C59.3403872,11.6668427 59.4983633,11.8785632 59.4918488,12.2938613 C59.4771913,13.31012 59.4918488,13.31012 58.4918763,13.2531183 C57.1547796,13.1765731 55.8176828,13.0446549 54.4773288,13.1570297 C53.4887566,13.2400893 53.0197142,13.8149921 53.1858334,14.7221332 C53.2705216,15.1862898 53.5881024,15.4989848 53.9594277,15.7335061 C54.8812265,16.3165519 55.8176828,16.8784257 56.7525105,17.4402995 C57.4023298,17.8311682 58.0505204,18.2204083 58.609137,18.7383094 C60.1595829,20.1763806 60.1058385,22.7137701 58.4918763,23.8652042 C57.6531372,24.4645362 56.6759654,24.6143693 55.6759929,24.6615992 C55.3600407,24.6778854 55.0392026,24.6664851 54.7183645,24.6664851 Z M2.71816627,17.8979416 C2.72468075,18.8946569 2.68396526,19.767597 2.89731444,20.6275082 C3.25398215,22.0704653 4.19043848,22.8342879 5.67736826,22.8456883 C6.58125219,22.8522027 7.48025026,22.787058 8.37924833,22.6974839 C9.01115277,22.6339677 9.09421238,22.726799 9.09421238,23.3538176 C9.09421238,24.3261036 9.09746962,24.345647 8.15775605,24.4824511 C6.99003573,24.6534561 5.80928645,24.7918888 4.63505165,24.5883113 C2.76865348,24.2658446 1.49833012,23.1600119 0.996715253,21.3571299 C0.382725628,19.1503502 0.377839769,16.8833116 0.986943535,14.6732746 C1.55044595,12.6244711 3.12857843,11.460008 5.24904128,11.3362329 C6.38744644,11.2694595 7.51607989,11.4095208 8.63819886,11.5886689 C8.93786489,11.6358989 9.10561271,11.8085326 9.09421238,12.1244848 C9.0632686,13.0739701 9.34990567,13.4746105 7.98349374,13.2661472 C7.28155866,13.1586583 6.56333737,13.1488866 5.84837332,13.1537725 C4.07480648,13.1635442 3.08297708,14.0299699 2.80448311,15.8002795 C2.69047974,16.5396728 2.73770971,17.2823234 2.71816627,17.8979416 Z M11.9768692,15.609731 C11.9768692,12.8720213 11.9768692,10.1343115 11.9768692,7.39823046 C11.9768692,6.81029875 12.0745864,6.71258157 12.6576323,6.70932433 C14.1478193,6.70443847 14.0598738,6.59694957 14.0598738,8.09527969 C14.0566166,13.2938338 14.0582452,18.4907592 14.0582452,23.6893133 C14.0582452,24.4205635 13.9654139,24.508509 13.2292778,24.5150235 C11.8986955,24.5247952 11.9752406,24.5801682 11.9768692,23.2544718 C11.9801265,20.705682 11.9768692,18.1568922 11.9768692,15.609731 Z M77.5988426,15.6064737 L77.5988426,23.8212315 C77.5988426,24.4042773 77.4913537,24.5117662 76.916451,24.5150235 C76.6542432,24.5166521 76.3920354,24.5166521 76.1298276,24.5133948 C75.6819572,24.5068804 75.5370101,24.3651904 75.5125808,23.9124342 C75.5076949,23.8261173 75.5109522,23.7381719 75.5109522,23.6502264 C75.5109522,18.290439 75.5109522,12.9306516 75.5109522,7.57086415 C75.5109522,6.77609773 75.5777256,6.71909604 76.3871496,6.70769571 C77.7682191,6.68652365 77.597214,6.74678258 77.597214,7.91776014 C77.6004712,10.4795789 77.5988426,13.0430263 77.5988426,15.6064737 Z M43.1258495,18.27741 C43.1258495,16.4419556 43.1356212,14.6048726 43.1177064,12.7694182 C43.1128206,12.3362054 43.2838256,12.0951697 43.6681799,11.9388222 C44.7528406,11.4990948 45.8977602,11.4046349 47.0475657,11.3460046 C47.5556951,11.3199467 48.0670817,11.331347 48.5768396,11.3264612 C48.8651053,11.3232039 49.003538,11.460008 48.9953949,11.7564168 C48.9856232,12.0625973 48.9758515,12.3687778 48.9970235,12.6733296 C49.0230814,13.0446549 48.8471905,13.1635442 48.5051804,13.1602869 C47.5442948,13.1521438 46.5850378,13.1749445 45.629038,13.3117486 C45.2805134,13.3606072 45.2153686,13.4908967 45.2169972,13.8084776 C45.2267689,17.1162042 45.2235117,20.4239308 45.2235117,23.7316574 C45.2235117,24.4173063 45.1241659,24.5150235 44.4434029,24.5133948 C44.4140877,24.5133948 44.3847725,24.5133948 44.3554574,24.5133948 C43.0883913,24.5378241 43.1177064,24.5443386 43.1242209,23.2609863 C43.132364,21.5997942 43.1258495,19.9386021 43.1258495,18.27741 Z" id="Combined-Shape" fill="#841057" fill-rule="nonzero"></path>
    </g>
</svg>