<svg width="50" height="50" viewBox="0 0 50 50" fill="none" xmlns="http://www.w3.org/2000/svg">
<rect width="50" height="50" rx="10" fill="#FFD626"/>
<path fill-rule="evenodd" clip-rule="evenodd" d="M18.182 35.6351H17.2875C16.5537 35.6351 15.9004 35.2902 15.4807 34.7541L11.1612 29.226C11.0601 29.0967 11 28.9336 11 28.757C11 28.5798 11.0601 28.4173 11.1612 28.2874L15.48 22.7599C15.8998 22.2238 16.553 21.8789 17.2869 21.8789H26.8446L21.424 28.6981L17.4513 33.699L18.182 35.6351Z" fill="url(#paint0_linear)"/>
<path fill-rule="evenodd" clip-rule="evenodd" d="M21.4707 28.7581L21.4246 28.6992L17.4519 33.7001C17.2997 33.8946 17.1595 34.1716 17.1595 34.6208C17.1595 35.0706 17.5965 35.6368 18.4469 35.6368H26.8445L21.4707 28.7581Z" fill="url(#paint1_linear)"/>
<path fill-rule="evenodd" clip-rule="evenodd" d="M17.2395 33.7798C17.0865 33.9737 16.9938 34.2206 16.9938 34.4887C16.9938 35.1202 17.5063 35.634 18.139 35.634H18.4346C17.8019 35.634 17.2894 35.1209 17.2894 34.4887C17.2894 34.2206 17.3815 33.9737 17.5351 33.7798L21.4642 28.7636L26.8342 21.8906L17.2395 33.7798Z" fill="#FFD400"/>
<path fill-rule="evenodd" clip-rule="evenodd" d="M32.7987 16.9367L32.0636 15H32.9632C33.697 15 34.3503 15.3449 34.77 15.881L39.0888 21.4091C39.1899 21.5383 39.2501 21.7015 39.2501 21.8781C39.2501 22.0553 39.1899 22.2178 39.0888 22.3477L34.77 27.8752C34.3503 28.4113 33.697 28.7562 32.9632 28.7562H23.4055L28.8261 21.937L32.7987 16.9367Z" fill="url(#paint2_linear)"/>
<path fill-rule="evenodd" clip-rule="evenodd" d="M28.7801 21.8787L28.8261 21.9376L32.7988 16.9367C32.9511 16.7422 33.0912 16.4652 33.0912 16.016C33.0912 15.5662 32.6542 15 31.8039 15H23.4062L28.7801 21.8787Z" fill="url(#paint3_linear)"/>
<path fill-rule="evenodd" clip-rule="evenodd" d="M33.011 16.8542C33.1639 16.6603 33.2567 16.4134 33.2567 16.1453C33.2567 15.5138 32.7442 15 32.1114 15H31.8158C32.4486 15 32.9611 15.5131 32.9611 16.1453C32.9611 16.4134 32.8689 16.6603 32.7154 16.8542L28.7862 21.8704L23.4162 28.7434L33.011 16.8542Z" fill="#00C0F3"/>
<defs>
<linearGradient id="paint0_linear" x1="20.0085" y1="15.5757" x2="8.77145" y2="28.0849" gradientUnits="userSpaceOnUse">
<stop offset="0.0286" stop-color="#F8D22F"/>
<stop offset="0.8947" stop-color="#D09B28"/>
<stop offset="0.9689" stop-color="#F3CC2F"/>
</linearGradient>
<linearGradient id="paint1_linear" x1="21.9455" y1="38.7355" x2="25.5405" y2="32.8565" gradientUnits="userSpaceOnUse">
<stop stop-color="#A86222"/>
<stop offset="1" stop-color="#C18324"/>
</linearGradient>
<linearGradient id="paint2_linear" x1="30.2411" y1="35.0584" x2="41.4781" y2="22.5493" gradientUnits="userSpaceOnUse">
<stop offset="0.0286" stop-color="#064A74"/>
<stop offset="0.8947" stop-color="#00B1EB"/>
<stop offset="0.9689" stop-color="#178DCD"/>
</linearGradient>
<linearGradient id="paint3_linear" x1="29.2596" y1="20.5621" x2="32.8547" y2="14.6831" gradientUnits="userSpaceOnUse">
<stop stop-color="#053D64"/>
<stop offset="1" stop-color="#022A4C"/>
</linearGradient>
</defs>
</svg>
