<?xml version="1.0" encoding="UTF-8"?>
<svg width="126px" height="34px" viewBox="0 0 126 34" version="1.1" xmlns="http://www.w3.org/2000/svg" xmlns:xlink="http://www.w3.org/1999/xlink">
    <!-- Generator: Sketch 52.4 (67378) - http://www.bohemiancoding.com/sketch -->
    <title>Artboard</title>
    <desc>Created with Sketch.</desc>
    <defs>
        <linearGradient x1="-359.919623%" y1="50.0403984%" x2="1879.42496%" y2="50.0403984%" id="linearGradient-1">
            <stop stop-color="#F68C21" offset="0%"></stop>
            <stop stop-color="#F16324" offset="100%"></stop>
        </linearGradient>
        <linearGradient x1="-1983.97103%" y1="49.9993863%" x2="255.370684%" y2="49.9993863%" id="linearGradient-2">
            <stop stop-color="#F68C21" offset="0%"></stop>
            <stop stop-color="#F16324" offset="100%"></stop>
        </linearGradient>
        <linearGradient x1="-41.2110271%" y1="49.9862562%" x2="125.836062%" y2="49.9862562%" id="linearGradient-3">
            <stop stop-color="#F68C21" offset="0%"></stop>
            <stop stop-color="#F16324" offset="100%"></stop>
        </linearGradient>
    </defs>
    <g id="Artboard" stroke="none" stroke-width="1" fill="none" fill-rule="evenodd">
        <path d="M25.6149571,33.742875 L22.1915609,33.742875 L22.1915609,13.68925 L25.6149571,13.68925 L25.6149571,16.15 C26.8274099,14.45 28.8568096,13.4725 31.2341681,13.4725 C31.64249,13.4730621 32.0503566,13.4993241 32.4552659,13.551125 L32.7059691,13.585125 L32.7059691,17.17425 L32.3428816,17.085 C31.7409345,16.9567268 31.1259983,16.8968346 30.5101544,16.9065 C27.6357118,16.9065 25.6257633,18.989 25.6257633,21.9725 L25.6149571,33.742875 Z M65.3319726,33.708875 C59.3648027,33.708875 55.3557118,29.718125 55.3492281,23.77875 L55.3492281,23.63 C55.3492281,17.371875 59.4145111,13.005 65.2498456,13.005 C67.8951973,13.005 70.1666552,14.010125 71.8178388,15.922625 C73.3782504,17.72675 74.2427444,20.22575 74.2427444,22.9585 C74.2427444,22.986125 74.2427444,23.6045 74.2060034,24.163375 L74.1865523,24.431125 L58.787753,24.431125 C59.04494,28.31775 61.528199,30.719 65.3254889,30.719 C68.0291938,30.719 69.4534477,29.784 71.0008919,28.169 L71.2170154,27.9565 L73.4041852,30.172875 L73.2248027,30.3705 C71.1370497,32.67825 68.7034991,33.708875 65.3319726,33.708875 Z M59.0017153,21.4625 L70.7869297,21.4625 C70.6399657,18.532125 68.2215437,16.194625 65.2692967,16.194625 C62.0857976,16.194625 59.3431904,18.53 59.0017153,21.4625 Z M36.0277873,13.68925 L39.4511835,13.68925 L39.4511835,33.745 L36.0277873,33.745 L36.0277873,13.68925 Z M51.1780446,33.98725 C50.1298456,33.98725 48.5845626,33.881 47.3591424,32.960875 C46.0234991,31.966375 45.3448714,30.22175 45.3448714,27.780125 L45.3448714,9.03125 L48.7682676,9.03125 L48.7682676,13.674375 L53.2204117,13.674375 L53.2204117,16.849125 L48.7682676,16.849125 L48.7682676,27.780125 C48.7682676,30.304625 49.6759863,30.810375 51.1456261,30.810375 C51.7291665,30.8237803 52.3127777,30.7868051 52.8897427,30.699875 L53.2268954,30.64675 L53.2268954,33.738625 L53.0107719,33.79175 C52.4109743,33.9342454 51.7949671,33.9999559 51.1780446,33.98725 Z M86.8816467,33.98725 C84.1219762,34.0068485 81.4690067,32.9401911 79.5139966,31.025 C77.5066535,29.0188115 76.3998634,26.3058799 76.4407204,23.491875 C76.402192,20.6828791 77.507131,17.9752604 79.5096741,15.9715 C83.6008071,12.0133639 90.1646474,12.0133639 94.2557804,15.9715 C96.2589091,17.975045 97.3646079,20.6826183 97.3268954,23.491875 C97.3646079,26.3011317 96.2589091,29.008705 94.2557804,31.01225 C92.301458,32.9338943 89.6454774,34.0054158 86.8816467,33.98725 Z M86.8816467,16.184 C84.9850454,16.1633915 83.1655767,16.9211789 81.8610978,18.275 C80.5773242,19.618 79.8684391,21.477375 79.8684391,23.50675 C79.8684391,25.536125 80.5773242,27.393375 81.8610978,28.736375 C83.1825719,30.0680877 84.9947629,30.8190203 86.8870497,30.8190203 C88.7793365,30.8190203 90.5915276,30.0680877 91.9130017,28.736375 C93.1967753,27.393375 93.9056604,25.536125 93.9056604,23.50675 C93.9056604,21.477375 93.1967753,19.618 91.9130017,18.275 C90.6058058,16.9186667 88.7819392,16.1606791 86.8816467,16.184 Z M10.7305317,33.98725 C7.94968437,34.007876 5.27532118,32.9370979 3.30020583,31.01225 C1.29126601,29.0140784 0.180453994,26.307717 0.216123499,23.49825 C0.178226059,20.6864931 1.28924188,17.9773385 3.30020583,15.977875 C5.27545574,14.0532274 7.94973038,12.9824847 10.7305317,13.002875 C13.713036,13.002875 16.3000343,14.025 18.210566,15.960875 L18.394271,16.147875 L16.3000343,18.591625 L16.0839108,18.36 C14.6963979,16.93625 12.8528645,16.184 10.7305317,16.184 C8.81618518,16.1597592 6.97726568,16.9168482 5.6516295,18.275 C4.35488851,19.618 3.63951973,21.47525 3.63951973,23.504625 C3.63951973,25.534 4.35488851,27.389125 5.6516295,28.732125 C6.9791231,30.0863673 8.81780205,30.8395107 10.7305317,30.8125 C12.8528645,30.8125 14.7007204,30.06025 16.0752659,28.638625 L16.2913894,28.404875 L18.3856261,30.844375 L18.2019211,31.031375 C16.3000343,32.965125 13.7151973,33.98725 10.7305317,33.98725 Z" id="Combined-Shape" fill="#2C2F33"></path>
        <path d="M37.7416467,5.391125 C36.6741411,5.39887424 35.7073986,4.7724563 35.293611,3.80487695 C34.8798235,2.8372976 35.1007938,1.71984046 35.8531635,0.97519394 C36.6055332,0.230547417 37.7405641,0.00592288039 38.7273478,0.406388021 C39.7141315,0.806853161 40.3575876,1.75323884 40.356741,2.802875 C40.3579544,4.22619226 39.1892105,5.38293879 37.7416467,5.391125 Z" id="Path" fill="url(#linearGradient-1)"></path>
        <path d="M123.315746,33.98725 C122.248634,33.9949963 121.282168,33.3690371 120.86813,32.4019812 C120.454091,31.4349254 120.674269,30.3178055 121.425741,29.5728271 C122.177212,28.8278486 123.31153,28.6021749 124.29845,29.0012987 C125.28537,29.4004225 125.929936,30.3455008 125.93084,31.39475 C125.934437,32.8197244 124.764999,33.9790581 123.315746,33.98725 Z" id="Path" fill="url(#linearGradient-2)"></path>
        <path d="M115.86813,30.175 L108.908954,30.175 C107.109823,30.1738269 105.651972,28.7394669 105.651973,26.9705 L105.651973,6.831875 C105.65078,3.93707712 103.264365,1.5906727 100.320206,1.5895 L45.2324871,1.5895 L45.2324871,3.927 L100.024117,3.927 C101.822898,3.927 103.281098,5.36075212 103.281098,7.129375 L103.281098,27.268 C103.281098,30.1636277 105.667861,32.5113267 108.612864,32.5125 L115.86813,32.5125 L115.86813,30.175 Z" id="Path" fill="url(#linearGradient-3)"></path>
    </g>
</svg>