<?xml version="1.0" encoding="UTF-8"?>
<svg width="42px" height="23px" viewBox="0 0 42 23" version="1.1" xmlns="http://www.w3.org/2000/svg" xmlns:xlink="http://www.w3.org/1999/xlink">
    <!-- Generator: Sketch 52.4 (67378) - http://www.bohemiancoding.com/sketch -->
    <title>Group 2</title>
    <desc>Created with Sketch.</desc>
    <g id="Page-1" stroke="none" stroke-width="1" fill="none" fill-rule="evenodd">
        <g id="Artboard" transform="translate(-220.000000, -118.000000)" fill="#000000">
            <g id="Group-2" transform="translate(220.000000, 118.000000)">
                <path d="M8.58967291,20.3017883 C5.31300188,20.3017883 2.6566723,17.6410033 2.6566723,14.3588485 C2.6566723,11.0768652 5.31300188,8.41608012 8.58967291,8.41608012 C11.866344,8.41608012 14.5226735,11.0768652 14.5226735,14.3588485 C14.5226735,17.6410033 11.866344,20.3017883 8.58967291,20.3017883 Z M14.5804235,8.19553331 C13.0328258,6.68614999 10.9204089,5.75495233 8.58967291,5.75495233 C3.84577435,5.75495233 -2.57571742e-14,9.60706719 -2.57571742e-14,14.3588485 C-2.57571742e-14,19.1108013 3.84577435,22.9629161 8.58967291,22.9629161 C10.9204089,22.9629161 13.0328258,22.0317185 14.5804235,20.5223351 L14.5804235,22.6772506 L17.1793458,22.6772506 L17.1793458,3.55271368e-15 L14.5804235,3.55271368e-15 L14.5804235,8.19553331 Z" id="Fill-1"></path>
                <path d="M30.116785,2.77388599 L30.116785,0.0771142705 C26.8085828,0.537572148 24.1034141,2.88355962 23.1192647,5.9977766 L20.4778439,5.9977766 L20.4778439,8.59669888 L22.8911778,8.59669888 L22.8911778,22.6772506 L25.4901001,22.6772506 L25.4901001,8.59669888 L30.2883214,8.59669888 L30.2883214,5.9977766 L25.9726641,5.9977766 C26.7677979,4.3627827 28.2891767,3.14746179 30.116785,2.77388599" id="Fill-7"></path>
                <path d="M37.1684517,2.48689958e-14 L34.5037252,2.48689958e-14 L34.5037252,5.9977766 L32.59866,5.9977766 L32.59866,8.59669888 L34.5037252,8.59669888 L34.5037252,14.9944415 C34.8020718,19.0821833 37.9497049,22.3747913 41.9665016,22.890086 L41.9665016,20.1979411 C39.4405808,19.7227458 37.4789652,17.6454587 37.1763345,15.0583607 C37.1751349,15.0489356 37.1684517,14.9444029 37.1684517,14.9444029 L37.1684517,8.59669888 L41.9665016,8.59669888 L41.9665016,5.9977766 L37.1684517,5.9977766 L37.1684517,2.48689958e-14" id="Fill-8"></path>
            </g>
        </g>
    </g>
</svg>