<?xml version="1.0" encoding="UTF-8"?>
<svg width="86px" height="59px" viewBox="0 0 86 59" version="1.1" xmlns="http://www.w3.org/2000/svg" xmlns:xlink="http://www.w3.org/1999/xlink">
    <!-- Generator: Sketch 52.4 (67378) - http://www.bohemiancoding.com/sketch -->
    <title>Artboard</title>
    <desc>Created with Sketch.</desc>
    <g id="Artboard" stroke="none" stroke-width="1" fill="none" fill-rule="evenodd">
        <circle id="Oval" fill="#773CBC" cx="70.6641081" cy="43.6984595" r="14.4596216"></circle>
        <path d="M72.8094595,42.3875405 L65.8771622,42.3875405 L65.8771622,44.8036757 L61.1994595,40.1248108 L65.8771622,35.4459459 L65.8771622,37.8620811 L72.8094595,37.8620811 L72.8094595,42.3875405 Z M68.5187568,45.0093784 L75.4498919,45.0093784 L75.4498919,42.5944054 L80.1287568,47.2721081 L75.4498919,51.950973 L75.4498919,49.5348378 L68.5187568,49.5348378 L68.5187568,45.0093784 Z" id="Combined-Shape" fill="#FFFFFF"></path>
        <path d="M39.5135135,10.3908919 C48.5225946,10.3908919 55.8523514,17.7206486 55.8523514,26.7285676 C55.8523514,35.7376486 48.5225946,43.0674054 39.5135135,43.0674054 C30.5055946,43.0674054 23.1758378,35.7376486 23.1758378,26.7285676 C23.1758378,17.7206486 30.5044324,10.3908919 39.5135135,10.3908919 Z M13.9366486,30.5602162 C11.8211294,30.5602162 10.1061622,28.845249 10.1061622,26.7297297 C10.1061622,24.6142105 11.8211294,22.8992432 13.9366486,22.8992432 C16.0521679,22.8992432 17.7671351,24.6142105 17.7671351,26.7297297 C17.7671351,28.845249 16.0521679,30.5602162 13.9366486,30.5602162 Z M52.7865676,48.1890541 C53.1863514,49.7812162 53.7790541,51.2955135 54.5623514,52.6935946 L6.05602703,52.6935946 C2.95072973,52.6935946 0.425351351,50.1670541 0.425351351,47.0629189 L0.425351351,6.39654054 C0.425351351,3.29124324 2.95189189,0.765864865 6.05602703,0.765864865 L72.971,0.765864865 C76.0762973,0.765864865 78.6016757,3.29240541 78.6016757,6.39654054 L78.6016757,27.0621081 C77.1873243,26.3857297 75.6811622,25.8778649 74.0971351,25.5791892 L74.0971351,6.39654054 C74.0971351,5.78640541 73.5811351,5.27040541 72.971,5.27040541 L6.05602703,5.27040541 C5.44589189,5.27040541 4.92989189,5.78640541 4.92989189,6.39654054 L4.92989189,47.0629189 C4.92989189,47.6730541 5.44589189,48.1890541 6.05602703,48.1890541 L52.7865676,48.1890541 Z M68.6419459,25.3641892 C66.0305676,25.6489189 63.590027,26.488 61.4225946,27.7466216 C61.3284595,27.4212162 61.2598919,27.0853514 61.2598919,26.7297297 C61.2598919,24.6145946 62.9740811,22.8992432 65.0903784,22.8992432 C66.7208919,22.8992432 68.0899189,23.9277568 68.6419459,25.3641892 Z" id="Combined-Shape" fill="#93C649"></path>
        <path d="M45.4451892,28.6124324 C45.2615676,28.1417568 44.9652162,27.7210541 44.5677568,27.3619459 C44.1807568,27.0132973 43.6787027,26.6971892 43.0743784,26.4217568 C42.4805135,26.1521351 41.7483514,25.9011081 40.8976486,25.677973 C40.076,25.4583243 39.3798649,25.2595946 38.8069189,25.0817838 C38.2514054,24.9121081 37.790027,24.7226757 37.4344054,24.5204595 C37.0973784,24.3287027 36.8533243,24.116027 36.7092162,23.8882432 C36.5662703,23.6651081 36.4965405,23.3931622 36.4965405,23.0584595 C36.4965405,22.7272432 36.5720811,22.4355405 36.722,22.1914865 C36.8777297,21.9392973 37.0880811,21.7254595 37.3472432,21.5557838 C37.618027,21.3802973 37.9294865,21.2478108 38.2758108,21.1594865 C39.0846757,20.9514595 40.0620541,20.9863243 40.7361081,21.2396757 C41.1242703,21.3849459 41.4554865,21.5581081 41.7216216,21.7568378 C41.9877568,21.9544054 42.1992703,22.1589459 42.3515135,22.3646486 C42.5130541,22.5831351 42.6281081,22.7586216 42.6931892,22.8887838 C42.821027,23.1467838 42.9477027,23.3083243 43.0894865,23.3954865 C43.2289459,23.4814865 43.4009459,23.5233243 43.6171081,23.5233243 L44.5235946,23.5233243 C44.7223243,23.5233243 44.9071081,23.4501081 45.0581892,23.3083243 C45.2232162,23.1560811 45.2975946,22.9596757 45.2766757,22.7597838 C45.2604054,22.4006757 45.1395405,21.9927568 44.9164054,21.5476486 C44.6979189,21.1118378 44.3852973,20.6876486 43.982027,20.2832162 C43.5799189,19.8811081 43.0813514,19.5231622 42.5025946,19.2186757 C41.9772973,18.9420811 41.3799459,18.7456757 40.721,18.6306216 L40.721,17.3743243 C40.721,17.1442162 40.6338378,16.9338649 40.4653243,16.7653514 C40.297973,16.5991622 40.0887838,16.512 39.8586757,16.512 L38.9521892,16.512 C38.7209189,16.512 38.5105676,16.6003243 38.3443784,16.7665135 C38.177027,16.9338649 38.0887027,17.1442162 38.0887027,17.3743243 L38.0887027,18.6027297 C37.4506757,18.7038378 36.8765676,18.8793243 36.3768378,19.1268649 C35.819,19.4057838 35.3506486,19.7532703 34.9834054,20.160027 C34.6161622,20.5679459 34.3349189,21.0281622 34.1466486,21.5278919 C33.9595405,22.0276216 33.8642432,22.5412973 33.8642432,23.0584595 C33.8642432,23.5872432 33.9386216,24.0834865 34.0873784,24.5355676 C34.2372973,24.9957838 34.4918108,25.4222973 34.8404595,25.8034865 C35.1832973,26.1777027 35.6307297,26.5124054 36.1722973,26.7982973 C36.7068919,27.0807027 37.3588649,27.3224324 38.1119459,27.5188378 C38.9196486,27.7245405 39.6436757,27.9197838 40.2817027,28.1022432 C40.9057838,28.2812162 41.4380541,28.4811081 41.8634054,28.6926216 C42.269,28.896 42.5839459,29.1237838 42.7977838,29.369 C42.993027,29.5956216 43.0871622,29.8594324 43.0871622,30.1801892 C43.0871622,30.5125676 43,30.8042703 42.821027,31.0715676 C42.6362432,31.3481622 42.3805676,31.5898919 42.060973,31.7897838 C41.7344054,31.9954865 41.3474054,32.1547027 40.9092703,32.2674324 C39.9493243,32.508 38.7836757,32.4835946 38.0178108,32.2279189 C37.6005946,32.0896216 37.244973,31.9187838 36.9555946,31.7188919 C36.6697027,31.5213243 36.4419189,31.310973 36.2757297,31.0913243 C36.1060541,30.8693514 35.9805405,30.6601622 35.898027,30.4730541 C35.7852973,30.2080811 35.6493243,30.0360811 35.4808108,29.9454324 C35.3308919,29.8652432 35.1588919,29.8245676 34.9694595,29.8245676 L34.062973,29.8245676 C33.8619189,29.8245676 33.6782973,29.9012703 33.5341892,30.0453784 C33.3877568,30.1894865 33.3110541,30.3731081 33.3110541,30.5857838 C33.3273243,31.039027 33.4644595,31.5062162 33.7201351,31.9757297 C33.9688378,32.4359459 34.3198108,32.8659459 34.7625946,33.2541081 C35.2007297,33.6376216 35.7225405,33.976973 36.3140811,34.2663514 C36.8463514,34.5255135 37.4437027,34.7149459 38.0887027,34.8288378 L38.0887027,36.0851351 C38.0887027,36.3152432 38.177027,36.5267568 38.3443784,36.6929459 C38.5105676,36.8591351 38.7209189,36.9474595 38.9521892,36.9474595 L39.8586757,36.9474595 C40.0887838,36.9474595 40.2991351,36.8602973 40.4676486,36.6917838 C40.6338378,36.5244324 40.721,36.3152432 40.721,36.0851351 L40.721,34.8846216 C41.4031892,34.7997838 42.0377297,34.6394054 42.6118378,34.406973 C43.258,34.1454865 43.8158378,33.8096216 44.2690811,33.4086757 C44.7304595,33.0030811 45.0907297,32.5184595 45.3405946,31.9710811 C45.5904595,31.4237027 45.7182973,30.8217027 45.7182973,30.1801892 C45.7171351,29.6049189 45.6264865,29.0784595 45.4451892,28.6124324 Z" id="Path" fill="#FFFFFF"></path>
    </g>
</svg>