<svg width="50" height="50" viewBox="0 0 50 50" fill="none" xmlns="http://www.w3.org/2000/svg">
<rect x="0.5" y="0.5" width="49" height="49" rx="9.5" fill="white" stroke="#E5E5E5"/>
<path d="M30.7722 14.0405H23.7974V20.4036H30.7722V14.0405Z" fill="#FFFDFD"/>
<path fill-rule="evenodd" clip-rule="evenodd" d="M13.1521 24.583C13.3007 25.4177 13.5351 26.5211 13.9468 27.6245C14.3527 28.7279 14.9415 29.8256 15.7133 30.8318C16.4909 31.838 17.4571 32.7584 18.6405 33.4845C19.8182 34.2163 21.2132 34.7537 23.1513 34.6965C25.0894 34.6336 27.5706 33.9762 29.4972 32.5412C31.4239 31.1005 32.8017 28.888 33.5449 26.0294C33.8136 25.0118 33.9966 23.9141 34.1166 22.7993C34.917 22.0961 35.7403 21.2957 36.2548 20.7468C36.8494 20.1122 37.0209 19.8092 36.998 19.6606C36.9923 19.5634 36.9123 19.4548 36.7922 19.329C36.5064 19.0203 36.0547 18.6487 35.3858 18.1913C35.1343 18.0198 34.8484 17.8311 34.5511 17.6368C34.3339 17.5167 34.0652 17.3681 33.7679 17.2137C33.3219 16.985 32.8188 16.7335 32.533 16.5848C32.2471 16.4362 32.1842 16.3961 32.1499 16.3333C32.1156 16.2704 32.1214 16.2018 32.3958 16.1675C32.6645 16.1389 33.2019 16.1503 33.8193 16.2075C34.1681 16.2361 34.3282 16.1389 34.311 15.6872C34.231 13.549 34.0594 11.9597 33.8822 11.0621C33.6764 9.99302 33.4706 9.89583 31.2809 10.0673C29.097 10.2389 24.9293 10.6962 22.8082 11.0164C20.6872 11.3423 20.6072 11.5366 20.6529 12.2856C20.6986 13.0402 20.8702 14.3552 21.0474 16.1503C21.2189 17.9455 21.4018 20.2152 21.5219 22.1304C21.642 24.0456 21.6991 25.6064 21.4018 26.4239C21.0988 27.2472 20.4471 27.3329 19.9783 26.9499C19.5095 26.5668 19.2293 25.715 19.0235 25.0061C18.8177 24.3029 18.6919 23.754 18.6005 23.2909C18.5147 22.8221 18.4633 22.4391 18.4061 22.199C18.3489 21.9589 18.2803 21.8674 18.0573 21.8217C17.8287 21.7759 17.4456 21.7816 16.6624 21.896C15.8849 22.0103 14.7014 22.2333 14.0097 22.3705C13.3179 22.5077 13.1121 22.5592 13.0378 22.8736C12.9577 23.1766 13.0092 23.7426 13.1521 24.583ZM28.794 17.7054C28.6911 17.4424 28.6397 17.0365 28.6339 16.5791C28.6282 16.1217 28.674 15.6186 28.8741 15.4185C29.0742 15.2127 29.4401 15.3099 29.6516 15.51C29.8574 15.7044 29.9203 15.996 29.9374 16.419C29.9603 16.8364 29.9432 17.3852 29.8117 17.7054C29.6859 18.0255 29.44 18.1227 29.24 18.1056C29.0399 18.0884 28.8969 17.9741 28.794 17.7054ZM25.4781 17.9683C25.3695 17.3509 25.1865 16.3447 25.1637 15.6529C25.1408 14.9612 25.2837 14.5838 25.5067 14.3437C25.7297 14.1036 26.0384 14.0064 26.2957 14.0636C26.5529 14.1208 26.7645 14.3266 26.9188 14.9955C27.0732 15.6586 27.1704 16.7792 27.1532 17.5681C27.1418 18.3514 27.016 18.7973 26.8731 19.0432C26.7359 19.289 26.5815 19.3347 26.3757 19.2947C26.1756 19.2604 25.924 19.1461 25.7754 18.9803C25.6382 18.8088 25.5925 18.5801 25.4781 17.9683Z" fill="#006BED"/>
<path fill-rule="evenodd" clip-rule="evenodd" d="M21.2415 36.3261C21.1615 36.612 21.0757 36.9379 20.9328 37.1837C20.7841 37.4295 20.5783 37.6011 20.3325 37.7097C20.0866 37.8183 19.8065 37.8755 19.6178 38.0012C19.4292 38.127 19.3434 38.3271 19.452 38.4872C19.5607 38.6416 19.8694 38.7559 20.2181 38.9217C20.5669 39.0818 20.9614 39.299 21.2358 39.5163C21.5102 39.7392 21.676 39.9679 21.8475 40.2366C22.019 40.5053 22.1962 40.8083 22.4478 40.9112C22.7051 41.0141 23.0309 40.9112 23.1453 40.7226C23.2596 40.5339 23.1681 40.2481 23.0424 40.0137C22.9166 39.7793 22.768 39.5906 22.7336 39.4934C22.6993 39.3962 22.768 39.3905 22.9738 39.4991C23.1796 39.6135 23.5112 39.8421 23.7456 40.0137C23.98 40.1852 24.1229 40.3052 24.3001 40.3681C24.4716 40.431 24.6832 40.4482 24.8375 40.3452C24.9919 40.2423 25.0948 40.0194 24.9919 39.8078C24.889 39.602 24.5745 39.4019 24.3401 39.2533C24.1057 39.1046 23.9514 39.0017 24.0314 38.9789C24.1115 38.956 24.4316 39.0246 24.6946 39.0703C24.9519 39.1161 25.152 39.1504 25.3006 39.0646C25.4493 38.9789 25.5522 38.7731 25.5236 38.6073C25.495 38.4415 25.3349 38.3214 25.0891 38.2299C24.8375 38.1385 24.5002 38.0756 24.14 38.0012C23.7799 37.9212 23.4025 37.8297 23.1567 37.6982C22.9052 37.5725 22.7908 37.4238 22.7222 37.2923C22.6536 37.1608 22.625 37.0465 22.585 36.7892C22.5393 36.532 22.4764 36.1375 22.3735 35.8745C22.2706 35.6115 22.1219 35.48 21.9618 35.4514C21.8018 35.4228 21.636 35.4972 21.5102 35.6572C21.3901 35.8116 21.3158 36.046 21.2415 36.3261ZM27.2273 35.5601C27.1701 35.7144 27.1186 35.8859 26.9872 36.0517C26.8557 36.2175 26.6384 36.389 26.4269 36.4977C26.2153 36.6063 26.0095 36.652 25.8895 36.7778C25.7694 36.9036 25.7351 37.1094 25.8094 37.2523C25.8838 37.401 26.0667 37.4753 26.3183 37.6182C26.5641 37.7554 26.8785 37.9498 27.1186 38.1499C27.353 38.35 27.5074 38.5558 27.6675 38.7845C27.8218 39.0132 27.9819 39.259 28.2163 39.3562C28.4507 39.4534 28.7652 39.4019 28.8852 39.2419C29.011 39.0875 28.9481 38.8245 28.8566 38.6187C28.7652 38.4129 28.6394 38.2699 28.6394 38.2185C28.6337 38.1728 28.748 38.2242 28.8681 38.2814C28.9881 38.3443 29.1082 38.4129 29.2625 38.5043C29.4169 38.5901 29.5941 38.693 29.7828 38.7502C29.9715 38.8074 30.1601 38.8245 30.3031 38.7273C30.446 38.6301 30.5375 38.4243 30.4746 38.2699C30.4117 38.1042 30.1887 37.9841 30.0286 37.8869C29.8686 37.7897 29.7714 37.7268 29.7942 37.6982C29.8171 37.6754 29.9486 37.6868 30.1087 37.7097C30.2688 37.7325 30.446 37.7611 30.5603 37.6982C30.6747 37.6354 30.7261 37.481 30.6861 37.3323C30.6461 37.1837 30.5203 37.0293 30.3488 36.9379C30.1773 36.8407 29.9486 36.7949 29.6913 36.7378C29.4341 36.6806 29.1482 36.6063 28.9367 36.4462C28.7251 36.2861 28.5879 36.0346 28.485 35.8059C28.3821 35.5772 28.3135 35.36 28.1992 35.2056C28.0963 35.0512 27.9533 34.9598 27.8104 34.9598C27.6732 34.954 27.536 35.0341 27.4331 35.1427C27.3588 35.2628 27.2902 35.4057 27.2273 35.5601Z" fill="#ED9900"/>
</svg>
