<?xml version="1.0" encoding="UTF-8"?>
<svg width="105px" height="25px" viewBox="0 0 105 25" version="1.1" xmlns="http://www.w3.org/2000/svg" xmlns:xlink="http://www.w3.org/1999/xlink">
    <!-- Generator: Sketch 53.2 (72643) - https://sketchapp.com -->
    <title>dimi (2) 2</title>
    <desc>Created with Sketch.</desc>
    <g id="Page-1" stroke="none" stroke-width="1" fill="none" fill-rule="evenodd">
        <g id="dimi-(2)-2" fill="#6610F2" fill-rule="nonzero">
            <g id="dimi-(2)">
                <path d="M48.2857,24.7857 C47.9286,24.7857 47.5,24.7857 47,24.7857 C46.5,24.7143 46,24.7143 45.4286,24.6429 C44.9286,24.5714 44.3571,24.5 43.8571,24.3571 C43.3571,24.2857 42.8571,24.1429 42.4286,23.9286 C41.1429,23.5 40.5714,22.6429 40.5714,21.4286 L40.5714,5.57143 C40.5714,5.07143 40.7143,4.71429 40.9286,4.42857 C41.2143,4.14286 41.5714,3.92857 42,3.78571 C43,3.5 44,3.28571 45.0714,3.21429 C46.1429,3.07143 47.1429,3.07143 48,3.07143 C49.7143,3.07143 51.2857,3.28571 52.7857,3.71429 C54.2143,4.14286 55.4286,4.78571 56.4286,5.71429 C57.4286,6.57143 58.2857,7.71429 58.8571,9.07143 C59.3571,10.4286 59.6429,12.0714 59.6429,13.8571 C59.6429,15.7143 59.3571,17.2857 58.8571,18.6429 C58.3571,20 57.5,21.1429 56.5714,22.0714 C55.5714,22.9286 54.3571,23.6429 52.9286,24.1429 C51.5714,24.5714 50,24.7857 48.2857,24.7857 Z M46.4286,19.8571 C46.7143,19.8571 47,19.9286 47.3571,19.9286 C47.7143,20 48,20 48.3571,20 C49.0714,20 49.7857,19.8571 50.4286,19.6429 C51.0714,19.4286 51.6429,19.0714 52.1429,18.6429 C52.5714,18.1429 52.9286,17.5 53.1429,16.7857 C53.4286,16 53.5714,15.0714 53.5714,14 C53.5714,11.9286 53.0714,10.4286 52.1429,9.42857 C51.2143,8.35714 50,7.85714 48.4286,7.85714 C48.0714,7.85714 47.7857,7.85714 47.4286,7.85714 C47.0714,7.92857 46.7857,7.92857 46.4286,8 L46.4286,19.8571 Z" id="Shape"></path>
                <path d="M68,24.2143 C67.7143,24.2857 67.3571,24.3571 66.8571,24.4286 C66.3571,24.5 65.8571,24.5714 65.4286,24.5714 C64.9286,24.5714 64.5,24.5 64.0714,24.4286 C63.7143,24.3571 63.3571,24.2143 63.0714,24 C62.7857,23.8571 62.6429,23.5714 62.5,23.2143 C62.3571,22.8571 62.2857,22.3571 62.2857,21.7857 L62.2857,7.92857 C62.5,7.92857 62.8571,7.85714 63.3571,7.78571 C63.8571,7.64286 64.3571,7.64286 64.7857,7.64286 C65.3571,7.64286 65.7143,7.64286 66.1429,7.78571 C66.5,7.78571 66.8571,7.92857 67.1429,8.14286 C67.4286,8.35714 67.5714,8.64286 67.7143,9 C67.8571,9.28571 68,9.78571 68,10.3571 L68,24.2143 Z" id="Path"></path>
                <path d="M78.5,7.21429 C79.4286,7.21429 80.2857,7.35714 81.2143,7.57143 C82.0714,7.85714 82.8571,8.21429 83.5,8.78571 C84.1429,8.28571 84.9286,7.92857 85.7857,7.64286 C86.5714,7.35714 87.6429,7.14286 88.8571,7.14286 C89.6429,7.14286 90.5,7.28571 91.3571,7.5 C92.1429,7.71429 92.8571,8.07143 93.5,8.57143 C94.1429,9.07143 94.6429,9.71428 95.0714,10.5 C95.4286,11.2857 95.6429,12.2857 95.6429,13.5 L95.6429,24.2143 C95.4286,24.2857 95.0714,24.3571 94.5714,24.4286 C94.0714,24.4286 93.5714,24.5 93.0714,24.5 C92.5714,24.5 92.1429,24.5 91.7857,24.4286 C91.3571,24.3571 91,24.2143 90.7857,24 C90.5,23.7857 90.2857,23.5 90.1429,23.2143 C90,22.8571 89.9286,22.3571 89.9286,21.7857 L89.9286,13.6429 C89.9286,13 89.7143,12.5 89.3571,12.2143 C89,11.8571 88.4286,11.7143 87.7857,11.7143 C87.5,11.7143 87.1429,11.7857 86.7857,11.9286 C86.4286,12.0714 86.2143,12.2857 86,12.4286 C86,12.5 86,12.5714 86,12.6429 C86,12.7857 86,12.7857 86,12.9286 L86,24.2143 C85.7857,24.2857 85.4286,24.3571 84.9286,24.4286 C84.4286,24.5 83.9286,24.5714 83.4286,24.5714 C82.9286,24.5714 82.5,24.5 82.1429,24.4286 C81.7143,24.3571 81.4286,24.2143 81.1429,24 C80.8571,23.8571 80.6429,23.5714 80.5,23.2143 C80.3571,22.8571 80.2857,22.3571 80.2857,21.7857 L80.2857,13.6429 C80.2857,13 80.1429,12.5 79.7143,12.2143 C79.2857,11.8571 78.7857,11.7143 78.2143,11.7143 C77.7857,11.7143 77.4286,11.7857 77.1429,11.9286 C76.8571,12.0714 76.6429,12.2143 76.4286,12.2857 L76.4286,24.2857 C76.2143,24.2857 75.8571,24.4286 75.3571,24.4286 C74.8571,24.5 74.3571,24.5714 73.8571,24.5714 C73.3571,24.5714 72.9286,24.5714 72.5714,24.4286 C72.1429,24.4286 71.7857,24.2857 71.5714,24.0714 C71.2857,23.8571 71.0714,23.5714 70.9286,23.2143 C70.7857,22.9286 70.7143,22.4286 70.7143,21.8571 L70.7143,11.5 C70.7143,10.9286 70.8571,10.4286 71.1429,10.0714 C71.3571,9.71429 71.7143,9.35714 72.2143,9 C72.9286,8.5 73.9286,8.07143 75,7.71429 C76.0714,7.35714 77.2143,7.21429 78.5,7.21429 Z" id="Path"></path>
                <path d="M104.071,24.2143 C103.786,24.2857 103.429,24.3571 103,24.4286 C102.5,24.5 102,24.5714 101.5,24.5714 C101,24.5714 100.571,24.5 100.214,24.4286 C99.7857,24.3571 99.4286,24.2143 99.2143,24 C98.9286,23.8571 98.7143,23.5714 98.5714,23.2143 C98.4286,22.8571 98.3571,22.3571 98.3571,21.7857 L98.3571,7.92857 C98.6429,7.92857 99,7.85714 99.4286,7.78571 C99.9286,7.64286 100.429,7.64286 100.929,7.64286 C101.429,7.64286 101.857,7.64286 102.214,7.78571 C102.643,7.78571 103,7.92857 103.214,8.14286 C103.5,8.35714 103.714,8.64286 103.857,9 C104,9.28571 104.071,9.78571 104.071,10.3571 L104.071,24.2143 Z" id="Path"></path>
                <path d="M98.0714,3.07143 C98.0714,2.21429 98.3571,1.5 98.9286,0.928571 C99.5,0.285714 100.214,0 101.214,0 C102.143,0 102.929,0.285714 103.5,0.928571 C104.071,1.5 104.357,2.21429 104.357,3.07143 C104.357,3.92857 104.071,4.71429 103.5,5.28571 C102.929,5.85714 102.143,6.14286 101.214,6.14286 C100.214,6.14286 99.5,5.85714 98.9286,5.28571 C98.3571,4.71429 98.0714,4 98.0714,3.07143 Z" id="Path"></path>
                <path d="M61.9286,3.07143 C61.9286,2.21429 62.2143,1.5 62.7857,0.928571 C63.3571,0.285714 64.1429,0 65.0714,0 C66.0714,0 66.7857,0.285714 67.3572,0.928571 C67.9286,1.5 68.2143,2.21429 68.2143,3.07143 C68.2143,3.92857 68,4.71429 67.3572,5.28571 C66.7857,5.85714 66.0714,6.14286 65.0714,6.14286 C64.1429,6.14286 63.3571,5.85714 62.7857,5.28571 C62.2857,4.71429 61.9286,4 61.9286,3.07143 Z" id="Path"></path>
                <path d="M11.5,20.3571 C11.5,21.3571 10.8571,22.2143 10,22.2143 C9.14286,22.2143 8.5,21.4286 8.5,20.3571 L8.42857,17.5 C8.42857,16.5 9.07143,15.6429 9.92857,15.6429 C10.7857,15.6429 11.4286,16.4286 11.4286,17.5 L11.5,20.3571 Z" id="Path"></path>
                <path d="M18.7143,20.3571 C18.7857,21.3571 18.0714,22.2143 17.2857,22.2143 C16.4286,22.2143 15.7143,21.4286 15.7143,20.3571 L15.7143,17.5 C15.7143,16.4286 16.3571,15.5714 17.2143,15.5714 C18,15.5714 18.7143,16.4286 18.7143,17.4286 L18.7143,20.3571 Z" id="Path"></path>
                <path d="M25,2 C25,1.35714 25.3571,0.785715 25.9286,0.785715 C26.4286,0.785715 26.8571,1.21429 26.8571,1.92857 C26.9286,2.57143 26.5,3.07143 26,3.14286 C25.5,3.14286 25.0714,2.64286 25,2 Z" id="Path"></path>
                <polygon id="Path" points="26.2513 1.66698 25.5383 1.70903 26.2827 14.33 26.9957 14.2879"></polygon>
                <path d="M2.14286,2 C2.21429,1.35714 1.78572,0.785715 1.28572,0.785715 C0.785717,0.785715 0.285717,1.21429 0.285717,1.92857 C0.285717,2.57143 0.64286,3.07143 1.21429,3.14286 C1.71429,3.14286 2.14286,2.64286 2.14286,2 Z" id="Path"></path>
                <polygon id="Path" points="0.825831 2.92945 0.228661 13.0547 1.08432 13.1052 1.68149 2.97991"></polygon>
                <path d="M26.2857,11.6429 C25.7143,10.7857 24.8571,10.7857 24.5,10.8571 C24.3571,10.2143 24.1429,9.64286 23.9286,9.35714 C22.7857,7.71429 17.1429,7.42857 14.7143,7.35714 C14.0714,7.28571 13.6429,7.35714 13.5714,7.35714 C13.5714,7.35714 13.3571,7.35714 13,7.35714 C11,7.35714 4.42857,7.57143 3.21429,9.35714 C3,9.64286 2.78572,10.2143 2.64286,10.8571 C2.28572,10.7857 1.42857,10.7857 0.857145,11.7143 C0.214287,12.6429 1.62423e-06,18.4286 0.214287,21.7143 C0.214287,21.7143 2.57143,23.1429 4.57143,23.5 C3.57143,19.2143 4.07143,12.5714 4.92857,11.3571 C5.85714,10.0714 11.1429,9.92857 12.9286,9.92857 C13.0714,9.92857 13.1429,9.92857 13.2143,9.92857 C13.4286,9.92857 13.5714,9.92857 13.5714,9.92857 L13.6429,9.92857 C13.6429,9.92857 13.7143,9.92857 13.9286,9.92857 C14.1429,9.92857 14.4286,9.92857 14.7143,9.92857 C16.8571,9.92857 21.4286,10.2143 22.2857,11.3571 C23.1429,12.5714 23.5714,19.2143 22.5714,23.5 C24.5714,23.1429 26.9286,21.7143 26.9286,21.7143 C27.2143,18.3571 26.9286,12.5714 26.2857,11.6429 Z" id="Path"></path>
            </g>
        </g>
    </g>
</svg>