<?xml version="1.0" encoding="UTF-8"?>
<svg width="108px" height="18px" viewBox="0 0 108 18" version="1.1" xmlns="http://www.w3.org/2000/svg" xmlns:xlink="http://www.w3.org/1999/xlink">
    <!-- Generator: Sketch 52.4 (67378) - http://www.bohemiancoding.com/sketch -->
    <title>Artboard</title>
    <desc>Created with Sketch.</desc>
    <defs>
        <linearGradient x1="20.4848946%" y1="7.76970012%" x2="82.2975374%" y2="96.348176%" id="linearGradient-1">
            <stop stop-color="#E25416" offset="0%"></stop>
            <stop stop-color="#F9A020" offset="100%"></stop>
        </linearGradient>
    </defs>
    <g id="Artboard" stroke="none" stroke-width="1" fill="none" fill-rule="evenodd">
        <path d="M57.0708333,0.4275 C52.0795833,0.4275 48.0279167,4.257 48.0279167,8.97975 C48.0279167,14.00175 51.9008333,17.75925 57.0708333,17.75925 C62.105625,17.75925 66.0816667,13.9545 66.0816667,9.08325 C66.079375,4.23 62.1308333,0.4275 57.0708333,0.4275 Z" id="Path" fill="url(#linearGradient-1)"></path>
        <path d="M107.670833,17.38125 L102.278542,10.296 C104.7925,9.7965 106.18125,8.1045 106.18125,5.535 C106.18125,2.3805 103.978958,0.567 100.124375,0.567 L95.1697917,0.567 L95.1697917,17.38125 L98.50875,17.38125 L98.50875,10.62675 L98.9464583,10.62675 L103.56875,17.38125 L107.670833,17.38125 Z M102.74375,5.70825 C102.74375,7.39575 101.609375,8.30475 99.4827083,8.30475 L98.50875,8.30475 L98.50875,3.21075 L99.533125,3.21075 C101.609375,3.21525 102.74375,4.0725 102.74375,5.70825 Z M83.4845833,17.38125 L83.4845833,0.567 L92.9560417,0.567 L92.9560417,3.4155 L86.82125,3.4155 L86.82125,7.14825 L92.7245833,7.14825 L92.7245833,9.99675 L86.82125,9.99675 L86.82125,14.535 L92.9560417,14.535 L92.9560417,17.3835 L83.4845833,17.3835 L83.4845833,17.38125 Z M74.5745833,17.811 L72.7779167,17.811 L65.5133333,0.567 L69.1570833,0.567 L73.724375,11.862 L78.3466667,0.567 L81.9697917,0.567 L74.5745833,17.811 Z M42.484375,17.75925 C37.3991667,17.75925 33.4460417,13.9275 33.4460417,8.9865 C33.4460417,4.0995 37.5045833,0.189 42.5622917,0.189 C43.996875,0.189 45.2045833,0.4905 46.6689583,1.22175 L46.6689583,5.0805 C45.2802083,3.74175 44.0747917,3.18825 42.484375,3.18825 C39.349375,3.18825 36.8835417,5.733 36.8835417,8.9595 C36.8835417,12.3615 39.27375,14.7555 42.6379167,14.7555 C44.1527083,14.7555 45.330625,14.22675 46.6689583,12.915 L46.6689583,16.77375 C45.1564583,17.4825 43.92125,17.75925 42.484375,17.75925 Z M26.4885417,17.7885 C23.9447917,17.7885 22.0977083,16.80525 20.5577083,14.58675 L22.7141667,12.546 C23.481875,14.00625 24.7675,14.787 26.355625,14.787 C27.8475,14.787 28.9497917,13.779 28.9497917,12.41775 C28.9497917,11.71125 28.6220833,11.10825 27.9552083,10.67625 C27.6183333,10.476 26.9514583,10.17 25.6429167,9.72225 C22.5102083,8.613 21.433125,7.4295 21.433125,5.10975 C21.433125,2.36475 23.7454167,0.297 26.7704167,0.297 C28.645,0.297 30.3683333,0.927 31.8029167,2.16 L30.0589583,4.4055 C29.18125,3.44475 28.3654167,3.042 27.3616667,3.042 C25.9270833,3.042 24.8683333,3.84975 24.8683333,4.90725 C24.8683333,5.81625 25.4664583,6.29325 27.4647917,7.0245 C31.264375,8.388 32.3941667,9.59625 32.3941667,12.267 C32.3941667,15.516 29.9535417,17.7885 26.4885417,17.7885 Z M15.9629167,0.567 L19.2972917,0.567 L19.2972917,17.38125 L15.9629167,17.38125 L15.9629167,0.567 Z M14.4229167,8.9865 C14.4229167,4.02075 10.64625,0.567 5.23104167,0.567 L0.329166667,0.567 L0.329166667,17.38125 L5.20354167,17.38125 C7.79770833,17.38125 9.67229167,16.776 11.3154167,15.4395 C13.2679167,13.8555 14.4229167,11.457 14.4229167,8.9865 Z M10.9808333,8.96175 C10.9808333,10.57725 10.2910417,12.18825 9.13375,13.19625 C8.081875,14.12775 6.720625,14.53275 4.56416667,14.53275 L3.66583333,14.53275 L3.66583333,3.41325 L4.56645833,3.41325 C6.72291667,3.41325 8.03145833,3.79125 9.13604167,4.7745 C10.2910417,5.78475 10.9808333,7.3485 10.9808333,8.96175 Z" id="Shape" fill="#221F1F" fill-rule="nonzero"></path>
        <path d="M49.03625,9.99225 C49.03625,5.2695 53.0879167,1.44 58.0791667,1.44 C60.3777083,1.44 62.4447917,2.22525 64.0191667,3.53475 C62.3829167,1.6245 59.891875,0.4275 57.0479167,0.4275 C52.0566667,0.4275 48.005,4.257 48.005,8.97975 C48.005,11.7405 49.1760417,14.1165 51.0872917,15.69825 C49.7970833,14.1885 49.03625,12.21525 49.03625,9.99225 Z" id="Path" fill="#A3310B"></path>
    </g>
</svg>