<svg width="64" height="64" viewBox="0 0 64 64" fill="none" xmlns="http://www.w3.org/2000/svg">
<path d="M0 5.97665C0 2.67584 2.67584 0 5.97665 0H58.0233C61.3242 0 64 2.67584 64 5.97665V58.0233C64 61.3242 61.3242 64 58.0233 64H5.97665C2.67584 64 0 61.3242 0 58.0233V5.97665Z" fill="#FF9001"/>
<path fill-rule="evenodd" clip-rule="evenodd" d="M21.143 25.869C21.964 25.5571 22.9709 25.4302 24.1639 25.4893L27.3255 25.6456C27.6766 25.663 27.9613 25.9606 27.9613 26.3099V28.1944C27.9613 28.3041 27.872 28.3889 27.7615 28.3832L24.1462 28.2046C23.4493 28.1701 22.9414 28.2478 22.6225 28.4378C22.3035 28.6279 22.1441 28.8876 22.1441 29.2166C22.1441 29.546 22.3331 29.8023 22.711 29.9855C23.089 30.1687 23.6973 30.3693 24.536 30.5871C25.4809 30.8338 26.2634 31.0871 26.8835 31.347C27.5036 31.6069 28.0411 31.9981 28.4958 32.5203C28.9506 33.0426 29.178 33.7326 29.178 34.591C29.178 35.3317 28.9713 35.9919 28.5578 36.571C28.1444 37.15 27.5243 37.5986 26.6975 37.9165C25.8707 38.2342 24.8667 38.3638 23.6855 38.3055L19.984 38.1208C19.6331 38.1034 19.3486 37.806 19.3486 37.4565V35.574C19.3486 35.464 19.438 35.3795 19.5485 35.3849L23.7032 35.5901C25.0498 35.6568 25.723 35.355 25.723 34.6848C25.723 34.332 25.5311 34.0609 25.1472 33.8713C24.7633 33.6819 24.1462 33.4722 23.2957 33.242C22.3626 32.996 21.583 32.7427 20.957 32.4826C20.331 32.2225 19.7935 31.8283 19.3447 31.3007C18.8959 30.7728 18.6714 30.0798 18.6714 29.2215C18.6714 28.469 18.8781 27.8002 19.2915 27.215C19.705 26.6298 20.3221 26.1813 21.143 25.869ZM35.1961 28.3524C36.1292 28.3524 36.9826 28.5435 37.7561 28.9256C38.53 29.3077 39.1471 29.8662 39.6078 30.6011C40.0197 31.2583 40.2474 32.026 40.2909 32.9042C40.2998 33.083 40.1799 33.2428 40.0032 33.2766L33.4421 34.5254C33.808 35.2896 34.5347 35.6718 35.6213 35.6718C36.8532 35.6718 37.6234 35.1373 38.3494 34.3125C38.4798 34.1645 38.7062 34.1491 38.8553 34.2779L40.2661 35.4961C40.3305 35.552 40.3433 35.6487 40.2931 35.7176C39.1912 37.2307 37.2445 38.2291 35.515 38.2291C34.3927 38.2291 33.4066 38.0175 32.556 37.5942C31.7055 37.1709 31.0473 36.583 30.5804 35.8305C30.1141 35.078 29.8806 34.2255 29.8806 33.2731C29.8806 32.3325 30.1109 31.4889 30.5718 30.7422C31.0325 29.9956 31.6671 29.4106 32.4762 28.9873C33.2853 28.564 34.1921 28.3524 35.1961 28.3524ZM50.8007 28.6514C51.4998 28.4133 52.3652 28.3149 53.3759 28.3602L56.0234 28.4773C56.3817 28.4932 56.673 28.7717 56.673 29.098V30.5117C56.673 30.5822 56.6445 30.6481 56.5926 30.6976C56.5365 30.7507 56.4575 30.7784 56.3773 30.7757L53.3498 30.6417C52.7922 30.618 52.3839 30.6709 52.1378 30.8024C51.9119 30.9227 51.8019 31.0787 51.8019 31.2786C51.8019 31.4739 51.9333 31.6257 52.2028 31.7428C52.5106 31.8768 53.0178 32.0265 53.7098 32.1874C54.5021 32.3729 55.1688 32.5661 55.6909 32.7621C56.2247 32.9625 56.6942 33.2684 57.086 33.6716C57.4881 34.0851 57.6918 34.6363 57.6918 35.3102C57.6918 35.8917 57.5082 36.4169 57.1458 36.8715C56.7865 37.3227 56.2434 37.6757 55.532 37.9207C54.9357 38.1259 54.2248 38.2291 53.414 38.2291C53.2671 38.2291 53.1175 38.2259 52.9642 38.2188L49.8646 38.0804C49.5065 38.0645 49.2152 37.7862 49.2152 37.4599V36.0475C49.2152 35.9769 49.2437 35.911 49.2956 35.8613C49.3517 35.8084 49.4322 35.7849 49.511 35.7832L52.9898 35.9375C53.7295 35.9688 54.2145 35.8831 54.4288 35.6791C54.5122 35.5999 54.5526 35.5024 54.5526 35.3807C54.5526 35.1671 54.4187 35.004 54.1436 34.8825C53.8301 34.7438 53.3156 34.5873 52.614 34.4173C51.8322 34.2326 51.1685 34.0393 50.6419 33.8433C50.102 33.6422 49.6323 33.3336 49.2454 32.9262C48.8488 32.5086 48.648 31.9554 48.648 31.2821C48.648 30.692 48.8315 30.1601 49.1935 29.7013C49.553 29.2457 50.0937 28.8925 50.8007 28.6514ZM11.1966 25.7245C12.555 25.7245 13.7598 25.9773 14.811 26.4829C15.8622 26.9885 16.6772 27.7057 17.256 28.6346C17.8348 29.5635 18.1242 30.6511 18.1242 31.8974C18.1242 33.1438 17.8348 34.2314 17.256 35.1603C16.6772 36.0892 15.8622 36.8064 14.811 37.312C13.7598 37.8176 12.555 38.0704 11.1966 38.0704H6.72588C6.49973 38.0704 6.31641 37.8879 6.31641 37.6628V26.1321C6.31641 25.907 6.49973 25.7245 6.72588 25.7245H11.1966ZM44.37 28.5111C44.5364 28.5111 44.671 28.6451 44.671 28.8107V29.6575C45.0135 29.2225 45.4596 28.8962 46.0086 28.6787C46.9142 28.3223 47.8956 28.9866 47.8956 29.9559L47.8938 30.8838C47.8936 30.9301 47.8567 30.9666 47.8102 30.9681C46.1543 31.0215 44.8304 32.3744 44.8304 34.0335V37.7708C44.8304 37.9362 44.6958 38.0704 44.5295 38.0704H41.765C41.5989 38.0704 41.4641 37.9362 41.4641 37.7708V28.8107C41.4641 28.6451 41.5989 28.5111 41.765 28.5111H44.37ZM11.0549 28.5111H9.82449V35.2837H11.0549C12.1179 35.2837 12.9713 34.9839 13.6151 34.3843C14.2588 33.7846 14.5807 32.9557 14.5807 31.8974C14.5807 30.8392 14.2588 30.0103 13.6151 29.4106C12.9713 28.811 12.1179 28.5111 11.0549 28.5111ZM35.2136 30.7334C34.6351 30.7334 34.1626 30.9127 33.7964 31.2713C33.43 31.6299 33.2233 32.1444 33.1763 32.8146L37.0742 32.0562L37.0491 31.9773C36.9256 31.614 36.7095 31.3198 36.4009 31.095C36.0702 30.8539 35.6743 30.7334 35.2136 30.7334Z" fill="white"/>
</svg>
