<svg width="129" height="26" viewBox="0 0 129 26" fill="none" xmlns="http://www.w3.org/2000/svg">
<path d="M0.488525 1.08447L11.4625 10.0987L19.4316 1.4764C19.5622 1.34576 19.4316 1.21511 19.3009 1.21511H0.488525V1.08447ZM0.488525 25.3839L11.4625 16.3696L19.4316 24.9919C19.5622 25.1226 19.4316 25.2532 19.3009 25.2532H0.488525V25.3839Z" fill="#2C98D2"/>
<path d="M0.616291 1.21563L15.2481 13.104C15.3788 13.2347 15.3788 13.3653 15.2481 13.3653L0.616291 25.2537C0.485649 25.3843 0.224365 25.2537 0.224365 25.1231V1.34627C0.224365 1.08499 0.485649 1.08499 0.616291 1.21563ZM60.9727 18.3297C60.9727 22.5102 57.5761 25.3843 53.3956 25.3843H43.3362C43.2055 25.3843 43.0749 25.2537 43.0749 25.1231V1.34627C43.2055 1.21563 43.2055 1.08499 43.3362 1.08499H52.7423C56.7922 1.08499 60.0583 3.82846 60.0583 7.87837C60.0583 9.96863 59.1438 11.5363 57.8374 12.7121C59.797 13.8879 60.9727 15.8475 60.9727 18.3297ZM47.9086 5.78809V10.7525C47.9086 10.8831 48.0392 11.0138 48.1699 11.0138H52.7423C54.31 11.0138 55.4858 9.70734 55.3552 8.13965C55.2245 6.83322 54.0487 5.78809 52.6117 5.78809H48.1699C48.0392 5.52681 47.9086 5.65745 47.9086 5.78809ZM56.2697 17.8072C56.1391 16.3701 54.8326 15.1943 53.3956 15.1943H47.9086V20.9426H53.3956C55.0939 20.9426 56.4003 19.5055 56.2697 17.8072ZM78.0868 20.9426H68.6806C68.55 20.9426 68.55 20.9426 68.55 21.0732L67.2436 25.1231C67.2436 25.2537 67.1129 25.2537 67.1129 25.2537H62.2792C62.1486 25.2537 62.0179 25.1231 62.1486 24.9924L70.5096 1.08499C70.5096 0.954346 70.6403 0.954346 70.6403 0.954346H76.2577C76.3888 0.954346 76.3888 0.954346 76.3888 1.08499L84.7496 24.9924C84.7496 25.1231 84.7496 25.2537 84.6192 25.2537H79.7854C79.6543 25.2537 79.6543 25.2537 79.6543 25.1231L78.3483 21.0732C78.2172 21.0732 78.2172 20.9426 78.0868 20.9426ZM76.6496 16.2394L73.5145 7.09451C73.5145 6.96387 73.253 6.96387 73.1226 7.09451L69.9871 16.2394C69.9871 16.3701 69.987 16.5007 70.1177 16.5007H76.2577C76.6496 16.5007 76.6496 16.3701 76.6496 16.2394ZM106.044 1.34627V25.1231C106.044 25.2537 105.914 25.2537 105.914 25.2537H102.517C102.517 25.2537 102.386 25.2537 102.386 25.1231L92.0658 10.4912V25.1231C92.0658 25.2537 91.9347 25.2537 91.9347 25.2537H87.4928C87.3624 25.2537 87.3624 25.1231 87.3624 25.1231V1.34627C87.3624 1.21563 87.4928 1.21563 87.4928 1.21563H90.8894C90.8894 1.21563 91.0205 1.21563 91.0205 1.34627L101.341 15.9781V1.34627C101.341 1.21563 101.472 1.21563 101.472 1.21563H105.914C105.914 1.08499 106.044 1.21563 106.044 1.34627ZM123.55 25.2537L119.108 17.8072C118.978 17.6765 118.847 17.6765 118.716 17.8072L114.274 25.2537L114.144 25.3843H109.18C109.049 25.3843 108.918 25.2537 109.049 25.1231L116.235 13.104V12.8427L109.441 1.47691C109.31 1.34627 109.441 1.21563 109.572 1.21563H114.536C114.666 1.21563 114.666 1.21563 114.666 1.34627L118.716 8.27026C118.847 8.40093 118.978 8.40093 119.108 8.27026L123.158 1.34627L123.289 1.21563H128.253C128.384 1.21563 128.515 1.34627 128.384 1.47691L121.591 12.8427V13.104L128.776 25.1231C128.907 25.2537 128.776 25.3843 128.645 25.3843H123.681C123.55 25.3843 123.55 25.2537 123.55 25.2537ZM30.6639 20.8119C30.0107 20.6813 29.6187 20.1587 29.6187 19.5055V15.5862C29.6187 15.4556 29.7494 15.4556 29.7494 15.4556H38.5024C38.633 15.4556 38.633 15.3249 38.633 15.3249V11.0138C38.633 10.8831 38.5024 10.8831 38.5024 10.8831H29.7494C29.6187 10.8831 29.6187 10.7525 29.6187 10.7525V5.91873C29.6187 5.78809 29.7494 5.78809 29.7494 5.78809H39.4169C39.5475 5.78809 39.5475 5.65745 39.5475 5.65745V1.34627C39.6782 1.21563 39.5475 1.08499 39.4169 1.08499H25.0463C24.9156 1.08499 24.9156 1.21563 24.9156 1.21563V20.8119C24.9156 23.2941 27.0059 25.3843 29.4881 25.3843H39.9395V20.8119H30.6639Z" fill="#304B74"/>
</svg>
