<svg width="180" height="35" viewBox="0 0 180 35" fill="none" xmlns="http://www.w3.org/2000/svg">
<path d="M0.3647 1.08203L15.6822 13.6642L26.8056 1.62908C26.9879 1.44673 26.8056 1.26438 26.6232 1.26438H0.3647V1.08203ZM0.3647 34.9993L15.6822 22.4171L26.8056 34.4522C26.9879 34.6346 26.8056 34.8169 26.6232 34.8169H0.3647V34.9993Z" fill="#2C98D2"/>
<path d="M0.547053 1.26509L20.9703 17.859C21.1527 18.0414 21.1527 18.2237 20.9703 18.2237L0.547053 34.8176C0.364702 35 0 34.8176 0 34.6353V1.44744C0 1.08274 0.364702 1.08274 0.547053 1.26509ZM84.7931 25.1531C84.7931 30.9883 80.052 35 74.2168 35H60.1758C59.9934 35 59.8111 34.8176 59.8111 34.6353V1.44744C59.9934 1.26509 59.9934 1.08274 60.1758 1.08274H73.305C78.9579 1.08274 83.5167 4.91211 83.5167 10.565C83.5167 13.4826 82.2402 15.6708 80.4167 17.312C83.152 18.9531 84.7931 21.6884 84.7931 25.1531ZM66.5581 7.64737V14.5767C66.5581 14.7591 66.7404 14.9414 66.9228 14.9414H73.305C75.4932 14.9414 77.1344 13.1179 76.9521 10.9297C76.7697 9.10618 75.1285 7.64737 73.1227 7.64737H66.9228C66.7404 7.28267 66.5581 7.46502 66.5581 7.64737ZM78.2285 24.4237C78.0462 22.4178 76.2227 20.7766 74.2168 20.7766H66.5581V28.8001H74.2168C76.5874 28.8001 78.4109 26.7942 78.2285 24.4237ZM108.681 28.8001H95.5518C95.3695 28.8001 95.3695 28.8001 95.3695 28.9824L93.546 34.6353C93.546 34.8176 93.3636 34.8176 93.3636 34.8176H86.6166C86.4343 34.8176 86.2519 34.6353 86.4343 34.4529L98.1047 1.08274C98.1047 0.900391 98.2871 0.900391 98.2871 0.900391H106.128C106.311 0.900391 106.311 0.900391 106.311 1.08274L117.981 34.4529C117.981 34.6353 117.981 34.8176 117.799 34.8176H111.052C110.869 34.8176 110.869 34.8176 110.869 34.6353L109.046 28.9824C108.863 28.9824 108.863 28.8001 108.681 28.8001V28.8001ZM106.675 22.2354L102.299 9.47088C102.299 9.28853 101.934 9.28853 101.752 9.47088L97.3754 22.2354C97.3754 22.4178 97.3753 22.6001 97.5577 22.6001H106.128C106.675 22.6001 106.675 22.4178 106.675 22.2354V22.2354ZM147.704 1.44744V34.6353C147.704 34.8176 147.522 34.8176 147.522 34.8176H142.781C142.781 34.8176 142.598 34.8176 142.598 34.6353L128.193 14.212V34.6353C128.193 34.8176 128.01 34.8176 128.01 34.8176H121.81C121.628 34.8176 121.628 34.6353 121.628 34.6353V1.44744C121.628 1.26509 121.81 1.26509 121.81 1.26509H126.551C126.551 1.26509 126.734 1.26509 126.734 1.44744L141.14 21.8707V1.44744C141.14 1.26509 141.322 1.26509 141.322 1.26509H147.522C147.522 1.08274 147.704 1.26509 147.704 1.44744V1.44744ZM172.139 34.8176L165.939 24.4237C165.757 24.2413 165.575 24.2413 165.392 24.4237L159.192 34.8176L159.01 35H152.081C151.898 35 151.716 34.8176 151.898 34.6353L161.928 17.859V17.4943L152.445 1.62979C152.263 1.44744 152.445 1.26509 152.628 1.26509H159.557C159.739 1.26509 159.739 1.26509 159.739 1.44744L165.392 11.112C165.575 11.2944 165.757 11.2944 165.939 11.112L171.592 1.44744L171.774 1.26509H178.704C178.886 1.26509 179.069 1.44744 178.886 1.62979L169.404 17.4943V17.859L179.433 34.6353C179.616 34.8176 179.433 35 179.251 35H172.322C172.139 35 172.139 34.8176 172.139 34.8176V34.8176ZM42.4877 28.6177C41.576 28.4354 41.0289 27.706 41.0289 26.7942V21.3237C41.0289 21.1413 41.2113 21.1413 41.2113 21.1413H53.4288C53.6111 21.1413 53.6111 20.959 53.6111 20.959V14.9414C53.6111 14.7591 53.4288 14.7591 53.4288 14.7591H41.2113C41.0289 14.7591 41.0289 14.5767 41.0289 14.5767V7.82972C41.0289 7.64737 41.2113 7.64737 41.2113 7.64737H54.7053C54.8876 7.64737 54.8876 7.46502 54.8876 7.46502V1.44744C55.07 1.26509 54.8876 1.08274 54.7053 1.08274H34.6467C34.4643 1.08274 34.4643 1.26509 34.4643 1.26509V28.6177C34.4643 32.0824 37.3819 35 40.8466 35H55.4347V28.6177H42.4877V28.6177Z" fill="#304B74"/>
</svg>
