<svg width="51" height="19" viewBox="0 0 51 19" fill="none" xmlns="http://www.w3.org/2000/svg">
<path d="M9.41268 18.7566C4.32054 18.7768 0.0420382 14.7109 0.000337395 9.54953C-0.0432168 4.17276 4.13521 0.0460679 9.52759 0.0488295C14.6207 0.0515911 18.8426 4.28967 18.8417 9.39948C18.8417 14.5655 14.6179 18.7566 9.41268 18.7566ZM11.1632 10.4857C11.1632 10.4848 11.1632 10.4848 11.1632 10.4848C12.4151 10.4839 13.6671 10.4848 14.9181 10.4839C15.0497 10.4839 15.1924 10.5253 15.1915 10.2952C15.1878 9.463 15.2008 8.63085 15.0247 7.81067C14.7217 6.39122 14.0693 5.18534 12.8461 4.33754C11.785 3.60204 10.5868 3.34798 9.31445 3.39492C7.42587 3.46488 5.85514 4.17 4.72829 5.72108C3.85535 6.92236 3.54676 8.28934 3.61348 9.7456C3.67743 11.1199 4.14169 12.347 5.09711 13.3642C6.2916 14.6363 7.80581 15.2209 9.52296 15.2982C11.4903 15.3866 13.175 14.7376 14.5252 13.2841C14.6651 13.1331 14.6661 13.0558 14.4881 12.9297C13.782 12.4308 13.0842 11.9199 12.392 11.4016C12.2493 11.2948 12.1909 11.3234 12.0964 11.4504C11.848 11.7846 11.5394 12.058 11.1817 12.2734C9.89456 13.0466 7.79469 12.7336 7.184 10.7775C7.10894 10.5363 7.15435 10.4802 7.40733 10.4829C8.65929 10.4921 9.91124 10.4857 11.1632 10.4857ZM9.39971 8.11904C8.71118 8.11904 8.02265 8.11536 7.33413 8.1218C7.17752 8.12364 7.10431 8.10523 7.13489 7.9156C7.28223 6.97851 8.05045 6.22369 9.05127 6.05063C10.1031 5.86837 11.0103 6.26511 11.4662 7.10647C11.5941 7.34212 11.6608 7.59434 11.7044 7.85669C11.7368 8.05276 11.6877 8.12824 11.4662 8.12364C10.7768 8.10983 10.0882 8.11904 9.39971 8.11904Z" fill="#EB2227"/>
<path d="M24.7229 6.35075C26.4438 4.88068 29.4212 4.77205 31.3209 6.12522C32.4663 6.9408 33.1854 8.05279 33.57 9.3765C34.0973 11.1936 34.0398 13.0043 33.2966 14.7542C32.3236 17.0463 30.4684 18.2328 28.0766 18.6397C25.9295 19.0051 23.8166 18.7032 21.7316 18.1527C21.4934 18.0902 21.2617 18.0027 21.0208 17.953C20.7901 17.9051 20.7122 17.8048 20.7131 17.5581C20.7224 12.8386 20.7206 8.11815 20.7206 3.39864C20.7206 2.36029 20.7261 1.32286 20.715 0.284515C20.7131 0.0709546 20.7623 -0.00268707 20.9921 7.44909e-05C22.1449 0.0120413 23.2986 0.0120413 24.4523 7.44909e-05C24.6784 -0.00176655 24.7303 0.0654314 24.7294 0.281754C24.7201 2.18171 24.7238 4.08074 24.7229 5.9807V6.35075ZM24.7229 12.9472H24.7238C24.7238 13.6229 24.7303 14.2994 24.7201 14.9751C24.7174 15.1518 24.773 15.2347 24.9444 15.2872C25.4216 15.4335 25.9118 15.4584 26.4048 15.4796C27.8653 15.5421 29.0478 14.8398 29.5491 13.5483C29.9874 12.4197 29.9939 11.2682 29.55 10.1341C29.3017 9.49985 28.8772 8.99356 28.2304 8.73766C26.4299 8.0261 24.7275 9.17859 24.7238 11.096C24.722 11.7137 24.7229 12.3305 24.7229 12.9472ZM43.1463 11.4237C43.1463 10.3173 43.1417 9.21081 43.151 8.10434C43.1528 7.91011 43.1 7.83187 42.8989 7.80793C42.3605 7.74534 41.8267 7.65421 41.2893 7.58609C41.1225 7.56491 41.053 7.51152 41.0557 7.3311C41.0669 6.73368 41.0669 6.13627 41.0557 5.53885C41.052 5.35474 41.115 5.30412 41.293 5.3078C41.8249 5.31792 42.3577 5.30135 42.8897 5.317C43.0972 5.32253 43.1538 5.26269 43.1519 5.05742C43.1417 3.90216 43.1528 2.74599 43.1417 1.59073C43.1399 1.37533 43.1871 1.30906 43.4151 1.31274C44.4205 1.32655 45.426 1.32747 46.4314 1.31182C46.6779 1.30813 46.7196 1.38914 46.7178 1.61007C46.7067 2.73586 46.7187 3.86258 46.7048 4.98838C46.702 5.23692 46.7511 5.32621 47.0236 5.31884C47.8215 5.29859 48.6203 5.317 49.4191 5.30596C49.6118 5.30319 49.6739 5.35014 49.6702 5.54805C49.6591 6.23292 49.66 6.91871 49.6693 7.6045C49.6721 7.79689 49.6155 7.85212 49.4191 7.84936C48.611 7.83739 47.802 7.84936 46.9939 7.83831C46.7854 7.83555 46.7039 7.87329 46.7048 8.1071C46.7141 10.1829 46.7048 12.2587 46.7113 14.3353C46.7141 15.3313 47.2692 15.8275 48.2709 15.7603C48.8038 15.7244 49.3283 15.6379 49.8426 15.4998C49.9945 15.4593 50.0511 15.4888 50.0817 15.6434C50.2448 16.4691 50.4162 17.2939 50.5867 18.1178C50.6108 18.2347 50.6182 18.3184 50.4653 18.358C48.9177 18.7631 47.3628 18.9278 45.8004 18.4528C44.2185 17.9714 43.2696 16.7572 43.1723 15.0948C43.1361 14.4799 43.15 13.8622 43.1463 13.2454C43.1436 12.6379 43.1463 12.0313 43.1463 11.4237ZM35.6949 12.0331C35.6949 9.88831 35.6986 7.7435 35.6893 5.59776C35.6884 5.37039 35.7384 5.29859 35.9803 5.30227C36.9755 5.31792 37.9717 5.317 38.9679 5.30596C39.1894 5.30319 39.2682 5.34002 39.2672 5.58764C39.258 9.72077 39.2608 13.8539 39.2598 17.9871C39.2598 18.5872 39.0624 18.7851 38.4638 18.7851C37.6261 18.7861 36.7874 18.7778 35.9497 18.7907C35.7356 18.7943 35.6912 18.7253 35.6921 18.5256C35.6986 16.3614 35.6967 14.1963 35.6967 12.0322H35.6949V12.0331Z" fill="#040303"/>
<path fill-rule="evenodd" clip-rule="evenodd" d="M37.4725 3.4329C36.4429 3.43198 35.6877 2.70661 35.6904 1.72349C35.6932 0.742218 36.4512 0.0113241 37.4743 0.00395994C38.4761 -0.00340424 39.2702 0.747741 39.2795 1.71061C39.2888 2.69741 38.515 3.43382 37.4725 3.4329Z" fill="#EB2227"/>
</svg>
