<?xml version="1.0" encoding="UTF-8"?>
<svg width="80px" height="30px" viewBox="0 0 80 30" version="1.1" xmlns="http://www.w3.org/2000/svg" xmlns:xlink="http://www.w3.org/1999/xlink">
    <!-- Generator: Sketch 52.4 (67378) - http://www.bohemiancoding.com/sketch -->
    <title>Artboard</title>
    <desc>Created with Sketch.</desc>
    <g id="Artboard" stroke="none" stroke-width="1" fill="none" fill-rule="evenodd">
        <path d="M14.8948214,29.8029091 C6.84857143,29.8349091 0.0879642857,23.4101818 0.0220714286,15.2545455 C-0.04675,6.75854545 6.55571429,0.237818182 15.0763929,0.242181818 C23.1241071,0.246545455 29.7953929,6.94327273 29.7939286,15.0174545 C29.7939286,23.1803636 23.1197143,29.8029091 14.8948214,29.8029091 Z M17.6608571,16.7338182 C17.6608571,16.7323636 17.6608571,16.7323636 17.6608571,16.7323636 C19.6391071,16.7309091 21.6173571,16.7323636 23.5941429,16.7309091 C23.8020714,16.7309091 24.0275714,16.7963636 24.0261071,16.4327273 C24.02025,15.1178182 24.04075,13.8029091 23.7625357,12.5069091 C23.2837143,10.264 22.2528571,8.35854545 20.32,7.01890909 C18.6433929,5.85672727 16.7500714,5.45527273 14.7396071,5.52945455 C11.7553929,5.64 9.27342857,6.75418182 7.49285714,9.20509091 C6.1135,11.1032727 5.62589286,13.2632727 5.73132143,15.5643636 C5.83235714,17.736 6.56596429,19.6749091 8.07564286,21.2821818 C9.96310714,23.2923636 12.35575,24.216 15.0690714,24.3381818 C18.17775,24.4778182 20.8398214,23.4523636 22.9732857,21.1556364 C23.1943929,20.9170909 23.1958571,20.7949091 22.9147143,20.5956364 C21.7989286,19.8072727 20.6963214,19 19.6025,18.1810909 C19.377,18.0123636 19.28475,18.0574545 19.1353929,18.2581818 C18.7429643,18.7861818 18.2553571,19.2181818 17.6901429,19.5585455 C15.65625,20.7803636 12.3381786,20.2858182 11.3732143,17.1949091 C11.2546071,16.8138182 11.3263571,16.7250909 11.7261071,16.7294545 C13.7043571,16.744 15.6826071,16.7338182 17.6608571,16.7338182 Z M14.8743214,12.9941818 C13.7863571,12.9941818 12.6983929,12.9883636 11.6104286,12.9985455 C11.3629643,13.0014545 11.2472857,12.9723636 11.2956071,12.6727273 C11.5284286,11.192 12.7423214,9.99927273 14.32375,9.72581818 C15.9857143,9.43781818 17.41925,10.0647273 18.1396786,11.3941818 C18.34175,11.7665455 18.4471786,12.1650909 18.516,12.5796364 C18.56725,12.8894545 18.4896429,13.0087273 18.1396786,13.0014545 C17.05025,12.9796364 15.9622857,12.9941818 14.8743214,12.9941818 Z" id="Combined-Shape" fill="#EB2227" fill-rule="nonzero"></path>
        <path d="M39.08775,10.1825455 C41.8069286,7.85963636 46.5116786,7.688 49.5134643,9.82618182 C51.3233214,11.1149091 52.4596071,12.872 53.0672857,14.9636364 C53.9004643,17.8349091 53.8096786,20.696 52.6353214,23.4610909 C51.0978214,27.0829091 48.1663214,28.9578182 44.387,29.6007273 C40.99425,30.1781818 37.6556786,29.7010909 34.3610357,28.8312727 C33.9847143,28.7323636 33.6186429,28.5941818 33.2379286,28.5156364 C32.8733214,28.44 32.7503214,28.2814545 32.7517857,27.8916364 C32.7664286,20.4341818 32.7635,12.9752727 32.7635,5.51781818 C32.7635,3.87709091 32.7722857,2.23781818 32.7547143,0.597090909 C32.7517857,0.259636364 32.8293929,0.143272727 33.1925357,0.147636364 C35.0141071,0.166545455 36.8371429,0.166545455 38.6601786,0.147636364 C39.0174643,0.144727273 39.0994643,0.250909091 39.098,0.592727273 C39.0833571,3.59490909 39.0892143,6.59563636 39.08775,9.59781818 L39.08775,10.1825455 Z M39.08775,20.6058182 L39.0892143,20.6058182 C39.0892143,21.6734545 39.0994643,22.7425455 39.0833571,23.8101818 C39.0789643,24.0894545 39.1668214,24.2203636 39.4377143,24.3032727 C40.1918214,24.5345455 40.9664286,24.5738182 41.7454286,24.6072727 C44.0531429,24.7061818 45.9215714,23.5963636 46.71375,21.5556364 C47.4063571,19.7723636 47.4166071,17.9527273 46.7152143,16.1607273 C46.3227857,15.1585455 45.6521429,14.3585455 44.6300714,13.9541818 C41.7849643,12.8298182 39.0950714,14.6509091 39.0892143,17.6807273 C39.0862857,18.6567273 39.08775,19.6312727 39.08775,20.6058182 Z M68.1992143,18.1985455 C68.1992143,16.4501818 68.1918929,14.7018182 68.2065357,12.9534545 C68.2094643,12.6465455 68.126,12.5229091 67.80825,12.4850909 C66.9575,12.3861818 66.1140714,12.2421818 65.2647857,12.1345455 C65.0012143,12.1010909 64.8913929,12.0167273 64.8957857,11.7316364 C64.9133571,10.7876364 64.9133571,9.84363636 64.8957857,8.89963636 C64.8899286,8.60872727 64.9895,8.52872727 65.2706429,8.53454545 C66.1111429,8.55054545 66.9531071,8.52436364 67.7936071,8.54909091 C68.1216071,8.55781818 68.2109286,8.46327273 68.208,8.13890909 C68.1918929,6.31345455 68.2094643,4.48654545 68.1918929,2.66109091 C68.1889643,2.32072727 68.2636429,2.216 68.6238571,2.22181818 C70.2126071,2.24363636 71.8013571,2.24509091 73.3901071,2.22036364 C73.7796071,2.21454545 73.8455,2.34254545 73.8425714,2.69163636 C73.825,4.47054545 73.8440357,6.25090909 73.8220714,8.02981818 C73.8176786,8.42254545 73.8952857,8.56363636 74.3257857,8.552 C75.5865357,8.52 76.84875,8.54909091 78.1109643,8.53163636 C78.4155357,8.52727273 78.5136429,8.60145455 78.5077857,8.91418182 C78.4902143,9.99636364 78.4916786,11.08 78.5063214,12.1636364 C78.5107143,12.4676364 78.4213929,12.5549091 78.1109643,12.5505455 C76.8341071,12.5316364 75.5557857,12.5505455 74.2789286,12.5330909 C73.9494643,12.5287273 73.8206071,12.5883636 73.8220714,12.9578182 C73.8367143,16.2378182 73.8220714,19.5178182 73.8323214,22.7992727 C73.8367143,24.3730909 74.7138214,25.1570909 76.2967143,25.0509091 C77.1386786,24.9941818 77.9674643,24.8574545 78.7801429,24.6392727 C79.0202857,24.5752727 79.1096071,24.6218182 79.1579286,24.8661818 C79.4156429,26.1709091 79.6865357,27.4741818 79.9559643,28.776 C79.9940357,28.9607273 80.00575,29.0930909 79.7641429,29.1556364 C77.3187857,29.7956364 74.8617143,30.056 72.3929286,29.3054545 C69.8933929,28.5447273 68.3939643,26.6261818 68.2402143,23.9992727 C68.1831071,23.0276364 68.2050714,22.0516364 68.1992143,21.0770909 C68.1948214,20.1170909 68.1992143,19.1585455 68.1992143,18.1985455 Z M56.4248929,19.1614545 C56.4248929,15.7723636 56.43075,12.3832727 56.4161071,8.99272727 C56.4146429,8.63345455 56.4937143,8.52 56.8758929,8.52581818 C58.4485357,8.55054545 60.0226429,8.54909091 61.59675,8.53163636 C61.9467143,8.52727273 62.0711786,8.58545455 62.0697143,8.97672727 C62.0550714,15.5076364 62.0594643,22.0385455 62.058,28.5694545 C62.058,29.5178182 61.7461071,29.8305455 60.8001786,29.8305455 C59.4764643,29.832 58.1512857,29.8189091 56.8275714,29.8392727 C56.4893214,29.8450909 56.4190357,29.736 56.4205,29.4203636 C56.43075,26.0007273 56.4278214,22.5796364 56.4278214,19.16 L56.4248929,19.16 L56.4248929,19.1614545 Z" id="Combined-Shape" fill="#040303" fill-rule="nonzero"></path>
        <path d="M59.2333929,5.56872727 C57.6065714,5.56727273 56.4131786,4.42109091 56.4175714,2.86763636 C56.4219643,1.31709091 57.61975,0.162181818 59.2363214,0.150545455 C60.8192143,0.138909091 62.0741071,1.32581818 62.08875,2.84727273 C62.1033929,4.40654545 60.8807143,5.57018182 59.2333929,5.56872727 Z" id="Path" fill="#EB2227"></path>
    </g>
</svg>