<?xml version="1.0" encoding="UTF-8"?>
<svg width="100px" height="37px" viewBox="0 0 100 37" version="1.1" xmlns="http://www.w3.org/2000/svg" xmlns:xlink="http://www.w3.org/1999/xlink">
    <!-- Generator: Sketch 52.4 (67378) - http://www.bohemiancoding.com/sketch -->
    <title>Artboard</title>
    <desc>Created with Sketch.</desc>
    <g id="Artboard" stroke="none" stroke-width="1" fill="none" fill-rule="evenodd">
        <path d="M94.7640909,22.3171364 C94.1613636,25.2681818 91.5510909,27.489 88.4238636,27.489 C87.7260909,27.489 87.0329545,27.3777273 86.3699545,27.1551818 L84.9326818,31.4484545 C86.057,31.824 87.2369545,32.0164091 88.4238636,32.0140909 C93.7394545,32.0140909 98.1764545,28.2400909 99.2010909,23.2235455 L94.7640909,22.3171364 Z M81.1378182,29.2577727 L84.1352273,25.8662727 C82.7953182,24.6816818 81.9538182,22.95 81.9538182,21.0189545 C81.9538182,19.0902273 82.7976364,17.3608636 84.1352273,16.1762727 L81.1355,12.7847727 C78.8613636,14.7992727 77.4264091,17.7433636 77.4264091,21.0189545 C77.4240909,24.2968636 78.8613636,27.2432727 81.1378182,29.2577727 Z M86.3722727,14.8827273 C87.0167273,14.6671364 87.7052273,14.5512273 88.4238636,14.5512273 C91.5534091,14.5512273 94.166,16.7743636 94.7640909,19.7300455 L99.2010909,18.8259545 C98.1834091,13.8047727 93.7440909,10.0261364 88.4238636,10.0261364 C87.2392727,10.0238182 86.0616364,10.2162273 84.9396364,10.5894545 C84.9373182,10.5871364 86.3722727,14.8827273 86.3722727,14.8827273 Z M73.0914091,5.07218182 L73.0914091,26.3020909 L76.775,27.8297727 L75.0317273,32.0164091 L71.3875455,30.5026364 C70.5692273,30.1479545 70.0151818,29.6055 69.5932727,28.9958182 C69.1899091,28.3699091 68.8885455,27.5145 68.8885455,26.3623636 L68.8885455,5.0745 L73.0914091,5.07218182 Z M56.3077727,10.0284545 C50.2410909,9.93572727 45.2430909,14.7830455 45.1503636,20.8520455 C45.1155909,23.1285 45.7716364,25.2542727 46.9284091,27.0230455 L66.8415909,18.5106818 C65.7219091,13.7143636 61.4564545,10.1072727 56.3077727,10.0284545 Z M49.7102273,21.7028182 C49.6824091,21.4478182 49.6638636,21.1881818 49.6708182,20.9239091 C49.7287727,17.3469545 52.6705455,14.4932727 56.2451818,14.5512273 C58.1901364,14.5767273 59.9171818,15.4692273 61.0855455,16.8462273 L49.7102273,21.7028182 Z M60.6659545,25.6437273 C59.4651364,26.8120909 57.8377727,27.5214545 56.0411818,27.4959545 C54.8102273,27.4750909 53.6673636,27.1065 52.6983636,26.4921818 L50.2920909,30.3264545 C51.9936364,31.4044091 53.9617727,31.9885909 55.9762727,32.0164091 C59.0246818,32.0627727 61.8041818,30.8642727 63.8233182,28.8868636 L60.6659545,25.6437273 Z" id="Shape" fill="#000000" fill-rule="nonzero"></path>
        <path d="M29.2012727,20.6735455 C28.2160455,25.5092727 23.9413182,29.1465 18.8158182,29.1465 C17.6729545,29.1465 16.5370455,28.9633636 15.4521364,28.6017273 L13.0968636,35.6374091 C14.9398182,36.2540455 16.8708636,36.567 18.8158182,36.5646818 C27.5275455,36.5646818 34.7950455,30.3820909 36.4687727,22.1641364 L29.2012727,20.6735455 Z" id="Path" fill="#ED412F"></path>
        <path d="M6.87718182,32.0395909 L11.7917273,26.4829091 C9.59872727,24.5402727 8.21477273,21.7051364 8.21477273,18.5431364 C8.21477273,15.3834545 9.59872727,12.5483182 11.7917273,10.608 L6.87486364,5.05363636 C3.14954545,8.35472727 0.801227273,13.1742273 0.801227273,18.5454545 C0.798909091,23.9166818 3.14954545,28.7385 6.87718182,32.0395909" id="Path" fill="#1AA5DF"></path>
        <path d="M15.4521364,8.48918182 C16.5347273,8.12754545 17.6706364,7.94440909 18.8135,7.94440909 C23.9436364,7.94440909 28.2206818,11.5885909 29.2035909,16.4266364 L36.4710909,14.9453182 C34.8043182,6.72040909 27.5321818,0.528545455 18.8135,0.528545455 C16.8731818,0.526227273 14.9444545,0.839181818 13.1015,1.4535 L15.4521364,8.48918182 Z" id="Path" fill="#FFCA32"></path>
    </g>
</svg>