<?xml version="1.0" encoding="UTF-8"?>
<svg width="134px" height="28px" viewBox="0 0 134 28" version="1.1" xmlns="http://www.w3.org/2000/svg" xmlns:xlink="http://www.w3.org/1999/xlink">
    <!-- Generator: Sketch 52.4 (67378) - http://www.bohemiancoding.com/sketch -->
    <title>Artboard</title>
    <desc>Created with Sketch.</desc>
    <g id="Artboard" stroke="none" stroke-width="1" fill="none" fill-rule="evenodd">
        <path d="M69.1989212,13.7494274 C68.1009536,13.7494274 67.3094815,14.1148409 66.5069312,14.4871255 L66.5069312,22.9110006 C67.2756316,22.9853326 67.7162957,22.9853326 68.4456071,22.9853326 C71.0809754,22.9853326 71.4422461,21.7604164 71.4422461,20.0501562 L71.4422461,16.0268595 C71.4422461,14.7638404 71.0292774,13.7494274 69.1989212,13.7494274 Z M51.6966785,13.2896935 C49.8681686,13.2896935 49.4508917,14.3084789 49.4508917,15.5702487 L49.4508917,16.2792134 L53.9400034,16.2792134 L53.9400034,15.5702487 C53.9400034,14.3084789 53.5227265,13.2896935 51.6966785,13.2896935 Z M17.7913915,22.0577444 C17.7913915,23.0559167 18.2554428,23.5743667 19.279556,23.5743667 C20.378139,23.5743667 21.0286725,23.2108271 21.8306073,22.8372932 L21.8306073,20.8390746 L19.4284956,20.8390746 C18.291139,20.8390746 17.7913915,21.0539503 17.7913915,22.0577444 Z M86.2241881,13.7494274 C84.392601,13.7494274 83.7580693,14.7638404 83.7580693,16.0268595 L83.7580693,20.6360671 C83.7580693,21.9022094 84.392601,22.9197455 86.2241881,22.9197455 C88.0508516,22.9197455 88.6903069,21.9022094 88.6903069,20.6360671 L88.6903069,16.0268595 C88.6896914,14.7638404 88.0502361,13.7494274 86.2241881,13.7494274 Z M8.81562991,27.2260035 L3.43165005,27.2260035 L3.43165005,13.9999075 L0.741506481,13.9999075 L0.741506481,9.44254482 L3.43226551,9.44254482 L3.43226551,6.70537883 C3.43226551,2.98690573 4.95058721,0.776310006 9.26614126,0.776310006 L12.8591539,0.776310006 L12.8591539,5.33492192 L10.6133671,5.33492192 C8.93318137,5.33492192 8.82239989,5.97205321 8.82239989,7.16074031 L8.81562991,9.44192019 L12.883772,9.44192019 L12.4080271,13.9992828 L8.81562991,13.9992828 L8.81562991,27.2260035 Z M27.2158181,27.2603586 L22.7285527,27.2603586 L22.5346851,26.1085252 C20.4858432,27.2603586 18.6573334,27.4471255 17.4510462,27.4471255 C14.1602208,27.4471255 12.4086425,25.2159167 12.4086425,22.1302024 C12.4086425,18.4898091 14.4525608,17.190561 18.1089651,17.190561 L21.8306073,17.190561 L21.8306073,16.4035165 C21.8306073,14.5452169 21.6207379,13.9999075 18.805042,13.9999075 L14.2014561,13.9999075 L14.651352,9.44254482 L19.683293,9.44254482 C25.8612067,9.44254482 27.2158181,11.4232736 27.2158181,16.4403702 L27.2158181,27.2603586 Z M42.4747358,14.3340891 C39.6824271,13.8481203 38.8804923,13.7413071 37.5369591,13.7413071 C35.1237693,13.7413071 34.3944579,14.2816194 34.3944579,16.3616657 L34.3944579,20.2962637 C34.3944579,22.37631 35.1237693,22.9191209 37.5369591,22.9191209 C38.8804923,22.9191209 39.6824271,22.8104338 42.4747358,22.3225911 L42.4747358,26.7681434 C40.028927,27.3246964 38.43552,27.4708618 37.0889096,27.4708618 C31.3085782,27.4708618 29.0110935,24.3857721 29.0110935,19.9289763 L29.0110935,16.7364488 C29.0110935,12.2759051 31.3085782,9.18519375 37.0889096,9.18519375 C38.43552,9.18519375 40.028927,9.33198381 42.4747358,9.89103528 L42.4747358,14.3340891 Z M59.3233678,19.9289763 L49.4502763,19.9289763 L49.4502763,20.2962637 C49.4502763,22.37631 50.1802031,22.9191209 52.5927775,22.9191209 C54.7616327,22.9191209 56.0854714,22.8104338 58.8728565,22.3225911 L58.8728565,26.7681434 C56.1845592,27.3246964 54.783789,27.4708618 52.1465744,27.4708618 C46.3656275,27.4708618 44.0669118,24.3857721 44.0669118,19.9289763 L44.0669118,16.2785888 C44.0669118,12.3789705 45.7723312,9.18519375 51.696063,9.18519375 C57.6197948,9.18519375 59.3233678,12.3421168 59.3233678,16.2785888 L59.3233678,19.9289763 Z M76.8249951,20.0133025 C76.8249951,24.3208097 75.6119379,27.4627415 68.2634331,27.4627415 C65.6096013,27.4627415 64.0531215,27.2260035 61.1241823,26.7687681 L61.1241823,2.14551764 L66.5063158,1.23417004 L66.5063158,9.84731058 C67.6695213,9.40881434 69.1749185,9.18581839 70.5449161,9.18581839 C75.9276651,9.18581839 76.8243796,11.635026 76.8243796,15.5708733 L76.8243796,20.0133025 L76.8249951,20.0133025 Z M94.0779795,20.1069983 C94.0779795,23.8229728 92.5664277,27.4271371 86.2420362,27.4271371 C79.9145674,27.4271371 78.3747049,23.8229728 78.3747049,20.1069983 L78.3747049,16.5190746 C78.3747049,12.8012261 79.9145674,9.19643725 86.2420362,9.19643725 C92.5664277,9.19643725 94.0779795,12.8012261 94.0779795,16.5190746 L94.0779795,20.1069983 Z M111.31927,20.1069983 C111.31927,23.8229728 109.805872,27.4271371 103.482712,27.4271371 C97.1552427,27.4271371 95.6153802,23.8229728 95.6153802,20.1069983 L95.6153802,16.5190746 C95.6153802,12.8012261 97.1552427,9.19643725 103.482712,9.19643725 C109.805872,9.19643725 111.31927,12.8012261 111.31927,16.5190746 L111.31927,20.1069983 Z M129.012919,27.2260035 L123.179043,27.2260035 L118.244959,18.8664662 L118.244959,27.2260035 L112.860979,27.2260035 L112.860979,2.144893 L118.244959,1.2335454 L118.244959,17.3798265 L123.179043,9.44254482 L129.012919,9.44254482 L123.626477,18.1044072 L129.012919,27.2260035 Z M103.464248,13.7494274 C101.635738,13.7494274 101.001206,14.7638404 101.001206,16.0268595 L101.001206,20.6360671 C101.001206,21.9022094 101.635738,22.9197455 103.464248,22.9197455 C105.290296,22.9197455 105.936521,21.9022094 105.936521,20.6360671 L105.936521,16.0268595 C105.936521,14.7638404 105.290296,13.7494274 103.464248,13.7494274 Z M132.085874,24.1065587 C132.992436,24.1065587 133.714362,24.8567496 133.714362,25.7937073 C133.714362,26.7450318 132.99182,27.4871024 132.079104,27.4871024 C131.170696,27.4871024 130.433999,26.7450318 130.433999,25.7937073 C130.433999,24.8567496 131.170696,24.1065587 132.079104,24.1065587 L132.085874,24.1065587 Z M132.079104,24.3689069 C131.348562,24.3689069 130.750957,25.0066628 130.750957,25.7937073 C130.750957,26.5951186 131.349177,27.2247542 132.085874,27.2247542 C132.823186,27.2322499 133.412174,26.5951186 133.412174,25.801203 C133.412174,25.0072874 132.823186,24.3689069 132.085874,24.3689069 L132.079104,24.3689069 Z M131.769531,26.7756391 L131.474114,26.7756391 L131.474114,24.8929786 C131.629208,24.8711163 131.776917,24.8492539 131.99848,24.8492539 C132.279126,24.8492539 132.462531,24.9092192 132.575159,24.9910468 C132.684094,25.0741238 132.742562,25.2009254 132.742562,25.3801966 C132.742562,25.6288028 132.581313,25.7780914 132.382522,25.8386813 L132.382522,25.853048 C132.544386,25.8836553 132.654552,26.0323193 132.692095,26.3090341 C132.735176,26.6019896 132.780104,26.7137999 132.809031,26.7750145 L132.499458,26.7750145 C132.455761,26.7137999 132.410833,26.5420243 132.373906,26.2940428 C132.330824,26.0548062 132.211426,25.9648583 131.975092,25.9648583 L131.770147,25.9648583 L131.770147,26.7756391 L131.769531,26.7756391 Z M131.769531,25.733742 L131.983709,25.733742 C132.226197,25.733742 132.432374,25.6431695 132.432374,25.4101793 C132.432374,25.2452747 132.315438,25.0809948 131.983709,25.0809948 C131.887083,25.0809948 131.819998,25.0884905 131.769531,25.0953615 L131.769531,25.733742 Z" id="Shape" fill="#3B5998" fill-rule="nonzero"></path>
    </g>
</svg>