<svg width="122" height="24" viewBox="0 0 122 24" fill="none" xmlns="http://www.w3.org/2000/svg">
<path d="M70.9249 9.978C69.9111 8.80066 68.6244 8.25123 67.1038 8.01576C65.4662 7.78029 64.0235 8.13349 62.8148 9.23235C62.5808 9.42857 62.3859 9.66404 62.1519 9.93876C62.1519 9.70329 62.1519 9.58555 62.1519 9.42857C62.1519 6.44596 62.1519 3.46336 62.1519 0.480749C62.1519 0.40226 62.1519 0.32377 62.1519 0.24528C62.1909 0.049056 62.1129 -0.0294336 61.918 0.00981121C61.801 0.049056 61.684 0.00981121 61.606 0.049056C60.3193 0.206035 59.0326 0.40226 57.7459 0.519994C57.395 0.559239 57.356 0.676973 57.356 0.990932C57.356 8.36896 57.356 15.747 57.356 23.125C57.356 23.2035 57.356 23.2428 57.356 23.3212C57.317 23.4782 57.395 23.5567 57.5899 23.5567C59.0716 23.5567 60.5143 23.5567 61.9959 23.5567C62.1519 23.5567 62.2299 23.5175 62.2299 23.3212C62.2299 22.968 62.2299 22.6148 62.2299 22.1831C62.4638 22.3401 62.6198 22.4579 62.8148 22.6148C63.8285 23.4782 65.0373 23.8314 66.363 23.8707C68.9364 23.9884 71.1589 22.4971 72.0557 20.0639C72.8745 17.7877 72.9525 15.4723 72.4456 13.1176C72.0557 12.0187 71.7047 10.9199 70.9249 9.978ZM67.7276 15.9825C67.7276 16.6889 67.7276 17.4345 67.5717 18.1409C67.2987 19.4752 66.285 20.2209 64.9203 20.1817C63.4776 20.1032 62.4248 19.1613 62.2299 17.6307C62.0739 16.3749 62.0739 15.1191 62.3079 13.8632C62.5028 12.7251 63.2437 12.0187 64.3744 11.8618C65.3102 11.744 66.207 11.8225 66.9478 12.5682C67.3767 12.9999 67.5327 13.5493 67.6107 14.138C67.6886 14.7266 67.7276 15.3545 67.7276 15.9825Z" fill="#1777F2"/>
<path d="M116.934 16.3014C116.817 16.1444 116.739 16.0266 116.895 15.8304C118.104 13.9859 119.274 12.1022 120.483 10.2184C120.834 9.62973 121.223 9.0803 121.613 8.41314C119.937 8.41314 118.299 8.41314 116.661 8.41314C116.506 8.41314 116.428 8.49163 116.35 8.64861C115.297 10.3361 114.205 12.0237 113.152 13.7112C112.801 14.2606 112.45 14.81 112.1 15.3595C112.061 15.3595 112.061 15.3595 112.022 15.3202C112.022 15.2025 112.022 15.0848 112.022 14.967C112.022 10.1792 112.022 5.35204 112.022 0.564173C112.022 0.0932345 112.022 0.0932345 111.515 0.171724C110.189 0.328704 108.824 0.524928 107.499 0.642662C107.226 0.681907 107.187 0.760397 107.187 0.995866C107.187 8.45239 107.187 15.8697 107.187 23.3262C107.187 23.6009 107.265 23.6401 107.499 23.6401C108.863 23.6401 110.267 23.6401 111.632 23.6401C111.905 23.6401 111.983 23.6009 111.983 23.2869C111.983 21.207 111.983 19.127 111.983 17.0862C111.983 16.9685 111.944 16.8508 112.061 16.733C112.1 16.8115 112.178 16.89 112.216 16.9293C113.581 19.0485 114.907 21.207 116.272 23.3262C116.428 23.5616 116.545 23.6794 116.856 23.6401C118.26 23.6401 119.664 23.6401 121.067 23.6401C121.223 23.6401 121.379 23.6401 121.613 23.6401C121.535 23.5224 121.496 23.4439 121.457 23.3654C119.937 21.0107 118.455 18.656 116.934 16.3014Z" fill="#1777F2"/>
<path d="M26.9038 8.57009C26.9038 8.33462 26.8649 8.21688 26.5919 8.21688C25.3052 8.21688 24.0185 8.21688 22.6928 8.21688C22.4199 8.21688 22.3809 8.29537 22.3809 8.57009C22.3809 9.08027 22.3809 9.59045 22.3809 10.1006C22.3419 10.1399 22.3029 10.1399 22.3029 10.1791C22.1079 9.94366 21.913 9.74743 21.718 9.51196C21.3671 9.15876 20.9772 8.76631 20.5093 8.57009C17.507 7.15727 13.6858 8.37386 12.3991 11.9844C11.5413 14.3391 11.6193 16.7723 12.1652 19.1662C12.4771 20.6183 13.14 21.8741 14.3487 22.816C15.6744 23.8363 17.1951 24.0718 18.7937 23.9541C20.0024 23.8363 21.0552 23.3654 21.835 22.4628C22.03 22.2665 22.1859 22.0311 22.4199 21.7956C22.4199 22.3843 22.4199 22.8945 22.4199 23.4046C22.4199 23.6793 22.4978 23.7186 22.7318 23.7186C24.0185 23.7186 25.3052 23.7186 26.6309 23.7186C26.8649 23.7186 26.9428 23.6793 26.9428 23.4046C26.9038 18.4205 26.9038 13.4757 26.9038 8.57009ZM21.991 17.9888C21.835 19.3624 20.6653 20.265 19.2616 20.1866C17.624 20.0688 16.8051 19.0092 16.6492 17.4787C16.5322 16.2621 16.6102 15.0455 16.8051 13.8681C17.0001 12.6908 17.9359 11.8667 19.1056 11.7882C20.1584 11.7489 21.0942 11.9844 21.679 12.9655C21.952 13.4364 22.03 13.9859 22.0689 14.4961C22.1079 15.0062 22.0689 15.5164 22.0689 16.0266C22.0689 16.6545 22.0689 17.3217 21.991 17.9888Z" fill="#1777F2"/>
<path d="M51.3513 8.36807C49.5187 7.85788 47.6862 7.89713 45.8536 8.36807C44.138 8.83901 42.8123 9.85937 41.9934 11.4684C41.5645 12.3318 41.4086 13.2737 41.3306 14.2155C41.1746 15.9031 41.1746 17.5906 41.5645 19.2781C42.1104 21.5151 43.4751 22.9279 45.6976 23.4773C46.8283 23.752 47.9591 23.909 49.1288 23.9483C51.1174 24.0268 53.0279 23.752 54.8605 22.8887C55.0945 22.7709 55.1725 22.6924 55.0945 22.4177C54.8605 21.5936 54.6266 20.7302 54.4316 19.8668C54.3536 19.5921 54.2757 19.5136 54.0027 19.6313C52.2091 20.22 50.4155 20.5732 48.544 20.377C47.3352 20.2593 46.2045 19.5921 46.0875 18.0223C46.0875 17.7476 46.1265 17.6691 46.3994 17.6691C47.8811 17.6691 49.3238 17.6691 50.8054 17.6691C52.2871 17.6691 53.7688 17.6691 55.2894 17.6691C55.4064 17.6691 55.6014 17.7476 55.6014 17.4729C55.5624 15.8638 55.6793 14.2155 55.2894 12.6065C54.8215 10.448 53.4958 8.95674 51.3513 8.36807ZM50.6105 14.4118C49.9476 14.4118 49.2848 14.4118 48.6219 14.4118C47.8421 14.4118 47.0623 14.4118 46.2435 14.4118C46.1265 14.4118 46.0095 14.451 46.0095 14.2155C45.9705 12.6065 46.8283 11.5077 48.388 11.3507C49.5967 11.1937 51.1954 11.7824 51.2343 13.7446C51.2733 14.4118 51.3123 14.4118 50.6105 14.4118Z" fill="#1777F2"/>
<path d="M101.26 8.52617C99.1156 7.74128 96.9711 7.74128 94.7876 8.52617C92.799 9.23258 91.4733 10.5277 90.8495 12.5684C90.4986 13.785 90.4206 15.0408 90.3816 16.3359C90.4206 16.8853 90.4206 17.5132 90.4986 18.1412C90.8495 20.7706 92.6821 22.8505 95.2165 23.5569C96.5812 23.9494 97.9849 24.0279 99.3885 23.8709C102.079 23.5569 104.028 22.2226 105.003 19.6717C105.9 17.3955 105.861 15.0408 105.159 12.6861C104.574 10.6454 103.249 9.23258 101.26 8.52617ZM100.831 15.865C100.792 16.7283 100.87 17.631 100.558 18.4551C100.09 19.7502 98.9986 20.3389 97.517 20.1034C96.2693 19.9072 95.3725 18.8868 95.2945 17.5917C95.2165 16.4929 95.1775 15.3548 95.2945 14.2559C95.4114 13.0393 96.1523 12.0975 97.205 11.8227C98.5697 11.5088 99.7395 11.9405 100.363 12.9608C100.714 13.5495 100.792 14.1774 100.831 14.8446C100.831 15.1978 100.831 15.551 100.831 15.865Z" fill="#1777F2"/>
<path d="M85.5856 8.92198C82.9731 7.66614 80.3217 7.66615 77.6703 8.80425C76.0327 9.51065 74.902 10.7665 74.4341 12.5325C73.8882 14.4163 73.8102 16.3393 74.0832 18.2622C74.4731 20.8132 75.9158 22.5399 78.2942 23.4426C79.8149 24.0312 81.3745 24.0705 82.9731 23.8743C85.1177 23.6388 86.8333 22.6577 88.003 20.7739C88.8998 19.3219 89.1337 17.6736 89.1727 16.0253C89.1727 15.0834 89.0558 14.1808 88.8608 13.2782C88.3929 11.3159 87.3791 9.78537 85.5856 8.92198ZM84.1819 17.9483C83.8699 19.5573 82.7782 20.1852 81.5305 20.146C79.8928 20.1068 78.9181 19.1649 78.7621 17.6736C78.7231 17.0849 78.6841 16.4962 78.6841 15.9076C78.6841 15.1619 78.6841 14.4555 78.8401 13.7491C79.113 12.5717 80.0878 11.8653 81.2575 11.7869C83.0511 11.6691 84.1429 12.8857 84.2599 14.4555C84.3768 15.6328 84.3768 16.8102 84.1819 17.9483Z" fill="#1777F2"/>
<path d="M11.4244 8.21113C10.3716 8.21113 9.31889 8.21113 8.26612 8.21113C7.9542 8.21113 7.83722 8.17189 7.83722 7.81868C7.87621 7.26925 7.83722 6.71983 7.83722 6.13115C7.83722 5.34626 8.22713 4.79683 8.92897 4.48287C9.7088 4.12967 10.5276 4.05118 11.3854 4.09042C11.6973 4.09042 11.7363 4.01193 11.6973 3.73722C11.6973 2.91308 11.6973 2.08894 11.6973 1.26479C11.6973 0.322919 11.6973 0.283674 10.7616 0.165939C9.20191 -0.0695297 7.64227 -0.0302848 6.1606 0.558388C4.406 1.34328 3.39223 2.67761 3.11929 4.63985C2.96333 5.73871 3.00232 6.79832 3.00232 7.89717C3.00232 8.17188 2.92434 8.25037 2.6514 8.25037C1.87158 8.25037 1.13074 8.25037 0.35092 8.25037C0.0389911 8.25037 0 8.32886 0 8.60358C0 9.70243 0.0389912 10.8405 0 11.9394C0 12.2926 0.116973 12.3318 0.389912 12.3318C1.20873 12.2926 2.02754 12.3318 2.84635 12.3318C3.11929 12.3318 3.19727 12.3711 3.19727 12.685C3.19727 14.4511 3.19727 16.1778 3.19727 17.9438C3.19727 19.7099 3.19727 21.4366 3.19727 23.2027C3.19727 23.4774 3.23627 23.5951 3.5482 23.5559C4.8349 23.5559 6.12161 23.5559 7.44731 23.5559C7.75924 23.5559 7.83722 23.4774 7.83722 23.1634C7.83722 19.6706 7.83722 16.1778 7.83722 12.7243C7.83722 12.4103 7.9152 12.3318 8.18814 12.3711C9.16292 12.3711 10.1377 12.3711 11.1125 12.3711C11.3074 12.3711 11.3854 12.3318 11.3854 12.1356C11.5024 10.9583 11.6194 9.78092 11.7363 8.60358C11.7363 8.25038 11.6584 8.21113 11.4244 8.21113Z" fill="#1777F2"/>
<path d="M39.888 19.67C39.849 19.513 39.771 19.4738 39.615 19.5523C38.7962 19.9055 37.9384 20.1017 37.0416 20.1802C35.326 20.3372 33.9613 19.3953 33.4934 17.747C33.1425 16.4912 33.2205 15.2354 33.4544 14.0188C33.6884 12.8807 34.3902 12.2135 35.5209 11.9388C36.1838 11.7818 36.8856 11.7818 37.5875 11.8996C38.2113 12.0173 38.8352 12.135 39.4591 12.3312C39.81 12.449 39.9269 12.3705 40.0049 12.0173C40.1999 11.3109 40.4728 10.6045 40.7068 9.85882C40.9797 8.99543 40.9017 8.95619 40.0439 8.64223C38.0164 7.89658 35.9109 7.85733 33.8443 8.28903C31.3099 8.83845 29.6333 10.3298 28.8924 12.8807C28.3076 14.9999 28.3076 17.1191 28.8924 19.2383C29.4383 21.2006 30.686 22.6134 32.5966 23.359C33.7663 23.83 34.9751 24.0262 36.3788 23.987C37.8214 24.0655 39.2641 23.673 40.7068 23.0843C40.9017 23.0058 40.9017 22.8881 40.8627 22.7704C40.4728 21.7108 40.1609 20.6904 39.888 19.67Z" fill="#1777F2"/>
</svg>
