<svg width="38" height="15" viewBox="0 0 38 15" fill="none" xmlns="http://www.w3.org/2000/svg">
<path d="M0 2C0 0.89543 0.895431 0 2 0H36C37.1046 0 38 0.895431 38 2V13C38 14.1046 37.1046 15 36 15H2C0.89543 15 0 14.1046 0 13V2Z" fill="#F09C33"/>
<path d="M4 7.29C4 7.19667 4.02366 7.12 4.07099 7.06C4.12508 6.99333 4.19945 6.93 4.29411 6.87L7.64089 4.64C7.66793 4.62667 7.68822 4.62 7.70174 4.62C7.72202 4.61333 7.73893 4.61 7.75245 4.61C7.8133 4.61 7.86401 4.63 7.90457 4.67C7.94514 4.71 7.96542 4.76 7.96542 4.82V5.27C7.96542 5.37 7.92824 5.45667 7.85386 5.53C7.78625 5.60333 7.71526 5.66333 7.64089 5.71L4.96347 7.5L7.64089 9.29C7.71526 9.33667 7.78625 9.39667 7.85386 9.47C7.92824 9.54333 7.96542 9.63 7.96542 9.73V10.18C7.96542 10.24 7.94514 10.29 7.90457 10.33C7.86401 10.37 7.8133 10.39 7.75245 10.39C7.73893 10.39 7.72202 10.39 7.70174 10.39C7.68822 10.3833 7.66793 10.3733 7.64089 10.36L4.29411 8.13C4.19945 8.07 4.12508 8.01 4.07099 7.95C4.02366 7.88333 4 7.80333 4 7.71V7.29Z" fill="white"/>
<path d="M12.1971 8.97L10.899 10.77C10.8584 10.83 10.8111 10.8833 10.757 10.93C10.7097 10.9767 10.6184 11 10.4832 11H8.94165C8.8808 11 8.82671 10.98 8.77938 10.94C8.73881 10.8933 8.71853 10.84 8.71853 10.78C8.71853 10.7667 8.71853 10.7533 8.71853 10.74C8.72529 10.72 8.73543 10.6967 8.74895 10.67L11.0917 7.44L8.85037 4.33C8.83009 4.29 8.81995 4.25333 8.81995 4.22C8.81995 4.16 8.84023 4.11 8.8808 4.07C8.92812 4.02333 8.98221 4 9.04306 4H10.5745C10.7097 4 10.8077 4.03333 10.8686 4.1C10.9294 4.16667 10.9734 4.21667 11.0004 4.25L12.2276 5.94L13.4142 4.25C13.4412 4.21667 13.4851 4.16667 13.546 4.1C13.6069 4.03333 13.7049 4 13.8401 4H15.3918C15.4526 4 15.5034 4.02333 15.5439 4.07C15.5913 4.11 15.6149 4.16 15.6149 4.22C15.6149 4.25333 15.6048 4.29 15.5845 4.33L13.333 7.48L15.6555 10.67C15.669 10.6967 15.6758 10.72 15.6758 10.74C15.6825 10.7533 15.6859 10.7667 15.6859 10.78C15.6859 10.84 15.6622 10.8933 15.6149 10.94C15.5744 10.98 15.5236 11 15.4628 11H13.9212C13.786 11 13.6914 10.9767 13.6373 10.93C13.5899 10.8833 13.546 10.83 13.5054 10.77L12.1971 8.97Z" fill="white"/>
<path d="M19.7318 9.32C19.6304 9.32 19.5493 9.29333 19.4884 9.24C19.4343 9.18 19.3904 9.12333 19.3566 9.07L18.4033 7.42V10.73C18.4033 10.8033 18.3762 10.8667 18.3221 10.92C18.268 10.9733 18.2038 11 18.1294 11H16.8009C16.7265 11 16.6623 10.9733 16.6082 10.92C16.5541 10.8667 16.527 10.8033 16.527 10.73V4.27C16.527 4.19667 16.5541 4.13333 16.6082 4.08C16.6623 4.02667 16.7265 4 16.8009 4H17.9773C18.1125 4 18.214 4.03667 18.2816 4.11C18.3492 4.18333 18.3931 4.23667 18.4134 4.27L20.0564 7.04L21.6993 4.27C21.7196 4.23667 21.7636 4.18333 21.8312 4.11C21.8988 4.03667 22.0002 4 22.1354 4H23.3119C23.3862 4 23.4505 4.02667 23.5046 4.08C23.5587 4.13333 23.5857 4.19667 23.5857 4.27V10.73C23.5857 10.8033 23.5587 10.8667 23.5046 10.92C23.4505 10.9733 23.3862 11 23.3119 11H21.9833C21.9089 11 21.8447 10.9733 21.7906 10.92C21.7365 10.8667 21.7095 10.8033 21.7095 10.73V7.42L20.7562 9.07C20.7223 9.12333 20.675 9.18 20.6142 9.24C20.5601 9.29333 20.4823 9.32 20.3809 9.32H19.7318Z" fill="white"/>
<path d="M29.9744 9.4C30.0487 9.4 30.113 9.42667 30.1671 9.48C30.2211 9.53333 30.2482 9.59667 30.2482 9.67V10.73C30.2482 10.8033 30.2211 10.8667 30.1671 10.92C30.113 10.9733 30.0487 11 29.9744 11H25.2787C25.2044 11 25.1401 10.9733 25.086 10.92C25.032 10.8667 25.0049 10.8033 25.0049 10.73V4.27C25.0049 4.19667 25.032 4.13333 25.086 4.08C25.1401 4.02667 25.2044 4 25.2787 4H26.6073C26.6817 4 26.7459 4.02667 26.8 4.08C26.8541 4.13333 26.8811 4.19667 26.8811 4.27V9.4H29.9744Z" fill="white"/>
<path d="M35 7.71C35 7.80333 34.973 7.88333 34.9189 7.95C34.8715 8.01 34.8005 8.07 34.7059 8.13L31.3591 10.36C31.3321 10.3733 31.3084 10.3833 31.2881 10.39C31.2746 10.39 31.2611 10.39 31.2476 10.39C31.1867 10.39 31.136 10.37 31.0954 10.33C31.0549 10.29 31.0346 10.24 31.0346 10.18V9.73C31.0346 9.63 31.0684 9.54333 31.136 9.47C31.2104 9.39667 31.2847 9.33667 31.3591 9.29L34.0365 7.5L31.3591 5.71C31.2847 5.66333 31.2104 5.60333 31.136 5.53C31.0684 5.45667 31.0346 5.37 31.0346 5.27V4.82C31.0346 4.76 31.0549 4.71 31.0954 4.67C31.136 4.63 31.1867 4.61 31.2476 4.61C31.2611 4.61 31.2746 4.61333 31.2881 4.62C31.3084 4.62 31.3321 4.62667 31.3591 4.64L34.7059 6.87C34.8005 6.93 34.8715 6.99333 34.9189 7.06C34.973 7.12 35 7.19667 35 7.29V7.71Z" fill="white"/>
</svg>
