<svg width="50" height="50" viewBox="0 0 50 50" fill="none" xmlns="http://www.w3.org/2000/svg">
<rect width="50" height="50" rx="10" fill="#F9AB00"/>
<path d="M19.6375 30.196C19.5721 30.196 19.4795 30.1579 19.3596 30.0816L13.4741 26.0762C13.3106 25.9672 13.1907 25.8636 13.1144 25.7655C13.0381 25.6566 13 25.5258 13 25.3732V24.8664C13 24.7138 13.0381 24.583 13.1144 24.474C13.1907 24.365 13.3106 24.256 13.4741 24.147L19.3596 20.1417C19.4904 20.0763 19.583 20.0436 19.6375 20.0436C19.7356 20.0436 19.8173 20.0763 19.8827 20.1417C19.9481 20.1962 19.9808 20.2724 19.9808 20.3705V22.1362C19.9808 22.2888 19.9372 22.4141 19.85 22.5122C19.7737 22.5994 19.6647 22.6866 19.5231 22.7738L15.9591 25.1116L19.5231 27.4658C19.6756 27.553 19.7901 27.6402 19.8664 27.7274C19.9427 27.8146 19.9808 27.9345 19.9808 28.087V29.8527C19.9808 29.9508 19.9481 30.0325 19.8827 30.0979C19.8173 30.1633 19.7356 30.196 19.6375 30.196Z" fill="white"/>
<path d="M21.6909 32.2232C21.5928 32.2232 21.5056 32.1851 21.4293 32.1088C21.3639 32.0434 21.3312 31.9671 21.3312 31.8799C21.3312 31.8581 21.3476 31.8036 21.3803 31.7164L26.9061 18.3924C27.0369 18.1308 27.2331 18 27.4946 18H28.966C29.0641 18 29.1458 18.0381 29.2112 18.1144C29.2766 18.1798 29.3093 18.2561 29.3093 18.3433C29.3093 18.3978 29.2984 18.4523 29.2766 18.5068L23.7181 31.8309C23.6091 32.0924 23.4129 32.2232 23.1296 32.2232H21.6909Z" fill="white"/>
<path d="M30.9961 30.196C30.909 30.196 30.8327 30.1633 30.7673 30.0979C30.7019 30.0325 30.6692 29.9508 30.6692 29.8527V28.087C30.6692 27.9345 30.7073 27.8146 30.7836 27.7274C30.8599 27.6402 30.9744 27.553 31.1269 27.4658L34.6746 25.1116L31.1269 22.7738C30.9853 22.6866 30.8708 22.5994 30.7836 22.5122C30.7073 22.4141 30.6692 22.2888 30.6692 22.1362V20.3705C30.6692 20.2724 30.7019 20.1962 30.7673 20.1417C30.8327 20.0763 30.909 20.0436 30.9961 20.0436C31.0724 20.0436 31.1651 20.0763 31.2741 20.1417L37.1759 24.147C37.3394 24.256 37.4593 24.365 37.5356 24.474C37.6119 24.583 37.65 24.7138 37.65 24.8664V25.3732C37.65 25.5258 37.6119 25.6566 37.5356 25.7655C37.4593 25.8636 37.3394 25.9672 37.1759 26.0762L31.2741 30.0816C31.176 30.1579 31.0833 30.196 30.9961 30.196Z" fill="white"/>
</svg>
