<svg width="45" height="19" viewBox="0 0 45 19" fill="none" xmlns="http://www.w3.org/2000/svg">
<path d="M0 2.62037C0 1.31233 1.06038 0.251953 2.36842 0.251953H42.6316C43.9397 0.251953 45 1.31233 45 2.62037V15.6467C45 16.9548 43.9397 18.0151 42.6316 18.0151H2.36842C1.06038 18.0151 0 16.9548 0 15.6467V2.62037Z" fill="#F09C33"/>
<path d="M4.73706 8.88462C4.73706 8.7741 4.76508 8.68331 4.82113 8.61225C4.88518 8.5333 4.97325 8.45831 5.08535 8.38725L9.04864 5.74646C9.08066 5.73068 9.10469 5.72278 9.1207 5.72278C9.14472 5.71488 9.16474 5.71094 9.18075 5.71094C9.25281 5.71094 9.31286 5.73462 9.3609 5.78199C9.40894 5.82936 9.43296 5.88857 9.43296 5.95962V6.49252C9.43296 6.61094 9.38893 6.71357 9.30084 6.80041C9.22078 6.88725 9.13671 6.9583 9.04864 7.01357L5.87801 9.13331L9.04864 11.253C9.13671 11.3083 9.22078 11.3794 9.30084 11.4662C9.38893 11.553 9.43296 11.6557 9.43296 11.7741V12.307C9.43296 12.378 9.40894 12.4373 9.3609 12.4846C9.31286 12.532 9.25281 12.5557 9.18075 12.5557C9.16474 12.5557 9.14472 12.5557 9.1207 12.5557C9.10469 12.5477 9.08066 12.5359 9.04864 12.5201L5.08535 9.87936C4.97325 9.80831 4.88518 9.73725 4.82113 9.6662C4.76508 9.58725 4.73706 9.49251 4.73706 9.38199V8.88462Z" fill="white"/>
<path d="M14.4436 10.8738L12.9064 13.0054C12.8583 13.0764 12.8023 13.1396 12.7382 13.1949C12.6822 13.2502 12.5741 13.2778 12.414 13.2778H10.5884C10.5164 13.2778 10.4523 13.2541 10.3963 13.2067C10.3482 13.1514 10.3242 13.0883 10.3242 13.0172C10.3242 13.0015 10.3242 12.9856 10.3242 12.9699C10.3322 12.9462 10.3442 12.9186 10.3602 12.887L13.1346 9.06197L10.4803 5.37907C10.4563 5.3317 10.4443 5.28828 10.4443 5.24881C10.4443 5.17775 10.4683 5.11854 10.5164 5.07118C10.5724 5.01591 10.6365 4.98828 10.7085 4.98828H12.5221C12.6822 4.98828 12.7982 5.02775 12.8704 5.1067C12.9424 5.18565 12.9945 5.24486 13.0264 5.28433L14.4797 7.28565L15.8849 5.28433C15.9169 5.24486 15.9688 5.18565 16.041 5.1067C16.1131 5.02775 16.2291 4.98828 16.3892 4.98828H18.2268C18.2988 4.98828 18.3589 5.01591 18.4069 5.07118C18.463 5.11854 18.491 5.17775 18.491 5.24881C18.491 5.28828 18.479 5.3317 18.455 5.37907L15.7887 9.10933L18.5391 12.887C18.555 12.9186 18.5631 12.9462 18.5631 12.9699C18.571 12.9856 18.5751 13.0015 18.5751 13.0172C18.5751 13.0883 18.547 13.1514 18.491 13.2067C18.443 13.2541 18.3829 13.2778 18.3109 13.2778H16.4853C16.3252 13.2778 16.2131 13.2502 16.1491 13.1949C16.0929 13.1396 16.041 13.0764 15.9929 13.0054L14.4436 10.8738Z" fill="white"/>
<path d="M23.3679 11.2883C23.2478 11.2883 23.1518 11.2567 23.0797 11.1935C23.0156 11.1225 22.9636 11.0554 22.9236 10.9922L21.7947 9.03828V12.958C21.7947 13.0448 21.7626 13.1199 21.6985 13.183C21.6345 13.2461 21.5584 13.2778 21.4703 13.2778H19.8971C19.809 13.2778 19.733 13.2461 19.6689 13.183C19.6048 13.1199 19.5728 13.0448 19.5728 12.958V5.30802C19.5728 5.22118 19.6048 5.14617 19.6689 5.08302C19.733 5.01986 19.809 4.98828 19.8971 4.98828H21.2902C21.4503 4.98828 21.5705 5.03171 21.6506 5.11854C21.7306 5.20538 21.7826 5.26855 21.8066 5.30802L23.7523 8.58828L25.6978 5.30802C25.7219 5.26855 25.774 5.20538 25.854 5.11854C25.9341 5.03171 26.0542 4.98828 26.2143 4.98828H27.6075C27.6955 4.98828 27.7716 5.01986 27.8357 5.08302C27.8998 5.14617 27.9317 5.22118 27.9317 5.30802V12.958C27.9317 13.0448 27.8998 13.1199 27.8357 13.183C27.7716 13.2461 27.6955 13.2778 27.6075 13.2778H26.0342C25.9461 13.2778 25.87 13.2461 25.806 13.183C25.7419 13.1199 25.7099 13.0448 25.7099 12.958V9.03828L24.581 10.9922C24.5409 11.0554 24.4849 11.1225 24.4129 11.1935C24.3488 11.2567 24.2567 11.2883 24.1366 11.2883H23.3679Z" fill="white"/>
<path d="M35.4963 11.383C35.5842 11.383 35.6604 11.4146 35.7245 11.4778C35.7884 11.5409 35.8205 11.6159 35.8205 11.7028V12.958C35.8205 13.0448 35.7884 13.1199 35.7245 13.183C35.6604 13.2461 35.5842 13.2778 35.4963 13.2778H29.9356C29.8476 13.2778 29.7714 13.2461 29.7074 13.183C29.6434 13.1199 29.6113 13.0448 29.6113 12.958V5.30802C29.6113 5.22118 29.6434 5.14617 29.7074 5.08302C29.7714 5.01986 29.8476 4.98828 29.9356 4.98828H31.5089C31.597 4.98828 31.673 5.01986 31.7371 5.08302C31.8012 5.14617 31.8331 5.22118 31.8331 5.30802V11.383H35.4963Z" fill="white"/>
<path d="M41.4478 9.38199C41.4478 9.49251 41.4158 9.58725 41.3518 9.6662C41.2957 9.73725 41.2116 9.80831 41.0995 9.87936L37.1362 12.5201C37.1043 12.5359 37.0762 12.5477 37.0522 12.5557C37.0362 12.5557 37.0202 12.5557 37.0042 12.5557C36.9321 12.5557 36.872 12.532 36.824 12.4846C36.776 12.4373 36.752 12.378 36.752 12.307V11.7741C36.752 11.6557 36.792 11.553 36.872 11.4662C36.9601 11.3794 37.0481 11.3083 37.1362 11.253L40.3068 9.13331L37.1362 7.01357C37.0481 6.9583 36.9601 6.88725 36.872 6.80041C36.792 6.71357 36.752 6.61094 36.752 6.49252V5.95962C36.752 5.88857 36.776 5.82936 36.824 5.78199C36.872 5.73462 36.9321 5.71094 37.0042 5.71094C37.0202 5.71094 37.0362 5.71488 37.0522 5.72278C37.0762 5.72278 37.1043 5.73068 37.1362 5.74646L41.0995 8.38725C41.2116 8.45831 41.2957 8.5333 41.3518 8.61225C41.4158 8.68331 41.4478 8.7741 41.4478 8.88462V9.38199Z" fill="white"/>
</svg>
