<?xml version="1.0" encoding="UTF-8"?>
<svg width="84px" height="62px" viewBox="0 0 84 62" version="1.1" xmlns="http://www.w3.org/2000/svg" xmlns:xlink="http://www.w3.org/1999/xlink">
    <!-- Generator: Sketch 52.4 (67378) - http://www.bohemiancoding.com/sketch -->
    <title>Artboard</title>
    <desc>Created with Sketch.</desc>
    <g id="Artboard" stroke="none" stroke-width="1" fill="none" fill-rule="evenodd">
        <path d="M4.77555181,41.0426597 L17.8106547,41.0426597 L17.1020652,45.1011906 L7.44611344,45.1011906 L6.6583507,49.6997722 L14.4578947,49.6997722 L13.7493831,53.7583032 L5.96299574,53.7583032 L4.57399852,61.8663512 L7.78498606e-06,61.8530263 L3.56522002,41.0426597 L4.77492901,41.0461869 L4.77555181,41.0426597 Z M24.1240371,46.4466298 L27.499607,46.4466298 L26.7910955,50.5051608 L23.4155255,50.5051608 C21.9406599,50.5051608 21.6221761,51.8593631 21.494658,52.6039901 C21.3670621,53.3486172 21.3231548,53.605004 21.3231548,53.605004 L19.9078443,61.8663669 L15.3338536,61.853042 L16.4014087,55.6216893 L16.749164,53.5916791 C16.8334754,53.0995198 16.9381057,52.4886905 17.0682706,51.7290142 C17.7351325,47.8363391 21.1482261,46.4466298 24.1240371,46.4466298 Z M82.7837594,58.1215669 L82.1554332,61.8663355 L78.7798632,61.8663355 C75.8040523,61.8663355 72.8671663,60.4766263 73.5340282,56.5839512 C73.6641931,55.8242748 73.7688234,55.2134455 73.8531348,54.7212862 L74.2008901,52.6912761 L75.8462469,43.0873899 L80.5187956,42.5250789 L79.820093,46.6035188 L83.9819466,46.6035188 L83.3674777,50.1129853 L79.2188586,50.1129853 L78.4316408,54.7080397 C78.4316408,54.7080397 78.3877335,54.9643482 78.2602154,55.7089752 C78.1326195,56.4536023 77.9334017,58.1215669 79.4081894,58.1215669 L82.7837594,58.1215669 Z M52.0614172,46.2126445 C54.9841346,46.2595952 57.8103959,47.667489 57.1549001,51.4936963 C57.0059733,52.3627937 56.88842,53.0491047 56.7954673,53.5916635 L56.447712,55.6216736 L55.3801568,61.8530263 L50.8016508,61.8663512 L52.2169613,53.6049884 C52.2169613,53.6049884 52.3011948,53.1132994 52.4287129,52.3686723 C52.5563088,51.6240453 52.7018102,50.269843 51.2270224,50.269843 L50.3812615,50.269843 L49.5355006,50.269843 C48.0607129,50.269843 47.7422291,51.6240453 47.6146332,52.3686723 C47.4871151,53.1132994 47.4028816,53.6049884 47.4028816,53.6049884 L45.9874932,61.8663512 L41.4135025,61.8530263 L42.4810576,55.6216736 L42.8288908,53.5916635 C42.9218436,53.0491047 43.0393968,52.3627937 43.1882458,51.4936963 C43.8437416,47.667489 47.1524386,46.2595952 50.0912708,46.2126445 L50.0915044,46.211312 L51.0765386,46.211312 L52.0616508,46.211312 L52.0614172,46.2126445 Z M35.3719485,49.3772703 C34.1401301,49.3772703 32.7486417,49.9259429 32.2383359,52.9044511 L35.7935055,52.9044511 C37.3764267,52.9044511 37.6217316,51.6242412 37.610132,50.631379 C37.5986102,49.6385168 36.6037668,49.3772703 35.3719485,49.3772703 Z M31.7705361,55.8829593 C31.4572682,57.7117633 32.3027956,58.4352273 34.3785064,58.4353057 L39.8255055,58.4353057 L39.2244267,61.866312 L33.5118817,61.8663904 C29.8851681,61.8663904 26.6048864,60.0371944 27.6075147,54.1846609 C28.2781913,50.2698822 30.0115184,46.2113512 34.9419837,46.2113512 L36.8363044,46.2113512 C36.8363044,46.2113512 42.0142543,46.4334068 41.7721412,50.2698822 C41.530106,54.1062791 40.2627103,55.8829593 36.4769494,55.8829593 L33.9857538,55.8829593 L33.8755963,55.8829593 L31.7705361,55.8829593 Z M66.434043,49.3772703 C65.2022247,49.3772703 63.8107362,49.9259429 63.3004304,52.9044511 L66.8556,52.9044511 C68.4385212,52.9044511 68.6838261,51.6242412 68.6722265,50.631379 C68.6607047,49.6385168 67.6658614,49.3772703 66.434043,49.3772703 Z M62.8326306,55.8829593 C62.5193627,57.7117633 63.3648901,58.4352273 65.4406009,58.4353057 L70.8875222,58.4353057 L70.2865212,61.866312 L64.5739763,61.8663904 C60.9472627,61.8663904 57.6669809,60.0371944 58.6696093,54.1846609 C59.3402858,50.2698822 61.073613,46.2113512 66.0040782,46.2113512 L67.8983989,46.2113512 C67.8983989,46.2113512 73.0763488,46.4334068 72.8342358,50.2698822 C72.5922006,54.1062791 71.3248048,55.8829593 67.5390439,55.8829593 L65.0478484,55.8829593 L64.9376908,55.8829593 L62.8326306,55.8829593 Z" id="Combined-Shape" fill="#283682"></path>
        <path d="M33.593593,21.8093583 L43.7913019,32.0270523 L34.8221416,32.0270523 L29.1925068,26.3590296 L23.5628719,32.0270523 L11.98325,32.0270523 C18.8665012,25.0814063 29.8681657,13.9817603 35.1374335,8.6764885 C36.76325,7.03956308 40.1463715,3.63332541 41.7196393,3.63332541 C43.3001472,3.63332541 46.6832686,7.03956308 48.3090851,8.6764885 C53.2671092,13.6683899 64.5182825,24.9734746 71.5394057,32.0270523 L60.49796,32.0270523 L41.9267199,13.4192925 L33.593593,21.8093583 Z M59.040377,35.5820587 L80.0772778,35.5820587 C80.0772778,35.5820587 58.3312426,13.7397173 50.8057301,6.16278432 C42.7353464,-1.96282124 40.6852482,-1.93664172 32.6407885,6.16278432 C24.5963288,14.2622104 3.47301464,35.5820587 3.47301464,35.5820587 L25.0253594,35.5820587 L29.1925068,31.3865163 L33.3596541,35.5820587 L52.344744,35.5820587 L38.5930332,21.8032445 L41.9327144,18.4406655 L59.040377,35.5820587 Z" id="Fill-16" fill="#00ABEC"></path>
    </g>
</svg>