<?xml version="1.0" encoding="UTF-8"?>
<svg width="123px" height="33px" viewBox="0 0 123 33" version="1.1" xmlns="http://www.w3.org/2000/svg" xmlns:xlink="http://www.w3.org/1999/xlink">
    <!-- Generator: Sketch 52.4 (67378) - http://www.bohemiancoding.com/sketch -->
    <title>Artboard</title>
    <desc>Created with Sketch.</desc>
    <g id="Artboard" stroke="none" stroke-width="1" fill="none" fill-rule="evenodd">
        <path d="M58.0504681,5.18821277 L63.1518809,5.18821277 C63.1864518,5.86233745 63.2210227,6.52134468 63.2555937,7.22999149 C63.3722697,7.16517115 63.4630166,7.12411791 63.5472839,7.07009745 C65.0359434,6.08915191 66.6586286,5.43448468 68.4045222,5.08438255 C69.6728443,4.82941745 70.9411137,4.83158085 72.1900839,5.1427206 C74.097969,5.61806272 75.2452328,6.84969932 75.6492881,8.77486528 C75.8372669,9.66938017 75.9064034,10.5768227 75.9085669,11.4886185 C75.9107276,15.5527844 75.9085669,19.6170823 75.9085669,23.6812483 C75.9085669,23.8065674 75.8977635,23.9318866 75.891282,24.0723363 L70.4744608,24.0723363 L70.4744608,23.64885 C70.4744608,19.9821436 70.4809428,16.3133266 70.4701394,12.6467521 C70.4679787,12.0784891 70.4377292,11.5015989 70.346981,10.9397734 C70.1784465,9.9112857 69.4848776,9.3041606 68.4542661,9.16802443 C67.577032,9.05134834 66.7343597,9.18314979 65.9025044,9.45107421 C65.0555184,9.72332017 64.2452576,10.0755066 63.4523172,10.5530121 L63.4523172,24.0729695 L58.0506661,24.0729695 L58.0506661,5.18803336 L58.0504681,5.18821277 Z M34.0102979,12.6031489 C34.0254232,12.5448109 34.0405473,12.5124007 34.0383865,12.4799906 C34.0124586,11.5249663 33.8482444,10.602314 33.4139542,9.73813949 C33.0855257,9.08129566 32.5583278,8.67509013 31.8603925,8.47630757 C31.3029333,8.31641353 30.7303567,8.29913268 30.1577669,8.342348 C28.9521044,8.43525698 28.0381584,9.00135523 27.4525882,10.0730714 C27.1522576,10.6218769 26.9902001,11.2160744 26.8800116,11.8275395 C26.8346382,12.0760144 26.8130305,12.3288161 26.7762988,12.6032254 L34.0102477,12.6032254 L34.0102979,12.6031489 Z M38.9582936,15.9651319 L26.6857234,15.9651319 C26.7073297,16.3043643 26.7073297,16.6046949 26.7527045,16.8985485 C26.806721,17.2442579 26.8737021,17.5899672 26.9817351,17.9227094 C27.3749734,19.1326855 28.2111556,19.87162 29.4383862,20.1849179 C30.4474164,20.4420332 31.4715905,20.439883 32.499999,20.3642562 C34.0816586,20.2454193 35.6027692,19.8565026 37.0978926,19.3444221 C37.1951231,19.312012 37.2945117,19.2882449 37.4241577,19.2493524 C37.7936381,20.3512903 38.1544649,21.4316205 38.5196186,22.5270417 C38.4180665,22.5875406 38.3316398,22.6458786 38.2387322,22.6934128 C36.7327917,23.4755758 35.1294981,23.9401273 33.4528598,24.1756086 C32.2580011,24.344143 31.060979,24.4197698 29.8552769,24.3765545 C28.6258564,24.3311811 27.4115534,24.1712949 26.2555832,23.7326779 C23.7513109,22.7819805 22.2453705,20.9604864 21.6489832,18.3720524 C21.2989603,16.8488311 21.1952356,15.2996226 21.3054373,13.7439503 C21.3897032,12.5771894 21.564716,11.4190822 21.9838888,10.3214183 C23.1052841,7.389346 25.2055143,5.60031621 28.3037994,5.04719706 C30.0085356,4.74037621 31.728442,4.7727877 33.4137866,5.19196047 C36.2205398,5.89201962 37.9598377,7.69623281 38.6447398,10.4986328 C38.9105088,11.5789762 38.9450705,12.6938286 38.9796454,13.8023094 C39.0012517,14.4202647 38.9861274,15.0403703 38.9861274,15.658352 C38.9861274,15.7491002 38.971002,15.8398537 38.9580388,15.9651728 L38.9582936,15.9651319 Z M84.9109787,12.5991915 L92.1362213,12.5991915 C92.1535074,12.5559775 92.1707922,12.5343711 92.1707922,12.5149256 C92.1513466,11.5728686 92.0022577,10.6611256 91.5874118,9.80328302 C91.2438658,9.09674685 90.6928969,8.66244345 89.9366288,8.46144472 C89.4331888,8.32964328 88.9232718,8.31019111 88.411165,8.33612557 C87.1623003,8.39878515 86.2093735,8.95408089 85.597948,10.0581426 C85.1636577,10.8403056 85.0102407,11.6959979 84.910856,12.5990873 L84.9109787,12.5991915 Z M97.0884475,15.9546064 L84.8827582,15.9546064 C84.8633126,16.0345521 84.8373847,16.088566 84.8373847,16.1404217 C84.8438668,16.8340039 84.9410975,17.5145792 85.2003749,18.162809 C85.6346651,19.2561064 86.4600434,19.8978856 87.5814388,20.1851962 C88.590469,20.4444749 89.6167537,20.4379979 90.6430515,20.3623711 C92.2376388,20.245695 93.7673239,19.8438137 95.2733962,19.3338834 C95.3511811,19.3079556 95.4289634,19.2841885 95.5542826,19.245296 C95.9432073,20.3342798 96.2867532,21.4275641 96.6497434,22.5295811 C96.5438699,22.5922407 96.4574379,22.648418 96.3666937,22.6959522 C94.9860724,23.4089786 93.5276213,23.8670398 91.9956937,24.1111351 C90.6646724,24.3250483 89.3294298,24.4287598 87.9833703,24.3747407 C86.671846,24.3250457 85.3841192,24.1435466 84.156783,23.6379564 C81.9443064,22.7261475 80.5117107,21.1034756 79.9023958,18.8044628 C79.1958596,16.1467734 79.1785656,13.4590075 79.9628946,10.8164883 C80.842292,7.85420749 82.8300648,5.96795643 85.8226861,5.16195643 C86.581078,4.95884706 87.3610776,4.89618749 88.1454435,4.87890664 C89.3856678,4.850818 90.6237286,4.90267374 91.8207244,5.25702749 C94.5388308,6.06296153 96.204784,7.8735594 96.7989286,10.6349339 C96.9717767,11.4300641 97.0344363,12.2511551 97.0841418,13.0657296 C97.1338368,13.927833 97.1079089,14.7920998 97.1143912,15.6564062 C97.1143912,15.7471544 97.0992659,15.8379079 97.0884634,15.9545734 L97.0884475,15.9546064 Z M116.098298,1.47085106 L116.098298,-5.32907052e-14 L117.562553,-5.32907052e-14 L117.562553,1.47085106 L116.098298,1.47085106 Z M118.697021,1.47085106 L118.697021,-5.32907052e-14 L120.174468,-5.32907052e-14 L120.174468,1.47085106 L118.697021,1.47085106 Z M121.308936,1.47085106 L121.308936,-5.32907052e-14 L122.773191,-5.32907052e-14 L122.773191,1.47085106 L121.308936,1.47085106 Z M116.098298,4.05374468 L116.098298,2.58157447 L117.562553,2.58157447 L117.562553,4.05374468 L116.098298,4.05374468 Z M118.697021,4.05374468 L118.697021,2.58157447 L120.174468,2.58157447 L120.174468,4.05374468 L118.697021,4.05374468 Z M121.308936,4.05374468 L121.308936,2.58157447 L122.773191,2.58157447 L122.773191,4.05374468 L121.308936,4.05374468 Z M116.098298,6.63795745 L116.098298,5.16578723 L117.562553,5.16578723 L117.562553,6.63795745 L116.098298,6.63795745 Z M118.697021,6.63795745 L118.697021,5.16578723 L120.174468,5.16578723 L120.174468,6.63795745 L118.697021,6.63795745 Z M121.308936,6.63795745 L121.308936,5.16578723 L122.773191,5.16578723 L122.773191,6.63795745 L121.308936,6.63795745 Z M116.098298,9.21953191 L116.098298,7.7473617 L117.562553,7.7473617 L117.562553,9.21953191 L116.098298,9.21953191 Z M118.697021,9.21953191 L118.697021,7.7473617 L120.174468,7.7473617 L120.174468,9.21953191 L118.697021,9.21953191 Z M121.308936,9.21953191 L121.308936,7.7473617 L122.773191,7.7473617 L122.773191,9.21953191 L121.308936,9.21953191 Z M112.919149,19.8334043 L112.919049,19.8333077 C113.143753,20.9936311 113.36847,22.1452481 113.595337,23.3184992 C113.42464,23.3941286 113.279876,23.4632705 113.130786,23.5216085 C111.977058,23.9580754 110.780023,24.2000653 109.55708,24.3189022 C108.459416,24.4226163 107.366184,24.4139759 106.275037,24.243278 C105.458352,24.113632 104.69343,23.8478631 103.984731,23.4243767 C102.850355,22.7459384 102.217269,21.7282414 101.95799,20.4512788 C101.83916,19.8657878 101.795946,19.2737669 101.795946,18.6774193 C101.800267,15.6762235 101.798107,12.6750278 101.798107,9.67383203 C101.798107,9.6716714 101.804589,9.66951077 101.806749,9.66735 L101.806749,9.18984447 L99.1815111,9.18984447 L99.1815111,5.22289979 L101.806749,5.22289979 L101.806749,0.000521063826 L107.14363,0.000521063826 L107.14363,5.22289979 L112.564805,5.22289979 L112.564805,9.18984447 L107.14363,9.18984447 L107.14363,17.1973423 C107.14363,17.262168 107.150112,17.3140237 107.150112,17.378844 C107.152273,17.7850628 107.195486,18.1977453 107.273271,18.5953104 C107.480773,19.6583862 108.096551,20.1747868 109.179045,20.2633743 C109.954705,20.3281972 110.717423,20.2180061 111.475815,20.0905262 C111.86689,20.0235398 112.253651,19.9349563 112.642576,19.8593321 C112.720366,19.8442076 112.802473,19.8442076 112.919149,19.8334043 Z M54.8238298,19.8334043 L54.8237302,19.8333077 C55.048434,20.9936311 55.273151,22.1452481 55.5000183,23.3184992 C55.3293204,23.3941286 55.184557,23.4632705 55.0354668,23.5216085 C53.8817391,23.9580754 52.6847038,24.2000653 51.4617604,24.3189022 C50.3640966,24.4226163 49.2708651,24.4139759 48.1797179,24.243278 C47.3630327,24.113632 46.598111,23.8478631 45.8894115,23.4243767 C44.7550357,22.7459384 44.1219498,21.7282414 43.862671,20.4512788 C43.7438408,19.8657878 43.7006268,19.2737669 43.7006268,18.6774193 C43.7049482,15.6762235 43.7027876,12.6750278 43.7027876,9.67383203 C43.7027876,9.6716714 43.7092695,9.66951077 43.7114302,9.66735 L43.7114302,9.18984447 L41.0861919,9.18984447 L41.0861919,5.22289979 L43.7114302,5.22289979 L43.7114302,0.000521063826 L49.0483111,0.000521063826 L49.0483111,5.22289979 L54.4694855,5.22289979 L54.4694855,9.18984447 L49.0483111,9.18984447 L49.0483111,17.1973423 C49.0483111,17.262168 49.0547931,17.3140237 49.0547931,17.378844 C49.0569539,17.7850628 49.1001666,18.1977453 49.1779515,18.5953104 C49.3854536,19.6583862 50.0012323,20.1747868 51.083726,20.2633743 C51.8593855,20.3281972 52.6221043,20.2180061 53.3804962,20.0905262 C53.7715711,20.0235398 54.1583323,19.9349563 54.547257,19.8593321 C54.6250472,19.8442076 54.7071537,19.8442076 54.8238298,19.8334043 Z M6.34378723,10.8447234 L6.34379119,10.84461 C6.26168604,11.3221419 6.24872277,11.8255819 6.29625698,12.3074142 C6.42157613,13.590867 7.1928957,14.4767414 8.39423145,14.7619546 C8.73346379,14.8419003 9.08565017,14.8570257 9.47457485,14.9088814 C9.89158421,14.8462219 10.3496455,14.8181266 10.7860991,14.7057721 C11.9529127,14.4055338 12.7480429,13.7075853 12.9943544,12.4824785 C13.0937457,11.9985091 13.0807811,11.5080363 13.0138,11.0175636 C12.8237106,9.66713762 11.9594043,8.74668826 10.6262723,8.46580187 C10.0709238,8.34912579 9.51346468,8.34264349 8.95385532,8.40746383 C7.55809021,8.57169787 6.5836217,9.45974894 6.34378723,10.8447234 Z M17.7413699,21.7581929 L17.7411788,21.7583543 C18.970652,22.6031372 19.6944743,23.7460479 19.7614554,25.2585841 C19.8046707,26.2222224 19.7031094,27.1707696 19.3725307,28.0847287 C18.9749392,29.1910989 18.2597494,30.044496 17.2831307,30.6862224 C16.3130286,31.3236219 15.2391358,31.7017428 14.1155903,31.9480543 C12.7219094,32.2505483 11.3175435,32.3845118 9.90658175,32.4190828 L9.91090315,32.4320468 C9.77261677,32.4363682 9.66242034,32.4277254 9.53061889,32.4298862 C9.24756911,32.4320468 8.96668272,32.4298862 8.68363294,32.4255648 C-2.37690323,32.3110627 0.280786128,25.8592372 0.280786128,25.8592372 L5.01046272,25.8592372 C5.0299083,26.0644967 5.04719311,26.2459984 5.06447923,26.4296503 C5.14010604,27.1707614 5.52037711,27.7152533 6.14049583,28.104178 C6.56185838,28.3677703 7.02208306,28.5319872 7.50607881,28.6227355 C9.07481072,28.9165877 10.6434107,28.9252282 12.1926192,28.5190226 C12.5685767,28.4196248 12.9380571,28.2402865 13.2686358,28.0350269 C13.8736239,27.6569324 14.1739532,27.073552 14.2150065,26.3648524 C14.2301318,26.0990835 14.2301318,25.8246873 14.1912394,25.5610818 C14.0421755,24.5758095 13.4263704,23.9448869 12.4022096,23.761235 C11.9916772,23.6877716 11.5681909,23.6683257 11.1490181,23.6640045 C9.63001809,23.653201 8.11326064,23.6748072 6.59426064,23.6553617 C5.65014574,23.6423984 4.70370915,23.5948629 3.76165213,23.5343641 C3.20200319,23.4976258 2.65319766,23.3723066 2.12815,23.1648836 C1.24656277,22.8170241 0.693430426,22.1882649 0.511928723,21.2505347 C0.421180511,20.7794666 0.390931106,20.3041245 0.451429915,19.8222921 C0.565945234,18.9104832 0.998085234,18.1844896 1.7391963,17.6637687 C2.1367614,17.3828824 2.58401885,17.173296 3.01183204,16.9356249 C3.11987034,16.8751314 3.23438566,16.8232756 3.37698566,16.751973 C3.30783983,16.6914742 3.27110945,16.6504209 3.22789545,16.6201715 C2.05254694,15.8639035 1.35465119,14.7814098 1.07807843,13.4288864 C0.730218851,11.7220396 0.911707362,10.079963 1.78246438,8.55014601 C2.55812396,7.18667367 3.73137502,6.27490431 5.15737502,5.66991623 C6.4883963,5.10598006 7.89065162,4.88991137 9.325358,4.87478601 C11.129558,4.85534176 12.8861367,5.11030686 14.5325665,5.89894686 C15.906724,6.55799367 17.0216686,7.50210857 17.7282048,8.87850857 C18.9252006,11.2119511 18.6918431,14.6669341 15.7555495,16.6158447 C14.6580176,17.3460992 13.4393482,17.7609584 12.1537452,17.996466 C11.3024984,18.154194 10.4425057,18.2190147 9.57823885,18.2254967 C8.69018779,18.2319789 7.80220268,18.2600676 6.91632821,18.2881562 C6.51444949,18.3011235 6.12768821,18.3897043 5.77981545,18.6014541 C5.44923672,18.8045503 5.23748957,19.081123 5.29150609,19.495969 C5.34121162,19.9021745 5.5853597,20.1571357 5.96348055,20.2586877 C6.24221672,20.3343119 6.53607034,20.3796855 6.82343374,20.3818461 C8.77445502,20.3926495 10.7256082,20.3861675 12.6745189,20.3926495 C13.7786465,20.3947997 14.8611269,20.5546938 15.9155359,20.8895993 C16.5616418,21.0948721 17.1774337,21.3735951 17.7413699,21.7581929 Z" id="Combined-Shape" fill="#FF0000"></path>
    </g>
</svg>