<svg width="116" height="32" viewBox="0 0 116 32" fill="none" xmlns="http://www.w3.org/2000/svg">
<path fill-rule="evenodd" clip-rule="evenodd" d="M54.9621 5.84242H59.7426C59.7749 6.47414 59.8073 7.09169 59.8397 7.75575C59.9491 7.69501 60.0341 7.65654 60.1131 7.60592C61.5081 6.68668 63.0287 6.0732 64.6648 5.74512C65.8533 5.5062 67.0418 5.50822 68.2122 5.79979C70 6.24523 71.0751 7.39939 71.4538 9.20344C71.6299 10.0417 71.6947 10.892 71.6967 11.7465C71.6988 15.555 71.6967 19.3636 71.6967 23.1721C71.6967 23.2895 71.6866 23.407 71.6805 23.5386H66.6045V23.1417C66.6045 19.7057 66.6105 16.2677 66.6004 12.8318C66.5984 12.2992 66.57 11.7586 66.485 11.2322C66.3271 10.2684 65.6771 9.69944 64.7114 9.57187C63.8893 9.46253 63.0997 9.58604 62.3201 9.83711C61.5264 10.0922 60.7671 10.4223 60.0241 10.8697V23.5392H54.9622V5.84225L54.9621 5.84242ZM32.4342 12.7909C32.4484 12.7362 32.4626 12.7059 32.4606 12.6755C32.4363 11.7805 32.2824 10.9159 31.8754 10.1061C31.5676 9.4906 31.0736 9.10994 30.4196 8.92367C29.8972 8.77383 29.3606 8.75764 28.8241 8.79813C27.6942 8.8852 26.8378 9.41568 26.2891 10.42C26.0076 10.9343 25.8558 11.4911 25.7525 12.0641C25.71 12.2969 25.6897 12.5338 25.6553 12.791H32.4342L32.4342 12.7909ZM37.071 15.9414H25.5704C25.5907 16.2593 25.5907 16.5407 25.6332 16.8161C25.6838 17.14 25.7466 17.464 25.8478 17.7758C26.2163 18.9097 26.9999 19.6021 28.1499 19.8957C29.0955 20.1366 30.0552 20.1346 31.0189 20.0638C32.5011 19.9524 33.9265 19.588 35.3276 19.1081C35.4187 19.0777 35.5118 19.0554 35.6333 19.019C35.9796 20.0516 36.3177 21.064 36.6599 22.0905C36.5647 22.1472 36.4837 22.2019 36.3967 22.2464C34.9855 22.9794 33.483 23.4147 31.9119 23.6353C30.7922 23.7933 29.6704 23.8642 28.5406 23.8237C27.3885 23.7811 26.2506 23.6313 25.1674 23.2203C22.8206 22.3294 21.4094 20.6225 20.8505 18.1969C20.5225 16.7695 20.4253 15.3177 20.5286 13.8599C20.6076 12.7666 20.7716 11.6813 21.1644 10.6527C22.2152 7.90508 24.1833 6.2286 27.0867 5.71028C28.6842 5.42276 30.2959 5.45313 31.8752 5.84593C34.5054 6.50195 36.1353 8.19267 36.7771 10.8188C37.0262 11.8312 37.0586 12.8759 37.091 13.9146C37.1112 14.4937 37.097 15.0748 37.097 15.6539C37.097 15.7389 37.0829 15.824 37.0707 15.9414L37.071 15.9414ZM80.1328 12.7872H86.9035C86.9197 12.7467 86.9359 12.7264 86.9359 12.7082C86.9177 11.8254 86.778 10.971 86.3892 10.1672C86.0673 9.50507 85.551 9.09809 84.8423 8.90974C84.3705 8.78623 83.8927 8.768 83.4128 8.7923C82.2425 8.85102 81.3495 9.37138 80.7766 10.406C80.3696 11.1389 80.2258 11.9408 80.1327 12.7871L80.1328 12.7872ZM91.5442 15.9315H80.1064C80.0881 16.0064 80.0638 16.057 80.0638 16.1056C80.0699 16.7556 80.161 17.3934 80.404 18.0008C80.811 19.0253 81.5844 19.6267 82.6353 19.896C83.5808 20.1389 84.5425 20.1329 85.5043 20.062C86.9986 19.9527 88.432 19.5761 89.8433 19.0982C89.9162 19.0739 89.9891 19.0516 90.1066 19.0152C90.471 20.0357 90.7929 21.0602 91.1331 22.0929C91.0339 22.1516 90.9529 22.2042 90.8679 22.2488C89.5741 22.9169 88.2074 23.3462 86.7718 23.5749C85.5245 23.7754 84.2733 23.8726 83.0119 23.822C81.7829 23.7754 80.5762 23.6053 79.4261 23.1315C77.3528 22.2771 76.0103 20.7565 75.4393 18.6021C74.7772 16.1116 74.761 13.5929 75.496 11.1166C76.3201 8.3407 78.1828 6.57311 80.9872 5.81782C81.6978 5.62748 82.4288 5.56877 83.1638 5.55257C84.326 5.52625 85.4862 5.57484 86.6079 5.90691C89.155 6.66214 90.7161 8.35884 91.2729 10.9465C91.4349 11.6916 91.4936 12.461 91.5402 13.2244C91.5867 14.0322 91.5624 14.8421 91.5685 15.6521C91.5685 15.7371 91.5543 15.8222 91.5442 15.9315L91.5442 15.9315ZM109.358 2.35891V0.980591H110.73V2.35891H109.358ZM111.793 2.35891V0.980591H113.178V2.35891H111.793ZM114.241 2.35891V0.980591H115.613V2.35891H114.241ZM109.358 4.77932V3.39976H110.73V4.77932H109.358ZM111.793 4.77932V3.39976H113.178V4.77932H111.793ZM114.241 4.77932V3.39976H115.613V4.77932H114.241ZM109.358 7.20096V5.82141H110.73V7.20096H109.358ZM111.793 7.20096V5.82141H113.178V7.20096H111.793ZM114.241 7.20096V5.82141H115.613V7.20096H114.241ZM109.358 9.62014V8.24058H110.73V9.62014H109.358ZM111.793 9.62014V8.24058H113.178V9.62014H111.793ZM114.241 9.62014V8.24058H115.613V9.62014H114.241ZM106.379 19.5663L106.379 19.5662C106.589 20.6535 106.8 21.7327 107.013 22.8322C106.853 22.903 106.717 22.9678 106.577 23.0225C105.496 23.4315 104.374 23.6583 103.228 23.7696C102.2 23.8668 101.175 23.8587 100.153 23.6988C99.3876 23.5773 98.6708 23.3282 98.0067 22.9314C96.9436 22.2956 96.3504 21.3419 96.1074 20.1453C95.9961 19.5967 95.9556 19.0419 95.9556 18.483C95.9596 15.6706 95.9576 12.8583 95.9576 10.0459C95.9576 10.0438 95.9637 10.0418 95.9657 10.0398V9.59232H93.5056V5.87493H95.9657V0.981079H100.967V5.87493H106.047V9.59232H100.967V17.0961C100.967 17.1568 100.973 17.2054 100.973 17.2662C100.975 17.6468 101.015 18.0335 101.088 18.4061C101.283 19.4023 101.86 19.8862 102.874 19.9692C103.601 20.03 104.316 19.9267 105.026 19.8073C105.393 19.7445 105.755 19.6615 106.12 19.5906C106.193 19.5764 106.27 19.5764 106.379 19.5663ZM51.9384 19.5663L51.9383 19.5662C52.1489 20.6535 52.3595 21.7327 52.5721 22.8322C52.4121 22.903 52.2764 22.9678 52.1367 23.0225C51.0556 23.4315 49.9339 23.6583 48.7878 23.7696C47.7592 23.8668 46.7348 23.8587 45.7123 23.6988C44.947 23.5773 44.2302 23.3282 43.566 22.9314C42.503 22.2956 41.9098 21.3419 41.6668 20.1453C41.5554 19.5967 41.5149 19.0419 41.5149 18.483C41.519 15.6706 41.517 12.8583 41.517 10.0459C41.517 10.0438 41.523 10.0418 41.5251 10.0398V9.59232H39.065V5.87493H41.5251V0.981079H46.5262V5.87493H51.6064V9.59232H46.5262V17.0961C46.5262 17.1568 46.5323 17.2054 46.5323 17.2662C46.5343 17.6468 46.5748 18.0335 46.6477 18.4061C46.8422 19.4023 47.4192 19.8862 48.4336 19.9692C49.1605 20.03 49.8752 19.9267 50.5859 19.8073C50.9523 19.7445 51.3148 19.6615 51.6792 19.5906C51.7521 19.5764 51.8291 19.5764 51.9384 19.5663ZM6.50818 11.1431L6.50819 11.143C6.43125 11.5905 6.4191 12.0622 6.46364 12.5138C6.58108 13.7165 7.30387 14.5466 8.42964 14.8139C8.74753 14.8888 9.07756 14.903 9.44202 14.9516C9.83279 14.8929 10.262 14.8665 10.671 14.7612C11.7644 14.4799 12.5096 13.8259 12.7404 12.6778C12.8335 12.2243 12.8214 11.7647 12.7586 11.3051C12.5805 10.0396 11.7705 9.17704 10.5213 8.91382C10.0008 8.80449 9.47846 8.79841 8.95405 8.85915C7.64609 9.01306 6.73293 9.84524 6.50818 11.1431ZM17.1888 21.37L17.1886 21.3702C18.3407 22.1618 19.019 23.2328 19.0818 24.6502C19.1223 25.5532 19.0271 26.4421 18.7173 27.2986C18.3447 28.3353 17.6745 29.135 16.7593 29.7364C15.8503 30.3337 14.8439 30.688 13.7911 30.9188C12.4851 31.2023 11.169 31.3278 9.84685 31.3602L9.85089 31.3724C9.72131 31.3764 9.61804 31.3683 9.49453 31.3704C9.22929 31.3724 8.96607 31.3704 8.70083 31.3663C-1.6639 31.259 0.826597 25.2131 0.826597 25.2131H5.25874C5.27696 25.4054 5.29315 25.5755 5.30935 25.7476C5.38022 26.4421 5.73657 26.9523 6.31768 27.3168C6.71253 27.5638 7.14381 27.7177 7.59735 27.8027C9.0674 28.0781 10.5373 28.0862 11.9891 27.7055C12.3414 27.6124 12.6876 27.4443 12.9974 27.252C13.5643 26.8977 13.8458 26.351 13.8842 25.6869C13.8984 25.4378 13.8984 25.1807 13.862 24.9337C13.7223 24.0104 13.1452 23.4191 12.1855 23.247C11.8008 23.1782 11.4039 23.16 11.0111 23.1559C9.58768 23.1458 8.16634 23.1661 6.7429 23.1478C5.85818 23.1357 4.97128 23.0911 4.08849 23.0344C3.56404 23 3.04976 22.8826 2.55775 22.6882C1.73162 22.3622 1.21328 21.773 1.0432 20.8943C0.958159 20.4529 0.929813 20.0074 0.986505 19.5559C1.09382 18.7014 1.49877 18.0211 2.19326 17.5332C2.56581 17.2699 2.98494 17.0735 3.38584 16.8508C3.48708 16.7941 3.59439 16.7455 3.72802 16.6787C3.66322 16.622 3.6288 16.5836 3.58831 16.5552C2.4869 15.8465 1.83291 14.8321 1.57373 13.5647C1.24776 11.9652 1.41783 10.4264 2.23381 8.99286C2.96067 7.71516 4.06011 6.86075 5.39641 6.29382C6.64369 5.76536 7.95774 5.56289 9.30219 5.54871C10.9929 5.53049 12.639 5.76942 14.1818 6.50844C15.4695 7.12603 16.5143 8.01075 17.1764 9.30057C18.2981 11.4872 18.0794 14.7249 15.3279 16.5512C14.2994 17.2355 13.1574 17.6242 11.9526 17.8449C11.1549 17.9927 10.3491 18.0535 9.53916 18.0595C8.70697 18.0656 7.87485 18.0919 7.04471 18.1183C6.66811 18.1304 6.30568 18.2134 5.97969 18.4119C5.66991 18.6022 5.47148 18.8614 5.5221 19.2501C5.56868 19.6308 5.79747 19.8697 6.1518 19.9648C6.413 20.0357 6.68837 20.0782 6.95765 20.0802C8.78594 20.0904 10.6143 20.0843 12.4407 20.0904C13.4753 20.0924 14.4897 20.2422 15.4778 20.5561C16.0832 20.7484 16.6603 21.0096 17.1888 21.37Z" fill="#FF0000"/>
</svg>
