<svg width="112" height="23" viewBox="0 0 112 23" fill="none" xmlns="http://www.w3.org/2000/svg">
<path d="M32.8857 0.06723C26.5459 0.0422265 21.3924 5.15683 21.3896 11.4327C21.3896 17.7725 26.4931 22.901 32.8079 22.901C39.006 22.9149 44.2429 17.9197 44.2401 11.4772C44.2373 5.1096 39.0977 0.0922335 32.8857 0.06723ZM32.8107 18.6087C28.8713 18.6087 25.6847 15.4083 25.6847 11.4522C25.6847 7.53494 28.9018 4.34283 32.8579 4.3595C36.7362 4.37339 39.9423 7.50438 39.9423 11.4799C39.945 15.4999 36.6779 18.6171 32.8107 18.6087Z" fill="#C2C0BF"/>
<path d="M39.7508 7.84139C38.8424 4.98543 37.0227 2.89347 34.4001 1.47939C32.9526 0.701499 31.4024 0.25977 29.7633 0.126418C28.6382 0.0347387 27.5269 0.0986366 26.4267 0.340337C24.1931 0.829295 22.2706 1.88778 20.6731 3.52412C19.1757 5.05489 18.1922 6.87181 17.7116 8.95821C17.6366 9.28604 17.5394 9.36938 17.1949 9.36938C15.4169 9.36938 13.6388 9.36938 11.8608 9.36938C11.5246 9.36938 11.3885 9.50551 11.3885 9.83889C11.3885 10.9307 11.3885 12.0253 11.3885 13.1171C11.3885 13.4422 11.5274 13.5811 11.8552 13.5811C13.4332 13.5811 15.014 13.5811 16.592 13.5811C16.8726 13.5811 17.0226 13.7283 17.0226 14.0061C17.0226 14.5479 17.0226 15.0896 17.0226 15.6314C17.0226 15.8397 16.9615 16.0231 16.8226 16.1787C15.1224 18.0567 13.0082 18.8846 10.4912 18.5985C8.74926 18.3984 7.26849 17.6205 6.09333 16.3148C4.56533 14.6173 3.96525 12.6143 4.30697 10.3584C4.57923 8.56093 5.44879 7.08017 6.85454 5.92723C8.12139 4.8882 9.5827 4.35201 11.219 4.30756C12.3581 4.277 13.4416 4.51037 14.4723 4.99655C14.7084 5.10767 14.8973 5.05211 15.0279 4.82986C15.6002 3.86861 16.1725 2.90736 16.7448 1.94334C16.9032 1.67664 16.8393 1.46272 16.567 1.32381C14.3056 0.190316 11.9303 -0.168067 9.44658 0.256992C6.96012 0.682052 4.8237 1.81277 3.11235 3.6658C0.534214 6.45508 -0.443701 9.75555 0.184165 13.5005C0.592555 15.9648 1.74272 18.0706 3.57631 19.7653C6.34058 22.324 9.61882 23.3019 13.3305 22.7046C15.878 22.2962 18.02 21.0849 19.7786 19.1985C20.0064 18.9541 20.2175 18.9513 20.4398 19.193C21.501 20.3459 22.7429 21.246 24.1736 21.885C26.0934 22.7435 28.102 23.0324 30.1884 22.7963C30.3078 22.7824 30.4273 22.7657 30.544 22.7463C30.6607 22.7268 30.7829 22.7213 30.9135 22.6712C30.8774 22.6601 30.8607 22.6546 30.8412 22.649C30.8246 22.6435 30.8051 22.6379 30.7885 22.6351C28.8187 22.2434 27.049 21.4294 25.5016 20.1431C24.1959 19.0569 23.1957 17.7344 22.5234 16.1731C22.0345 15.0396 21.7594 13.8533 21.6816 12.6171C21.6344 11.8614 21.6538 11.1113 21.8122 10.3695C22.19 8.61928 23.0513 7.1524 24.4126 5.98835C25.61 4.96321 26.9963 4.38813 28.5798 4.31312C29.4105 4.27422 30.2217 4.39646 31.0135 4.64372C32.1053 4.98543 33.0693 5.55774 33.8694 6.37452C35.5391 8.07198 36.2476 10.1139 35.9336 12.4754C35.6753 14.409 34.7362 15.9703 33.2027 17.1733C32.5276 17.7039 31.7691 18.0873 30.9496 18.3429C30.9579 18.354 30.9635 18.3651 30.969 18.3679C30.9996 18.379 31.0302 18.3929 31.0607 18.4012C32.4081 18.7763 33.7583 18.804 35.0863 18.3429C37.4255 17.5289 38.9507 15.8842 39.8008 13.5894C40.2064 12.4976 40.2981 11.3613 40.2009 10.2056C40.1314 9.39994 39.9953 8.61094 39.7508 7.84139Z" fill="#FE7020"/>
<path d="M55.6503 18.3338C53.225 18.3338 50.7996 18.3338 48.3715 18.3338C48.0437 18.3338 47.9103 18.2005 47.9103 17.8699C47.9103 15.0417 47.9103 12.2135 47.9103 9.38257C47.9103 6.54328 47.9103 3.70677 47.9103 0.867485C47.9103 0.547995 47.7714 0.411865 47.4547 0.411865C46.3518 0.411865 45.2516 0.411865 44.1487 0.411865C43.8431 0.411865 43.7014 0.553552 43.6986 0.861928C43.6875 3.12891 43.6959 5.39868 43.6875 7.66566C43.6736 11.7162 43.6931 15.7668 43.6986 19.8174C43.6986 20.448 43.6986 21.0759 43.6986 21.7065C43.6986 22.2427 44.007 22.5511 44.5404 22.5511C48.2493 22.5511 51.9581 22.5511 55.6642 22.5511C56.0087 22.5511 56.142 22.4177 56.142 22.0732C56.142 20.9953 56.142 19.9146 56.142 18.8367C56.1476 18.4672 56.017 18.3338 55.6503 18.3338Z" fill="#FE7020"/>
<path d="M69.8334 18.3337C67.4025 18.3337 64.9716 18.3337 62.5435 18.3337C62.224 18.3337 62.0906 18.2004 62.0906 17.8781C62.0906 17.1836 62.0906 16.489 62.0906 15.7945C62.0906 10.8327 62.0906 5.86809 62.0906 0.906286C62.0906 0.542346 61.9628 0.414551 61.5989 0.414551C60.5209 0.414551 59.4402 0.414551 58.3623 0.414551C58.0039 0.414551 57.8789 0.539568 57.8789 0.897952C57.8789 4.37066 57.8789 7.84337 57.8789 11.3133C57.8789 14.7832 57.8789 18.2587 57.8789 21.7287C57.8789 22.2371 58.1901 22.551 58.7012 22.551C62.424 22.551 66.144 22.551 69.8667 22.551C70.1806 22.551 70.3251 22.4065 70.3251 22.0926C70.3251 21.0035 70.3251 19.9173 70.3251 18.8282C70.3223 18.4699 70.189 18.3337 69.8334 18.3337Z" fill="#65605B"/>
<path d="M112 9.81587C112 9.51582 111.856 9.37414 111.559 9.37414C108.744 9.37414 105.927 9.37414 103.113 9.37414C102.807 9.37414 102.666 9.51582 102.666 9.82698C102.666 10.9299 102.666 12.0301 102.666 13.133C102.666 13.4386 102.81 13.5831 103.116 13.5831C104.505 13.5831 105.894 13.5831 107.283 13.5831C107.569 13.5831 107.722 13.7331 107.722 14.0192C107.722 14.5554 107.719 15.0944 107.722 15.6306C107.722 15.85 107.653 16.0362 107.505 16.2001C107.316 16.4112 107.122 16.614 106.911 16.803C104.683 18.8227 101.454 19.2394 98.7847 17.8559C96.1287 16.4807 94.6035 13.6025 94.9647 10.6271C95.1786 8.86573 95.9482 7.38219 97.2511 6.1848C98.5152 5.02631 100.015 4.39844 101.73 4.31787C103.513 4.23175 105.116 4.74849 106.527 5.84587C106.833 6.08201 106.958 6.07645 107.219 5.78752C107.947 4.97908 108.672 4.17063 109.4 3.36218C109.636 3.10104 109.625 2.92323 109.347 2.6982C107.225 0.967404 104.788 0.103394 102.055 0.0867247C101.235 0.0811683 100.418 0.167292 99.6181 0.358985C96.1649 1.18132 93.6089 3.16771 91.9393 6.29871C91.7226 6.7071 91.5475 7.13494 91.3781 7.57666C90.3168 4.82628 88.5193 2.73154 85.9106 1.37579C83.2964 0.0172704 80.5377 -0.271659 77.6956 0.481224C72.656 1.81752 68.9833 6.54041 69.2778 12.1106C69.5611 17.4392 73.545 21.8926 78.868 22.7399C84.1076 23.5734 89.3972 20.6841 91.3725 15.4C91.3836 15.4167 91.392 15.4222 91.3948 15.4305C91.4059 15.4555 91.417 15.4805 91.4253 15.5083C92.1143 17.3114 93.17 18.8644 94.648 20.1062C97.6373 22.6149 101.054 23.4122 104.847 22.5371C106.827 22.0815 108.539 21.0952 110.003 19.6839C110.664 19.0449 111.242 18.3337 111.728 17.5531C111.884 17.3058 112 17.0419 112 16.7363C112 14.4276 112 12.1217 112 9.81587ZM80.6516 18.6088C76.7121 18.6088 73.5256 15.4083 73.5256 11.4522C73.5256 7.53499 76.7427 4.34288 80.6988 4.35955C84.5771 4.37344 87.7831 7.50443 87.7831 11.48C87.7887 15.5 84.5188 18.6171 80.6516 18.6088Z" fill="#65605B"/>
</svg>
