<svg width="50" height="50" viewBox="0 0 50 50" fill="none" xmlns="http://www.w3.org/2000/svg">
<rect x="0.5" y="0.5" width="49" height="49" rx="9.5" fill="white" stroke="#EEEEEE"/>
<path d="M27.2614 36.9336L22.7483 32.5327L32.4409 22.6348L37.1136 27.2144L27.2614 36.9336Z" fill="#8AB4F8"/>
<path d="M27.2805 17.4762L22.7836 12.8848L12.9506 22.6246C11.6831 23.8922 11.6831 25.9471 12.9506 27.2161L22.6359 36.9649L27.2155 32.6807L19.8364 24.9204L27.2805 17.4762Z" fill="#4285F4"/>
<path d="M37.0482 22.702L27.298 12.9518C26.029 11.6827 23.9711 11.6827 22.7021 12.9518C21.4331 14.2208 21.4331 16.2786 22.7021 17.5477L32.4523 27.2979C33.7213 28.5669 35.7792 28.5669 37.0482 27.2979C38.3172 26.0289 38.3172 23.971 37.0482 22.702Z" fill="#8AB4F8"/>
<path d="M24.9257 38.0009C26.6798 38.0009 28.1019 36.5788 28.1019 34.8246C28.1019 33.0705 26.6798 31.6484 24.9257 31.6484C23.1715 31.6484 21.7495 33.0705 21.7495 34.8246C21.7495 36.5788 23.1715 38.0009 24.9257 38.0009Z" fill="#246FDB"/>
</svg>
