<svg width="50" height="50" viewBox="0 0 50 50" fill="none" xmlns="http://www.w3.org/2000/svg">
<rect x="0.5" y="0.5" width="49" height="49" rx="9.5" fill="white" stroke="#EEEEEE"/>
<path d="M29.9211 15.0395V34.1447C29.9211 36.2825 31.3959 37.4737 32.9606 37.4737C34.4079 37.4737 36 36.4605 36 34.1447V15.1842C36 13.2245 34.5527 12 32.9606 12C31.3684 12 29.9211 13.3504 29.9211 15.0395Z" fill="#F9AB00"/>
<path d="M21.9608 24.7309V34.1388C21.9608 36.2765 23.4356 37.4677 25.0002 37.4677C26.4476 37.4677 28.0397 36.4546 28.0397 34.1388V24.8756C28.0397 22.9159 26.5923 21.6914 25.0002 21.6914C23.4081 21.6914 21.9608 23.0418 21.9608 24.7309Z" fill="#E37400"/>
<path d="M17.0395 37.4793C18.7181 37.4793 20.0789 36.1185 20.0789 34.4399C20.0789 32.7612 18.7181 31.4004 17.0395 31.4004C15.3608 31.4004 14 32.7612 14 34.4399C14 36.1185 15.3608 37.4793 17.0395 37.4793Z" fill="#E37400"/>
</svg>
