<svg width="125" height="40" viewBox="0 0 125 40" fill="none" xmlns="http://www.w3.org/2000/svg">
<path fill-rule="evenodd" clip-rule="evenodd" d="M55.8564 2.61362C55.3224 3.15139 54.8197 3.65761 54.3006 4.18028C54.1058 4.02801 53.8933 3.84692 53.6671 3.68641C50.2176 1.21845 45.3322 3.35442 44.7055 7.57151C44.2491 10.6362 46.1237 13.6063 49.1263 14.225C51.2898 14.6695 53.2271 14.1976 54.7039 12.4224C55.2652 11.7488 55.4927 10.9271 55.5976 10.012C53.8429 10.012 52.129 10.012 50.3947 10.012C50.3947 9.2534 50.3947 8.53866 50.3947 7.79512H57.7474C58.449 11.8339 56.3632 15.5667 52.2434 16.4145C49.1985 17.0414 46.512 16.2375 44.3526 13.9314C41.0366 10.3893 41.6892 4.64808 45.6973 1.903C48.7095 -0.160267 52.4328 -0.0848151 55.2638 2.09918C55.475 2.26106 55.6671 2.44763 55.8564 2.61362ZM89.0355 7.35201C89.0355 7.02551 89.0355 6.78543 89.0355 6.52341H91.2166V6.91713C91.2166 9.93247 91.2221 12.9464 91.2139 15.9618C91.2112 17.1169 91.0027 18.2308 90.3815 19.2254C89.5559 20.5479 88.293 21.1103 86.8053 21.2667C84.7209 21.4849 82.7046 20.3476 81.8068 18.4462C81.7754 18.379 81.7523 18.3063 81.7046 18.1842C82.3626 17.9057 83.0111 17.6313 83.6037 17.3816C83.9471 17.7973 84.2236 18.239 84.5983 18.5669C85.4729 19.331 86.4947 19.3955 87.5301 18.9593C88.4987 18.5505 88.9074 17.7136 88.9987 16.7067C89.0355 16.3034 89.0042 15.8945 89.0042 15.4171C88.4619 15.9974 87.853 16.3774 87.1255 16.505C85.0656 16.8686 83.4443 16.0921 82.2468 14.4376C80.1161 11.495 81.6528 7.22031 85.1487 6.32175C86.5737 5.95546 87.872 6.22846 89.0355 7.35201ZM89.2153 11.3619C89.1676 11.0464 89.1554 10.7213 89.0668 10.4195C88.7508 9.3412 88.1091 8.54552 86.977 8.30956C85.9525 8.09556 85.0656 8.43029 84.368 9.21499C83.3531 10.3577 83.3176 12.266 84.2727 13.4691C85.2672 14.723 87.0614 14.8904 88.2208 13.8189C88.9279 13.1646 89.1976 12.3168 89.2153 11.3619ZM63.8195 16.5956C60.8699 16.5873 58.6384 14.3265 58.6438 11.3537C58.6493 8.41931 60.9026 6.18045 63.8453 6.18182C66.8194 6.18319 69.0496 8.43852 69.04 11.4374C69.0319 14.3608 66.7608 16.6038 63.8195 16.5956ZM63.8535 8.26155C63.2568 8.24372 62.735 8.4152 62.2609 8.7417C60.8195 9.73355 60.4912 11.8599 61.5498 13.3415C62.4421 14.5899 64.1369 14.9013 65.4052 14.0467C66.1832 13.5226 66.5987 12.764 66.7186 11.8503C66.9883 9.78019 65.5129 8.20942 63.8535 8.26155ZM75.1366 16.5956C72.1871 16.5873 69.9556 14.3265 69.961 11.3537C69.9665 8.41931 72.2198 6.18045 75.1625 6.18182C78.1366 6.18319 80.3668 8.43852 80.3572 11.4374C80.349 14.3608 78.0793 16.6038 75.1366 16.5956ZM75.1721 8.26155C74.5753 8.24372 74.0536 8.4152 73.5795 8.7417C72.1381 9.73355 71.8097 11.8599 72.8683 13.3415C73.7606 14.5899 75.4554 14.9013 76.7238 14.0467C77.5017 13.5226 77.9172 12.764 78.0371 11.8503C78.3069 9.78019 76.8314 8.20942 75.1721 8.26155ZM105.592 14.284C104.677 15.5955 103.472 16.3665 101.926 16.5736C99.6238 16.8823 97.4563 15.6449 96.5476 13.5144C95.4754 11.0039 96.4631 7.93505 98.726 6.74016C101.234 5.41632 104.122 6.45482 105.289 9.10387C105.427 9.41802 105.547 9.74041 105.692 10.0957C104.531 10.5786 103.384 11.0546 102.24 11.5321C101.092 12.0108 99.9467 12.491 98.8009 12.9711C99.508 14.7491 102.384 15.2896 103.84 13.1069C104.417 13.4924 104.994 13.8807 105.592 14.284ZM98.4317 11.1987C99.948 10.5649 101.453 9.93521 102.958 9.3069C102.646 8.47967 101.601 8.03931 100.562 8.27252C99.2791 8.56061 98.3105 9.87074 98.4317 11.1987ZM95.0204 0.997578V16.254C94.2792 16.254 93.5463 16.254 92.7847 16.254C92.7847 11.1809 92.7847 6.10637 92.7847 0.997578H95.0204ZM46.6182 26.584V36.0924H45.2354V26.584H42.2287V25.2506H49.6263V26.584H46.6182ZM52.4982 28.4306C53.52 28.4306 54.3279 28.7063 54.9191 29.2564C55.5104 29.8065 55.806 30.5611 55.806 31.52V36.0924H54.4832V35.0635H54.4232C53.8524 35.9113 53.0895 36.3352 52.1372 36.3352C51.3252 36.3352 50.6467 36.0924 50.1004 35.6081C49.5541 35.1238 49.2803 34.5175 49.2803 33.7904C49.2803 33.0235 49.5691 32.4131 50.1454 31.9576C50.7217 31.5035 51.4914 31.2758 52.4532 31.2758C53.2747 31.2758 53.9518 31.4267 54.4832 31.7299V31.4116C54.4832 30.9273 54.2924 30.5158 53.9123 30.1769C53.5309 29.8395 53.0854 29.6693 52.5731 29.6693C51.802 29.6693 51.1903 29.9972 50.738 30.653L49.5201 29.8806C50.1917 28.9148 51.1849 28.4306 52.4982 28.4306ZM50.7094 33.8219C50.7094 34.1855 50.862 34.4887 51.1685 34.7301C51.4737 34.9729 51.8334 35.0937 52.2434 35.0937C52.8252 35.0937 53.3442 34.8769 53.7993 34.442C54.2556 34.0085 54.4832 33.4982 54.4832 32.9138C54.0527 32.5708 53.4505 32.3993 52.678 32.3993C52.1167 32.3993 51.6481 32.5351 51.2721 32.8081C50.8974 33.0798 50.7094 33.4173 50.7094 33.8219ZM60.558 39.6057C60.1465 39.6057 59.761 39.5522 59.3999 39.4466C59.0389 39.3409 58.7106 39.1914 58.415 38.9993C58.1193 38.8073 57.8659 38.5795 57.6561 38.3175C57.4449 38.0555 57.2856 37.7619 57.1752 37.4395L58.4831 36.8949C58.6343 37.3284 58.8945 37.6769 59.2651 37.9389C59.6356 38.2009 60.0675 38.3326 60.558 38.3326C61.31 38.3326 61.8972 38.1049 62.3181 37.6508C62.7391 37.1967 62.9489 36.5711 62.9489 35.7727V35.0607H62.889C62.6287 35.4545 62.2745 35.7645 61.829 35.9922C61.3835 36.22 60.8985 36.3338 60.3781 36.3338C59.4163 36.3338 58.588 35.9552 57.8973 35.1979C57.2161 34.4201 56.8755 33.4817 56.8755 32.3815C56.8755 31.2813 57.2161 30.347 57.8973 29.5802C58.5893 28.8133 59.4163 28.4292 60.3781 28.4292C60.8985 28.4292 61.3835 28.5431 61.829 28.7694C62.2745 28.9971 62.6287 29.3072 62.889 29.7009H62.9489V28.672H64.2731V35.7727C64.2731 36.9635 63.9366 37.8977 63.2663 38.5741C62.5824 39.2627 61.6805 39.6057 60.558 39.6057ZM60.6029 35.0635C61.2841 35.0635 61.8399 34.8165 62.2718 34.3213C62.7228 33.8274 62.9489 33.1813 62.9489 32.3829C62.9489 31.605 62.7241 30.9644 62.2718 30.4595C61.8304 29.9547 61.2746 29.7023 60.6029 29.7023C59.9408 29.7023 59.385 29.9547 58.934 30.4595C58.4831 30.9644 58.2569 31.605 58.2569 32.3829C58.2569 33.1703 58.4817 33.811 58.934 34.3062C59.385 34.8111 59.9422 35.0635 60.6029 35.0635ZM69.6858 36.0924H68.303V25.2506H69.6858L73.4296 31.852H73.4895L77.2333 25.2506H78.6175V36.0924H77.2333V29.657L77.2933 27.8407H77.2333L73.8655 33.7918H73.0536L69.6858 27.8407H69.6259L69.6858 29.657V36.0924ZM83.1133 28.4306C84.1351 28.4306 84.9429 28.7063 85.5342 29.2564C86.1255 29.8065 86.4211 30.5611 86.4211 31.52V36.0924H85.0983V35.0635H85.0383C84.4675 35.9113 83.7046 36.3352 82.7523 36.3352C81.9403 36.3352 81.2618 36.0924 80.7155 35.6081C80.1692 35.1238 79.8954 34.5175 79.8954 33.7904C79.8954 33.0235 80.1842 32.4131 80.7605 31.9576C81.3368 31.5035 82.1065 31.2758 83.0683 31.2758C83.8898 31.2758 84.5669 31.4267 85.0983 31.7299V31.4116C85.0983 30.9273 84.9075 30.5158 84.5274 30.1769C84.146 29.8395 83.7005 29.6693 83.1882 29.6693C82.4171 29.6693 81.8054 29.9972 81.3531 30.653L80.1352 29.8806C80.8068 28.9148 81.8 28.4306 83.1133 28.4306ZM81.3231 33.8219C81.3231 34.1855 81.4757 34.4887 81.7823 34.7301C82.0874 34.9729 82.4471 35.0937 82.8572 35.0937C83.4389 35.0937 83.958 34.8769 84.413 34.442C84.8694 34.0085 85.0969 33.4982 85.0969 32.9138C84.6664 32.5708 84.0642 32.3993 83.2918 32.3993C82.7305 32.3993 82.2618 32.5351 81.8858 32.8081C81.5125 33.0798 81.3231 33.4173 81.3231 33.8219ZM87.9851 28.6734H89.308V29.7023H89.3679C89.5777 29.3387 89.902 29.0355 90.3379 28.7941C90.7739 28.5527 91.2275 28.4306 91.6989 28.4306C92.6008 28.4306 93.2956 28.6912 93.782 29.2098C94.2683 29.7297 94.5108 30.4691 94.5108 31.4281V36.0924H93.128V31.52C93.0981 30.3086 92.4918 29.7023 91.3079 29.7023C90.7562 29.7023 90.2957 29.9273 89.9251 30.3758C89.5546 30.8244 89.3693 31.3622 89.3693 31.9878V36.091H87.9865V28.6734H87.9851ZM98.8568 28.4306C99.8786 28.4306 100.686 28.7063 101.278 29.2564C101.869 29.8065 102.165 30.5611 102.165 31.52V36.0924H100.842V35.0635H100.782C100.211 35.9113 99.4481 36.3352 98.4958 36.3352C97.6838 36.3352 97.0053 36.0924 96.459 35.6081C95.9127 35.1238 95.6389 34.5175 95.6389 33.7904C95.6389 33.0235 95.9277 32.4131 96.504 31.9576C97.0803 31.5035 97.85 31.2758 98.8118 31.2758C99.6333 31.2758 100.31 31.4267 100.842 31.7299V31.4116C100.842 30.9273 100.651 30.5158 100.271 30.1769C99.8895 29.8395 99.444 29.6693 98.9317 29.6693C98.1606 29.6693 97.5489 29.9972 97.0966 30.653L95.8787 29.8806C96.5503 28.9148 97.5435 28.4306 98.8568 28.4306ZM97.068 33.8219C97.068 34.1855 97.2206 34.4887 97.5271 34.7301C97.8323 34.9729 98.192 35.0937 98.602 35.0937C99.1838 35.0937 99.7028 34.8769 100.158 34.442C100.614 34.0085 100.842 33.4982 100.842 32.9138C100.411 32.5708 99.8091 32.3993 99.0366 32.3993C98.4753 32.3993 98.0067 32.5351 97.6307 32.8081C97.256 33.0798 97.068 33.4173 97.068 33.8219ZM106.917 39.6057C106.505 39.6057 106.12 39.5522 105.759 39.4466C105.398 39.3409 105.069 39.1914 104.774 38.9993C104.478 38.8073 104.225 38.5795 104.015 38.3175C103.804 38.0555 103.644 37.7619 103.534 37.4395L104.842 36.8949C104.993 37.3284 105.253 37.6769 105.624 37.9389C105.994 38.2009 106.426 38.3326 106.917 38.3326C107.669 38.3326 108.256 38.1049 108.677 37.6508C109.098 37.1967 109.308 36.5711 109.308 35.7727V35.0607H109.248C108.987 35.4545 108.633 35.7645 108.188 35.9922C107.742 36.22 107.257 36.3338 106.737 36.3338C105.775 36.3338 104.947 35.9552 104.256 35.1979C103.575 34.4201 103.234 33.4817 103.234 32.3815C103.234 31.2813 103.575 30.347 104.256 29.5802C104.948 28.8133 105.775 28.4292 106.737 28.4292C107.257 28.4292 107.742 28.5431 108.188 28.7694C108.633 28.9971 108.987 29.3072 109.248 29.7009H109.308V28.672H110.632V35.7727C110.632 36.9635 110.295 37.8977 109.625 38.5741C108.941 39.2627 108.039 39.6057 106.917 39.6057ZM106.962 35.0635C107.643 35.0635 108.199 34.8165 108.63 34.3213C109.081 33.8274 109.308 33.1813 109.308 32.3829C109.308 31.605 109.083 30.9644 108.63 30.4595C108.189 29.9547 107.633 29.7023 106.962 29.7023C106.299 29.7023 105.744 29.9547 105.293 30.4595C104.842 30.9644 104.616 31.605 104.616 32.3829C104.616 33.1703 104.84 33.811 105.293 34.3062C105.744 34.8111 106.301 35.0635 106.962 35.0635ZM115.548 36.3352C114.465 36.3352 113.573 35.962 112.871 35.2144C112.17 34.4681 111.82 33.5229 111.82 32.3829C111.82 31.2525 112.16 30.3114 112.841 29.5596C113.523 28.8078 114.396 28.4319 115.459 28.4319C116.551 28.4319 117.42 28.7872 118.068 29.4992C118.713 30.2112 119.038 31.2086 119.038 32.4899L119.023 32.6408H113.234C113.254 33.3679 113.494 33.9523 113.956 34.3968C114.418 34.8412 114.968 35.0635 115.61 35.0635C116.491 35.0635 117.183 34.619 117.685 33.73L118.918 34.3364C118.587 34.962 118.127 35.4517 117.542 35.8043C116.954 36.1582 116.29 36.3352 115.548 36.3352ZM113.337 31.4898H117.562C117.521 30.9753 117.314 30.5487 116.938 30.2099C116.562 29.8724 116.058 29.7023 115.427 29.7023C114.905 29.7023 114.457 29.8641 114.081 30.1865C113.705 30.5103 113.457 30.9452 113.337 31.4898ZM121.683 36.0924H120.3V28.6734H121.623V29.8847H121.683C121.824 29.491 122.112 29.1549 122.548 28.8778C122.984 28.6007 123.413 28.4607 123.834 28.4607C124.235 28.4607 124.576 28.5211 124.856 28.6418L124.435 29.9904C124.265 29.9204 123.994 29.8847 123.623 29.8847C123.101 29.8847 122.648 30.0974 122.262 30.5213C121.877 30.9452 121.683 31.439 121.683 32.0042V36.0924Z" fill="#757575"/>
<path d="M36.6139 17.3718L20.602 1.24839C19.5952 0.234587 17.9481 0.234587 16.9413 1.24839L0.929408 17.3718C-0.0773806 18.3856 -0.0773806 20.0442 0.929408 21.058L16.9413 37.1814C17.9481 38.1952 19.5952 38.1952 20.602 37.1814L36.6139 21.058C37.6206 20.0442 37.6206 18.3842 36.6139 17.3718ZM18.7723 23.5973L14.4196 19.2142L18.7723 14.8311L23.1251 19.2142L18.7723 23.5973Z" fill="#4285F4"/>
<path fill-rule="evenodd" clip-rule="evenodd" d="M6.75897 11.4967L0.929408 17.3669C-0.0773807 18.3807 -0.0773807 20.0392 0.929408 21.053L16.9413 37.1765C17.9481 38.1903 19.5952 38.1903 20.602 37.1765L26.4315 31.3063L6.75897 11.4967Z" fill="url(#paint0_linear)"/>
<path fill-rule="evenodd" clip-rule="evenodd" d="M36.6135 17.3667L20.6016 1.24326C19.5948 0.22946 17.9477 0.22946 16.9409 1.24326L11.1113 7.11343L30.7839 26.923L36.6135 21.0528C37.6202 20.039 37.6202 18.3791 36.6135 17.3667Z" fill="url(#paint1_linear)"/>
<path fill-rule="evenodd" clip-rule="evenodd" d="M20.602 1.24839C19.5952 0.234587 17.9481 0.234587 16.9413 1.24839L0.929408 17.3718C-0.0773807 18.3856 -0.0773807 20.0442 0.929408 21.058L11.1117 31.3112L18.771 23.5986L14.4182 19.2156L26.4315 7.11856L20.602 1.24839Z" fill="#4FC3F7"/>
<path opacity="0.15" fill-rule="evenodd" clip-rule="evenodd" d="M36.6139 20.8155L20.602 36.9389C19.5952 37.9527 17.9481 37.9527 16.9413 36.9389L0.929442 20.8155C0.455338 20.3381 0.204663 19.7194 0.177416 19.0911C0.146081 19.7976 0.396757 20.5164 0.929442 21.0528L16.9413 37.1762C17.9481 38.19 19.5952 38.19 20.602 37.1762L36.6139 21.0528C37.1466 20.5164 37.3972 19.7976 37.3659 19.0911C37.3387 19.718 37.088 20.3381 36.6139 20.8155Z" fill="black"/>
<path opacity="0.15" fill-rule="evenodd" clip-rule="evenodd" d="M0.929442 17.6078L16.9413 1.48435C17.9481 0.470546 19.5952 0.470546 20.602 1.48435L36.6139 17.6078C37.088 18.0852 37.3387 18.7039 37.3659 19.3322C37.3972 18.6257 37.1466 17.9068 36.6139 17.3704L20.602 1.24839C19.5952 0.234587 17.9481 0.234587 16.9413 1.24839L0.929442 17.3718C0.396757 17.9082 0.146081 18.627 0.177416 19.3336C0.206026 18.7052 0.456701 18.0852 0.929442 17.6078Z" fill="white"/>
<defs>
<linearGradient id="paint0_linear" x1="14.369" y1="26.872" x2="21.8411" y2="34.2923" gradientUnits="userSpaceOnUse">
<stop stop-color="#3564CD"/>
<stop offset="1" stop-color="#4285F4"/>
</linearGradient>
<linearGradient id="paint1_linear" x1="21.3341" y1="9.69293" x2="25.8128" y2="14.1407" gradientUnits="userSpaceOnUse">
<stop stop-color="#3564CD"/>
<stop offset="1" stop-color="#4285F4"/>
</linearGradient>
</defs>
</svg>
