<?xml version="1.0" encoding="UTF-8"?>
<svg width="134px" height="42px" viewBox="0 0 134 42" version="1.1" xmlns="http://www.w3.org/2000/svg" xmlns:xlink="http://www.w3.org/1999/xlink">
    <!-- Generator: Sketch 52.4 (67378) - http://www.bohemiancoding.com/sketch -->
    <title>Artboard</title>
    <desc>Created with Sketch.</desc>
    <defs>
        <linearGradient x1="54.0601611%" y1="58.1515832%" x2="82.3210927%" y2="86.4119959%" id="linearGradient-1">
            <stop stop-color="#3564CD" offset="0%"></stop>
            <stop stop-color="#4285F4" offset="100%"></stop>
        </linearGradient>
        <linearGradient x1="38.9332365%" y1="34.8335128%" x2="55.872777%" y2="51.7730533%" id="linearGradient-2">
            <stop stop-color="#3564CD" offset="0%"></stop>
            <stop stop-color="#4285F4" offset="100%"></stop>
        </linearGradient>
    </defs>
    <g id="Artboard" stroke="none" stroke-width="1" fill="none" fill-rule="evenodd">
        <path d="M59.8805217,2.4056 C59.3095652,2.98053333 58.7721087,3.52173333 58.2171739,4.08053333 C58.0088913,3.91773333 57.7816739,3.72413333 57.5398913,3.55253333 C53.8519783,0.914 48.6288913,3.1976 47.9588913,7.70613333 C47.4709565,10.9826667 49.4751304,14.158 52.6853043,14.8194667 C54.9982609,15.2946667 57.0694348,14.7901333 58.6483043,12.8922667 C59.2483913,12.1721333 59.4916304,11.2936 59.6037826,10.3153333 C57.7277826,10.3153333 55.8954783,10.3153333 54.0413261,10.3153333 C54.0413261,9.50426667 54.0413261,8.74013333 54.0413261,7.9452 L61.9021739,7.9452 C62.6522826,12.2630667 60.4223478,16.2538667 56.0178261,17.1602667 C52.7625,17.8305333 49.8902391,16.9710667 47.5816522,14.5056 C44.0364783,10.7186667 44.7341522,4.58066667 49.0192391,1.64586667 C52.2396087,-0.56 56.2202826,-0.479333333 59.2469348,1.8556 C59.4726957,2.02866667 59.6780652,2.22813333 59.8805217,2.4056 Z M95.3526522,7.47146667 C95.3526522,7.1224 95.3526522,6.86573333 95.3526522,6.5856 L97.6845435,6.5856 L97.6845435,7.00653333 C97.6845435,10.2302667 97.6903696,13.4525333 97.6816304,16.6762667 C97.6787174,17.9112 97.4558696,19.1021333 96.7916957,20.1654667 C95.9090435,21.5793333 94.5588478,22.1806667 92.9683261,22.3478667 C90.7398478,22.5810667 88.5841957,21.3652 87.6243478,19.3324 C87.5908478,19.2605333 87.566087,19.1828 87.5151087,19.0522667 C88.2186087,18.7545333 88.911913,18.4612 89.5455,18.1942667 C89.9125435,18.6386667 90.2082174,19.1109333 90.6087609,19.4614667 C91.5438478,20.2784 92.6362391,20.3473333 93.7431957,19.8809333 C94.7787826,19.4438667 95.2157391,18.5492 95.3133261,17.4726667 C95.3526522,17.0414667 95.3191522,16.6044 95.3191522,16.094 C94.7394565,16.7144 94.0883913,17.1206667 93.3106087,17.2570667 C91.1083478,17.6457333 89.375087,16.8156 88.0948043,15.0468 C85.8168043,11.9008 87.4597609,7.33066667 91.1971957,6.37 C92.7207174,5.9784 94.1087826,6.27026667 95.3526522,7.47146667 Z M95.544913,11.7585333 C95.4939348,11.4212 95.4808261,11.0736 95.3861522,10.7509333 C95.0482391,9.59813333 94.3622174,8.74746667 93.1518478,8.4952 C92.0565435,8.2664 91.1083478,8.62426667 90.3626087,9.4632 C89.2775,10.6849333 89.2396304,12.7250667 90.2606522,14.0113333 C91.323913,15.3518667 93.2421522,15.5308 94.4816522,14.3853333 C95.237587,13.6857333 95.5259783,12.7793333 95.544913,11.7585333 Z M68.3938913,17.3538667 C65.2405217,17.3450667 62.8547391,14.928 62.8605652,11.7497333 C62.8663913,8.61253333 65.2754783,6.21893333 68.4215652,6.2204 C71.6011522,6.22186667 73.9854783,8.63306667 73.9752826,11.8392 C73.9665435,14.9646667 71.5385217,17.3626667 68.3938913,17.3538667 Z M68.4303043,8.44386667 C67.7923478,8.4248 67.2345,8.60813333 66.7276304,8.9572 C65.1866304,10.0176 64.8356087,12.2909333 65.9673261,13.8749333 C66.9213478,15.2096 68.7332609,15.5425333 70.0892826,14.6288 C70.9209565,14.0685333 71.3651957,13.2574667 71.4933696,12.2806667 C71.7817609,10.0674667 70.2043478,8.38813333 68.4303043,8.44386667 Z M80.4932174,17.3538667 C77.3398478,17.3450667 74.9540652,14.928 74.9598913,11.7497333 C74.9657174,8.61253333 77.3748043,6.21893333 80.5208913,6.2204 C83.7004783,6.22186667 86.0848043,8.63306667 86.0746087,11.8392 C86.0658696,14.9646667 83.6393043,17.3626667 80.4932174,17.3538667 Z M80.531087,8.44386667 C79.8931304,8.4248 79.3352826,8.60813333 78.828413,8.9572 C77.287413,10.0176 76.9363913,12.2909333 78.0681087,13.8749333 C79.0221304,15.2096 80.8340435,15.5425333 82.1900652,14.6288 C83.0217391,14.0685333 83.4659783,13.2574667 83.5941522,12.2806667 C83.8825435,10.0674667 82.3051304,8.38813333 80.531087,8.44386667 Z M113.053761,14.8825333 C112.074978,16.2846667 110.787413,17.1089333 109.134261,17.3304 C106.672739,17.6604 104.355413,16.3374667 103.383913,14.0597333 C102.23763,11.3757333 103.293609,8.0948 105.712891,6.81733333 C108.394348,5.402 111.482174,6.51226667 112.728957,9.3444 C112.877522,9.68026667 113.005696,10.0249333 113.160087,10.4048 C111.91913,10.9210667 110.692739,11.43 109.469261,11.9404 C108.24287,12.4522667 107.017935,12.9656 105.793,13.4789333 C106.548935,15.3797333 109.623652,15.9576 111.180674,13.6241333 C111.796783,14.0362667 112.414348,14.4513333 113.053761,14.8825333 Z M105.398283,11.584 C107.019391,10.9064 108.628848,10.2332 110.236848,9.56146667 C109.903304,8.67706667 108.786152,8.20626667 107.676283,8.4556 C106.304239,8.7636 105.268652,10.1642667 105.398283,11.584 Z M101.751152,0.677866667 L101.751152,16.9886667 C100.958804,16.9886667 100.175196,16.9886667 99.361,16.9886667 C99.361,11.5649333 99.361,6.13973333 99.361,0.677866667 L101.751152,0.677866667 Z M50.0038478,28.0326667 L50.0038478,38.1981333 L48.5254783,38.1981333 L48.5254783,28.0326667 L45.3109348,28.0326667 L45.3109348,26.6070667 L53.2198478,26.6070667 L53.2198478,28.0326667 L50.0038478,28.0326667 Z M56.2901957,30.0068 C57.382587,30.0068 58.2463043,30.3016 58.8784348,30.8897333 C59.5105652,31.4778667 59.8266304,32.2845333 59.8266304,33.3097333 L59.8266304,38.1981333 L58.4123478,38.1981333 L58.4123478,37.0981333 L58.3482609,37.0981333 C57.7379783,38.0045333 56.9223261,38.4577333 55.9042174,38.4577333 C55.0361304,38.4577333 54.3107826,38.1981333 53.7267174,37.6804 C53.1426522,37.1626667 52.8498913,36.5144 52.8498913,35.7370667 C52.8498913,34.9172 53.1586739,34.2645333 53.7747826,33.7776 C54.3908913,33.2921333 55.2138261,33.0486667 56.2421304,33.0486667 C57.120413,33.0486667 57.8443043,33.21 58.4123478,33.5341333 L58.4123478,33.1938667 C58.4123478,32.6761333 58.2084348,32.2361333 57.8020652,31.8738667 C57.3942391,31.5130667 56.9179565,31.3312 56.3703043,31.3312 C55.545913,31.3312 54.8919348,31.6817333 54.4083696,32.3828 L53.1062391,31.5570667 C53.8243043,30.5245333 54.8861087,30.0068 56.2901957,30.0068 Z M54.3777826,35.7708 C54.3777826,36.1594667 54.540913,36.4836 54.8686304,36.7417333 C55.1948913,37.0013333 55.579413,37.1304 56.0178261,37.1304 C56.6397609,37.1304 57.1946957,36.8986667 57.6811739,36.4337333 C58.1691087,35.9702667 58.4123478,35.4246667 58.4123478,34.7998667 C57.952087,34.4332 57.3083043,34.2498667 56.4824565,34.2498667 C55.8823696,34.2498667 55.3813261,34.3950667 54.9793261,34.6869333 C54.5787826,34.9773333 54.3777826,35.3381333 54.3777826,35.7708 Z M64.9069783,41.9542667 C64.4671087,41.9542667 64.054913,41.8970667 63.6689348,41.7841333 C63.2829565,41.6712 62.9319348,41.5113333 62.6158696,41.306 C62.2998043,41.1006667 62.0288913,40.8572 61.804587,40.5770667 C61.5788261,40.2969333 61.408413,39.9830667 61.2904348,39.6384 L62.6886957,39.0561333 C62.8503696,39.5196 63.1285652,39.8921333 63.5247391,40.1722667 C63.920913,40.4524 64.3826304,40.5932 64.9069783,40.5932 C65.7109783,40.5932 66.3387391,40.3497333 66.7888043,39.8642667 C67.2388696,39.3788 67.4631739,38.71 67.4631739,37.8564 L67.4631739,37.0952 L67.399087,37.0952 C67.1208913,37.5161333 66.7421957,37.8476 66.265913,38.0910667 C65.7896304,38.3345333 65.2711087,38.4562667 64.7147174,38.4562667 C63.686413,38.4562667 62.8008478,38.0514667 62.0623913,37.2418667 C61.3341304,36.4102667 60.97,35.4070667 60.97,34.2308 C60.97,33.0545333 61.3341304,32.0557333 62.0623913,31.2358667 C62.8023043,30.416 63.686413,30.0053333 64.7147174,30.0053333 C65.2711087,30.0053333 65.7896304,30.1270667 66.265913,30.3690667 C66.7421957,30.6125333 67.1208913,30.944 67.399087,31.3649333 L67.4631739,31.3649333 L67.4631739,30.2649333 L68.878913,30.2649333 L68.878913,37.8564 C68.878913,39.1294667 68.5191522,40.1282667 67.8025435,40.8513333 C67.0713696,41.5876 66.1071522,41.9542667 64.9069783,41.9542667 Z M64.9550435,37.0981333 C65.6833043,37.0981333 66.2775652,36.8341333 66.7392826,36.3046667 C67.2213913,35.7766667 67.4631739,35.0858667 67.4631739,34.2322667 C67.4631739,33.4006667 67.2228478,32.7157333 66.7392826,32.176 C66.2673696,31.6362667 65.6731087,31.3664 64.9550435,31.3664 C64.2471739,31.3664 63.652913,31.6362667 63.1708043,32.176 C62.6886957,32.7157333 62.446913,33.4006667 62.446913,34.2322667 C62.446913,35.0741333 62.6872391,35.7590667 63.1708043,36.2885333 C63.652913,36.8282667 64.2486304,37.0981333 64.9550435,37.0981333 Z M74.6656739,38.1981333 L73.1873043,38.1981333 L73.1873043,26.6070667 L74.6656739,26.6070667 L78.6681957,33.6646667 L78.7322826,33.6646667 L82.7348043,26.6070667 L84.2146304,26.6070667 L84.2146304,38.1981333 L82.7348043,38.1981333 L82.7348043,31.318 L82.7988913,29.3761333 L82.7348043,29.3761333 L79.1342826,35.7385333 L78.2661957,35.7385333 L74.6656739,29.3761333 L74.601587,29.3761333 L74.6656739,31.318 L74.6656739,38.1981333 Z M89.0211522,30.0068 C90.1135435,30.0068 90.9772609,30.3016 91.6093913,30.8897333 C92.2415217,31.4778667 92.557587,32.2845333 92.557587,33.3097333 L92.557587,38.1981333 L91.1433043,38.1981333 L91.1433043,37.0981333 L91.0792174,37.0981333 C90.4689348,38.0045333 89.6532826,38.4577333 88.6351739,38.4577333 C87.767087,38.4577333 87.0417391,38.1981333 86.4576739,37.6804 C85.8736087,37.1626667 85.5808478,36.5144 85.5808478,35.7370667 C85.5808478,34.9172 85.8896304,34.2645333 86.5057391,33.7776 C87.1218478,33.2921333 87.9447826,33.0486667 88.973087,33.0486667 C89.8513696,33.0486667 90.5752609,33.21 91.1433043,33.5341333 L91.1433043,33.1938667 C91.1433043,32.6761333 90.9393913,32.2361333 90.5330217,31.8738667 C90.1251957,31.5130667 89.648913,31.3312 89.1012609,31.3312 C88.2768696,31.3312 87.6228913,31.6817333 87.1393261,32.3828 L85.8371957,31.5570667 C86.5552609,30.5245333 87.6170652,30.0068 89.0211522,30.0068 Z M87.1072826,35.7708 C87.1072826,36.1594667 87.270413,36.4836 87.5981304,36.7417333 C87.9243913,37.0013333 88.308913,37.1304 88.7473261,37.1304 C89.3692609,37.1304 89.9241957,36.8986667 90.4106739,36.4337333 C90.8986087,35.9702667 91.1418478,35.4246667 91.1418478,34.7998667 C90.681587,34.4332 90.0378043,34.2498667 89.2119565,34.2498667 C88.6118696,34.2498667 88.1108261,34.3950667 87.7088261,34.6869333 C87.3097391,34.9773333 87.1072826,35.3381333 87.1072826,35.7708 Z M94.2296739,30.2664 L95.6439565,30.2664 L95.6439565,31.3664 L95.7080435,31.3664 C95.9323478,30.9777333 96.279,30.6536 96.745087,30.3954667 C97.2111739,30.1373333 97.6961957,30.0068 98.2001522,30.0068 C99.1643696,30.0068 99.9071957,30.2854667 100.427174,30.8398667 C100.947152,31.3957333 101.206413,32.1862667 101.206413,33.2114667 L101.206413,38.1981333 L99.7280435,38.1981333 L99.7280435,33.3097333 C99.696,32.0146667 99.0478478,31.3664 97.7821304,31.3664 C97.1922391,31.3664 96.6999348,31.6069333 96.3037609,32.0865333 C95.907587,32.5661333 95.7095,33.1410667 95.7095,33.8098667 L95.7095,38.1966667 L94.2311304,38.1966667 L94.2311304,30.2664 L94.2296739,30.2664 Z M105.852717,30.0068 C106.945109,30.0068 107.808826,30.3016 108.440957,30.8897333 C109.073087,31.4778667 109.389152,32.2845333 109.389152,33.3097333 L109.389152,38.1981333 L107.97487,38.1981333 L107.97487,37.0981333 L107.910783,37.0981333 C107.3005,38.0045333 106.484848,38.4577333 105.466739,38.4577333 C104.598652,38.4577333 103.873304,38.1981333 103.289239,37.6804 C102.705174,37.1626667 102.412413,36.5144 102.412413,35.7370667 C102.412413,34.9172 102.721196,34.2645333 103.337304,33.7776 C103.953413,33.2921333 104.776348,33.0486667 105.804652,33.0486667 C106.682935,33.0486667 107.406826,33.21 107.97487,33.5341333 L107.97487,33.1938667 C107.97487,32.6761333 107.770957,32.2361333 107.364587,31.8738667 C106.956761,31.5130667 106.480478,31.3312 105.932826,31.3312 C105.108435,31.3312 104.454457,31.6817333 103.970891,32.3828 L102.668761,31.5570667 C103.386826,30.5245333 104.44863,30.0068 105.852717,30.0068 Z M103.940304,35.7708 C103.940304,36.1594667 104.103435,36.4836 104.431152,36.7417333 C104.757413,37.0013333 105.141935,37.1304 105.580348,37.1304 C106.202283,37.1304 106.757217,36.8986667 107.243696,36.4337333 C107.73163,35.9702667 107.97487,35.4246667 107.97487,34.7998667 C107.514609,34.4332 106.870826,34.2498667 106.044978,34.2498667 C105.444891,34.2498667 104.943848,34.3950667 104.541848,34.6869333 C104.141304,34.9773333 103.940304,35.3381333 103.940304,35.7708 Z M114.4695,41.9542667 C114.02963,41.9542667 113.617435,41.8970667 113.231457,41.7841333 C112.845478,41.6712 112.494457,41.5113333 112.178391,41.306 C111.862326,41.1006667 111.591413,40.8572 111.367109,40.5770667 C111.141348,40.2969333 110.970935,39.9830667 110.852957,39.6384 L112.251217,39.0561333 C112.412891,39.5196 112.691087,39.8921333 113.087261,40.1722667 C113.483435,40.4524 113.945152,40.5932 114.4695,40.5932 C115.2735,40.5932 115.901261,40.3497333 116.351326,39.8642667 C116.801391,39.3788 117.025696,38.71 117.025696,37.8564 L117.025696,37.0952 L116.961609,37.0952 C116.683413,37.5161333 116.304717,37.8476 115.828435,38.0910667 C115.352152,38.3345333 114.83363,38.4562667 114.277239,38.4562667 C113.248935,38.4562667 112.36337,38.0514667 111.624913,37.2418667 C110.896652,36.4102667 110.532522,35.4070667 110.532522,34.2308 C110.532522,33.0545333 110.896652,32.0557333 111.624913,31.2358667 C112.364826,30.416 113.248935,30.0053333 114.277239,30.0053333 C114.83363,30.0053333 115.352152,30.1270667 115.828435,30.3690667 C116.304717,30.6125333 116.683413,30.944 116.961609,31.3649333 L117.025696,31.3649333 L117.025696,30.2649333 L118.441435,30.2649333 L118.441435,37.8564 C118.441435,39.1294667 118.081674,40.1282667 117.365065,40.8513333 C116.633891,41.5876 115.669674,41.9542667 114.4695,41.9542667 Z M114.517565,37.0981333 C115.245826,37.0981333 115.840087,36.8341333 116.301804,36.3046667 C116.783913,35.7766667 117.025696,35.0858667 117.025696,34.2322667 C117.025696,33.4006667 116.78537,32.7157333 116.301804,32.176 C115.829891,31.6362667 115.23563,31.3664 114.517565,31.3664 C113.809696,31.3664 113.215435,31.6362667 112.733326,32.176 C112.251217,32.7157333 112.009435,33.4006667 112.009435,34.2322667 C112.009435,35.0741333 112.249761,35.7590667 112.733326,36.2885333 C113.215435,36.8282667 113.811152,37.0981333 114.517565,37.0981333 Z M123.698022,38.4577333 C122.540087,38.4577333 121.586065,38.0588 120.835957,37.2594667 C120.085848,36.4616 119.711522,35.4510667 119.711522,34.2322667 C119.711522,33.0237333 120.075652,32.0176 120.803913,31.2138667 C121.532174,30.4101333 122.465804,30.0082667 123.601891,30.0082667 C124.770022,30.0082667 125.699283,30.3881333 126.39113,31.1493333 C127.081522,31.9105333 127.428174,32.9768 127.428174,34.3466667 L127.412152,34.508 L121.223391,34.508 C121.245239,35.2853333 121.501587,35.9101333 121.995348,36.3853333 C122.489109,36.8605333 123.077543,37.0981333 123.763565,37.0981333 C124.705935,37.0981333 125.445848,36.6229333 125.981848,35.6725333 L127.3,36.3208 C126.946065,36.9896 126.455217,37.5132 125.828913,37.8901333 C125.201152,38.2685333 124.49037,38.4577333 123.698022,38.4577333 Z M121.334087,33.2774667 L125.850761,33.2774667 C125.807065,32.7274667 125.585674,32.2713333 125.183674,31.9090667 C124.781674,31.5482667 124.242761,31.3664 123.568391,31.3664 C123.010543,31.3664 122.531348,31.5394667 122.129348,31.8841333 C121.727348,32.2302667 121.462261,32.6952 121.334087,33.2774667 Z M130.256739,38.1981333 L128.77837,38.1981333 L128.77837,30.2664 L130.192652,30.2664 L130.192652,31.5614667 L130.256739,31.5614667 C130.406761,31.1405333 130.715543,30.7812 131.18163,30.4849333 C131.647717,30.1886667 132.106522,30.0390667 132.556587,30.0390667 C132.984804,30.0390667 133.348935,30.1036 133.648978,30.2326667 L133.198913,31.6744 C133.016848,31.5996 132.727,31.5614667 132.330826,31.5614667 C131.772978,31.5614667 131.287957,31.7888 130.875761,32.242 C130.463565,32.6952 130.256739,33.2232 130.256739,33.8274667 L130.256739,38.1981333 Z" id="Combined-Shape" fill="#757575"></path>
        <path d="M39.3086087,18.1781333 L22.1901087,0.9404 C21.1137391,-0.143466667 19.3528043,-0.143466667 18.2764348,0.9404 L1.15793478,18.1781333 C0.0815652174,19.262 0.0815652174,21.0352 1.15793478,22.1190667 L18.2764348,39.3568 C19.3528043,40.4406667 21.1137391,40.4406667 22.1901087,39.3568 L39.3086087,22.1190667 C40.3849783,21.0352 40.3849783,19.2605333 39.3086087,18.1781333 Z M20.234,24.8338667 L15.580413,20.1478667 L20.234,15.4618667 L24.887587,20.1478667 L20.234,24.8338667 Z" id="Shape" fill="#4285F4" fill-rule="nonzero"></path>
        <path d="M7.3903913,11.9022667 L1.15793478,18.1781333 C0.0815652174,19.262 0.0815652174,21.0352 1.15793478,22.1190667 L18.2764348,39.3568 C19.3528043,40.4406667 21.1137391,40.4406667 22.1901087,39.3568 L28.4225652,33.0809333 L7.3903913,11.9022667 Z" id="Path" fill="url(#linearGradient-1)"></path>
        <path d="M39.3086087,18.1781333 L22.1901087,0.9404 C21.1137391,-0.143466667 19.3528043,-0.143466667 18.2764348,0.9404 L12.0439783,7.21626667 L33.0761522,28.3949333 L39.3086087,22.1190667 C40.3849783,21.0352 40.3849783,19.2605333 39.3086087,18.1781333 Z" id="Path" fill="url(#linearGradient-2)"></path>
        <path d="M22.1901087,0.9404 C21.1137391,-0.143466667 19.3528043,-0.143466667 18.2764348,0.9404 L1.15793478,18.1781333 C0.0815652174,19.262 0.0815652174,21.0352 1.15793478,22.1190667 L12.0439783,33.0809333 L20.2325435,24.8353333 L15.5789565,20.1493333 L28.4225652,7.21626667 L22.1901087,0.9404 Z" id="Path" fill="#4FC3F7"></path>
        <path d="M39.3086087,21.8653333 L22.1901087,39.1030667 C21.1137391,40.1869333 19.3528043,40.1869333 18.2764348,39.1030667 L1.15793478,21.8653333 C0.651065217,21.3549333 0.383065217,20.6934667 0.353934783,20.0217333 C0.320434783,20.7770667 0.588434783,21.5456 1.15793478,22.1190667 L18.2764348,39.3568 C19.3528043,40.4406667 21.1137391,40.4406667 22.1901087,39.3568 L39.3086087,22.1190667 C39.8781087,21.5456 40.1461087,20.7770667 40.1126087,20.0217333 C40.0834783,20.692 39.8154783,21.3549333 39.3086087,21.8653333 Z" id="Path" fill="#000000" opacity="0.15"></path>
        <path d="M1.15793478,18.4304 L18.2764348,1.19266667 C19.3528043,0.1088 21.1137391,0.1088 22.1901087,1.19266667 L39.3086087,18.4304 C39.8154783,18.9408 40.0834783,19.6022667 40.1126087,20.274 C40.1461087,19.5186667 39.8781087,18.7501333 39.3086087,18.1766667 L22.1901087,0.9404 C21.1137391,-0.143466667 19.3528043,-0.143466667 18.2764348,0.9404 L1.15793478,18.1781333 C0.588434783,18.7516 0.320434783,19.5201333 0.353934783,20.2754667 C0.384521739,19.6037333 0.652521739,18.9408 1.15793478,18.4304 Z" id="Path" fill="#FFFFFF" opacity="0.15"></path>
    </g>
</svg>