<?xml version="1.0" encoding="UTF-8"?>
<svg width="110px" height="48px" viewBox="0 0 110 48" version="1.1" xmlns="http://www.w3.org/2000/svg" xmlns:xlink="http://www.w3.org/1999/xlink">
    <!-- Generator: Sketch 52.4 (67378) - http://www.bohemiancoding.com/sketch -->
    <title>Artboard</title>
    <desc>Created with Sketch.</desc>
    <g id="Artboard" stroke="none" stroke-width="1" fill="none" fill-rule="evenodd">
        <path d="M45.96436,47.8113636 L0.09076,47.8272727 L0.09076,47.7181818 C0.09076,47.6568182 0.16372,47.2659091 0.25264,46.8454545 C0.34156,46.4272727 0.48064,45.7590909 0.56044,45.3636364 C0.64024,44.9681818 0.77932,44.2954545 0.86596,43.8704545 C0.9526,43.4431818 1.09852,42.7340909 1.18972,42.2931818 C1.28092,41.8522727 1.42228,41.1545455 1.50436,40.7431818 C1.58644,40.3318182 1.72552,39.6590909 1.81216,39.25 C1.8988,38.8386364 2.04472,38.1295455 2.1382,37.6727273 C2.23168,37.2159091 2.37304,36.5181818 2.45284,36.1227273 C2.53264,35.7272727 2.66032,35.1159091 2.73556,34.7659091 C2.8108,34.4159091 2.90656,33.9431818 2.94988,33.7136364 C2.99092,33.4863636 3.12772,32.8136364 3.25312,32.2181818 C3.37852,31.6227273 3.51532,30.9522727 3.55864,30.725 C3.60196,30.4977273 3.74104,29.825 3.86416,29.2295455 C3.98956,28.6363636 4.12636,27.9636364 4.16968,27.7363636 C4.213,27.5090909 4.3498,26.8363636 4.47748,26.2431818 C4.60288,25.65 4.73968,24.9886364 4.78072,24.7772727 C4.82176,24.5659091 4.9312,24.0159091 5.02468,23.5590909 C5.11816,23.1022727 5.29828,22.2431818 5.4214,21.65 C5.54452,21.0568182 5.75656,20.0227273 5.89336,19.3522727 C6.03016,18.6818182 6.18976,17.8863636 6.25132,17.5818182 C6.31288,17.2772727 6.42688,16.7295455 6.50212,16.3636364 C6.57736,15.9977273 6.71416,15.3386364 6.80536,14.8977273 C6.89656,14.4568182 7.04704,13.7340909 7.13824,13.2931818 C7.22944,12.8522727 7.36852,12.1659091 7.44832,11.7704545 C7.52812,11.375 7.66492,10.7159091 7.75156,10.3045455 C7.8382,9.89318182 7.98868,9.17045455 8.08444,8.7 C8.1802,8.22727273 8.34208,7.50681818 8.4424,7.09545455 C8.54272,6.68409091 8.68408,6.18636364 8.75932,5.98863636 C8.83228,5.79090909 9.0352,5.36136364 9.20848,5.03636364 L9.5254,4.44318182 L9.81268,4.06818182 C9.97,3.86136364 10.25272,3.53636364 10.43968,3.34318182 C10.62664,3.15 10.94128,2.86136364 11.13964,2.7 C11.338,2.53863636 11.62528,2.32045455 11.77804,2.21590909 C11.9308,2.11136364 12.22948,1.92727273 12.4438,1.80909091 C12.65812,1.68863636 12.9568,1.53409091 13.10956,1.46136364 C13.26232,1.38863636 13.57468,1.25909091 13.80268,1.17045455 C14.03068,1.08181818 14.46844,0.934090909 14.77396,0.840909091 C15.07948,0.747727273 15.65176,0.609090909 16.04848,0.531818182 C16.44292,0.454545455 17.06764,0.35 17.437,0.3 L18.10732,0.211363636 L64.00828,0.193181818 L109.90924,0.175 L109.90924,0.284090909 C109.90924,0.345454545 109.83628,0.736363636 109.74508,1.15681818 C109.65616,1.575 109.50568,2.29318182 109.40992,2.75 C109.31644,3.20681818 109.17964,3.86590909 109.10668,4.21590909 C109.03372,4.56590909 108.89464,5.23863636 108.7966,5.71136364 C108.70084,6.18409091 108.55036,6.90454545 108.466,7.31590909 C108.38164,7.72727273 108.24256,8.4 108.16048,8.81136364 C108.0784,9.22272727 107.93932,9.89545455 107.85268,10.3045455 C107.76604,10.7159091 107.6338,11.3636364 107.55628,11.7431818 C107.47876,12.1227273 107.33968,12.8090909 107.2462,13.2659091 C107.15272,13.7227273 107.00224,14.4454545 106.91332,14.8704545 C106.8244,15.2954545 106.68532,15.9568182 106.6078,16.3363636 C106.53028,16.7159091 106.3912,17.4022727 106.29772,17.8590909 C106.20424,18.3159091 106.05604,19.0386364 105.96484,19.4636364 C105.87364,19.8886364 105.7414,20.5363636 105.66616,20.9022727 C105.5932,21.2681818 105.45412,21.9522727 105.35608,22.425 C105.26032,22.8977273 105.11896,23.5818182 105.046,23.9477273 C104.97076,24.3136364 104.83624,24.9613636 104.74732,25.3863636 C104.6584,25.8136364 104.50564,26.5477273 104.40988,27.0181818 C104.31412,27.4909091 104.17504,28.1613636 104.10208,28.5113636 C104.02912,28.8613636 103.8946,29.5204545 103.80112,29.9772727 C103.70764,30.4340909 103.55944,31.1568182 103.47052,31.5818182 C103.3816,32.0068182 103.2448,32.6795455 103.16272,33.075 C103.08292,33.4704545 102.94156,34.1545455 102.85036,34.5977273 C102.75916,35.0386364 102.61096,35.7613636 102.51976,36.2022727 C102.42856,36.6431818 102.29404,37.3045455 102.2188,37.6681818 C102.14356,38.0340909 102.00676,38.7068182 101.91328,39.1636364 C101.8198,39.6204545 101.66932,40.3386364 101.57584,40.7636364 L101.4094,41.5318182 L101.21104,42.0636364 C101.1016,42.3568182 100.93744,42.7454545 100.84624,42.9272727 C100.75504,43.1090909 100.56808,43.4318182 100.43128,43.6431818 C100.29448,43.8545455 100.10524,44.125 100.0072,44.2454545 C99.90916,44.3659091 99.62188,44.6727273 99.36424,44.9318182 L98.89684,45.4 L98.4454,45.7181818 C98.19688,45.8931818 97.93012,46.0727273 97.8526,46.1159091 C97.77508,46.1590909 97.4764,46.3113636 97.18912,46.4545455 C96.90184,46.5977273 96.49828,46.7795455 96.2908,46.8590909 C96.08332,46.9386364 95.67064,47.0727273 95.37424,47.1590909 C95.07784,47.2454545 94.76092,47.3295455 94.66972,47.3477273 C94.57852,47.3659091 94.25932,47.4318182 93.96292,47.4931818 C93.66652,47.5568182 93.06688,47.65 92.6314,47.7022727 L91.83796,47.7954545 L45.96436,47.8113636 Z" id="Path" fill="#B7232C"></path>
        <path d="M25.51504,15.1409091 C25.46488,15.3590909 25.34632,15.9522727 25.25968,16.4681818 L24.30664,21.6431818 C24.21772,22.1159091 24.0832,22.8590909 24.00568,23.3 C23.93044,23.7409091 23.79136,24.5613636 23.69788,25.125 C23.60212,25.6886364 23.45392,26.5704545 23.365,27.0909091 L23.08912,28.6954545 C23.02756,29.0590909 22.95232,29.5409091 22.9204,29.7681818 C22.8862,29.9977273 22.83376,30.3454545 22.79956,30.5363636 L22.69924,31.1181818 L19.46848,31.1181818 L19.46392,30.7659091 C19.46392,30.6772727 19.60528,29.9 19.66456,29.5681818 C19.77172,28.975 19.9222,28.175 19.99516,27.7954545 C20.06812,27.4136364 20.20492,26.6795455 20.30068,26.1636364 L20.63812,24.3363636 C20.72704,23.8477273 20.83192,23.3068182 20.86612,23.1295455 L20.87752,23.0681818 L14.06488,23.0681818 C14.04664,23.1727273 14.0056,23.375 13.95772,23.6409091 C13.88476,24.0477273 13.75936,24.7568182 13.68184,25.2113636 C13.60204,25.6681818 13.46296,26.5 13.3672,27.0636364 L12.69688,31.1181818 L9.47068,31.1181818 L9.47068,30.7454545 C9.47068,30.6477273 9.56416,30.1727273 9.61888,29.9 C9.6964,29.5181818 9.78076,29.0818182 9.80812,28.9318182 C9.83548,28.7772727 9.91984,28.3522727 9.99508,27.9818182 C10.07032,27.6181818 10.2094,26.9136364 10.30516,26.4090909 L10.61068,24.8045455 C10.68364,24.425 10.81816,23.6931818 10.91392,23.175 C11.0074,22.6590909 11.15788,21.7659091 11.25136,21.1886364 L11.86468,17.3681818 C11.95816,16.7909091 12.06076,16.1590909 12.0904,15.9613636 C12.12004,15.7590909 12.18388,15.3772727 12.23176,15.1068182 L12.36172,14.3909091 L15.73612,14.3909091 L15.55144,14.8659091 C15.53548,14.9227273 15.4762,15.2159091 15.42148,15.5318182 C15.3622,15.8818182 15.271,16.3522727 15.22312,16.575 C15.17752,16.7909091 15.11596,17.1363636 15.0886,17.3431818 C15.05668,17.5613636 14.96776,18.0772727 14.89024,18.4931818 C14.81272,18.9045455 14.701,19.4795455 14.64172,19.7704545 C14.58244,20.0568182 14.50036,20.5022727 14.45476,20.7568182 C14.44336,20.8113636 14.43424,20.8659091 14.4274,20.9136364 C14.70556,20.9227273 15.17524,20.9363636 15.8068,20.9522727 L17.49172,20.9931818 L21.26512,20.9159091 L21.32212,20.5386364 C21.37228,20.2 21.48856,19.4704545 21.57976,18.9227273 C21.67096,18.3727273 21.80776,17.5863636 21.88072,17.175 C21.94684,16.8136364 22.03804,16.2886364 22.10188,15.9318182 L22.12696,15.7909091 C22.18396,15.4431818 22.25236,15.0431818 22.2706,14.9 L22.34356,14.3909091 L25.6906,14.3909091 L25.51504,15.1409091 Z M28.68424,23.775 C28.59532,24.2318182 28.4608,24.9636364 28.38784,25.4022727 C28.3126,25.8454545 28.1758,26.6659091 28.08232,27.2295455 C27.98884,27.7909091 27.83836,28.7159091 27.74488,29.2840909 C27.64,29.9318182 27.58072,30.3931818 27.58072,30.4659091 C27.58072,30.4909091 27.57844,30.7181818 27.52828,30.85 L27.42568,31.1181818 L24.46852,31.1181818 L24.59848,30.6363636 C24.61672,30.5681818 24.67828,30.2840909 24.73528,30.0022727 C24.79456,29.7136364 24.91996,29.0931818 25.01116,28.6227273 C25.10236,28.1522727 25.24144,27.4318182 25.31896,27.0204545 L25.6222,25.4159091 C25.71112,24.9454545 25.84792,24.1659091 25.92544,23.6795455 L26.23552,21.7681818 C26.329,21.2068182 26.44984,20.4272727 26.50456,20.0295455 L26.63908,19.0681818 L29.81512,19.0295455 L29.54608,19.4681818 C29.521,19.5272727 29.43664,19.9045455 29.32492,20.4636364 C29.21548,21.0090909 29.065,21.7863636 28.98748,22.1977273 L28.68424,23.775 Z M27.925,17.5840909 L27.37096,17.3340909 L27.04948,16.7068182 L27.12472,15.5863636 L27.43936,14.8954545 L27.86116,14.4772727 L28.54288,14.2 L29.45944,14.2 L30.00892,14.575 L30.2734,15.0113636 L30.24604,16.1295455 L29.9314,16.8704545 L29.34772,17.4181818 L28.76632,17.6136364 L27.925,17.5840909 Z M38.28988,22.7568182 L38.20552,22.4409091 C38.15992,22.2659091 38.06644,22.0090909 38.00488,21.8909091 L37.89544,21.6704545 L37.48048,21.2568182 L36.95152,21.0136364 L36.2356,20.8704545 L35.278,20.9272727 L34.56664,21.1545455 L34.32724,21.2977273 C34.18132,21.3795455 33.91912,21.5636364 33.75268,21.7022727 L33.51328,21.9 L33.38788,22.5681818 C33.30808,22.9863636 33.16444,23.7681818 33.07096,24.2977273 C32.97748,24.8340909 32.83612,25.6068182 32.75632,26.0181818 L32.61268,26.7659091 L32.5648,27.6409091 L32.62408,27.9 C32.66056,28.0431818 32.74036,28.2840909 32.80192,28.4227273 L32.90224,28.6477273 L33.25792,28.9863636 L33.796,29.2295455 L34.366,29.3295455 L35.18908,29.2727273 L36.05092,28.9795455 L36.21964,28.8545455 C36.32452,28.7772727 36.4978,28.6386364 36.6004,28.55 C36.68476,28.4772727 36.8512,28.2954545 36.95608,28.1477273 C37.0564,28.0090909 37.24564,27.6977273 37.37332,27.4568182 L37.60588,27.0181818 L37.77688,26.5159091 C37.88176,26.2159091 38.02768,25.7090909 38.10064,25.3863636 L38.242,24.7636364 L38.28988,22.7568182 Z M41.02816,21.1590909 L41.28124,22.2295455 L41.36104,23.2704545 L41.2972,23.9068182 C41.26072,24.2295455 41.18092,24.7613636 41.11708,25.0909091 L41.00536,25.6659091 L40.78192,26.3636364 C40.65652,26.7454545 40.44904,27.3022727 40.31908,27.6068182 C40.19824,27.8909091 40.009,28.2772727 39.89728,28.4386364 C39.8494,28.5136364 39.80152,28.5863636 39.77872,28.6272727 C39.75592,28.6977273 39.68524,28.8113636 39.47092,29.0909091 C39.31588,29.2954545 39.02404,29.625 38.82112,29.8272727 L38.4586,30.1863636 L38.0254,30.4772727 C37.79512,30.6272727 37.46224,30.8136364 37.26616,30.9022727 L36.93328,31.0545455 L35.64508,31.3886364 L34.4458,31.4681818 L33.4198,31.3295455 L32.5648,30.9636364 L31.99024,30.3863636 C31.94464,30.6909091 31.87852,31.1318182 31.82152,31.4931818 L31.27204,34.9613636 C31.2196,35.2977273 31.18768,35.5886364 31.18768,35.6477273 C31.18768,35.7477273 31.17172,35.9 31.13752,35.9954545 L31.02808,36.2681818 L28.0846,36.2681818 L28.1986,35.7931818 C28.21456,35.725 28.3012,35.3022727 28.3924,34.85 C28.4836,34.3954545 28.6318,33.625 28.723,33.1363636 C28.8142,32.6522727 28.96696,31.8295455 29.06272,31.3113636 L29.67148,28.0204545 C29.76268,27.5159091 29.91316,26.6727273 30.00436,26.1409091 L30.6154,22.5159091 C30.7066,21.9681818 30.86164,21.0181818 30.95968,20.4022727 L31.17628,19.0409091 L33.7504,19.0409091 L33.74128,19.3340909 C33.739,19.4272727 33.70708,19.6159091 33.67744,19.7681818 C33.74812,19.7181818 33.81196,19.6772727 33.82564,19.6681818 C34.00576,19.5568182 34.31812,19.3886364 34.52332,19.2931818 L34.89724,19.1227273 L35.8024,18.8863636 L36.89224,18.7568182 L37.89088,18.8227273 L38.8804,19.0590909 L39.87904,19.5795455 L40.65196,20.4113636 L41.02816,21.1590909 Z M49.98172,22.2363636 L49.88824,21.6704545 L49.83352,21.5659091 C49.80844,21.5204545 49.71724,21.3909091 49.6306,21.2977273 L49.49836,21.1568182 L48.9694,20.9159091 L48.18736,20.8181818 L47.6584,20.8522727 C47.33692,20.8704545 47.02,20.9113636 46.93336,20.9340909 C46.84672,20.9568182 46.60732,21.0477273 46.40212,21.1454545 L46.08748,21.2954545 L45.41944,21.9568182 L45.27352,22.2477273 C45.18688,22.4227273 45.05236,22.7409091 44.97484,22.9522727 C44.96572,22.9727273 44.95888,22.9931818 44.95204,23.0136364 C45.41944,23.0204545 46.29496,23.025 47.35516,23.025 L49.89508,23.025 L49.98172,22.2363636 Z M52.7314,22.6181818 L52.65388,23.2636364 C52.60828,23.6 52.5262,24.0590909 52.47376,24.2863636 L52.32784,24.9022727 L45.92332,24.8590909 L44.5006,24.925 L44.34556,25.9295455 L44.35012,27.2295455 L44.55304,27.9386364 L44.84716,28.4340909 L45.22336,28.7704545 L45.45364,28.8840909 C45.58816,28.9522727 45.84352,29.0522727 46.01452,29.1068182 L46.3018,29.1977273 L48.20104,29.1954545 L49.3684,28.9613636 L49.9156,28.7795455 C50.2462,28.6727273 50.57908,28.55 50.67028,28.5045455 L51.0556,28.3181818 L51.31096,28.5636364 L51.3406,28.7772727 L51.2038,29.4340909 C51.13084,29.7886364 51.0556,30.1863636 51.03736,30.3204545 L50.9758,30.7704545 L50.10484,30.9613636 C49.7446,31.0386364 49.15636,31.1477273 48.79384,31.1977273 C48.45412,31.2454545 47.8978,31.3068182 47.55808,31.3386364 L46.93336,31.3954545 L46.30864,31.3886364 C45.95068,31.3840909 45.49924,31.3590909 45.28036,31.3318182 C45.0592,31.3022727 44.66932,31.2272727 44.4094,31.1659091 L43.9534,31.0568182 L43.57492,30.8909091 C43.37428,30.8 43.087,30.6318182 42.91828,30.5068182 C42.74956,30.3795455 42.51016,30.1681818 42.37564,30.0272727 C42.232,29.8772727 42.05188,29.6363636 41.96296,29.4818182 C41.8786,29.3295455 41.75776,29.0681818 41.68936,28.8886364 C41.62324,28.7068182 41.52976,28.3954545 41.48188,28.1863636 L41.39752,27.8272727 L41.3884,26.1159091 L41.4796,25.5113636 C41.52976,25.1954545 41.63236,24.6863636 41.70532,24.375 C41.78284,24.0522727 41.90596,23.6159091 41.98804,23.3795455 C42.06784,23.1454545 42.18868,22.8272727 42.25252,22.6704545 C42.32092,22.5113636 42.46684,22.2068182 42.57628,21.9863636 C42.688,21.7636364 42.88636,21.4295455 43.01632,21.2363636 C43.14628,21.0431818 43.3834,20.7568182 43.5544,20.5840909 C43.71628,20.425 43.96252,20.2 44.10616,20.0840909 C44.2498,19.9704545 44.5348,19.7795455 44.75368,19.6545455 C44.96344,19.5363636 45.32824,19.3636364 45.56536,19.2659091 L45.98488,19.1022727 L47.36884,18.8318182 L48.5134,18.7545455 L49.756,18.8727273 L50.76376,19.1113636 L51.10804,19.2818182 C51.26992,19.3659091 51.49792,19.5068182 51.6142,19.5863636 C51.74644,19.6795455 51.92884,19.8454545 52.03372,19.9659091 C52.13632,20.0840909 52.28452,20.3 52.37572,20.4545455 L52.55128,20.7818182 L52.72912,21.5386364 L52.73368,22.1090909 L52.7314,22.6181818 Z M60.3124,21.2181818 L60.02968,21.1386364 L58.86004,21.1318182 L58.1236,21.4840909 L57.47836,22.0795455 L57.2686,22.4045455 C57.13636,22.6022727 56.94028,22.95 56.83996,23.1681818 C56.7328,23.3977273 56.67124,23.5613636 56.66212,23.5977273 C56.66668,23.6636364 56.596,23.875 56.56636,23.9590909 C56.53444,24.0545455 56.40676,24.6090909 56.27908,25.2386364 C56.1628,25.8363636 55.98952,26.7931818 55.89604,27.3681818 C55.80028,27.9454545 55.6726,28.7477273 55.61104,29.15 C55.55176,29.5340909 55.48336,30.0886364 55.46512,30.3568182 L55.4104,31.1204545 L52.48972,31.1204545 L52.48972,30.8363636 C52.48972,30.7681818 52.48972,30.7113636 52.57408,30.3022727 C52.6174,30.0931818 52.72912,29.5386364 52.8226,29.0659091 C52.91608,28.5954545 53.06656,27.825 53.15776,27.3522727 L53.46328,25.7477273 C53.5408,25.3386364 53.6776,24.5568182 53.7688,24.0113636 C53.86,23.4659091 53.9968,22.6181818 54.07432,22.1318182 C54.15184,21.6431818 54.27724,20.8613636 54.35476,20.3931818 C54.4414,19.8727273 54.48928,19.5136364 54.49156,19.4545455 L54.49156,19.0409091 L57.27772,19.0409091 L57.13636,19.5022727 C57.1204,19.5613636 57.06796,19.8386364 57.01324,20.1454545 C57.1204,20.0181818 57.22756,19.9022727 57.30736,19.8227273 C57.46468,19.6681818 57.736,19.4522727 57.92296,19.3318182 C58.10992,19.2113636 58.39492,19.0681818 58.57504,19.0022727 C58.75972,18.9363636 59.0698,18.8568182 59.27956,18.8181818 L59.68312,18.7477273 L60.0046,18.7886364 C60.18472,18.8090909 60.51532,18.8886364 60.72964,18.9522727 C61.12864,19.0704545 61.33612,19.1454545 61.33612,19.3818182 C61.33612,19.4113636 61.33612,19.4454545 61.19248,20.1545455 C61.1104,20.5522727 61.06252,20.8545455 61.06024,20.9113636 C61.06024,21.3113636 60.77296,21.3227273 60.74104,21.3227273 C60.70684,21.3227273 60.66808,21.3227273 60.3124,21.2181818 Z M69.76756,20.7386364 C69.6832,21.2727273 69.6604,21.4340909 69.40048,21.4318182 C69.33892,21.4318182 69.33892,21.4318182 68.99236,21.3022727 L68.69824,21.1931818 L67.29832,20.9181818 L66.11728,20.8636364 L65.75932,20.9227273 C65.54956,20.9545455 65.21212,21.0318182 65.02288,21.0886364 L64.66492,21.2 L64.17016,21.5159091 L63.69592,22.0181818 L63.52264,22.3318182 C63.41092,22.5295455 63.23764,22.8681818 63.14188,23.0886364 C63.05068,23.2977273 62.95264,23.5431818 62.92984,23.6272727 C62.90704,23.7181818 62.8318,23.9727273 62.76796,24.1886364 L62.65168,24.5772727 L62.44192,25.975 L62.4442,26.5272727 L62.4442,27.1227273 L62.61064,27.9386364 L62.94124,28.5409091 L63.42916,28.9681818 L64.06984,29.1909091 L65.32156,29.2340909 L66.78076,28.9431818 L67.27096,28.7590909 C67.5628,28.65 67.77484,28.5590909 67.81816,28.5340909 C67.85692,28.5022727 67.94812,28.4477273 68.05528,28.4477273 L68.17384,28.4477273 L68.2696,28.5340909 C68.36764,28.65 68.38132,28.7386364 68.3152,29.1386364 C68.28328,29.3227273 68.2126,29.7090909 68.1556,29.9977273 C68.03476,30.6181818 67.9732,30.6704545 67.90936,30.7204545 C67.88656,30.7431818 67.825,30.7977273 67.3348,30.9318182 C67.09768,31.0022727 66.69868,31.0954545 66.45244,31.1431818 C66.20848,31.1886364 65.69092,31.2659091 65.30332,31.3113636 L64.59196,31.3954545 L63.96268,31.3886364 C63.62068,31.3840909 63.1852,31.3613636 62.99368,31.3340909 C62.80444,31.3045455 62.46016,31.2295455 62.20708,31.1590909 L61.78072,31.0409091 L61.01236,30.6295455 L60.39904,30.0295455 L59.97496,29.3818182 L59.617,28.5045455 L59.49388,27.6318182 L59.4916,26.2113636 L59.59648,25.1318182 L59.74696,24.5113636 C59.82676,24.1840909 59.98636,23.6522727 60.10036,23.325 L60.30328,22.7431818 L60.58144,22.175 C60.73192,21.8704545 60.96676,21.4590909 61.10356,21.2568182 L61.34068,20.9113636 L61.80124,20.4522727 C62.01784,20.2409091 62.30512,19.9772727 62.41684,19.8954545 C62.5126,19.8318182 62.71552,19.7 62.87512,19.6022727 C63.05296,19.4954545 63.36304,19.3454545 63.55684,19.2681818 L63.91708,19.125 L65.07532,18.8795455 L66.61204,18.7590909 L67.711,18.8181818 C68.30152,18.8522727 68.99464,18.9045455 69.24772,18.9340909 C69.80632,18.9977273 69.83368,19.025 69.8998,19.0886364 C70.00468,19.1931818 70.01836,19.2795455 69.92032,19.8272727 C69.87472,20.0795455 69.80632,20.4886364 69.76756,20.7386364 Z M77.14108,25.0045455 L74.55556,25.0045455 L73.70056,25.2068182 L73.08496,25.5090909 L72.48076,26.1068182 L72.32572,26.4295455 C72.23452,26.6113636 72.12052,26.9045455 72.07264,27.0659091 L71.99056,27.3454545 L72.0316,28.3 L72.1228,28.4704545 C72.1798,28.5772727 72.2824,28.7363636 72.34396,28.8068182 L72.44428,28.9272727 L72.64492,29.0295455 C72.76576,29.0931818 72.99148,29.1772727 73.12828,29.2113636 L73.38136,29.275 L74.18848,29.2318182 L75.01384,28.9727273 L75.18484,28.8568182 C75.33076,28.7590909 75.41968,28.7113636 75.47896,28.6886364 C75.53824,28.6454545 75.64996,28.5431818 75.76852,28.4227273 L76.07632,28.1181818 L76.261,27.8090909 C76.33852,27.6772727 76.4092,27.5545455 76.43428,27.5022727 C76.45252,27.4363636 76.49584,27.3090909 76.60528,27.0272727 C76.68964,26.8159091 76.82416,26.3977273 76.90168,26.1136364 C76.97692,25.8295455 77.0704,25.4136364 77.11144,25.1772727 L77.14108,25.0045455 Z M79.63312,19.5340909 L80.1256,20.025 L80.4676,20.7909091 L80.45848,22.1772727 L80.30572,23.0272727 C80.22364,23.4681818 80.08456,24.2295455 79.99564,24.7159091 C79.909,25.2 79.7722,25.9727273 79.69468,26.4272727 C79.61944,26.8840909 79.48948,27.7136364 79.40968,28.2727273 L79.26604,29.2977273 L79.19536,31.1181818 L76.59616,31.1181818 L76.59844,30.4886364 C76.59844,30.3545455 76.6144,30.1363636 76.6372,29.9113636 C76.58704,29.9659091 76.53916,30.0159091 76.49584,30.0590909 C76.33168,30.225 76.05808,30.4477273 75.87568,30.5681818 C75.70468,30.6840909 75.41968,30.8454545 75.23044,30.9363636 L74.92492,31.0795455 L73.92856,31.3363636 L72.34168,31.3863636 L71.98828,31.3318182 C71.79904,31.3045455 71.46844,31.2272727 71.24956,31.1681818 L70.79812,31.0295455 L70.06396,30.5681818 L69.877,30.35 C69.76072,30.2159091 69.59884,29.9772727 69.50536,29.8090909 L69.32296,29.4522727 L69.16336,28.6090909 L69.1588,27.5409091 L69.33208,26.525 L69.535,26.0318182 C69.64444,25.7795455 69.81772,25.4477273 69.934,25.2772727 C70.04344,25.1136364 70.28968,24.8272727 70.49032,24.6272727 L70.8232,24.2954545 L71.29744,23.9931818 C71.78992,23.6863636 71.85148,23.6863636 71.92216,23.6863636 C71.91076,23.6818182 71.99284,23.6477273 72.0772,23.6045455 C72.23224,23.5340909 72.64036,23.3977273 73.01428,23.2977273 L73.7416,23.1068182 L77.5036,23.0909091 L77.64724,22.3886364 L77.64496,22.0204545 L77.64724,21.6886364 L77.3782,21.2863636 L76.83784,21.0204545 L75.91216,20.8590909 L74.47576,20.925 L73.67776,21.0636364 C73.24228,21.1363636 72.63352,21.2636364 72.34852,21.3386364 C71.85832,21.4727273 71.77168,21.4727273 71.74432,21.4727273 L71.61664,21.4727273 L71.52316,21.3772727 C71.4046,21.2590909 71.416,21.1909091 71.5984,20.4909091 C71.68504,20.1636364 71.78308,19.7545455 71.81956,19.5818182 L71.93128,19.0409091 L73.07128,19.0340909 L73.70512,18.9568182 C74.08132,18.9090909 74.8018,18.8477273 75.31252,18.8159091 L76.2382,18.7590909 L77.71336,18.8681818 L78.86476,19.1295455 L79.63312,19.5340909 Z M88.74628,21.3022727 L88.23328,21.1431818 L86.95648,21.1318182 L86.69884,21.2590909 C86.53696,21.3363636 86.26108,21.5068182 86.09464,21.6318182 L85.79824,21.8568182 L85.21912,22.6227273 L85.01848,23.0568182 C84.89308,23.3204545 84.82012,23.5 84.811,23.5386364 C84.81328,23.6159091 84.7198,23.8704545 84.71068,23.9 C84.67192,24.0113636 84.56248,24.4477273 84.46672,24.8909091 C84.37552,25.3113636 84.27064,25.8636364 84.2296,26.1204545 C84.18856,26.3772727 84.0928,26.9795455 84.013,27.45 C83.9332,27.9204545 83.8078,28.7181818 83.73028,29.2204545 L83.58892,30.1363636 L83.5912,31.1181818 L80.536,31.1181818 L81.30436,27.2386364 C81.39328,26.7681818 81.53008,26.0454545 81.6076,25.6363636 C81.68512,25.225 81.82192,24.4431818 81.91312,23.8977273 C82.0066,23.3477273 82.1548,22.4386364 82.246,21.8795455 C82.3372,21.3159091 82.46488,20.5204545 82.52644,20.1045455 C82.58572,19.7181818 82.6336,19.3863636 82.63816,19.3363636 L82.63816,19.0522727 L82.92316,19.0386364 L85.267,19.0386364 L85.26016,19.4522727 C85.25788,19.5431818 85.20088,19.8704545 85.153,20.1204545 L85.76404,19.4954545 L86.37508,19.1295455 L87.33724,18.8 L88.4248,18.8113636 L88.70296,18.9 C88.858,18.9477273 89.05636,19.0136364 89.143,19.0454545 L89.51464,19.1931818 L89.3368,20.0522727 C89.26156,20.4159091 89.20912,20.7409091 89.20912,20.8045455 L89.20456,21.1340909 L88.96288,21.2863636 L88.74628,21.3022727 Z M91.09012,23.8681818 C91.08784,23.8681818 91.15168,23.7545455 90.93964,24.4204545 L90.80284,24.8613636 L90.63412,26.0886364 L90.62272,27.4909091 L90.76408,28.1090909 L91.05592,28.6704545 L91.4344,28.9772727 L91.66924,29.0772727 C91.7992,29.1340909 92.0272,29.2022727 92.15716,29.225 L92.44216,29.275 L93.1786,29.2272727 L93.988,28.9704545 L94.2616,28.7909091 C94.41664,28.6909091 94.62184,28.5318182 94.71532,28.4454545 C94.80196,28.3681818 94.95016,28.1954545 95.0368,28.0704545 C95.12344,27.95 95.26024,27.7068182 95.33776,27.5431818 C95.41528,27.3840909 95.51332,27.125 95.55664,26.9772727 L95.74588,26.2772727 C95.80516,26.0545455 95.91688,25.5409091 95.9944,25.1363636 C96.07192,24.725 96.211,23.9931818 96.29992,23.5045455 C96.39112,23.0181818 96.51652,22.3227273 96.58036,21.9568182 C96.63052,21.6636364 96.68524,21.3681818 96.7126,21.2181818 C96.5872,21.1772727 96.3478,21.1045455 96.12208,21.0431818 L95.63188,20.9090909 L93.8854,20.9090909 L93.05776,21.1954545 L92.86396,21.3204545 C92.7454,21.3954545 92.5288,21.5659091 92.4034,21.6886364 C92.27344,21.8113636 92.06368,22.05 91.94512,22.2090909 C91.82884,22.3659091 91.65784,22.6386364 91.5712,22.8022727 C91.47772,22.9818182 91.32952,23.2931818 91.23832,23.4954545 C91.16536,23.6545455 91.1038,23.8113636 91.09012,23.8681818 Z M97.83892,14.0568182 L100.75732,14.0568182 L100.75732,14.3409091 C100.7596,14.4090909 100.7596,14.4363636 100.61824,15.1181818 C100.54528,15.4659091 100.4062,16.15 100.31272,16.6340909 C100.21924,17.1204545 100.07788,17.8636364 99.99808,18.2909091 L99.3688,21.6954545 C99.2776,22.1954545 99.13852,22.9681818 99.06328,23.4090909 C98.98804,23.85 98.87176,24.5090909 98.80564,24.8772727 C98.7418,25.2386364 98.6278,25.9340909 98.55484,26.4181818 C98.48188,26.9022727 98.34736,27.9318182 98.25616,28.7068182 L98.08972,30.1181818 L98.092,31.1136364 L95.31496,31.1136364 L95.38108,30.4272727 C95.3902,30.3340909 95.40388,30.2204545 95.41756,30.1090909 L95.41528,30.1136364 L94.80196,30.6590909 L94.41208,30.8704545 C94.20916,30.9727273 93.91732,31.0886364 93.74632,31.1363636 C93.57304,31.1863636 93.19912,31.2590909 92.9392,31.3022727 L92.4148,31.3886364 L91.86304,31.3818182 C91.55068,31.3772727 91.15396,31.3545455 90.96016,31.3295455 C90.76636,31.3045455 90.44032,31.2386364 90.226,31.1795455 C90.01852,31.1272727 89.69476,31.0022727 89.49184,30.9 L89.15896,30.7386364 L88.61632,30.3045455 L88.1056,29.6113636 L87.98932,29.3181818 C87.9232,29.1522727 87.832,28.8954545 87.78868,28.7522727 L87.71572,28.5068182 L87.57892,27.0636364 L87.74536,25.2954545 L87.9232,24.5863636 C88.02124,24.2045455 88.16488,23.7295455 88.25152,23.5068182 C88.33132,23.2909091 88.53424,22.8363636 88.7098,22.4727273 L89.01076,21.8477273 L89.2912,21.4386364 C89.44396,21.2227273 89.71984,20.8863636 89.90908,20.6840909 L90.24424,20.325 L91.06048,19.7159091 L92.15944,19.1772727 L93.32452,18.875 L94.58992,18.7545455 L96.08332,18.8659091 L96.65788,19.0068182 C96.67156,19.0090909 96.89044,19.0659091 97.07512,19.1181818 L97.24612,18.0840909 C97.33732,17.5363636 97.48552,16.6181818 97.579,16.0386364 C97.66792,15.4659091 97.75912,14.8454545 97.77736,14.6568182 L97.83892,14.0568182 Z" id="Combined-Shape" fill="#F5F5F5"></path>
    </g>
</svg>