<?xml version="1.0" encoding="UTF-8"?>
<svg width="84px" height="34px" viewBox="0 0 84 34" version="1.1" xmlns="http://www.w3.org/2000/svg" xmlns:xlink="http://www.w3.org/1999/xlink">
    <!-- Generator: Sketch 52.4 (67378) - http://www.bohemiancoding.com/sketch -->
    <title>Artboard</title>
    <desc>Created with Sketch.</desc>
    <g id="Artboard" stroke="none" stroke-width="1" fill="none" fill-rule="evenodd">
        <path d="M0.311294118,13.828 C0.311294118,9.86541176 0.319058824,5.90282353 0.300941176,1.94023529 C0.298352941,1.44847059 0.417411765,1.27247059 0.937647059,1.28282353 C2.43364706,1.31647059 3.92964706,1.31129412 5.42564706,1.28541176 C5.90964706,1.27505882 6.04941176,1.42517647 6.04423529,1.904 C6.02352941,4.67341176 6.04682353,7.44282353 6.02352941,10.2148235 C6.01835294,10.7402353 6.15294118,10.9110588 6.69905882,10.9058824 C9.38823529,10.8774118 12.0748235,10.88 14.7665882,10.9032941 C15.2505882,10.9084706 15.38,10.7635294 15.3774118,10.2872941 C15.3567059,7.49717647 15.3774118,4.70705882 15.3567059,1.91952941 C15.3541176,1.45623529 15.4550588,1.28023529 15.9545882,1.288 C17.4712941,1.31647059 18.9854118,1.32423529 20.5021176,1.28541176 C21.0844706,1.26988235 21.0922353,1.54941176 21.0922353,1.98423529 C21.0818824,8.91811765 21.0844706,15.8545882 21.0844706,22.7884706 C21.0844706,23.8392941 21.0663529,24.8901176 21.0948235,25.9409412 C21.1051765,26.3472941 20.9602353,26.4611765 20.572,26.4585882 C19.0164706,26.4404706 17.4583529,26.4378824 15.9028235,26.4585882 C15.4835294,26.4637647 15.3541176,26.3317647 15.3567059,25.9072941 C15.3748235,22.7936471 15.3541176,19.68 15.3774118,16.5663529 C15.3825882,16.0331765 15.2324706,15.8804706 14.6941176,15.8856471 C12.0256471,15.9141176 9.35717647,15.9089412 6.68870588,15.8882353 C6.18917647,15.8856471 6.02352941,16.0357647 6.02870588,16.5430588 C6.04941176,19.636 6.02611765,22.7289412 6.04941176,25.8218824 C6.05458824,26.3421176 5.89152941,26.4663529 5.39976471,26.4585882 C3.90376471,26.4301176 2.40776471,26.4301176 0.911764706,26.456 C0.438117647,26.4637647 0.306117647,26.3162353 0.308705882,25.8374118 C0.321647059,21.836 0.313882353,17.832 0.311294118,13.828 Z M38.8967059,18.9061176 C38.8967059,20.0578824 38.9044706,21.0284706 38.8915294,21.9990588 C38.8863529,22.3407059 38.9769412,22.5244706 39.3651765,22.5244706 C40.2917647,22.5296471 41.2235294,22.6047059 42.1501176,22.584 C43.6590588,22.5555294 44.8625882,21.9395294 45.52,20.5289412 C46.4077647,18.6214118 46.4491765,16.6543529 45.6597647,14.7183529 C44.9505882,12.9712941 43.5736471,12.2 41.8912941,12.4510588 C40.3047059,12.6865882 39.1658824,13.9651765 38.9510588,15.7588235 C38.8242353,16.864 38.9407059,17.9769412 38.8967059,18.9061176 Z M38.3117647,10.9084706 C39.7741176,8.87670588 41.7334118,8.05882353 44.0110588,7.96823529 C47.0237647,7.84917647 49.6404706,9.56258824 50.9268235,12.3863529 C51.988,14.7105882 52.0889412,17.1409412 51.7317647,19.6178824 C51.4755294,21.3934118 50.8414118,23.0110588 49.5861176,24.3284706 C48.0590588,25.9305882 46.0997647,26.5931765 43.9567059,26.8157647 C42.6263529,26.9555294 41.2908235,26.8804706 39.9578824,26.8934118 C38.7983529,26.9037647 38.9044706,26.7743529 38.9018824,27.9209412 C38.8992941,29.7016471 38.8889412,31.4797647 38.9096471,33.2604706 C38.9148235,33.6797647 38.7931765,33.8221176 38.3635294,33.8143529 C36.8675294,33.7910588 35.3715294,33.7884706 33.8755294,33.8169412 C33.4277647,33.8247059 33.288,33.7108235 33.2931765,33.2475294 C33.3190588,31.4461176 33.3061176,29.6498824 33.3035294,27.8484706 C33.3035294,26.8882353 33.3035294,26.8985882 32.3588235,26.8390588 C30.9327059,26.7536471 29.5687059,26.4145882 28.3082353,25.7312941 C25.9581176,24.4656471 24.8011765,22.3872941 24.3301176,19.8404706 C24.1230588,18.7171765 24.1282353,17.5887059 24.1282353,16.4576471 C24.1282353,13.9289412 24.136,11.4028235 24.1204706,8.87411765 C24.1178824,8.46517647 24.2162353,8.30729412 24.6588235,8.31505882 C26.1936471,8.34094118 27.7336471,8.34352941 29.2684706,8.31505882 C29.7317647,8.30729412 29.8508235,8.45223529 29.8482353,8.9 C29.8301176,11.8531765 29.8068235,14.8063529 29.8534118,17.7569412 C29.8767059,19.1908235 30.2157647,20.56 31.308,21.616 C31.7091765,22.0042353 32.1983529,22.2449412 32.7263529,22.3950588 C33.0990588,22.5011765 33.3190588,22.4494118 33.3164706,21.9498824 C33.2957647,17.788 33.3527059,13.6235294 33.1301176,9.46423529 C33.1275294,9.42541176 33.1275294,9.38141176 33.1275294,9.34258824 C33.1327059,8.22188235 33.0498824,8.416 34.0618824,8.40564706 C35.1955294,8.39529412 36.3265882,8.42376471 37.4602353,8.39529412 C37.9364706,8.38235294 38.0891765,8.54541176 38.0969412,9.02164706 C38.1047059,9.59882353 38.2185882,10.176 38.3117647,10.9084706 Z M61.9734118,15.3058824 C62.9232941,15.3058824 63.8705882,15.3007059 64.8204706,15.3084706 C65.1025882,15.3110588 65.2889412,15.2644706 65.2604706,14.9150588 C65.0611765,12.3112941 63.1588235,11.1569412 61.0157647,11.8428235 C59.5663529,12.3087059 58.9581176,13.5562353 58.6630588,14.9694118 C58.588,15.3291765 58.8338824,15.3084706 59.0668235,15.3084706 C60.0348235,15.3058824 61.0054118,15.3058824 61.9734118,15.3058824 Z M64.5124706,19.196 C62.7550588,19.196 60.9950588,19.2037647 59.2376471,19.1908235 C58.8054118,19.1882353 58.6087059,19.2374118 58.7769412,19.7705882 C59.2971765,21.4089412 60.5576471,22.0870588 62.0847059,22.4105882 C64.1915294,22.8531765 66.2595294,22.5011765 68.2990588,21.9757647 C68.6872941,21.8748235 68.8115294,21.9524706 68.8788235,22.3070588 C69.0625882,23.2776471 69.2437647,24.2456471 69.4534118,25.2084706 C69.544,25.6355294 69.324,25.7830588 68.9797647,25.8969412 C66.9091765,26.5828235 64.7842353,26.8649412 62.6101176,26.8209412 C60.6585882,26.7847059 58.808,26.4016471 57.1308235,25.3637647 C55.0861176,24.1007059 53.9343529,22.2268235 53.5021176,19.9025882 C53.0388235,17.3997647 53.2225882,14.9564706 54.4131765,12.6607059 C55.9635294,9.66611765 58.456,8.108 61.8181176,7.92164706 C63.5211765,7.82847059 65.1595294,8.05364706 66.6529412,8.93364706 C68.3508235,9.93529412 69.4042353,11.452 69.9788235,13.3 C70.5352941,15.0962353 70.6776471,16.9312941 70.3903529,18.8 C70.3230588,19.2296471 70.0668235,19.1908235 69.7872941,19.1908235 C68.0272941,19.1985882 66.2698824,19.196 64.5124706,19.196 Z M72.5204706,18.6628235 C72.5204706,17.0244706 72.5334118,15.3887059 72.5152941,13.7503529 C72.4971765,12.0964706 72.4661176,10.44 72.4065882,8.78611765 C72.3910588,8.36682353 72.5256471,8.27882353 72.9112941,8.284 C74.1847059,8.30470588 75.4581176,8.31247059 76.7289412,8.27882353 C77.1663529,8.26588235 77.2931765,8.44188235 77.3061176,8.81976471 C77.3268235,9.54705882 77.3527059,10.2717647 77.3837647,10.9990588 C77.3889412,11.1362353 77.3630588,11.3225882 77.5287059,11.3614118 C77.7150588,11.4028235 77.7228235,11.2035294 77.7823529,11.0844706 C78.5381176,9.50047059 79.7364706,8.43929412 81.4550588,8.00705882 C82.0917647,7.84917647 82.7414118,7.91647059 83.3858824,7.92682353 C83.7249412,7.93458824 83.6887059,8.19341176 83.6887059,8.40823529 C83.6938824,9.86282353 83.6783529,11.32 83.6990588,12.772 C83.7042353,13.1887059 83.5618824,13.3077647 83.1658824,13.2327059 C82.172,13.0411765 81.1936471,13.1058824 80.2618824,13.5251765 C78.6830588,14.2343529 78.2016471,15.5802353 78.1964706,17.1771765 C78.1861176,20.0449412 78.1783529,22.9178824 78.2068235,25.7856471 C78.212,26.3369412 78.0385882,26.4637647 77.5209412,26.4534118 C76.0482353,26.4223529 74.5703529,26.4249412 73.0976471,26.4508235 C72.6472941,26.4585882 72.5127059,26.3265882 72.5152941,25.8684706 C72.5282353,23.4717647 72.5204706,21.0672941 72.5204706,18.6628235 Z" id="Combined-Shape" fill="#FF7900"></path>
        <path d="M26.9856471,6.12282353 C25.1247059,6.216 23.9392941,4.87529412 23.96,3.26541176 C23.9832941,1.58823529 25.2023529,0.423529412 26.9752941,0.420941176 C28.8336471,0.418352941 30.0423529,1.56752941 30.0397647,3.33270588 C30.0345882,4.99435294 28.8,6.12282353 26.9856471,6.12282353 Z" id="Path" fill="#FFE701"></path>
    </g>
</svg>