<svg xmlns="http://www.w3.org/2000/svg" viewBox="0 0 993.4 233.01"><defs><style>.cls-1{isolation:isolate;}.cls-2{fill:#fe7e00;fill-rule:evenodd;}</style></defs><g id="doppus_copiar" data-name="doppus copiar" class="cls-1"><g id="doppus_copiar-2" data-name="doppus copiar"><path class="cls-2" d="M141.44.37a14.71,14.71,0,0,0-10.76,4.37,14.45,14.45,0,0,0-4.39,10.67v40H126A78,78,0,0,0,68.58,39.65a78.66,78.66,0,0,0-28.85,9.58,75,75,0,0,0-23,20A79.82,79.82,0,0,0,5.05,90.81a80.83,80.83,0,0,0-4.6,24,77.51,77.51,0,0,0,8.61,37.7,77.48,77.48,0,0,0,63.51,42.07,78.49,78.49,0,0,0,39.34-7.27,80.56,80.56,0,0,0,16.64-10.79A77.57,77.57,0,0,0,141.9,162.1a80.33,80.33,0,0,0,9.35-17.22,77.27,77.27,0,0,0,4.86-19.15c.16-1.29.28-2.55.36-3.76s.12-2.46.12-3.76V15.41a14.46,14.46,0,0,0-4.4-10.67A14.67,14.67,0,0,0,141.44.37ZM125.58,125.85A48.62,48.62,0,0,1,99,160.4q-2.46,1.11-4.84,2.08,1.69-.75,3.39-1.59a44.37,44.37,0,0,1-15.73,3.88,52.63,52.63,0,0,1-16-1.46A46.11,46.11,0,0,1,51,156.16a48.68,48.68,0,0,1-11.74-12,41.83,41.83,0,0,1-6.9-14.43,50.56,50.56,0,0,1-1.58-15.88,45.64,45.64,0,0,1,4.36-17.34A51.92,51.92,0,0,1,45.28,82.08,44,44,0,0,1,51.93,77q3.51-2.17,7.39-4.12a44.86,44.86,0,0,1,19-4.12,46.59,46.59,0,0,1,19.25,4.12A48,48,0,0,1,113.45,84a47.28,47.28,0,0,1,10.31,16.73A46.61,46.61,0,0,1,125.58,125.85ZM316.14,62.2A77.38,77.38,0,0,0,248,40.14a83.88,83.88,0,0,0-27.4,10.18A72.31,72.31,0,0,0,198.78,70h-.24a46.18,46.18,0,0,0-4.12,6.31,70.81,70.81,0,0,0-8.12,18.06,83.8,83.8,0,0,0-3.28,19.4,75.51,75.51,0,0,0,1.58,19.52A80.88,80.88,0,0,0,191,151.92a74.48,74.48,0,0,0,11.4,16.73,80,80,0,0,0,33.22,22.06,75.84,75.84,0,0,0,19.88,4.12,77.67,77.67,0,0,0,37.82-7.15,76.84,76.84,0,0,0,30.07-24.37,80.31,80.31,0,0,0,11.28-21.7,74.6,74.6,0,0,0,4-24.13A75,75,0,0,0,333,87.54,76.94,76.94,0,0,0,316.14,62.2Zm-95.9,80.87-.18-.37c.88,1.65,1.78,3.27,2.73,4.85A35.74,35.74,0,0,1,220.24,143.07Zm87.29-15.16a48.91,48.91,0,0,1-7.15,16.25,49.82,49.82,0,0,1-11.16,11.39,47.73,47.73,0,0,1-14.3,7.28,45.57,45.57,0,0,1-16.49,2.3,44.85,44.85,0,0,1-16.25-3.76,52,52,0,0,1-13.57-8.85,47.65,47.65,0,0,1-9.4-11.54c-.41-.81-.84-1.61-1.27-2.4a44.36,44.36,0,0,1-5.09-18.91,46.9,46.9,0,0,1,5.33-24.73,48.46,48.46,0,0,1,17-18.67,47,47,0,0,1,18.43-6.79A46.07,46.07,0,0,1,273,70.69a44.64,44.64,0,0,1,17.46,8.73,51.21,51.21,0,0,1,12.6,15,46.46,46.46,0,0,1,5.34,15.76A48.53,48.53,0,0,1,307.53,127.91ZM498.7,81.48a78.53,78.53,0,0,0-10.81-16,75.32,75.32,0,0,0-14.69-13A78.61,78.61,0,0,0,396,46.44a80.49,80.49,0,0,0-16.63,10.79A77.63,77.63,0,0,0,366,71.66,83.69,83.69,0,0,0,356.51,89a69.17,69.17,0,0,0-4.73,19.28c-.17,1.3-.29,2.55-.37,3.76s-.12,2.47-.12,3.76V218.35a14.47,14.47,0,0,0,4.4,10.67,15.42,15.42,0,0,0,21.51,0,14.47,14.47,0,0,0,4.4-10.67V178.59A83.38,83.38,0,0,0,408.88,192a75.78,75.78,0,0,0,30.43,2.31,78.48,78.48,0,0,0,28.85-9.58,75.1,75.1,0,0,0,23-20,79.57,79.57,0,0,0,11.63-21.7,82.5,82.5,0,0,0,4.61-24.13,74.56,74.56,0,0,0-2.06-19.28A83.27,83.27,0,0,0,498.7,81.48Zm-21.57,38.67a45,45,0,0,1-4.35,17.1,52.14,52.14,0,0,1-10.17,14.42,43.87,43.87,0,0,1-6.66,5.09c-2.34,1.46-4.8,2.83-7.38,4.13A46.24,46.24,0,0,1,429.45,165a48.49,48.49,0,0,1-45.32-31.76A47,47,0,0,1,382.31,108a49.28,49.28,0,0,1,11-22.79A42,42,0,0,1,408.86,73.6a44.08,44.08,0,0,1,4.48-2.18l.47-.2q-1.76.78-3.51,1.65A45.61,45.61,0,0,1,442,70.69,47.66,47.66,0,0,1,468.66,89.6,45.52,45.52,0,0,1,477.13,120.15ZM672.3,81.48a78.48,78.48,0,0,0-10.8-16,75.67,75.67,0,0,0-14.7-13,78.59,78.59,0,0,0-77.22-6.06,80.29,80.29,0,0,0-16.64,10.79,78,78,0,0,0-13.36,14.43A83.69,83.69,0,0,0,530.11,89a69.17,69.17,0,0,0-4.73,19.28c-.16,1.3-.28,2.55-.36,3.76s-.12,2.47-.12,3.76V218.35A14.46,14.46,0,0,0,529.29,229a15.42,15.42,0,0,0,21.51,0,14.47,14.47,0,0,0,4.4-10.67V178.59A83.48,83.48,0,0,0,582.48,192a75.78,75.78,0,0,0,30.43,2.31,78.48,78.48,0,0,0,28.85-9.58,75,75,0,0,0,23-20,79.33,79.33,0,0,0,11.64-21.7,82.49,82.49,0,0,0,4.6-24.13A74.13,74.13,0,0,0,679,99.66,83.27,83.27,0,0,0,672.3,81.48Zm-21.56,38.67a45.21,45.21,0,0,1-4.36,17.1,51.73,51.73,0,0,1-10.17,14.42,42.9,42.9,0,0,1-6.66,5.09c-2.34,1.46-4.8,2.83-7.38,4.13A46.24,46.24,0,0,1,603.05,165a48.49,48.49,0,0,1-45.32-31.76A47.08,47.08,0,0,1,555.91,108a49.28,49.28,0,0,1,11-22.79A42,42,0,0,1,582.46,73.6,44.24,44.24,0,0,1,587,71.42l.46-.2c-1.17.52-2.33,1.07-3.5,1.65a45.6,45.6,0,0,1,31.72-2.18,47.5,47.5,0,0,1,14.89,7A47,47,0,0,1,642.26,89.6,45.53,45.53,0,0,1,650.74,120.15ZM841.07,38.68a15.31,15.31,0,0,0-15.28,15.25v62.92H826a45.75,45.75,0,0,1-3.76,18.51,48.59,48.59,0,0,1-25.58,25.41,46.23,46.23,0,0,1-18.43,3.75,47.24,47.24,0,0,1-33.82-14,49.9,49.9,0,0,1-10.19-15.13,45.58,45.58,0,0,1-3.76-18.51V53.93a14.87,14.87,0,0,0-4.36-10.77,14.36,14.36,0,0,0-10.67-4.48A15.31,15.31,0,0,0,700.2,54v63a74.77,74.77,0,0,0,6.18,30.19,78.8,78.8,0,0,0,41.46,41.46,77.42,77.42,0,0,0,60.62,0,78.8,78.8,0,0,0,41.46-41.46A74.77,74.77,0,0,0,856.1,117V54a14.92,14.92,0,0,0-4.36-10.79A14.33,14.33,0,0,0,841.07,38.68Zm149.12,91.58a46.57,46.57,0,0,0-10-14.75,48.4,48.4,0,0,0-14.79-10,44.33,44.33,0,0,0-18.18-3.76H915.75a15.13,15.13,0,0,1-11.4-4.8,16.65,16.65,0,0,1,0-23A16.11,16.11,0,0,1,915.57,69h30.91a14.83,14.83,0,0,0,10.83-4.45,15,15,0,0,0,0-21.41,14.8,14.8,0,0,0-10.79-4.45H915.75a43.68,43.68,0,0,0-18.07,3.76A49,49,0,0,0,883,52.5a46.86,46.86,0,0,0-9.95,14.79,47.37,47.37,0,0,0,0,36.37,46.42,46.42,0,0,0,24.74,24.74A45.68,45.68,0,0,0,916,132h31.52a15.34,15.34,0,0,1,11.28,4.77,15.84,15.84,0,0,1,4.72,11.6,15.55,15.55,0,0,1-4.72,11.36,15.33,15.33,0,0,1-11.28,4.76H881.08A14.74,14.74,0,0,0,870.29,169a15,15,0,0,0,0,21.4,14.73,14.73,0,0,0,10.79,4.45H948a43.57,43.57,0,0,0,17.89-3.74,46.53,46.53,0,0,0,14.58-10,47.55,47.55,0,0,0,9.74-14.75,46.66,46.66,0,0,0,0-36Z" transform="translate(-0.42 -0.37)"/></g></g></svg>