<svg xmlns="http://www.w3.org/2000/svg" xmlns:xlink="http://www.w3.org/1999/xlink" width="100" height="73.333" viewBox="0 0 100 55"  xmlns:v="https://vecta.io/nano"><defs><linearGradient id="A" x1="15.867" y1="23.97" x2="21.219" y2="14.292" xlink:href="#J"><stop offset="0" stop-color="rgb(43.137255%,75.686275%,65.882353%)"/><stop offset="1" stop-color="rgb(57.647059%,96.470588%,68.627451%)"/></linearGradient><linearGradient id="B" x1="29.877" y1="31.665" x2="35.849" y2="20.865" xlink:href="#J"><stop offset="0" stop-color="rgb(43.137255%,75.686275%,65.882353%)"/><stop offset="1" stop-color="rgb(57.647059%,96.470588%,68.627451%)"/></linearGradient><linearGradient id="C" x1="41.354" y1="35.364" x2="48.132" y2="23.106" xlink:href="#J"><stop offset="0" stop-color="rgb(43.137255%,75.686275%,65.882353%)"/><stop offset="1" stop-color="rgb(57.647059%,96.470588%,68.627451%)"/></linearGradient><linearGradient id="D" x1="71.438" y1="27.282" x2="68.016" y2="15.69" xlink:href="#J"><stop offset="0" stop-color="rgb(88.627451%,48.627451%,10.980392%)"/><stop offset="1" stop-color="rgb(95.686275%,84.705882%,33.72549%)"/></linearGradient><linearGradient id="E" x1="56.919" y1="8.12" x2="66.35" y2="-1.873" xlink:href="#J"><stop offset="0" stop-color="rgb(88.627451%,48.627451%,10.980392%)"/><stop offset="1" stop-color="rgb(95.686275%,84.705882%,33.72549%)"/></linearGradient><linearGradient id="F" x1="51.687" y1="19.509" x2="42.112" y2="24.009" xlink:href="#J"><stop offset="0" stop-color="rgb(43.137255%,75.686275%,65.882353%)"/><stop offset="1" stop-color="rgb(57.647059%,96.470588%,68.627451%)"/></linearGradient><linearGradient id="G" x1="51.54" y1="17.612" x2="59.477" y2="21.004" xlink:href="#J"><stop offset="0" stop-color="rgb(24.705882%,23.137255%,61.960784%)"/><stop offset="1" stop-color="rgb(43.137255%,75.686275%,65.882353%)"/></linearGradient><linearGradient id="H" x1="59.696" y1="7.669" x2="43.129" y2="22.868" xlink:href="#J"><stop offset="0" stop-color="rgb(78.431373%,21.176471%,4.705882%)"/><stop offset="1" stop-color="rgb(88.627451%,48.627451%,10.980392%)"/></linearGradient><linearGradient id="I" x1="53.42" y1="4.742" x2="41.044" y2="16.095" xlink:href="#J"><stop offset="0" stop-color="rgb(78.431373%,21.176471%,4.705882%)"/><stop offset="1" stop-color="rgb(88.627451%,48.627451%,10.980392%)"/></linearGradient><linearGradient id="J" gradientUnits="userSpaceOnUse"/></defs><path d="M12.34 27.07h4.566v20.426H12.34v-8.668H4.672v8.668H.105V27.07h4.566v7.809h7.668zm0 0" fill="url(#A)"/><path d="M31.957 46.965c-.742.219-1.699.418-2.871.605s-2.398.277-3.687.277c-1.305 0-2.395-.176-3.262-.527s-1.555-.852-2.062-1.488-.871-1.402-1.086-2.285-.32-1.859-.32-2.918v-8.637h4.359v8.105c0 1.414.188 2.438.559 3.066s1.063.941 2.078.941l.996-.043.934-.105V31.992h4.363zm0 0" fill="url(#B)"/><path d="M47.586 36.426c-.293-.992-.723-1.84-1.289-2.547s-1.27-1.254-2.105-1.637-1.805-.574-2.898-.574c-.605 0-1.172.059-1.699.176s-1.031.285-1.52.5v-7.738l-4.363 1.832v20.559l1.348.336 1.594.281 1.699.191 1.652.074c1.27 0 2.402-.191 3.395-.574s1.836-.93 2.52-1.637 1.203-1.562 1.566-2.562.539-2.125.539-3.363c0-1.219-.145-2.32-.437-3.316zm-4.918 6.473c-.605.824-1.504 1.238-2.691 1.238a11.51 11.51 0 0 1-1.082-.047l-.82-.102V36c.273-.176.629-.324 1.066-.441s.883-.176 1.332-.176c2.07 0 3.102 1.414 3.102 4.242 0 1.355-.301 2.445-.906 3.273zm0 0" fill="url(#C)"/><path d="M85.773 44.164l-.613 3.625c-1.27-.02-2.301-.156-3.09-.41s-1.414-.613-1.871-1.078-.773-1.02-.937-1.68-.25-1.398-.25-2.223V26.434l4.363-1.828v16.906a5.85 5.85 0 0 0 .086 1.063c.059.313.172.578.336.797s.406.391.719.527.73.227 1.258.266zm-8.227-6.25v9.141l-2.605.484c-1.113.188-2.461.281-4.039.281a12.77 12.77 0 0 1-2.707-.266c-.812-.176-1.508-.465-2.094-.871a3.96 3.96 0 0 1-1.348-1.574c-.312-.648-.469-1.445-.469-2.391 0-.902.18-1.668.543-2.297a4.18 4.18 0 0 1 1.449-1.504 6.5 6.5 0 0 1 2.078-.809 11.52 11.52 0 0 1 2.43-.254l1.508.074c.438.051.793.113 1.066.191v-.41c0-.746-.223-1.348-.672-1.801s-1.23-.676-2.344-.676a15.17 15.17 0 0 0-2.195.16l-1.066.211-1.363-3.289.953-.25 1.242-.238 1.422-.176a14.93 14.93 0 0 1 1.508-.074c1.285 0 2.359.148 3.219.441s1.547.719 2.063 1.27.883 1.219 1.098 2.004.324 1.66.324 2.621zm-4.187 3.066a8 8 0 0 0-.789-.117l-.965-.059a8.3 8.3 0 0 0-1.156.074 2.87 2.87 0 0 0-.953.281c-.273.137-.488.324-.645.559s-.234.531-.234.883c0 .688.23 1.164.688 1.43s1.09.398 1.891.398l1.227-.027.938-.09zm-10.727-1.59c-.254-.687-.637-1.289-1.156-1.801s-1.164-.957-1.945-1.34-1.695-.77-2.75-1.164l-1.391-.516c-.422-.168-.789-.352-1.113-.559s-.57-.437-.746-.695-.262-.57-.262-.941c0-.629.238-1.098.715-1.402s1.266-.457 2.355-.457c.977 0 1.813.113 2.504.34.633.207 1.207.441 1.734.707l1.469-3.551c-.645-.355-1.461-.68-2.457-.973s-2.176-.441-3.543-.441c-1.148 0-2.184.141-3.102.426s-1.695.695-2.34 1.223a5.44 5.44 0 0 0-1.492 1.934c-.352.754-.527 1.605-.527 2.547s.164 1.746.496 2.402a5.46 5.46 0 0 0 1.289 1.68 7.25 7.25 0 0 0 1.785 1.152l1.988.809c1.523.512 2.598.988 3.223 1.43s.934 1 .934 1.668a2.36 2.36 0 0 1-.145.852c-.098.258-.273.48-.527.664s-.59.336-1.008.441-.953.164-1.598.164c-1.285 0-2.375-.133-3.262-.398-.805-.238-1.484-.508-2.055-.805l-1.473 3.563a11.02 11.02 0 0 0 1.008.5c.402.176.879.344 1.438.5s1.191.289 1.914.398a16.32 16.32 0 0 0 2.43.164c2.676 0 4.672-.527 6-1.578s1.992-2.531 1.992-4.437c0-.98-.129-1.816-.383-2.504zm36.402 7.547c-.234.117-.547.234-.937.352s-.824.223-1.301.309l-1.539.223a15.32 15.32 0 0 1-1.637.09c-1.387 0-2.59-.207-3.617-.621s-1.871-.977-2.543-1.695-1.172-1.566-1.496-2.551-.48-2.043-.48-3.184c0-1.375.207-2.578.629-3.609s.969-1.891 1.652-2.578 1.469-1.211 2.355-1.562 1.801-.531 2.738-.531c2.184 0 3.91.672 5.18 2.02s1.902 3.328 1.902 5.941l-.027.84-.059.809h-9.895c.098.906.516 1.621 1.258 2.152s1.738.797 2.988.797a12.47 12.47 0 0 0 2.355-.223l1.113-.266zm-9.074-8.758h5.766c-.02-.371-.082-.734-.187-1.09a2.73 2.73 0 0 0-.5-.941c-.223-.277-.508-.504-.848-.68s-.766-.266-1.273-.266c-.488 0-.906.086-1.258.25a2.64 2.64 0 0 0-.879.664c-.234.277-.414.594-.543.957s-.219.734-.277 1.105zm0 0" fill="url(#D)"/><path d="M1.371 54.496c.648 0 .973-.223.973-.668a.65.65 0 0 0-.086-.352.85.85 0 0 0-.234-.254 1.62 1.62 0 0 0-.336-.184l-.398-.152-.461-.191a1.55 1.55 0 0 1-.379-.254 1.01 1.01 0 0 1-.254-.344c-.062-.133-.094-.293-.094-.484 0-.391.133-.695.398-.914s.629-.332 1.094-.332c.27 0 .516.031.734.09s.383.121.484.191l-.199.508c-.09-.055-.223-.109-.398-.164s-.387-.082-.621-.082a1.49 1.49 0 0 0-.332.039.94.94 0 0 0-.27.117c-.074.051-.137.117-.184.195a.6.6 0 0 0-.066.281c0 .121.023.223.07.305a.69.69 0 0 0 .199.215c.086.063.184.121.297.172l.375.152.531.234c.16.078.297.168.414.277a1.15 1.15 0 0 1 .273.383c.066.149.094.328.094.539 0 .391-.141.691-.426.902s-.684.316-1.199.316a3.1 3.1 0 0 1-.484-.035l-.395-.082-.297-.105L0 54.723l.188-.516c.098.055.246.117.445.188s.449.102.738.102zm4.828-.172l-.168-.395-.227-.516-.262-.57-.258-.555-.227-.469-.172-.316-.113 1.648-.078 1.789h-.609l.059-1.168.074-1.164.09-1.109.105-1.027h.543c.117.188.238.414.371.672l.398.809.383.844.34.773.34-.773.387-.844.395-.809.371-.672h.547l.324 4.469h-.605l-.078-1.789-.117-1.648-.168.316-.227.469-.262.555-.258.57-.227.516-.172.395zm7.016.617l-.207-.57-.195-.57h-2.012l-.406 1.141H9.75l.48-1.312.438-1.145.426-1.035.441-.977h.57l.441.977.426 1.035.441 1.145.48 1.313zm-.582-1.656l-.406-1.086-.422-1.012-.426 1.012-.398 1.086zm4.496-.215l.258.34.324.465.328.531.281.535h-.68l-.277-.496-.305-.48-.305-.43-.273-.348-.168.008h-.734v1.746h-.621v-4.406a3.57 3.57 0 0 1 .586-.086l.594-.023c.621 0 1.098.121 1.422.355s.492.59.492 1.059c0 .297-.078.551-.234.762s-.387.367-.687.469zm-.941-2.094l-.609.02v1.684h.441c.215 0 .406-.012.578-.035a1.21 1.21 0 0 0 .43-.121.64.64 0 0 0 .273-.254c.062-.109.098-.254.098-.437a.84.84 0 0 0-.098-.418.7.7 0 0 0-.258-.266 1.13 1.13 0 0 0-.387-.133 2.56 2.56 0 0 0-.469-.039zm6.227-.504v.543h-1.398v3.926h-.621v-3.926H19v-.543zm4.156 4.469l-.324-.535-.395-.613-.437-.648-.453-.637-.434-.578-.391-.477v3.488h-.609v-4.469h.492l.645.75.68.887.633.891.504.781v-3.309h.609v4.469zm2.082 0v-4.469h2.707v.535h-2.086v1.328h1.855v.523h-1.855v1.547h2.246v.535zm5.148-.445c.648 0 .973-.223.973-.668a.65.65 0 0 0-.086-.352.85.85 0 0 0-.234-.254 1.62 1.62 0 0 0-.336-.184l-.398-.152-.461-.191a1.55 1.55 0 0 1-.379-.254 1.11 1.11 0 0 1-.254-.344 1.12 1.12 0 0 1-.094-.484c0-.391.133-.695.398-.914s.629-.332 1.094-.332c.27 0 .516.031.734.09s.383.121.484.191l-.199.508c-.09-.055-.223-.109-.398-.164s-.383-.082-.621-.082a1.49 1.49 0 0 0-.332.039.94.94 0 0 0-.27.117.58.58 0 0 0-.18.195c-.043.078-.07.176-.07.281 0 .121.023.223.07.305a.69.69 0 0 0 .199.215c.086.063.188.121.301.172l.371.152.531.234c.16.078.297.168.414.277s.211.234.273.383.098.328.098.539c0 .391-.145.691-.426.902s-.687.316-1.203.316a3.1 3.1 0 0 1-.484-.035l-.395-.082-.297-.105-.195-.094.188-.516a2.99 2.99 0 0 0 .449.188c.203.071.445.102.734.102zm3.871 0c.648 0 .973-.223.973-.668a.69.69 0 0 0-.086-.352.85.85 0 0 0-.234-.254 1.62 1.62 0 0 0-.336-.184l-.402-.152-.461-.191a1.61 1.61 0 0 1-.379-.254 1 1 0 0 1-.25-.344c-.062-.133-.094-.293-.094-.484 0-.391.133-.695.398-.914s.629-.332 1.094-.332c.27 0 .512.031.734.09s.379.121.48.191l-.195.508c-.09-.055-.223-.109-.402-.164a2.09 2.09 0 0 0-.617-.082 1.46 1.46 0 0 0-.332.039c-.105.027-.195.066-.27.117s-.137.117-.184.195a.6.6 0 0 0-.066.281c0 .121.023.223.07.305a.69.69 0 0 0 .199.215c.086.063.184.121.297.172l.375.152.527.234c.16.078.301.168.418.277a1.1 1.1 0 0 1 .27.383c.063.149.098.328.098.539 0 .391-.141.691-.426.902s-.684.316-1.199.316c-.176 0-.34-.012-.484-.035l-.395-.082-.297-.105a1.56 1.56 0 0 1-.195-.094l.184-.516c.098.055.25.117.449.188s.445.102.738.102zm5.031-4.023h.621v4.469h-.621zm5.227 4.469l-.32-.535-.395-.613-.441-.648-.449-.637-.437-.578-.391-.477v3.488h-.605v-4.469h.492l.645.75.676.887.637.891.5.781v-3.309h.609v4.469zm7.926-2.238a2.66 2.66 0 0 1-.18 1.012 1.85 1.85 0 0 1-.508.707 2.12 2.12 0 0 1-.781.422c-.301.09-.637.137-1 .137a10.86 10.86 0 0 1-.59-.02c-.215-.012-.41-.047-.586-.09v-4.336a3.57 3.57 0 0 1 .586-.086l.59-.023c.363 0 .699.047 1 .141a2.14 2.14 0 0 1 .781.418 1.94 1.94 0 0 1 .508.711c.121.285.18.621.18 1.008zm-2.414 1.73c.586 0 1.027-.152 1.316-.457s.438-.727.438-1.273-.145-.969-.437-1.273-.73-.453-1.316-.453l-.41.004-.199.016v3.418l.199.012.41.008zm3.797-3.961h.621v4.469h-.621zm4.895 2.27h.621v2.09a1.45 1.45 0 0 1-.223.059l-.332.066-.414.055a4.24 4.24 0 0 1-.453.023 2.28 2.28 0 0 1-.852-.156c-.258-.105-.477-.254-.66-.453s-.328-.441-.426-.727a3.08 3.08 0 0 1-.152-.996 2.73 2.73 0 0 1 .172-.996 2.15 2.15 0 0 1 .457-.73 1.99 1.99 0 0 1 .676-.453c.258-.105.535-.156.828-.156a3.63 3.63 0 0 1 .535.039c.156.023.289.059.402.094s.199.066.27.102l.145.078-.199.523a1.53 1.53 0 0 0-.492-.203 2.41 2.41 0 0 0-.625-.082 1.53 1.53 0 0 0-.621.121 1.28 1.28 0 0 0-.473.355 1.76 1.76 0 0 0-.305.566 2.31 2.31 0 0 0-.109.742 2.65 2.65 0 0 0 .094.73 1.6 1.6 0 0 0 .281.563c.125.157.281.281.469.367s.402.129.656.129c.18 0 .332-.012.457-.031l.273-.055zm2.055-2.27h.621v4.469h-.621zm5.152 0v.543h-1.398v3.926h-.621v-3.926h-1.395v-.543zm3.668 4.469l-.203-.57-.199-.57h-2.012l-.402 1.141h-.648l.48-1.312.438-1.145.426-1.035.441-.977h.57l.445.977.426 1.035.438 1.145.48 1.313zm-.582-1.656l-.406-1.086-.422-1.012-.426 1.012-.398 1.086zm4.995 1.116v.539H74.75v-4.469h.621v3.93zm4.344.094c.648 0 .973-.223.973-.668a.65.65 0 0 0-.086-.352.85.85 0 0 0-.234-.254 1.62 1.62 0 0 0-.336-.184l-.402-.152-.461-.191a1.54 1.54 0 0 1-.375-.254 1.01 1.01 0 0 1-.254-.344c-.062-.133-.094-.293-.094-.484 0-.391.133-.695.398-.914s.629-.332 1.094-.332c.27 0 .516.031.734.09s.379.121.484.191l-.199.508c-.09-.055-.223-.109-.402-.164a2.09 2.09 0 0 0-.617-.082 1.49 1.49 0 0 0-.332.039.94.94 0 0 0-.27.117.59.59 0 0 0-.184.195.6.6 0 0 0-.066.281c0 .121.023.223.07.305a.69.69 0 0 0 .199.215c.086.063.184.121.297.172l.375.152.527.234c.16.078.301.168.418.277a1.15 1.15 0 0 1 .273.383c.066.149.094.328.094.539 0 .391-.141.691-.426.902s-.684.316-1.199.316a3.1 3.1 0 0 1-.484-.035l-.395-.082-.297-.105a1.56 1.56 0 0 1-.195-.094l.184-.516c.098.055.25.117.449.188s.445.102.738.102zm5.801.445l-.203-.57-.199-.57h-2.012l-.402 1.141h-.648l.48-1.312.438-1.145.43-1.035.441-.977h.57l.441.977.426 1.035.438 1.145.48 1.313zm-.582-1.656l-.406-1.086-.418-1.012-.426 1.012-.402 1.086zm4.995 1.117v.539h-2.672v-4.469h.621v3.93zm1.114.539v-4.469h2.711v.535h-2.086v1.328h1.855v.523h-1.855v1.547h2.246v.535zm5.152-.445c.648 0 .973-.223.973-.668a.65.65 0 0 0-.086-.352.85.85 0 0 0-.234-.254 1.62 1.62 0 0 0-.336-.184l-.402-.152-.461-.191a1.54 1.54 0 0 1-.375-.254 1.01 1.01 0 0 1-.254-.344c-.062-.133-.094-.293-.094-.484 0-.391.133-.695.398-.914s.629-.332 1.094-.332c.27 0 .516.031.734.09s.379.121.484.191l-.199.508c-.09-.055-.223-.109-.402-.164a2.09 2.09 0 0 0-.617-.082 1.49 1.49 0 0 0-.332.039.94.94 0 0 0-.27.117.59.59 0 0 0-.184.195.6.6 0 0 0-.066.281c0 .121.023.223.07.305a.69.69 0 0 0 .199.215c.086.063.184.121.297.172l.375.152.527.234c.16.078.301.168.418.277a1.15 1.15 0 0 1 .273.383c.066.149.094.328.094.539 0 .391-.141.691-.426.902s-.684.316-1.199.316a3.1 3.1 0 0 1-.484-.035l-.395-.082-.297-.105-.195-.094.184-.516c.102.055.25.117.449.188s.445.102.738.102zm0 0" fill="rgb(43.137255%,75.686275%,65.882353%)"/><path d="M51.367 6.02c-.98.41-1.629 1.34-1.715 2.391.121-.773.938-1.262 1.688-.949l4.605 1.934c1.047.441 1.73 1.469 1.73 2.613v2.609l6.309-2.645a2.84 2.84 0 0 0 1.73-2.617V0zm0 0" fill="url(#E)"/><path d="M49.664 16.477c-.016-.125-.027-.25-.027-.379v.129c0 .086.012.168.027.25zm0 0" fill="rgb(84.705882%,48.235294%,17.647059%)"/><path d="M49.664 16.477c-.016-.125-.027-.25-.027-.379v.129c0 .086.012.168.027.25zm0 0" fill="rgb(43.137255%,72.156863%,63.921569%)"/><path d="M49.637 8.605v.031c0-.078.012-.152.016-.227l-.016.195zm0 0" fill="rgb(25.882353%,25.490196%,57.647059%)"/><path d="M56.27 20.777l-4.898-2.059a2.83 2.83 0 0 1-1.707-2.242c-.016-.082-.027-.164-.027-.25v-2.734l-6.312 2.648a2.83 2.83 0 0 0-1.727 2.613v9.359l13.566-5.695-.059.008c.676-.281 1.121-.926 1.164-1.648zm0 0" fill="url(#F)"/><path d="M51.254 17.313c-.691.289-1.441-.141-1.59-.836a2.83 2.83 0 0 0 1.707 2.242l3.75 1.574a1.16 1.16 0 0 1 .004 2.125l-.02.008.059-.008 1.215-.508c.785-.332 1.297-1.102 1.297-1.957v-5.336zm0 0" fill="url(#G)"/><path d="M55.945 9.395L51.34 7.461c-.75-.312-1.566.176-1.687.949l-.016.227v7.461c0 .047.008.086.008.133l-.008-.004s-.008 1.082.879 1.93c.43.477 1.66.902 1.66.902-.934-.395-.941-1.723-.012-2.129l5.512-2.312v-2.609c0-1.145-.684-2.172-1.73-2.613zm0 0" fill="url(#H)"/><path d="M51.34 7.461c-1.473-.484-.207-1.348.266-1.539l-.172.066c-.441.176-.941.504-1.34 1.105-.281.422-.457 1.008-.457 1.543.879.395 1.703-1.176 1.703-1.176zm0 0" fill="url(#I)"/></svg>