<svg width="131" height="41" viewBox="0 0 131 41" fill="none" xmlns="http://www.w3.org/2000/svg">
<path fill-rule="evenodd" clip-rule="evenodd" d="M60.2016 15.6C61.223 14.4857 62.6159 13.9286 64.2873 13.9286C65.773 13.9286 66.9802 14.3929 67.8159 15.3214C68.7444 16.1572 69.2087 17.3643 69.2087 18.7571V26.5572H64.8445V19.5C64.8445 18.3857 64.0087 17.55 62.8945 17.55C61.5016 17.55 60.5731 18.4786 60.5731 19.9643V26.5572H56.2087V14.2072H59.6445L60.2016 15.6ZM53.7944 8.54288H49.4302V12.9072H53.7944V8.54288ZM53.7944 14.3H49.4302V26.65H53.7944V14.3ZM124.83 13.9286C126.502 13.9286 127.802 14.5786 128.916 15.7857C129.937 16.9929 130.494 18.5714 130.402 20.6143C130.402 22.4714 129.937 24.05 128.823 25.2571C127.802 26.3714 126.409 27.0214 124.737 27.0214C123.437 27.0214 122.416 26.5572 121.394 25.8143V31.85H117.03V14.3H120.559L121.116 15.4143C122.137 14.3929 123.344 13.9286 124.83 13.9286ZM121.394 21.0786C121.394 22.4714 122.323 23.4929 123.623 23.4929C125.016 23.4929 126.037 22.1929 126.037 20.4286C126.037 18.5714 125.016 17.3643 123.623 17.3643C122.323 17.3643 121.394 18.3857 121.394 19.7786V21.0786ZM109.973 10.9572C109.973 9.47144 111.087 8.45001 112.48 8.45001C113.966 8.45001 114.987 9.5643 114.987 10.9572C114.987 12.35 113.966 13.4643 112.48 13.4643C111.087 13.4643 109.973 12.35 109.973 10.9572ZM114.616 14.3H110.252V26.65H114.616V14.3ZM86.8516 13.9286C88.9873 13.9286 90.6588 14.5786 91.9587 15.7857C93.2587 16.9929 93.9088 18.5714 93.9088 20.5214C93.9088 22.3786 93.2587 23.9572 91.9587 25.1643C90.6588 26.2786 88.8945 26.9286 86.8516 26.9286C84.8088 26.9286 83.1373 26.2786 81.7444 25.0714C80.4445 23.8643 79.7944 22.2857 79.7944 20.4286C79.7944 18.5714 80.4445 16.9929 81.7444 15.7857C83.1373 14.4857 84.8088 13.9286 86.8516 13.9286ZM84.3445 20.4286C84.3445 22.1929 85.3659 23.4929 86.8516 23.4929C88.3373 23.4929 89.4516 22.2857 89.4516 20.4286C89.4516 18.6643 88.3373 17.3643 86.8516 17.3643C85.3659 17.3643 84.3445 18.5714 84.3445 20.4286ZM79.0317 12.37C78.6238 12.3069 78.3021 12.2571 78.0302 12.2571C77.1945 12.2571 76.7302 12.7214 76.7302 13.5572V14.3H79.2373V17.6429H76.7302V26.65H72.3659V17.6429H70.3231V14.3H72.3659V13.1857C72.3659 11.8857 72.8302 10.8643 73.6659 10.0286C74.5016 9.19287 75.6159 8.82144 77.0087 8.82144C78.0302 8.82144 79.0516 8.91431 80.0731 9.19287L79.5159 12.4429C79.3417 12.418 79.1809 12.3931 79.0317 12.37ZM102.916 13.9286C104.587 13.9286 105.887 14.5786 107.002 15.7857C108.116 16.9929 108.673 18.5714 108.673 20.5214C108.673 22.3786 108.116 23.9572 107.002 25.1643C105.98 26.2786 104.587 26.9286 102.916 26.9286C101.43 26.9286 100.223 26.3714 99.2944 25.4429L98.7373 26.5572H95.2087V9.00714H99.573V15.1357C100.502 14.3 101.616 13.9286 102.916 13.9286ZM99.573 21.0786C99.573 22.4714 100.502 23.4929 101.802 23.4929C103.194 23.4929 104.216 22.1929 104.216 20.4286C104.216 18.5714 103.194 17.3643 101.802 17.3643C100.502 17.3643 99.573 18.3857 99.573 19.7786V21.0786Z" fill="#373A3B"/>
<path fill-rule="evenodd" clip-rule="evenodd" d="M0.494385 20.15C0.494385 9.00714 9.50153 0 20.6444 0C31.6944 0 40.6087 8.91428 40.7944 19.8714C40.9801 31.1071 31.6015 40.4857 20.3658 40.3C9.40869 40.1143 0.494385 31.2 0.494385 20.15ZM20.6444 35.2857C25.6587 35.2857 29.9301 33.9857 32.1587 31.7571C34.3873 29.5286 35.6873 25.2571 35.6873 20.2429C35.6873 15.2286 34.3873 10.9572 32.1587 8.72858C29.9301 6.5 25.6587 5.20001 20.6444 5.20001C15.6301 5.20001 11.3586 6.5 9.13013 8.72858C6.90155 10.9572 5.6015 15.2286 5.6015 20.2429C5.6015 25.2571 6.90155 29.5286 9.13013 31.7571C11.2658 33.9857 15.6301 35.2857 20.6444 35.2857ZM30.1158 10.6786C28.5373 9.09998 24.823 8.07855 20.6444 8.07855C16.4659 8.07855 12.7516 9.09998 11.173 10.6786C9.59442 12.2571 8.573 15.9714 8.573 20.15C8.573 24.3286 9.59442 28.0428 11.173 29.6214C12.7516 31.2 16.4659 32.2214 20.6444 32.2214C24.823 32.2214 28.5373 31.2 30.1158 29.6214C30.8587 28.8786 31.5087 27.4857 31.973 25.9071C32.4373 24.2357 32.7159 22.2857 32.7159 20.2428C32.623 15.9714 31.6945 12.2571 30.1158 10.6786ZM26.4016 25.9071C26.0302 26.2786 25.1016 27.2071 20.5516 27.2071C16.318 27.2071 15.2197 26.3228 14.7881 25.9754C14.7559 25.9495 14.7274 25.9265 14.7016 25.9071C14.6865 25.8871 14.6696 25.8654 14.6509 25.8416C14.3254 25.4248 13.4944 24.3614 13.4944 20.0571C13.4944 15.8236 14.3787 14.7253 14.7261 14.2938C14.7521 14.2615 14.7751 14.233 14.7944 14.2071C15.073 13.8357 16.0944 12.9071 20.6444 12.9071C24.8779 12.9071 25.9763 13.7914 26.4078 14.1388C26.4401 14.1648 26.4686 14.1877 26.4944 14.2071C26.5138 14.233 26.5367 14.2615 26.5627 14.2938C26.9102 14.7253 27.7944 15.8236 27.7944 20.0571C27.7944 24.5207 26.8115 25.4991 26.4234 25.8853L26.4016 25.9071ZM24.5443 17.3643V22.8429C24.5443 23.4929 23.9872 23.9572 23.43 23.9572H17.9514C17.3015 23.9572 16.8372 23.4 16.8372 22.8429V17.3643C16.8372 16.7143 17.3943 16.25 17.9514 16.25H23.43C24.08 16.25 24.5443 16.7143 24.5443 17.3643Z" fill="#EF5D2F"/>
</svg>
