<?xml version="1.0" encoding="UTF-8"?>
<svg width="120px" height="32px" viewBox="0 0 120 32" version="1.1" xmlns="http://www.w3.org/2000/svg" xmlns:xlink="http://www.w3.org/1999/xlink">
    <!-- Generator: Sketch 52.4 (67378) - http://www.bohemiancoding.com/sketch -->
    <title>Artboard</title>
    <desc>Created with Sketch.</desc>
    <g id="Artboard" stroke="none" stroke-width="1" fill="none" fill-rule="evenodd">
        <path d="M34.1632653,10 C35.0204082,11.04 35.3061224,12.68 34.9795918,14.92 L33.4285714,25.6 L26.6938776,25.6 L28.0408163,16.36 C28.2040816,15.32 28.122449,14.56 27.755102,14.12 C27.3877551,13.68 26.8979592,13.44 26.1632653,13.44 C25.3469388,13.44 24.6530612,13.76 24.0408163,14.32 C23.4285714,14.92 23.0612245,15.96 22.8163265,17.52 L21.6326531,25.64 L14.9795918,25.64 L17.4285714,8.84 L23.6734694,8.84 L23.2653061,11.56 C24.3265306,10.44 25.4285714,9.64 26.4489796,9.16 C27.4693878,8.68 28.6938776,8.4 30.0408163,8.4 C31.877551,8.4 33.2653061,8.92 34.1632653,10 Z M49.3469388,8.8 L46.122449,8.8 C46.244898,8.04 46.3265306,7.56 46.4489796,7.32 C46.6122449,6.88 46.8571429,6.56 47.1428571,6.4 C47.4285714,6.2 47.877551,6.12 48.4897959,6.12 C48.9795918,6.12 49.5918367,6.2 50.4081633,6.32 L51.7142857,2.4 C49.5102041,2.12 47.8367347,2 46.6530612,2 C45.1836735,2 44.0816327,2.16 43.2244898,2.48 C42.4081633,2.8 41.755102,3.24 41.2653061,3.76 C40.7346939,4.28 40.4081633,4.96 40.122449,5.8 C39.8367347,6.64 39.6326531,7.4 39.5510204,8.08 L39.4285714,8.88 L36.9795918,8.88 L36.3265306,13.56 L38.8163265,13.56 L37.0204082,25.64 L43.6734694,25.64 L45.4693878,13.56 L48.6530612,13.56 L49.3469388,8.8 Z M67.2653061,11.32 C68.4489796,12.88 68.8979592,14.84 68.5306122,17.12 C68.1632653,19.68 66.9387755,21.84 64.9387755,23.48 C62.8979592,25.12 60.3673469,25.92 57.2244898,25.92 C54.4489796,25.92 52.244898,25.2 50.7346939,23.84 C48.8571429,22.12 48.1632653,19.88 48.5306122,17.16 C48.8979592,14.6 50.122449,12.48 52.1632653,10.84 C54.2040816,9.16 56.7346939,8.36 59.7959184,8.36 C63.2653061,8.4 65.7142857,9.36 67.2653061,11.32 Z M61.3877551,13.88 C60.8571429,13.16 60.1632653,12.84 59.2244898,12.84 C58.2857143,12.84 57.3877551,13.2 56.6938776,13.92 C55.9183673,14.64 55.4693878,15.76 55.2653061,17.24 C55.0204082,18.76 55.1836735,19.84 55.7142857,20.56 C56.244898,21.28 56.9795918,21.64 57.9591837,21.64 C58.9387755,21.64 59.755102,21.28 60.4489796,20.6 C61.1836735,19.88 61.6326531,18.76 61.877551,17.2 C62.0408163,15.68 61.9183673,14.64 61.3877551,13.88 Z M88.4897959,10.6 C89.6326531,12.08 90.0408163,14.2 89.6326531,16.96 C89.3469388,18.8 88.8163265,20.44 87.9591837,21.8 C87.1428571,23.2 86.0816327,24.24 84.8571429,24.92 C83.6326531,25.64 82.3673469,25.96 80.9795918,25.96 C79.8367347,25.96 78.7755102,25.72 77.877551,25.2 C77.1836735,24.8 76.5306122,24.12 75.7959184,23.04 L75.4285714,25.52 L69.1836735,25.52 L72.6122449,2.32 L79.3469388,2.32 L78.1632653,10.4 C78.9387755,9.72 79.755102,9.24 80.6530612,8.88 C81.5510204,8.52 82.5306122,8.36 83.5102041,8.36 C85.6326531,8.4 87.3061224,9.12 88.4897959,10.6 Z M82.5714286,14.16 C82.122449,13.52 81.5510204,13.24 80.7755102,13.24 C79.877551,13.24 79.0612245,13.56 78.4081633,14.2 C77.7142857,14.88 77.3061224,15.84 77.1428571,17.16 C76.9387755,18.6 77.0612245,19.64 77.5510204,20.32 C78.0408163,21 78.6530612,21.28 79.5510204,21.28 C80.3673469,21.28 81.0612245,20.96 81.7142857,20.32 C82.3673469,19.68 82.7755102,18.6 82.9795918,17.08 C83.1428571,15.76 83.0204082,14.76 82.5714286,14.16 Z M92.7346939,8.8 L90.2857143,25.6 L96.9795918,25.6 L99.4285714,8.8 L92.7346939,8.8 Z M7.83673469,8.28 L8.32653061,5.08 C8.40816327,4.36 9.2244898,4.4 9.2244898,4.4 L15.4693878,4.4 L16.122449,0 L9.46938776,0 L8.89795918,3.68 C8.7755102,4.52 8.28571429,4.4 8.08163265,4.4 L0.897959184,4.4 L0.244897959,8.8 L7.55102041,8.8 C7.83673469,8.84 8.24489796,8.72 8.08163265,9.6 L5.71428571,25.6 L12.4081633,25.6 L14.8571429,8.8 L8.48979592,8.8 C8.20408163,8.76 7.79591837,8.68 7.83673469,8.28 Z M119.632653,14 C119.714286,14.76 119.755102,15.56 119.673469,16.48 C119.673469,16.76 119.632653,17.04 119.591837,17.32 C119.183673,20.12 118.163265,22.24 116.571429,23.72 C114.979592,25.2 113.102041,25.96 110.979592,25.96 C109.959184,25.96 109.020408,25.8 108.244898,25.44 C107.428571,25.08 106.77551,24.6 106.204082,23.92 L105.020408,32 L98.2857143,32 L101.714286,8.8 L107.959184,8.8 L107.591837,11.28 C110.040816,8.68 117.510204,7 119.346939,12.56 C119.387755,12.64 119.387755,12.72 119.428571,12.84 C119.469388,12.96 119.510204,13.12 119.55102,13.24 C119.591837,13.36 119.591837,13.44 119.591837,13.56 C119.591837,13.64 119.591837,13.8 119.632653,14 Z M112.612245,14.08 C112.163265,13.44 111.55102,13.16 110.734694,13.16 C109.918367,13.16 109.142857,13.48 108.44898,14.12 C107.755102,14.8 107.346939,15.8 107.142857,17.24 C106.938776,18.56 107.102041,19.56 107.591837,20.2 C108.081633,20.88 108.734694,21.16 109.673469,21.16 C110.44898,21.16 111.142857,20.84 111.755102,20.24 C112.367347,19.6 112.77551,18.56 112.979592,17.08 C113.142857,15.72 113.061224,14.76 112.612245,14.08 Z" id="Shape" fill="#FF6002" fill-rule="nonzero"></path>
    </g>
</svg>