<?xml version="1.0" encoding="UTF-8"?>
<svg width="172px" height="40px" viewBox="0 0 172 40" version="1.1" xmlns="http://www.w3.org/2000/svg" xmlns:xlink="http://www.w3.org/1999/xlink">
    <!-- Generator: Sketch 52.4 (67378) - http://www.bohemiancoding.com/sketch -->
    <title>infusionsoft</title>
    <desc>Created with Sketch.</desc>
    <g id="Page-1" stroke="none" stroke-width="1" fill="none" fill-rule="evenodd">
        <g id="infusionsoft">
            <path d="M23.8506,1.81348 L23.8506,22.8837 L20.3369,22.8837 L20.3369,1.81348 L23.8506,1.81348 Z M37.9059,22.8836 L37.9059,14.1888 C37.9059,11.735 36.7879,10.5082 34.5519,10.5082 C32.1562,10.5082 30.6655,12.5352 30.6655,14.8822 L30.6655,22.8836 L27.3115,22.8836 L27.3115,7.89439 L30.5058,7.89439 L30.5058,9.33463 L31.1979,9.33463 C32.0497,8.1611 33.5404,7.521 35.5102,7.521 C39.2368,7.521 41.1534,9.81471 41.1534,13.5487 L41.1534,22.9369 L37.9059,22.9369 L37.9059,22.8836 Z M48.3395,10.7215 L48.3395,22.9369 L44.9855,22.9369 L44.9855,10.7215 L42.5898,10.7215 L42.5898,7.89435 L44.9855,7.89435 L44.9855,6.50745 C44.9855,2.93352 47.1683,1.43994 50.5755,1.43994 L52.2791,1.43994 L52.2791,4.26708 L50.5755,4.26708 C48.8719,4.26708 48.2863,5.33393 48.2863,6.61414 L48.2863,7.84101 L52.2259,7.84101 L52.2259,10.6681 L48.3395,10.6681 L48.3395,10.7215 Z M57.1245,7.89453 L57.1245,16.6427 C57.1245,19.0964 58.2425,20.3233 60.4785,20.3233 C62.8742,20.3233 64.3648,18.2963 64.3648,15.9492 L64.3648,7.94787 L67.7188,7.94787 L67.7188,22.9904 L64.5245,22.9904 L64.5245,21.5501 L63.8324,21.5501 C62.9806,22.7237 61.49,23.3638 59.5202,23.3638 C55.7935,23.3638 53.877,21.0701 53.877,17.3361 L53.877,7.89453 L57.1245,7.89453 Z M79.1643,11.8948 C78.9514,10.6146 77.7269,10.2945 76.2363,10.2945 C74.6391,10.2945 73.5211,10.7746 73.5211,11.8415 C73.5211,12.8016 74.16,13.1217 75.4377,13.3351 L78.3658,13.8151 C81.0809,14.2419 82.9442,15.6821 82.9442,18.4559 C82.9442,20.963 80.7615,23.2567 76.5024,23.2567 C72.1369,23.2567 69.9542,21.283 69.6348,18.3492 L72.9887,18.3492 C73.2549,19.8961 74.4794,20.4829 76.4492,20.4829 C78.3658,20.4829 79.5902,19.8961 79.5902,18.5092 C79.5902,17.3357 78.8981,16.8023 77.1413,16.4822 L74.0003,15.9488 C71.7643,15.5754 70.1671,14.3486 70.1671,12.0015 C70.1671,9.44107 72.0837,7.41406 76.3427,7.41406 C80.0161,7.41406 82.1989,9.17436 82.5183,11.7881 L79.1643,11.7881 L79.1643,11.8948 Z M84.9678,4.64048 L84.9678,1.43994 L88.375,1.43994 L88.375,4.64048 L84.9678,4.64048 Z M88.3218,22.8835 L84.9678,22.8835 L84.9678,7.89435 L88.3218,7.89435 L88.3218,22.8835 Z M105.731,15.3624 C105.731,19.9499 102.856,23.2571 98.1711,23.2571 C93.4862,23.2571 90.6113,19.9499 90.6113,15.3624 C90.6113,10.775 93.4862,7.46777 98.1711,7.46777 C102.856,7.46777 105.731,10.775 105.731,15.3624 Z M102.43,15.3624 C102.43,12.7487 101.099,10.2949 98.1711,10.2949 C95.243,10.2949 93.9121,12.6953 93.9121,15.3624 C93.9121,18.0295 95.243,20.4299 98.1711,20.4299 C101.099,20.4299 102.43,18.0829 102.43,15.3624 Z M118.561,22.8836 L118.561,14.1888 C118.561,11.735 117.443,10.5082 115.207,10.5082 C112.811,10.5082 111.321,12.5352 111.321,14.8822 L111.321,22.8836 L107.967,22.8836 L107.967,7.89439 L111.161,7.89439 L111.161,9.33463 L111.853,9.33463 C112.705,8.1611 114.196,7.521 116.165,7.521 C119.892,7.521 121.809,9.81471 121.809,13.5487 L121.809,22.9369 L118.561,22.9369 L118.561,22.8836 Z M-3.55271368e-15,19.2564 L-3.55271368e-15,9.65479 L9.74253,13.1754 L1.0010444,18.6315776 L13.0433,22.9901 L13.0433,14.402 L10.3814,13.4419 L9.74253,13.1751 L10.7008,12.5884 L13.9483,13.7619 L13.9483,24.2703 L0.000203324763,19.2562731 L-3.55271368e-15,19.2564 Z M12.7771,11.3082 L10.7008,12.5884 L1.15463195e-14,8.7478 L12.7771,0.799805 L12.7771,11.3082 Z M142.737,37.1084 L142.737,28.7294 L144.486,28.7294 L144.486,32.1913 L147.913,28.7294 L149.955,28.7294 L147.443,31.3581 L150.354,37.1084 L148.429,37.1084 L146.305,32.8954 L146,32.8954 L144.486,34.4093 L144.486,37.1084 L142.737,37.1084 Z M156.905,33.7873 L156.905,34.2802 L152.587,34.2802 C152.634,35.3129 153.115,35.8997 154.054,35.8997 C154.676,35.8997 155.028,35.6767 155.18,35.266 L156.847,35.266 C156.6,36.4747 155.673,37.261 154.03,37.261 C152.117,37.261 150.955,35.9935 150.955,34.069 C150.955,32.1444 152.129,30.9239 153.995,30.9239 C155.826,30.9239 156.87,32.1444 156.905,33.7873 Z M153.983,32.1561 C153.197,32.1561 152.798,32.5786 152.645,33.1888 L155.227,33.1888 C155.133,32.5786 154.734,32.1561 153.983,32.1561 Z M162.006,37.1084 L162.006,36.592 L161.701,36.592 C161.337,37.0145 160.809,37.261 160.011,37.261 C158.65,37.261 157.875,36.3221 157.875,35.2542 C157.875,34.3154 158.544,33.2475 160.328,33.2475 L161.936,33.2475 L161.936,33.0949 C161.936,32.473 161.584,32.1561 160.868,32.1561 C160.211,32.1561 159.894,32.3908 159.847,32.8015 L158.216,32.8015 C158.251,31.6398 159.331,30.9239 160.786,30.9239 C162.417,30.9239 163.52,31.5693 163.52,33.1888 L163.52,37.1084 L162.006,37.1084 Z M160.586,35.9583 C161.384,35.9583 161.936,35.442 161.936,34.6909 L161.936,34.3154 L160.645,34.3154 C159.941,34.3154 159.518,34.5736 159.518,35.1251 C159.518,35.6767 159.917,35.9583 160.586,35.9583 Z M168.225,32.2969 C167.204,32.2969 166.758,33.1419 166.758,34.0924 C166.758,35.043 167.204,35.8997 168.225,35.8997 C169.211,35.8997 169.669,35.0899 169.669,34.0924 C169.669,33.0949 169.211,32.2969 168.225,32.2969 Z M165.174,31.0765 L166.758,31.0765 L166.758,31.628 L167.063,31.628 C167.392,31.2173 167.908,30.9239 168.753,30.9239 C170.349,30.9239 171.312,32.2735 171.312,34.0924 C171.312,35.9349 170.338,37.261 168.753,37.261 C167.92,37.261 167.439,36.9793 167.122,36.5568 L166.817,36.5568 L166.817,39.4555 L165.174,39.4555 L165.174,31.0765 Z" id="Combined-Shape" fill="#36A635"></path>
            <path d="M123.672,18.7762 L125.482,18.7762 C125.855,20.6432 127.399,21.6034 129.847,21.6034 C132.403,21.6034 134.053,20.6432 134.053,18.7762 C134.053,17.336 133.255,16.4292 131.125,16.1091 C130.486,16.0024 128.623,15.7357 127.611,15.469 C125.642,15.0956 124.204,14.0288 124.204,11.9484 C124.204,9.54801 126.068,7.73438 129.847,7.73438 C133.201,7.73438 135.171,9.33464 135.491,11.8417 L133.681,11.8417 C133.468,10.2415 131.817,9.38798 129.741,9.38798 C127.399,9.38798 126.068,10.2948 126.068,11.7884 C126.068,13.0686 126.866,13.6554 128.57,13.9754 C129.049,14.0821 129.581,14.1354 130.007,14.1888 L131.817,14.5088 C134.266,14.9356 135.863,16.2158 135.863,18.7229 C135.863,21.0699 133.787,23.257 130.007,23.257 C126.068,23.3103 124.098,21.4967 123.672,18.7762 Z M151.515,15.5223 C151.515,19.7897 148.959,23.3103 144.434,23.3103 C139.856,23.3103 137.354,19.8431 137.354,15.5223 C137.354,11.2016 139.856,7.73438 144.434,7.73438 C149.013,7.73438 151.515,11.255 151.515,15.5223 Z M149.651,15.5223 C149.651,12.4285 147.948,9.38798 144.434,9.38798 C140.814,9.38798 139.217,12.3751 139.217,15.5223 C139.217,18.6695 140.814,21.6567 144.434,21.6567 C147.948,21.6567 149.651,18.6162 149.651,15.5223 Z M156.998,9.81467 L156.998,22.9369 L155.135,22.9369 L155.135,9.81467 L152.42,9.81467 L152.42,8.16106 L155.135,8.16106 L155.135,6.1874 C155.135,3.04021 156.732,1.43994 159.873,1.43994 L161.098,1.43994 L161.098,3.09355 L159.873,3.09355 C157.69,3.09355 156.945,4.42711 156.945,6.1874 L156.945,8.16106 L161.044,8.16106 L161.044,9.81467 L156.998,9.81467 Z M171,8.16116 L171,9.81477 L167.06,9.81477 L167.06,18.7763 C167.06,20.4832 167.752,21.2834 169.988,21.2834 L171,21.2834 L171,22.937 L169.988,22.937 C166.847,22.937 165.25,21.9235 165.25,18.9896 L165.25,9.81477 L162.535,9.81477 L162.535,8.16116 L165.25,8.16116 L165.25,3.57373 L167.114,3.57373 L167.114,8.16116 L171,8.16116 Z" id="Combined-Shape" fill="#3A3A3A"></path>
            <path d="M128.448,30.9239 C127.614,30.9239 127.133,31.2055 126.816,31.628 L126.511,31.628 L126.511,28.5768 L124.868,28.5768 L124.868,37.1084 L126.453,37.1084 L126.453,36.5568 L126.758,36.5568 C127.086,36.9676 127.603,37.261 128.448,37.261 C130.044,37.261 131.006,35.9114 131.006,34.0924 C131.006,32.2735 130.032,30.9239 128.448,30.9239 Z M127.92,35.8997 C126.899,35.8997 126.453,35.043 126.453,34.0924 C126.453,33.1419 126.899,32.2969 127.92,32.2969 C128.905,32.2969 129.363,33.0949 129.363,34.0924 C129.363,35.0899 128.905,35.8997 127.92,35.8997 Z M134.663,39.4555 L138.301,31.0765 L136.646,31.0765 L135.261,34.2919 L134.956,34.2919 L133.454,31.0765 L131.741,31.0765 L134.299,36.4864 L133.02,39.4555 L134.663,39.4555 Z" id="Shape" fill="#3A3A3A" fill-rule="nonzero"></path>
        </g>
    </g>
</svg>