<svg width="158" height="36" viewBox="0 0 158 36" fill="none" xmlns="http://www.w3.org/2000/svg">
<path fill-rule="evenodd" clip-rule="evenodd" d="M22.4686 1.16372V20.4378H19.2544V1.16372H22.4686ZM35.3258 20.4378V12.4841C35.3258 10.2395 34.3031 9.11727 32.2577 9.11727C30.0662 9.11727 28.7026 10.9715 28.7026 13.1184V20.4378H25.6345V6.72627H28.5565V8.04374H29.1896C29.9688 6.97025 31.3324 6.38471 33.1343 6.38471C36.5432 6.38471 38.2965 8.4829 38.2965 11.8986V20.4865H35.3258V20.4378ZM44.87 9.31239V20.4865H41.8019V9.31239H39.6104V6.72623H41.8019V5.45756C41.8019 2.18828 43.7986 0.822018 46.9154 0.822018H48.4738V3.40816H46.9154C45.357 3.40816 44.8213 4.38407 44.8213 5.55515V6.67744H48.4251V9.26354H44.87V9.31239ZM52.9061 6.7264V14.7288C52.9061 16.9734 53.9288 18.0957 55.9742 18.0957C58.1657 18.0957 59.5292 16.2415 59.5292 14.0945V6.77519H62.5973V20.5355H59.6753V19.2179H59.0422C58.263 20.2915 56.8995 20.877 55.0976 20.877C51.6886 20.877 49.9355 18.7788 49.9355 15.3631V6.7264H52.9061ZM73.0672 10.3857C72.8724 9.2146 71.7523 8.92179 70.3888 8.92179C68.9277 8.92179 67.905 9.36096 67.905 10.3369C67.905 11.2152 68.4895 11.508 69.6582 11.7032L72.3367 12.1423C74.8204 12.5327 76.5249 13.8501 76.5249 16.3875C76.5249 18.6809 74.5282 20.7791 70.6322 20.7791C66.6388 20.7791 64.6422 18.9736 64.35 16.2899H67.418C67.6615 17.7049 68.7816 18.2417 70.5835 18.2417C72.3367 18.2417 73.4568 17.7049 73.4568 16.4362C73.4568 15.3628 72.8237 14.8748 71.2166 14.582L68.3434 14.0941C66.298 13.7525 64.8369 12.6303 64.8369 10.4833C64.8369 8.14111 66.5901 6.28689 70.4861 6.28689C73.8464 6.28689 75.8431 7.89713 76.1353 10.2881H73.0672V10.3857ZM78.376 3.74973V0.822018H81.4927V3.74973H78.376ZM81.4441 20.4377H78.376V6.72623H81.4441V20.4377ZM97.3692 13.5577C97.3692 17.7541 94.7393 20.7794 90.4538 20.7794C86.1682 20.7794 83.5384 17.7541 83.5384 13.5577C83.5384 9.36133 86.1682 6.33602 90.4538 6.33602C94.7393 6.33602 97.3692 9.36133 97.3692 13.5577ZM94.3496 13.5577C94.3496 11.1668 93.1321 8.92216 90.4538 8.92216C87.7753 8.92216 86.5578 11.1179 86.5578 13.5577C86.5578 15.9974 87.7753 18.1932 90.4538 18.1932C93.1321 18.1932 94.3496 16.0463 94.3496 13.5577ZM109.106 20.4378V12.4841C109.106 10.2395 108.083 9.11727 106.037 9.11727C103.846 9.11727 102.483 10.9715 102.483 13.1184V20.4378H99.4146V6.72627H102.336V8.04374H102.969C103.749 6.97025 105.113 6.38471 106.914 6.38471C110.323 6.38471 112.077 8.4829 112.077 11.8986V20.4865H109.106V20.4378ZM0.651123 17.1197V8.33661L9.56316 11.5571L1.56683 16.5482L12.5826 20.5352V12.6792L10.1476 11.8009L9.56316 11.5568L10.4397 11.0202L13.4104 12.0936V21.7063L0.651309 17.1196L0.651123 17.1197ZM12.3391 9.84908L10.4397 11.0202L0.651123 7.50693L12.3391 0.23645V9.84908ZM131.221 33.45V25.7852H132.821V28.952L135.955 25.7852H137.823L135.526 28.1899L138.188 33.45H136.427L134.485 29.5961H134.206L132.821 30.981V33.45H131.221ZM144.181 30.412V30.8629H140.231C140.274 31.8075 140.714 32.3443 141.573 32.3443C142.142 32.3443 142.464 32.1403 142.603 31.7646H144.128C143.902 32.8703 143.054 33.5896 141.551 33.5896C139.801 33.5896 138.738 32.4301 138.738 30.6697C138.738 28.9091 139.812 27.7927 141.519 27.7927C143.194 27.7927 144.149 28.9091 144.181 30.412ZM141.508 28.9198C140.789 28.9198 140.424 29.3063 140.284 29.8645H142.646C142.56 29.3063 142.195 28.9198 141.508 28.9198ZM148.847 33.45V32.9776H148.568C148.235 33.3641 147.752 33.5896 147.022 33.5896C145.777 33.5896 145.068 32.7307 145.068 31.7538C145.068 30.8951 145.68 29.9182 147.312 29.9182H148.783V29.7786C148.783 29.2097 148.461 28.9198 147.806 28.9198C147.205 28.9198 146.915 29.1345 146.872 29.5102H145.38C145.412 28.4476 146.4 27.7927 147.731 27.7927C149.223 27.7927 150.232 28.3831 150.232 29.8645V33.45H148.847ZM147.548 32.3979C148.278 32.3979 148.783 31.9256 148.783 31.2386V30.8951H147.602C146.958 30.8951 146.571 31.1313 146.571 31.6358C146.571 32.1403 146.936 32.3979 147.548 32.3979ZM154.536 29.0486C153.602 29.0486 153.194 29.8216 153.194 30.6911C153.194 31.5607 153.602 32.3443 154.536 32.3443C155.438 32.3443 155.857 31.6036 155.857 30.6911C155.857 29.7786 155.438 29.0486 154.536 29.0486ZM151.745 27.9323H153.194V28.4368H153.473C153.774 28.0611 154.246 27.7927 155.019 27.7927C156.479 27.7927 157.36 29.0272 157.36 30.6911C157.36 32.3765 156.469 33.5896 155.019 33.5896C154.257 33.5896 153.817 33.3319 153.527 32.9454H153.248V35.597H151.745V27.9323Z" fill="#36A635"/>
<path fill-rule="evenodd" clip-rule="evenodd" d="M113.781 16.6805H115.436C115.777 18.3883 117.19 19.2667 119.429 19.2667C121.767 19.2667 123.277 18.3883 123.277 16.6805C123.277 15.363 122.547 14.5335 120.598 14.2407C120.014 14.1431 118.309 13.8992 117.384 13.6552C115.583 13.3136 114.267 12.3378 114.267 10.4347C114.267 8.23893 115.972 6.5799 119.429 6.5799C122.497 6.5799 124.299 8.04375 124.592 10.3371H122.936C122.741 8.8733 121.231 8.09254 119.332 8.09254C117.19 8.09254 115.972 8.92206 115.972 10.2883C115.972 11.4594 116.702 11.9962 118.261 12.2889C118.699 12.3865 119.186 12.4353 119.576 12.4841L121.231 12.7768C123.471 13.1673 124.932 14.3383 124.932 16.6317C124.932 18.7787 123.033 20.7793 119.576 20.7793C115.972 20.8281 114.17 19.1691 113.781 16.6805ZM139.25 13.7039C139.25 17.6076 136.912 20.8281 132.773 20.8281C128.585 20.8281 126.296 17.6564 126.296 13.7039C126.296 9.75156 128.585 6.5799 132.773 6.5799C136.961 6.5799 139.25 9.80041 139.25 13.7039ZM137.545 13.7039C137.545 10.8739 135.987 8.09254 132.773 8.09254C129.461 8.09254 128 10.825 128 13.7039C128 16.5829 129.461 19.3154 132.773 19.3154C135.987 19.3154 137.545 16.5341 137.545 13.7039ZM144.266 8.48286V20.4865H142.562V8.48286H140.078V6.97021H142.562V5.16479C142.562 2.28588 144.022 0.822021 146.896 0.822021H148.016V2.33467H146.896C144.899 2.33467 144.217 3.55455 144.217 5.16479V6.97021H147.967V8.48286H144.266ZM157.074 6.9703V8.48295H153.47V16.6806C153.47 18.242 154.103 18.974 156.148 18.974H157.074V20.4866H156.148C153.275 20.4866 151.814 19.5595 151.814 16.8757V8.48295H149.331V6.9703H151.814V2.77392H153.519V6.9703H157.074Z" fill="#3A3A3A"/>
<path d="M118.15 27.7927C117.387 27.7927 116.947 28.0503 116.657 28.4367H116.378V25.6456H114.875V33.45H116.325V32.9454H116.604C116.904 33.3212 117.377 33.5896 118.15 33.5896C119.61 33.5896 120.49 32.355 120.49 30.6911C120.49 29.0272 119.599 27.7927 118.15 27.7927ZM117.667 32.3443C116.733 32.3443 116.325 31.5606 116.325 30.6911C116.325 29.8216 116.733 29.0486 117.667 29.0486C118.568 29.0486 118.987 29.7786 118.987 30.6911C118.987 31.6035 118.568 32.3443 117.667 32.3443ZM123.835 35.597L127.163 27.9322H125.649L124.382 30.8736H124.103L122.729 27.9322H121.162L123.502 32.881L122.332 35.597H123.835Z" fill="#3A3A3A"/>
</svg>
