<svg width="50" height="50" viewBox="0 0 50 50" fill="none" xmlns="http://www.w3.org/2000/svg">
<rect width="50" height="50" rx="10" fill="#9DC326"/>
<path fill-rule="evenodd" clip-rule="evenodd" d="M26.4915 30.546C26.4928 30.2494 26.4942 29.9536 26.4942 29.6587C26.517 29.6525 26.5331 29.647 26.5451 29.643C26.5625 29.6371 26.571 29.6342 26.5782 29.6363C26.6057 29.6463 26.632 29.6592 26.6583 29.6722C26.6693 29.6776 26.6803 29.6831 26.6914 29.6883C28.1905 30.3797 29.7359 30.7083 31.3909 30.3088C32.8255 29.9637 33.8813 29.2013 34.4512 27.8432C35.1173 26.2582 35.1429 24.6484 34.7118 23.009C34.3915 21.7904 33.6523 20.8637 32.6391 20.1131C31.509 19.2751 30.1792 19.0316 28.8189 18.9631C27.6206 18.9028 26.4308 19.0399 25.2618 19.3614C23.0089 19.9807 22.0298 21.4523 21.9762 23.4439C21.9193 25.5518 21.9296 27.6613 21.9399 29.7705C21.945 30.8251 21.9502 31.8797 21.9469 32.934C21.9457 33.2082 22.0151 33.285 22.3025 33.2815C23.5532 33.2649 24.8051 33.259 26.0558 33.2838C26.4187 33.2909 26.5124 33.2047 26.5039 32.8501C26.4846 32.0809 26.4881 31.3111 26.4915 30.546ZM26.5855 25.3064C26.5836 25.1233 26.5817 24.9402 26.5817 24.757C26.5817 24.2074 26.5817 23.6578 26.5804 23.107C26.5804 22.425 26.8325 22.0881 27.5315 21.8872C27.9371 21.7713 28.3584 21.7902 28.7639 21.8777C29.698 22.0775 29.9525 22.8032 30.0682 23.588C30.218 24.6081 30.1072 25.6068 29.8271 26.608C29.5494 27.5996 27.8506 28.1977 26.9896 27.4389C26.7375 27.2178 26.5549 26.985 26.5731 26.6162C26.5946 26.1805 26.59 25.7437 26.5855 25.3064Z" fill="white"/>
<path fill-rule="evenodd" clip-rule="evenodd" d="M14.0074 26.5344C14.0074 24.8536 14.0147 23.1729 14.0001 21.4921C13.9976 21.2167 14.0707 21.1422 14.3569 21.1446C15.8706 21.1588 17.3843 21.1588 18.8968 21.1446C19.1818 21.1422 19.2536 21.2155 19.2536 21.4909C19.2439 24.8524 19.2439 28.214 19.2536 31.5755C19.2548 31.8509 19.183 31.9254 18.8968 31.923C17.3831 31.9088 15.8694 31.9088 14.3569 31.923C14.0719 31.9254 13.9976 31.8521 14.0001 31.5767C14.0135 29.8959 14.0074 28.2151 14.0074 26.5344Z" fill="white"/>
<path fill-rule="evenodd" clip-rule="evenodd" d="M16.6209 17.0088C17.5075 16.9675 18.2698 17.1909 18.7947 17.835C19.4632 18.6541 19.1332 19.374 18.4232 19.8527C17.259 20.6363 15.822 20.6339 14.6919 19.7179C13.9442 19.1116 13.8955 18.1861 14.9367 17.4426C15.4457 17.0798 16.0412 16.9651 16.6209 17.0088Z" fill="white"/>
</svg>
