<?xml version="1.0" encoding="UTF-8"?>
<svg width="113px" height="45px" viewBox="0 0 113 45" version="1.1" xmlns="http://www.w3.org/2000/svg" xmlns:xlink="http://www.w3.org/1999/xlink">
    <!-- Generator: Sketch 52.4 (67378) - http://www.bohemiancoding.com/sketch -->
    <title>Artboard</title>
    <desc>Created with Sketch.</desc>
    <g id="Artboard" stroke="none" stroke-width="1" fill="none" fill-rule="evenodd">
        <path d="M44.6882255,5.7933371 L47.1983083,5.7933371 C47.8791178,5.7933371 48.4368118,6.34847043 48.4368118,7.02750927 L48.4368118,9.52820335 C48.4368118,10.2072422 47.8791178,10.7623755 47.1983083,10.7623755 L44.6882255,10.7623755 C44.0071098,10.7623755 43.4500283,10.2072422 43.4500283,9.52820335 L43.4500283,7.02750927 C43.4500283,6.34847043 44.0071098,5.7933371 44.6882255,5.7933371 Z M48.4368118,12.6182116 L48.4368118,32.7626239 L46.7744486,32.7626239 C44.9460939,32.7626239 43.4500283,31.2720954 43.4500283,29.4501349 L43.4500283,15.9307004 C43.4500283,14.1090452 44.9460939,12.6182116 46.7744486,12.6182116 L48.4368118,12.6182116 Z M57.1629941,12.6182116 L57.1629941,24.6733638 C57.1629941,26.8124124 58.9031466,28.546174 61.0497024,28.546174 C63.1959518,28.546174 64.9357982,26.8124124 64.9357982,24.6733638 L64.9357982,15.9307004 C64.9357982,14.1090452 66.4321702,12.6182116 68.2605247,12.6182116 L69.9222755,12.6182116 L69.9222755,24.6733638 C69.9222755,29.5563397 65.9501215,33.5152125 61.0497024,33.5152125 C56.1492833,33.5152125 52.1765167,29.5563397 52.1765167,24.6733638 L52.1765167,15.9307004 C52.1765167,14.1090452 53.6725825,12.6182116 55.500937,12.6182116 L57.1629941,12.6182116 Z M86.4975198,30.3830886 L86.4975198,29.8966221 C85.5034095,30.8756587 84.0725765,31.5809436 81.8901887,31.5809436 C76.1907449,31.5809436 72.9067506,27.1822978 72.9067506,21.7835575 C72.9067506,16.3314096 76.9668003,11.8656229 82.5118905,11.8656229 C88.2805484,11.8656229 91.4839972,16.3304941 91.4839972,21.7313707 C91.4839972,21.9031904 91.4800158,22.0740946 91.4720532,22.243778 L91.4839972,22.243778 L91.4839972,30.3412781 C91.4839972,36.1587336 87.5201121,39.5878034 81.838125,39.5878034 C78.0120557,39.5878034 74.5541072,38.2834385 74.5541072,35.1717621 L74.5541072,33.5152125 C76.5306902,34.6404332 78.4273402,35.031987 80.2419133,35.1638272 C82.8695988,35.3548737 86.4975198,34.9349377 86.4975198,30.3830886 Z M82.5118905,16.8346613 C79.9457626,16.8346613 77.8938403,18.8385126 77.8938403,21.7835575 C77.8938403,24.7286024 79.2474966,26.6119052 81.8901887,26.6119052 C84.7025472,26.6119052 86.4975198,24.4618698 86.4975198,21.7313707 C86.4975198,19.0008715 85.3701876,16.8346613 82.5118905,16.8346613 Z M100.210792,12.6182116 L100.210792,24.6733638 C100.210792,26.8124124 101.950332,28.546174 104.096888,28.546174 C106.243443,28.546174 107.983596,26.8124124 107.983596,24.6733638 L107.983596,15.9307004 C107.983596,14.1090452 109.479355,12.6182116 111.30771,12.6182116 L112.970073,12.6182116 L112.970073,24.6733638 C112.970073,29.5563397 108.997307,33.5152125 104.096888,33.5152125 C99.1964686,33.5152125 95.2243146,29.5563397 95.2243146,24.6733638 L95.2243146,15.9307004 C95.2243146,14.1090452 96.7200741,12.6182116 98.5484287,12.6182116 L100.210792,12.6182116 Z M16.1037176,18.7300163 L19.6221139,18.7300163 C20.5768656,18.7300163 21.3580818,19.5071748 21.3580818,20.4573416 L21.3580818,23.9585361 C21.3580818,24.909009 20.5768656,25.6861678 19.6221139,25.6861678 L16.1037176,25.6861678 C15.148966,25.6861678 14.3680574,24.909009 14.3680574,23.9585361 L14.3680574,20.4573416 C14.3680574,19.5071748 15.148966,18.7300163 16.1037176,18.7300163 Z M3.83748309,18.2544736 C6.61189327,17.9170312 8.51278115,18.9106796 8.88754344,21.8726399 C9.24876753,24.7194657 10.3293629,27.0705389 12.10933,28.6698689 C13.9499113,30.325235 16.6427845,31.2763205 20.1962572,31.2607038 C22.8392851,31.2481493 25.238933,31.78524 27.3665859,32.7445929 C29.659159,33.7783547 31.6363532,35.2968455 33.2621692,37.144511 L34.9159847,39.0243285 C36.1058089,40.3756292 35.9679653,42.4293734 34.6092212,43.6113403 C33.249554,44.7933074 31.1849769,44.6564319 29.9951528,43.3063561 L28.3410295,41.4250076 C27.3222792,40.2681498 26.0936865,39.3210451 24.6752511,38.6829054 C23.3509681,38.0848791 21.8608418,37.7504988 20.2227182,37.7581541 C14.9372776,37.7820384 10.7598165,36.2133293 7.72602649,33.4853127 C4.97561586,31.0138993 3.2461094,27.6694838 2.54796849,23.7601126 C2.35874122,22.7027728 2.22982053,21.1913248 2.20551329,20.1159186 C2.17720613,18.7728856 2.66642783,18.3965546 3.83748309,18.2544736 Z M31.8874255,26.1617103 C29.1142459,26.4991528 27.2133581,25.5051981 26.838288,22.5426255 C26.4773717,19.6967184 25.3964686,17.3450326 23.6165016,15.7453965 C21.7756126,14.0909489 19.0821239,13.1401697 15.5286512,13.1554802 C12.8865463,13.1668099 10.4868985,12.630944 8.35832247,11.671591 C6.06574953,10.6369106 4.08947841,9.11841983 2.46397005,7.27167293 L0.808923754,5.39154925 C-0.379977316,4.04024862 -0.2424414,1.98681061 1.11661037,0.804843605 C2.47535444,-0.378348237 4.54116236,-0.240554155 5.73098649,1.10982784 L7.38480203,2.98995152 C8.40232166,4.14803422 9.63214504,5.09483266 11.0496573,5.73327857 C12.3739404,6.33130488 13.8649898,6.66446034 15.503421,6.65833616 C20.7885539,6.63414565 24.965092,8.20193609 27.999805,10.9293403 C30.749908,13.4022847 32.4787991,16.7454752 33.1781708,20.6560713 C33.3670904,21.7127989 33.4963187,23.2239405 33.5190875,24.2999593 C33.5486255,25.6420736 33.058173,26.0184045 31.8874255,26.1617103 Z" id="Combined-Shape" fill="#1A1919" fill-rule="nonzero"></path>
    </g>
</svg>