<?xml version="1.0" encoding="UTF-8"?>
<svg width="122px" height="40px" viewBox="0 0 122 40" version="1.1" xmlns="http://www.w3.org/2000/svg" xmlns:xlink="http://www.w3.org/1999/xlink">
    <!-- Generator: Sketch 52.4 (67378) - http://www.bohemiancoding.com/sketch -->
    <title>Artboard</title>
    <desc>Created with Sketch.</desc>
    <defs>
        <linearGradient x1="88.2732162%" y1="27.9080633%" x2="11.8177173%" y2="70.1602714%" id="linearGradient-1">
            <stop stop-color="#DC0032" offset="0%"></stop>
            <stop stop-color="#B20033" offset="100%"></stop>
        </linearGradient>
    </defs>
    <g id="Artboard" stroke="none" stroke-width="1" fill="none" fill-rule="evenodd">
        <path d="M0.211818182,11.8898 C1.96895455,12.9006 3.66268182,13.875 5.355,14.8508 C8.59027273,16.7184 11.8213182,18.5958 15.0664545,20.4466 C15.5145455,20.7014 15.6864545,20.9898 15.6850455,21.5078 C15.6653182,25.5412 15.6723636,29.576 15.6765909,33.6108 C15.678,34.8022 16.8517727,35.4434 17.9367727,34.9184 C18.5934091,34.6006 18.8245,34.1904 18.8202727,33.4596 C18.7878636,28.9544 18.7906818,24.4492 18.8216818,19.9454 C18.8259091,19.2678 18.5934091,18.8926 18.0170909,18.5622 C12.5484091,15.4318 7.09240909,12.2762 1.63359091,9.129 C1.47859091,9.0394 1.32640909,8.9456 1.0615,8.7874 C1.37854545,8.604 1.62936364,8.45 1.89004545,8.31 C6.62177273,5.7536 11.3619545,3.2098 16.0824091,0.6296 C16.9067273,0.1788 17.5859091,0.19 18.4158636,0.6464 C23.1701364,3.256 27.9525909,5.8138 32.7251818,8.3912 C32.9196364,8.4962 33.1084545,8.6138 33.3959091,8.7804 C33.0591364,8.9876 32.7871818,9.1626 32.5067727,9.3236 C29.2334545,11.2164 25.9573182,13.105 22.684,14.9978 C21.7624545,15.5312 21.7864091,16.8696 22.6628636,17.48 C23.3251364,17.9406 23.8549545,17.9336 24.5595,17.5136 C27.5552273,15.7272 30.589,14.0052 33.6100909,12.2594 C33.8017273,12.1488 33.999,12.0466 34.2850455,11.8912 C34.3075909,12.1446 34.3371818,12.328 34.3385909,12.5114 C34.34,17.9574 34.3343636,23.4034 34.3456364,28.8494 C34.3470455,29.569 34.1032727,30.0814 33.4635455,30.4538 C28.3090909,33.4554 23.1630909,36.4696 18.0156818,39.4824 C17.5013636,39.7834 16.9912727,39.7792 16.4797727,39.481 C11.2717727,36.4388 6.05672727,33.4078 0.869863636,30.3292 C0.514772727,30.1178 0.170954545,29.548 0.168136364,29.142 C0.125863636,23.472 0.144181818,17.802 0.148409091,12.132 C0.148409091,12.0872 0.169545455,12.0438 0.211818182,11.8898 Z" id="Path" fill="url(#linearGradient-1)"></path>
        <path d="M110.253364,35.0668 C110.253364,33.972 110.253364,32.908 110.253364,31.9084 C111.694864,32.0372 113.098318,32.1744 114.504591,32.2808 C114.835727,32.306 115.180955,32.2584 115.510682,32.1968 C117.108591,31.9 117.954045,31.0068 117.975182,29.3968 C118.020273,25.992 118.000545,22.5858 117.978,19.181 C117.976591,18.9878 117.749727,18.6784 117.567955,18.6238 C116.263136,18.2332 114.94,18.1758 113.669,18.74 C112.248636,19.37 111.469409,20.8372 111.569455,22.5606 C111.677955,24.4156 112.609364,25.7498 114.219955,26.2286 C114.878,26.4246 115.581136,26.475 116.342045,26.6038 C116.342045,27.5376 116.354727,28.5176 116.323727,29.4962 C116.3195,29.6096 116.077136,29.8042 115.936227,29.814 C111.645545,30.0828 108.167909,27.8358 107.725455,23.325 C107.571864,21.7598 107.650773,20.2296 108.355318,18.7946 C109.578409,16.2998 111.766727,15.254 114.3975,14.9936 C116.763364,14.7598 119.068636,15.142 121.318955,15.8924 C121.729,16.0296 121.861455,16.2452 121.860045,16.6708 C121.845955,20.5684 121.871318,24.4674 121.838909,28.365 C121.831864,29.2302 121.720545,30.1136 121.520455,30.9564 C120.931455,33.4428 119.2955,34.9016 116.790136,35.3412 C114.610273,35.722 112.437455,35.4742 110.253364,35.0668 Z M79.0575,15.3072 C79.0575,14.2152 79.0575,13.1428 79.0575,12.0704 C79.0575,11.0008 79.0575,9.9312 79.0575,8.8378 L82.9113636,8.8378 L82.9113636,9.5798 C82.9113636,15.9176 82.9113636,22.2554 82.9071364,28.5918 C82.9071364,28.9054 83.0212727,29.2512 82.5013182,29.3534 C79.8310909,29.8826 77.1411364,30.2186 74.4525909,29.6488 C70.3436818,28.7794 68.1722727,25.46 68.8176364,21.2096 C69.4235455,17.2112 72.532,14.7514 76.7029091,14.9978 C77.461,15.044 78.2120455,15.1938 79.0575,15.3072 Z M79.0575,26.489 C79.0575,24.4772 79.0575,22.5298 79.0575,20.5838 C79.0575,18.5272 78.9081364,18.3802 76.7930909,18.3536 C76.6352727,18.3522 76.4774545,18.3578 76.3196364,18.3676 C74.2651818,18.4894 72.9561364,19.6822 72.6841818,21.6744 C72.3784091,23.927 73.4239545,25.7764 75.3572273,26.3952 C76.5521364,26.7774 77.7583182,26.699 79.0575,26.489 Z M62.9966818,20.9716 C62.9473636,19.4288 61.8947727,18.3648 60.38,18.2724 C58.6693636,18.1688 57.0066364,18.404 55.4002727,19.006 C55.1085909,19.1152 54.8155,19.2202 54.4195455,19.3644 C54.4195455,18.2976 54.4054545,17.3022 54.4364545,16.3082 C54.4406818,16.1696 54.6478182,15.9708 54.8028182,15.9148 C57.4744545,14.9362 60.2109091,14.6338 62.9558182,15.4878 C65.4964091,16.2788 66.6053636,18.306 66.7843182,20.756 C66.983,23.4552 66.9083182,26.1726 66.9294545,28.883 C66.9308636,29.0412 66.7392273,29.3058 66.5912727,29.3436 C63.5715909,30.1136 60.5138636,30.4944 57.4293636,29.828 C55.8173636,29.4794 54.5181818,28.6002 53.8897273,26.9944 C52.9526818,24.5976 54.2391818,22.0034 56.7586364,21.2992 C57.5702727,21.0724 58.4439091,21.0164 59.2935909,20.9814 C60.5251364,20.9338 61.7609091,20.9716 62.9966818,20.9716 Z M63.0727727,24.0516 C61.5974545,24.0516 60.2052727,24.0446 58.8130909,24.0586 C58.5946818,24.06 58.3678182,24.1286 58.1606818,24.207 C57.3744091,24.5024 57.094,25.3312 57.5998636,26.0032 C57.8154545,26.2902 58.1536364,26.5478 58.4904091,26.6752 C59.9826364,27.2422 61.5171364,27.1064 63.0727727,26.9132 C63.0727727,25.9318 63.0727727,25.026 63.0727727,24.0516 Z M106.283955,22.5186 C106.255773,26.8656 103.071227,29.9848 98.7157273,29.9288 C94.2601818,29.8714 91.1954091,26.7746 91.2348636,22.3688 C91.2729091,18.0554 94.4053182,15.023 98.7988636,15.0496 C103.214955,15.0762 106.310727,18.1646 106.283955,22.5186 Z M102.383591,22.3576 C102.362455,22.107 102.354,21.8144 102.313136,21.5274 C102.048227,19.671 100.689864,18.404 98.882,18.3144 C97.1164091,18.2276 95.6763182,19.356 95.2493636,21.1928 C94.9844545,22.3338 95.0394091,23.465 95.5142727,24.55 C96.4795,26.7592 99.4188636,27.3654 101.170364,25.7064 C102.115864,24.8118 102.393455,23.6512 102.383591,22.3576 Z M42.6747727,35.1956 C42.6747727,34.0448 42.6747727,32.929 42.6747727,31.8244 C43.5174091,31.9126 44.3375,32.047 45.1604091,32.0722 C47.1176364,32.1324 47.9349091,31.3204 47.9349091,29.3856 C47.9363182,25.04 47.9349091,20.693 47.9349091,16.3474 C47.9349091,16.0842 47.9349091,15.8196 47.9349091,15.5158 L51.8085,15.5158 L51.8085,16.143 C51.8085,20.7574 51.8268182,25.3732 51.7915909,29.9876 C51.7859545,30.8038 51.638,31.641 51.4083182,32.4264 C51.0236364,33.7382 50.0668636,34.5698 48.7986818,35.0528 C47.3881818,35.5918 44.2318182,35.6702 42.6747727,35.1956 Z M85.5970909,29.6992 C85.5970909,22.7286 85.5970909,15.8196 85.5970909,8.8574 L89.3917727,8.8574 L89.3917727,29.6992 C88.1264091,29.6992 86.8976818,29.6992 85.5970909,29.6992 Z M51.8127273,11.656 C51.8183636,12.7088 50.9503636,13.5642 49.8780455,13.5614 C48.8240455,13.5586 47.9659091,12.6864 47.9715455,11.6224 C47.9771818,10.6018 48.8296818,9.7618 49.8738182,9.7478 C50.9306364,9.7338 51.8056818,10.5948 51.8127273,11.656 Z" id="Combined-Shape" fill="#404041"></path>
    </g>
</svg>