<svg width="50" height="50" viewBox="0 0 50 50" fill="none" xmlns="http://www.w3.org/2000/svg">
<rect x="0.5" y="0.5" width="49" height="49" rx="9.5" fill="white" stroke="#EEEEEE"/>
<path fill-rule="evenodd" clip-rule="evenodd" d="M12.0542 18.8453C13.395 19.6166 14.6874 20.3601 15.9787 21.1047C18.4474 22.5298 20.9128 23.9624 23.389 25.3746C23.7309 25.569 23.8621 25.7891 23.861 26.1844C23.846 29.262 23.8513 32.3408 23.8546 35.4196C23.8556 36.3287 24.7513 36.8179 25.5792 36.4173C26.0803 36.1748 26.2566 35.8618 26.2534 35.3042C26.2286 31.8665 26.2308 28.4288 26.2544 24.9922C26.2577 24.4751 26.0802 24.1888 25.6405 23.9367C21.4676 21.5481 17.3044 19.1402 13.1391 16.7387C13.0208 16.6703 12.9047 16.5988 12.7025 16.4781C12.9444 16.3381 13.1358 16.2206 13.3347 16.1138C16.9453 14.1631 20.5623 12.2221 24.1642 10.2532C24.7932 9.90926 25.3115 9.9178 25.9448 10.2661C29.5725 12.2573 33.2218 14.209 36.8635 16.1757C37.0119 16.2559 37.156 16.3456 37.3753 16.4727C37.1183 16.6308 36.9108 16.7643 36.6968 16.8872C34.1991 18.3315 31.6993 19.7726 29.2016 21.2169C28.4984 21.6239 28.5167 22.6452 29.1854 23.1109C29.6908 23.4624 30.0951 23.4571 30.6327 23.1366C32.9186 21.7735 35.2335 20.4595 37.5387 19.1274C37.685 19.043 37.8355 18.965 38.0538 18.8464C38.071 19.0398 38.0935 19.1797 38.0946 19.3197C38.0957 23.4752 38.0914 27.6308 38.1 31.7864C38.1011 32.3355 37.9151 32.7264 37.4269 33.0106C33.4938 35.301 29.5671 37.601 25.6394 39.8999C25.247 40.1296 24.8577 40.1264 24.4674 39.8988C20.4935 37.5775 16.5141 35.2647 12.5563 32.9155C12.2853 32.7542 12.023 32.3194 12.0208 32.0096C11.9886 27.6831 12.0026 23.3566 12.0058 19.0302C12.0058 18.996 12.0219 18.9629 12.0542 18.8453Z" fill="url(#paint0_linear)"/>
<defs>
<linearGradient id="paint0_linear" x1="29.5254" y1="6.89679" x2="8.34844" y2="17.0546" gradientUnits="userSpaceOnUse">
<stop stop-color="#DC0032"/>
<stop offset="1" stop-color="#B20033"/>
</linearGradient>
</defs>
</svg>
