<?xml version="1.0" encoding="UTF-8"?>
<svg width="58px" height="42px" viewBox="0 0 58 42" version="1.1" xmlns="http://www.w3.org/2000/svg" xmlns:xlink="http://www.w3.org/1999/xlink">
    <!-- Generator: Sketch 52.4 (67378) - http://www.bohemiancoding.com/sketch -->
    <title>Artboard</title>
    <desc>Created with Sketch.</desc>
    <defs>
        <linearGradient x1="3.09847301%" y1="50%" x2="97.2874835%" y2="50%" id="linearGradient-1">
            <stop stop-color="#007D40" offset="0%"></stop>
            <stop stop-color="#53B232" offset="100%"></stop>
        </linearGradient>
        <linearGradient x1="-49.1222571%" y1="50%" x2="223.733891%" y2="50%" id="linearGradient-2">
            <stop stop-color="#007D40" offset="0%"></stop>
            <stop stop-color="#53B232" offset="100%"></stop>
        </linearGradient>
        <linearGradient x1="-53.6235741%" y1="50%" x2="244.235741%" y2="50%" id="linearGradient-3">
            <stop stop-color="#007D40" offset="0%"></stop>
            <stop stop-color="#53B232" offset="100%"></stop>
        </linearGradient>
        <linearGradient x1="-4.27162881e-14%" y1="50%" x2="100%" y2="50%" id="linearGradient-4">
            <stop stop-color="#762A2E" offset="0%"></stop>
            <stop stop-color="#E30138" offset="100%"></stop>
        </linearGradient>
        <linearGradient x1="0%" y1="50%" x2="100%" y2="50%" id="linearGradient-5">
            <stop stop-color="#1B2D74" offset="0%"></stop>
            <stop stop-color="#006BB6" offset="100%"></stop>
        </linearGradient>
    </defs>
    <g id="Artboard" stroke="none" stroke-width="1" fill="none" fill-rule="evenodd">
        <path d="M48.098,0.776 L48.098,0.772 C44.394,0.772 41.356,3.772 41.356,7.514 L41.356,14.516 L50.878,14.516 C51.1,14.516 51.36,14.516 51.544,14.554 C53.692,14.666 55.286,15.776 55.286,17.704 C55.286,19.222 54.212,20.52 52.212,20.78 L52.212,20.854 C54.398,21.002 56.064,22.224 56.064,24.114 C56.064,26.152 54.212,27.486 51.766,27.486 L41.318,27.486 L41.318,41.194 L51.21,41.194 C54.914,41.194 57.952,38.194 57.952,34.452 L57.952,0.776 L48.098,0.776 Z" id="Path" fill="url(#linearGradient-1)"></path>
        <path d="M44.654,25.334 L48.544,25.334 C48.656,25.334 48.914,25.298 49.026,25.298 C49.766,25.15 50.396,24.482 50.396,23.556 C50.396,22.666 49.766,22 49.026,21.814 C48.914,21.776 48.692,21.776 48.544,21.776 L44.654,21.776 L44.654,25.334 Z" id="Path" fill="url(#linearGradient-2)"></path>
        <path d="M49.914,18.148 C49.914,17.258 49.284,16.666 48.544,16.554 C48.47,16.554 48.284,16.516 48.174,16.516 L44.654,16.516 L44.654,19.776 L48.174,19.776 C48.286,19.776 48.508,19.776 48.544,19.738 C49.284,19.63 49.914,19.036 49.914,18.148 Z" id="Path" fill="url(#linearGradient-3)"></path>
        <path d="M27.462,0.772 C23.758,0.772 20.72,3.772 20.72,7.514 L20.72,16.332 C22.424,14.888 25.388,13.96 30.168,14.184 C32.724,14.296 35.466,15 35.466,15 L35.466,17.852 C34.096,17.148 32.466,16.518 30.354,16.37 C26.724,16.11 24.538,17.888 24.538,21 C24.538,24.15 26.724,25.928 30.354,25.63 C32.466,25.482 34.096,24.814 35.466,24.148 L35.466,27 C35.466,27 32.762,27.704 30.168,27.816 C25.388,28.038 22.424,27.112 20.72,25.668 L20.72,41.228 L30.612,41.228 C34.316,41.228 37.354,38.228 37.354,34.486 L37.354,0.772 L27.462,0.772 Z" id="Path" fill="url(#linearGradient-4)"></path>
        <path d="M6.826,0.772 C3.122,0.772 0.084,3.772 0.084,7.514 L0.084,24.148 C1.974,25.074 3.938,25.666 5.9,25.666 C8.234,25.666 9.494,24.258 9.494,22.332 L9.494,14.478 L15.274,14.478 L15.274,22.296 C15.274,25.334 13.384,27.816 6.976,27.816 C3.086,27.816 0.048,26.964 0.048,26.964 L0.048,41.154 L9.94,41.154 C13.644,41.154 16.682,38.154 16.682,34.412 L16.682,0.772 L6.826,0.772 Z" id="Path" fill="url(#linearGradient-5)"></path>
    </g>
</svg>