<?xml version="1.0" encoding="UTF-8"?>
<svg width="15px" height="27px" viewBox="0 0 15 27" version="1.1" xmlns="http://www.w3.org/2000/svg" xmlns:xlink="http://www.w3.org/1999/xlink">
    <!-- Generator: Sketch 52.4 (67378) - http://www.bohemiancoding.com/sketch -->
    <title>Path</title>
    <desc>Created with Sketch.</desc>
    <g id="Page-1" stroke="none" stroke-width="1" fill="none" fill-rule="evenodd">
        <g id="Artboard" transform="translate(-290.000000, -115.000000)" fill="#191814">
            <path d="M300.238569,123.012009 C300.238569,123.012009 301.791558,121.66439 303.075633,122.863064 C304.364792,124.067838 303.225595,125.42664 303.225595,125.42664 C303.225595,125.42664 298.753698,130.140508 297.416755,131.477452 C299.495879,133.556576 303.640911,137.715334 303.640911,137.715334 C303.640911,137.715334 305.292519,139.251547 304.038944,140.537148 C302.688276,141.922892 301.264914,140.685584 301.264914,140.685584 L294.743377,134.393818 L294.743377,139.404559 C294.743377,139.404559 294.743377,141.294071 292.812688,141.294071 C290.882,141.294071 290.882,139.404559 290.882,139.404559 L290.882,117.36838 C290.882,117.36838 290.882,115.426 292.812688,115.426 C294.743377,115.426 294.743377,117.36838 294.743377,117.36838 C294.743377,117.36838 294.743377,125.982259 294.743377,128.358765 L300.238569,123.012009 Z" id="Path"></path>
        </g>
    </g>
</svg>