<svg xmlns="http://www.w3.org/2000/svg" xmlns:xlink="http://www.w3.org/1999/xlink" width="140" height="33" viewBox="0 0 140 33"><defs><style>.a{fill:url(#a);}.b{fill:#171a1d;}</style><linearGradient id="a" x1="25.1337" y1="408.2233" x2="25.1337" y2="362.9691" gradientTransform="translate(6.2667 -256.3271) scale(0.7071)" gradientUnits="userSpaceOnUse"><stop offset="0" stop-color="#efc119"></stop><stop offset="0.3314" stop-color="#92c84e"></stop><stop offset="0.4859" stop-color="#71bf5b"></stop><stop offset="0.7506" stop-color="#15b158"></stop><stop offset="0.903" stop-color="#23ac69"></stop><stop offset="1" stop-color="#23ac69"></stop></linearGradient></defs><title>Klaviyo Logo</title><path class="a" d="M1.2825,14.8186,22.5482.7309a2.9688,2.9688,0,0,1,2.9853,0L46.7992,14.8186a1.6962,1.6962,0,0,1,0,3.0523l-2.8511,1.8784a23.58,23.58,0,0,0-39.8481,0L1.2489,17.8709A1.7063,1.7063,0,0,1,1.2825,14.8186Zm22.7416-.1677A17.8048,17.8048,0,0,0,8.9972,22.9693l4.8971,3.2536a11.7892,11.7892,0,0,1,20.1924,0l4.8972-3.2536A17.56,17.56,0,0,0,24.0241,14.6509Zm0,11.7733a6.0222,6.0222,0,0,0-5.1991,3.0523l3.2872,2.1467a2.9793,2.9793,0,0,0,1.9119.7044,2.9124,2.9124,0,0,0,1.9119-.7044l3.2871-2.1467A5.9672,5.9672,0,0,0,24.0241,26.4242Z"></path><path class="b" d="M60.954,16.2609l5.3332,7.6476H62.5305l-4.0251-5.937v5.937H55.4531V8.7474h3.0523V14.785l3.8238-6.0376h3.5219Zm10.5993-7.48H68.501V23.942h7.8153V20.89h-4.83L71.5533,8.781Zm13.7859-.5367,6.373,15.6977H88.2909l-.6038-1.6435H82.6558L82.052,23.942H78.5972L84.97,8.2443ZM86.58,19.4474,85.205,15.523l-1.4088,3.9244ZM96.0056,17.2l-3.12-8.4191H89.4648l6.3731,15.6977H96.14L102.5128,8.781H99.0579Zm8.8215,6.7419H107.88V8.781h-3.0524ZM119.9882,8.781l-3.0859,5.2326L113.8164,8.781h-3.69l5.2661,8.3184V23.942h3.0188V17.0994l5.3-8.3184Zm19.3874,7.3122a7.8489,7.8489,0,1,1-7.8489-7.8489A7.8589,7.8589,0,0,1,139.3756,16.0932Zm-2.9517,0a4.8972,4.8972,0,1,0-4.8972,4.8971A4.8816,4.8816,0,0,0,136.4239,16.0932Z"></path></svg>