<svg width="50" height="50" viewBox="0 0 50 50" fill="none" xmlns="http://www.w3.org/2000/svg">
<rect width="50" height="50" rx="10" fill="#374047"/>
<path d="M9.64781 24.0319L23.9944 14.2787C24.3002 14.0962 24.6477 14 25.0014 14C25.3552 14 25.7026 14.0962 26.0084 14.2787L40.355 24.0319C40.5484 24.1282 40.7114 24.2783 40.8255 24.4652C40.9395 24.652 41 24.8681 41 25.0885C41 25.309 40.9395 25.5251 40.8255 25.7119C40.7114 25.8987 40.5484 26.0489 40.355 26.1451L38.4316 27.4456C36.9968 25.1194 35.0121 23.2033 32.662 21.8757C30.3119 20.548 27.6728 19.8518 24.9901 19.8518C22.3075 19.8518 19.6683 20.548 17.3182 21.8757C14.9681 23.2033 12.9834 25.1194 11.5486 27.4456L9.62514 26.1451C9.43496 26.0449 9.27575 25.8922 9.16535 25.7043C9.05495 25.5164 8.99772 25.3007 9.00007 25.0814C9.00242 24.8619 9.06427 24.6476 9.17867 24.4622C9.29308 24.2769 9.45553 24.1279 9.64781 24.0319ZM24.9901 23.9159C22.9642 23.9205 20.9723 24.451 19.1999 25.458C17.4274 26.4648 15.9318 27.9155 14.8524 29.6749L18.1562 31.9274C18.8638 30.7229 19.8628 29.7265 21.0562 29.0348C22.2496 28.3431 23.5969 27.9796 24.9674 27.9796C26.338 27.9796 27.6853 28.3431 28.8788 29.0348C30.0721 29.7265 31.0711 30.7229 31.7788 31.9274L35.0826 29.6749C34.0188 27.9111 32.533 26.456 30.7664 25.448C28.9999 24.4399 27.0114 23.9125 24.9901 23.9159ZM24.9901 32.0668C24.2761 32.0716 23.5759 32.2695 22.9602 32.6405C22.3444 33.0115 21.8347 33.5425 21.4826 34.18L23.7003 35.6662C24.0611 35.9792 24.5177 36.1519 24.9901 36.1538C25.4633 36.156 25.9213 35.9828 26.28 35.6662L28.4976 34.18C28.1484 33.5399 27.6395 33.0068 27.023 32.6354C26.4066 32.264 25.7049 32.0677 24.9901 32.0668Z" fill="url(#paint0_linear)"/>
<defs>
<linearGradient id="paint0_linear" x1="25" y1="36.1538" x2="25" y2="14" gradientUnits="userSpaceOnUse">
<stop stop-color="#EFC119"/>
<stop offset="0.3314" stop-color="#92C84E"/>
<stop offset="0.4859" stop-color="#71BF5B"/>
<stop offset="0.7506" stop-color="#15B158"/>
<stop offset="0.903" stop-color="#23AC69"/>
<stop offset="1" stop-color="#23AC69"/>
</linearGradient>
</defs>
</svg>
