<svg width="65" height="20" viewBox="0 0 65 20" fill="none" xmlns="http://www.w3.org/2000/svg"><g clip-path="url(#clip0_28280_33282)"><path fill-rule="evenodd" clip-rule="evenodd" d="M15.0325 19.2617H4.1976C1.86782 19.2617 -0.0128555 17.381 -0.0128555 15.0512V4.21632C-0.0128555 1.88653 1.86782 0.00585938 4.1976 0.00585938H15.0044C17.3342 0.00585938 19.2149 1.88653 19.2149 4.21632V15.0512C19.2149 17.381 17.3342 19.2617 15.0325 19.2617Z" fill="#FF7705"/><path fill-rule="evenodd" clip-rule="evenodd" d="M6.44318 16.2025C6.21863 16.2025 5.6853 16.0902 5.15198 15.9499C4.61865 15.8095 4.25374 15.613 4.25374 15.613C4.05726 15.5008 3.97305 15.3323 3.94498 15.1639C3.94498 15.1639 3.88884 14.6025 3.88884 13.5359C3.88884 12.7219 3.91691 12.2727 3.94498 12.1605C3.97305 12.0201 4.02919 11.9078 4.22567 11.9078C4.42216 11.9078 4.64672 11.9078 5.23619 12.0201C5.93793 12.1605 6.27476 12.2727 6.44318 12.3289C6.58353 12.385 6.75195 12.4973 6.78002 12.7219C6.78002 12.7219 6.86423 13.3113 6.86423 14.2096C6.86423 14.9394 6.80809 15.6692 6.78002 15.8937C6.75195 16.0902 6.66774 16.2025 6.44318 16.2025ZM9.61506 13.6762C9.61506 13.5359 9.55892 13.4236 9.47471 13.3394L7.65018 11.5429C7.45369 11.3184 7.20107 11.178 6.8923 11.1219C6.8923 11.1219 6.21863 10.9535 5.18005 10.785C4.16954 10.6166 3.88884 10.6447 3.88884 10.6447C2.99061 10.6447 2.96254 11.5991 2.93447 11.7113C2.9064 11.9359 2.85026 12.5534 2.85026 13.4236C2.85026 14.4341 2.9064 15.1359 2.93447 15.585C3.01868 16.2306 3.52393 16.5393 3.74849 16.6797C3.80463 16.7078 4.45023 16.9885 5.06777 17.1849C5.48881 17.3253 6.19056 17.5218 6.49932 17.5499C6.6116 17.5779 7.22914 17.6621 7.5379 17.2692L9.47471 14.7709C9.55892 14.6587 9.58699 14.6025 9.58699 14.4341L9.61506 13.6762ZM13.8536 10.0272C13.5729 9.9991 13.2922 9.99909 13.0396 9.99909L8.68876 10.4201C8.68876 10.4201 8.40806 10.4763 8.23965 10.6728C8.0993 10.8412 8.0993 10.9815 8.0993 10.9815L8.21158 11.0938L9.92383 12.8341C10.1203 13.0306 10.2326 13.199 10.2326 13.4797V14.4622C10.2326 14.6306 10.2045 14.799 10.1203 14.9113L9.19402 16.1744L10.1203 16.5393C10.4852 16.6516 10.794 16.6516 11.1589 16.5955L15.1448 15.6692C15.1448 15.6692 15.8746 15.4727 15.8746 14.799V12.357C15.8746 12.3008 15.8465 12.2727 15.7904 12.2727L13.2361 12.778C13.1518 12.8061 13.0676 12.8903 13.0676 12.9745V14.1534C13.0676 14.2376 13.1518 14.2938 13.2361 14.2657L14.022 14.0973C14.0501 14.0973 14.1062 14.1253 14.1062 14.1815V14.5745C14.1062 14.6587 14.0501 14.7148 13.9659 14.7148L13.0676 14.9113C13.0676 14.9113 12.4501 15.0797 12.4501 14.406V12.8903C12.4501 12.2447 12.9273 12.1605 12.9273 12.1605L15.7343 11.6271C15.8185 11.6271 15.8746 11.5429 15.8746 11.4868V10.8693C15.8746 10.1956 15.229 10.1394 15.229 10.1394L13.8536 10.0272ZM8.63262 3.65534C9.6712 3.71148 10.4572 4.69392 10.401 5.90092C10.3449 7.10791 9.44664 8.06228 8.43613 8.03421C7.39755 7.97807 6.63967 6.99563 6.69581 5.78863C6.75195 4.55357 7.62211 3.5992 8.63262 3.65534ZM12.8431 6.46231C12.8992 5.64829 13.4606 5.00268 14.1624 5.03075C14.808 5.05882 15.3413 5.76057 15.3132 6.54652C15.2571 7.36054 14.6676 8.00614 13.9939 7.97807C13.3203 7.95 12.815 7.27633 12.8431 6.46231ZM16.3518 6.57459C16.3518 4.94654 15.1448 3.65534 13.6571 3.65534C12.7869 3.65534 12.001 4.10445 11.4957 4.80619C11.1028 3.06587 9.6712 1.80273 7.93088 1.80273C5.85372 1.80273 4.19761 3.5992 4.22567 5.78863C4.22567 8.00614 5.90986 9.83068 7.93088 9.80261C8.04316 9.80261 13.6852 9.40963 13.6571 9.40963C15.2571 9.26928 16.3518 8.17456 16.3518 6.57459Z" fill="white"/><path fill-rule="evenodd" clip-rule="evenodd" d="M52.7178 6.74041H52.7459C53.5038 6.60006 54.5985 6.43164 55.8616 6.43164C58.5002 6.43164 59.9317 7.61057 59.9317 9.9965V16.7052C59.9317 16.9016 59.7633 17.0981 59.5668 17.0981H57.9949C57.9388 17.0981 57.7984 17.0701 57.7142 16.9859C57.63 16.9297 57.6019 16.7894 57.6019 16.7332V16.5929C57.3774 16.8455 56.9002 17.2104 55.5528 17.2385C54.1213 17.2666 53.4195 16.8736 53.0827 16.621C52.6617 16.3122 52.3248 15.9192 52.0722 15.4701C51.9318 15.1894 51.8196 14.8806 51.7634 14.3192C51.7073 13.7017 51.8196 13.1122 51.988 12.7193C52.4652 11.5684 53.6722 10.9228 55.8055 10.7824C56.4511 10.7544 57.5177 10.7263 57.5177 10.7263V10.0246C57.5177 8.81757 57.0125 8.64915 55.9177 8.64915C54.3458 8.64915 52.9424 8.92984 52.6897 8.98598C52.5775 8.98598 52.5213 8.95791 52.4932 8.92984C52.4371 8.87371 52.409 8.7895 52.409 8.76143V7.18952C52.409 7.0211 52.5494 6.88075 52.7178 6.82462C52.6897 6.74041 52.6897 6.74041 52.7178 6.74041ZM54.1213 13.9263C54.1774 13.2526 54.795 13.028 54.9353 13C55.2441 12.8877 55.6651 12.8035 56.1984 12.7754C56.8441 12.7193 57.4616 12.7473 57.4616 12.7473V14.8806C56.9283 15.1333 56.5072 15.2455 55.8616 15.2736H55.6651C55.0757 15.2736 54.2336 15.1052 54.0932 14.0666C54.1213 13.9824 54.1213 13.9543 54.1213 13.9263Z" fill="url(#paint0_linear_28280_33282)"/><path fill-rule="evenodd" clip-rule="evenodd" d="M62.7948 6.74023C62.5703 6.74023 62.4299 6.93673 62.4019 7.13321V16.6769C62.4019 16.7331 62.4299 16.8173 62.5141 16.9295C62.5983 17.0418 62.7387 17.0418 62.7948 17.0418H64.5913C64.8439 17.0418 64.9562 16.8734 64.9562 16.6488V7.16128C64.9562 6.93672 64.7878 6.76831 64.5632 6.76831H62.7948V6.74023Z" fill="url(#paint1_linear_28280_33282)"/><path fill-rule="evenodd" clip-rule="evenodd" d="M31.441 2.16479C31.3006 2.16479 31.1883 2.22093 31.1041 2.30514L26.613 8.00329C26.5007 8.14364 26.22 8.03136 26.22 7.8068V2.58584C26.22 2.44549 26.1638 2.36128 26.1077 2.27707C26.0516 2.22093 25.9674 2.13672 25.827 2.13672H24.0305C23.7779 2.13672 23.6095 2.33321 23.6095 2.55776V16.6207C23.6095 16.761 23.6656 16.8453 23.7218 16.9014C23.806 16.9856 23.9183 17.0137 24.0025 17.0137H25.7989C26.0796 17.0137 26.22 16.8453 26.22 16.6207V10.5576C26.22 10.0805 26.5849 10.1647 26.7252 10.3331L32.1427 16.7891C32.255 16.9295 32.4234 17.0137 32.6199 17.0137H35.0339C35.09 17.0137 35.1181 16.9856 35.1462 16.9295C35.1742 16.8733 35.1742 16.7891 35.1181 16.761L28.9427 9.51906C28.8585 9.43485 28.8305 9.32257 28.8866 9.23836L34.0234 2.36128C34.0514 2.33321 34.0795 2.27707 34.0234 2.19286C33.9672 2.13672 33.9392 2.13672 33.9111 2.13672L31.441 2.16479Z" fill="url(#paint2_linear_28280_33282)"/><path fill-rule="evenodd" clip-rule="evenodd" d="M62.7948 2.16406C62.5422 2.16406 62.4019 2.33248 62.4019 2.52897V4.66227C62.4019 4.88682 62.5703 5.05524 62.7948 5.05524H64.5632C64.8159 5.05524 64.9843 4.88682 64.9843 4.66227V2.55704C64.9843 2.33248 64.8158 2.16406 64.5913 2.16406H62.7948Z" fill="url(#paint3_linear_28280_33282)"/><path fill-rule="evenodd" clip-rule="evenodd" d="M45.8127 13.2236C45.7565 13.4201 45.4758 13.4201 45.3916 13.2236L43.118 6.99214C43.0618 6.87986 42.9215 6.76758 42.7531 6.76758H41.5741C41.3776 6.76758 41.2373 6.87986 41.1811 7.0202L38.9075 13.2236C38.8514 13.4201 38.5145 13.4201 38.4865 13.2236L36.7742 7.24476C36.7742 7.21669 36.7461 6.99213 36.6058 6.87986C36.4654 6.79565 36.4374 6.79565 36.2689 6.76758H34.697C34.4444 6.76758 34.2199 6.96407 34.276 7.24476C34.276 7.27283 36.8584 16.5358 36.9146 16.7323C36.9426 16.8446 36.9707 16.9288 37.0549 16.985C37.1391 17.0411 37.2233 17.0972 37.3356 17.0972H39.8338C40.0303 17.0972 40.1706 17.013 40.2268 16.8727L40.6198 15.9744L42.0513 12.157C42.1355 11.9885 42.3881 11.9605 42.4443 12.157L44.1565 16.8165C44.1846 16.9007 44.2127 16.9569 44.2969 17.013C44.353 17.0692 44.4653 17.0972 44.5495 17.0972H47.1881C47.4126 17.0972 47.581 16.985 47.6091 16.8165L47.7214 16.3674C47.7214 16.3674 47.7775 16.1148 47.9179 15.6376L50.0512 7.35704C50.1073 7.10442 49.995 6.85179 49.7424 6.79565H47.9179C47.7214 6.79565 47.581 6.90793 47.5249 7.07635C47.4688 7.18863 45.8688 13.0271 45.8127 13.2236Z" fill="url(#paint4_linear_28280_33282)"/></g><defs><linearGradient id="paint0_linear_28280_33282" x1="55.9554" y1="17.1777" x2="54.1696" y2="-29.3165" gradientUnits="userSpaceOnUse"><stop stop-color="#FF6000"/><stop offset="1" stop-color="#FF8D0A"/></linearGradient><linearGradient id="paint1_linear_28280_33282" x1="63.7377" y1="17.0326" x2="58.6248" y2="-26.9035" gradientUnits="userSpaceOnUse"><stop stop-color="#FF6000"/><stop offset="1" stop-color="#FF8D0A"/></linearGradient><linearGradient id="paint2_linear_28280_33282" x1="29.3687" y1="17.029" x2="26.9471" y2="-47.2224" gradientUnits="userSpaceOnUse"><stop offset="0.021" stop-color="#FF6000"/><stop offset="1" stop-color="#FF8D0A"/></linearGradient><linearGradient id="paint3_linear_28280_33282" x1="63.7035" y1="17.2531" x2="63.7035" y2="-47.9161" gradientUnits="userSpaceOnUse"><stop stop-color="#FF6000"/><stop offset="1" stop-color="#FF8D0A"/></linearGradient><linearGradient id="paint4_linear_28280_33282" x1="42.5513" y1="17.032" x2="41.6986" y2="-27.5081" gradientUnits="userSpaceOnUse"><stop stop-color="#FF6000"/><stop offset="1" stop-color="#FF8D0A"/></linearGradient><clipPath id="clip0_28280_33282"><rect width="65" height="19.266" fill="white"/></clipPath></defs></svg>