<svg width="50" height="50" viewBox="0 0 50 50" fill="none" xmlns="http://www.w3.org/2000/svg">
<rect width="50" height="50" rx="10" fill="url(#paint0_linear)"/>
<path d="M24.2764 36.1243L15.6703 31.2728C15.0375 30.9353 14.6578 30.2603 14.6578 29.5431V19.7979C14.6578 19.0808 15.0375 18.4058 15.6703 18.0261L24.2764 13.1746C24.9092 12.8371 25.7108 12.8371 26.3436 13.1746L34.9497 18.0261C35.5825 18.3636 35.9622 19.0386 35.9622 19.7557V29.5009C35.9622 30.2181 35.5825 30.8931 34.9497 31.2306L26.3436 36.1243C25.7108 36.504 24.9092 36.504 24.2764 36.1243ZM24.0233 10.348L13.2656 16.423C12.4641 16.887 12 17.6886 12 18.5745V30.7244C12 31.6103 12.4641 32.454 13.2656 32.9181L24.0233 38.993C24.8249 39.4571 25.7952 39.4571 26.5967 38.993L37.3544 32.9181C38.1559 32.454 38.62 31.6525 38.62 30.7244V18.5745C38.62 17.6886 38.1559 16.8448 37.3544 16.423L26.5967 10.348C25.7952 9.88399 24.8249 9.88399 24.0233 10.348Z" fill="white"/>
<path d="M24.7827 30.3863L20.4797 27.9394C20.1422 27.7707 19.9734 27.4332 19.9734 27.0535V22.202C19.9734 21.8223 20.1844 21.4848 20.4797 21.3161L24.7827 18.8692C25.1202 18.7005 25.4999 18.7005 25.7952 18.8692L30.1405 21.3582C30.478 21.527 30.6467 21.8645 30.6467 22.2442V27.0957C30.6467 27.4754 30.4358 27.8129 30.1405 27.9816L25.8374 30.4285C25.4999 30.555 25.1202 30.555 24.7827 30.3863ZM24.5296 15.9583L18.0328 19.6286C17.5688 19.8817 17.2735 20.3879 17.2735 20.9364V28.2769C17.2735 28.8253 17.5688 29.3316 18.0328 29.5847L24.5718 33.255C25.0359 33.5081 25.6265 33.5081 26.1327 33.255L32.6717 29.5847C33.1358 29.3316 33.4311 28.8253 33.4311 28.2769V20.9786C33.4311 20.4301 33.1358 19.9239 32.6717 19.6708L26.1327 16.0005C25.6265 15.7052 25.0359 15.7052 24.5296 15.9583Z" fill="white"/>
<path d="M25.0358 21.6949L22.7999 22.9605C22.6312 23.0449 22.5468 23.2136 22.5468 23.4246V25.9136C22.5468 26.0823 22.6312 26.2511 22.7999 26.3777L25.0358 27.6433C25.2046 27.7276 25.4155 27.7276 25.5843 27.6433L27.8202 26.3777C27.9889 26.2933 28.0733 26.1245 28.0733 25.9136V23.3824C28.0733 23.2136 27.9889 23.0449 27.8202 22.9183L25.5843 21.6527C25.4155 21.6105 25.2046 21.6105 25.0358 21.6949Z" fill="white"/>
<defs>
<linearGradient id="paint0_linear" x1="50" y1="0" x2="0" y2="50" gradientUnits="userSpaceOnUse">
<stop stop-color="#F62642"/>
<stop offset="1" stop-color="#E019BE"/>
</linearGradient>
</defs>
</svg>
