<?xml version="1.0" encoding="utf-8"?>
<!-- Generator: Adobe Illustrator 21.1.0, SVG Export Plug-In . SVG Version: 6.00 Build 0)  -->
<svg version="1.1" id="Camada_1" xmlns="http://www.w3.org/2000/svg" xmlns:xlink="http://www.w3.org/1999/xlink" x="0px" y="0px"
	 viewBox="0 0 363.3 77.3" style="enable-background:new 0 0 363.3 77.3;" xml:space="preserve">
<style type="text/css">
	.st0{fill:url(#SVGID_1_);}
	.st1{fill:url(#SVGID_2_);}
	.st2{fill:url(#SVGID_3_);}
	.st3{fill:#404041;}
</style>
<title>Ativo 2</title>
<g id="Camada_1-2">
	
		<linearGradient id="SVGID_1_" gradientUnits="userSpaceOnUse" x1="10.1304" y1="15.8896" x2="58.6604" y2="64.4096" gradientTransform="matrix(1 0 0 -1 0 78)">
		<stop  offset="0" style="stop-color:#DF19C2"/>
		<stop  offset="1" style="stop-color:#F7273C"/>
	</linearGradient>
	<path class="st0" d="M32.1,64.9L11.7,53.4c-1.5-0.8-2.4-2.4-2.4-4.1V26.2c0-1.7,0.9-3.3,2.4-4.2l20.4-11.5c1.5-0.8,3.4-0.8,4.9,0
		L57.4,22c1.5,0.8,2.4,2.4,2.4,4.1v23.1c0,1.7-0.9,3.3-2.4,4.1L37,64.9C35.5,65.8,33.6,65.8,32.1,64.9 M31.5,3.8L6,18.2
		c-1.9,1.1-3,3-3,5.1v28.8c0,2.1,1.1,4.1,3,5.2l25.5,14.4c1.9,1.1,4.2,1.1,6.1,0l25.5-14.4c1.9-1.1,3-3,3-5.2V23.3
		c0-2.1-1.1-4.1-3-5.1L37.6,3.8C35.7,2.7,33.4,2.7,31.5,3.8"/>
	
		<linearGradient id="SVGID_2_" gradientUnits="userSpaceOnUse" x1="18.3975" y1="24.1325" x2="50.5175" y2="56.2525" gradientTransform="matrix(1 0 0 -1 0 78)">
		<stop  offset="0" style="stop-color:#DF19C2"/>
		<stop  offset="1" style="stop-color:#F7273C"/>
	</linearGradient>
	<path class="st1" d="M33.3,51.3l-10.2-5.8c-0.8-0.4-1.2-1.2-1.2-2.1V31.9c0-0.9,0.5-1.7,1.2-2.1l10.2-5.8c0.8-0.4,1.7-0.4,2.4,0
		L46,29.9c0.8,0.4,1.2,1.2,1.2,2.1v11.5c0,0.9-0.5,1.7-1.2,2.1l-10.2,5.8C35,51.7,34.1,51.7,33.3,51.3 M32.7,17.1l-15.4,8.7
		c-1.1,0.6-1.8,1.8-1.8,3.1v17.4c0,1.3,0.7,2.5,1.8,3.1l15.5,8.7c1.1,0.6,2.5,0.6,3.7,0l15.5-8.7c1.1-0.6,1.8-1.8,1.8-3.1V29
		c0-1.3-0.7-2.5-1.8-3.1l-15.5-8.7C35.3,16.5,33.9,16.5,32.7,17.1"/>
	
		<linearGradient id="SVGID_3_" gradientUnits="userSpaceOnUse" x1="10.1636" y1="15.8564" x2="58.6936" y2="64.3764" gradientTransform="matrix(1 0 0 -1 0 78)">
		<stop  offset="0" style="stop-color:#DF19C2"/>
		<stop  offset="1" style="stop-color:#F7273C"/>
	</linearGradient>
	<path class="st2" d="M33.9,30.7l-5.3,3c-0.4,0.2-0.6,0.6-0.6,1.1v5.9c0,0.4,0.2,0.8,0.6,1.1l5.3,3c0.4,0.2,0.9,0.2,1.3,0l5.3-3
		c0.4-0.2,0.6-0.6,0.6-1.1v-6c0-0.4-0.2-0.8-0.6-1.1l-5.3-3C34.8,30.5,34.3,30.5,33.9,30.7"/>
	<path class="st3" d="M139,72.6c-8.8,0-16-7.1-16-16s7.1-16,16-16l0,0c3.7,0,7.4,1,10.6,3v-2.5h3.8v31.1h-3.8v-2.6
		C146.4,71.7,142.7,72.6,139,72.6 M139.2,44.5c-6.7-0.2-12.3,5.1-12.5,11.8c-0.2,6.7,5.1,12.3,11.8,12.5c0.2,0,0.5,0,0.7,0
		c3.8,0.1,7.5-1.1,10.4-3.6v-17C146.7,45.7,143,44.4,139.2,44.5"/>
	<path class="st3" d="M174.1,72.6c-8.8,0.7-16.5-5.9-17.2-14.7s5.9-16.5,14.7-17.2c0.8-0.1,1.7-0.1,2.5,0c3.7,0,7.4,0.9,10.6,2.9
		v-14h3.9v42.8h-3.9v-2.7C181.5,71.6,177.8,72.6,174.1,72.6 M174.2,44.5c-6.7-0.2-12.3,5.1-12.5,11.8s5.1,12.3,11.8,12.5
		c0.2,0,0.5,0,0.7,0c3.8,0.1,7.5-1.2,10.4-3.7v-17C181.7,45.6,178,44.4,174.2,44.5"/>
	<polygon class="st3" points="275.2,41.6 260.4,72.6 256.6,72.6 241.8,41.6 250.1,41.6 258.5,59.2 266.9,41.6 	"/>
	<path class="st3" d="M319,46c2.2-3.1,5.9-5,9.8-4.9c0.7,0,1.3,0.1,1.9,0.3V50c-1.3-0.3-2.5-0.4-3.8-0.5c-5.7,0-7.9,4-7.9,8.1v14.9
		h-8v-31h8L319,46z"/>
	<path class="st3" d="M337.4,64.2c3.3,1.6,6.9,2.5,10.6,2.5c3.6,0,5.1-1.4,5.1-3c0-1.8-1.8-2.6-6.5-3.6c-6.7-1.5-11.5-3.6-11.5-9.6
		c0-5.6,4.6-9.5,11.8-9.5c4.2,0,8.3,0.9,12.1,2.5l-2.6,5.8c-3.1-1.2-6.3-1.9-9.6-2c-3,0-4.6,1.1-4.6,2.7s1.9,2.5,6.9,3.5
		c7.2,1.5,11.3,4,11.3,9.6c0,5.9-4.5,9.7-12.4,9.7c-4.6,0.2-9.3-0.9-13.4-3L337.4,64.2z"/>
	<path class="st3" d="M81.8,72.4c-1.5,0.1-2.9-0.5-4-1.5c-1.1-1.3-1.6-3-1.5-4.7V29.6h3.9v36.6c-0.1,0.7,0.1,1.5,0.5,2.1
		c0.4,0.3,0.9,0.5,1.4,0.5h1.1v3.6H81.8z"/>
	<path class="st3" d="M206.9,72.3c-0.9,0.2-1.9,0.3-2.8,0.3c-2.1,0.1-4.1-0.5-5.9-1.6c-2.2-1.5-3.4-4.2-3.4-8.1V29.6h8v33.3
		c0,2,1.1,3,3.4,3c0.2,0,0.5,0,0.7,0L206.9,72.3z"/>
	<path class="st3" d="M238,68.2c-6.5,6-16.5,6-23.1,0c-3.1-3-4.7-7.1-4.6-11.4c-0.2-4.3,1.5-8.5,4.6-11.5c3.1-3,7.3-4.6,11.6-4.5
		c4.3-0.1,8.4,1.4,11.5,4.4c3.1,3,4.7,7.2,4.6,11.5C242.7,61,241,65.2,238,68.2 M220.7,63.2c1.6,1.5,3.6,2.4,5.8,2.4
		c2.2,0,4.2-0.8,5.8-2.4c1.7-1.7,2.6-4,2.5-6.5c0.2-2.4-0.7-4.8-2.5-6.5c-1.6-1.5-3.6-2.3-5.8-2.3c-2.2,0-4.2,0.9-5.8,2.3
		c-1.8,1.7-2.8,4.1-2.6,6.5C217.9,59.2,218.9,61.5,220.7,63.2"/>
	<path class="st3" d="M304.1,67.3c-3.2,3.6-7.8,5.7-12.7,5.7c-5.1,0-9.1-1.6-12-4.7c-2.8-3-4.3-6.9-4.3-11
		c-0.1-4.2,1.5-8.2,4.3-11.3c2.9-3.1,6.9-4.8,11.8-4.8h0.2c4.1-0.1,8.2,1.4,11.1,4.3c2.9,2.9,4.5,6.8,4.4,10.9
		c0,1.4-0.1,2.7-0.4,4.1h-22.9c0.4,1.9,1.7,3.5,3.4,4.3c1.4,0.7,3,1.1,4.5,1.1c0.5,0,1.1,0,1.6-0.1c2.2-0.3,4.3-1.2,5.9-2.6
		L304.1,67.3z M298.7,54.1c-0.2-1.8-1.1-3.3-2.5-4.4c-1.4-1-3.1-1.5-4.8-1.4c-1.8,0-3.5,0.5-5,1.5c-1.5,1-2.4,2.6-2.7,4.4
		L298.7,54.1z"/>
	<path class="st3" d="M119.3,56c0.1-4.1-1.5-8-4.4-10.9c-3-2.9-7-4.5-11.1-4.3h-0.2c-5,0-8.9,1.6-11.8,4.8
		c-2.9,3.1-4.4,7.1-4.3,11.3c-0.1,4.1,1.5,8,4.3,11c2.9,3.1,6.9,4.7,12,4.7c4.8,0,9.4-2,12.6-5.6l-3-2.5c-2.1,2.8-5.4,4.4-9.6,4.4
		c-6.7,0-11.8-4.3-12.6-10.3h1.1l0,0h27C119.2,57.7,119.3,56.9,119.3,56 M91.1,54.8c0.8-6.1,6-10.4,12.6-10.4s11.1,3.9,11.9,10.3
		L91.1,54.8z"/>
</g>
</svg>
