<?xml version="1.0" encoding="UTF-8"?>
<svg width="138px" height="83px" viewBox="0 0 138 83" version="1.1" xmlns="http://www.w3.org/2000/svg" xmlns:xlink="http://www.w3.org/1999/xlink">
    <!-- Generator: Sketch 52.4 (67378) - http://www.bohemiancoding.com/sketch -->
    <title>Artboard Copy 2</title>
    <desc>Created with Sketch.</desc>
    <g id="Artboard-Copy-2" stroke="none" stroke-width="1" fill="none" fill-rule="evenodd">
        <polygon id="Path" fill="#72BF44" points="14.8164635 82.1064238 122.322676 82.1064238 68.9358601 28.6280353"></polygon>
        <path d="M18.3877942,68.3705363 L13.168157,73.498601 L3.82775354,63.9750523 L0.714285714,66.9969476 L12.8018667,79.3592463 L21.1349717,71.2092864 L18.3877942,68.3705363 Z M31.5742462,60.9531571 L29.193359,58.5722699 L23.7905766,63.8834798 L21.1349717,61.2278749 L25.5304557,56.9239634 L23.057996,54.4515037 L18.662512,58.6638425 L16.46477,56.374528 L21.7759798,51.2464633 L19.3950926,48.8655761 L10.7872698,57.1986812 L22.9664234,69.3778347 L31.5742462,60.9531571 Z M36.6107383,56.1913828 L30.0175123,49.4150116 L40.6399319,52.2537617 L43.8449723,49.1402939 C43.8449723,49.1402939 36.1528753,46.484689 35.786585,46.5762616 C35.6950124,46.5762616 37.4348915,41.9060598 33.4972704,39.7998904 C33.4972704,39.7998904 30.5669478,38.2431565 27.5450525,40.8987614 L21.2265443,47.1256971 L33.4056978,59.3964232 L36.6107383,56.1913828 Z M26.995617,46.3015438 C26.9040445,46.2099712 29.0102139,44.3785196 29.3765042,44.1038018 C29.5596494,44.0122292 30.8416655,43.0965034 31.9405365,44.1953744 C31.9405365,44.1953744 33.7719882,45.6605357 32.0321091,47.4004148 C30.2006574,49.1402939 30.0175123,49.3234391 30.0175123,49.3234391 L26.995617,46.3015438 Z M51.170779,42.089205 C55.4746904,37.9684388 53.9179564,32.5656564 51.0792064,29.6353337 C47.5994482,26.064003 41.6472303,26.5218659 38.7169077,29.360616 C35.786585,32.199366 34.3214237,37.7852936 38.4421899,41.9976324 C42.9292465,46.5762616 48.2404563,44.9279551 51.170779,42.089205 Z M41.1893674,32.1077935 C42.2882384,31.0089225 44.577553,30.001624 47.3247305,32.8403741 C50.4381983,36.0454145 50.5297709,37.8768662 48.6067466,39.7083178 C46.6837224,41.5397695 44.3944078,41.0819066 41.6472303,38.3347291 C39.3579157,35.9538419 39.5410609,33.6645274 41.1893674,32.1077935 Z M60.7859002,32.5656564 L63.899368,29.5437611 L59.1375937,24.5988416 L56.2988436,12.7859784 L52.6359403,16.3573092 L54.5589645,23.0421077 L48.1488837,20.6612206 L44.7606981,24.0494061 L55.6578355,27.5291643 L60.7859002,32.5656564 Z M66.3718277,8.75678478 L62.2510615,17.6393253 L64.0825132,19.470777 L72.9650537,15.4415833 L66.4634003,21.8516642 L69.4852956,24.8735594 L81.7560217,12.6944059 L77.8184006,8.75678478 L68.8442875,12.877551 L73.2397715,4.17815563 L69.2105778,0.0573893987 L56.9398517,12.2365429 L59.7786018,15.075293 L66.3718277,8.75678478 Z M81.1150136,36.59485 L83.6790459,34.1223903 L78.3678361,28.7196079 L81.023441,26.064003 L85.2357798,30.3679144 L87.7998122,27.8038821 L83.5874733,23.4999706 L85.6020702,21.4853738 L90.91328,26.8881562 L93.3857397,24.4156965 L84.8694895,15.8078737 L72.5987634,27.9870272 L81.1150136,36.59485 Z M87.0672315,42.6386405 L93.7520301,35.9538419 L91.3711429,46.9425519 L94.5761833,50.2391649 C94.5761833,50.2391649 97.1402156,42.3639228 97.2317882,42.089205 C97.2317882,42.089205 99.9789657,43.6459389 103.000861,40.990334 C103.000861,40.990334 105.931184,38.1515839 103.641869,34.8549709 L96.2244898,27.3460191 L83.8621911,39.4336001 L87.0672315,42.6386405 Z M96.8654979,32.8403741 L99.1548125,35.1296887 C99.4295302,35.4044064 100.986264,36.59485 99.0632399,38.4263017 C99.0632399,38.4263017 97.506506,39.4336001 96.1329172,38.0600113 L93.9351752,35.7706968 C93.9351752,35.6791242 96.5907801,33.1150919 96.8654979,32.8403741 Z M105.290176,60.9531571 L108.220498,58.0228344 L103.092434,52.8031972 L112.341264,43.5543663 L109.227797,40.3493259 L96.8654979,52.5284795 L105.290176,60.9531571 Z M122.872111,54.176786 L110.601385,66.3559395 L107.487918,63.2424717 L119.758644,51.0633181 L122.872111,54.176786 Z M134.318684,65.7149314 L126.168724,73.7733187 L129.740055,61.1363023 L125.527716,56.9239634 L113.25699,69.103117 L116.187313,71.9418671 L124.337273,63.7003346 L121.132232,76.9783591 L124.886708,80.732835 L137.157434,68.5536815 L134.318684,65.7149314 Z" id="Shape" fill="#000000" fill-rule="nonzero"></path>
    </g>
</svg>