<?xml version="1.0" encoding="UTF-8"?>
<svg width="122px" height="40px" viewBox="0 0 122 40" version="1.1" xmlns="http://www.w3.org/2000/svg" xmlns:xlink="http://www.w3.org/1999/xlink">
    <!-- Generator: Sketch 52.4 (67378) - http://www.bohemiancoding.com/sketch -->
    <title>Artboard</title>
    <desc>Created with Sketch.</desc>
    <g id="Artboard" stroke="none" stroke-width="1" fill="none" fill-rule="evenodd">
        <path d="M19.6957381,33.9428571 C22.154619,30.5542857 21.7799048,27.2571429 19.5141905,23.9985714 C21.3354762,28.1071429 20.5279524,31.5871429 16.9420238,34.47 C17.0698333,34.5157143 17.2005476,34.57 17.335619,34.61 C18.7647619,35.0414286 20.2011667,35.4514286 21.6230476,35.9042857 C22.8967857,36.31 23.8364762,37.0785714 24.0732143,38.4428571 C24.1429286,38.8457143 24.0267381,39.2785714 23.991881,39.7471429 C22.8270714,39.39 21.7450476,39.0571429 20.6615714,38.7242857 C16.7212619,37.5142857 12.7824048,36.3028571 8.84209524,35.0942857 C8.61116667,35.0228571 8.37152381,34.9785714 8.13769048,34.9114286 C7.34033333,34.6828571 6.80004762,34.0457143 6.8697619,33.2457143 C6.96707143,32.1342857 6.57783333,31.3128571 5.79354762,30.4957143 C4.56919048,29.2185714 3.416,27.8528571 2.39497619,26.4128571 C0.865619048,24.2542857 0.325333333,21.8242857 0.951309524,19.2271429 C1.45383333,17.1414286 2.78857143,15.6042857 4.52416667,14.3857143 C5.91264286,13.41 7.45361905,12.8057143 9.16742857,12.6571429 C10.259619,12.5628571 11.3009762,12.8314286 12.3525,13.0414286 C17.0495,13.9814286 21.7465,14.9185714 26.4435,15.8557143 C26.5669524,15.88 26.6947619,15.8885714 26.8458095,15.9071429 C26.858881,15.84 26.8835714,15.7842857 26.8806667,15.7285714 C26.7819048,14.2171429 27.2132619,12.8385714 28.0048095,11.5671429 C28.1965238,11.2585714 28.1239048,11.1114286 27.8755476,10.9214286 C27.187119,10.3928571 26.3999286,10.0685714 25.5430238,10.0628571 C24.6294762,10.0571429 23.7057619,10.1442857 22.8009286,10.28 C19.7247857,10.7414286 16.7154524,10.5828571 13.7569524,9.56428571 C11.5507857,8.80428571 9.31702381,8.12 7.10069048,7.38714286 C6.9162381,7.32571429 6.66497619,7.16142857 6.64319048,7.01571429 C6.61995238,6.86428571 6.79859524,6.59428571 6.95690476,6.52142857 C7.75280952,6.15714286 8.56904762,5.83142857 9.38819048,5.52 C9.50002381,5.47714286 9.68011905,5.57 9.81519048,5.63142857 C12.0634762,6.66428571 14.3509762,7.6 16.7154524,8.35 C17.9601429,8.74428571 19.2411429,8.88142857 20.5352143,8.90857143 C21.4560238,8.92857143 22.3782857,8.89142857 23.2976429,8.85857143 C24.7616429,8.80714286 26.2169286,8.82285714 27.6242857,9.29142857 C27.8857143,9.37857143 28.1413333,9.48714286 28.4100238,9.56285714 C27.8479524,9.07714286 27.1798571,8.77142857 26.462381,8.63 C25.6766429,8.47571429 24.869119,8.35 24.0717619,8.35428571 C21.9745238,8.36428571 19.8990714,8.19571429 17.873,7.67571429 C16.9914048,7.45 16.1199762,7.1 15.3182619,6.67285714 C12.8782619,5.37428571 10.4745714,4.01142857 8.05635714,2.67285714 C7.67728571,2.46285714 7.29240476,2.26285714 6.9235,2.03714286 C6.79133333,1.95571429 6.69692857,1.81571429 6.58364286,1.70142857 C6.71290476,1.59142857 6.8247381,1.42142857 6.97288095,1.38285714 C8.01133333,1.11571429 9.04397619,0.801428571 10.1013095,0.647142857 C11.5144762,0.44 12.9465238,0.294285714 14.3742143,0.247142857 C16.6050714,0.172857143 18.7255476,0.754285714 20.8097143,1.48714286 C25.3440476,3.08 29.4528333,5.43 33.2987381,8.24571429 C33.9494048,8.72142857 34.6218571,9.14714286 35.3930714,9.40142857 C36.9950476,9.93142857 38.1482381,11.0085714 39.082119,12.3428571 C39.9230476,13.5442857 40.7349286,14.7657143 41.5729524,15.9714286 C41.7748333,16.2614286 41.8024286,16.5514286 41.6804286,16.8614286 C41.186619,18.13 40.5127143,19.2957143 39.5657619,20.29 C39.3711429,20.4942857 39.101,20.6557143 38.8352143,20.7642857 C37.0923571,21.4828571 35.3596667,22.2285714 33.5877619,22.8728571 C32.3169286,23.3357143 31.1985952,23.9342857 30.2487381,24.9214286 C27.2757143,28.0142857 24.2460476,31.0528571 21.2439762,34.1157143 C21.0929286,34.2685714 20.9607619,34.3314286 20.7429048,34.2528571 C20.4262857,34.1371429 20.0907857,34.0571429 19.6957381,33.9428571 Z M101.17431,32.47 C101.586786,33.0128571 101.935357,33.5614286 102.371071,34.0314286 C103.612857,35.3714286 105.146571,36.0228571 107.009976,35.7557143 C109.121738,35.4528571 110.671429,33.8557143 110.851524,31.7428571 C110.92269,30.9071429 110.863143,30.0614286 110.863143,29.1642857 C108.723786,30.3028571 106.453714,30.6128571 104.092143,30.0628571 C101.695714,29.5057143 99.8482857,28.1714286 98.6079524,26.0728571 C96.7489048,22.9257143 97.0713333,18.7814286 99.3791667,16.01 C100.776357,14.3342857 102.581667,13.3414286 104.752976,12.9942857 C106.893786,12.6514286 108.922762,12.9957143 110.889286,14.04 C110.889286,13.62 110.889286,13.2628571 110.889286,12.8771429 L115.172357,12.8771429 L115.172357,13.2942857 C115.172357,19.16 115.176714,25.0271429 115.170905,30.8928571 C115.168,34.11 113.894262,36.6942857 111.094071,38.4285714 C107.291738,40.7842857 100.873667,40.2657143 98.2419524,34.8257143 C98.0792857,34.4885714 98.0923571,34.3228571 98.4438333,34.1228571 C99.3719048,33.5928571 100.273833,33.0185714 101.17431,32.47 Z M110.918333,21.4971429 C110.882024,21.2014286 110.857333,20.7971429 110.783262,20.4042857 C110.436143,18.5685714 109.131905,17.2657143 107.281571,16.8857143 C105.418167,16.5028571 103.534429,17.2128571 102.526476,18.6914286 C101.819167,19.7271429 101.604214,20.8857143 101.710238,22.1114286 C102.032667,25.8228571 105.561952,27.1928571 108.277905,25.9842857 C110.161643,25.1457143 110.838452,23.5328571 110.918333,21.4971429 Z M82.5722143,32.47 C82.9846905,33.0128571 83.3332619,33.5614286 83.7689762,34.0314286 C85.0107619,35.3714286 86.5444762,36.0228571 88.407881,35.7557143 C90.5196429,35.4528571 92.0693333,33.8557143 92.2494286,31.7428571 C92.3205952,30.9071429 92.2610476,30.0614286 92.2610476,29.1642857 C90.1216905,30.3028571 87.851619,30.6128571 85.4900476,30.0628571 C83.093619,29.5057143 81.2461905,28.1714286 80.0058571,26.0728571 C78.1468095,22.9257143 78.4692381,18.7814286 80.7770714,16.01 C82.1742619,14.3342857 83.9795714,13.3414286 86.150881,12.9942857 C88.2916905,12.6514286 90.3206667,12.9957143 92.2871905,14.04 C92.2871905,13.62 92.2871905,13.2628571 92.2871905,12.8771429 L96.5702619,12.8771429 L96.5702619,13.2942857 C96.5702619,19.16 96.574619,25.0271429 96.5688095,30.8928571 C96.5659048,34.11 95.2921667,36.6942857 92.4919762,38.4285714 C88.6896429,40.7842857 82.2715714,40.2657143 79.6398571,34.8257143 C79.4771905,34.4885714 79.4902619,34.3228571 79.8417381,34.1228571 C80.7698095,33.5928571 81.6702857,33.0185714 82.5722143,32.47 Z M92.3147857,21.4971429 C92.2784762,21.2014286 92.2537857,20.7971429 92.1797143,20.4042857 C91.8325952,18.5685714 90.5283571,17.2657143 88.6780238,16.8857143 C86.814619,16.5028571 84.930881,17.2128571 83.9229286,18.6914286 C83.215619,19.7271429 83.0006667,20.8857143 83.1066905,22.1114286 C83.429119,25.8228571 86.9584048,27.1928571 89.6743571,25.9842857 C91.5595476,25.1457143 92.2349048,23.5328571 92.3147857,21.4971429 Z M77.9521905,21.6042857 C77.9492857,26.5771429 74.1396905,30.3114286 69.0679762,30.3128571 C64.0195,30.3157143 60.1808571,26.5514286 60.1765,21.5985714 C60.1735952,16.6514286 64.0195,12.8657143 69.0534524,12.86 C74.1324286,12.8557143 77.9550952,16.6114286 77.9521905,21.6042857 Z M69.0781429,26.3957143 C71.1739286,26.39 72.8209286,25.2157143 73.4280238,23.2771429 C73.6952619,22.4228571 73.7359286,21.5514286 73.6124762,20.6642857 C73.3554048,18.8342857 72.0758571,17.3757143 70.3170238,16.94 C68.4100476,16.4671429 66.4595,17.1042857 65.3832857,18.5671429 C64.6120714,19.6157143 64.3898571,20.8085714 64.465381,22.0742857 C64.6135238,24.5814286 66.5539048,26.4014286 69.0781429,26.3957143 Z M45.8502143,7.70857143 L50.1826667,7.70857143 C50.1899286,7.88285714 50.2044524,8.05142857 50.2044524,8.22142857 C50.2059048,13.9228571 50.2059048,19.6242857 50.2059048,25.3271429 C50.2059048,25.82 50.2073571,25.82 50.702619,25.82 L59.2251905,25.82 L59.7509524,25.82 L59.7509524,30.0414286 C55.1309286,30.0414286 50.5050952,30.0414286 45.8516667,30.0414286 C45.8502143,22.6142857 45.8502143,15.1842857 45.8502143,7.70857143 Z M121.270905,30.0557143 C119.825786,30.0557143 118.408262,30.0557143 116.958786,30.0557143 C116.958786,24.33 116.958786,18.6128571 116.958786,12.8728571 L121.270905,12.8728571 L121.270905,30.0557143 Z M116.928286,9.88 C116.929738,8.64857143 117.901381,7.68714286 119.134452,7.69571429 C120.341381,7.70428571 121.30431,8.67714286 121.301405,9.88571429 C121.2985,11.1028571 120.302167,12.0914286 119.089429,12.08 C117.889762,12.0671429 116.926833,11.0885714 116.928286,9.88 Z M14.262381,38.2314286 C13.4868095,38.5014286 12.7170476,38.7914286 11.9327619,39.0342857 C11.547881,39.1528571 11.2341667,38.9628571 11.0250238,38.6314286 C10.8405714,38.34 10.876881,37.9157143 11.1049048,37.6414286 C11.3547143,37.3414286 11.6727857,37.2814286 12.0373333,37.3957143 C12.7054286,37.6057143 13.3749762,37.8142857 14.0445238,38.0242857 C14.1055238,38.0428571 14.1621667,38.0714286 14.2217143,38.0957143 C14.2347857,38.1414286 14.2478571,38.1857143 14.262381,38.2314286 Z" id="Combined-Shape" fill="#222222"></path>
    </g>
</svg>