<svg width="50" height="50" viewBox="0 0 50 50" fill="none" xmlns="http://www.w3.org/2000/svg">
<rect width="50" height="50" rx="10" fill="#00BAFF"/>
<path fill-rule="evenodd" clip-rule="evenodd" d="M23.8143 33.9563C25.3433 31.8492 25.1103 29.799 23.7014 27.7728C24.8339 30.3276 24.3318 32.4915 22.102 34.284C22.1815 34.3125 22.2628 34.3462 22.3468 34.3711C23.2354 34.6394 24.1286 34.8943 25.0127 35.1759C25.8048 35.4282 26.3891 35.9061 26.5363 36.7544C26.5796 37.0049 26.5074 37.2741 26.4857 37.5654C25.7614 37.3433 25.0886 37.1364 24.4149 36.9294C21.9648 36.177 19.5156 35.4237 17.0654 34.6722C16.9218 34.6278 16.7728 34.6003 16.6274 34.5585C16.1316 34.4164 15.7957 34.0202 15.839 33.5228C15.8995 32.8317 15.6575 32.3209 15.1698 31.8128C14.4085 31.0187 13.6915 30.1694 13.0566 29.274C12.1056 27.9318 11.7696 26.4208 12.1589 24.8059C12.4714 23.509 13.3013 22.5532 14.3805 21.7955C15.2439 21.1888 16.2021 20.813 17.2677 20.7206C17.9469 20.662 18.5944 20.829 19.2482 20.9596C22.1689 21.5441 25.0895 22.1268 28.0101 22.7095C28.0869 22.7246 28.1664 22.73 28.2603 22.7415C28.2684 22.6998 28.2838 22.6651 28.282 22.6305C28.2206 21.6906 28.4888 20.8334 28.981 20.0429C29.1002 19.851 29.055 19.7595 28.9006 19.6413C28.4725 19.3127 27.983 19.111 27.4502 19.1075C26.8822 19.1039 26.3078 19.1581 25.7452 19.2425C23.8324 19.5294 21.9612 19.4308 20.1215 18.7975C18.7497 18.3249 17.3608 17.8994 15.9826 17.4437C15.8679 17.4055 15.7117 17.3033 15.6981 17.2127C15.6837 17.1186 15.7948 16.9507 15.8932 16.9054C16.3881 16.6789 16.8957 16.4763 17.405 16.2827C17.4745 16.256 17.5865 16.3138 17.6705 16.352C19.0685 16.9942 20.4909 17.5761 21.9612 18.0424C22.7351 18.2876 23.5317 18.3729 24.3363 18.3897C24.9089 18.4022 25.4824 18.3791 26.054 18.3586C26.9644 18.3267 27.8693 18.3364 28.7444 18.6278C28.9069 18.682 29.0659 18.7495 29.2329 18.7966C28.8834 18.4946 28.468 18.3045 28.0219 18.2165C27.5333 18.1206 27.0312 18.0424 26.5354 18.0451C25.2313 18.0513 23.9408 17.9465 22.6809 17.6231C22.1328 17.4828 21.5909 17.2651 21.0924 16.9995C19.5752 16.1921 18.0805 15.3446 16.5769 14.5123C16.3412 14.3817 16.1018 14.2574 15.8724 14.117C15.7903 14.0664 15.7316 13.9793 15.6611 13.9083C15.7415 13.8399 15.811 13.7342 15.9031 13.7102C16.5489 13.5441 17.191 13.3486 17.8484 13.2527C18.7272 13.1239 19.6176 13.0333 20.5054 13.004C21.8925 12.9578 23.2111 13.3193 24.507 13.775C27.3265 14.7655 29.8814 16.2267 32.2728 17.9776C32.6774 18.2734 33.0955 18.5381 33.5751 18.6962C34.5712 19.0258 35.2882 19.6955 35.8689 20.5252C36.3918 21.2723 36.8967 22.0318 37.4178 22.7815C37.5433 22.9618 37.5605 23.1421 37.4846 23.3349C37.1775 24.1237 36.7585 24.8485 36.1697 25.4668C36.0487 25.5938 35.8807 25.6942 35.7154 25.7617C34.6317 26.2085 33.5543 26.6722 32.4525 27.0728C31.6623 27.3607 30.9669 27.7328 30.3763 28.3467C28.5276 30.2698 26.6437 32.1592 24.777 34.0637C24.6831 34.1588 24.6009 34.1979 24.4655 34.149C24.2686 34.0771 24.06 34.0273 23.8143 33.9563Z" fill="white"/>
<path fill-rule="evenodd" clip-rule="evenodd" d="M20.4356 36.6197C19.9533 36.7876 19.4747 36.9679 18.987 37.1189C18.7477 37.1926 18.5526 37.0745 18.4226 36.8684C18.3079 36.6872 18.3305 36.4234 18.4722 36.2528C18.6276 36.0663 18.8254 36.029 19.052 36.1C19.4675 36.2306 19.8838 36.3603 20.3001 36.4909C20.338 36.5024 20.3733 36.5202 20.4103 36.5353C20.4184 36.5637 20.4266 36.5913 20.4356 36.6197Z" fill="white"/>
</svg>
