<?xml version="1.0" encoding="UTF-8"?>
<svg width="171px" height="44px" viewBox="0 0 171 44" version="1.1" xmlns="http://www.w3.org/2000/svg" xmlns:xlink="http://www.w3.org/1999/xlink">
    <!-- Generator: Sketch 52.4 (67378) - http://www.bohemiancoding.com/sketch -->
    <title>Artboard Copy 7</title>
    <desc>Created with Sketch.</desc>
    <g id="Artboard-Copy-7" stroke="none" stroke-width="1" fill="none" fill-rule="evenodd">
        <path d="M0.591836735,35.0766576 L0.591836735,10.0290382 L9.80974449,10.0290382 L9.80974449,13.3590636 L9.90627183,13.3590636 C10.8755071,11.9273365 12.0498671,10.9058087 13.4293519,10.29448 C14.8088031,9.68318498 16.3692557,9.38485674 18.1106929,9.4016441 C19.5022142,9.40770434 20.8213485,9.74553325 22.0681292,10.4151308 C23.3148427,11.0847787 24.2479012,12.0500018 24.867271,13.3107999 C25.00298,13.0212515 25.6967346,12.3335404 26.9485515,11.247633 C28.2002845,10.1617759 30.3539522,9.54651905 33.4095209,9.4016441 C36.5756345,9.50220041 38.8097136,10.4111354 40.1118087,12.1283988 C41.4138198,13.8457293 42.0431781,15.7681342 42.0000345,17.8956304 L42.0000345,35.0766576 L32.4442979,35.0766576 L32.4442979,21.515221 C32.4945425,20.2936213 32.3336692,19.2499845 31.9616947,18.384277 C31.5896364,17.518603 30.7048584,17.0662003 29.3073104,17.0269179 C28.1168345,17.0510749 27.2762912,17.473361 26.7856637,18.2937763 C26.2949859,19.1142419 26.057025,20.1880624 26.0738124,21.515221 L26.0738124,35.0766576 L16.5180757,35.0766576 L16.5180757,21.515221 C16.5683203,20.2936213 16.407447,19.2499845 16.0354558,18.384277 C15.663431,17.518603 14.7786362,17.0662003 13.3810882,17.0269179 C12.1906291,17.0510749 11.3500858,17.473361 10.8594416,18.2937763 C10.3687637,19.1142419 10.130786,20.1880624 10.1475734,21.515221 L10.1475734,35.0766576 L0.591836735,35.0766576 Z M60.8534357,26.1483151 L60.8534357,23.8317597 C60.2712667,24.1173295 59.6619694,24.3546021 59.0255436,24.5436278 C58.3890843,24.7326535 57.7435934,24.8976229 57.0890541,25.038301 C56.0252892,25.2564864 55.2209227,25.5561073 54.6759881,25.9371636 C54.1310367,26.3182368 53.8572348,26.919493 53.8555561,27.7409323 C53.8716216,28.344203 54.1531457,28.8750866 54.7001283,29.3335495 C55.2470774,29.7920459 55.962941,30.0332971 56.8477525,30.0574709 C57.9557353,30.0574877 58.8767237,29.7317122 59.6107008,29.0801778 C60.3446611,28.4286602 60.7589229,27.451367 60.8534357,26.1483151 Z M70.0230798,19.1986823 L70.0230295,29.4783405 C70.0049159,30.4355224 70.0651825,31.4047744 70.204014,32.3860797 C70.3427448,33.3674018 70.6685036,34.26425 71.1813072,35.0766576 L61.4325158,35.0766576 C61.3098002,34.7247441 61.2173018,34.3306104 61.1550207,33.8942397 C61.0930753,33.4578857 61.0725948,33.063752 61.0947541,32.7118385 L60.9982267,32.7118385 C59.9686242,33.850005 58.7580706,34.6382724 57.366566,35.0766576 C55.9750111,35.515026 54.4990157,35.7241966 52.9385799,35.7040518 C50.4591535,35.7171123 48.3839164,35.1118439 46.7128854,33.888213 C45.0418209,32.6645989 44.1730748,30.7441916 44.1067647,28.1270249 C44.1910709,25.5468407 45.0520276,23.7039742 46.6896349,22.5984256 C48.3272422,21.4928938 50.2356465,20.7761237 52.4148645,20.4481154 C54.594049,20.1201239 56.5382103,19.8323549 58.2473318,19.5847749 C58.9259946,19.4862499 59.5232218,19.2851708 60.0390304,18.9815042 C60.5548053,18.6778712 60.8262402,18.1389632 60.8534357,17.3647468 C60.8192399,16.5292565 60.4894521,15.9320125 59.8640725,15.5730483 C59.238676,15.2140673 58.5227957,15.0398145 57.7164482,15.0482081 C56.2826731,15.0884474 55.3254912,15.3820416 54.8449026,15.928974 C54.3642971,16.4759566 54.1316914,17.0349926 54.1451213,17.6060651 L45.2650425,17.6060651 C45.3555263,15.8555964 45.7898826,14.4339081 46.5680944,13.3409668 C47.3463062,12.2480759 48.3597929,11.4175714 49.6085545,10.8494871 C50.8361977,10.2824267 52.1935399,9.89635092 53.6805982,9.69120934 C55.1676396,9.48608454 56.6577028,9.38989295 58.1508045,9.4016441 C62.0653155,9.43323792 64.8644741,9.92240491 66.5482634,10.8691451 C68.232036,11.8159188 69.2508779,13.0307867 69.6048227,14.5137656 C69.9587842,15.9967781 70.0981193,17.5584058 70.0230798,19.1986823 Z M81.6099364,21.3221831 C81.5747333,22.8233259 81.862284,24.2007795 82.4726054,25.4545605 C83.0828932,26.7083583 84.2270864,27.3739773 85.9051848,27.451367 C87.6093876,27.3689243 88.7013049,26.6892543 89.1809198,25.4123235 C89.6605852,24.1354263 89.8716023,22.7559582 89.8143574,21.2739194 C89.8163383,19.8653085 89.4744973,18.7010042 88.7888006,17.7810063 C88.1030704,16.861042 87.0614313,16.3844991 85.6638832,16.3512601 C84.3125508,16.3925066 83.2990641,16.8891944 82.6234231,17.84134 C81.9477485,18.7935025 81.6099196,19.9537779 81.6099364,21.3221831 Z M99.1287757,10.0290382 L99.1287757,31.8431428 C99.1850638,33.5558232 98.9276631,35.3265879 98.3566074,37.1554536 C97.7854845,38.9843194 96.5628608,40.5370162 94.6887363,41.8135609 C92.8145783,43.0901056 89.9510737,43.7562114 86.0982395,43.8119455 C83.0105061,43.8863303 80.1972797,43.3393812 77.6585435,42.1710646 C75.1197905,41.0027313 73.5734225,38.7666209 73.0194228,35.4627334 L82.4786321,35.4627334 C82.5309079,35.5864059 82.607324,35.7252206 82.7078803,35.8789929 C82.8084031,36.0328323 82.9089594,36.1837171 83.0095157,36.3314459 C83.3040835,36.7879111 83.6921906,37.2021561 84.1738201,37.5741641 C84.6553992,37.9461888 85.2003506,38.1432221 85.8086575,38.1653814 C87.3168174,38.0557767 88.3303041,37.3579932 88.8491176,36.0720476 C89.3679143,34.7860851 89.6091319,33.5694881 89.5730391,32.4222733 L89.5730391,30.1057346 L89.4765117,30.1057346 C88.6992736,31.2217753 87.7441062,32.0784177 86.6109927,32.675645 C85.4778457,33.272889 84.1969027,33.5738361 82.7681805,33.580551 C79.0912779,33.4910743 76.3826032,32.2945886 74.6421901,29.9911105 C72.9017601,27.6876492 72.0390743,24.814089 72.0541829,21.3704468 C72.0602096,18.0213174 72.977169,15.21212 74.8050778,12.9428041 C76.6329699,10.6735555 79.3355844,9.49313523 82.9129715,9.4016441 C84.3416937,9.39462699 85.6467601,9.6862067 86.8281708,10.2763833 C88.009548,10.8665934 88.8923283,11.7976374 89.4765117,13.0694984 L89.5730391,13.0694984 L89.5730391,10.0290382 L99.1287757,10.0290382 Z M117.787427,26.1483151 L117.787427,23.8317597 C117.205258,24.1173295 116.59596,24.3546021 115.959535,24.5436278 C115.323059,24.7326535 114.677568,24.8976229 114.023045,25.038301 C112.959263,25.2564864 112.154914,25.5561073 111.609979,25.9371636 C111.065011,26.3182368 110.791209,26.919493 110.78953,27.7409323 C110.805613,28.344203 111.087137,28.8750866 111.634103,29.3335495 C112.181052,29.7920459 112.896932,30.0332971 113.781744,30.0574709 C114.889726,30.0574877 115.810698,29.7317122 116.544692,29.0801778 C117.278652,28.4286602 117.692914,27.451367 117.787427,26.1483151 Z M126.957071,19.1986823 L126.957004,29.4783405 C126.938873,30.4355224 126.999157,31.4047744 127.137988,32.3860797 C127.276702,33.3674018 127.602478,34.26425 128.115281,35.0766576 L118.36649,35.0766576 C118.243774,34.7247441 118.151276,34.3306104 118.088995,33.8942397 C118.02705,33.4578857 118.006569,33.063752 118.028728,32.7118385 L117.932201,32.7118385 C116.902615,33.850005 115.692062,34.6382724 114.30054,35.0766576 C112.909002,35.515026 111.433007,35.7241966 109.872571,35.7040518 C107.393144,35.7171123 105.317907,35.1118439 103.64686,33.888213 C101.975812,32.6645989 101.107066,30.7441916 101.040756,28.1270249 C101.125062,25.5468407 101.986019,23.7039742 103.623626,22.5984256 C105.261233,21.4928938 107.169638,20.7761237 109.348839,20.4481154 C111.52804,20.1201239 113.472201,19.8323549 115.181323,19.5847749 C115.859969,19.4862499 116.457213,19.2851708 116.973021,18.9815042 C117.488796,18.6778712 117.760231,18.1389632 117.787427,17.3647468 C117.753214,16.5292565 117.423443,15.9320125 116.798063,15.5730483 C116.172667,15.2140673 115.456787,15.0398145 114.650439,15.0482081 C113.216664,15.0884474 112.259482,15.3820416 111.778894,15.928974 C111.298271,16.4759566 111.065682,17.0349926 111.079112,17.6060651 L102.199033,17.6060651 C102.289517,15.8555964 102.723857,14.4339081 103.502085,13.3409668 C104.280297,12.2480759 105.293767,11.4175714 106.542546,10.8494871 C107.770189,10.2824267 109.127531,9.89635092 110.614589,9.69120934 C112.101631,9.48608454 113.591694,9.38989295 115.084795,9.4016441 C118.999307,9.43323792 121.798448,9.92240491 123.482254,10.8691451 C125.16601,11.8159188 126.184869,13.0307867 126.538814,14.5137656 C126.892607,15.9967781 127.03211,17.5584058 126.957071,19.1986823 Z M130.548537,35.0766576 L130.548537,0.618075802 L140.104274,0.618075802 L140.104274,35.0766576 L130.548537,35.0766576 Z M170.084507,10.0290382 L170.084507,35.0766576 L160.8666,35.0766576 L160.8666,31.8914065 L160.770072,31.8914065 C159.887275,33.1482092 158.78129,34.09735 157.452117,34.7388287 C156.12291,35.3802907 154.510165,35.702373 152.613915,35.7040518 C150.29234,35.7090712 148.299562,35.0112876 146.635549,33.6107179 C144.971535,32.2101314 144.100791,30.076575 144.023401,27.2100655 L144.023401,10.0290382 L153.579138,10.0290382 L153.579138,23.1561018 C153.534886,24.628085 153.70783,25.8104862 154.097951,26.7033221 C154.488056,27.5961581 155.360781,28.0545874 156.716125,28.0787612 C157.592862,28.1280321 158.433405,27.8243991 159.237789,27.1678285 C160.042122,26.5112915 160.472533,25.206225 160.528771,23.2526292 L160.528771,10.0290382 L170.084507,10.0290382 Z" id="Combined-Shape" fill="#097DB6"></path>
    </g>
</svg>