<?xml version="1.0" encoding="UTF-8"?>
<svg width="95px" height="21px" viewBox="0 0 95 21" version="1.1" xmlns="http://www.w3.org/2000/svg" xmlns:xlink="http://www.w3.org/1999/xlink">
    <!-- Generator: Sketch 52.4 (67378) - http://www.bohemiancoding.com/sketch -->
    <title>magalu</title>
    <desc>Created with Sketch.</desc>
    <g id="MARKETPLACE" stroke="none" stroke-width="1" fill="none" fill-rule="evenodd">
        <g id="MODAL-ESCOLHA-DO-MARKETPLACE-SOMENTE-ML" transform="translate(-870.000000, -431.000000)" fill="#0086FF" fill-rule="nonzero">
            <g id="magalu" transform="translate(870.000000, 431.000000)">
                <path d="M41.0839101,20.986398 C39.5301502,20.8460562 38.3584819,20.5436836 37.2155816,19.9885312 C36.4690542,19.6259474 36.2715468,19.4173692 36.2715468,18.9918991 C36.2715468,18.6778794 36.8945242,17.3169761 37.2553383,16.8425717 C37.5470515,16.4589984 37.9429716,16.4437707 38.7774904,16.7841303 C40.0085467,17.2863561 41.8463237,17.5060053 42.9947389,17.2882493 C45.060849,16.8964448 46.1739524,15.4939329 46.1739524,13.2825423 L46.1739524,12.7324933 L45.6418062,13.2084617 C44.4839663,14.2440684 42.8637807,14.7609458 41.0854329,14.6620892 C40.0118392,14.6024131 39.3761035,14.441905 38.5387449,14.0196863 C36.0629274,12.7708918 34.7137948,9.88886526 35.0702875,6.60997208 C35.4814229,2.8281534 38.1208887,0.346039084 41.7317868,0.346039084 C43.2866579,0.346039084 44.7123818,0.833325331 45.7960175,1.73509298 L46.3372592,2.18550351 L46.4447173,1.63957006 C46.6145678,0.776242052 46.7394349,0.716195546 48.365547,0.716195546 C49.6632347,0.716195546 49.7053784,0.724426732 49.9295959,0.94666877 L50.160028,1.17714199 L50.1065253,15.3845816 L49.8896747,16.0324172 C49.2358715,17.9854308 48.1417822,19.2479714 46.3131418,20.1595341 C44.8968838,20.8654818 43.0245358,21.1614753 41.0842805,20.9860687 L41.0839101,20.986398 Z M44.1177608,10.8538073 C44.8608724,10.5179749 45.6094165,9.73358393 45.9062742,8.97956608 C46.1828009,8.27707546 46.204202,6.83591815 45.9485002,6.13058778 C45.413185,4.65395406 44.1480105,3.87730045 42.4416855,3.97788555 C41.0253452,4.06143209 40.0506081,4.64950922 39.5106422,5.74639714 C38.7957225,7.19858424 38.9712114,8.99351794 39.932079,10.0570696 C40.6486449,10.8502267 41.5237024,11.1879111 42.7497376,11.1444093 C43.375884,11.1238313 43.6550035,11.0629206 44.1177608,10.8538484 L44.1177608,10.8538073 Z M23.4702408,15.1019227 C21.1694596,14.5850865 19.4174515,12.8090433 18.6825711,10.2488151 C18.4277707,9.36099927 18.3329021,7.2396167 18.5012628,6.19450294 C18.8298888,4.15456797 19.9786785,2.33518764 21.5738413,1.32822542 C23.8889037,-0.132974819 27.2677646,0.0665079877 29.2103247,1.77908867 L29.6914375,2.20320056 L29.749455,1.85337513 C29.9256683,0.790399693 30.0516013,0.716689417 31.6906569,0.716689417 C33.1662617,0.716689417 33.3330667,0.774719282 33.4911878,1.34407046 C33.6220431,1.81518242 33.6220431,13.7776894 33.4911878,14.2489248 C33.3344455,14.8132961 33.1601707,14.876347 31.7565476,14.876347 C31.0773924,14.876347 30.4415744,14.8335448 30.3436232,14.7812768 C30.1031903,14.6524587 29.9175359,14.2707374 29.8381872,13.7416368 C29.80197,13.500463 29.7527063,13.3032849 29.7284778,13.3032849 C29.7043193,13.3032849 29.4695618,13.4926022 29.2068676,13.7243924 C28.6681775,14.1993319 27.5020653,14.8127199 26.7394871,15.0222448 C25.9757564,15.23214 24.237124,15.2749422 23.4703478,15.1024989 L23.4702408,15.1019227 Z M27.1229533,11.4510622 C28.5329968,11.0056727 29.3811794,9.7961821 29.4913538,8.07388862 C29.6057591,6.28574564 28.8801059,4.89714446 27.4908462,4.24572836 C27.0322045,4.03048283 26.8556867,4.00167367 25.9970505,4.00167367 C25.083718,4.00167367 24.9851496,4.02225164 24.4066618,4.30540446 C23.311914,4.8443414 22.7267589,5.70540583 22.4757489,7.1466866 C22.2917983,8.20299478 22.5700289,9.46158437 23.1840836,10.3510464 C23.9280594,11.4286733 25.6613415,11.9127083 27.1229122,11.4509799 L27.1229533,11.4510622 Z M56.7239466,15.1082195 C55.6597365,14.8691036 54.6480413,14.2940317 53.8005583,13.4465487 C53.1684444,12.8144348 52.9743942,12.5424764 52.5734119,11.7266834 C52.022869,10.6065836 51.8546647,10.0171483 51.7078203,8.69266807 C51.5265696,7.05816019 51.8198056,5.33360313 52.5133242,3.95562019 C53.6252752,1.74612277 55.5306303,0.506835315 58.0212227,0.373160844 C59.7522413,0.280148436 61.2025352,0.72545563 62.4302578,1.72719104 L63.0003087,2.19221193 L63.0660759,1.71369189 C63.1134875,1.36880517 63.2043598,1.16273742 63.3912077,0.975889483 L63.6505313,0.716607105 L64.9869467,0.716607105 C66.307476,0.716607105 66.3262431,0.719858424 66.5673345,0.960661787 L66.8113069,1.20471647 L66.8113069,7.72258157 C66.8113069,12.5003738 66.7824978,14.294361 66.703643,14.4425223 C66.4948589,14.8343268 66.3562046,14.870009 65.0226701,14.8730545 L63.7430498,14.876347 L63.4804749,14.6137721 C63.2963845,14.4298051 63.1981452,14.2153827 63.151886,13.8965477 C63.1156687,13.6463196 63.0679279,13.4107431 63.0460741,13.3726327 C63.0242614,13.3355923 62.748352,13.513386 62.4331799,13.770199 C61.7689232,14.3111937 60.8020468,14.8104152 60.0092189,15.0217098 C59.2223175,15.231605 57.475742,15.2776997 56.7238643,15.1085488 L56.7239466,15.1082195 Z M60.7713857,11.3183754 C61.4683202,11.0035326 62.1047967,10.3586191 62.418158,9.65007854 C63.0340565,8.25740292 62.9033453,6.47728535 62.0992818,5.30853917 C61.3070713,4.15707848 59.6193899,3.66744634 58.0807342,4.14271506 C56.3262568,4.68461523 55.3416834,6.79476222 55.8457201,8.9328541 C56.1665306,10.2935104 56.9620748,11.1669628 58.1981109,11.5155947 C58.9082154,11.7160241 60.0925597,11.6250695 60.7713445,11.3184578 L60.7713857,11.3183754 Z M84.8809427,15.1057913 C83.4017985,14.7843635 82.1347308,13.7749319 81.4465213,12.3693333 C80.6803213,10.8044613 80.5827406,9.92870421 80.619287,4.94233368 L80.6468615,1.16302551 L80.9065143,0.939548794 C81.1575655,0.723480146 81.2151426,0.716483637 82.6478218,0.716483637 C83.4807356,0.716483637 84.206932,0.75763957 84.3063648,0.811142283 C84.7052892,1.02474158 84.7166894,1.13792039 84.7680109,5.39015139 C84.8243945,10.0580573 84.8165749,10.0090817 85.644303,10.8638905 C85.9971328,11.2281205 86.2264125,11.3768169 86.6096977,11.489296 C87.2485201,11.6769671 87.9280457,11.6769671 88.5583488,11.4897487 C89.2324007,11.2897309 90.0143634,10.5143943 90.3244322,9.7389342 C90.5434641,9.19118989 90.5467977,9.13484741 90.5940036,5.17350655 L90.6417856,1.16277857 L90.9014796,0.939713418 C91.1525307,0.724056329 91.2102314,0.716648261 92.6427871,0.716648261 C93.5271458,0.716648261 94.1997572,0.757804194 94.3112898,0.816657178 C94.7556915,1.05453847 94.7600952,1.12285732 94.7600952,7.79629185 C94.7600952,14.4697264 94.7559796,14.5380452 94.3112898,14.7759265 C94.2052721,14.8327217 93.6103219,14.8759354 92.9358585,14.8759354 C91.643521,14.8759354 91.4521871,14.8162593 91.2075151,14.3381509 C91.1374265,14.2011016 91.0507521,13.9122693 91.014823,13.6959537 C90.9790173,13.4794735 90.9348159,13.302503 90.9167484,13.302503 C90.8986398,13.302503 90.6642568,13.5132213 90.3956731,13.7707752 C89.1472902,14.9677543 86.8291411,15.5288332 84.8807781,15.1056267 L84.8809427,15.1057913 Z M0.247882184,14.760493 C0.164101052,14.6967014 0.0566593729,14.5398972 0.00913250153,14.4114907 C-0.101103665,14.1135218 0.935017526,1.40498124 1.09367365,1.10865852 C1.15324686,0.997537503 1.28158752,0.863780721 1.37887192,0.811512686 C1.65918498,0.661293531 4.11751116,0.690514243 4.42095386,0.848553026 C4.67910445,0.981898249 4.90692311,1.36864055 7.44426869,5.97864007 C8.32903894,7.58602619 8.55288606,7.93062482 8.64663928,7.82954584 C8.71000295,7.761227 9.60483171,6.26854246 10.6351293,4.51250111 C11.665427,2.75645977 12.6490538,1.18430313 12.8209209,1.01889743 L13.1334097,0.718047563 L14.4811019,0.718047563 C15.8062406,0.718047563 15.8324569,0.722163156 16.0471263,0.953459499 C16.2009507,1.11931791 16.282246,1.34526398 16.3222208,1.71698437 C16.4154431,2.58426334 17.3006619,13.8160055 17.3006619,14.1316715 C17.3006619,14.3176964 17.2184612,14.5053674 17.0735018,14.650154 C16.8505806,14.8732191 16.81773,14.8773347 15.3109166,14.8773347 C13.8285622,14.8773347 13.7681042,14.8691036 13.5609252,14.6629123 C13.2909958,14.3929294 13.2654914,14.1384211 13.1280882,10.342774 C13.0700501,8.73942121 12.9960477,7.31538477 12.9636456,7.17829436 C12.9118344,6.95893324 12.7386338,7.2153347 11.5260689,9.29333891 C10.5054017,11.0437419 10.0728529,11.7031834 9.86024131,11.8327834 C9.44263206,12.0875387 7.48677866,12.090008 7.07106258,11.8360759 C6.85961574,11.7072578 6.48459053,11.1112376 5.55491916,9.42705454 C4.87555818,8.19632752 4.30805902,7.20121822 4.29381906,7.2157051 C4.27953796,7.23216748 4.17919156,8.72040717 4.07078683,10.5273584 C3.96237799,12.3343096 3.85186608,13.9527256 3.82520527,14.1238519 C3.79854857,14.2950606 3.67726615,14.5345881 3.55570387,14.655957 C3.34128969,14.8703794 3.29079959,14.8769643 1.86744634,14.8769643 C0.83661369,14.8769643 0.354883494,14.8440396 0.247878069,14.7613162 L0.247882184,14.760493 Z M72.3324988,14.7275683 C71.0411902,14.4147832 69.7960175,13.4430093 69.2744072,12.3404007 C68.7318485,11.1935083 68.7260867,11.1339969 68.6861654,6.27360464 C68.665999,3.80828195 68.676288,1.6485009 68.7088012,1.47399974 C68.7413144,1.29949858 68.8677454,1.05733707 68.98932,0.935762448 C69.204936,0.720105359 69.2488082,0.714755088 70.7775865,0.714755088 C72.1823619,0.714755088 72.3674813,0.731217461 72.5633013,0.8917256 L72.7817981,1.06869611 L72.830856,5.40365053 C72.8839883,10.0937807 72.8787203,10.0468629 73.4095907,10.5971177 C73.8992228,11.1046938 74.3158443,11.1729715 76.923937,11.1729715 L79.2278873,11.1729715 L79.7689232,11.7137605 L79.7689232,14.3335002 L79.2278873,14.8742892 L76.051102,14.866058 C73.6481716,14.8619424 72.7422884,14.8249021 72.3324165,14.7273625 L72.3324988,14.7275683 Z" id="Shape"></path>
            </g>
        </g>
    </g>
</svg>