<?xml version="1.0" encoding="UTF-8"?>
<svg width="136px" height="24px" viewBox="0 0 136 24" version="1.1" xmlns="http://www.w3.org/2000/svg" xmlns:xlink="http://www.w3.org/1999/xlink">
    <!-- Generator: Sketch 52.4 (67378) - http://www.bohemiancoding.com/sketch -->
    <title>Artboard</title>
    <desc>Created with Sketch.</desc>
    <g id="Artboard" stroke="none" stroke-width="1" fill="none" fill-rule="evenodd">
        <path d="M135.120636,0.8265 L103.460455,0.8265 L107.678,4.92 L108.016455,13.872 L114.397636,11.1135 L119.967455,16.3005 L135.120636,0.8265 Z M108.579,12.645 L108.579,5.7945 L131.805636,1.701 L111.870818,8.88 L108.579,12.645 Z" id="Shape" fill="#79AADD" fill-rule="nonzero"></path>
        <path d="M63.8396364,19.3875 C64.1780909,20.1525 64.6293636,20.9415 65.1022727,21.8385 C64.3140909,22.626 63.2987273,23.1735 61.8104545,23.1735 C60.3221818,23.1735 59.0595455,22.7145 58.2698182,21.8385 C57.3456364,20.94 56.8943636,19.737 56.8943636,17.964 L56.8943636,0.8265 L60.299,0.8265 L60.299,17.6145 C60.299,19.278 60.8630909,20.0445 62.1257273,20.0445 C62.8242727,20.0445 63.3883636,19.8255 63.7268182,19.278 L63.8396364,19.3875 Z M97.2137273,17.943 L98.8364545,20.481 C97.1225455,22.1445 94.9589091,23.0205 92.5680909,23.13 C90.1788182,23.2395 88.1264545,22.5825 86.4125455,21.138 C84.5858182,19.6935 83.7960909,17.703 83.6832727,15.273 C83.6832727,13.6095 84.0217273,12.0555 84.8114545,10.743 C85.5996364,9.4305 86.615,8.424 87.8776364,7.767 C89.4787273,7.2195 90.7197273,6.7815 92.208,6.7815 C94.486,6.672 96.2895455,7.11 97.7778182,8.3355 C99.2660909,9.429 100.055818,10.983 100.168636,12.975 L100.168636,13.0845 L88.2176364,18.2715 C89.3674545,19.6065 90.8325455,20.0445 92.6592727,20.0445 C94.4844545,20.0445 96.0855455,19.278 97.2137273,17.943 Z M87.2919091,15.075 C87.2919091,15.294 87.2919091,15.513 87.4279091,15.6225 L96.4255455,11.529 C95.6126364,10.194 94.3731818,9.6465 92.5464545,9.6465 C91.171,9.6465 89.9083636,10.215 88.7801818,11.2005 C87.7431818,12.2085 87.2919091,13.4115 87.2919091,15.075 Z M78.9928182,17.943 L80.6155455,20.481 C78.9016364,22.1445 76.738,23.0205 74.3471818,23.13 C71.9579091,23.2395 69.9055455,22.5825 68.1916364,21.138 C66.3649091,19.6935 65.5751818,17.703 65.4623636,15.273 C65.4623636,13.6095 65.8008182,12.078 66.5905455,10.743 C67.3787273,9.4305 68.3940909,8.424 69.6567273,7.767 C71.2578182,7.2195 72.4988182,6.7815 73.9870909,6.7815 C76.2650909,6.672 78.0686364,7.11 79.5569091,8.3355 C81.0451818,9.429 81.8349091,10.983 81.9477273,12.975 L81.9477273,13.0845 L69.9967273,18.2715 C71.1465455,19.6065 72.6116364,20.0445 74.4383636,20.0445 C76.2635455,20.0445 77.8646364,19.278 78.9928182,17.943 Z M68.8453636,15.075 C68.8453636,15.294 68.8453636,15.513 68.9813636,15.6225 L77.979,11.529 C77.1660909,10.194 75.9266364,9.6465 74.0999091,9.6465 C72.7244545,9.6465 71.4618182,10.215 70.3336364,11.2005 C69.2966364,12.2085 68.8453636,13.4115 68.8453636,15.075 Z M4.30718182,14.199 L4.30718182,22.932 L0.879363636,22.932 L0.879363636,6.912 L4.284,6.912 L4.284,9.7785 C4.84809091,8.793 5.54663636,8.115 6.562,7.458 C7.57736364,6.9105 8.61436364,6.582 9.741,6.582 C12.3574545,6.582 14.0713636,7.5675 15.0851818,9.6675 C16.6862727,7.566 18.7386364,6.582 21.2407273,6.582 C23.0674545,6.582 24.6453636,7.1295 25.7951818,8.2455 C26.9233636,9.3405 27.5090909,10.8945 27.5090909,12.9945 L27.5090909,22.9305 L24.1044545,22.9305 L24.1044545,14.088 C24.1044545,11.112 22.8418182,9.6675 20.3381818,9.6675 C19.21,9.6675 18.173,9.996 17.272,10.7625 C16.3694545,11.529 15.8965455,12.5355 15.8965455,13.9575 L15.8965455,22.9095 L12.4919091,22.9095 L12.4919091,14.0895 C12.4919091,12.5355 12.2662727,11.4405 11.7021818,10.785 C10.9124545,10.128 9.98827273,9.69 8.86009091,9.69 C7.59745455,9.69 6.58209091,10.128 5.79390909,10.785 C4.75845455,11.661 4.30718182,12.7545 4.30718182,14.199 Z M32.4267273,20.832 C30.8256364,19.278 30.1487273,17.286 30.1487273,14.8575 C30.1487273,12.429 30.9384545,10.437 32.5395455,8.883 C34.1406364,7.4385 35.9441818,6.672 38.2221818,6.672 C40.3873636,6.672 42.2140909,7.6575 43.5663636,9.648 L43.5663636,6.912 L46.9941818,6.912 L46.9941818,22.9335 L43.5895455,22.9335 L43.5895455,20.2845 C42.9126364,21.1605 42.1012727,21.948 41.0859091,22.386 C40.0705455,22.824 39.0335455,23.1525 38.0197273,23.1525 C35.7200909,23.151 33.8933636,22.3635 32.4267273,20.832 Z M33.5549091,14.9655 C33.5549091,16.5195 34.0061818,17.724 35.0431818,18.7305 C36.0585455,19.716 37.2083636,20.175 38.5838182,20.175 C39.9592727,20.175 41.0874545,19.737 41.9884545,18.7305 C42.891,17.724 43.4767273,16.5195 43.4767273,14.9655 C43.4767273,13.4115 43.0254545,12.207 41.9884545,11.091 C41.0859091,10.1055 39.8232727,9.537 38.4478182,9.537 C37.0723636,9.537 35.8313636,10.0845 34.9071818,11.091 C34.0061818,12.2085 33.5549091,13.4115 33.5549091,14.9655 Z M51.9999091,5.139 C51.4373636,5.139 50.9860909,4.92 50.3988182,4.5915 C49.9475455,4.1325 49.7219091,3.585 49.7219091,3.0375 C49.7219091,2.3595 49.9475455,1.9215 50.3988182,1.4835 C50.8717273,1.0455 51.4358182,0.8265 51.9999091,0.8265 C52.6984545,0.8265 53.1497273,1.0455 53.601,1.374 C54.0522727,1.833 54.2779091,2.3805 54.2779091,2.928 C54.2779091,3.606 54.0522727,4.044 53.601,4.482 C53.1280909,4.92 52.564,5.139 51.9999091,5.139 Z M53.7138182,7.1295 L53.7138182,22.932 L50.3091818,22.932 L50.3091818,8.2245 L53.7138182,7.1295 Z" id="Combined-Shape" fill="#53616F"></path>
    </g>
</svg>