<?xml version="1.0" encoding="UTF-8"?>
<svg width="116px" height="81px" viewBox="0 0 116 81" version="1.1" xmlns="http://www.w3.org/2000/svg" xmlns:xlink="http://www.w3.org/1999/xlink">
    <!-- Generator: Sketch 52.4 (67378) - http://www.bohemiancoding.com/sketch -->
    <title>Artboard Copy 4</title>
    <desc>Created with Sketch.</desc>
    <g id="Artboard-Copy-4" stroke="none" stroke-width="1" fill="none" fill-rule="evenodd">
        <path d="M115.64535,40.3108999 C115.64535,62.3489504 89.9182996,80.2151312 58.1807297,80.2151312 C26.4447199,80.2151312 0.716889134,62.3489504 0.716889134,40.3108999 C0.716889134,18.2736293 26.4447199,0.407448586 58.1807297,0.407448586 C89.9182996,0.407448586 115.64535,18.2736293 115.64535,40.3108999" id="Fill-1" fill="#262F75"></path>
        <path d="M112.931061,37.478506 C112.931061,57.1178095 88.3585289,73.0400299 58.0469459,73.0400299 C27.7361429,73.0400299 3.16361122,57.1178095 3.16361122,37.478506 C3.16361122,17.8399827 27.7361429,1.91854227 58.0469459,1.91854227 C88.3585289,1.91854227 112.931061,17.8399827 112.931061,37.478506" id="Fill-4" fill="#FADE00"></path>
        <path d="M113.615893,35.411059 L113.518383,34.5950949 C112.647033,27.2678 108.478284,20.3687692 101.463801,14.6468797 L100.962209,14.2373375 L100.395871,14.5501497 C90.6526672,19.9241234 80.1457647,20.153467 69.170814,15.2342802 C54.2119928,8.52870932 46.7973288,16.290509 46.5071389,16.6056615 L44.7784808,18.3756639 C41.7314869,18.0386691 33.6521945,19.0551139 32.2964148,19.2306319 C27.8398156,18.9139193 22.3550705,17.1431369 15.992735,13.9658695 L15.4521393,13.6951816 L14.9747301,14.0688401 C7.30654007,20.0723387 2.86866283,27.3871523 2.14084784,35.2230596 L3.09410606,35.3119888 L2.95603183,36.2590064 C8.43375621,37.0546884 16.836782,39.0774368 25.766362,44.1939839 L25.9520211,44.2985147 C25.7507604,44.8765543 25.6189268,45.485797 25.6189268,46.1309235 C25.6189268,49.2294027 28.1385864,51.7490623 31.2370656,51.7490623 C31.4281853,51.7490623 31.6216453,51.7373611 31.8205658,51.7123986 C32.3026554,53.5869317 33.4852573,55.0410015 35.1101647,55.7017296 C36.3606335,56.2095619 37.7866204,56.1931802 39.1470806,55.6658459 C39.752423,57.4264873 40.9373651,58.7549641 42.5115673,59.39385 C43.8455047,59.9360058 45.3674415,59.9336656 46.8199511,59.3946301 C47.6366953,61.9306713 49.9948783,63.7170554 52.7470018,63.7170554 C54.4358758,63.7170554 55.9656134,63.0376054 57.0936096,61.9462729 C57.6810102,62.2528445 60.0844378,63.422185 62.609558,63.422185 C64.1369553,63.422185 65.7017965,62.9915806 66.9234024,61.6771452 C69.491427,61.742672 73.7374045,60.8853636 74.7749114,57.3180561 C77.3639981,57.181542 81.3221259,55.8491648 82.3775747,51.4635529 C83.6959105,51.376964 86.2857773,51.0048657 87.7788512,49.4415846 C89.5800567,47.55301 89.6089197,45.1815657 88.7126074,43.4529076 C90.2844693,42.5893586 95.5086676,40.4503782 112.824892,35.6310417 L113.615893,35.411059 Z" id="Fill-6" fill="#262F75"></path>
        <path d="M48.4544535,57.9130234 L48.2976574,56.4347711 L47.0167654,57.1883287 C45.7577157,57.9270648 44.3839942,58.0885415 43.2325955,57.6204933 C41.936882,57.0931589 41.0210677,55.8177275 40.7207367,54.1187125 L40.4750114,52.7309495 L39.2752478,53.4704657 C38.1230691,54.1803388 36.8749405,54.3511764 35.831193,53.9275928 C34.5783839,53.4182003 33.7195154,52.124047 33.5354164,50.4640359 L33.4074833,49.319658 L32.3052297,49.6543125 C31.900368,49.7767851 31.561033,49.833731 31.2365196,49.833731 C29.1950492,49.833731 27.5334781,48.17372 27.5334781,46.1306895 C27.5334781,45.6228571 27.6372287,45.1376472 27.823668,44.6969017 L28.0108872,44.3575668 C28.3338405,43.7701663 28.8018887,43.2958774 29.3495052,42.9627831 C29.3705673,42.9495217 29.3931897,42.9393807 29.4150319,42.9268994 C29.649056,42.7911654 29.8994618,42.6881948 30.1584485,42.6070664 C30.2169545,42.5891246 30.2739004,42.5680624 30.3339666,42.5524608 C30.6264967,42.476793 30.9283878,42.4276479 31.2365196,42.4276479 C32.550955,42.4276479 33.7795816,43.1515625 34.4410897,44.3154424 L35.0105484,45.3178457 L35.8912592,44.573649 C37.1744914,43.4908975 38.7408928,43.12738 40.0085234,43.641453 C41.0507107,44.0658167 41.8120692,45.0237554 42.1521842,46.3381908 L42.5032204,47.6947506 L43.6397975,46.8748861 C45.0158593,45.8802837 46.5916216,45.5986747 47.8982562,46.1299094 C49.8983823,46.9435332 50.9179474,49.4374502 50.3789118,52.1942542 L50.080141,53.7200914 L51.5771153,53.2996281 C52.0241013,53.1748152 52.3954196,53.1155291 52.7472358,53.1155291 C55.1413025,53.1155291 57.0899433,55.0641699 57.0899433,57.4590166 C57.0899433,57.7273643 57.0571799,57.9879111 57.0111551,58.2422173 C56.9854125,58.3779513 56.9448483,58.5097849 56.9058443,58.6416185 C56.8769813,58.7422488 56.8481184,58.8428792 56.8122347,58.9411693 C56.7428075,59.1260484 56.6624592,59.3062469 56.5665093,59.4825451 C56.5540281,59.5067276 56.5407667,59.5309101 56.5275053,59.5543125 C56.4128335,59.7563533 56.2825601,59.9529336 56.1335647,60.1409329 L56.0649177,60.2283019 C55.2676755,61.1823402 54.0842936,61.8025041 52.7472358,61.8025041 C50.5333677,61.8025041 48.6884777,60.1307919 48.4544535,57.9130234 Z M86.3938185,48.1185683 C85.4218383,49.1373532 83.4841187,49.4673272 82.2890355,49.5484556 L72.7923371,40.8497794 C72.4100977,40.4847018 71.9412694,40.2171342 71.5738515,40.5985935 C71.2079939,40.9808329 71.6011544,41.6150382 71.9818336,41.981676 L80.5962611,50.5773816 C79.8442637,54.8381806 75.8245095,55.3538137 74.4835513,55.404519 L68.5369987,49.2255023 C68.1836223,48.8315617 67.6734497,48.4469821 67.2802892,48.8019187 C66.8871287,49.154515 67.3068119,49.7091522 67.6594082,50.1030927 L72.9694153,56.5832204 C72.3180482,59.2908794 68.8880348,59.7066622 67.3341147,59.7495666 L61.581022,53.784292 C61.2276456,53.3911315 60.7525766,53.0455559 60.3594161,53.4004925 C59.9654755,53.7538689 60.3157316,54.3358088 60.669108,54.7297494 L65.4104365,60.471921 C63.3034394,62.5133914 59.4724647,60.9602514 58.2594398,60.3861122 C58.2937633,60.3229257 58.3179458,60.2558388 58.3499291,60.1918722 C58.4224766,60.0428768 58.4973643,59.898562 58.5582105,59.743326 C58.6783429,59.4476755 58.7703924,59.1434442 58.8413797,58.8329722 C58.8624419,58.7424829 58.8772634,58.6519935 58.8936451,58.5607241 C58.9599519,58.1987668 59.0044165,57.8321291 59.0044165,57.4592507 C59.0044165,53.9013041 55.9933063,50.9845836 52.4252187,51.2108069 C52.5827949,48.0889252 51.1240446,45.3750256 48.6199866,44.3570207 C47.0255023,43.7111142 45.2414585,43.8335868 43.5814475,44.6729533 C43.4449334,44.3804231 43.2818966,44.1097352 43.1087188,43.8507486 C43.0876566,43.8203254 43.0736152,43.7844417 43.052553,43.7540186 C42.9956071,43.6728902 42.9238397,43.6073635 42.8637735,43.5301355 C42.2896344,42.7921795 41.5719604,42.2102395 40.7294736,41.8677843 C39.0679025,41.1937948 37.1691868,41.4356197 35.4927941,42.4949689 C35.2462887,42.204779 34.9670199,41.9481325 34.6705894,41.7156686 C34.6503073,41.6992869 34.6347057,41.6774446 34.6144236,41.6626231 C34.4568474,41.5424907 34.278209,41.4590221 34.1104917,41.3568316 C33.250063,40.8326176 32.269502,40.5135647 31.2366756,40.5135647 C30.8926602,40.5135647 30.5548854,40.5541289 30.2225711,40.6157553 C30.163285,40.6266764 30.1024387,40.6344772 30.0439327,40.6469585 C29.7584233,40.7109251 29.4807147,40.7998542 29.2100268,40.9067252 C29.1101765,40.9457293 29.0118864,40.9855134 28.9151564,41.0299779 C28.6811323,41.1384091 28.4541289,41.2593216 28.2380466,41.3981759 C28.1171342,41.4746237 28.0048026,41.5604326 27.8901308,41.6454614 C27.7738988,41.7336104 27.6615673,41.8287802 27.5507958,41.9255102 C27.3503152,42.1010283 27.1662162,42.2898077 26.9930384,42.4926286 C26.9548144,42.5370932 26.9126901,42.5768773 26.8760263,42.622122 L26.7184501,42.5316327 C18.5689504,37.8628516 10.8453747,35.6981286 5.26545977,34.6949452 C4.88556063,34.6270782 3.71231975,34.566232 3.3527027,34.508506 C4.25681585,27.7038649 8.15253723,20.9312072 14.8159838,15.5689347 C15.0851115,15.7007683 16.2216886,16.2117209 16.4869159,16.338874 C22.5551611,19.2376527 27.8565873,20.8531991 32.2624813,21.1472894 L32.356871,21.1543101 L32.4504807,21.1410488 C35.6620715,20.7221456 40.4642463,20.2299149 43.1906272,20.2189938 L35.7127768,27.8832834 L36.0879954,28.5143685 C37.3696675,30.6790915 39.4641833,31.3187574 41.4931723,31.3187574 C44.3326649,31.3187574 47.0457844,30.0659483 47.2369041,29.975459 L47.3741983,29.8974509 C47.3741983,29.8974509 50.3049602,27.8661217 54.2911709,25.1561224 L55.4012253,24.3986644 C59.2009968,21.7924159 61.9546805,24.0686904 62.1036758,24.1958435 C62.2674927,24.3245568 78.5750729,37.1404972 84.4919825,42.0823064 L86.719892,43.8632298 C87.5413167,44.9093176 87.7847018,46.6613781 86.3938185,48.1185683 Z M87.4329635,41.98152 L85.7043054,40.5999976 C79.779595,35.6527279 63.4501726,22.8196257 63.3261398,22.7221157 C61.978941,21.5434142 58.3648286,20.0480002 54.3193318,22.8196257 L53.2155181,23.5708431 L53.7537735,24.3634048 L53.214738,23.5716232 C49.5826838,26.0421377 46.8250997,27.9486542 46.3547112,28.2739477 C45.7095847,28.5617973 40.5134694,30.7499228 38.1584067,28.1194918 L45.9116256,19.9551706 L47.8953699,17.9246214 C47.9616768,17.8520739 54.670368,10.8321306 68.3880813,16.9815042 C78.7335072,21.6183019 89.0750327,21.8289236 98.4890426,17.6367717 C99.2472808,17.2982168 101.058627,16.4050248 101.803604,16.0103042 C107.871069,21.1128099 111.633397,27.344872 112.624099,33.7017469 C94.8983327,38.6560373 88.9486597,41.0493239 87.4329635,41.98152 Z" id="Combined-Shape" fill="#FEFEFE"></path>
    </g>
</svg>