<?xml version="1.0" encoding="UTF-8"?>
<svg width="74px" height="52px" viewBox="0 0 74 52" version="1.1" xmlns="http://www.w3.org/2000/svg" xmlns:xlink="http://www.w3.org/1999/xlink">
    <!-- Generator: Sketch 52.4 (67378) - http://www.bohemiancoding.com/sketch -->
    <title>Artboard</title>
    <desc>Created with Sketch.</desc>
    <g id="Artboard" stroke="none" stroke-width="1" fill="none" fill-rule="evenodd">
        <path d="M73.963,24.8520645 C73.963,11.5332581 57.4144516,0.676741935 37.0011935,0.676741935 C16.589129,0.676741935 0.0405806452,11.5332581 0.0405806452,24.8520645 C0.0405806452,25.1958065 0.0358064516,26.1470645 0.0358064516,26.2676129 C0.0358064516,40.3968387 14.4992258,51.8405806 36.9952258,51.8405806 C59.630871,51.8405806 73.9618065,40.3992258 73.9618065,26.27 C73.963,25.775871 73.963,25.4918065 73.963,24.8520645" id="Path" fill="#060E9F"></path>
        <path d="M72.5474516,24.840129 C72.5474516,37.3962581 56.6362581,47.5748387 37.0083548,47.5748387 C17.3804516,47.5748387 1.46925806,37.3962581 1.46925806,24.840129 C1.46925806,12.2828065 17.3804516,2.10303226 37.0083548,2.10303226 C56.6362581,2.10303226 72.5474516,12.2828065 72.5474516,24.840129" id="Path" fill="#00ADEE"></path>
        <path d="M25.2077419,17.6669032 L28.3073871,14.3237742 C30.7553548,11.8758065 33.0696452,9.56390323 38.4107742,9.44096774 C42.0045484,9.35503226 45.6472581,11.0797097 45.681871,11.0940323 C52.4134839,14.3822581 59.2990645,13.148129 64.9314194,10.7813226 C68.9727742,14.0635806 71.6379677,18.0715161 72.3517097,22.4530323 C64.134129,24.2648387 58.0864194,26.8679677 56.7257742,27.4826452 C55.0369032,26.0074194 45.2581613,17.4723548 42.8269032,15.6438387 C41.5354839,14.675871 40.7274516,14.2223226 40.0387742,14.0170323 C39.4109677,13.8272581 38.4620968,13.6255484 36.9797097,14.097 C35.580871,14.541 34.1868065,15.6569677 32.7843871,16.7729355 C31.4893871,17.8005806 30.1526129,18.8640323 29.1094516,19.0979677 C27.3573226,19.4906452 25.6254839,19.0800645 25.0645161,18.3639355 C24.8341613,18.069129 25.1886452,17.7027097 25.2077419,17.6669032 Z M56.3295161,28.4124194 C56.3295161,28.4124194 57.1506774,29.1022903 57.091,30.2671935 C57.0587742,30.9379677 56.6756452,31.5144516 56.0776774,31.8975806 C54.403129,32.9634194 53.0472581,31.9990323 52.9923548,31.9596452 C52.9923548,31.9596452 49.0715484,28.3646774 47.6225806,27.1520323 C47.4184839,26.9813548 47.1057742,26.7307097 46.9673226,26.9049677 C46.7978387,27.1114516 47.2776452,27.5220323 47.2776452,27.5220323 L51.8250645,32.0933226 C51.8250645,32.0933226 52.4576452,32.671 52.5280645,33.4814194 C52.5567097,34.0949032 52.3538065,34.9065161 51.3464516,35.5677419 C49.6862258,36.6586452 48.4306129,35.8828387 48.1525161,35.6787419 C46.7250323,34.2810968 45.2354839,32.7855806 44.1815806,31.9047419 C43.9727097,31.7316774 43.6659677,31.4989355 43.5215484,31.6529032 C43.3592258,31.8307419 43.8354516,32.2699677 43.8354516,32.2699677 L47.1642581,36.0081613 C47.1642581,36.0081613 47.9746774,36.9522581 47.2454194,37.8856129 C47.2561613,37.8820323 47.2657097,37.8689032 47.2764516,37.8605484 C47.1308387,38.0455484 46.9565806,38.2245806 46.7823226,38.3678065 C46.0912581,38.9347419 45.0934516,38.9944194 44.5289032,38.8929677 C43.8748387,38.776 43.7566774,38.5432581 43.7268387,38.5241613 C43.7268387,38.5241613 41.9556129,36.6944516 40.5042581,35.483 C40.2989677,35.311129 40.0089355,35.0592903 39.8478065,35.2347419 C39.6938387,35.4054194 40.1629032,35.8494194 40.1629032,35.8494194 L43.0142903,39.0170968 C43.1133548,39.1364516 43.007129,39.3023548 42.906871,39.4443871 C42.7600645,39.650871 42.351871,40.0184839 41.2776774,40.1533548 C39.9325484,40.3240323 38.4000323,39.5589677 37.7996774,39.2211935 C38.1040323,38.6566452 38.2782903,38.0133226 38.2782903,37.3294194 C38.2794839,35.1189677 36.482,33.3226774 34.2727419,33.3214839 C34.137871,33.3214839 34.0041935,33.3274516 33.8717097,33.3429677 C34.04,31.9632258 33.7499677,30.1335161 31.8868387,29.3338387 C31.3163226,29.0879677 30.7493871,28.9638387 30.2063226,28.9638387 C29.6525161,28.9626452 29.1822581,29.0891613 28.799129,29.2622258 C28.4935806,28.5759355 27.9051613,27.8156452 26.7653226,27.4253548 C26.2747742,27.2594516 25.789,27.1723226 25.3199355,27.1723226 C24.2887097,27.171129 23.4890323,27.5614194 22.9113548,28.0185484 C22.2990645,27.1508387 21.2917097,26.5886774 20.1733548,26.5874839 C19.1779355,26.5874839 18.2863548,27.023129 17.6680968,27.7106129 C17.0975806,27.2284194 13.9501935,24.9129355 3.84441935,22.6666774 C3.41116129,22.57 2.37754839,22.2620645 1.73541935,22.0925806 C2.59835484,17.5153226 5.5846129,13.3581935 10.0496774,10.0341613 C13.777129,11.7743548 16.2716452,12.5310645 19.1146774,13.3092581 C19.5837419,13.4369677 22.0615484,13.8427742 22.5234516,13.8427742 C23.6310645,13.8427742 24.7255484,13.5396129 25.8641935,13.2185484 C26.774871,12.9643226 27.713,12.7065161 28.7263226,12.5740323 C28.3503548,12.9320968 27.9827419,13.2973226 27.6175161,13.6613548 L24.4760968,17.0593871 C24.3758387,17.1632258 23.7635484,17.7779032 24.0953548,18.5465484 C24.2194839,18.8341935 24.4749032,19.1170645 24.8389355,19.3617419 C25.7364839,19.9692581 27.7058387,20.3953548 29.317129,20.0337097 C30.5787097,19.7508387 31.9381613,18.6694839 33.3799677,17.5212903 C34.7728387,16.4160645 36.3411613,15.368129 37.5406774,15.0410968 C37.9799032,14.9205484 38.6053226,14.8358065 39.0600645,14.8954839 C39.9325484,15.0076774 40.7620645,15.2929355 42.254,16.4112903 C44.8332581,18.3496129 56.216129,28.3097742 56.3295161,28.4124194 Z M34.2739355,34.2070968 C35.9974194,34.2261935 37.393871,35.6047419 37.3914839,37.3306129 C37.3902903,39.0529032 35.9926452,40.4469677 34.2691613,40.4457742 C32.5958065,40.4433871 31.2172581,39.1269032 31.1551935,37.467871 C31.1444516,37.1563548 31.0835806,37.124129 30.8627742,37.3258387 C30.3555161,37.7949032 29.5809032,38.3391613 28.2715806,37.8068387 C26.5516774,37.1098065 26.4442581,35.8816452 26.529,35.3087419 C26.5564516,35.1237419 26.5254194,35.0652581 26.3284839,35.2037097 C25.6684516,35.6668065 24.8723548,35.9365484 23.9366129,35.5737097 C21.6032258,34.6654194 21.7953871,32.435871 21.8992258,31.8235806 C21.9075806,31.7758387 21.9016129,31.7531613 21.8872903,31.7400323 C21.4420968,32.166129 20.8381613,32.4322903 20.1721613,32.4310968 C18.8019677,32.4310968 17.6919677,31.3199032 17.6919677,29.9509032 C17.6931613,28.5819032 18.8043548,27.4719032 20.1745484,27.4730968 C21.436129,27.4742903 22.4649677,28.4195806 22.6213226,29.637 C22.9698387,29.0999032 24.3436129,27.6079677 26.4800645,28.2620323 C27.9743871,28.7179677 28.1999677,30.0786129 28.2345806,30.5822903 C28.2453226,30.7076129 28.2882903,30.7159677 28.3837742,30.6169032 C28.7478065,30.2385484 29.8064839,29.4006774 31.5383226,30.1454516 C33.8024839,31.117 32.8739032,33.9099032 32.805871,34.0722258 C32.7402258,34.2357419 32.6411613,34.5198065 32.6972581,34.5568065 C32.7975161,34.6176774 33.5685484,34.1987419 34.2739355,34.2070968 Z" id="Combined-Shape" fill="#FFFFFF"></path>
        <path d="M56.7699355,27.218871 C53.2632903,24.1586129 45.1602903,17.1142903 42.9653548,15.466 C41.7109355,14.5230968 40.8563548,14.0241935 40.1056129,13.801 C39.7690323,13.6995484 39.3011613,13.5837742 38.7008065,13.5825806 C38.1422258,13.5825806 37.5430645,13.6828387 36.9176452,13.8821613 C35.4997097,14.3309355 34.0865484,15.4540645 32.7199355,16.5401935 L32.6495161,16.5950968 C31.376,17.6072258 30.0607097,18.6539677 29.0640968,18.8771613 C28.6296452,18.9750323 28.1820645,19.0251613 27.736871,19.0251613 C26.6209032,19.0239677 25.6195161,18.7017097 25.2447419,18.2230968 C25.1826774,18.1443226 25.2220645,18.0154194 25.3676774,17.8304194 L25.3867742,17.8065484 L28.4709032,14.4825161 C30.8866452,12.0667742 33.1687097,9.78590323 38.4215161,9.66535484 C38.5074516,9.66296774 38.5969677,9.66177419 38.6829032,9.66177419 C41.9520323,9.66416129 45.2211613,11.1274516 45.5875806,11.2969355 C48.6526129,12.7924516 51.8167097,13.5515484 54.9987097,13.5539355 C58.3143871,13.555129 61.7350968,12.7339677 65.3312581,11.0785161 C64.9290323,10.7419355 64.5112903,10.4137097 64.0804194,10.0914516 C60.9210968,11.4616452 57.9109677,12.1527097 55.0070645,12.1515161 C52.0410968,12.149129 49.0775161,11.4365806 46.199871,10.0329677 C46.0482903,9.96016129 42.439,8.25935484 38.6840968,8.25696774 C38.5850323,8.25696774 38.4859677,8.25816129 38.3880968,8.26054839 C33.9767419,8.3643871 31.4905806,9.93032258 29.8196129,11.3040968 C28.194,11.3434839 26.7915806,11.7349677 25.5443226,12.0846774 C24.4307419,12.3938065 23.4699355,12.6623548 22.5318065,12.6623548 C22.1450968,12.6623548 21.4504516,12.6265484 21.3871935,12.6241613 C20.3094194,12.5919355 14.8763871,11.2587419 10.5533548,9.6223871 C10.1117419,9.93509677 9.68803226,10.2573548 9.27387097,10.5855806 C13.7890645,12.4367742 19.2829677,13.8690323 21.0171935,13.9800323 C21.4993871,14.0122581 22.0138065,14.0659677 22.5282258,14.0671613 C23.6752258,14.0671613 24.8210323,13.7460968 25.9286452,13.4357742 C26.5827097,13.2519677 27.3048065,13.0514516 28.0639032,12.9058387 C27.861,13.1051613 27.6592903,13.306871 27.4563871,13.5097742 L24.322129,16.8994516 C24.0750645,17.1489032 23.5403548,17.8137097 23.8924516,18.6312903 C24.0332903,18.9619032 24.3173548,19.277 24.7171935,19.5455484 C25.4643548,20.0492258 26.801129,20.3881935 28.0436129,20.3893871 C28.513871,20.3893871 28.9602581,20.3428387 29.3708387,20.2509355 C30.6837419,19.956129 32.0622903,18.8580645 33.522,17.6979355 C34.6857097,16.774129 36.3375806,15.600871 37.6027419,15.2559355 C37.9572258,15.1592581 38.3904839,15.0995806 38.739,15.0995806 C38.8440323,15.1007742 38.9419032,15.1031613 39.0338065,15.1162903 C39.8692903,15.2225161 40.6785161,15.5065806 42.1215161,16.589129 C44.6936129,18.5214839 56.0776774,28.4804516 56.189871,28.5783226 C56.1970323,28.5842903 56.9239032,29.2109032 56.8725806,30.2516774 C56.845129,30.8317419 56.522871,31.3473548 55.9630968,31.7042258 C55.4773226,32.0121613 54.9748387,32.1697097 54.4687742,32.1697097 C53.7084839,32.1685161 53.1845161,31.8116452 53.1499032,31.7877742 C53.108129,31.7531613 49.2076129,28.1772903 47.7729677,26.9765806 C47.5438065,26.788 47.3218065,26.616129 47.0974194,26.616129 C46.976871,26.6149355 46.8706452,26.6662581 46.7990323,26.7569677 C46.5722581,27.0350645 46.8264839,27.4205806 47.1236774,27.6748065 L51.6794516,32.2544516 C51.6854194,32.2592258 52.2475806,32.7855806 52.3084516,33.4885806 C52.3442581,34.2476774 51.9814194,34.8826452 51.2270968,35.3767742 C50.69,35.7312581 50.1457419,35.9102903 49.6122258,35.9102903 C48.9128065,35.9102903 48.4222581,35.5916129 48.3124516,35.5152258 L47.6583871,34.8707097 C46.4636452,33.6950645 45.2307097,32.4800323 44.3283871,31.7269032 C44.1087742,31.5442903 43.8736452,31.3748065 43.6492581,31.3748065 C43.5382581,31.3748065 43.438,31.4153871 43.3628065,31.4965484 C43.2589677,31.611129 43.1885484,31.8176129 43.4439677,32.1589677 C43.5501935,32.2986129 43.6743226,32.4155806 43.6743226,32.4155806 L46.9995484,36.1501935 C47.027,36.1836129 47.6846452,36.9653871 47.0747419,37.7435806 L46.9565806,37.8927742 C46.8575161,38.0025806 46.7489032,38.1040323 46.6474516,38.1911613 C46.0793226,38.6566452 45.3226129,38.7067742 45.0218387,38.7067742 C44.8619032,38.7067742 44.7067419,38.6924516 44.571871,38.6673871 C44.2436452,38.6089032 44.0240323,38.517 43.9166129,38.3916774 L43.8772258,38.3499032 C43.6946129,38.1625161 42.018871,36.4509677 40.6319677,35.2932258 C40.4493548,35.1404516 40.2213871,34.9470968 39.9850645,34.9470968 C39.8680968,34.9470968 39.7654516,34.9924516 39.6842903,35.0807742 C39.4097742,35.3815484 39.8215484,35.8303226 39.9958065,35.9950323 L42.8316774,39.122129 C42.8280968,39.1495806 42.7922903,39.2140323 42.7230645,39.3130968 C42.6216129,39.4539355 42.277871,39.7976774 41.2490323,39.9265806 C41.1260968,39.9432903 40.9983871,39.9492581 40.8730645,39.9492581 C39.812,39.9492581 38.6805161,39.4348387 38.0980645,39.1257097 C38.3630323,38.5647419 38.5014839,37.9476774 38.5014839,37.3282258 C38.5026774,34.9936452 36.6073226,33.0947097 34.2727419,33.0935161 C34.2238065,33.0935161 34.1700968,33.0947097 34.1199677,33.0970968 C34.1963548,32.0312581 34.0459677,30.0141613 31.9751613,29.1249677 C31.3795806,28.8671613 30.7851935,28.735871 30.2063226,28.735871 C29.7539677,28.735871 29.3195161,28.8134516 28.910129,28.9698065 C28.4804516,28.1355161 27.7690968,27.528 26.8393226,27.2117097 C26.3260968,27.033871 25.8152581,26.9443548 25.321129,26.9443548 C24.4593871,26.9443548 23.6656774,27.1973871 22.9567097,27.7010645 C22.2787742,26.8572258 21.2535161,26.357129 20.1745484,26.357129 C19.2304516,26.357129 18.3221613,26.7354839 17.649,27.4014839 C16.7657742,26.727129 13.2650968,24.5035484 3.89454839,22.3754516 C3.43980645,22.2728065 2.39903226,21.9744194 1.76048387,21.7882258 C1.65545161,22.2954839 1.57309677,22.8087097 1.52058065,23.3255161 C1.52058065,23.3255161 3.24883871,23.7396774 3.589,23.8160645 C13.1624516,25.9417742 16.3253548,28.1534194 16.8600645,28.5711613 C16.6786452,29.0056129 16.5855484,29.4746774 16.5843548,29.9485161 C16.5831613,31.9262258 18.190871,33.5363226 20.1709677,33.5387097 C20.3929677,33.5387097 20.6125806,33.5196129 20.8286129,33.4790323 C21.127,34.9339677 22.0794516,36.038 23.5343871,36.6037419 C23.9592903,36.7672581 24.3901613,36.8508065 24.8126774,36.8508065 C25.086,36.8508065 25.3605161,36.8173871 25.6290645,36.7481613 C25.8976129,37.430871 26.5027419,38.281871 27.8550323,38.8309032 C28.328871,39.021871 28.8039032,39.122129 29.2634194,39.122129 C29.6393871,39.122129 30.0081935,39.0564839 30.3590968,38.9263871 C31.0071935,40.5042581 32.5492581,41.5498065 34.2679677,41.5498065 C35.4066129,41.551 36.5010968,41.0867097 37.2983871,40.2655484 C37.9810968,40.6450968 39.4229032,41.3325806 40.8802258,41.3337742 C41.0688065,41.3337742 41.2454516,41.3194516 41.4220968,41.2991613 C42.8686774,41.1165484 43.5418387,40.5508065 43.8521613,40.1103871 C43.9070645,40.034 43.9583871,39.9528387 44.0001613,39.8680968 C44.3415161,39.9671613 44.7174839,40.0459355 45.1471613,40.047129 C45.9372903,40.047129 46.6951935,39.7773871 47.4626452,39.2188065 C48.2157742,38.6757419 48.7504839,37.8963548 48.826871,37.2327419 C48.8280645,37.2231935 48.8304516,37.2136452 48.8316452,37.2040968 C49.085871,37.2566129 49.3460645,37.282871 49.6062581,37.282871 C50.4202581,37.282871 51.2199355,37.0298387 51.9838065,36.5285484 C53.4590323,35.5617742 53.7144516,34.299 53.6905806,33.471871 C53.9483871,33.5267742 54.2121613,33.5530323 54.4747419,33.5530323 C55.2386129,33.5530323 55.9881613,33.323871 56.7030968,32.8679355 C57.6173548,32.2842903 58.1675806,31.389129 58.251129,30.3483548 C58.3084194,29.6405806 58.1329677,28.9268387 57.7593871,28.3133548 C60.2300323,27.2487097 65.8767097,25.1886452 72.5259677,23.6895484 C72.4865806,23.1739355 72.4113871,22.6642903 72.3194839,22.1582258 C64.2773548,23.952129 58.2738065,26.5504839 56.7699355,27.218871 Z M34.2739355,40.2225806 C32.7115806,40.2213871 31.4404516,39.0075484 31.3843548,37.4595161 C31.3795806,37.3270323 31.3664516,36.9749355 31.0680645,36.9749355 C30.945129,36.9749355 30.8389032,37.0489355 30.7159677,37.1587419 C30.3722258,37.4774194 29.9353871,37.800871 29.2956452,37.800871 C29.0056129,37.800871 28.6917097,37.7328387 28.3599032,37.5979677 C26.7104194,36.9295806 26.6865484,35.7957097 26.7545806,35.3409677 C26.7736774,35.2192258 26.7796452,35.0927097 26.6949032,34.9948387 L26.5934516,34.904129 L26.4896129,34.904129 C26.4060645,34.904129 26.320129,34.9387419 26.2031613,35.0210968 C25.7257419,35.3564839 25.2686129,35.5188065 24.803129,35.5188065 C24.5465161,35.5188065 24.2839355,35.4674839 24.0213548,35.3660323 C21.8490968,34.521 22.0209677,32.4704839 22.126,31.8534194 C22.1415161,31.7280968 22.1104839,31.6314194 22.0317097,31.5669677 L21.8789355,31.4404516 L21.7357097,31.5777097 C21.312,31.9859032 20.7581935,32.2090968 20.1757419,32.2090968 C18.930871,32.2079032 17.9187419,31.1969677 17.9199355,29.9520968 C17.921129,28.7072258 18.9344516,27.6974839 20.178129,27.6986774 C21.3024516,27.6986774 22.2596774,28.5437097 22.4029032,29.6668387 L22.4804839,30.2731613 L22.8134839,29.7599355 C22.8504839,29.7002581 23.7623548,28.3217097 25.4380968,28.3229032 C25.7567742,28.3229032 26.0861935,28.3742258 26.4168065,28.476871 C27.7523871,28.883871 27.9791613,30.0965161 28.0137742,30.6001935 C28.0376452,30.895 28.2465161,30.908129 28.2870968,30.908129 C28.402871,30.908129 28.4876129,30.834129 28.5484839,30.7720645 C28.8003226,30.5094839 29.3493548,30.0714516 30.2087097,30.0714516 C30.6013871,30.0726452 31.0203226,30.1657419 31.4523871,30.3519355 C33.5757097,31.2626129 32.6125161,33.9612258 32.6005806,33.9886774 C32.4179677,34.4362581 32.4108065,34.6331935 32.5826774,34.7477742 L32.6662258,34.7871613 L32.7282903,34.7871613 C32.8237742,34.7871613 32.943129,34.7453871 33.1400645,34.6785484 C33.4289032,34.5794839 33.8657419,34.4279032 34.2727419,34.4290968 L34.2739355,34.4290968 C35.8720968,34.447 37.1730645,35.7479677 37.171871,37.3282258 C37.171871,38.9263871 35.8709032,40.2225806 34.2739355,40.2225806 Z" id="Shape" fill="#060E9F" fill-rule="nonzero"></path>
    </g>
</svg>