<?xml version="1.0" encoding="utf-8"?>
<!-- Generator: Adobe Illustrator 24.0.1, SVG Export Plug-In . SVG Version: 6.00 Build 0)  -->
<svg version="1.1" id="Layer_1" xmlns="http://www.w3.org/2000/svg" xmlns:xlink="http://www.w3.org/1999/xlink" x="0px" y="0px"
	 viewBox="0 0 5000 5000" style="enable-background:new 0 0 5000 5000;" xml:space="preserve">
<style type="text/css">
	.st0{fill:#F7F7F7;}
	.st1{fill:#FF5A5A;}
</style>
<rect class="st0" width="5000" height="5000"/>
<g>
	<g>
		<circle class="st1" cx="2511.5" cy="2560.1" r="186.8"/>
	</g>
	<g>
		<circle class="st1" cx="1346.7" cy="1511.8" r="264.8"/>
	</g>
	<g>
		<circle class="st1" cx="3653.2" cy="1511.8" r="264.8"/>
	</g>
	<g>
		<path class="st1" d="M2117.2,2489.2c-47.2,91.8-159.8,127.9-251.6,80.7c-2.8-1.4-5.5-2.9-8.2-4.5l-0.3,0.5l-111.8-57.5v988
			c0,141.7-114.9,256.6-256.6,256.6H977.3c-69.7,0-126.3-56.5-126.3-126.3V2343.4c0-123.5,50.1-235.3,131-316.2
			c80.9-80.9,192.7-131,316.2-131c90.6,0,174.9,27,245.4,73.3c71.5,47,144.9,90.9,221,130l249.9,128.5c7.5,2.7,14.8,5.9,22.1,9.6
			C2128.2,2284.8,2164.4,2397.4,2117.2,2489.2z"/>
	</g>
	<g>
		<path class="st1" d="M4149,2343.3v1283.3c0,69.7-56.5,126.3-126.2,126.3h-511.5c-141.7,0-256.6-114.9-256.6-256.6v-987.9
			l-111.8,57.5l-0.3-0.5c-2.7,1.6-5.4,3-8.2,4.5c-91.8,47.2-204.4,11.1-251.6-80.7c-47.2-91.8-11.1-204.4,80.7-251.6
			c7.3-3.7,14.7-7,22.2-9.7l249.7-128.4c76.1-39.1,149.6-83,221.1-130c70.4-46.3,154.8-73.3,245.4-73.3
			c123.5,0,235.3,50.1,316.2,131C4099,2108,4149,2219.8,4149,2343.3z"/>
	</g>
</g>
</svg>
