<svg width="50" height="50" viewBox="0 0 50 50" fill="none" xmlns="http://www.w3.org/2000/svg">
<rect x="0.5" y="0.5" width="49" height="49" rx="9.5" fill="#F7F7F7" stroke="#E5E5E5"/>
<path fill-rule="evenodd" clip-rule="evenodd" d="M14.5495 18.8607C15.8917 18.8607 16.9798 17.7726 16.9798 16.4303C16.9798 15.0881 15.8917 14 14.5495 14C13.2073 14 12.1192 15.0881 12.1192 16.4303C12.1192 17.7726 13.2073 18.8607 14.5495 18.8607ZM25.24 27.766C26.1869 27.766 26.9545 26.9985 26.9545 26.0516C26.9545 25.1047 26.1869 24.3371 25.24 24.3371C24.2932 24.3371 23.5256 25.1047 23.5256 26.0516C23.5256 26.9985 24.2932 27.766 25.24 27.766ZM38.1488 16.4303C38.1488 17.7726 37.0607 18.8607 35.7185 18.8607C34.3763 18.8607 33.2882 17.7726 33.2882 16.4303C33.2882 15.0881 34.3763 14 35.7185 14C37.0607 14 38.1488 15.0881 38.1488 16.4303ZM21.6211 25.4009C21.1879 26.2434 20.1545 26.5747 19.312 26.1415C19.2863 26.1287 19.2615 26.1149 19.2367 26.1002L19.234 26.1048L18.2079 25.5771V34.6449C18.2079 35.9455 17.1533 37 15.8528 37H11.1592C10.5195 37 10 36.4814 10 35.8408V24.0627C10 22.9293 10.4598 21.9032 11.2023 21.1607C11.9448 20.4182 12.9709 19.9584 14.1044 19.9584C14.9359 19.9584 15.7096 20.2062 16.3567 20.6311C17.0129 21.0625 17.6865 21.4654 18.385 21.8242L20.6786 23.0036C20.7474 23.0284 20.8144 23.0578 20.8814 23.0917C21.7221 23.5249 22.0543 24.5583 21.6211 25.4009ZM40.2689 35.8399V24.0618C40.2689 22.9283 39.81 21.9022 39.0675 21.1607C38.325 20.4182 37.2989 19.9584 36.1655 19.9584C35.3339 19.9584 34.5593 20.2062 33.9132 20.6311C33.257 21.0625 32.5824 21.4654 31.8839 21.8242L29.5922 23.0027C29.5234 23.0275 29.4555 23.0578 29.3885 23.0917C28.5459 23.5249 28.2146 24.5583 28.6478 25.4009C29.081 26.2434 30.1144 26.5747 30.957 26.1415C30.9619 26.1389 30.9667 26.1363 30.9715 26.1338C30.9921 26.1228 31.0122 26.1121 31.0322 26.1002L31.035 26.1048L32.0611 25.5771V34.644C32.0611 35.9445 33.1156 36.9991 34.4161 36.9991H39.1107C39.7504 36.9991 40.2689 36.4796 40.2689 35.8399Z" fill="#FF5A5A"/>
</svg>
