<?xml version="1.0" encoding="UTF-8"?>
<svg width="64px" height="55px" viewBox="0 0 64 55" version="1.1" xmlns="http://www.w3.org/2000/svg" xmlns:xlink="http://www.w3.org/1999/xlink">
    <!-- Generator: Sketch 52.4 (67378) - http://www.bohemiancoding.com/sketch -->
    <title>Group 21</title>
    <desc>Created with Sketch.</desc>
    <defs>
        <polygon id="path-1" points="0.285976069 0.101485714 55.9992381 0.101485714 55.9992381 42.7125333 0.285976069 42.7125333"></polygon>
        <polygon id="path-3" points="0.00010278818 0.467047619 19.9766006 0.467047619 19.9766006 14.8255238 0.00010278818 14.8255238"></polygon>
    </defs>
    <g id="MARKETPLACE" stroke="none" stroke-width="1" fill="none" fill-rule="evenodd">
        <g id="MODAL-ESCOLHA-DO-MARKETPLACE-SOMENTE-ML" transform="translate(-884.000000, -552.000000)">
            <g id="Group-21" transform="translate(884.000000, 552.000000)">
                <path d="M30.6860952,48.4929524 C23.887619,48.4929524 18.496381,46.168381 14.6632381,41.584 C8.46361905,34.1699048 7.85409524,22.3497143 8.95733333,16.2125714 C10.3691429,8.35809524 15.3306667,8.01904762 20.128381,7.69219048 C20.8331429,7.64342857 21.5462857,7.59542857 22.2579048,7.52380952 C25.0373333,7.24342857 27.7078095,7.10095238 30.1946667,7.10095238 C45.0685714,7.10095238 54.175619,12.215619 56.5306667,21.8902857 C58.0727619,28.2262857 57.6620952,33.5878095 55.3108571,37.8392381 C59.2087619,39.047619 61.5958095,40.8807619 62.6007619,43.4300952 C63.1188571,44.7466667 63.1447619,45.7622857 62.6769524,46.4495238 C62.424,46.8205714 61.9089524,47.2624762 60.8887619,47.2624762 C60.2129524,47.2624762 59.4045714,47.063619 58.5497143,46.688 C56.896381,45.960381 54.752381,45.216 51.3878095,45.216 C49.6674286,45.216 47.7558095,45.4171429 45.7047619,45.8125714 C42.0308571,47.3005714 37.5059048,48.1881905 32.2548571,48.4525714 C31.7192381,48.4792381 31.1980952,48.4929524 30.6860952,48.4929524" id="Fill-1" fill="#F5F5F5"></path>
                <g id="Group-5" transform="translate(7.619048, 6.390248)">
                    <mask id="mask-2" fill="white">
                        <use xlink:href="#path-1"></use>
                    </mask>
                    <g id="Clip-4"></g>
                    <path d="M22.576,0.101485714 C20.0685714,0.101485714 17.3775238,0.24472381 14.5782857,0.526628571 C13.8788571,0.597485714 13.1619048,0.646247619 12.4678095,0.693485714 C7.67161905,1.02034286 2.23466667,1.39139048 0.738285714,9.7144381 C-0.384761905,15.963581 0.242285714,28.0100571 6.5767619,35.5841524 C10.5318095,40.3140571 16.08,42.7125333 23.0674286,42.7125333 C23.5900952,42.7125333 24.128,42.698819 24.6666667,42.6713905 C29.9580952,42.4047238 34.5302857,41.5094857 38.2567619,40.010819 C40.2674286,39.626819 42.1112381,39.435581 43.7691429,39.435581 C47.0201905,39.435581 49.0895238,40.1532952 50.6857143,40.8557714 C51.6167619,41.2649143 52.5104762,41.4820571 53.2693333,41.4820571 C54.2735238,41.4820571 55.0872381,41.098819 55.5611429,40.4024381 C56.1500952,39.5384381 56.1455238,38.331581 55.5489524,36.8169143 C54.5348571,34.2424381 52.2438095,32.3620571 48.5660952,31.0934857 C50.6902857,26.8146286 51.0064762,21.5300571 49.504,15.3563429 C47.0742857,5.37615238 37.7630476,0.101485714 22.576,0.101485714 M22.576,1.32053333 C33.5382857,1.32053333 45.5001905,4.06339048 48.3192381,15.6443429 C49.8605714,21.9750095 49.4445714,27.5064381 46.7710476,31.8142476 C50.3230476,32.795581 53.2838095,34.3925333 54.4144762,37.2633905 C55.2571429,39.403581 54.5554286,40.2630095 53.2693333,40.2630095 C52.6666667,40.2630095 51.936,40.0740571 51.176381,39.739581 C49.5512381,39.0241524 47.304381,38.2165333 43.7691429,38.2165333 C42.1264762,38.2165333 40.2049524,38.3910095 37.9382857,38.8306286 C37.928381,38.8329143 37.92,38.8344381 37.9100952,38.8359619 C34.3710476,40.2774857 29.9626667,41.1841524 24.6049524,41.4538667 C24.0807619,41.4805333 23.5695238,41.4934857 23.0674286,41.4934857 C1.80647619,41.4934857 0.44952381,18.2104381 1.93828571,9.93005714 C3.46209524,1.45386667 9.10857143,2.30339048 14.7001905,1.73958095 C17.1573333,1.4919619 19.8354286,1.32053333 22.576,1.32053333" id="Fill-3" fill="#666666" mask="url(#mask-2)"></path>
                </g>
                <path d="M54.3673143,38.2044952 C56.8008381,34.2829714 57.3577905,29.3450667 56.2766476,23.7153524 C54.3376,30.2524952 48.841219,39.8662095 22.0922667,46.3073524 C24.873981,47.4509714 28.201981,48.046019 32.201219,47.8441143 C37.5589333,47.5744 41.9665524,46.6677333 45.5056,45.2262095 C45.5155048,45.2246857 45.5238857,45.2231619 45.5337905,45.2208762 C52.6766476,43.8357333 56.3916952,45.0822095 58.7726476,46.1298286 C61.1536,47.1774476 63.2488381,46.7964952 62.0107429,43.6536381 C60.8793143,40.782781 57.9193143,39.1858286 54.3673143,38.2044952" id="Fill-6" fill="#DEDEE0"></path>
                <path d="M22.6048762,40.510781 C22.6048762,40.510781 4.98582857,47.0822095 8.4144,52.4155429 C11.8429714,57.7488762 21.462019,45.8441143 22.6048762,44.2250667" id="Fill-8" fill="#F5F5F5"></path>
                <path d="M10.7929143,54.3902476 C10.7654857,54.3902476 10.7380571,54.3894857 10.7113905,54.3894857 C9.5319619,54.363581 8.5864381,53.8104381 7.90224762,52.7452952 C7.32853333,51.8531048 7.2104381,50.8824381 7.55024762,49.8614857 C9.19748571,44.9106286 21.8542476,40.1403429 22.3921524,39.9392 C22.7083429,39.8226286 23.0580571,39.9826286 23.1761524,40.2980571 C23.2934857,40.6134857 23.1334857,40.9639619 22.8180571,41.0820571 C19.3049143,42.3925333 9.92205714,46.5944381 8.70681905,50.2462476 C8.48586667,50.9106286 8.55824762,51.5117714 8.92700952,52.0862476 C9.38567619,52.7993905 9.97767619,53.1536762 10.7372952,53.1704381 L10.7982476,53.1704381 C14.6664381,53.1704381 21.0809143,45.3266286 22.1072,43.8736762 C22.3022476,43.5993905 22.6824381,43.5331048 22.9567238,43.7273905 C23.2317714,43.9216762 23.2972952,44.3018667 23.1030095,44.5761524 C23.0329143,44.6752 15.7727238,54.3894857 10.7929143,54.3902476" id="Fill-10" fill="#666666"></path>
                <path d="M48.6730667,12.2278857 C48.6730667,12.2278857 55.7603048,2.97912381 59.9241143,7.83626667 C64.0879238,12.6941714 51.7633524,18.1296 48.6730667,17.5513143" id="Fill-12" fill="#F5F5F5"></path>
                <path d="M49.1626667,18.1993905 C48.9386667,18.1993905 48.7367619,18.1833905 48.5607619,18.1506286 C48.2300952,18.0881524 48.0121905,17.7704381 48.0739048,17.4390095 C48.136381,17.1083429 48.4601905,16.8896762 48.7847619,16.9521524 C50.8144762,17.3277714 57.8758095,14.5719619 59.7333333,11.3552 C60.384,10.227581 60.295619,9.20586667 59.4613333,8.23291429 C58.7489524,7.40091429 57.927619,7.00548571 56.9447619,7.03672381 C53.3904762,7.13348571 49.1984762,12.5445333 49.1565714,12.5986286 C48.952381,12.8660571 48.5699048,12.9163429 48.3024762,12.7113905 C48.0350476,12.5064381 47.9847619,12.1247238 48.1897143,11.8572952 C48.3748571,11.6150095 52.776381,5.9312 56.9097143,5.8184381 C58.2590476,5.77577143 59.4331429,6.32662857 60.3870476,7.43977143 C61.5657143,8.81424762 61.704381,10.3792 60.7885714,11.9647238 C58.7474286,15.5007238 52.0731429,18.1993905 49.1626667,18.1993905" id="Fill-14" fill="#666666"></path>
                <path d="M19.366781,11.7488762 C19.366781,11.7488762 5.74773333,-2.15588571 1.36678095,2.22506667 C-3.01417143,6.60601905 12.9241143,14.2250667 15.2883048,14.510781" id="Fill-16" fill="#F5F5F5"></path>
                <g id="Group-20" transform="translate(0.000000, 0.295010)">
                    <mask id="mask-4" fill="white">
                        <use xlink:href="#path-3"></use>
                    </mask>
                    <g id="Clip-19"></g>
                    <path d="M15.2891429,14.8255238 C15.2647619,14.8255238 15.240381,14.824 15.2152381,14.8209524 C12.999619,14.5535238 1.76533333,9.2727619 0.195047619,4.72647619 C-0.22247619,3.51733333 0.0335238095,2.40114286 0.935619048,1.49904762 C1.62666667,0.808761905 2.544,0.462857143 3.63809524,0.466666667 C9.42171429,0.497142857 19.3813333,10.5977143 19.8019048,11.0274286 C20.0380952,11.2681905 20.0342857,11.6537143 19.7935238,11.8891429 C19.5535238,12.1253333 19.1657143,12.12 18.9318095,11.8807619 C18.832,11.7786667 8.90971429,1.71314286 3.6312381,1.68571429 C2.83047619,1.69028571 2.256,1.90285714 1.79809524,2.36152381 C1.22514286,2.93447619 1.08190476,3.5592381 1.34704762,4.328 C2.68038095,8.18933333 13.4529524,13.3801905 15.3615238,13.6102857 C15.696,13.6506667 15.9337143,13.9546667 15.8933333,14.2891429 C15.856,14.5984762 15.5931429,14.8255238 15.2891429,14.8255238" id="Fill-18" fill="#666666" mask="url(#mask-4)"></path>
                </g>
            </g>
        </g>
    </g>
</svg>