<?xml version="1.0" encoding="UTF-8"?>
<svg width="30px" height="25px" viewBox="0 0 30 25" version="1.1" xmlns="http://www.w3.org/2000/svg" xmlns:xlink="http://www.w3.org/1999/xlink">
    <!-- Generator: Sketch 52.4 (67378) - http://www.bohemiancoding.com/sketch -->
    <title>Path</title>
    <desc>Created with Sketch.</desc>
    <g id="Page-1" stroke="none" stroke-width="1" fill="none" fill-rule="evenodd">
        <g id="Artboard" transform="translate(-168.000000, -117.000000)" fill="#FF4600" fill-rule="nonzero">
            <path d="M171.149746,141.421341 C173.005047,141.421341 174.299492,140.126896 174.299492,138.228363 L174.299492,125.241064 L181.116609,129.296941 C181.418653,129.469483 181.936469,129.771526 182.713098,129.771526 C183.403456,129.771526 184.007543,129.426443 184.223316,129.296941 L191.126896,125.154601 L191.126896,138.098861 C191.126896,140.428747 192.680153,141.421149 194.276642,141.421149 C196.131943,141.421149 197.426388,140.083664 197.426388,138.228171 L197.426388,120.020244 C197.426388,117.949362 196.088711,117 194.405952,117 C193.845096,117 193.32728,117.129502 192.809655,117.431546 L183.144644,123.04068 C182.928871,123.16999 182.799369,123.16999 182.583596,123.04068 L172.746043,117.474585 C172.228418,117.172734 171.710602,117 171.106515,117 C169.423755,117 168,117.949362 168,120.106707 L168,138.099053 C168,140.213166 169.337484,141.421341 171.149746,141.421341 Z" id="Path"></path>
        </g>
    </g>
</svg>