<?xml version="1.0" encoding="utf-8"?>
<!-- Generator: Adobe Illustrator 17.0.0, SVG Export Plug-In . SVG Version: 6.00 Build 0)  -->
<!DOCTYPE svg PUBLIC "-//W3C//DTD SVG 1.1//EN" "http://www.w3.org/Graphics/SVG/1.1/DTD/svg11.dtd">
<svg version="1.1" id="Layer_1" xmlns="http://www.w3.org/2000/svg" xmlns:xlink="http://www.w3.org/1999/xlink" x="0px" y="0px"
	 width="140px" height="32px" viewBox="-0.536 0 140 32" enable-background="new -0.536 0 140 32" xml:space="preserve">
<title>Mundipagg</title>
<g>
	<path id="Path1" fill="#188178" d="M38.279,25.301v-5.995c-0.03-1.525,1.086-2.828,2.588-3.019
		c0.826-0.096,1.653,0.167,2.275,0.724c0.621,0.557,0.977,1.354,0.979,2.192v6.098c0,0.407,0.16,0.797,0.446,1.084
		c0.285,0.288,0.672,0.449,1.076,0.449l0,0c0.841,0,1.525-0.686,1.528-1.534v-5.766c-0.02-3.32-2.696-6.002-5.991-6.002l0,0
		c-3.295,0-5.972,2.681-5.991,6.002v5.766c0,0.414,0.166,0.811,0.46,1.1c0.295,0.289,0.692,0.445,1.103,0.434l0,0
		C37.593,26.835,38.276,26.149,38.279,25.301z"/>
	<path id="Path2" fill="#188178" d="M30.951,15.061v6.038c0.03,1.525-1.086,2.828-2.588,3.019c-0.826,0.096-1.653-0.167-2.275-0.724
		c-0.621-0.557-0.977-1.354-0.979-2.192v-6.14c-0.013-0.84-0.694-1.513-1.528-1.509l0,0c-0.838,0-1.519,0.683-1.522,1.528v5.802
		c0,3.335,2.682,6.038,5.991,6.038l0,0c1.589,0,3.113-0.636,4.237-1.768c1.124-1.132,1.755-2.668,1.755-4.269v-5.82
		c-0.006-0.41-0.175-0.8-0.469-1.084c-0.294-0.284-0.688-0.437-1.095-0.426l0,0C31.646,13.548,30.965,14.221,30.951,15.061
		L30.951,15.061z"/>
	<path id="Path3" fill="#188178" d="M14.865,13.269L14.865,13.269c-1.697-0.005-3.316,0.722-4.446,1.999
		c-1.128-1.269-2.737-1.996-4.428-1.999l0,0c-3.288,0-5.962,2.67-5.991,5.983v5.766c0,0.847,0.681,1.534,1.522,1.534l0,0
		c0.841,0,1.525-0.686,1.528-1.534v-5.995c-0.03-1.525,1.086-2.828,2.588-3.019c0.826-0.096,1.653,0.167,2.275,0.724
		c0.621,0.557,0.977,1.354,0.979,2.192v6.098c0.003,0.848,0.686,1.534,1.528,1.534l0,0c0.84,0,1.522-0.687,1.522-1.534v-5.766l0,0
		v-0.229c-0.03-1.525,1.086-2.828,2.588-3.019c0.827-0.098,1.656,0.164,2.279,0.721c0.623,0.557,0.979,1.356,0.981,2.195v6.098
		c0,0.847,0.681,1.534,1.522,1.534c0.84,0,1.522-0.687,1.522-1.534v-5.766C20.803,15.948,18.143,13.282,14.865,13.269z"/>
	<path id="Shape1" fill="#188178" d="M60.465,8.637c-0.386-0.002-0.756,0.152-1.029,0.426c-0.273,0.274-0.427,0.647-0.427,1.035
		v4.589c-1.134-0.747-2.461-1.142-3.817-1.135c-1.781-0.047-3.505,0.631-4.783,1.881c-1.279,1.25-2.003,2.966-2.011,4.761v0.048
		c0.013,3.761,3.05,6.8,6.782,6.786c3.732-0.013,6.748-3.073,6.734-6.835V10.098C61.915,9.291,61.266,8.637,60.465,8.637z
		 M55.193,24.335c-1.069-0.005-2.089-0.451-2.823-1.233c-0.734-0.782-1.119-1.833-1.065-2.909v-0.048
		c0-2.198,1.486-4.033,3.84-4.033c1.055,0.009,2.061,0.448,2.789,1.217c0.728,0.769,1.116,1.802,1.076,2.864l0,0v0.048
		c0,2.234-1.492,4.069-3.817,4.069V24.335z"/>
	<path id="Shape2" fill="#00B8B5" d="M75.575,13.552c-1.779-0.049-3.502,0.629-4.777,1.88c-1.275,1.251-1.994,2.968-1.993,4.761
		V30.3c0.049,0.772,0.685,1.373,1.453,1.373c0.768,0,1.404-0.601,1.453-1.373v-4.589c1.135,0.744,2.462,1.135,3.817,1.123
		c1.781,0.047,3.505-0.631,4.783-1.881c1.279-1.25,2.003-2.966,2.011-4.761v-0.048c-0.002-1.784-0.721-3.491-1.991-4.732
		C79.06,14.171,77.345,13.499,75.575,13.552L75.575,13.552z M79.416,20.26c0,2.198-1.486,4.033-3.84,4.033
		c-1.058-0.007-2.068-0.448-2.797-1.222c-0.729-0.773-1.114-1.812-1.067-2.878l0,0v-0.048c0-2.222,1.492-4.051,3.823-4.051
		c1.06,0.007,2.072,0.448,2.803,1.221s1.121,1.812,1.079,2.879V20.26z"/>
	<path id="Shape3" fill="#00B8B5" d="M90.344,13.552c-1.781-0.047-3.505,0.631-4.783,1.881s-2.003,2.966-2.011,4.761l0,0
		c0,1.789,0.715,3.503,1.985,4.753c1.27,1.25,2.986,1.931,4.761,1.889c1.389,0.003,2.747-0.418,3.894-1.208
		c0.136,0.747,0.817,1.264,1.567,1.19s1.319-0.715,1.308-1.474v-5.15l0,0v-0.06c-0.004-1.778-0.72-3.479-1.985-4.718
		C93.815,14.176,92.108,13.504,90.344,13.552L90.344,13.552z M94.161,20.193L94.161,20.193v0.042c0,2.222-1.486,4.051-3.817,4.051
		c-1.06-0.006-2.072-0.445-2.805-1.216s-1.124-1.81-1.083-2.877v-0.048c-0.057-1.057,0.325-2.091,1.053-2.854
		c0.728-0.763,1.737-1.188,2.788-1.173c1.054,0.007,2.06,0.445,2.789,1.213C93.813,18.099,94.201,19.132,94.161,20.193
		L94.161,20.193z"/>
	<path id="Shape4" fill="#00B8B5" d="M105.065,13.552c-1.779-0.049-3.502,0.629-4.777,1.88s-1.994,2.968-1.993,4.761v0.048
		c0.001,1.78,0.715,3.484,1.981,4.725c1.266,1.241,2.975,1.915,4.741,1.868c1.355,0.012,2.684-0.376,3.822-1.117v0.888
		c0.011,1.255-0.92,2.315-2.157,2.457c-0.096,0-2.918,0-2.996,0c-0.694,0.017-1.259,0.569-1.297,1.267
		c-0.038,0.699,0.464,1.309,1.153,1.401l0,0h2.924c2.948,0,5.35-2.385,5.392-5.355v-6.231c-0.002-1.792-0.727-3.507-2.008-4.75
		C108.57,14.151,106.842,13.486,105.065,13.552L105.065,13.552z M108.905,20.193L108.905,20.193v0.042
		c0,2.222-1.486,4.051-3.817,4.051c-1.062-0.006-2.076-0.446-2.81-1.22c-0.733-0.774-1.123-1.816-1.079-2.885v-0.048
		c-0.057-1.057,0.325-2.091,1.053-2.854c0.728-0.763,1.737-1.188,2.788-1.173c1.056,0.007,2.064,0.447,2.793,1.217
		S108.949,19.13,108.905,20.193L108.905,20.193z"/>
	<path id="Shape5" fill="#00B8B5" d="M126.556,20.145c-0.013-3.761-3.05-6.8-6.782-6.786c-3.732,0.013-6.748,3.073-6.734,6.835
		v0.048c0.001,1.78,0.715,3.484,1.981,4.725c1.266,1.241,2.975,1.915,4.741,1.868c1.355,0.013,2.684-0.375,3.823-1.117v0.888
		c0.011,1.255-0.92,2.315-2.157,2.457c-0.096,0-2.918,0-2.996,0c-0.694,0.017-1.259,0.569-1.297,1.267s0.464,1.309,1.153,1.401l0,0
		h2.924c2.936-0.016,5.32-2.397,5.362-5.355v-6.231H126.556z M123.656,20.181L123.656,20.181v0.042c0,2.222-1.492,4.051-3.822,4.051
		c-1.062-0.007-2.075-0.448-2.808-1.222c-0.733-0.774-1.123-1.814-1.081-2.883v-0.048c-0.055-1.057,0.327-2.089,1.055-2.852
		c0.728-0.763,1.736-1.188,2.786-1.175c1.059,0.007,2.07,0.448,2.799,1.221c0.73,0.773,1.117,1.812,1.071,2.878V20.181z"/>
	<path id="Path4" fill="#188178" d="M65.372,13.552c-0.403-0.002-0.79,0.159-1.076,0.445s-0.446,0.676-0.446,1.082v3.303l0,0v6.955
		c0,0.847,0.681,1.534,1.522,1.534c0.84,0,1.522-0.687,1.522-1.534V15.073C66.887,14.231,66.208,13.552,65.372,13.552L65.372,13.552
		z"/>
	<ellipse id="Oval1" fill="#188178" cx="65.372" cy="10.4" rx="1.749" ry="1.763"/>
	<path id="Path5" fill="#00B8B5" d="M138.095,0.413l-5.65,5.694c-0.21,0.21-0.329,0.496-0.329,0.794
		c0,0.298,0.118,0.584,0.329,0.794l5.65,5.688c0.088,0.096,0.212,0.151,0.342,0.151c0.271,0,0.491-0.222,0.491-0.495V0.764
		c0-0.273-0.22-0.495-0.491-0.495C138.308,0.267,138.184,0.319,138.095,0.413L138.095,0.413z"/>
	<path id="Path6" fill="#188178" d="M131.762,8.383c-0.392-0.392-0.612-0.926-0.612-1.482s0.22-1.09,0.612-1.482l0.377-0.386
		l-4.583-4.619c-0.141-0.142-0.352-0.184-0.536-0.107s-0.303,0.257-0.303,0.458v12.275c0.002,0.199,0.123,0.378,0.306,0.453
		c0.183,0.075,0.393,0.032,0.533-0.109l4.583-4.619L131.762,8.383z"/>
</g>
</svg>
