<svg width="149" height="35" viewBox="0 0 149 35" fill="none" xmlns="http://www.w3.org/2000/svg">
<path d="M41.2272 27.6111V21.2191C41.1952 19.5932 42.3851 18.2039 43.9866 18.0002C44.8673 17.8979 45.749 18.1783 46.4122 18.7722C47.0743 19.366 47.4539 20.2158 47.456 21.1093V27.6111C47.456 28.045 47.6266 28.4609 47.9316 28.7669C48.2354 29.0739 48.6481 29.2456 49.0788 29.2456C49.9755 29.2456 50.7048 28.5142 50.708 27.61V21.4622C50.6867 17.9224 47.8335 15.0628 44.3203 15.0628C40.8071 15.0628 37.9529 17.9213 37.9326 21.4622V27.61C37.9326 28.0514 38.1096 28.4747 38.4231 28.7829C38.7376 29.091 39.1609 29.2573 39.5991 29.2456C40.4958 29.2467 41.224 28.5152 41.2272 27.6111Z" fill="#188178"/>
<path d="M33.4146 16.6939V23.1317C33.4466 24.7577 32.2567 26.147 30.6553 26.3506C29.7746 26.453 28.8928 26.1726 28.2296 25.5787C27.5675 24.9848 27.1879 24.135 27.1858 23.2416V16.695C27.1719 15.7994 26.4458 15.0818 25.5566 15.0861C24.6631 15.0861 23.937 15.8143 23.9338 16.7153V22.9014C23.9338 26.4573 26.7934 29.3392 30.3215 29.3392C32.0157 29.3392 33.6407 28.6611 34.8391 27.4542C36.0375 26.2472 36.7103 24.6095 36.7103 22.9025V16.6971C36.7039 16.26 36.5237 15.8442 36.2102 15.5414C35.8968 15.2385 35.4767 15.0754 35.0427 15.0871C34.1556 15.0807 33.4295 15.7983 33.4146 16.6939Z" fill="#188178"/>
<path d="M16.2643 14.7824C14.4549 14.7771 12.7287 15.5522 11.5239 16.9138C10.3212 15.5608 8.6057 14.7856 6.80273 14.7824C3.29702 14.7824 0.445959 17.6292 0.415039 21.1616V27.3094C0.415039 28.2125 1.14113 28.945 2.03782 28.945C2.9345 28.945 3.66379 28.2135 3.66699 27.3094V20.9174C3.63501 19.2915 4.8249 17.9022 6.42635 17.6985C7.30705 17.5962 8.18881 17.8766 8.85199 18.4705C9.51411 19.0644 9.89368 19.9141 9.89581 20.8076V27.3094C9.89901 28.2135 10.6272 28.945 11.525 28.945C12.4206 28.945 13.1478 28.2125 13.1478 27.3094V21.1616V20.9174C13.1158 19.2915 14.3057 17.9022 15.9071 17.6985C16.7889 17.594 17.6728 17.8734 18.337 18.4673C19.0013 19.0612 19.3809 19.9131 19.383 20.8076V27.3094C19.383 28.2125 20.1091 28.945 21.0058 28.945C21.9014 28.945 22.6285 28.2125 22.6285 27.3094V21.1616C22.5955 17.6388 19.7594 14.7963 16.2643 14.7824Z" fill="#188178"/>
<path d="M64.8833 9.84414C64.4718 9.842 64.0773 10.0062 63.7862 10.2983C63.4951 10.5905 63.3309 10.9882 63.3309 11.4019V16.2947C62.1218 15.4983 60.707 15.0771 59.2612 15.0846C57.3623 15.0345 55.5241 15.7574 54.1615 17.0901C52.7978 18.4229 52.0259 20.2525 52.0173 22.1664V22.2176C52.0312 26.2276 55.2693 29.4678 59.2484 29.4529C63.2275 29.439 66.4432 26.1764 66.4283 22.1653V11.4019C66.4294 10.5414 65.7374 9.84414 64.8833 9.84414ZM59.2623 26.5816C58.1225 26.5762 57.0349 26.1007 56.2523 25.2669C55.4697 24.4331 55.0592 23.3126 55.1168 22.1653V22.1141C55.1168 19.7706 56.7012 17.8141 59.2111 17.8141C60.3359 17.8237 61.4085 18.2918 62.1848 19.1117C62.961 19.9316 63.3746 21.033 63.332 22.1653V22.2165C63.332 24.5984 61.7412 26.5549 59.2623 26.5549V26.5816Z" fill="#188178"/>
<path d="M80.9951 15.0842C79.0983 15.032 77.2612 15.7549 75.9018 17.0887C74.5424 18.4225 73.7758 20.2532 73.7769 22.165V32.9412C73.8291 33.7643 74.5072 34.4051 75.3261 34.4051C76.1449 34.4051 76.823 33.7643 76.8753 32.9412V28.0483C78.0854 28.8416 79.5003 29.2585 80.945 29.2457C82.8439 29.2958 84.6821 28.5729 86.0447 27.2401C87.4084 25.9074 88.1803 24.0777 88.1889 22.1639V22.1127C88.1867 20.2106 87.4201 18.3906 86.066 17.0674C84.7109 15.7442 82.8823 15.0277 80.9951 15.0842ZM85.0905 22.2364C85.0905 24.5799 83.5061 26.5364 80.9962 26.5364C79.8681 26.529 78.7913 26.0588 78.014 25.2335C77.2367 24.4093 76.8262 23.3015 76.8763 22.165V22.1138C76.8763 19.7446 78.4671 17.7945 80.9525 17.7945C82.0827 17.802 83.1617 18.2722 83.9411 19.0964C84.7205 19.9206 85.1363 21.0284 85.0915 22.166V22.2364H85.0905Z" fill="#00B8B5"/>
<path d="M96.7404 15.0842C94.8415 15.0341 93.0034 15.7569 91.6407 17.0897C90.2781 18.4225 89.5051 20.2521 89.4966 22.166C89.4966 24.0734 90.2589 25.9009 91.613 27.2337C92.9671 28.5665 94.7967 29.2925 96.6893 29.2478C98.1702 29.251 99.6182 28.8021 100.841 27.9598C100.986 28.7562 101.712 29.3075 102.512 29.2286C103.312 29.1497 103.918 28.4662 103.906 27.657V22.166V22.102C103.902 20.2063 103.139 18.3926 101.79 17.0716C100.441 15.7495 98.6212 15.033 96.7404 15.0842ZM100.81 22.1649V22.2097C100.81 24.5788 99.2258 26.5289 96.7404 26.5289C95.6103 26.5225 94.5312 26.0544 93.7497 25.2324C92.9682 24.4103 92.5513 23.3025 92.595 22.1649V22.1137C92.5342 20.9867 92.9415 19.8843 93.7177 19.0707C94.4939 18.2572 95.5697 17.8041 96.6903 17.8201C97.8141 17.8275 98.8867 18.2945 99.664 19.1134C100.439 19.9322 100.853 21.0336 100.81 22.1649Z" fill="#00B8B5"/>
<path d="M112.437 15.0847C110.54 15.0325 108.703 15.7554 107.344 17.0892C105.984 18.4231 105.218 20.2537 105.219 22.1655V22.2166C105.22 24.1145 105.981 25.9313 107.331 27.2545C108.681 28.5777 110.503 29.2963 112.386 29.2462C113.831 29.259 115.248 28.8453 116.461 28.0552V29.002C116.473 30.3401 115.48 31.4703 114.161 31.6217C114.059 31.6217 111.05 31.6217 110.967 31.6217C110.227 31.6399 109.624 32.2284 109.584 32.9726C109.543 33.7179 110.079 34.3683 110.813 34.4664H113.931C117.074 34.4664 119.635 31.9235 119.68 28.7568V22.1132C119.678 20.2026 118.905 18.374 117.539 17.0487C116.174 15.7234 114.332 15.0144 112.437 15.0847ZM116.531 22.1655V22.2103C116.531 24.5794 114.947 26.5295 112.462 26.5295C111.329 26.5231 110.248 26.054 109.465 25.2287C108.684 24.4035 108.268 23.2925 108.315 22.1527V22.1015C108.254 20.9745 108.662 19.872 109.438 19.0585C110.214 18.245 111.29 17.7919 112.41 17.8078C113.536 17.8153 114.611 18.2844 115.388 19.1054C116.166 19.9264 116.578 21.0321 116.531 22.1655Z" fill="#00B8B5"/>
<path d="M135.351 22.1144C135.337 18.1044 132.099 14.8642 128.12 14.8791C124.141 14.8929 120.925 18.1556 120.94 22.1667V22.2178C120.941 24.1157 121.702 25.9325 123.052 27.2557C124.402 28.5789 126.224 29.2975 128.107 29.2474C129.552 29.2612 130.969 28.8476 132.183 28.0564V29.0032C132.195 30.3413 131.202 31.4715 129.883 31.6229C129.781 31.6229 126.772 31.6229 126.689 31.6229C125.949 31.641 125.346 32.2296 125.306 32.9738C125.265 33.718 125.801 34.3695 126.535 34.4676H129.653C132.783 34.4505 135.325 31.9119 135.37 28.758V22.1144H135.351V22.1144ZM132.259 22.1528V22.1976C132.259 24.5667 130.668 26.5168 128.184 26.5168C127.051 26.5093 125.971 26.0391 125.19 25.2139C124.408 24.3886 123.992 23.2798 124.037 22.14V22.0888C123.978 20.9618 124.386 19.8615 125.162 19.048C125.938 18.2345 127.013 17.7813 128.132 17.7952C129.262 17.8026 130.339 18.2728 131.117 19.097C131.895 19.9212 132.308 21.029 132.259 22.1656V22.1528V22.1528Z" fill="#00B8B5"/>
<path d="M70.1152 15.085C69.6855 15.0828 69.2729 15.2545 68.968 15.5594C68.663 15.8644 68.4924 16.2802 68.4924 16.7131V20.2348V27.6503C68.4924 28.5534 69.2185 29.2859 70.1152 29.2859C71.0108 29.2859 71.738 28.5534 71.738 27.6503V16.7067C71.7305 15.8089 71.0066 15.085 70.1152 15.085Z" fill="#188178"/>
<path d="M70.1158 13.6036C71.1457 13.6036 71.9806 12.762 71.9806 11.7239C71.9806 10.6857 71.1457 9.84412 70.1158 9.84412C69.0859 9.84412 68.251 10.6857 68.251 11.7239C68.251 12.762 69.0859 13.6036 70.1158 13.6036Z" fill="#188178"/>
<path d="M147.654 1.07553L141.63 7.14656C141.406 7.37046 141.279 7.6754 141.279 7.99313C141.279 8.31086 141.405 8.6158 141.63 8.8397L147.654 14.9043C147.748 15.0067 147.88 15.0653 148.019 15.0653C148.308 15.0653 148.542 14.8286 148.542 14.5376V1.44977C148.542 1.15869 148.308 0.921995 148.019 0.921995C147.881 0.919863 147.749 0.975306 147.654 1.07553Z" fill="#00B8B5"/>
<path d="M140.901 9.57324C140.483 9.15528 140.248 8.58593 140.248 7.99311C140.248 7.40029 140.483 6.83094 140.901 6.41298L141.303 6.00142L136.416 1.07658C136.266 0.925175 136.041 0.880394 135.845 0.962492C135.649 1.04459 135.522 1.23651 135.522 1.45082V14.5386C135.524 14.7508 135.653 14.9416 135.848 15.0216C136.043 15.1016 136.267 15.0557 136.416 14.9054L141.303 9.98053L140.901 9.57324Z" fill="#188178"/>
</svg>
