<svg width="124" height="33" viewBox="0 0 124 33" fill="none" xmlns="http://www.w3.org/2000/svg">
<path fill-rule="evenodd" clip-rule="evenodd" d="M4.03127 16.1776C4.03127 21.1644 4.03333 26.0155 4.02973 30.8669C4.02896 32.0739 3.40916 32.7011 2.2839 32.6572C1.29972 32.6189 0.714864 32.0174 0.71178 30.9149C0.697133 25.5362 0.696105 20.1576 0.712037 14.779C0.715634 13.5673 1.30383 13.0246 2.50129 13.0221C4.72123 13.0177 6.94604 12.9299 9.16084 13.0411C12.9848 13.2328 15.2612 15.3558 15.3442 19.2563C15.4262 23.1083 15.3627 26.9633 15.3617 30.8171C15.3614 32.0475 14.8442 32.6084 13.7724 32.6674C12.7779 32.7221 12.1195 32.2269 12.0568 30.8363C11.9721 28.9549 12.0358 27.0668 12.0358 25.1815C12.0355 23.2407 11.9888 21.2984 12.0489 19.3598C12.1085 17.4426 10.6196 16.1596 8.84143 16.1747C7.26674 16.1881 5.69205 16.1776 4.03127 16.1776ZM98.4 16.1768C95.9542 16.1768 93.5199 16.1991 91.0864 16.166C90.0838 16.1524 89.5613 15.5004 89.5986 14.4753C89.633 13.5286 90.1842 13.0233 91.208 13.0223C94.4841 13.0187 97.7604 13.0195 101.037 13.0216C102.599 13.0223 103.247 14.1542 102.408 15.5155C101.576 16.8663 100.66 18.1658 99.7822 19.4884C97.6612 22.6834 95.5407 25.879 93.3578 29.1679C96.0762 29.1679 98.695 29.1661 101.314 29.1687C102.572 29.1697 103.024 29.621 103.009 30.844C102.998 31.8008 102.549 32.3057 101.52 32.3134C97.8835 32.3404 94.2461 32.334 90.609 32.3183C89.4336 32.3132 88.5872 31.1831 89.3003 30.0965C90.6067 28.1059 91.8784 26.093 93.1871 24.1043C94.8335 21.6021 96.5038 19.1154 98.1602 16.6196C98.2715 16.452 98.3529 16.2646 98.4 16.1768ZM76.86 29.1686C79.635 29.1686 82.375 29.154 85.1146 29.1776C85.9353 29.1845 86.5287 29.9241 86.5127 30.7946C86.496 31.7118 85.8513 32.3185 84.8383 32.3213C81.5916 32.33 78.3448 32.3246 75.0978 32.3246C74.7372 32.3246 74.3752 32.3439 74.0159 32.3205C72.7121 32.2353 72.0805 31.1966 72.7393 30.0763C73.6007 28.6115 74.5558 27.2001 75.4976 25.7836C77.5217 22.739 79.5646 19.7065 81.5939 16.6652C81.7074 16.4948 81.7665 16.2881 81.8159 16.1775C79.4251 16.1775 77.052 16.1913 74.6794 16.171C73.595 16.1618 72.9906 15.5069 73.0222 14.4655C73.0502 13.5441 73.66 13.023 74.7298 13.022C77.921 13.0189 81.1126 13.0253 84.3038 13.0173C84.9858 13.0155 85.6447 13.0661 86.0196 13.7323C86.4266 14.4552 86.1209 15.1083 85.7172 15.719C84.3031 17.8584 82.8831 19.994 81.46 22.1275C79.9855 24.3383 78.5036 26.5442 77.0304 28.7558C76.9443 28.8849 76.9089 29.0472 76.86 29.1686ZM41.6668 16.1768C40.8006 16.1768 40.0248 16.2053 39.2521 16.1696C38.2664 16.1244 37.6715 15.4711 37.697 14.5302C37.7221 13.5835 38.3211 13.0305 39.3426 13.0221C40.0893 13.0159 40.8358 13.0208 41.6956 13.0208C41.6956 12.1369 41.6792 11.2905 41.7023 10.4452C41.7149 9.98157 41.7521 9.51025 41.8524 9.0587C42.0685 8.08499 42.5968 7.75717 43.6737 7.86139C44.4778 7.93918 45.0123 8.55503 45.0197 9.44325C45.0295 10.6023 45.022 11.7614 45.022 13.0208C46.6828 13.0208 48.2824 13.0146 49.8821 13.0228C51.0983 13.029 51.6407 13.6302 51.5302 14.8226C51.447 15.7214 50.9462 16.1583 49.9093 16.1729C48.5774 16.1914 47.2451 16.1776 45.9129 16.1776C45.6431 16.1776 45.3733 16.1776 45.0223 16.1776V20.4767C45.0223 22.1957 45.02 23.9146 45.0228 25.6335C45.0264 27.889 46.2953 29.1651 48.5322 29.1677C49.1428 29.1685 49.7536 29.1533 50.3636 29.1715C51.2131 29.1972 51.7982 29.7633 51.8535 30.5824C51.9103 31.4214 51.4172 32.2415 50.6404 32.2857C48.4392 32.4112 46.2357 32.4331 44.2704 31.1587C42.7194 30.1529 41.969 28.6363 41.8904 26.8883C41.7388 23.5167 41.7514 20.1379 41.6948 16.7621C41.692 16.6004 41.6797 16.4389 41.6668 16.1768ZM65.6889 29.1672C65.6889 27.0655 65.7028 25.0498 65.665 23.0351C65.6617 22.8549 65.3268 22.5325 65.1395 22.5279C63.5335 22.4873 61.9236 22.4521 60.3193 22.5214C58.9397 22.581 58.2536 23.0813 58.0963 24.2542C57.9509 25.3391 57.9653 26.4692 58.0876 27.5594C58.1996 28.559 58.8916 29.1449 59.7648 29.1582C61.699 29.1872 63.6339 29.1672 65.6889 29.1672ZM68.8493 18.4328C68.8555 20.401 68.8506 22.3695 68.8504 24.3379C68.8504 26.4725 68.854 28.6073 68.8488 30.7419C68.8465 31.6748 68.2606 32.3086 67.3168 32.3168C64.8193 32.3384 62.3167 32.4215 59.8254 32.2968C57.2478 32.1676 55.4693 31.131 54.9559 28.7005C54.709 27.5314 54.8529 26.2743 54.868 25.0578C54.8778 24.2663 54.8632 23.4482 55.0543 22.6911C55.5087 20.8911 56.8403 19.8958 58.5902 19.7161C60.6467 19.5048 62.7317 19.5634 64.8047 19.5154C65.6809 19.4951 65.8346 19.3156 65.6689 18.4877C65.2613 16.4548 64.3573 16.1021 62.5706 16.0274C61.0471 15.964 59.5186 16.0223 57.9925 16.013C57.0787 16.0074 56.5432 15.477 56.526 14.5962C56.509 13.7293 57.1049 13.0395 57.9637 13.0288C59.8784 13.0049 61.8043 12.8912 63.7056 13.0519C66.4819 13.2868 68.8388 14.98 68.8493 18.4328ZM32.0039 27.039C32.2179 25.6027 32.1951 24.1312 32.2765 22.6751C32.2503 22.6739 32.2241 22.6726 32.1976 22.6713C32.1976 21.5361 32.2269 20.4002 32.1912 19.266C32.1277 17.2465 30.8234 15.6523 28.7553 15.8379C28.3727 15.8723 27.9821 15.8143 27.5951 15.8073C25.4649 15.7699 24.3707 16.3367 23.8776 17.9339C23.6237 18.7562 23.5456 19.6601 23.5451 20.527C23.5443 22.5694 23.5775 24.6156 23.7149 26.6524C23.8036 27.9665 24.4604 29.0488 25.8508 29.3142C26.8638 29.5075 27.9248 29.4788 28.965 29.4934C30.5006 29.5152 31.7765 28.5651 32.0039 27.039ZM35.3283 18.1324C35.512 20.7506 35.577 23.3883 35.4956 26.0111C35.4025 29.0074 34.0781 31.6503 30.9239 32.3301C28.1286 32.9326 25.2976 33.1295 22.7575 31.3381C21.1504 30.2047 20.5458 28.5217 20.389 26.678C20.2767 25.356 20.3672 24.0165 20.3672 22.6849C20.3669 21.4917 20.3443 20.2982 20.3713 19.1058C20.4558 15.346 22.8693 12.6534 26.7813 12.7022C28.2054 12.7199 29.6524 12.7692 31.0449 13.0346C33.5308 13.5082 35.1659 15.8189 35.3283 18.1324Z" fill="#18254F"/>
<path fill-rule="evenodd" clip-rule="evenodd" d="M115.784 5.15128C116.335 5.70192 116.335 6.60272 115.784 7.15311L111.878 11.0546C111.327 11.6053 110.425 11.6053 109.874 11.0546L105.969 7.15311C105.418 6.60272 105.418 5.70167 105.969 5.15128L109.874 1.24978C110.425 0.69913 111.327 0.69913 111.878 1.24978L115.784 5.15128Z" fill="#02917E"/>
<path fill-rule="evenodd" clip-rule="evenodd" d="M115.784 19.1145C116.335 19.6652 116.335 20.566 115.784 21.1164L111.878 25.0179C111.327 25.5685 110.425 25.5685 109.874 25.0179L105.969 21.1164C105.418 20.566 105.418 19.6649 105.969 19.1145L109.874 15.213C110.425 14.6624 111.327 14.6624 111.878 15.213L115.784 19.1145Z" fill="#E38D25"/>
<path fill-rule="evenodd" clip-rule="evenodd" d="M122.837 12.0676C123.388 12.6182 123.388 13.519 122.837 14.0694L118.932 17.9709C118.381 18.5216 117.479 18.5216 116.928 17.9709L113.022 14.0694C112.471 13.519 112.471 12.618 113.022 12.0676L116.928 8.1661C117.479 7.61545 118.381 7.61545 118.932 8.1661L122.837 12.0676Z" fill="#0E9CD7"/>
</svg>
