<?xml version="1.0" encoding="UTF-8"?>
<svg width="144px" height="38px" viewBox="0 0 144 38" version="1.1" xmlns="http://www.w3.org/2000/svg" xmlns:xlink="http://www.w3.org/1999/xlink">
    <!-- Generator: Sketch 52.4 (67378) - http://www.bohemiancoding.com/sketch -->
    <title>Artboard</title>
    <desc>Created with Sketch.</desc>
    <g id="Artboard" stroke="none" stroke-width="1" fill="none" fill-rule="evenodd">
        <path d="M3.9130566,18.3239317 C3.9130566,24.1825667 3.9154717,29.8816619 3.91124528,35.5810587 C3.91033962,36.9991222 3.18218868,37.7359 1.86022642,37.6843286 C0.704,37.6393921 0.0169056604,36.932773 0.0132830189,35.6374556 C-0.0039245283,29.3185984 -0.00513207547,22.9997413 0.0135849057,16.6808841 C0.0178113208,15.2573921 0.708830189,14.6198365 2.11562264,14.6168206 C4.72362264,14.6116937 7.33735849,14.5085508 9.93932075,14.6391381 C14.4316981,14.8644238 17.1061132,17.3585508 17.2036226,21.9408683 C17.2999245,26.4661857 17.2253585,30.9951222 17.2241509,35.5225508 C17.2238491,36.9680587 16.6161509,37.627027 15.3569811,37.6963921 C14.1886792,37.7606302 13.4152453,37.1788683 13.3415849,35.5451698 C13.2419623,33.3348365 13.3168302,31.1166619 13.3168302,28.9018048 C13.3165283,26.6218048 13.2615849,24.3399952 13.3322264,22.0624079 C13.4022642,19.810154 11.6531321,18.3028206 9.56407547,18.3206143 C7.71411321,18.3362968 5.86415094,18.3239317 3.9130566,18.3239317 Z M114.778355,18.323027 C111.904996,18.323027 109.045223,18.3492651 106.186355,18.3103603 C105.008392,18.2943762 104.394657,17.5283444 104.43843,16.3241063 C104.478883,15.2118524 105.12643,14.6183286 106.329147,14.6171222 C110.177902,14.6129 114.026958,14.6138048 117.876015,14.6162175 C119.711487,14.6171222 120.472543,15.9468206 119.487185,17.5461381 C118.509675,19.1330905 117.433751,20.6597254 116.402204,22.2135032 C113.91043,25.9670587 111.41926,29.7212175 108.854732,33.585154 C112.048392,33.585154 115.124921,33.5830429 118.201449,33.5860587 C119.679185,33.5872651 120.211109,34.1174556 120.1936,35.5542175 C120.180015,36.6782333 119.652317,37.2714556 118.444166,37.2805032 C114.171562,37.3121698 109.898355,37.3046302 105.625449,37.2862333 C104.244619,37.2802016 103.250204,35.9526143 104.08794,34.6759952 C105.622732,32.3374873 107.11677,29.9727413 108.654279,27.6363444 C110.588468,24.696773 112.550732,21.7752968 114.496694,18.8432651 C114.627411,18.6463286 114.723109,18.4261698 114.778355,18.323027 Z M89.4730264,33.5859381 C92.7331019,33.5859381 95.9521208,33.5687476 99.1705358,33.5964937 C100.134762,33.6046365 100.831819,34.4735095 100.813102,35.4961921 C100.793479,36.5737635 100.036045,37.2864143 98.8460075,37.2897317 C95.0316679,37.2999857 91.2173283,37.2936524 87.4026868,37.2936524 C86.9791396,37.2936524 86.5537811,37.3162714 86.1317434,37.288827 C84.5999698,37.1887 83.8579321,35.9684778 84.6319698,34.6523508 C85.6438943,32.9314937 86.7660075,31.2733667 87.8724226,29.6092079 C90.2503849,26.0323825 92.6503849,22.4697317 95.0343849,18.896827 C95.1678189,18.696573 95.2372528,18.4537952 95.2952151,18.3238111 C92.4864604,18.3238111 89.6985358,18.3400968 86.9112151,18.3162714 C85.6372528,18.3054143 84.9272151,17.5360651 84.9643472,16.3125254 C84.9972528,15.2301286 85.7136302,14.6179063 86.9703849,14.6167 C90.719517,14.613081 94.4689509,14.6206206 98.218083,14.6112714 C99.0192906,14.6091603 99.7933283,14.668573 100.233781,15.4511921 C100.71197,16.3004619 100.352725,17.0677 99.8784604,17.7851762 C98.2171774,20.2986048 96.5489509,22.8075095 94.8771019,25.3140016 C93.1448755,27.9112714 91.4038943,30.5028111 89.6731774,33.1009857 C89.5720453,33.2526841 89.5303849,33.4432873 89.4730264,33.5859381 Z M48.1276981,18.323027 C47.1100377,18.323027 46.1986415,18.3565032 45.2908679,18.3145825 C44.1328302,18.2615032 43.4339623,17.4939635 43.4638491,16.388646 C43.493434,15.2763921 44.1971321,14.626773 45.3971321,14.6168206 C46.2744151,14.6095825 47.1513962,14.6153127 48.1615094,14.6153127 C48.1615094,13.5769476 48.1421887,12.5826143 48.1693585,11.5894873 C48.1841509,11.0448206 48.2279245,10.4911063 48.3456604,9.96061429 C48.5995472,8.81669365 49.2202264,8.43156667 50.485434,8.55401111 C51.4300377,8.64539206 52.0579623,9.3689 52.066717,10.4123921 C52.0781887,11.7740587 52.069434,13.1357254 52.069434,14.6153127 C54.0205283,14.6153127 55.8997736,14.6080746 57.7790189,14.6177254 C59.2078491,14.6249635 59.8451321,15.331281 59.7153208,16.732154 C59.6175094,17.7880111 59.0291321,18.3013127 57.8110189,18.3185032 C56.2463396,18.3402175 54.6810566,18.3239317 53.1160755,18.3239317 C52.7990943,18.3239317 52.4821132,18.3239317 52.0697358,18.3239317 L52.0697358,23.3746143 C52.0697358,25.3940429 52.0670189,27.4134714 52.0703396,29.4329 C52.074566,32.082646 53.565283,33.5818365 56.1932075,33.5848524 C56.9104906,33.5857571 57.6280755,33.5679635 58.3447547,33.5893762 C59.3427925,33.6195349 60.0301887,34.2845349 60.0950943,35.2469 C60.1618113,36.2324873 59.5824906,37.1960587 58.6698868,37.2479317 C56.0839245,37.3954079 53.4952453,37.4210429 51.1864151,35.9239635 C49.3642264,34.7423444 48.482717,32.9605667 48.3903396,30.9070587 C48.2122264,26.9460111 48.2270189,22.976519 48.1606038,19.010646 C48.157283,18.820646 48.1427925,18.6309476 48.1276981,18.323027 Z M76.3490717,33.5842794 C76.3490717,31.1151841 76.3653736,28.7471206 76.3209962,26.3802635 C76.3170717,26.1685492 75.9237132,25.7897556 75.7036377,25.784327 C73.8168453,25.7366762 71.9255245,25.6953587 70.0408453,25.7767873 C68.4200151,25.8467556 67.6139774,26.4345492 67.4292226,27.8125016 C67.2583547,29.0870095 67.2752604,30.4145968 67.4189585,31.6954381 C67.5505811,32.869819 68.3635623,33.5580413 69.3893736,33.5737238 C71.6616755,33.6078032 73.934883,33.5842794 76.3490717,33.5842794 Z M80.0619774,20.9734063 C80.0692226,23.2856762 80.0634868,25.5982476 80.0631849,27.910819 C80.0631849,30.4185175 80.0674113,32.9265175 80.0613736,35.4342159 C80.0586566,36.5301841 79.3703547,37.2748032 78.2615245,37.284454 C75.3274868,37.3097873 72.3874113,37.4075016 69.4606189,37.2609302 C66.4323925,37.1092317 64.343034,35.8914222 63.7398642,33.0359937 C63.4497509,31.6625651 63.6188075,30.1856921 63.6366189,28.7564698 C63.6480906,27.8266762 63.630883,26.8655175 63.8554868,25.9761365 C64.3892226,23.8614063 65.9536,22.6921524 68.0094491,22.4810413 C70.4254491,22.2328349 72.8749585,22.3015968 75.3102792,22.2452 C76.3397132,22.2213746 76.5202415,22.0105651 76.3255245,21.037946 C75.8467321,18.6496762 74.7846943,18.2352952 72.6856755,18.1475333 C70.8957887,18.0730413 69.100166,18.1415016 67.3072604,18.1306444 C66.2337509,18.1240095 65.6046189,17.5009302 65.5843925,16.4661841 C65.5644679,15.4477238 66.2645434,14.6373587 67.2734491,14.6246921 C69.5228075,14.5966444 71.7854491,14.4630413 74.0191094,14.6518349 C77.2806943,14.9277873 80.0496,16.9170571 80.0619774,20.9734063 Z M36.7755774,31.0840302 C37.0270491,29.3966492 37.0001811,27.6679508 37.0958792,25.9573476 C37.0650868,25.9558397 37.0342943,25.9543317 37.0032,25.9528238 C37.0032,24.6192048 37.0376151,23.284681 36.9956528,21.9522683 C36.9210868,19.579681 35.3887094,17.7068238 32.9591245,17.9248714 C32.5096151,17.9652841 32.0507472,17.8971254 31.5961057,17.8889825 C29.0934642,17.8449508 27.8080302,18.5108556 27.2287094,20.3873317 C26.9304453,21.3533159 26.8386717,22.4152048 26.8380679,23.4336651 C26.8371623,25.8330937 26.8761057,28.237046 27.0376151,30.6298397 C27.141766,32.1736651 27.9133887,33.4451571 29.5468981,33.7569984 C30.7369358,33.9840937 31.9834264,33.9503159 33.2054642,33.9675063 C35.0095396,33.9931413 36.5084075,32.8769667 36.7755774,31.0840302 Z M40.6810868,20.6204587 C40.8969358,23.6963476 40.9733132,26.7951571 40.8776151,29.8764746 C40.7683321,33.3966016 39.2124075,36.5014429 35.5067472,37.300046 C32.2228226,38.0078714 28.8969358,38.2391889 25.9127849,36.1347127 C24.0247849,34.8032048 23.3144453,32.8259984 23.1302943,30.6599984 C22.9983698,29.1068238 23.104634,27.5331413 23.104634,25.9688079 C23.1043321,24.5670302 23.077766,23.1649508 23.1094642,21.7640778 C23.2087849,17.3470302 26.0441057,14.183681 30.6400302,14.2409825 C32.3130868,14.2617921 34.0130113,14.3196968 35.6489358,14.6315381 C38.5693887,15.1879667 40.4902943,17.902554 40.6810868,20.6204587 Z" id="Combined-Shape" fill="#18254F"></path>
        <path d="M135.19994,5.37009365 C135.847487,6.01699841 135.847487,7.07526825 135.19994,7.72187143 L130.611864,12.3053952 C129.964317,12.9523 128.904996,12.9523 128.257449,12.3053952 L123.669374,7.72187143 C123.022128,7.07526825 123.022128,6.01669683 123.669374,5.37009365 L128.257449,0.786569841 C128.904996,0.139665079 129.964317,0.139665079 130.611864,0.786569841 L135.19994,5.37009365 Z" id="Fill-15" fill="#02917E"></path>
        <path d="M135.19994,21.7747238 C135.847487,22.4216286 135.847487,23.4798984 135.19994,24.1265016 L130.611864,28.7100254 C129.964317,29.3569302 128.904996,29.3569302 128.257449,28.7100254 L123.669374,24.1265016 C123.022128,23.4798984 123.022128,22.421327 123.669374,21.7747238 L128.257449,17.1912 C128.904996,16.5442952 129.964317,16.5442952 130.611864,17.1912 L135.19994,21.7747238 Z" id="Fill-18" fill="#E38D25"></path>
        <path d="M143.487034,13.4958508 C144.134581,14.1427556 144.134581,15.2010254 143.487034,15.8476286 L138.898958,20.4311524 C138.251411,21.0780571 137.192091,21.0780571 136.544543,20.4311524 L131.956468,15.8476286 C131.309223,15.2010254 131.309223,14.142454 131.956468,13.4958508 L136.544543,8.91232698 C137.192091,8.26542222 138.251411,8.26542222 138.898958,8.91232698 L143.487034,13.4958508 Z" id="Fill-20" fill="#0E9CD7"></path>
    </g>
</svg>