<svg width="50" height="50" viewBox="0 0 50 50" fill="none" xmlns="http://www.w3.org/2000/svg">
<rect width="50" height="50" rx="10" fill="#6465BC"/>
<g clip-path="url(#clip0_24090_24777)">
<path d="M18.4138 14H9.94547C9.90237 13.9995 9.85958 14.0075 9.81957 14.0236C9.77957 14.0398 9.74314 14.0638 9.71239 14.0942C9.68164 14.1246 9.65718 14.1609 9.64042 14.2008C9.62366 14.2408 9.61493 14.2838 9.61475 14.3272V19.6373C9.61475 19.7256 9.64959 19.8103 9.71161 19.8728C9.77364 19.9352 9.85776 19.9703 9.94547 19.9703H10.5794V15.3641C10.5788 15.2908 10.5926 15.2182 10.6201 15.1504C10.6475 15.0825 10.688 15.0208 10.7393 14.9688C10.7905 14.9168 10.8515 14.8756 10.9186 14.8474C10.9858 14.8192 11.0578 14.8047 11.1306 14.8047H18.7401V14.3272C18.7401 14.2841 18.7317 14.2414 18.7153 14.2016C18.6989 14.1619 18.6748 14.1257 18.6445 14.0953C18.6141 14.0649 18.5781 14.0409 18.5386 14.0245C18.499 14.0082 18.4566 13.9998 18.4138 14V14Z" fill="#D197FF"/>
<path d="M11.1304 15.2632C11.1176 15.2634 11.1048 15.2661 11.093 15.2713C11.0812 15.2765 11.0705 15.284 11.0616 15.2934C11.0527 15.3028 11.0457 15.3138 11.0411 15.3259C11.0365 15.3381 11.0343 15.351 11.0347 15.364V19.9745H11.0478H11.6381C11.694 19.984 11.7474 20.0048 11.795 20.0357C11.8426 20.0666 11.8835 20.1069 11.9152 20.1542L12.2372 20.6215V17.0113C12.2391 16.9351 12.2705 16.8627 12.3247 16.8095C12.3789 16.7563 12.4516 16.7265 12.5273 16.7265L18.7357 16.7353L18.7531 15.2632H11.1304Z" fill="#FFDD71"/>
<path d="M21.8225 16.7236H19.2609V20.0987C19.2605 20.1853 19.2261 20.2683 19.1653 20.3296C19.1044 20.3909 19.022 20.4255 18.9359 20.4258H15.4155C15.3623 20.4263 15.3101 20.4399 15.2633 20.4654C15.2165 20.4908 15.1766 20.5274 15.1471 20.5719L14.0432 22.2061C14.0139 22.251 13.974 22.2879 13.927 22.3134C13.8801 22.3389 13.8275 22.3522 13.7742 22.3522C13.7208 22.3522 13.6683 22.3389 13.6213 22.3134C13.5743 22.2879 13.5344 22.251 13.5051 22.2061L13.1947 21.7607L13.0308 21.5168V22.3668C13.0308 22.4531 13.0648 22.536 13.1255 22.597C13.1862 22.6581 13.2684 22.6924 13.3542 22.6924H15.0195C15.0719 22.6935 15.1233 22.7074 15.1693 22.7328C15.2153 22.7582 15.2544 22.7945 15.2835 22.8385L16.4047 24.4815C16.4347 24.5254 16.4749 24.5614 16.5218 24.5863C16.5686 24.6111 16.6208 24.6241 16.6738 24.6241C16.7268 24.6241 16.779 24.6111 16.8259 24.5863C16.8727 24.5614 16.9129 24.5254 16.9429 24.4815L18.0395 22.8399C18.0688 22.7949 18.1088 22.7579 18.156 22.7324C18.2031 22.7069 18.2558 22.6936 18.3093 22.6939H21.8196C21.8625 22.6943 21.905 22.6862 21.9448 22.67C21.9845 22.6538 22.0207 22.63 22.0513 22.5997C22.0818 22.5695 22.1062 22.5335 22.123 22.4937C22.1397 22.454 22.1485 22.4114 22.1489 22.3682V17.0493C22.1481 16.9627 22.1134 16.8798 22.0523 16.8188C21.9912 16.7578 21.9086 16.7236 21.8225 16.7236V16.7236Z" fill="#90D5FC"/>
<path d="M14.4526 23.1598C14.3629 23.1597 14.2747 23.1378 14.1954 23.0958C14.116 23.0538 14.048 22.9931 13.9971 22.9189L12.8758 21.2759C12.8668 21.2625 12.8547 21.2515 12.8406 21.2438C12.8264 21.2362 12.8106 21.2322 12.7946 21.2321H11.1322C10.9857 21.2321 10.8451 21.1734 10.7415 21.0691C10.6378 20.9647 10.5796 20.8232 10.5796 20.6756V15.3611C10.58 15.2137 10.6383 15.0724 10.7419 14.9681C10.8454 14.8638 10.9858 14.8051 11.1322 14.8047H19.6034C19.7499 14.8051 19.8903 14.8638 19.9938 14.9681C20.0974 15.0724 20.1557 15.2137 20.1561 15.3611V20.6756C20.1561 20.8232 20.0979 20.9647 19.9942 21.0691C19.8906 21.1734 19.75 21.2321 19.6034 21.2321H16.0888C16.0729 21.2323 16.0574 21.2364 16.0435 21.244C16.0296 21.2516 16.0177 21.2626 16.009 21.2759L14.9109 22.9086C14.8604 22.9836 14.7926 23.0451 14.7132 23.0879C14.6339 23.1306 14.5454 23.1533 14.4555 23.154L14.4526 23.1598ZM11.1322 15.2633C11.1065 15.2633 11.0818 15.2736 11.0635 15.2919C11.0453 15.3103 11.0351 15.3352 11.0351 15.3611V20.6756C11.0351 20.7016 11.0453 20.7265 11.0635 20.7448C11.0818 20.7632 11.1065 20.7735 11.1322 20.7735H12.7946C12.8843 20.7729 12.9728 20.794 13.0526 20.8352C13.1324 20.8764 13.2011 20.9364 13.2529 21.0101L14.3742 22.6531C14.3827 22.6665 14.3946 22.6774 14.4086 22.6848C14.4225 22.6923 14.4382 22.6959 14.454 22.6954C14.4697 22.6945 14.4851 22.6903 14.4991 22.683C14.5131 22.6757 14.5254 22.6655 14.5352 22.6531L15.6318 21.0145C15.6825 20.9389 15.7507 20.877 15.8306 20.8342C15.9106 20.7914 15.9997 20.7691 16.0902 20.7691H19.6034C19.6292 20.7691 19.6539 20.7588 19.6722 20.7404C19.6904 20.7221 19.7006 20.6972 19.7006 20.6713V15.3611C19.7006 15.3352 19.6904 15.3103 19.6722 15.2919C19.6539 15.2736 19.6292 15.2633 19.6034 15.2633H11.1322Z" fill="white"/>
<path d="M8.94896 25.6501C9.19169 25.9246 9.31305 26.3141 9.31305 26.8184V29.3815H8.46593V26.852C8.48413 26.6126 8.41041 26.3753 8.25995 26.189C8.18637 26.1128 8.09739 26.0534 7.99904 26.0149C7.90069 25.9763 7.79526 25.9595 7.68989 25.9655C7.57616 25.9602 7.46257 25.9787 7.35624 26.0196C7.24991 26.0606 7.15313 26.1232 7.07195 26.2036C6.90544 26.3987 6.82251 26.6524 6.84132 26.909V29.3917H6V25.3025H6.81811V25.7406C6.93959 25.5756 7.10084 25.4444 7.28664 25.3595C7.49138 25.276 7.71139 25.2371 7.93213 25.2455C8.12068 25.2341 8.30945 25.2643 8.48513 25.3342C8.66081 25.4041 8.81914 25.5119 8.94896 25.6501V25.6501Z" fill="white"/>
<path d="M10.8374 29.2409C10.6095 29.1236 10.4186 28.9445 10.2862 28.7239C10.1569 28.4954 10.0889 28.2369 10.0889 27.9739C10.0889 27.7109 10.1569 27.4525 10.2862 27.224C10.4184 27.0028 10.6093 26.8233 10.8374 26.7056C11.0841 26.5835 11.3553 26.52 11.6302 26.52C11.905 26.52 12.1762 26.5835 12.4229 26.7056C12.649 26.8238 12.8383 27.0028 12.9697 27.2225C13.0991 27.451 13.1671 27.7095 13.1671 27.9725C13.1671 28.2355 13.0991 28.4939 12.9697 28.7224C12.8383 28.9422 12.649 29.1211 12.4229 29.2394C12.1782 29.3662 11.9061 29.4299 11.6309 29.4249C11.3554 29.4302 11.0829 29.367 10.8374 29.2409V29.2409ZM12.1429 28.5428C12.2724 28.3818 12.343 28.181 12.343 27.9739C12.343 27.7669 12.2724 27.566 12.1429 27.4051C12.0057 27.2694 11.821 27.1934 11.6287 27.1934C11.4364 27.1934 11.2517 27.2694 11.1145 27.4051C10.9833 27.5652 10.9115 27.7663 10.9115 27.9739C10.9115 28.1815 10.9833 28.3827 11.1145 28.5428C11.1819 28.611 11.262 28.6651 11.3503 28.7021C11.4385 28.739 11.5331 28.758 11.6287 28.758C11.7243 28.758 11.8189 28.739 11.9072 28.7021C11.9954 28.6651 12.0755 28.611 12.1429 28.5428V28.5428Z" fill="white"/>
<path d="M15.6055 29.2483C15.5184 29.3117 15.4199 29.3574 15.3154 29.3827C15.1972 29.4121 15.0759 29.4268 14.9542 29.4265C14.6721 29.4462 14.3935 29.3539 14.1782 29.1694C14.0828 29.0698 14.0093 28.9511 13.9626 28.821C13.9159 28.6909 13.8969 28.5524 13.9069 28.4144V25.9316H14.7192V26.6195H15.4126V27.249H14.7149V28.3969C14.7083 28.4969 14.74 28.5956 14.8033 28.6729C14.8366 28.7063 14.8766 28.7322 14.9207 28.7488C14.9647 28.7654 15.0117 28.7724 15.0586 28.7693C15.1781 28.771 15.2951 28.7341 15.3923 28.6641L15.6055 29.2483Z" fill="white"/>
<path d="M16.3135 26.0397C16.2682 25.9986 16.2319 25.9484 16.2071 25.8923C16.1823 25.8362 16.1694 25.7755 16.1694 25.714C16.1694 25.6526 16.1823 25.5919 16.2071 25.5358C16.2319 25.4797 16.2682 25.4294 16.3135 25.3884C16.414 25.2989 16.5451 25.2523 16.679 25.2584C16.8118 25.2522 16.942 25.2971 17.0431 25.384C17.0891 25.422 17.126 25.47 17.1511 25.5244C17.1762 25.5787 17.1889 25.638 17.1882 25.698C17.1899 25.7617 17.1779 25.825 17.1528 25.8835C17.1278 25.942 17.0903 25.9943 17.0431 26.0368C16.9439 26.1276 16.8131 26.1754 16.679 26.1697C16.5452 26.175 16.4144 26.1285 16.3135 26.0397V26.0397ZM16.2729 26.5596H17.0852V29.3812H16.2729V26.5596Z" fill="white"/>
<path d="M20.3823 26.5596H21.1946V29.3811H20.3823V26.5596Z" fill="white"/>
<path d="M22.7075 29.2412C22.4776 29.1245 22.2846 28.9454 22.1505 28.7242C22.0193 28.4963 21.9502 28.2376 21.9502 27.9743C21.9502 27.7109 22.0193 27.4522 22.1505 27.2243C22.2844 27.0025 22.4774 26.823 22.7075 26.7059C22.9572 26.5799 23.2333 26.5163 23.5125 26.5204C23.7818 26.5145 24.048 26.5783 24.2857 26.7059C24.5014 26.8242 24.6714 27.0119 24.7687 27.2389L24.1319 27.5821C24.0742 27.4638 23.9842 27.3646 23.8724 27.296C23.7607 27.2275 23.6318 27.1925 23.5009 27.1951C23.404 27.1928 23.3075 27.2101 23.2174 27.246C23.1272 27.2819 23.045 27.3356 22.9758 27.404C22.8398 27.563 22.765 27.7659 22.765 27.9757C22.765 28.1856 22.8398 28.3885 22.9758 28.5475C23.0445 28.6168 23.1265 28.6711 23.2168 28.7073C23.3071 28.7435 23.4038 28.7607 23.5009 28.7578C23.6322 28.7607 23.7615 28.7255 23.8734 28.6563C23.9853 28.5872 24.0751 28.487 24.1319 28.3678L24.7629 28.714C24.6627 28.9369 24.4932 29.121 24.2799 29.2383C24.043 29.3681 23.7764 29.4331 23.5067 29.4267C23.2294 29.4305 22.9552 29.3669 22.7075 29.2412V29.2412Z" fill="white"/>
<path d="M28.2527 26.5595V29.3811H27.4766V29.0554C27.3691 29.1795 27.2347 29.277 27.0838 29.3406C26.9329 29.4041 26.7695 29.432 26.6063 29.422C26.3562 29.4258 26.1093 29.3644 25.8897 29.2438C25.6771 29.1263 25.5024 28.95 25.3864 28.7356C25.2672 28.4981 25.2051 28.2357 25.2051 27.9696C25.2051 27.7035 25.2672 27.4411 25.3864 27.2036C25.5032 26.9938 25.676 26.8213 25.8854 26.7056C26.1033 26.5841 26.3485 26.5208 26.5976 26.5216C26.7535 26.5132 26.9094 26.5393 27.0543 26.5981C27.1991 26.6569 27.3294 26.7469 27.436 26.8618V26.5595H28.2527ZM27.2532 28.5384C27.3845 28.3783 27.4562 28.1772 27.4562 27.9696C27.4562 27.762 27.3845 27.5609 27.2532 27.4007C27.1859 27.3327 27.1058 27.2788 27.0177 27.242C26.9296 27.2052 26.8351 27.1862 26.7397 27.1862C26.6443 27.1862 26.5499 27.2052 26.4618 27.242C26.3737 27.2788 26.2936 27.3327 26.2262 27.4007C26.095 27.5609 26.0232 27.762 26.0232 27.9696C26.0232 28.1772 26.095 28.3783 26.2262 28.5384C26.2936 28.6064 26.3737 28.6604 26.4618 28.6972C26.5499 28.734 26.6443 28.7529 26.7397 28.7529C26.8351 28.7529 26.9296 28.734 27.0177 28.6972C27.1058 28.6604 27.1859 28.6064 27.2532 28.5384V28.5384Z" fill="white"/>
<path d="M29.7617 29.2412C29.5298 29.122 29.3351 28.9406 29.1991 28.7171C29.0632 28.4935 28.9912 28.2364 28.9912 27.9743C28.9912 27.7122 29.0632 27.4551 29.1991 27.2315C29.3351 27.008 29.5298 26.8266 29.7617 26.7074C30.0114 26.5814 30.2875 26.5178 30.5667 26.5219C30.8358 26.5157 31.102 26.5791 31.3399 26.7059C31.5545 26.8254 31.7235 27.0134 31.82 27.2404L31.1905 27.5822C31.133 27.464 31.0433 27.3648 30.9317 27.2962C30.8202 27.2277 30.6916 27.1926 30.5609 27.1952C30.4637 27.1927 30.367 27.2099 30.2766 27.2457C30.1861 27.2816 30.1038 27.3354 30.0344 27.404C29.9003 27.5639 29.8268 27.7665 29.8268 27.9758C29.8268 28.185 29.9003 28.3876 30.0344 28.5475C30.1032 28.6169 30.1855 28.6714 30.276 28.7075C30.3666 28.7437 30.4635 28.7608 30.5609 28.7578C30.6919 28.761 30.8209 28.726 30.9326 28.6571C31.0443 28.5881 31.1338 28.4882 31.1905 28.3693L31.8214 28.7155C31.7214 28.938 31.5524 29.122 31.3399 29.2398C31.1029 29.3694 30.8363 29.4344 30.5667 29.4282C30.2873 29.4325 30.011 29.3683 29.7617 29.2412ZM30.0039 30.5731C29.9271 30.5577 29.8531 30.5301 29.7849 30.4914L29.9096 30.1409C30.0151 30.1919 30.1305 30.2189 30.2476 30.2197C30.4289 30.2197 30.5189 30.1628 30.5189 30.0518C30.5189 29.9408 30.4333 29.9057 30.2636 29.9057H30.0866L30.2229 29.3493H30.6581L30.5841 29.6531C30.7114 29.6593 30.8323 29.7111 30.925 29.7991C30.9624 29.8377 30.9916 29.8834 31.0111 29.9336C31.0305 29.9838 31.0397 30.0374 31.0381 30.0912C31.0393 30.1676 31.0207 30.2429 30.9841 30.3098C30.9474 30.3766 30.8941 30.4327 30.8293 30.4724C30.6618 30.5748 30.4681 30.6256 30.2723 30.6184C30.1814 30.6133 30.0914 30.5981 30.0039 30.5731V30.5731Z" fill="white"/>
<path d="M33.0019 29.2412C32.774 29.1243 32.5835 28.9451 32.4521 28.7242C32.3219 28.496 32.2534 28.2375 32.2534 27.9743C32.2534 27.7111 32.3219 27.4526 32.4521 27.2244C32.5833 27.0029 32.7738 26.8233 33.0019 26.7059C33.2485 26.5838 33.5197 26.5204 33.7946 26.5204C34.0694 26.5204 34.3406 26.5838 34.5873 26.7059C34.8134 26.8242 35.0027 27.0031 35.1342 27.2229C35.2635 27.4514 35.3315 27.7098 35.3315 27.9728C35.3315 28.2358 35.2635 28.4943 35.1342 28.7228C35.0027 28.9425 34.8134 29.1215 34.5873 29.2398C34.3406 29.3618 34.0694 29.4253 33.7946 29.4253C33.5197 29.4253 33.2485 29.3618 33.0019 29.2398V29.2412ZM33.9288 26.1626C33.846 26.1199 33.7665 26.0711 33.6909 26.0166C33.6448 25.9816 33.5963 25.9499 33.5458 25.9216C33.5134 25.9019 33.4764 25.8908 33.4385 25.8895C33.4053 25.8887 33.3723 25.8951 33.3418 25.9082C33.3113 25.9213 33.2839 25.9408 33.2615 25.9655C33.2124 26.0276 33.1867 26.1052 33.189 26.1845H32.7785C32.7733 25.9838 32.8345 25.787 32.9525 25.6252C33.033 25.5281 33.1434 25.4609 33.2662 25.4344C33.389 25.4079 33.5171 25.4237 33.63 25.4791C33.7146 25.5243 33.7956 25.5761 33.8722 25.6339C33.9183 25.6685 33.9668 25.6998 34.0172 25.7274C34.049 25.7476 34.0856 25.7587 34.1231 25.7595C34.1561 25.7602 34.1888 25.7538 34.2191 25.7407C34.2494 25.7276 34.2765 25.7081 34.2987 25.6836C34.3475 25.6257 34.3742 25.5522 34.3741 25.4762H34.7846C34.7891 25.6728 34.7278 25.8652 34.6105 26.0224C34.559 26.0885 34.4928 26.1415 34.4172 26.177C34.3416 26.2125 34.2588 26.2296 34.1754 26.2269C34.0892 26.2257 34.0047 26.2037 33.9288 26.1626V26.1626ZM34.3088 28.5431C34.4382 28.3822 34.5088 28.1814 34.5088 27.9743C34.5088 27.7672 34.4382 27.5664 34.3088 27.4054C34.243 27.3356 34.1632 27.2806 34.0746 27.2441C33.9861 27.2076 33.8909 27.1904 33.7953 27.1937C33.6995 27.1906 33.6042 27.2079 33.5155 27.2444C33.4268 27.2809 33.3467 27.3358 33.2804 27.4054C33.1491 27.5656 33.0774 27.7667 33.0774 27.9743C33.0774 28.1819 33.1491 28.383 33.2804 28.5431C33.3466 28.613 33.4266 28.6681 33.5153 28.7048C33.6041 28.7416 33.6994 28.7591 33.7953 28.7564C33.891 28.7594 33.9863 28.7419 34.0748 28.7052C34.1633 28.6684 34.243 28.6132 34.3088 28.5431V28.5431Z" fill="white"/>
<path d="M37.8815 28.7065C38.0009 28.6593 38.1099 28.5888 38.2021 28.4991L38.6372 28.9708C38.3732 29.2746 37.9864 29.4264 37.4768 29.4264C37.1862 29.4325 36.8983 29.3689 36.6369 29.241C36.4043 29.1261 36.209 28.9468 36.0741 28.724C35.9423 28.497 35.8755 28.2377 35.8812 27.9748C35.8776 27.7122 35.9453 27.4537 36.077 27.227C36.2023 27.0073 36.3855 26.8269 36.6065 26.7057C36.8428 26.5801 37.1066 26.5163 37.3738 26.5202C37.6257 26.5175 37.8745 26.5761 38.0991 26.6911C38.3158 26.8027 38.4972 26.9732 38.6227 27.1832C38.7571 27.4146 38.8244 27.6792 38.8171 27.947L36.7515 28.3516C36.8056 28.4858 36.904 28.5972 37.03 28.667C37.1744 28.7411 37.3351 28.7773 37.4971 28.7722C37.6282 28.7742 37.7585 28.7519 37.8815 28.7065ZM36.8748 27.3395C36.739 27.4898 36.6657 27.6869 36.6703 27.8901L38.0353 27.6228C38.0011 27.4814 37.9184 27.3567 37.8017 27.2708C37.6746 27.1809 37.5218 27.1353 37.3666 27.1409C37.2754 27.1382 37.1847 27.1544 37.1001 27.1886C37.0155 27.2227 36.9388 27.2741 36.8748 27.3395V27.3395Z" fill="white"/>
<path d="M39.8385 29.3348C39.6505 29.2919 39.4706 29.2184 39.3062 29.1172L39.5774 28.533C39.7184 28.6206 39.8714 28.687 40.0314 28.7302C40.2008 28.7793 40.376 28.8048 40.5522 28.8061C40.896 28.8061 41.0671 28.7199 41.0671 28.5491C41.066 28.5079 41.051 28.4683 41.0247 28.4367C40.9983 28.4052 40.9622 28.3835 40.9221 28.3753C40.7806 28.3301 40.6347 28.3002 40.4869 28.2862C40.2953 28.2594 40.1058 28.2194 39.9197 28.1664C39.7713 28.1212 39.6373 28.0376 39.531 27.924C39.4182 27.7879 39.362 27.6131 39.3743 27.4362C39.3717 27.2652 39.4258 27.0981 39.5281 26.9616C39.6443 26.8136 39.7997 26.7017 39.9763 26.6388C40.1987 26.5571 40.4344 26.518 40.6711 26.5235C40.8702 26.5235 41.0687 26.5455 41.2629 26.5892C41.4339 26.6233 41.5983 26.6844 41.7503 26.7703L41.4791 27.3544C41.2316 27.2145 40.9521 27.142 40.6682 27.1441C40.5342 27.1356 40.4001 27.1607 40.278 27.2172C40.241 27.2332 40.2091 27.2593 40.186 27.2926C40.163 27.3259 40.1496 27.365 40.1475 27.4056C40.1471 27.4483 40.1613 27.4899 40.1877 27.5234C40.2141 27.5569 40.2511 27.5802 40.2925 27.5896C40.4385 27.6368 40.5886 27.67 40.7407 27.6889C40.9306 27.7193 41.1185 27.7608 41.3036 27.813C41.4488 27.8558 41.5801 27.937 41.6836 28.0481C41.7974 28.1817 41.8551 28.3545 41.8446 28.5301C41.8467 28.6993 41.7915 28.8641 41.688 28.9974C41.5693 29.1447 41.4112 29.2547 41.2325 29.3143C41.0042 29.3946 40.7634 29.4327 40.5217 29.4268C40.291 29.4258 40.0614 29.3949 39.8385 29.3348Z" fill="white"/>
<path d="M21.2497 25.6077C21.2519 25.6586 21.2429 25.7093 21.2234 25.7563C21.2038 25.8033 21.1742 25.8453 21.1365 25.8793C21.0573 25.9514 20.9531 25.9892 20.8464 25.9845C20.832 25.9869 20.8173 25.9869 20.8029 25.9845V25.9845H19.1348C18.9491 26.0151 18.8534 26.1495 18.8534 26.3905V26.4255H19.5786V27.055H18.8751V29.3917H18.0628V26.3028C18.0573 26.1615 18.0801 26.0205 18.13 25.8882C18.1798 25.756 18.2556 25.6352 18.3529 25.5332C18.5376 25.3611 18.7787 25.2634 19.0303 25.2586H20.7957C20.8101 25.2562 20.8248 25.2562 20.8392 25.2586C20.9453 25.2524 21.0496 25.2886 21.1293 25.3594C21.1672 25.3884 21.1979 25.426 21.2188 25.4691C21.2397 25.5122 21.2503 25.5597 21.2497 25.6077Z" fill="white"/>
<path d="M19.2347 25.2586H19.0229C19.063 25.2563 19.1032 25.2563 19.1433 25.2586C19.1738 25.2564 19.2043 25.2564 19.2347 25.2586V25.2586Z" fill="white"/>
<path d="M14.8757 31.6201V34.6198H15.6155V34.9557H13.7559V34.6198H14.4956V31.6201H13.7559V31.2842H15.6155V31.6201H14.8757Z" fill="white"/>
<path d="M18.4747 32.4775C18.5818 32.5952 18.664 32.7336 18.7163 32.8842C18.7687 33.0348 18.7901 33.1946 18.7793 33.3538V34.9603H18.408V33.3976C18.4244 33.1594 18.3479 32.9242 18.1948 32.7419C18.1144 32.6637 18.0187 32.6033 17.9137 32.5646C17.8088 32.5259 17.697 32.5096 17.5855 32.5169C17.4563 32.5085 17.3268 32.5273 17.2052 32.5721C17.0835 32.6168 16.9725 32.6866 16.8791 32.7769C16.7899 32.8751 16.721 32.9903 16.6767 33.1157C16.6323 33.2411 16.6134 33.3742 16.6209 33.5071V34.9544H16.2568V32.1971H16.6108V32.7068C16.7092 32.5397 16.8525 32.4041 17.0242 32.3154C17.217 32.2172 17.4304 32.1671 17.6465 32.1694C17.798 32.1618 17.9496 32.1852 18.0919 32.2381C18.2342 32.2911 18.3645 32.3725 18.4747 32.4775V32.4775Z" fill="white"/>
<path d="M21.0277 34.7877C20.9537 34.8539 20.8667 34.9037 20.7724 34.9338C20.6698 34.9675 20.5625 34.9843 20.4547 34.9834C20.3468 34.9904 20.2387 34.9754 20.1367 34.9393C20.0348 34.9031 19.9411 34.8466 19.8614 34.7731C19.7896 34.6948 19.7341 34.6027 19.6982 34.5023C19.6623 34.402 19.6468 34.2954 19.6525 34.1889V31.5938H20.0224V32.1969H20.8507V32.5124H20.0224V34.1539C20.0131 34.2899 20.0562 34.4244 20.1428 34.5292C20.1885 34.5742 20.2432 34.6089 20.3032 34.631C20.3632 34.6532 20.4272 34.6623 20.491 34.6577C20.6399 34.6634 20.7854 34.6111 20.8971 34.5117L21.0277 34.7877Z" fill="white"/>
<path d="M23.1396 34.5599C23.2817 34.5001 23.4079 34.4076 23.508 34.2897L23.7155 34.5307C23.5936 34.6776 23.4384 34.7929 23.2629 34.8666C23.0463 34.9526 22.814 34.9913 22.5814 34.9799C22.3488 34.9686 22.1212 34.9076 21.9139 34.8008C21.7002 34.6856 21.5232 34.512 21.4033 34.2999C21.2797 34.0796 21.2166 33.83 21.2205 33.577C21.2153 33.3226 21.2752 33.0711 21.3946 32.8468C21.5062 32.6386 21.6736 32.4661 21.8776 32.3488C22.0904 32.2281 22.3312 32.1666 22.5753 32.1706C22.8057 32.1671 23.0329 32.225 23.2339 32.3385C23.4273 32.4512 23.5871 32.6141 23.6966 32.8103C23.8151 33.018 23.879 33.2527 23.8823 33.4923L21.631 33.9304C21.694 34.1444 21.8276 34.3303 22.0096 34.4576C22.2022 34.5882 22.4303 34.655 22.6624 34.649C22.8258 34.6525 22.9883 34.6222 23.1396 34.5599V34.5599ZM22.0619 32.6292C21.9121 32.7181 21.7896 32.847 21.7079 33.0016C21.6201 33.1709 21.5762 33.3598 21.5803 33.5507C21.5782 33.5891 21.5782 33.6277 21.5803 33.6661L23.5138 33.2878C23.4774 33.0668 23.365 32.8657 23.1962 32.7197C23.0226 32.5696 22.7997 32.49 22.571 32.4963C22.3925 32.4938 22.2167 32.5397 22.0619 32.6292V32.6292Z" fill="white"/>
<path d="M24.7399 34.772C24.6698 34.6928 24.616 34.6004 24.5816 34.5001C24.5473 34.3998 24.533 34.2937 24.5397 34.1878V31.0625H24.9096V34.1542C24.8998 34.2894 24.9407 34.4233 25.0242 34.5296C25.0687 34.5749 25.1226 34.6099 25.182 34.6321C25.2413 34.6543 25.3048 34.6631 25.3679 34.6581C25.4534 34.6601 25.5384 34.6441 25.6174 34.6114L25.6436 34.921C25.5364 34.9589 25.4235 34.9781 25.3099 34.9779C25.2059 34.9852 25.1016 34.9707 25.0034 34.9352C24.9053 34.8998 24.8155 34.8442 24.7399 34.772Z" fill="white"/>
<path d="M26.0393 31.5148C26.0141 31.4904 25.9942 31.4611 25.9807 31.4287C25.9673 31.3963 25.9605 31.3615 25.961 31.3264C25.9609 31.2919 25.9678 31.2579 25.9812 31.2262C25.9947 31.1946 26.0145 31.166 26.0393 31.1423C26.0913 31.0929 26.16 31.0654 26.2315 31.0654C26.303 31.0654 26.3717 31.0929 26.4237 31.1423C26.4487 31.1653 26.4686 31.1932 26.4821 31.2244C26.4956 31.2557 26.5024 31.2894 26.502 31.3234C26.5019 31.3774 26.4859 31.43 26.4561 31.4748C26.4263 31.5196 26.384 31.5545 26.3345 31.5751C26.285 31.5957 26.2306 31.6011 26.178 31.5907C26.1255 31.5802 26.0772 31.5543 26.0393 31.5162V31.5148ZM26.0393 32.1968H26.4092V34.9555H26.0393V32.1968Z" fill="white"/>
<path d="M29.8772 32.1969V34.6198C29.8772 35.0881 29.7636 35.4352 29.5364 35.6611C29.3091 35.8869 28.9663 35.9999 28.5079 35.9999C28.2617 36.0016 28.0169 35.9636 27.7826 35.8874C27.5773 35.8246 27.3878 35.718 27.2271 35.5749L27.4142 35.2916C27.5552 35.4156 27.7195 35.5099 27.8972 35.569C28.0888 35.6367 28.2904 35.6708 28.4934 35.6698C28.8406 35.6698 29.0959 35.5885 29.2593 35.4259C29.4227 35.2633 29.504 35.0107 29.503 34.668V34.316C29.3924 34.488 29.2368 34.6259 29.0533 34.7147C28.8603 34.8069 28.649 34.8533 28.4354 34.8505C28.1915 34.8534 27.9507 34.7952 27.7348 34.6811C27.5291 34.5712 27.3578 34.4059 27.2401 34.2035C27.1184 33.9927 27.0562 33.7523 27.0603 33.5084C27.0559 33.2654 27.1182 33.0259 27.2401 32.8161C27.3573 32.6159 27.5276 32.4526 27.7319 32.3444C27.9488 32.2303 28.1906 32.1726 28.4354 32.1765C28.6542 32.1742 28.8705 32.2242 29.0664 32.3225C29.2515 32.4147 29.408 32.5561 29.5189 32.7314V32.1969H29.8772ZM29.0069 34.3876C29.1623 34.3056 29.2916 34.1811 29.3797 34.0283C29.4702 33.8688 29.5163 33.6877 29.5131 33.504C29.5162 33.3213 29.4701 33.1411 29.3797 32.9826C29.2918 32.8311 29.1637 32.7072 29.0098 32.6248C28.8433 32.5376 28.6579 32.4934 28.4702 32.4963C28.2846 32.4934 28.1011 32.5371 27.9364 32.6233C27.7817 32.7039 27.6532 32.8276 27.5665 32.9797C27.4799 33.1407 27.4346 33.3209 27.4346 33.504C27.4346 33.6871 27.4799 33.8673 27.5665 34.0283C27.6539 34.1806 27.7821 34.3051 27.9364 34.3876C28.1007 34.475 28.2844 34.5192 28.4702 34.5161C28.6585 34.5215 28.8452 34.4788 29.0127 34.3919L29.0069 34.3876Z" fill="white"/>
<path d="M32.4536 34.5599C32.5953 34.5 32.721 34.4075 32.8206 34.2897L33.0294 34.5306C32.9076 34.6776 32.7524 34.7929 32.5769 34.8665C32.36 34.9526 32.1275 34.9913 31.8946 34.98C31.6618 34.9687 31.434 34.9076 31.2264 34.8008C31.0131 34.6856 30.8366 34.5119 30.7173 34.2999C30.5936 34.0796 30.5305 33.83 30.5345 33.577C30.5292 33.3226 30.5892 33.0711 30.7086 32.8468C30.8197 32.6387 30.9865 32.4662 31.1901 32.3488C31.4035 32.2282 31.6447 32.1667 31.8893 32.1706C32.1197 32.1671 32.3469 32.225 32.5479 32.3385C32.7427 32.4488 32.9045 32.6097 33.0164 32.8044C33.1349 33.0121 33.1988 33.2469 33.2021 33.4864L30.9508 33.9246C31.0137 34.1382 31.1467 34.324 31.3279 34.4518C31.5211 34.5822 31.7497 34.6491 31.9821 34.6431C32.1432 34.6476 32.3036 34.6192 32.4536 34.5599V34.5599ZM31.3758 32.6292C31.226 32.7181 31.1035 32.847 31.0219 33.0016C30.9341 33.1709 30.8901 33.3597 30.8942 33.5507C30.8922 33.5891 30.8922 33.6276 30.8942 33.6661L32.8351 33.2878C32.7986 33.0665 32.6856 32.8652 32.5159 32.7197C32.343 32.5695 32.1205 32.4898 31.8922 32.4963C31.7113 32.4925 31.5327 32.5384 31.3758 32.6292V32.6292Z" fill="white"/>
<path d="M36.0685 32.4772C36.1755 32.5949 36.2577 32.7333 36.3101 32.8839C36.3624 33.0345 36.3839 33.1943 36.3731 33.3535V34.96H36.0032V33.3973C36.0196 33.1591 35.9431 32.9239 35.79 32.7416C35.7096 32.6634 35.6139 32.6029 35.509 32.5642C35.4041 32.5255 35.2923 32.5093 35.1807 32.5167C35.0522 32.5099 34.9236 32.5299 34.8031 32.5754C34.6825 32.6209 34.5726 32.6909 34.4801 32.781C34.3912 32.8795 34.3226 32.9947 34.2783 33.12C34.234 33.2454 34.2148 33.3784 34.2219 33.5112V34.9585H33.8506V32.1968H34.206V32.7065C34.3056 32.5383 34.4511 32.4025 34.6252 32.3151C34.818 32.2169 35.0314 32.1668 35.2475 32.1691C35.3979 32.1623 35.548 32.1861 35.6891 32.2391C35.8302 32.292 35.9592 32.373 36.0685 32.4772V32.4772Z" fill="white"/>
<path d="M38.6243 34.7877C38.55 34.8534 38.4631 34.9031 38.369 34.9338C38.2664 34.9672 38.1592 34.984 38.0513 34.9834C37.9432 34.9904 37.8349 34.9754 37.7327 34.9393C37.6305 34.9032 37.5366 34.8466 37.4566 34.7731C37.3853 34.6945 37.3302 34.6023 37.2946 34.502C37.259 34.4017 37.2436 34.2953 37.2492 34.1889V31.5938H37.622V32.1969H38.4502V32.5124H37.622V34.1539C37.6121 34.2898 37.6547 34.4242 37.7409 34.5292C37.7869 34.5743 37.8418 34.6091 37.902 34.6312C37.9623 34.6534 38.0265 34.6624 38.0905 34.6577C38.2395 34.6634 38.3849 34.6111 38.4966 34.5117L38.6243 34.7877Z" fill="white"/>
<path d="M40.7363 34.5599C40.878 34.5 41.0037 34.4075 41.1033 34.2897L41.3122 34.5306C41.1901 34.678 41.0343 34.7933 40.8581 34.8665C40.6683 34.9456 40.4645 34.9849 40.2591 34.9819C39.9978 34.9871 39.7396 34.9247 39.5091 34.8008C39.2955 34.6856 39.1185 34.512 38.9985 34.2999C38.8753 34.0794 38.8127 33.8299 38.8172 33.577C38.812 33.3226 38.8719 33.0711 38.9913 32.8468C39.1024 32.6387 39.2692 32.4662 39.4729 32.3488C39.6856 32.2282 39.9264 32.1667 40.1706 32.1706C40.4014 32.1672 40.6291 32.2251 40.8306 32.3385C41.0254 32.4488 41.1872 32.6097 41.2991 32.8044C41.4172 33.0123 41.4806 33.247 41.4833 33.4864L39.2335 33.9246C39.2964 34.1382 39.4294 34.324 39.6107 34.4518C39.8038 34.5822 40.0324 34.6491 40.2649 34.6431C40.426 34.6476 40.5863 34.6192 40.7363 34.5599V34.5599ZM39.6527 32.6292C39.5025 32.718 39.3795 32.8469 39.2973 33.0016C39.2102 33.1711 39.1664 33.3598 39.1697 33.5507C39.1675 33.5891 39.1675 33.6276 39.1697 33.6661L41.1018 33.2878C41.066 33.0666 40.9534 32.8653 40.7842 32.7197C40.6107 32.5694 40.3877 32.4897 40.159 32.4963C39.9815 32.4942 39.8067 32.5401 39.6527 32.6292V32.6292Z" fill="white"/>
<path d="M42.2316 34.8843C42.0583 34.8351 41.8962 34.7523 41.7544 34.6404L41.9212 34.3483C42.0521 34.4476 42.1994 34.5228 42.3564 34.5703C42.5309 34.6284 42.7136 34.6575 42.8974 34.6565C43.0898 34.6696 43.282 34.6292 43.453 34.5397C43.5094 34.505 43.5558 34.456 43.5873 34.3975C43.6189 34.339 43.6346 34.2732 43.6329 34.2067C43.635 34.1619 43.6272 34.1172 43.6102 34.0758C43.5931 34.0344 43.5672 33.9973 43.5342 33.9672C43.4605 33.9063 43.3751 33.8615 43.2833 33.8357C43.1516 33.7994 43.0179 33.7706 42.8829 33.7496C42.7016 33.7176 42.5224 33.6747 42.3462 33.6211C42.2133 33.5789 42.0938 33.5024 41.9995 33.3991C41.8971 33.2772 41.8452 33.1203 41.8545 32.9609C41.8533 32.85 41.8792 32.7405 41.9297 32.642C41.9803 32.5435 42.0541 32.4589 42.1446 32.3957C42.3785 32.2355 42.6586 32.158 42.9409 32.1752C43.1202 32.1755 43.2986 32.1991 43.4718 32.2453C43.626 32.2835 43.773 32.3466 43.907 32.4323L43.746 32.7243C43.5072 32.5639 43.225 32.4818 42.938 32.4892C42.7517 32.4768 42.5659 32.5206 42.4042 32.6148C42.3487 32.6498 42.3031 32.6984 42.2716 32.7562C42.2401 32.814 42.2238 32.879 42.2244 32.9449C42.2222 32.9919 42.2301 33.0388 42.2476 33.0824C42.2652 33.126 42.2919 33.1653 42.3259 33.1975C42.3982 33.2628 42.4846 33.3103 42.5783 33.3363C42.6798 33.3655 42.8191 33.3961 42.9961 33.4283C43.1734 33.4596 43.3488 33.5015 43.5212 33.5539C43.6508 33.5948 43.7677 33.6687 43.8606 33.7686C43.9608 33.8842 44.0127 34.0344 44.0056 34.1877C44.0085 34.3014 43.9823 34.414 43.9298 34.5147C43.8772 34.6154 43.8 34.7009 43.7054 34.7631C43.4566 34.9182 43.1663 34.9922 42.8742 34.9749C42.6567 34.9782 42.4399 34.9477 42.2316 34.8843Z" fill="white"/>
</g>
<defs>
<clipPath id="clip0_24090_24777">
<rect width="38" height="22" fill="white" transform="translate(6 14)"/>
</clipPath>
</defs>
</svg>
