<svg width="30" height="30" viewBox="0 0 30 30" fill="none" xmlns="http://www.w3.org/2000/svg">
<path d="M29.9499 14.1961C29.5935 15.125 29.0053 15.8463 28.2244 16.434C26.9338 17.4041 25.469 18.01 23.9373 18.4757C20.1242 19.634 16.2085 19.9182 12.2524 19.7265C9.59384 19.5975 6.97912 19.1638 4.50742 18.1265C2.81887 17.4177 1.30332 16.4717 0.349475 14.8397C0.272198 14.7073 0.200689 14.5613 0 14.624C0 14.8146 0 15.004 0 15.1946C0.31372 17.5102 1.6355 19.1193 3.63085 20.2457C4.68619 20.8414 5.80497 21.2979 6.98027 21.6083C11.1186 22.7039 15.2939 22.7268 19.4852 21.9827C22.1703 21.5056 24.7527 20.725 27.0399 19.1867C28.2544 18.3695 29.2498 17.3573 29.7619 15.9558C29.9672 15.3921 30.0675 14.8135 29.9499 14.1961Z" fill="#004392"/>
<path d="M6.74844 26.4369C7.01257 26.8614 7.01141 26.8614 7.26746 27.0315C8.49582 27.8463 9.84873 28.3553 11.2824 28.6863C12.3516 28.9328 13.445 28.967 14.5245 29.1176C14.7933 29.1176 15.062 29.1176 15.3319 29.1176C15.6053 28.9933 15.8982 29.0435 16.1831 29.0229C18.709 28.8346 21.1057 28.2469 23.2118 26.7758C23.4114 26.6366 23.6536 26.5191 23.7758 26.1265C20.9835 27.2951 18.1773 27.8806 15.2777 27.941C12.3816 27.9992 9.56962 27.464 6.74844 26.4369Z" fill="#004392"/>
<path d="M6.40243 16.3542C10.8891 17.4828 15.4103 17.4577 19.9362 16.6178C22.3491 16.1704 24.6755 15.4549 26.7146 14.0375C28.0445 13.1131 29.0479 11.9502 29.3386 10.3034C29.3893 10.0169 29.4043 9.74074 29.1356 9.38695C28.5751 10.4882 27.7665 11.2494 26.7873 11.8509C25.5151 12.6326 24.1242 13.1176 22.6847 13.4737C19.2234 14.3319 15.7056 14.5099 12.1647 14.2303C9.95946 14.0557 7.7738 13.7145 5.68502 12.959C3.86499 12.3005 2.11185 11.5199 1.1753 9.65514C0.993064 9.29109 0.873112 9.52733 0.768154 9.73389C0.0865054 11.0566 0.313722 12.6509 1.36215 13.7613C2.73121 15.2107 4.52472 15.8828 6.40243 16.3542Z" fill="#004392"/>
<path d="M3.91112 9.64597C4.85459 10.2908 5.89494 10.7267 7.00334 10.9972C11.7068 12.1441 16.4023 11.9855 21.0781 10.8477C22.7078 10.4505 24.2718 9.87079 25.5993 8.8026C26.3433 8.20346 26.8565 7.45938 26.9176 6.48819C26.9522 5.94725 26.9246 5.39831 26.4771 4.87905C26.1333 6.24396 25.7631 6.73013 24.5659 7.40802C23.7435 7.87364 22.86 8.18976 21.9443 8.41915C18.9581 9.16437 15.9282 9.36865 12.8625 9.13927C11.0748 9.0046 9.31472 8.73755 7.62501 8.127C6.79112 7.82571 6.00336 7.43427 5.38399 6.77464C4.6366 5.9792 4.51549 4.86308 5.07258 3.92841C5.1487 3.79945 5.3367 3.70359 5.25596 3.46849C4.39439 3.81771 3.72081 4.37349 3.17411 5.06964C1.89385 6.69589 2.18681 8.46936 3.91112 9.64597Z" fill="#004392"/>
<path d="M22.9223 23.3773C17.5314 25.0823 12.1324 24.8643 6.76114 23.2826C4.7035 22.6766 2.74852 21.8401 1.3264 20.1328C1.31486 20.118 1.26065 20.1385 1.18914 20.1465C1.30794 20.6943 1.54439 21.185 1.8385 21.6483C3.17181 23.7516 5.21906 24.8792 7.52006 25.5833C12.4727 27.0977 17.4126 26.8809 22.3007 25.2729C24.3618 24.595 26.2637 23.6113 27.7677 22.0044C28.2902 21.4464 28.71 20.8232 28.8242 20.0472C28.5255 20.3108 28.2417 20.5961 27.9234 20.8358C26.4113 21.9804 24.7228 22.8078 22.9223 23.3773Z" fill="#004392"/>
<path d="M7.37243 4.41234C7.77034 4.75014 8.22593 5.00235 8.71958 5.16669C12.5823 6.45514 16.4173 6.3102 20.2142 4.90192C20.8843 4.65314 21.4806 4.26169 21.942 3.70249C22.6686 2.82032 22.1173 1.45769 20.9627 1.27395C21.2857 2.24057 21.1092 2.66968 20.1773 3.21404C19.7944 3.43773 19.3884 3.61119 18.9651 3.73445C16.7783 4.36897 14.5799 4.42261 12.3735 3.8383C11.8533 3.70021 11.3539 3.50506 10.9272 3.15812C10.2444 2.60234 10.2144 1.96326 10.8776 1.37666C11.4958 0.830014 12.2582 0.567531 13.0436 0.363251C13.3504 0.283365 13.6595 0.210326 14.009 0.124734C13.8268 -0.043027 13.6664 0.0026222 13.5269 0.0151757C11.9733 0.154406 10.4381 0.388358 8.98832 0.990928C8.38625 1.24086 7.79226 1.51818 7.31015 1.97124C6.44972 2.78152 6.47279 3.64999 7.37243 4.41234Z" fill="#004392"/>
</svg>
