<svg width="32" height="18" viewBox="0 0 32 18" fill="none" xmlns="http://www.w3.org/2000/svg">
<g clip-path="url(#clip0_10484_9764)">
<path d="M5.7765 1.71702C6.78841 0.633136 8.13071 0 9.70765 0C12.7797 0 14.8165 2.28681 15.2062 5.71261C15.3325 6.82513 15.3314 8.39361 15.3301 10.2103C15.3299 10.3966 15.3299 10.5856 15.3299 10.7769V17.5826H11.1052V12.5489C11.1052 12.5489 11.0966 8.24072 11.0708 7.43556C10.9574 3.92879 8.92114 1.72532 5.77609 1.72295C4.82721 2.74505 4.31878 3.99474 4.2438 5.90555C4.23349 6.17206 4.23609 7.11673 4.23951 8.36177C4.24128 9.00685 4.24327 9.73259 4.2438 10.4864C4.24693 13.7674 4.2438 17.5833 4.2438 17.5833H0.0191268V9.83649C0.0191268 9.57104 0.0143785 9.30335 0.00961926 9.03458C3.77758e-05 8.49396 -0.00961964 7.94918 0.0191268 7.40974C0.0668585 6.51046 0.219443 5.62643 0.631028 4.80519C1.57314 2.92378 3.50354 1.71241 5.56149 1.71241C5.63338 1.71241 5.70533 1.7141 5.7765 1.71691V1.71702Z" fill="#820AD1"/>
<path d="M31.9808 10.5902C32.0096 10.0508 31.9999 9.50595 31.9904 8.96539C31.9856 8.69662 31.9808 8.42893 31.9808 8.16348V0.416621H27.7562C27.7562 0.416621 27.7531 4.23253 27.7562 7.51351C27.7567 8.26732 27.7587 8.99301 27.7605 9.63808C27.7639 10.8832 27.7665 11.8279 27.7562 12.0944C27.6813 14.0052 27.1728 15.2549 26.2239 16.277C23.0789 16.2748 21.0427 14.0711 20.9293 10.5644C20.9035 9.75925 20.8926 7.76118 20.8926 5.44705V0.41333L16.671 0.417262V7.223C16.671 7.41431 16.6708 7.6032 16.6708 7.78955C16.6695 9.60627 16.6684 11.1747 16.7947 12.2873C17.1836 15.7131 19.2204 17.9999 22.2924 17.9999C23.8694 17.9999 25.2117 17.3667 26.2236 16.2828C26.2947 16.2856 26.3666 16.2873 26.4385 16.2873C28.4965 16.2873 30.4269 15.076 31.369 13.1946C31.7806 12.3733 31.9331 11.4893 31.9809 10.59L31.9808 10.5902Z" fill="#820AD1"/>
</g>
<defs>
<clipPath id="clip0_10484_9764">
<rect width="32" height="18" fill="white"/>
</clipPath>
</defs>
</svg>
