<svg width="108" height="33" viewBox="0 0 108 33" fill="none" xmlns="http://www.w3.org/2000/svg">
<g clip-path="url(#clip0_10369_8152)">
<path d="M14.8946 0C12.4745 0 10.4161 0.955687 8.86297 2.59255C8.75312 2.58917 8.64327 2.58578 8.53342 2.58578C5.37479 2.58578 2.4139 4.41412 0.968938 7.25407C0.336875 8.49443 0.101964 9.82968 0.0292935 11.187C-0.0366169 12.4053 0.0292935 13.644 0.0292935 14.8504V26.5457H6.51217C6.51217 26.5457 6.51724 20.7845 6.51217 15.8315C6.50879 12.4968 6.48851 9.52637 6.51217 8.91635C6.62709 6.03065 7.40787 4.1447 8.86297 2.60103C13.6879 2.60611 16.8111 5.93068 16.9852 11.2259C17.0257 12.4409 17.0375 18.946 17.0375 18.946V26.5457H23.5187V16.2721C23.5187 13.1661 23.5424 10.477 23.3294 8.6266C22.7346 3.45166 19.608 0 14.8946 0Z" fill="#4C0A77"/>
<path d="M49.072 12.3261V0.629107H42.5891C42.5891 0.629107 42.584 6.39034 42.5891 11.3433C42.5925 14.678 42.6128 17.6485 42.5891 18.2585C42.4742 21.1442 41.6934 23.0301 40.2383 24.5738C35.4133 24.5687 32.2902 21.2442 32.1161 15.9489C32.0756 14.734 32.0587 11.7161 32.0587 8.22207V0.624023L25.5809 0.630801V10.9044C25.5809 14.0104 25.5572 16.6996 25.7701 18.5499C26.3684 23.7232 29.4932 27.1748 34.2067 27.1748C36.6268 27.1748 38.6852 26.2191 40.2383 24.5823C40.3482 24.5874 40.458 24.5891 40.5679 24.5891C43.7265 24.5891 46.6874 22.759 48.1323 19.9208C48.7644 18.6804 48.9976 17.3452 49.072 15.9879C49.1379 14.7695 49.072 13.5309 49.072 12.3244" fill="#4C0A77"/>
<path d="M64.3593 12.2445H58.7823V4.54988H64.3593C66.6121 4.54988 68.2734 6.19353 68.2734 8.36077C68.2734 10.528 66.6121 12.2462 64.3593 12.2462V12.2445ZM64.3593 0.367905H54.4609V26.5154H58.7823V16.4299H64.3593C69.1235 16.4299 72.6319 13.0308 72.6319 8.36077C72.6319 3.69078 69.1235 0.366211 64.3593 0.366211" fill="#4C0A77"/>
<path d="M84.7818 19.1559C84.7818 21.4349 82.8247 23.6005 79.9805 23.6005C78.1705 23.6005 76.9891 22.5923 76.9891 21.1723C76.9891 19.2677 78.7991 18.3713 82.0118 18.3713H84.7818V19.1559ZM80.9404 7.87402C77.0618 7.87402 73.8119 10.7496 73.5162 14.4113H77.2088C77.3204 12.544 78.9445 11.2732 80.9387 11.2732C83.2658 11.2732 84.7801 12.7304 84.7801 14.9332V15.2687H82.1217C76.7289 15.2687 73.3691 17.6596 73.3691 21.5061C73.3691 24.5697 75.769 26.8844 79.2774 26.8844C81.6789 26.8844 83.5244 25.9507 84.7801 24.2325V26.5116H88.6586V15.1959C88.6586 10.8258 85.9631 7.87402 80.9404 7.87402Z" fill="#4C0A77"/>
<path d="M103.569 8.30957L98.7306 20.7487L93.8921 8.30957H89.4609L96.6249 25.6051L93.375 32.9998H97.8079L108 8.30957H103.569Z" fill="#4C0A77"/>
</g>
<defs>
<clipPath id="clip0_10369_8152">
<rect width="108" height="33" fill="white"/>
</clipPath>
</defs>
</svg>
