<svg width="50" height="50" viewBox="0 0 50 50" fill="none" xmlns="http://www.w3.org/2000/svg">
<rect width="50" height="50" rx="10" fill="#1D1D1F"/>
<path d="M35.0338 13.4347C35.6248 11.1801 32.8958 8.49205 28.9384 7.43075C24.9809 6.36944 21.2937 7.33679 20.7026 9.59138C20.1116 11.846 22.8406 14.534 26.7981 15.5953C30.7555 16.6567 34.4428 15.6893 35.0338 13.4347Z" fill="#8AF1D8"/>
<path d="M38.2382 22.195C35.6551 24.4456 30.1938 25.1253 24.3264 23.59C19.5606 22.3428 15.6392 19.9429 13.6537 17.3185V17.1707L13.6858 17.0008C13.6865 16.8072 13.6758 16.6138 13.6537 16.4215V16.3668C13.661 16.3077 13.6712 16.2486 13.6785 16.1939C13.6917 16.1126 13.7019 16.0328 13.7209 15.959C13.7399 15.8851 13.7589 15.7787 13.7793 15.69C13.7998 15.6058 13.8202 15.5304 13.8451 15.4536C13.8578 15.4 13.8734 15.3473 13.8918 15.2955C13.9035 15.2615 13.9137 15.226 13.9269 15.195C13.9547 15.1255 13.978 15.059 14.0058 14.997C14.0595 14.8758 14.1199 14.7579 14.187 14.6438C14.2794 14.4895 14.3953 14.3508 14.5303 14.233C14.6071 14.164 14.6914 14.104 14.7816 14.0542C14.8283 14.0291 14.8772 14.0083 14.9277 13.9921C15.1337 13.9182 15.1746 14.0261 15.7517 13.9921C16.0965 13.9773 17.2376 13.8946 18.2164 13.1616C18.7745 12.7464 18.6124 12.6222 19.0404 12.3282C19.9171 11.7371 21.3196 11.8051 22.3307 12.3282C23.4659 12.9193 23.6193 13.8059 24.7954 13.9921C25.0686 14.032 25.3461 14.032 25.6194 13.9921C26.7473 13.8768 27.0337 13.3847 28.0871 13.1616C28.6715 13.036 29.1872 12.9267 29.7336 13.1616C30.2508 13.3847 30.356 13.7335 31.3773 14.8241C31.6331 15.1183 31.9074 15.3957 32.1983 15.6545C33.7324 16.955 35.1803 16.1363 36.3155 17.3185C36.4528 17.4662 37.0621 18.0869 37.1351 18.9809C37.1936 19.6858 36.8736 20.0774 37.1351 20.6449C37.3484 21.1015 37.6801 21.1089 37.9591 21.4739C37.984 21.5064 38.0073 21.5404 38.0322 21.5758C38.0481 21.5991 38.0618 21.6238 38.0731 21.6497C38.0832 21.6647 38.0911 21.6812 38.0965 21.6985C38.1202 21.7459 38.1397 21.7954 38.1549 21.8462C38.1695 21.8921 38.1827 21.9364 38.1973 21.994C38.1987 22.0008 38.1987 22.0079 38.1973 22.0147C38.2164 22.0734 38.2301 22.1337 38.2382 22.195Z" fill="#CE8C62"/>
<path d="M38.1987 21.9837C34.7405 23.4363 29.5481 23.6269 24.0532 22.192C19.9127 21.1089 16.301 19.2912 13.7355 17.1707C13.7337 17.1139 13.7371 17.057 13.7457 17.0008C13.756 16.7998 13.7735 16.6106 13.7983 16.423V16.3698C13.8056 16.3107 13.8159 16.2516 13.8232 16.1969C13.8363 16.1171 13.8465 16.0373 13.8641 15.9649C13.8816 15.8925 13.9021 15.7846 13.9225 15.6974C13.943 15.6132 13.9634 15.5378 13.9883 15.461C14.0014 15.4078 14.0175 15.356 14.035 15.3043C14.0525 15.2526 14.0569 15.2349 14.0701 15.2038C14.0978 15.1359 14.1212 15.0694 14.149 15.0073C14.2017 14.8874 14.2617 14.7709 14.3287 14.6586C14.4192 14.5063 14.532 14.3688 14.6632 14.2507C14.7401 14.1822 14.8244 14.1227 14.9145 14.0734C14.9612 14.0482 15.0102 14.0274 15.0606 14.0113C15.2652 13.9374 15.3061 14.0453 15.8803 14.0113C16.2222 13.9965 17.3574 13.9138 18.3319 13.1853C18.887 12.773 18.7249 12.6488 19.1515 12.3562C20.0281 11.7652 21.4175 11.8361 22.4212 12.3562C23.5506 12.9473 23.704 13.834 24.8728 14.0113C25.1446 14.0512 25.4207 14.0512 25.6924 14.0113C26.8145 13.896 27.0979 13.4069 28.147 13.1853C28.7197 13.0596 29.2413 12.9518 29.7833 13.1853C30.2976 13.4069 30.4028 13.7542 31.4182 14.8388C31.6726 15.1316 31.9454 15.4076 32.2349 15.6649C33.7573 16.952 35.1963 16.1363 36.3257 17.317C36.463 17.4648 37.0694 18.0825 37.141 18.9706C37.1994 19.671 36.8809 20.0597 37.141 20.6256C37.3528 21.0793 37.683 21.0867 37.9606 21.4502C37.9854 21.4827 38.0088 21.5167 38.0336 21.5522C38.049 21.5745 38.0623 21.5982 38.0731 21.6231C38.0826 21.6384 38.0905 21.6548 38.0965 21.6719C38.1202 21.7193 38.1397 21.7688 38.1549 21.8197C38.1695 21.8655 38.1827 21.9098 38.1973 21.9674V21.9778L38.1987 21.9837Z" fill="#F9BE69"/>
<path d="M39.3676 16.4983C37.8905 13.5429 33.9749 10.7588 29.1404 9.21902C21.251 6.70687 13.6844 8.10333 12.2803 12.3223C11.8742 13.5621 12.0466 14.9541 12.7844 16.324C14.4704 19.476 18.9835 22.4048 24.284 23.7865C26.3116 24.3267 28.3982 24.6072 30.4948 24.6214C32.8324 24.6214 34.929 24.2284 36.5478 23.4924C38.1666 22.7565 39.3237 21.6778 39.7839 20.3065C40.1755 19.142 40.0338 17.8224 39.3676 16.4983ZM39.3924 20.2429C39.1539 20.9345 38.7427 21.552 38.1987 22.0354C35.715 24.3244 30.2421 24.9776 24.3921 23.4496C19.6994 22.2231 15.6421 19.7804 13.6975 17.0673C13.4951 16.7922 13.3102 16.5045 13.1438 16.2057C12.4513 14.9098 12.292 13.6759 12.6733 12.5321C13.5397 9.92981 17.0841 8.48163 21.5636 8.48163C24.0933 8.50388 26.6052 8.91138 29.0148 9.69041C33.7456 11.1947 37.572 13.9049 38.9979 16.7614C39.3673 17.4591 39.5675 18.2355 39.5823 19.0267C39.5884 19.4399 39.5252 19.8511 39.3953 20.2429H39.3924Z" fill="#64204C"/>
<path d="M39.6378 18.9514C39.6408 19.3672 39.5736 19.7805 39.4391 20.1735C39.3499 20.4355 39.2333 20.6871 39.0914 20.9241C38.8592 21.3111 38.57 21.6599 38.2338 21.9586C38.2262 21.9076 38.212 21.8579 38.1914 21.8108C38.1771 21.7634 38.1575 21.7178 38.133 21.6748C38.127 21.6578 38.1192 21.6414 38.1096 21.6261C38.0985 21.6005 38.0848 21.5763 38.0687 21.5537C38.0475 21.5175 38.023 21.4833 37.9957 21.4517C37.7181 21.0882 37.3879 21.0808 37.1746 20.6256C36.9145 20.0597 37.233 19.6695 37.1746 18.9676C37.103 18.081 36.4952 17.4574 36.3579 17.3111C35.227 16.1289 33.785 16.9535 32.2597 15.6501C31.9697 15.3923 31.6965 15.1159 31.4415 14.8226C30.4188 13.7364 30.3195 13.3877 29.8037 13.166C29.2602 12.9326 28.7387 13.0404 28.1645 13.166C27.114 13.3877 26.8291 13.8783 25.7056 13.9936C25.4333 14.0335 25.1568 14.0335 24.8845 13.9936C23.7157 13.8118 23.5594 12.9267 22.4285 12.3356C21.4219 11.8139 20.0281 11.7445 19.1515 12.3356C18.7249 12.6311 18.887 12.7523 18.3304 13.166C17.6073 13.6747 16.7547 13.962 15.8744 13.9936C15.3002 14.0276 15.2593 13.9197 15.0533 13.9936C15.0029 14.0099 14.9541 14.0307 14.9072 14.0556C14.8158 14.1027 14.7312 14.1624 14.6559 14.233C14.5242 14.3515 14.4109 14.4895 14.3199 14.6423C14.2528 14.7556 14.1928 14.8731 14.1402 14.994C14.1124 15.0561 14.0847 15.1226 14.0613 15.192C14.0482 15.223 14.0379 15.2585 14.0262 15.2925C14.0146 15.3265 13.9985 15.3989 13.9883 15.4521C13.9634 15.5289 13.943 15.5999 13.9225 15.6885C13.9021 15.7757 13.8816 15.8629 13.8641 15.956C13.8465 16.0491 13.8363 16.1038 13.8232 16.1895C13.8209 16.2245 13.815 16.2592 13.8056 16.2929C13.8056 16.3166 13.8056 16.3402 13.7983 16.3624V16.4318C13.7749 16.6121 13.7574 16.7998 13.7501 16.9978C13.5448 16.7229 13.3569 16.4352 13.1876 16.1363C12.9654 15.7247 12.7928 15.2876 12.6733 14.8344C12.4546 14.055 12.4699 13.2274 12.7172 12.4567C13.5836 9.85888 17.128 8.40626 21.6075 8.40626C24.1371 8.42851 26.649 8.83601 29.0586 9.61505C33.7894 11.1194 37.6143 13.8295 39.0417 16.686C39.4157 17.3825 39.62 18.1591 39.6378 18.9514Z" fill="#EE3095"/>
<path d="M14.7056 12.8321C14.6812 12.8077 14.6605 12.7799 14.6443 12.7493C14.5805 12.6342 14.5566 12.5008 14.5765 12.3704C14.5963 12.24 14.6588 12.12 14.7538 12.0297C14.8999 11.8981 15.046 11.7622 15.1921 11.6336C15.1999 11.629 15.2068 11.623 15.2126 11.6159C15.2988 11.5435 15.3879 11.4681 15.4814 11.3972C18.7132 8.86141 24.7837 7.3423 35.7895 13.0729C35.826 13.0906 35.8603 13.1124 35.8918 13.138C37.29 14.233 38.358 15.4447 38.9804 16.6845C39.3497 17.3822 39.55 18.1586 39.5648 18.9499C39.5683 19.3656 39.5015 19.7789 39.3676 20.172C39.3332 20.2708 39.2736 20.3587 39.1947 20.4265C39.1158 20.4944 39.0204 20.5398 38.9185 20.5581C38.8165 20.5765 38.7115 20.5671 38.6143 20.5309C38.5171 20.4947 38.4312 20.4331 38.3653 20.3523C38.3078 20.2809 38.2588 20.2031 38.2192 20.1203C37.927 19.4981 38.2849 19.0666 38.2192 18.2953C38.1403 17.32 37.4712 16.6343 37.3192 16.4717C36.0759 15.1758 34.4892 16.0787 32.8134 14.6438C32.4953 14.3644 32.1957 14.0643 31.9164 13.7453C30.7958 12.5454 30.6789 12.1641 30.112 11.9203C29.5145 11.6632 28.9432 11.7814 28.3091 11.9203C27.1505 12.1641 26.8393 12.702 25.6019 12.8306C25.3024 12.8734 24.9984 12.8734 24.699 12.8306C23.4103 12.6296 23.2379 11.6573 21.9946 11.0071C20.8886 10.4337 19.3531 10.3613 18.3918 11.0071C17.9213 11.3263 18.0996 11.4652 17.4889 11.9203C17.0769 12.223 16.6169 12.4524 16.1286 12.5986C15.6921 12.7332 15.2405 12.8112 14.7845 12.8306L14.7056 12.8321Z" fill="#F06BA6"/>
<path d="M16.3712 12.9252C16.3335 12.925 16.2966 12.9144 16.2645 12.8946C16.2323 12.8749 16.206 12.8466 16.1885 12.8129L15.7795 11.9986C15.7549 11.9496 15.7505 11.8928 15.7674 11.8405C15.7842 11.7883 15.8209 11.745 15.8693 11.7201C15.9178 11.6952 15.974 11.6908 16.0256 11.7078C16.0773 11.7249 16.1201 11.762 16.1447 11.811L16.5538 12.6222C16.5784 12.6713 16.5828 12.7281 16.5661 12.7804C16.5494 12.8328 16.513 12.8763 16.4647 12.9015C16.4361 12.9176 16.4039 12.9258 16.3712 12.9252Z" fill="#6AB6CA"/>
<path d="M32.1005 14.4517C32.0555 14.4255 32.0225 14.3825 32.0084 14.332L31.7557 13.4557C31.7405 13.403 31.7468 13.3463 31.7729 13.2983C31.7991 13.2502 31.8431 13.2146 31.8952 13.1993C31.9473 13.184 32.0033 13.1903 32.0508 13.2168C32.0984 13.2432 32.1336 13.2877 32.1487 13.3404L32.4014 14.2152C32.4169 14.2678 32.4111 14.3243 32.3853 14.3725C32.3596 14.4207 32.316 14.4566 32.2641 14.4724C32.2369 14.4808 32.2083 14.4833 32.1801 14.4797C32.1519 14.4761 32.1248 14.4666 32.1005 14.4517Z" fill="white"/>
<path d="M19.5723 11.1445C19.5235 11.145 19.4761 11.1278 19.4387 11.096C19.4014 11.0642 19.3765 11.02 19.3685 10.9713C19.3606 10.9226 19.3701 10.8726 19.3954 10.8304C19.4207 10.7882 19.4601 10.7565 19.5065 10.7411L20.3583 10.4455C20.3837 10.4367 20.4106 10.433 20.4374 10.4347C20.4643 10.4363 20.4905 10.4433 20.5147 10.4553C20.5388 10.4672 20.5604 10.4839 20.5782 10.5043C20.596 10.5246 20.6096 10.5484 20.6183 10.5741C20.6274 10.5996 20.6313 10.6267 20.6299 10.6537C20.6286 10.6808 20.6219 10.7073 20.6104 10.7318C20.5988 10.7562 20.5826 10.7781 20.5627 10.7962C20.5427 10.8143 20.5194 10.8282 20.4942 10.8371L19.6424 11.1327C19.6201 11.1416 19.5962 11.1456 19.5723 11.1445Z" fill="white"/>
<path d="M28.7723 11.5464C28.7269 11.5592 28.6786 11.5557 28.6355 11.5366C28.5924 11.5175 28.5571 11.4839 28.5356 11.4415L28.1499 10.679C28.1372 10.6548 28.1293 10.6283 28.1268 10.601C28.1243 10.5737 28.1272 10.5462 28.1353 10.52C28.1434 10.4939 28.1566 10.4696 28.174 10.4487C28.1915 10.4277 28.2129 10.4104 28.237 10.3979C28.2611 10.3854 28.2874 10.3778 28.3144 10.3757C28.3414 10.3735 28.3686 10.3768 28.3943 10.3854C28.4201 10.3939 28.4439 10.4076 28.4644 10.4255C28.4849 10.4434 28.5016 10.4653 28.5137 10.4899L28.9008 11.2598C28.9254 11.3088 28.9298 11.3657 28.9131 11.418C28.8964 11.4703 28.86 11.5138 28.8117 11.5391C28.7991 11.5438 28.7857 11.5463 28.7723 11.5464Z" fill="white"/>
<path d="M26.198 11.74C26.1713 11.7113 26.1536 11.6754 26.1468 11.6366L26.0007 10.7913C25.9924 10.7376 26.0054 10.6827 26.0368 10.6386C26.0682 10.5945 26.1155 10.5646 26.1685 10.5555C26.2215 10.5463 26.2759 10.5587 26.32 10.5898C26.364 10.621 26.3942 10.6684 26.404 10.7219L26.5501 11.5671C26.5547 11.5937 26.5541 11.621 26.5483 11.6473C26.5425 11.6737 26.5316 11.6986 26.5163 11.7207C26.5009 11.7428 26.4815 11.7616 26.4589 11.7761C26.4364 11.7906 26.4113 11.8004 26.385 11.8051C26.3509 11.8118 26.3157 11.8094 26.2828 11.798C26.25 11.7865 26.2207 11.7666 26.198 11.74Z" fill="#FDCC0F"/>
<path d="M24.0444 11.8198C24.0055 11.8207 23.9672 11.8094 23.9348 11.7873L23.2204 11.3292C23.1743 11.2994 23.1418 11.2523 23.13 11.1983C23.1182 11.1443 23.1281 11.0877 23.1576 11.0411C23.187 10.9944 23.2336 10.9615 23.287 10.9496C23.3405 10.9377 23.3964 10.9477 23.4425 10.9775L24.1584 11.4386C24.1957 11.4627 24.2243 11.4985 24.2399 11.5404C24.2554 11.5824 24.257 11.6284 24.2445 11.6714C24.232 11.7144 24.206 11.7521 24.1704 11.7789C24.1349 11.8057 24.0917 11.82 24.0473 11.8198H24.0444Z" fill="#6AB6CA"/>
<path d="M18.6021 10.2254C18.5681 10.2252 18.5347 10.2165 18.5048 10.2C18.475 10.1835 18.4497 10.1597 18.4312 10.1308C18.4022 10.0845 18.3923 10.0287 18.4035 9.97511C18.4147 9.92155 18.4461 9.87454 18.4911 9.8441L19.2055 9.38157C19.2511 9.35159 19.3065 9.34113 19.3597 9.35249C19.4128 9.36385 19.4593 9.39611 19.489 9.44216C19.5186 9.48821 19.529 9.54428 19.5177 9.59804C19.5065 9.65181 19.4746 9.69885 19.4291 9.72884L18.7205 10.1973C18.6851 10.2193 18.6436 10.2291 18.6021 10.2254Z" fill="#FDCC0F"/>
<path d="M16.9059 10.8164C16.8861 10.8164 16.8664 10.8134 16.8475 10.8076L16.0351 10.5652C16.0093 10.5576 15.9853 10.5448 15.9643 10.5278C15.9434 10.5107 15.926 10.4896 15.9131 10.4657C15.9002 10.4419 15.8921 10.4157 15.8892 10.3886C15.8863 10.3616 15.8888 10.3342 15.8963 10.3081C15.9039 10.282 15.9165 10.2577 15.9334 10.2365C15.9503 10.2153 15.9711 10.1977 15.9947 10.1847C16.0183 10.1716 16.0442 10.1634 16.071 10.1605C16.0977 10.1576 16.1248 10.1601 16.1506 10.1677L16.9629 10.4101C17.0109 10.4234 17.0524 10.4539 17.0797 10.496C17.1071 10.5381 17.1183 10.5888 17.1113 10.6386C17.1043 10.6885 17.0796 10.734 17.0418 10.7668C17.004 10.7995 16.9557 10.8172 16.9059 10.8164Z" fill="#FDCC0F"/>
<path d="M38.2309 19.2647C38.184 19.2647 38.1385 19.2484 38.1021 19.2185C38.0656 19.1887 38.0404 19.147 38.0307 19.1006L37.8539 18.2627C37.8467 18.2106 37.8593 18.1576 37.8892 18.1145C37.919 18.0714 37.9639 18.0412 38.0147 18.0302C38.0656 18.0192 38.1188 18.028 38.1635 18.055C38.2082 18.0819 38.2411 18.125 38.2557 18.1756L38.431 19.0134C38.4423 19.0673 38.4321 19.1235 38.4025 19.1698C38.3729 19.216 38.3265 19.2485 38.2732 19.2602C38.2593 19.2632 38.2451 19.2647 38.2309 19.2647Z" fill="#6AB6CA"/>
<path d="M24.0839 9.89139C24.0595 9.89179 24.0353 9.88779 24.0123 9.87956L22.9501 9.48649C22.8994 9.46689 22.8584 9.4277 22.8362 9.37754C22.814 9.32738 22.8124 9.27036 22.8318 9.21902C22.8512 9.16768 22.8899 9.12622 22.9395 9.10377C22.9891 9.08133 23.0455 9.07973 23.0962 9.09932L24.1555 9.48649C24.1807 9.49585 24.2038 9.5102 24.2236 9.52868C24.2433 9.54716 24.2592 9.56942 24.2703 9.59417C24.2815 9.61891 24.2876 9.64564 24.2885 9.67282C24.2893 9.7 24.2848 9.72707 24.2753 9.75248C24.2618 9.793 24.2361 9.82822 24.2017 9.85315C24.1674 9.87807 24.1261 9.89145 24.0839 9.89139Z" fill="white"/>
<path d="M36.8678 16.2841C36.8326 16.2602 36.8055 16.226 36.7901 16.1862C36.7747 16.1463 36.7717 16.1026 36.7816 16.0609L36.9554 15.3487C36.9717 15.2989 37.006 15.2573 37.0513 15.2319C37.0966 15.2066 37.1497 15.1995 37.2 15.2119C37.2503 15.2244 37.2941 15.2556 37.3227 15.2993C37.3513 15.343 37.3626 15.396 37.3543 15.4477L37.176 16.157C37.1626 16.2097 37.1291 16.2548 37.0828 16.2825C37.0365 16.3102 36.9812 16.3182 36.9291 16.3047C36.9076 16.3016 36.8868 16.2946 36.8678 16.2841Z" fill="#FDCC0F"/>
<path d="M34.9845 13.7808C34.9457 13.798 34.9025 13.8024 34.8611 13.7934C34.8196 13.7844 34.782 13.7624 34.7537 13.7305L34.2642 13.1882C34.2428 13.17 34.2252 13.1475 34.2127 13.1222C34.2001 13.0968 34.1928 13.0692 34.1911 13.0409C34.1895 13.0126 34.1936 12.9842 34.2032 12.9576C34.2128 12.9309 34.2276 12.9065 34.2468 12.8859C34.266 12.8653 34.2892 12.8488 34.3149 12.8375C34.3406 12.8263 34.3683 12.8204 34.3964 12.8204C34.4244 12.8203 34.4521 12.826 34.4779 12.8372C34.5037 12.8484 34.5269 12.8647 34.5462 12.8853C34.5543 12.8929 34.5616 12.9014 34.5681 12.9104L35.0561 13.4527C35.0751 13.4726 35.0899 13.4961 35.0997 13.5218C35.1095 13.5476 35.114 13.5751 35.1131 13.6027C35.1121 13.6303 35.1057 13.6574 35.0941 13.6824C35.0826 13.7074 35.0662 13.7298 35.0459 13.7483C35.0281 13.765 35.0072 13.778 34.9845 13.7867V13.7808Z" fill="#FDCC0F"/>
<path d="M34.2671 15.6353C34.2246 15.6357 34.1831 15.6225 34.1484 15.5975C34.1138 15.5726 34.0878 15.5372 34.0743 15.4964C34.057 15.4443 34.0606 15.3874 34.0844 15.3379C34.1081 15.2884 34.1502 15.2504 34.2014 15.2319L35.0532 14.9364C35.1034 14.9154 35.1597 14.9155 35.2099 14.9365C35.26 14.9576 35.2998 14.9979 35.3205 15.0487C35.3413 15.0994 35.3412 15.1564 35.3204 15.2071C35.2996 15.2579 35.2597 15.2981 35.2095 15.3191L35.1876 15.3265L34.3344 15.622C34.3131 15.631 34.2902 15.6355 34.2671 15.6353Z" fill="#6AB6CA"/>
<path d="M31.5088 12.4109C31.4732 12.4205 31.4358 12.42 31.4005 12.4096C31.3653 12.3992 31.3335 12.3792 31.3086 12.3518L30.5109 11.5006C30.4901 11.4835 30.4728 11.4623 30.4601 11.4384C30.4473 11.4145 30.4394 11.3882 30.4367 11.3612C30.4339 11.3342 30.4365 11.3069 30.4442 11.2808C30.452 11.2548 30.4647 11.2306 30.4817 11.2095C30.4986 11.1885 30.5196 11.171 30.5432 11.1581C30.5669 11.1452 30.5928 11.1372 30.6195 11.1345C30.6462 11.1317 30.6732 11.1343 30.699 11.1421C30.7247 11.1499 30.7487 11.1628 30.7695 11.18C30.7826 11.1898 30.7939 11.2018 30.8031 11.2154L31.6023 12.0681C31.6219 12.0872 31.6375 12.1102 31.6481 12.1356C31.6588 12.161 31.6643 12.1883 31.6643 12.2159C31.6643 12.2434 31.6588 12.2707 31.6481 12.2961C31.6375 12.3215 31.6219 12.3445 31.6023 12.3636C31.577 12.3882 31.5457 12.4056 31.5117 12.4139L31.5088 12.4109Z" fill="#6AB6CA"/>
<path d="M13.5353 13.9803C13.5092 13.9876 13.4818 13.9896 13.4548 13.9861C13.4278 13.9827 13.4018 13.9738 13.3783 13.96C13.3548 13.9463 13.3342 13.9279 13.3178 13.906C13.3013 13.8841 13.2894 13.8591 13.2826 13.8325C13.2676 13.7837 13.2712 13.7309 13.2928 13.6847L13.7881 12.6237C13.7996 12.5991 13.8158 12.577 13.8358 12.5586C13.8557 12.5403 13.8791 12.5262 13.9044 12.517C13.9298 12.5078 13.9567 12.5037 13.9836 12.5051C14.0105 12.5064 14.0369 12.5131 14.0613 12.5247C14.0857 12.5364 14.1075 12.5527 14.1256 12.5729C14.1437 12.5931 14.1577 12.6167 14.1668 12.6424C14.1759 12.668 14.1799 12.6953 14.1786 12.7225C14.1773 12.7497 14.1707 12.7764 14.1592 12.801L13.6639 13.8621C13.6526 13.8903 13.6352 13.9155 13.613 13.936C13.5907 13.9565 13.5642 13.9716 13.5353 13.9803Z" fill="#FDCC0F"/>
<path d="M30.5781 20.6242C26.4872 15.6516 20.4722 17.6406 20.4722 17.6406L23.159 18.4342C23.0392 18.9189 24.0108 19.5809 25.3272 19.9119C26.4741 20.2074 27.5041 20.1454 27.8299 19.8055L30.5781 20.6242Z" fill="#64204C"/>
<path d="M21.156 43C26.3597 43 30.5781 42.0724 30.5781 40.9282C30.5781 39.784 26.3597 38.8564 21.156 38.8564C15.9523 38.8564 11.7339 39.784 11.7339 40.9282C11.7339 42.0724 15.9523 43 21.156 43Z" fill="#B4A0FF"/>
<path d="M11.7325 40.9312L23.1561 18.4401L27.827 19.8158L30.5781 40.9312H11.7325Z" fill="#B3A0FF"/>
<path d="M26.2403 30.2073L21.3591 35.9468L19.5313 35.3631L18.8008 27.8266L20.8127 28.4739L21.251 33.3637L24.4155 29.6221L26.2403 30.2073Z" fill="white"/>
<path d="M17.0579 35.2951C18.1332 37.0772 17.5385 39.2377 15.6597 40.3992C13.7808 41.5607 11.6083 41.11 10.533 39.3264C9.45765 37.5427 10.0523 35.3838 11.9311 34.2237C13.81 33.0637 15.9913 33.5144 17.0579 35.2951ZM12.2102 38.2905C12.8297 39.316 13.9313 39.5569 14.8196 39.0072C15.7079 38.4575 16.0001 37.358 15.3806 36.331C14.7611 35.304 13.6537 35.0646 12.7771 35.6143C11.9005 36.164 11.5907 37.2679 12.2102 38.2905Z" fill="white"/>
<path d="M32.3547 33.8381V40.7834H30.7154L27.678 37.0891V40.7834H25.7801V33.8381H27.4223L30.4554 37.5398V33.8381H32.3547Z" fill="white"/>
<path d="M33.8157 33.8381H35.715V40.7834H33.8157V33.8381Z" fill="white"/>
</svg>
