<?xml version="1.0" encoding="utf-8"?>
<!-- Generator: Adobe Illustrator 26.0.3, SVG Export Plug-In . SVG Version: 6.00 Build 0)  -->
<svg version="1.1" id="Camada_1" xmlns="http://www.w3.org/2000/svg" xmlns:xlink="http://www.w3.org/1999/xlink" x="0px" y="0px"
	 viewBox="0 0 229.5 46.96" style="enable-background:new 0 0 229.5 46.96;" xml:space="preserve">
<style type="text/css">
	.st0{clip-path:url(#SVGID_00000101795458066515234940000013475628541712422584_);}
	.st1{clip-path:url(#SVGID_00000101795458066515234940000013475628541712422584_);fill:#12F2AB;}
	.st2{clip-path:url(#SVGID_00000101795458066515234940000013475628541712422584_);fill:#FF36F2;}
	.st3{clip-path:url(#SVGID_00000101795458066515234940000013475628541712422584_);fill:#1233A1;}
</style>
<g>
	<defs>
		<rect id="SVGID_1_" y="0" width="229.5" height="46.96"/>
	</defs>
	<clipPath id="SVGID_00000039126400745131700390000003332648536494561210_">
		<use xlink:href="#SVGID_1_"  style="overflow:visible;"/>
	</clipPath>
	<path style="clip-path:url(#SVGID_00000039126400745131700390000003332648536494561210_);" d="M210.31,18.53
		c0.65-4,4.13-6.98,8.2-6.98c4.07,0,7.56,2.98,8.2,6.98H210.31z M226.09,11.92c-2.2-2.09-5.08-3.17-8.11-3.03
		c-5.6,0.26-10.19,4.85-10.45,10.45c-0.14,3.03,0.93,5.91,3.03,8.11c2.1,2.2,4.92,3.41,7.95,3.41c3.42,0,6.59-1.56,8.69-4.28
		c0.31-0.41,0.37-0.94,0.14-1.4c-0.23-0.46-0.68-0.74-1.19-0.74c-0.41,0-0.8,0.19-1.06,0.52c-1.59,2.06-3.99,3.23-6.58,3.23
		c-4.08,0-7.56-2.98-8.2-6.98h17.86c0.73,0,1.33-0.59,1.33-1.32v-0.02C229.5,16.84,228.29,14.01,226.09,11.92"/>
	<path style="clip-path:url(#SVGID_00000039126400745131700390000003332648536494561210_);" d="M72.99,25.44
		c0,4.59-3.73,8.32-8.32,8.32s-8.32-3.73-8.32-8.32s3.73-8.32,8.32-8.32S72.99,20.86,72.99,25.44 M64.68,14.45
		c-3.32,0-6.3,1.48-8.32,3.82v-1.76c0-0.74-0.6-1.34-1.34-1.34c-0.74,0-1.33,0.6-1.33,1.34v24.71c0,0.74,0.6,1.33,1.33,1.33
		c0.74,0,1.34-0.6,1.34-1.33v-8.61c2.02,2.34,5,3.82,8.32,3.82c6.06,0,10.99-4.93,10.99-10.99C75.67,19.38,70.74,14.45,64.68,14.45"
		/>
	<path style="clip-path:url(#SVGID_00000039126400745131700390000003332648536494561210_);" d="M97.16,25.44
		c0,4.59-3.73,8.32-8.32,8.32c-4.59,0-8.32-3.73-8.32-8.32s3.73-8.32,8.32-8.32C93.43,17.12,97.16,20.86,97.16,25.44 M98.49,15.18
		c-0.74,0-1.34,0.6-1.34,1.34v1.76c-2.02-2.34-5-3.82-8.32-3.82c-6.06,0-10.99,4.93-10.99,10.99c0,6.06,4.93,10.99,10.99,10.99
		c3.32,0,6.3-1.48,8.32-3.82v1.76c0,0.74,0.6,1.34,1.34,1.34c0.74,0,1.33-0.6,1.33-1.34V16.51C99.83,15.77,99.23,15.18,98.49,15.18"
		/>
	<path style="clip-path:url(#SVGID_00000039126400745131700390000003332648536494561210_);" d="M146.58,25.44
		c0,4.59-3.73,8.32-8.32,8.32c-4.59,0-8.32-3.73-8.32-8.32s3.73-8.32,8.32-8.32C142.85,17.12,146.58,20.86,146.58,25.44
		 M147.91,15.18c-0.73,0-1.33,0.6-1.33,1.33v1.77c-2.02-2.34-5-3.82-8.32-3.82c-6.06,0-10.99,4.93-10.99,10.99
		c0,6.06,4.93,10.99,10.99,10.99c3.32,0,6.3-1.48,8.32-3.82v1.77c0,0.73,0.6,1.33,1.33,1.33h0.01c0.73,0,1.33-0.6,1.33-1.33V16.51
		C149.25,15.77,148.65,15.18,147.91,15.18"/>
	<path style="clip-path:url(#SVGID_00000039126400745131700390000003332648536494561210_);" d="M121.87,25.44
		c0,4.59-3.73,8.32-8.32,8.32c-4.59,0-8.32-3.73-8.32-8.32s3.73-8.32,8.32-8.32C118.14,17.12,121.87,20.86,121.87,25.44
		 M123.2,15.17c-0.73,0-1.33,0.6-1.33,1.33v1.77c-2.02-2.34-5-3.82-8.32-3.82c-6.06,0-10.99,4.93-10.99,10.99
		c0,6.06,4.93,10.99,10.99,10.99c3.32,0,6.3-1.48,8.32-3.82v3.68c0,2.12-0.88,4.21-2.4,5.72c-1.5,1.49-3.46,2.29-5.53,2.28
		c-3.16-0.03-5.99-1.94-7.2-4.86c-0.21-0.5-0.69-0.83-1.23-0.83c-0.45,0-0.86,0.22-1.11,0.59c-0.24,0.37-0.29,0.83-0.13,1.23
		c1.64,3.98,5.45,6.54,9.73,6.54h0.06c5.77-0.03,10.47-4.83,10.47-10.69V16.5C124.54,15.77,123.94,15.17,123.2,15.17"/>
	<path style="clip-path:url(#SVGID_00000039126400745131700390000003332648536494561210_);" d="M158.98,27.84
		c-1.27-0.34-2.15-1.5-2.15-2.81V1.34c0-0.74-0.6-1.34-1.34-1.34c-0.74,0-1.34,0.6-1.34,1.34v23.7c0,2.53,1.71,4.74,4.15,5.39
		c0.11,0.03,0.23,0.04,0.34,0.04c0.29,0,0.57-0.09,0.8-0.27c0.33-0.26,0.52-0.64,0.52-1.06v0C159.97,28.53,159.56,28,158.98,27.84"
		/>
	<path style="clip-path:url(#SVGID_00000039126400745131700390000003332648536494561210_);" d="M164.26,18.53
		c0.65-4,4.13-6.98,8.2-6.98c4.08,0,7.56,2.98,8.2,6.98H164.26z M171.94,8.89c-5.6,0.26-10.19,4.86-10.45,10.45
		c-0.14,3.03,0.93,5.91,3.03,8.11c2.1,2.2,4.92,3.41,7.95,3.41c3.42,0,6.59-1.56,8.69-4.28c0.31-0.41,0.37-0.94,0.14-1.4
		c-0.23-0.46-0.68-0.74-1.19-0.74c-0.41,0-0.8,0.19-1.06,0.52c-1.59,2.06-3.99,3.24-6.58,3.24c-4.07,0-7.56-2.98-8.2-6.98h17.86
		c0.74,0,1.34-0.59,1.34-1.32v-0.01c0-3.03-1.21-5.85-3.41-7.95C177.85,9.82,174.97,8.75,171.94,8.89"/>
	<path style="clip-path:url(#SVGID_00000039126400745131700390000003332648536494561210_);" d="M205.23,9.47
		c-0.48,0-0.92,0.27-1.14,0.71l-8.59,16.75l-8.59-16.75c-0.22-0.44-0.66-0.71-1.14-0.71c-0.46,0-0.87,0.24-1.11,0.65
		c-0.24,0.4-0.25,0.9-0.04,1.31l9.24,18.02c0.32,0.63,0.95,1.02,1.64,1.02c0.69,0,1.32-0.39,1.64-1.02l9.24-18.02
		c0.21-0.42,0.2-0.91-0.04-1.31C206.1,9.71,205.69,9.47,205.23,9.47"/>
	<path style="clip-path:url(#SVGID_00000039126400745131700390000003332648536494561210_);fill:#12F2AB;" d="M9.34,13.1
		c-0.64-0.82-0.93-1.84-0.81-2.88C8.66,9.19,9.18,8.26,10,7.62c0.69-0.55,1.53-0.83,2.4-0.83c0.16,0,0.32,0.01,0.47,0.03
		c1.04,0.12,1.96,0.65,2.61,1.47l8.05,10.25c3.48-0.09,6.89-0.45,9.81-1.06l2.69-3.43c2.01-2.56,1.57-6.27-1-8.29
		c-2.56-2.01-6.27-1.57-8.29,1l-4.66,5.94l-4.66-5.93c-1.05-1.34-2.56-2.19-4.25-2.39c-1.69-0.2-3.36,0.26-4.7,1.32
		C7.13,6.73,6.28,8.24,6.08,9.93c-0.2,1.69,0.27,3.36,1.32,4.7l2.15,2.74c1.14,0.26,2.37,0.47,3.65,0.65L9.34,13.1z"/>
	<path style="clip-path:url(#SVGID_00000039126400745131700390000003332648536494561210_);fill:#12F2AB;" d="M20.51,32.28l-5.03,6.4
		c-0.74,0.95-1.87,1.49-3.07,1.49c-0.88,0-1.71-0.29-2.41-0.83c-0.82-0.65-1.34-1.57-1.46-2.6c-0.12-1.04,0.16-2.06,0.81-2.88
		l3.18-4.05c-0.96-0.12-1.9-0.25-2.82-0.4l-2.3,2.93c-1.05,1.34-1.52,3.01-1.32,4.7c0.2,1.69,1.05,3.2,2.39,4.25
		c1.13,0.89,2.5,1.36,3.94,1.36c1.97,0,3.8-0.89,5.02-2.44l4.66-5.93l4.66,5.94c1.16,1.48,2.9,2.26,4.65,2.26
		c1.27,0,2.56-0.41,3.64-1.26c2.56-2.01,3.01-5.72,1-8.29l-2.73-3.47c-3.53,0.57-7.39,0.86-11.27,0.88L20.51,32.28z"/>
	<path style="clip-path:url(#SVGID_00000039126400745131700390000003332648536494561210_);fill:#FF36F2;" d="M13.2,18.01l2.87,3.65
		c0.84,1.07,0.84,2.57,0,3.64l-0.39,0.49l-3.16,4.02c2.94,0.35,6.04,0.53,9.14,0.53c0.13,0,0.25,0,0.38,0l3.49-4.44
		c1.12-1.42,1.12-3.4,0-4.82l-2-2.55C20.02,18.62,16.43,18.45,13.2,18.01"/>
	<path style="clip-path:url(#SVGID_00000039126400745131700390000003332648536494561210_);fill:#FF36F2;" d="M43.08,20.85
		c-0.92-3.13-4.21-4.91-7.33-3.99c-0.76,0.22-1.56,0.42-2.41,0.6l-4.73,6.02l4.7,5.98c2.07-0.33,4.02-0.76,5.79-1.28
		C42.22,27.25,44,23.97,43.08,20.85"/>
	<path style="clip-path:url(#SVGID_00000039126400745131700390000003332648536494561210_);fill:#FF36F2;" d="M14.12,23.19
		l-4.57-5.82c-0.69-0.15-1.35-0.32-1.97-0.51c-3.12-0.92-6.41,0.86-7.33,3.99c-0.92,3.13,0.86,6.41,3.99,7.33
		c1.68,0.5,3.52,0.9,5.47,1.23l4.42-5.63C14.26,23.6,14.26,23.36,14.12,23.19"/>
	<path style="clip-path:url(#SVGID_00000039126400745131700390000003332648536494561210_);fill:#1233A1;" d="M15.68,25.79l0.39-0.49
		c0.84-1.07,0.84-2.57,0-3.64l-2.87-3.65c-1.28-0.17-2.5-0.39-3.65-0.65l4.57,5.82c0.14,0.17,0.14,0.41,0,0.59L9.7,29.4
		c0.92,0.15,1.86,0.29,2.82,0.41L15.68,25.79z"/>
	<path style="clip-path:url(#SVGID_00000039126400745131700390000003332648536494561210_);fill:#1233A1;" d="M33.34,17.46
		c-2.92,0.62-6.32,0.97-9.81,1.06l2,2.55c1.12,1.42,1.12,3.4,0,4.82l-3.49,4.45c3.88-0.02,7.74-0.31,11.26-0.88l-4.7-5.98
		L33.34,17.46z"/>
</g>
</svg>
