<?xml version="1.0" encoding="UTF-8"?>
<svg width="144px" height="43px" viewBox="0 0 144 43" version="1.1" xmlns="http://www.w3.org/2000/svg" xmlns:xlink="http://www.w3.org/1999/xlink">
    <!-- Generator: Sketch 52.4 (67378) - http://www.bohemiancoding.com/sketch -->
    <title>Artboard</title>
    <desc>Created with Sketch.</desc>
    <g id="Artboard" stroke="none" stroke-width="1" fill="none" fill-rule="evenodd">
        <path d="M10.1270204,29.2782041 L10.1270204,25.9985306 C10.1270204,24.0530612 9.17338776,23.2522449 7.45714286,23.2522449 C6.65632653,23.2522449 5.89371429,23.3668571 5.28391837,23.5960816 L5.28391837,31.4132245 C5.89371429,31.7570612 6.61812245,31.9466122 7.45714286,31.9466122 C9.21159184,31.9466122 10.1270204,31.1090612 10.1270204,29.2782041 Z M7.5717551,19.0204082 C11.9578776,19.0204082 14.9701224,21.6520816 14.9701224,26.1131429 L14.9701224,29.2017959 C14.9701224,33.4733061 12.1856327,36.1035102 8.18155102,36.1035102 C7.1515102,36.1035102 6.08473469,35.8742857 5.32212245,35.5701224 L5.32212245,41.0612245 C5.32212245,41.4432653 5.13110204,41.6328163 4.78873469,41.6328163 L1.09028571,41.6328163 C0.708244898,41.6328163 0.518693878,41.4417959 0.518693878,41.0612245 L0.518693878,20.7733878 C0.518693878,20.4677551 0.633306122,20.2782041 0.937469388,20.1635918 C2.84326531,19.4773878 5.43673469,19.0204082 7.5717551,19.0204082 Z M24.2360816,32.2140408 C24.9604898,32.2140408 25.7995102,32.0994286 26.371102,31.9466122 L26.371102,29.2003265 C25.7613061,29.0857143 24.8840816,29.0093061 24.1978776,29.0093061 C22.4816327,29.0093061 21.7190204,29.580898 21.7190204,30.5727347 C21.7572245,31.7188571 22.7490612,32.2140408 24.2360816,32.2140408 Z M24.3124898,19.0204082 C28.6222041,19.0204082 31.176,21.2700408 31.176,26.0367347 L31.176,34.6164898 C31.176,34.9221224 31.0231837,35.1498776 30.7190204,35.2262857 C28.8881633,35.7978776 26.4093061,36.1417143 24.2742857,36.1417143 C19.7750204,36.1417143 16.9141224,34.4636735 16.9141224,30.7652245 C16.9141224,27.5237551 19.4693878,25.8839184 23.740898,25.8839184 C24.6945306,25.8839184 25.6099592,25.9603265 26.4107755,26.0749388 L26.4107755,25.7693061 C26.4107755,24.1294694 25.8009796,23.2140408 23.779102,23.2140408 C22.4066939,23.2140408 20.7668571,23.5960816 19.8514286,24.0912653 C19.584,24.2440816 19.2416327,24.2058776 19.0888163,23.9002449 L17.7928163,21.4595918 C17.64,21.1539592 17.64,20.9262041 17.8692245,20.7733878 C19.3547755,19.7830204 21.6058776,19.0204082 24.3124898,19.0204082 Z M41.3588571,31.184 C42.2742857,31.184 43.1133061,30.9929796 43.5320816,30.6506122 L43.5320816,23.5578776 C43.075102,23.3668571 42.1978776,23.2522449 41.4352653,23.2522449 C39.7572245,23.2522449 38.7271837,23.938449 38.7271837,25.9221224 L38.7271837,28.6684082 C38.7653878,30.4977959 39.7954286,31.184 41.3588571,31.184 Z M40.9018776,42.0148571 C38.3084082,42.0148571 36.477551,41.4814694 34.7245714,40.3368163 C34.4571429,40.1457959 34.4189388,39.8798367 34.6099592,39.5742041 L36.2497959,37.0571429 C36.4408163,36.7897143 36.6685714,36.7133061 36.9742041,36.9043265 C37.9660408,37.5141224 39.3002449,37.9343673 40.7108571,37.9343673 C42.6945306,37.9343673 43.684898,37.1717551 43.6466939,34.8839184 C42.7694694,35.1513469 41.6630204,35.340898 40.7490612,35.340898 C36.7067755,35.340898 33.9222857,32.9002449 33.9222857,28.6287347 L33.9222857,26.0734694 C33.9222857,21.1921633 37.1637551,19.0189388 41.4352653,19.0189388 C43.7613061,19.0189388 46.0873469,19.5523265 47.9564082,20.2767347 C48.2238367,20.3913469 48.3751837,20.6205714 48.3751837,20.9247347 L48.3751837,34.1580408 C48.3369796,39.4977959 46.125551,42.0148571 40.9018776,42.0148571 Z M58.0613878,32.2140408 C58.7857959,32.2140408 59.6248163,32.0994286 60.1964082,31.9466122 L60.1964082,29.2003265 C59.5866122,29.0857143 58.7093878,29.0093061 58.0231837,29.0093061 C56.3069388,29.0093061 55.5443265,29.580898 55.5443265,30.5727347 C55.5443265,31.7188571 56.5361633,32.2140408 58.0613878,32.2140408 Z M58.0995918,19.0204082 C62.4093061,19.0204082 64.963102,21.2700408 64.963102,26.0367347 L64.963102,34.6164898 C64.963102,34.9221224 64.8102857,35.1498776 64.5061224,35.2262857 C62.6752653,35.7978776 60.1964082,36.1417143 58.0613878,36.1417143 C53.5621224,36.1417143 50.7012245,34.4636735 50.7012245,30.7652245 C50.7012245,27.5237551 53.2564898,25.8839184 57.528,25.8839184 C58.4816327,25.8839184 59.3970612,25.9603265 60.1978776,26.0749388 L60.1978776,25.7693061 C60.1978776,24.1294694 59.5880816,23.2140408 57.5662041,23.2140408 C56.1937959,23.2140408 54.5539592,23.5960816 53.6385306,24.0912653 C53.371102,24.2440816 53.0287347,24.2058776 52.8759184,23.9002449 L51.5799184,21.4595918 C51.427102,21.1539592 51.427102,20.9262041 51.6563265,20.7733878 C53.1418776,19.7830204 55.4311837,19.0204082 58.0995918,19.0204082 Z M68.7394286,35.6847347 C68.3573878,35.6847347 68.1678367,35.4937143 68.1678367,35.1131429 L68.1678367,20.9276735 C68.1678367,20.6602449 68.282449,20.4324898 68.5866122,20.2796735 C70.3028571,19.4406531 72.3232653,18.9836735 74.3451429,18.9836735 C75.2987755,18.9836735 76.2524082,19.0982857 77.3955918,19.2893061 C77.7394286,19.3657143 77.8907755,19.5567347 77.8907755,19.899102 L77.8907755,22.7585306 C77.8907755,23.1405714 77.661551,23.3301224 77.2809796,23.2537143 C76.6711837,23.1773061 75.9849796,23.139102 75.3355102,23.139102 C74.3818776,23.139102 73.5428571,23.2919184 72.9712653,23.5578776 L72.9712653,35.1131429 C72.9712653,35.4951837 72.7802449,35.6847347 72.4378776,35.6847347 L68.7394286,35.6847347 Z M81.0955102,35.6083265 L78.1214694,33.5115102 C77.8158367,33.2822857 77.8158367,32.8253061 78.1214694,32.5960816 L81.0955102,30.4992653 C81.477551,30.2318367 81.9727347,30.4992653 81.9727347,30.9562449 L81.9727347,35.1513469 C81.9727347,35.6083265 81.4760816,35.8757551 81.0955102,35.6083265 Z M100.733878,19.0204082 C104.852571,19.0204082 107.712,21.4610612 107.712,25.8839184 L107.712,35.1513469 C107.712,35.5333878 107.52098,35.7229388 107.178612,35.7229388 L103.555102,35.7229388 C103.173061,35.7229388 102.98351,35.5319184 102.98351,35.1513469 L102.98351,25.7325714 C102.98351,24.2073469 102.220898,23.2919184 100.581061,23.2919184 C99.8948571,23.2919184 99.2086531,23.4447347 98.5606531,23.787102 C98.7898776,24.396898 98.8662857,25.083102 98.8662857,25.8075102 L98.8662857,35.1116735 C98.8662857,35.4937143 98.6752653,35.6832653 98.332898,35.6832653 L94.7093878,35.6832653 C94.3273469,35.6832653 94.1377959,35.4922449 94.1377959,35.1116735 L94.1377959,25.692898 C94.1377959,24.0530612 93.3751837,23.2140408 91.8499592,23.2140408 C91.2019592,23.2140408 90.5157551,23.3286531 90.019102,23.4814694 L90.019102,35.0749388 C90.019102,35.4569796 89.7898776,35.6465306 89.4475102,35.6465306 L85.824,35.6465306 C85.4419592,35.6465306 85.2524082,35.4555102 85.2524082,35.0749388 L85.2524082,20.9276735 C85.2524082,20.6220408 85.3670204,20.3942857 85.6711837,20.2414694 C87.5020408,19.4788571 89.7516735,19.0218776 91.7720816,19.0218776 C93.4119184,19.0218776 94.8225306,19.4788571 96.0435918,20.3178776 C97.6834286,19.4773878 99.0558367,19.0204082 100.733878,19.0204082 Z M117.742041,22.9862857 C116.293224,22.9862857 115.339592,23.748898 115.339592,25.4651429 L115.339592,26.1131429 L120.14449,26.1131429 L120.14449,25.4651429 C120.14449,23.748898 119.154122,22.9862857 117.742041,22.9862857 Z M124.798041,28.6684082 C124.798041,29.0122449 124.568816,29.2017959 124.188245,29.2017959 L115.341061,29.2017959 L115.341061,29.6969796 C115.341061,31.2986122 116.371102,32.0994286 118.049143,32.0994286 C119.612571,32.0994286 120.908571,31.642449 122.01502,30.9547755 C122.282449,30.725551 122.548408,30.8019592 122.739429,31.0693878 L124.379265,33.2426122 C124.570286,33.5100408 124.570286,33.8142041 124.302857,34.0434286 C122.701224,35.2630204 120.680816,36.1020408 117.934531,36.1020408 C113.854041,36.1020408 110.574367,33.9288163 110.574367,29.580898 L110.574367,25.6546939 C110.574367,21.0026122 113.854041,18.9807347 117.819918,18.9807347 C121.671184,18.9807347 124.798041,20.9262041 124.798041,25.6546939 L124.798041,28.6684082 Z M125.750204,0.0667755102 L129.563265,0.0667755102 L129.563265,3.87983673 L125.750204,3.87983673 L125.750204,0.0667755102 Z M130.593306,0.0667755102 L134.406367,0.0667755102 L134.406367,3.87983673 L130.593306,3.87983673 L130.593306,0.0667755102 Z M135.398204,0.0667755102 L139.211265,0.0667755102 L139.211265,3.87983673 L135.398204,3.87983673 L135.398204,0.0667755102 Z M140.241306,0.0667755102 L143.482776,0.0667755102 L143.482776,3.87983673 L140.241306,3.87983673 L140.241306,0.0667755102 Z M125.750204,4.90987755 L129.563265,4.90987755 L129.563265,8.72293878 L125.750204,8.72293878 L125.750204,4.90987755 Z M125.750204,9.71477551 L129.563265,9.71477551 L129.563265,13.5278367 L125.750204,13.5278367 L125.750204,9.71477551 Z M125.750204,14.5578776 L129.563265,14.5578776 L129.563265,17.7993469 L125.750204,17.7993469 L125.750204,14.5578776 Z M130.555102,9.71477551 C130.555102,9.71477551 132.616653,9.71477551 133.263184,9.71330612 L135.627429,11.4677551 C135.856653,11.6205714 136.122612,11.6205714 136.351837,11.5059592 C136.581061,11.3913469 136.733878,11.1635918 136.733878,10.8961633 L136.733878,7.6164898 C136.733878,7.35053061 136.581061,7.12130612 136.351837,7.00669388 C136.160816,6.89208163 135.856653,6.89208163 135.665633,7.04489796 L133.263184,8.72293878 L130.555102,8.72293878 L130.555102,4.90987755 L139.211265,4.90987755 L139.211265,13.5278367 L134.368163,13.5278367 L134.368163,17.7993469 L130.555102,17.7993469 L130.555102,9.71477551 Z M140.241306,4.90987755 L143.482776,4.90987755 L143.482776,8.72293878 L140.241306,8.72293878 L140.241306,4.90987755 Z M140.241306,9.71477551 L143.482776,9.71477551 L143.482776,13.5278367 L140.241306,13.5278367 L140.241306,9.71477551 Z M135.398204,14.5578776 L139.211265,14.5578776 L139.211265,17.7993469 L135.398204,17.7993469 L135.398204,14.5578776 Z M140.241306,14.5578776 L143.482776,14.5578776 L143.482776,17.7993469 L140.241306,17.7993469 L140.241306,14.5578776 Z" id="Combined-Shape" fill="#93C649" fill-rule="nonzero"></path>
    </g>
</svg>