<svg width="185" height="41" viewBox="0 0 185 41" fill="none" xmlns="http://www.w3.org/2000/svg">
<path d="M161.412 33.9112C161.296 33.9112 161.195 33.8755 161.111 33.8041C161.037 33.7225 161 33.6307 161 33.5286V32.4421C161 32.3707 161.021 32.2636 161.063 32.1207C161.106 31.9677 161.217 31.8249 161.396 31.6923L163.045 30.1313C163.89 29.509 164.582 28.9836 165.121 28.5551C165.67 28.1164 166.077 27.7287 166.341 27.392C166.605 27.0554 166.738 26.7391 166.738 26.4432C166.738 26.0964 166.642 25.8107 166.452 25.5863C166.273 25.3516 165.956 25.2343 165.501 25.2343C165.195 25.2343 164.941 25.3006 164.741 25.4332C164.54 25.5556 164.381 25.7189 164.265 25.9229C164.159 26.127 164.085 26.3361 164.043 26.5504C164.001 26.683 163.927 26.7748 163.821 26.8258C163.726 26.8768 163.62 26.9023 163.504 26.9023H161.523C161.428 26.9023 161.349 26.8717 161.285 26.8105C161.222 26.7493 161.19 26.6728 161.19 26.581C161.201 26.0913 161.306 25.6322 161.507 25.2037C161.719 24.765 162.009 24.3824 162.379 24.0559C162.759 23.7295 163.208 23.4744 163.726 23.2908C164.254 23.0969 164.846 23 165.501 23C166.399 23 167.16 23.1428 167.784 23.4285C168.418 23.704 168.898 24.0916 169.226 24.5915C169.553 25.0812 169.717 25.6577 169.717 26.3208C169.717 26.8207 169.601 27.29 169.369 27.7287C169.147 28.1572 168.824 28.5704 168.402 28.9683C167.99 29.356 167.498 29.7589 166.928 30.1772L165.47 31.6004H169.543C169.659 31.6004 169.754 31.6361 169.828 31.7076C169.913 31.779 169.955 31.8708 169.955 31.983V33.5286C169.955 33.6307 169.913 33.7225 169.828 33.8041C169.754 33.8755 169.659 33.9112 169.543 33.9112H161.412Z" fill="#2A2C3B"/>
<path d="M171.911 33.9112C171.794 33.9112 171.699 33.8755 171.625 33.8041C171.551 33.7225 171.514 33.6307 171.514 33.5286V31.5851C171.514 31.4729 171.551 31.3811 171.625 31.3097C171.699 31.2383 171.794 31.2026 171.911 31.2026H173.924C174.029 31.2026 174.119 31.2383 174.193 31.3097C174.278 31.3811 174.32 31.4729 174.32 31.5851V33.5286C174.32 33.6307 174.278 33.7225 174.193 33.8041C174.119 33.8755 174.029 33.9112 173.924 33.9112H171.911Z" fill="#2A2C3B"/>
<path d="M180.427 34.0643C179.667 34.0643 179.006 33.9622 178.446 33.7582C177.897 33.544 177.437 33.2532 177.067 32.8859C176.697 32.5186 176.417 32.0901 176.227 31.6004C176.037 31.1107 175.926 30.5853 175.894 30.0242C175.884 29.7487 175.873 29.4376 175.863 29.0907C175.863 28.7336 175.863 28.3765 175.863 28.0195C175.873 27.6522 175.884 27.3257 175.894 27.0401C175.926 26.4789 176.037 25.9586 176.227 25.4791C176.428 24.9894 176.713 24.566 177.083 24.209C177.464 23.8417 177.928 23.556 178.478 23.352C179.038 23.1479 179.688 23.0459 180.427 23.0459C181.178 23.0459 181.827 23.1479 182.377 23.352C182.937 23.556 183.402 23.8417 183.772 24.209C184.141 24.566 184.427 24.9894 184.628 25.4791C184.828 25.9586 184.945 26.4789 184.976 27.0401C184.987 27.3257 184.992 27.6522 184.992 28.0195C185.003 28.3765 185.003 28.7336 184.992 29.0907C184.992 29.4376 184.987 29.7487 184.976 30.0242C184.945 30.5853 184.828 31.1107 184.628 31.6004C184.437 32.0901 184.157 32.5186 183.788 32.8859C183.428 33.2532 182.969 33.544 182.409 33.7582C181.859 33.9622 181.199 34.0643 180.427 34.0643ZM180.427 31.8453C180.977 31.8453 181.373 31.677 181.616 31.3403C181.87 30.9934 182.002 30.5292 182.012 29.9477C182.033 29.6518 182.044 29.3407 182.044 29.0142C182.055 28.6877 182.055 28.3612 182.044 28.0348C182.044 27.7083 182.033 27.4073 182.012 27.1319C182.002 26.5708 181.87 26.1168 181.616 25.7699C181.373 25.423 180.977 25.2445 180.427 25.2343C179.889 25.2445 179.492 25.423 179.239 25.7699C178.996 26.1168 178.864 26.5708 178.842 27.1319C178.842 27.4073 178.837 27.7083 178.827 28.0348C178.827 28.3612 178.827 28.6877 178.827 29.0142C178.837 29.3407 178.842 29.6518 178.842 29.9477C178.864 30.5292 179.001 30.9934 179.255 31.3403C179.508 31.677 179.899 31.8453 180.427 31.8453Z" fill="#2A2C3B"/>
<g clip-path="url(#clip0_15842_15496)">
<path d="M143.2 27.2336H151.824C151.839 26.8808 151.851 26.5261 151.851 26.1696C151.834 11.7524 140.159 0.0650211 125.742 0.0333252V8.64794C135.408 8.66251 143.236 16.5034 143.234 26.1696C143.236 26.5233 143.222 26.8808 143.2 27.2336Z" fill="#A7BF30"/>
<path d="M42.9854 39.8434C42.2826 39.6885 41.5966 39.4651 40.9374 39.1765C40.4351 38.9465 39.9474 38.686 39.4771 38.3964C39.1406 38.1954 38.8216 37.9666 38.5233 37.7124L38.2403 37.4294L39.9553 34.889L40.194 35.1305C40.4056 35.318 40.6283 35.4925 40.8609 35.6531C41.2131 35.91 41.585 36.1386 41.9731 36.337C43.0307 36.8383 44.1847 37.1036 45.355 37.1143C46.7127 37.24 48.0649 36.824 49.1171 35.9569C49.9417 35.0436 50.3604 33.8347 50.2774 32.6071V31.243C50.2162 31.3294 50.1517 31.4134 50.084 31.4949C49.8968 31.7041 49.6954 31.9002 49.4812 32.0816C49.1653 32.3676 48.8192 32.6184 48.4492 32.8297C47.9671 33.0823 47.4549 33.2725 46.9248 33.3957C46.2545 33.569 45.5643 33.6536 44.872 33.6476C42.7603 33.7288 40.7014 32.9759 39.1403 31.5515C37.5726 29.9613 36.7585 27.7773 36.9027 25.549C36.8129 23.3437 37.6404 21.1998 39.1884 19.6267C40.6702 18.1302 42.7025 17.3094 44.8079 17.357C45.8636 17.3401 46.9115 17.5398 47.887 17.9437C48.5845 18.1971 49.2221 18.5922 49.7595 19.104L50.2689 19.6701V17.607H53.7046V32.0241C53.7046 37.4213 50.973 40.1198 45.5097 40.1198H45.4758C44.6379 40.1219 43.8024 40.0292 42.9854 39.8434ZM41.6477 21.7577C40.7426 22.7975 40.2715 24.1453 40.3317 25.5226C40.2757 26.8947 40.7597 28.2341 41.6798 29.2535C42.6067 30.2273 43.9089 30.7537 45.2522 30.6977C46.6332 30.76 47.9783 30.2478 48.968 29.2827C49.9255 28.2706 50.4296 26.9123 50.3642 25.5207C50.4207 24.1234 49.9045 22.7636 48.935 21.7558C47.9502 20.78 46.6045 20.257 45.2192 20.3115C43.8741 20.2491 42.569 20.7785 41.6477 21.7605V21.7577ZM0 39.7755V17.607H3.42999V19.7351C3.47339 19.671 3.54225 19.5823 3.63659 19.4644C3.83237 19.2515 4.04465 19.0543 4.27146 18.8748C4.60546 18.5943 4.96777 18.3492 5.35253 18.1437C5.8585 17.8917 6.39058 17.6959 6.93923 17.5598C7.61591 17.3777 8.31384 17.2867 9.01459 17.2891C11.1211 17.2154 13.1595 18.0418 14.62 19.5616C16.1129 21.1869 16.8962 23.3405 16.7963 25.5452C16.9254 27.7987 16.1408 30.0091 14.62 31.6769C13.1039 33.1863 11.0255 33.9926 8.88818 33.9004C8.20297 33.9043 7.52018 33.8187 6.85716 33.6457C6.31168 33.514 5.78763 33.3057 5.30064 33.0268C4.93741 32.8096 4.58772 32.5705 4.25353 32.3109C4.01709 32.1378 3.80374 31.9352 3.61866 31.7081L3.42999 31.4534V39.7736L0 39.7755ZM4.73275 21.7379C3.77629 22.7958 3.27385 24.1872 3.33377 25.6122C3.25435 27.0491 3.75886 28.4571 4.73275 29.5167C5.73565 30.4995 7.10372 31.0183 8.50612 30.9477C9.84247 31.0083 11.1355 30.4665 12.0295 29.4714C12.9272 28.4036 13.3921 27.038 13.3323 25.6442C13.3914 24.2228 12.9086 22.832 11.9814 21.753C11.0742 20.7454 9.76657 20.1925 8.41179 20.2436C7.02648 20.1905 5.68558 20.7375 4.73275 21.7445V21.7379ZM125.575 34.0013C122.675 34.0013 120.437 33.2438 118.86 31.7288C117.226 30.0766 116.366 27.8108 116.493 25.4905C116.408 23.2048 117.284 20.9879 118.908 19.3776C120.535 17.7921 122.737 16.9378 125.008 17.0117C127.359 16.8852 129.649 17.7892 131.28 19.488C132.88 21.3886 133.692 23.8297 133.55 26.3102V27.1357H121.542C121.545 27.2445 121.561 27.3526 121.591 27.4573C121.668 27.6894 121.77 27.9129 121.893 28.1243C122.062 28.4428 122.281 28.7322 122.542 28.9818C122.894 29.2872 123.304 29.5197 123.747 29.6657C124.353 29.8771 124.992 29.9787 125.634 29.9657C126.431 29.969 127.22 29.8124 127.955 29.5053C128.544 29.288 129.091 28.9715 129.573 28.5696L130.045 28.0932L132.652 31.1392C132.589 31.2222 132.498 31.3279 132.383 31.4581C132.126 31.7071 131.85 31.9355 131.557 32.141C131.117 32.4726 130.649 32.7649 130.158 33.0146C129.526 33.3171 128.861 33.5462 128.177 33.6976C127.336 33.8988 126.474 34.0005 125.609 34.0004L125.575 34.0013ZM123.477 21.2964C123.088 21.4472 122.74 21.6866 122.461 21.9954C122.242 22.2501 122.05 22.5267 121.888 22.8208C121.761 23.0366 121.676 23.2739 121.635 23.5208L121.571 23.8038H128.464C128.443 23.7255 128.423 23.6151 128.403 23.5038C128.336 23.2725 128.245 23.0487 128.132 22.8359C127.981 22.5218 127.783 22.2326 127.545 21.9784C127.25 21.695 126.905 21.4688 126.527 21.3115C126.047 21.1027 125.527 21.0003 125.003 21.0115H124.925C124.428 21.0123 123.937 21.11 123.478 21.2992L123.477 21.2964ZM84.4698 33.1599C83.9212 32.6266 83.6119 31.8939 83.6123 31.1288C83.6116 30.3629 83.921 29.6293 84.4698 29.095C85.0295 28.5498 85.7848 28.2524 86.5659 28.2696C87.3474 28.2538 88.1027 28.551 88.6639 29.095C89.2113 29.63 89.5195 30.3634 89.5186 31.1288C89.5188 31.8933 89.2107 32.6256 88.6639 33.1599C88.095 33.6912 87.3453 33.9863 86.5669 33.9853C85.7892 33.9867 85.0399 33.6927 84.4708 33.1627L84.4698 33.1599ZM63.5087 33.9315C61.3916 34.0112 59.3296 33.2459 57.777 31.8043C56.2038 30.1796 55.3919 27.9649 55.5422 25.7084C55.4423 23.4688 56.269 21.2868 57.8279 19.6757C59.305 18.1703 61.3389 17.343 63.4474 17.39C64.5031 17.3731 65.551 17.5728 66.5265 17.9768C67.2234 18.2308 67.861 18.6247 68.4 19.1342L68.9084 19.7078V17.6739H72.3365V33.6806H68.9056V31.4883C68.8631 31.5524 68.8018 31.6411 68.7169 31.7562C68.5341 31.9707 68.332 32.168 68.1132 32.3458C67.794 32.6222 67.4483 32.8664 67.0812 33.075C66.5983 33.3308 66.0865 33.5278 65.5567 33.6617C64.9082 33.8415 64.2383 33.9325 63.5653 33.9325L63.5087 33.9315ZM60.2872 21.803C59.3742 22.8683 58.9019 24.2417 58.9665 25.6433C58.909 27.0499 59.3924 28.4252 60.3174 29.4865C61.2291 30.4875 62.537 31.0339 63.8898 30.9788C65.2788 31.0492 66.6331 30.5307 67.6198 29.5506C68.5844 28.4853 69.0825 27.0782 69.0028 25.6433C69.0654 24.2222 68.5491 22.8365 67.5717 21.803C66.593 20.8174 65.2457 20.2876 63.8578 20.3427C62.5102 20.2793 61.2036 20.8149 60.2882 21.8058L60.2872 21.803ZM26.2325 33.9315C24.1157 34.0125 22.0538 33.247 20.5027 31.8043C18.9292 30.1795 18.1157 27.9654 18.2632 25.7084C18.1633 23.4688 18.99 21.2868 20.5489 19.6757C22.0264 18.171 24.06 17.3438 26.1684 17.39C27.225 17.3729 28.2739 17.5726 29.2503 17.9768C29.9463 18.2319 30.5834 18.6257 31.1228 19.1342L31.6294 19.7078V17.6739H35.0594V33.6806H31.6294V31.4883C31.5684 31.5789 31.5055 31.6682 31.4407 31.7562C31.2581 31.9706 31.0564 32.168 30.8379 32.3458C30.5188 32.6222 30.1731 32.8664 29.8059 33.075C29.3228 33.3303 28.8111 33.5273 28.2815 33.6617C27.6326 33.8414 26.9624 33.9325 26.2891 33.9325L26.2325 33.9315ZM23.0082 21.803C22.0956 22.8683 21.6248 24.2422 21.6922 25.6433C21.6338 27.0496 22.1161 28.4248 23.0402 29.4865C23.9515 30.4881 25.2597 31.0346 26.6127 30.9788C28.0015 31.0485 29.3555 30.5301 30.3427 29.5506C31.3074 28.4855 31.8045 27.078 31.7228 25.6433C31.7865 24.2224 31.2707 22.8365 30.2936 21.803C29.3151 20.8171 27.9676 20.2873 26.5797 20.3427C25.2314 20.2786 23.924 20.8142 23.0082 21.8058V21.803ZM110.493 33.6796V23.6802C110.493 22.008 109.879 21.1719 108.65 21.1719C107.126 21.1719 106.364 22.2831 106.364 24.5056V33.6834H101.538V23.684C101.538 22.0117 100.924 21.1756 99.6975 21.1756C98.1728 21.1756 97.4109 22.2869 97.4115 24.5094V33.6872H92.5854V17.3674H97.4115V19.4946C97.4549 19.4304 97.5059 19.3474 97.5729 19.2399C97.7122 19.0402 97.8661 18.851 98.0332 18.6739C98.2739 18.401 98.5452 18.1566 98.8417 17.9456C99.2125 17.6967 99.6175 17.5035 100.044 17.3721C100.566 17.2001 101.113 17.115 101.663 17.1202C102.212 17.1133 102.76 17.1939 103.284 17.3589C103.7 17.4829 104.092 17.6769 104.443 17.9324C104.7 18.1281 104.94 18.3459 105.159 18.5833C105.32 18.7557 105.458 18.9474 105.572 19.154L105.666 19.3757C105.707 19.3116 105.765 19.2342 105.841 19.1352C106.005 18.946 106.18 18.7662 106.364 18.5965C106.637 18.3347 106.934 18.1006 107.253 17.8975C107.65 17.6612 108.078 17.4799 108.524 17.3589C109.059 17.197 109.615 17.1157 110.174 17.1174C113.604 17.1174 115.319 19.0968 115.319 23.0557V33.6947L110.493 33.6796ZM75.0383 33.6796V17.6428H78.4683V20.5323C78.5037 20.4115 78.5511 20.2946 78.6098 20.1832C78.7638 19.909 78.9339 19.6441 79.1192 19.3899C79.3699 19.0244 79.6681 18.6938 80.0059 18.4069C80.4232 18.0843 80.8903 17.8319 81.3889 17.6598C81.9978 17.4361 82.6474 17.3447 83.2944 17.3919L83.0114 21.1068C81.8 20.9113 80.5668 21.2931 79.6776 22.1388C78.837 23.0449 78.4026 24.2548 78.4749 25.4886V33.6806L75.0383 33.6796Z" fill="#2A2C3B"/>
</g>
<defs>
<clipPath id="clip0_15842_15496">
<rect width="152" height="41" fill="white"/>
</clipPath>
</defs>
</svg>
