<svg width="152" height="41" viewBox="0 0 152 41" fill="none" xmlns="http://www.w3.org/2000/svg">
<path d="M143.2 27.2337H151.824C151.839 26.8809 151.851 26.5262 151.851 26.1697C151.834 11.7525 140.159 0.0650821 125.742 0.0333862V8.648C135.408 8.66257 143.236 16.5035 143.234 26.1697C143.236 26.5234 143.222 26.8809 143.2 27.2337Z" fill="#A7BF30"/>
<path d="M43.9009 40.3094C43.1981 40.1545 42.5121 39.9311 41.8529 39.6425C41.3506 39.4125 40.8629 39.152 40.3926 38.8624C40.0561 38.6614 39.7371 38.4326 39.4388 38.1784L39.1558 37.8954L40.8708 35.355L41.1095 35.5965C41.3211 35.784 41.5438 35.9585 41.7764 36.1191C42.1286 36.376 42.5005 36.6046 42.8886 36.803C43.9462 37.3043 45.1002 37.5696 46.2705 37.5803C47.6282 37.706 48.9804 37.29 50.0326 36.4229C50.8572 35.5096 51.2759 34.3007 51.1929 33.0731V31.709C51.1317 31.7954 51.0672 31.8794 50.9995 31.9609C50.8123 32.1701 50.6109 32.3662 50.3967 32.5476C50.0808 32.8336 49.7347 33.0844 49.3647 33.2957C48.8826 33.5483 48.3704 33.7385 47.8403 33.8617C47.17 34.035 46.4798 34.1196 45.7875 34.1136C43.6758 34.1948 41.6169 33.4419 40.0558 32.0175C38.4881 30.4273 37.674 28.2433 37.8182 26.015C37.7284 23.8097 38.5559 21.6658 40.1039 20.0927C41.5857 18.5962 43.618 17.7754 45.7234 17.823C46.7791 17.8061 47.827 18.0058 48.8025 18.4097C49.5 18.6631 50.1376 19.0582 50.675 19.57L51.1844 20.1361V18.073H54.6201V32.4901C54.6201 37.8873 51.8885 40.5858 46.4252 40.5858H46.3913C45.5534 40.5879 44.7179 40.4952 43.9009 40.3094ZM42.5632 22.2237C41.6581 23.2635 41.187 24.6113 41.2472 25.9886C41.1912 27.3607 41.6752 28.7001 42.5953 29.7195C43.5222 30.6933 44.8244 31.2197 46.1677 31.1637C47.5487 31.226 48.8938 30.7138 49.8835 29.7487C50.841 28.7366 51.3451 27.3783 51.2797 25.9867C51.3362 24.5894 50.82 23.2296 49.8505 22.2218C48.8657 21.246 47.52 20.723 46.1347 20.7775C44.7896 20.7151 43.4845 21.2445 42.5632 22.2265V22.2237ZM0.915527 40.2415V18.073H4.34552V20.2011C4.38892 20.137 4.45778 20.0483 4.55212 19.9304C4.7479 19.7175 4.96018 19.5203 5.18699 19.3408C5.52099 19.0603 5.8833 18.8152 6.26806 18.6097C6.77403 18.3577 7.30611 18.1619 7.85476 18.0258C8.53144 17.8437 9.22937 17.7527 9.93012 17.7551C12.0366 17.6814 14.075 18.5078 15.5355 20.0276C17.0284 21.6529 17.8117 23.8065 17.7118 26.0112C17.8409 28.2647 17.0563 30.4751 15.5355 32.1429C14.0194 33.6523 11.941 34.4586 9.80371 34.3664C9.1185 34.3703 8.43571 34.2847 7.77269 34.1117C7.22721 33.98 6.70316 33.7717 6.21617 33.4928C5.85294 33.2756 5.50325 33.0365 5.16906 32.7769C4.93262 32.6038 4.71927 32.4012 4.53419 32.1741L4.34552 31.9194V40.2396L0.915527 40.2415ZM5.64828 22.2039C4.69182 23.2618 4.18938 24.6532 4.2493 26.0782C4.16988 27.5151 4.67439 28.9231 5.64828 29.9827C6.65118 30.9655 8.01925 31.4843 9.42165 31.4137C10.758 31.4743 12.051 30.9325 12.945 29.9374C13.8427 28.8696 14.3076 27.504 14.2478 26.1102C14.3069 24.6888 13.8241 23.298 12.8969 22.219C11.9897 21.2114 10.6821 20.6585 9.32732 20.7096C7.94201 20.6565 6.60111 21.2035 5.64828 22.2105V22.2039ZM126.491 34.4673C123.591 34.4673 121.353 33.7098 119.776 32.1948C118.142 30.5426 117.282 28.2768 117.409 25.9565C117.324 23.6708 118.2 21.4539 119.824 19.8436C121.451 18.2581 123.653 17.4038 125.924 17.4777C128.275 17.3512 130.565 18.2552 132.196 19.954C133.796 21.8546 134.608 24.2957 134.466 26.7762V27.6017H122.458C122.461 27.7105 122.477 27.8186 122.507 27.9233C122.584 28.1554 122.686 28.3789 122.809 28.5903C122.978 28.9088 123.197 29.1982 123.458 29.4478C123.81 29.7532 124.22 29.9857 124.663 30.1317C125.269 30.3431 125.908 30.4447 126.55 30.4317C127.347 30.435 128.136 30.2784 128.871 29.9713C129.46 29.754 130.007 29.4375 130.489 29.0356L130.961 28.5592L133.568 31.6052C133.505 31.6882 133.414 31.7939 133.299 31.9241C133.042 32.1731 132.766 32.4015 132.473 32.607C132.033 32.9386 131.565 33.2309 131.074 33.4806C130.442 33.7831 129.777 34.0122 129.093 34.1636C128.252 34.3648 127.39 34.4665 126.525 34.4664L126.491 34.4673ZM124.393 21.7624C124.004 21.9132 123.656 22.1526 123.377 22.4614C123.158 22.7161 122.966 22.9927 122.804 23.2868C122.677 23.5026 122.592 23.7399 122.551 23.9868L122.487 24.2698H129.38C129.359 24.1915 129.339 24.0811 129.319 23.9698C129.252 23.7385 129.161 23.5147 129.048 23.3019C128.897 22.9878 128.699 22.6986 128.461 22.4444C128.166 22.161 127.821 21.9348 127.443 21.7775C126.963 21.5687 126.443 21.4663 125.919 21.4775H125.841C125.344 21.4783 124.853 21.576 124.394 21.7652L124.393 21.7624ZM85.3853 33.6259C84.8367 33.0926 84.5274 32.3599 84.5278 31.5948C84.5271 30.8289 84.8365 30.0953 85.3853 29.561C85.945 29.0158 86.7003 28.7184 87.4814 28.7356C88.2629 28.7198 89.0182 29.017 89.5794 29.561C90.1268 30.096 90.435 30.8294 90.4341 31.5948C90.4343 32.3593 90.1262 33.0916 89.5794 33.6259C89.0105 34.1572 88.2608 34.4523 87.4824 34.4513C86.7047 34.4527 85.9554 34.1587 85.3863 33.6287L85.3853 33.6259ZM64.4242 34.3975C62.3071 34.4772 60.2451 33.7119 58.6925 32.2703C57.1193 30.6456 56.3074 28.4309 56.4577 26.1744C56.3578 23.9348 57.1845 21.7528 58.7434 20.1417C60.2205 18.6363 62.2544 17.809 64.3629 17.856C65.4186 17.8391 66.4665 18.0388 67.442 18.4428C68.1389 18.6968 68.7765 19.0907 69.3155 19.6002L69.8239 20.1738V18.1399H73.252V34.1466H69.8211V31.9543C69.7786 32.0184 69.7173 32.1071 69.6324 32.2222C69.4496 32.4367 69.2475 32.634 69.0287 32.8118C68.7095 33.0882 68.3638 33.3324 67.9967 33.541C67.5138 33.7968 67.002 33.9938 66.4722 34.1277C65.8237 34.3075 65.1538 34.3985 64.4808 34.3985L64.4242 34.3975ZM61.2027 22.269C60.2897 23.3343 59.8174 24.7077 59.882 26.1093C59.8245 27.5159 60.3079 28.8912 61.2329 29.9525C62.1446 30.9535 63.4525 31.4999 64.8053 31.4448C66.1943 31.5152 67.5486 30.9967 68.5353 30.0166C69.4999 28.9513 69.998 27.5442 69.9183 26.1093C69.9809 24.6882 69.4646 23.3025 68.4872 22.269C67.5085 21.2834 66.1612 20.7536 64.7733 20.8087C63.4257 20.7453 62.1191 21.2809 61.2037 22.2718L61.2027 22.269ZM27.148 34.3975C25.0312 34.4785 22.9693 33.713 21.4182 32.2703C19.8447 30.6455 19.0312 28.4314 19.1787 26.1744C19.0788 23.9348 19.9055 21.7528 21.4644 20.1417C22.9419 18.637 24.9755 17.8098 27.0839 17.856C28.1405 17.8389 29.1894 18.0386 30.1658 18.4428C30.8618 18.6979 31.4989 19.0917 32.0383 19.6002L32.5449 20.1738V18.1399H35.9749V34.1466H32.5449V31.9543C32.4839 32.0449 32.421 32.1342 32.3562 32.2222C32.1736 32.4366 31.9719 32.634 31.7534 32.8118C31.4343 33.0882 31.0886 33.3324 30.7214 33.541C30.2383 33.7963 29.7266 33.9933 29.197 34.1277C28.5481 34.3074 27.8779 34.3985 27.2046 34.3985L27.148 34.3975ZM23.9237 22.269C23.0111 23.3343 22.5403 24.7082 22.6077 26.1093C22.5493 27.5156 23.0316 28.8908 23.9557 29.9525C24.867 30.9541 26.1752 31.5006 27.5282 31.4448C28.917 31.5145 30.271 30.9961 31.2582 30.0166C32.2229 28.9515 32.72 27.544 32.6383 26.1093C32.702 24.6884 32.1862 23.3025 31.2091 22.269C30.2306 21.2831 28.8831 20.7533 27.4952 20.8087C26.1469 20.7446 24.8395 21.2802 23.9237 22.2718V22.269ZM111.409 34.1456V24.1462C111.409 22.474 110.795 21.6379 109.566 21.6379C108.042 21.6379 107.28 22.7491 107.28 24.9716V34.1494H102.454V24.15C102.454 22.4777 101.84 21.6416 100.613 21.6416C99.0883 21.6416 98.3264 22.7529 98.327 24.9754V34.1532H93.5009V17.8334H98.327V19.9606C98.3704 19.8964 98.4214 19.8134 98.4884 19.7059C98.6277 19.5062 98.7816 19.317 98.9487 19.1399C99.1894 18.867 99.4607 18.6226 99.7572 18.4116C100.128 18.1627 100.533 17.9695 100.96 17.8381C101.482 17.6661 102.029 17.581 102.579 17.5862C103.128 17.5793 103.676 17.6599 104.2 17.8249C104.616 17.9489 105.008 18.1429 105.359 18.3984C105.616 18.5941 105.856 18.8119 106.075 19.0493C106.236 19.2217 106.374 19.4134 106.488 19.62L106.582 19.8417C106.623 19.7776 106.681 19.7002 106.757 19.6012C106.921 19.412 107.096 19.2322 107.28 19.0625C107.553 18.8007 107.85 18.5666 108.169 18.3635C108.566 18.1272 108.994 17.9459 109.44 17.8249C109.975 17.663 110.531 17.5817 111.09 17.5834C114.52 17.5834 116.235 19.5628 116.235 23.5217V34.1607L111.409 34.1456ZM75.9538 34.1456V18.1088H79.3838V20.9983C79.4192 20.8775 79.4666 20.7606 79.5253 20.6492C79.6793 20.375 79.8494 20.1101 80.0347 19.8559C80.2854 19.4904 80.5836 19.1598 80.9214 18.8729C81.3387 18.5503 81.8058 18.2979 82.3044 18.1258C82.9133 17.9021 83.5629 17.8107 84.2099 17.8579L83.9269 21.5728C82.7155 21.3773 81.4823 21.7591 80.5931 22.6048C79.7525 23.5109 79.3181 24.7208 79.3904 25.9546V34.1466L75.9538 34.1456Z" fill="#2A2C3B"/>
</svg>
