<svg width="160" height="61" viewBox="0 0 160 61" fill="none" xmlns="http://www.w3.org/2000/svg">
<path d="M150.83 28.834H159.972C159.987 28.46 160 28.084 160 27.706C159.992 20.3655 157.074 13.3277 151.886 8.13448C146.698 2.94126 139.663 0.0161379 132.323 0V9.132C137.244 9.13942 141.961 11.0997 145.438 14.5823C148.914 18.0649 150.867 22.785 150.866 27.706C150.868 28.081 150.853 28.46 150.83 28.834Z" fill="#65A300"/>
<path d="M45.5674 42.6954C44.8224 42.5311 44.0953 42.2943 43.3965 41.9883C42.8641 41.7446 42.3463 41.4683 41.8477 41.1612C41.491 40.9482 41.1531 40.7055 40.8369 40.4361L40.5371 40.1363L42.3555 37.4434L42.6084 37.6993C42.8327 37.898 43.0688 38.0827 43.3154 38.253C43.6888 38.5253 44.0827 38.7678 44.4941 38.9781C45.6152 39.5095 46.8385 39.7909 48.0791 39.8023C49.5183 39.9355 50.952 39.4944 52.0674 38.5753C52.5 38.0961 52.8317 37.5349 53.043 36.9249C53.2543 36.3148 53.3404 35.6681 53.2969 35.024V33.5782C53.232 33.6698 53.1635 33.759 53.0918 33.8453C52.8934 34.0671 52.6802 34.275 52.4531 34.4674C52.1182 34.7705 51.7516 35.0363 51.3594 35.2603C50.8483 35.5281 50.3051 35.7298 49.7432 35.8604C49.0326 36.0441 48.3013 36.1335 47.5674 36.127C45.3288 36.2132 43.1461 35.4153 41.4912 33.9053C40.6696 33.0719 40.0328 32.0742 39.624 30.9776C39.2152 29.881 39.0436 28.71 39.1191 27.5421C39.0721 26.3855 39.2629 25.2318 39.6797 24.1519C40.0965 23.0721 40.7301 22.0893 41.542 21.2642C42.3192 20.4793 43.2482 19.861 44.2725 19.4473C45.2967 19.0337 46.3947 18.833 47.499 18.858C48.6181 18.8401 49.7286 19.0519 50.7627 19.4801C51.5022 19.7487 52.1784 20.1674 52.748 20.71L53.2881 21.3101V19.1231H56.9297V34.4063C56.9297 40.1277 54.0345 42.9883 48.2432 42.9883H48.207C47.3188 42.9906 46.4335 42.8923 45.5674 42.6954ZM44.1494 23.523C43.19 24.6253 42.6901 26.0543 42.7539 27.5142C42.6945 28.9687 43.2072 30.3887 44.1826 31.4693C44.6683 31.9796 45.258 32.3801 45.9111 32.6441C46.5643 32.9082 47.2659 33.0294 47.9697 33.0001C48.694 33.0327 49.4172 32.9168 50.0947 32.6588C50.7722 32.4008 51.3901 32.0062 51.9092 31.5001C52.4115 30.9691 52.8014 30.3426 53.0557 29.6573C53.31 28.972 53.423 28.2424 53.3887 27.5123C53.4183 26.7793 53.2994 26.0477 53.0391 25.3619C52.7787 24.676 52.3826 24.0498 51.874 23.5211C51.3576 23.0094 50.7411 22.6096 50.0635 22.3463C49.3858 22.0829 48.661 21.9617 47.9346 21.9903C47.23 21.9576 46.5276 22.0777 45.874 22.3428C45.2204 22.608 44.632 23.0116 44.1494 23.5259V23.523ZM0 42.6231V19.1231H3.63574V21.379C3.68174 21.311 3.75547 21.2174 3.85547 21.0924C4.06301 20.8666 4.2879 20.6577 4.52832 20.4674C4.88238 20.1699 5.26596 19.9098 5.67383 19.692C6.21019 19.4248 6.77485 19.2176 7.35645 19.0733C8.07377 18.8803 8.81284 18.7837 9.55566 18.7862C10.6598 18.7476 11.7603 18.9424 12.7842 19.3575C13.808 19.7726 14.7325 20.3988 15.498 21.1954C16.2816 22.0484 16.8892 23.0477 17.2852 24.1363C17.6811 25.2249 17.8572 26.381 17.8047 27.5382C17.8724 28.7206 17.7038 29.9049 17.3076 31.0211C16.9115 32.1373 16.2961 33.163 15.498 34.0382C14.7031 34.8296 13.7528 35.4479 12.707 35.8536C11.6612 36.2593 10.5425 36.4434 9.42188 36.3951C8.69551 36.3993 7.9714 36.3085 7.26855 36.1251C6.69031 35.9855 6.13537 35.7649 5.61914 35.4693C5.23409 35.2391 4.86305 34.9853 4.50879 34.71C4.25815 34.5266 4.03213 34.3122 3.83594 34.0714L3.63574 33.8013V42.6212L0 42.6231ZM5.0166 23.502C4.00269 24.6235 3.47066 26.0984 3.53418 27.609C3.49251 28.3629 3.60174 29.1178 3.85645 29.8287C4.11115 30.5396 4.50559 31.1922 5.0166 31.7481C5.54247 32.2634 6.16997 32.6643 6.8584 32.9254C7.54683 33.1865 8.28126 33.3022 9.0166 33.2652C9.71617 33.2969 10.4147 33.173 11.0605 32.9024C11.7064 32.6318 12.2839 32.2212 12.752 31.7003C13.7036 30.5683 14.1962 29.1206 14.1328 27.6431C14.1955 26.1363 13.684 24.662 12.7012 23.5181C12.2261 22.9905 11.6412 22.5739 10.9873 22.2974C10.3334 22.021 9.62642 21.8913 8.91699 21.918C8.19112 21.8902 7.46752 22.0177 6.79492 22.2921C6.12233 22.5664 5.51587 22.9817 5.0166 23.5093V23.502ZM133.117 36.502C130.044 36.502 127.671 35.6993 125.999 34.0933C125.142 33.2272 124.477 32.1913 124.045 31.0523C123.613 29.9134 123.424 28.6964 123.49 27.4801C123.446 26.2816 123.65 25.0871 124.091 23.9718C124.531 22.8564 125.198 21.8444 126.05 21.0001C126.903 20.1683 127.916 19.5175 129.027 19.0865C130.138 18.6555 131.325 18.4535 132.516 18.4923C133.747 18.426 134.98 18.6262 136.127 19.0792C137.274 19.5322 138.311 20.2273 139.165 21.1173C140.862 23.132 141.723 25.7197 141.571 28.3492V29.2242H128.842C128.845 29.3396 128.862 29.454 128.894 29.565C128.976 29.811 129.083 30.0479 129.214 30.272C129.393 30.6097 129.626 30.9167 129.902 31.1812C130.276 31.505 130.71 31.7515 131.18 31.9063C131.822 32.1304 132.499 32.2379 133.18 32.2242C134.024 32.2277 134.861 32.0619 135.64 31.7364C136.264 31.506 136.845 31.1703 137.356 30.7442L137.856 30.2393L140.62 33.4683C140.553 33.5563 140.456 33.6682 140.334 33.8062C140.062 34.0702 139.769 34.3124 139.459 34.5303C138.993 34.8818 138.496 35.1914 137.976 35.4561C137.306 35.7768 136.601 36.0198 135.876 36.1802C134.984 36.3936 134.07 36.5011 133.153 36.501L133.117 36.502ZM130.893 23.0343C130.481 23.1942 130.113 23.4476 129.816 23.775C129.585 24.045 129.381 24.3382 129.209 24.65C129.075 24.8787 128.984 25.1304 128.941 25.3922L128.873 25.692H136.18C136.158 25.609 136.137 25.4921 136.115 25.3741C136.044 25.1289 135.948 24.8917 135.828 24.6661C135.668 24.3331 135.459 24.0268 135.206 23.7574C134.893 23.4569 134.527 23.2171 134.127 23.0504C133.618 22.829 133.066 22.7202 132.511 22.732H132.428C131.901 22.7328 131.38 22.8366 130.894 23.0372L130.893 23.0343ZM89.543 35.6104C89.2551 35.3306 89.0263 34.9959 88.8701 34.626C88.714 34.2562 88.6336 33.8585 88.6338 33.4571C88.6334 33.0552 88.714 32.6575 88.8701 32.2872C89.0263 31.9169 89.255 31.5817 89.543 31.3013C89.8367 31.0152 90.1849 30.7904 90.5664 30.6402C90.9479 30.49 91.3547 30.4173 91.7646 30.4263C92.1748 30.4181 92.5831 30.491 92.9648 30.6412C93.3466 30.7914 93.6947 31.0158 93.9893 31.3013C94.2765 31.5821 94.5046 31.9174 94.6602 32.2877C94.8158 32.6579 94.895 33.0555 94.8945 33.4571C94.8947 33.8582 94.8148 34.2553 94.6592 34.6251C94.5036 34.9948 94.2762 35.3301 93.9893 35.6104C93.3862 36.1736 92.5908 36.4865 91.7656 36.4854C90.9412 36.4869 90.1473 36.1752 89.5439 35.6133L89.543 35.6104ZM67.3232 36.4283C66.212 36.4701 65.1031 36.2923 64.0605 35.9053C63.018 35.5184 62.062 34.9301 61.2471 34.1734C60.4224 33.3218 59.785 32.3065 59.377 31.1934C58.9689 30.0804 58.7991 28.8939 58.8779 27.711C58.8255 26.5363 59.0131 25.3633 59.4297 24.2637C59.8463 23.1642 60.4831 22.161 61.3008 21.316C62.0754 20.5265 63.0037 19.9041 64.0283 19.4874C65.0529 19.0706 66.152 18.8685 67.2578 18.8931C68.3769 18.8753 69.4884 19.087 70.5225 19.5152C71.2612 19.7845 71.9364 20.2021 72.5078 20.7423L73.0469 21.3502V19.1944H76.6807V36.1622H73.0439V33.838C72.9989 33.906 72.9338 34.0001 72.8438 34.1221C72.6499 34.3496 72.436 34.5588 72.2041 34.7471C71.8658 35.0402 71.4996 35.2991 71.1104 35.5201C70.5985 35.7913 70.0557 36.0002 69.4941 36.1422C68.8067 36.3327 68.0962 36.4294 67.3828 36.4293L67.3232 36.4283ZM63.9082 23.5714C62.9403 24.7007 62.4392 26.1564 62.5078 27.6422C62.4468 29.1333 62.9598 30.5914 63.9404 31.7164C64.4178 32.2406 65.004 32.6535 65.6582 32.9268C66.3125 33.2001 67.0181 33.3273 67.7266 33.2984C68.4547 33.3353 69.1834 33.2193 69.8643 32.9586C70.5451 32.6979 71.1634 32.298 71.6807 31.7843C72.1869 31.2252 72.5775 30.5709 72.8291 29.8599C73.0807 29.1489 73.1893 28.3952 73.1475 27.6422C73.1803 26.8966 73.0624 26.1521 72.8018 25.4527C72.5412 24.7534 72.1427 24.1136 71.6299 23.5714C71.1167 23.0546 70.502 22.6499 69.8242 22.3834C69.1465 22.1169 68.421 21.9942 67.6934 22.023C66.9877 21.9898 66.2826 22.1115 65.6289 22.3795C64.9752 22.6474 64.3886 23.0554 63.9092 23.5743L63.9082 23.5714ZM27.8076 36.4283C26.6966 36.4708 25.5882 36.2933 24.5459 35.9063C23.5036 35.5193 22.5485 34.9307 21.7344 34.1734C20.9095 33.3217 20.2722 32.3064 19.8633 31.1934C19.4544 30.0805 19.2831 28.8942 19.3604 27.711C19.308 26.5363 19.4955 25.3633 19.9121 24.2637C20.3287 23.1642 20.9656 22.161 21.7832 21.316C22.5581 20.5268 23.4862 19.9051 24.5107 19.4884C25.5353 19.0716 26.6345 18.8689 27.7402 18.8931C28.8603 18.875 29.9718 19.0867 31.0068 19.5152C31.7447 19.7857 32.4204 20.2032 32.9922 20.7423L33.5293 21.3502V19.1944H37.165V36.1622H33.5293V33.838C33.4646 33.934 33.3978 34.0289 33.3291 34.1221C33.1355 34.3495 32.922 34.5587 32.6904 34.7471C32.3521 35.0402 31.9849 35.2991 31.5957 35.5201C31.0836 35.7908 30.5419 35.9997 29.9805 36.1422C29.2926 36.3327 28.5819 36.4293 27.8682 36.4293L27.8076 36.4283ZM24.3896 23.5714C23.4222 24.7007 22.9236 26.1569 22.9951 27.6422C22.9332 29.1329 23.4442 30.591 24.4238 31.7164C24.901 32.2409 25.4873 32.654 26.1416 32.9273C26.7959 33.2007 27.5024 33.3276 28.2109 33.2984C28.9391 33.3349 29.6668 33.2188 30.3477 32.9581C31.0285 32.6974 31.6475 32.2977 32.165 31.7843C32.6713 31.2253 33.0613 30.571 33.3125 29.8599C33.5637 29.1489 33.6708 28.3951 33.6279 27.6422C33.6614 26.8967 33.5445 26.1521 33.2842 25.4527C33.0239 24.7533 32.6259 24.1136 32.1133 23.5714C31.6002 23.0545 30.9854 22.6499 30.3076 22.3834C29.6298 22.1169 28.9035 21.994 28.1758 22.023C27.4698 21.9895 26.7654 22.111 26.1113 22.379C25.4573 22.6469 24.8692 23.055 24.3896 23.5743V23.5714ZM117.13 36.1612V25.5611C117.13 23.7884 116.478 22.9024 115.176 22.9024C113.56 22.9024 112.752 24.0801 112.753 26.4361V36.1651H107.637V25.565C107.637 23.7923 106.986 22.9063 105.685 22.9063C104.069 22.9063 103.261 24.084 103.262 26.44V36.169H98.1465V18.8692H103.262V21.1241C103.308 21.0561 103.362 20.9681 103.433 20.8541C103.58 20.6424 103.744 20.4417 103.921 20.254C104.176 19.9647 104.464 19.7057 104.778 19.482C105.171 19.2182 105.6 19.0134 106.053 18.8741C106.606 18.6918 107.186 18.6015 107.769 18.607C108.351 18.5997 108.932 18.6855 109.488 18.8604C109.929 18.9919 110.344 19.1974 110.716 19.4683C110.988 19.6757 111.242 19.9066 111.475 20.1583C111.645 20.341 111.793 20.5442 111.913 20.7633L112.013 20.9981C112.056 20.9301 112.118 20.8482 112.198 20.7432C112.372 20.5427 112.557 20.3518 112.753 20.1719C113.042 19.8944 113.358 19.6465 113.695 19.4312C114.116 19.1807 114.569 18.9888 115.042 18.8604C115.609 18.6889 116.199 18.6023 116.792 18.6041C120.428 18.6041 122.246 20.7023 122.246 24.899V36.1773L117.13 36.1612ZM79.5449 36.1612V19.1612H83.1807V22.2242C83.2182 22.0962 83.2688 21.9721 83.3311 21.8541C83.4944 21.5634 83.6747 21.2827 83.8711 21.0133C84.1369 20.6258 84.4524 20.2754 84.8105 19.9713C85.2529 19.6292 85.7488 19.3617 86.2773 19.1793C86.9228 18.9421 87.611 18.8451 88.2969 18.8951L87.9971 22.8331C87.3635 22.7309 86.7146 22.7766 86.1016 22.9664C85.4885 23.1561 84.9279 23.485 84.4629 23.9273C84.0219 24.4027 83.682 24.9621 83.4629 25.5723C83.2438 26.1826 83.1506 26.8308 83.1885 27.4781V36.1622L79.5449 36.1612Z" fill="#1B1C29"/>
<path d="M109 52C109 47.0294 113.029 43 118 43H133C137.971 43 142 47.0294 142 52C142 56.9706 137.971 61 133 61H118C113.029 61 109 56.9706 109 52Z" fill="#F51478"/>
<path d="M119.536 55C119.477 55 119.427 54.9813 119.384 54.944C119.347 54.9013 119.328 54.8533 119.328 54.8V54.232C119.328 54.1947 119.339 54.1387 119.36 54.064C119.381 53.984 119.437 53.9093 119.528 53.84L120.36 53.024C120.787 52.6987 121.136 52.424 121.408 52.2C121.685 51.9707 121.891 51.768 122.024 51.592C122.157 51.416 122.224 51.2507 122.224 51.096C122.224 50.9147 122.176 50.7653 122.08 50.648C121.989 50.5253 121.829 50.464 121.6 50.464C121.445 50.464 121.317 50.4987 121.216 50.568C121.115 50.632 121.035 50.7173 120.976 50.824C120.923 50.9307 120.885 51.04 120.864 51.152C120.843 51.2213 120.805 51.2693 120.752 51.296C120.704 51.3227 120.651 51.336 120.592 51.336H119.592C119.544 51.336 119.504 51.32 119.472 51.288C119.44 51.256 119.424 51.216 119.424 51.168C119.429 50.912 119.483 50.672 119.584 50.448C119.691 50.2187 119.837 50.0187 120.024 49.848C120.216 49.6773 120.443 49.544 120.704 49.448C120.971 49.3467 121.269 49.296 121.6 49.296C122.053 49.296 122.437 49.3707 122.752 49.52C123.072 49.664 123.315 49.8667 123.48 50.128C123.645 50.384 123.728 50.6853 123.728 51.032C123.728 51.2933 123.669 51.5387 123.552 51.768C123.44 51.992 123.277 52.208 123.064 52.416C122.856 52.6187 122.608 52.8293 122.32 53.048L121.584 53.792H123.64C123.699 53.792 123.747 53.8107 123.784 53.848C123.827 53.8853 123.848 53.9333 123.848 53.992V54.8C123.848 54.8533 123.827 54.9013 123.784 54.944C123.747 54.9813 123.699 55 123.64 55H119.536Z" fill="white"/>
<path d="M124.835 55C124.776 55 124.728 54.9813 124.691 54.944C124.654 54.9013 124.635 54.8533 124.635 54.8V53.784C124.635 53.7253 124.654 53.6773 124.691 53.64C124.728 53.6027 124.776 53.584 124.835 53.584H125.851C125.904 53.584 125.95 53.6027 125.987 53.64C126.03 53.6773 126.051 53.7253 126.051 53.784V54.8C126.051 54.8533 126.03 54.9013 125.987 54.944C125.95 54.9813 125.904 55 125.851 55H124.835Z" fill="white"/>
<path d="M129.134 55.08C128.75 55.08 128.417 55.0267 128.134 54.92C127.857 54.808 127.625 54.656 127.438 54.464C127.251 54.272 127.11 54.048 127.014 53.792C126.918 53.536 126.862 53.2613 126.846 52.968C126.841 52.824 126.835 52.6613 126.83 52.48C126.83 52.2933 126.83 52.1067 126.83 51.92C126.835 51.728 126.841 51.5573 126.846 51.408C126.862 51.1147 126.918 50.8427 127.014 50.592C127.115 50.336 127.259 50.1147 127.446 49.928C127.638 49.736 127.873 49.5867 128.15 49.48C128.433 49.3733 128.761 49.32 129.134 49.32C129.513 49.32 129.841 49.3733 130.118 49.48C130.401 49.5867 130.635 49.736 130.822 49.928C131.009 50.1147 131.153 50.336 131.254 50.592C131.355 50.8427 131.414 51.1147 131.43 51.408C131.435 51.5573 131.438 51.728 131.438 51.92C131.443 52.1067 131.443 52.2933 131.438 52.48C131.438 52.6613 131.435 52.824 131.43 52.968C131.414 53.2613 131.355 53.536 131.254 53.792C131.158 54.048 131.017 54.272 130.83 54.464C130.649 54.656 130.417 54.808 130.134 54.92C129.857 55.0267 129.523 55.08 129.134 55.08ZM129.134 53.92C129.411 53.92 129.611 53.832 129.734 53.656C129.862 53.4747 129.929 53.232 129.934 52.928C129.945 52.7733 129.95 52.6107 129.95 52.44C129.955 52.2693 129.955 52.0987 129.95 51.928C129.95 51.7573 129.945 51.6 129.934 51.456C129.929 51.1627 129.862 50.9253 129.734 50.744C129.611 50.5627 129.411 50.4693 129.134 50.464C128.862 50.4693 128.662 50.5627 128.534 50.744C128.411 50.9253 128.345 51.1627 128.334 51.456C128.334 51.6 128.331 51.7573 128.326 51.928C128.326 52.0987 128.326 52.2693 128.326 52.44C128.331 52.6107 128.334 52.7733 128.334 52.928C128.345 53.232 128.414 53.4747 128.542 53.656C128.67 53.832 128.867 53.92 129.134 53.92Z" fill="white"/>
</svg>
