<?xml version="1.0" encoding="UTF-8"?>
<svg width="180px" height="49px" viewBox="0 0 180 49" version="1.1" xmlns="http://www.w3.org/2000/svg" xmlns:xlink="http://www.w3.org/1999/xlink">
    <!-- Generator: Sketch 53.2 (72643) - https://sketchapp.com -->
    <title>logo_pagarme-7f30803956c8405d6bd8dce37e6ff06f copy</title>
    <desc>Created with Sketch.</desc>
    <g id="Page-1" stroke="none" stroke-width="1" fill="none" fill-rule="evenodd">
        <g id="logo_pagarme-7f30803956c8405d6bd8dce37e6ff06f-copy" fill-rule="nonzero">
            <path d="M169.68375,32.43825 L179.9685,32.43825 C179.985375,32.0175 180,31.5945 180,31.16925 C179.980206,13.9758847 166.05671,0.0377994068 148.863375,0 L148.863375,10.2735 C160.390929,10.2908803 169.726125,19.6416826 169.72425,31.16925 C169.7265,31.591125 169.709625,32.0175 169.68375,32.43825 L169.68375,32.43825 Z" id="hat" fill="#A7BF30"></path>
            <path d="M51.262875,48.031875 C50.4247432,47.8470945 49.6067162,47.5806988 48.8205,47.2365 C48.2215287,46.9622631 47.6399373,46.651555 47.079,46.306125 C46.6777865,46.0664537 46.2973339,45.7936267 45.941625,45.4905 L45.604125,45.153 L47.649375,42.123375 L47.934,42.411375 C48.1863382,42.6349453 48.4519466,42.8430741 48.729375,43.034625 C49.1493851,43.3409245 49.5928834,43.613644 50.05575,43.85025 C51.3169911,44.448075 52.6931822,44.7643878 54.088875,44.77725 C55.7079271,44.927113 57.320586,44.4309414 58.575375,43.396875 C59.5587999,42.3077133 60.0581473,40.8661012 59.959125,39.402 L59.959125,37.77525 C59.8861381,37.8783011 59.809206,37.9785005 59.7285,38.075625 C59.5052845,38.3251603 59.265087,38.5589675 59.009625,38.775375 C58.6328418,39.1163798 58.2201778,39.4155045 57.778875,39.6675 C57.2039627,39.9687101 56.5930554,40.1955321 55.960875,40.3425 C55.1615007,40.5491364 54.3384931,40.6501212 53.512875,40.642875 C50.9944871,40.7397785 48.5391026,39.8418416 46.677375,38.143125 C44.8077942,36.2466971 43.8369003,33.6422292 44.008875,30.98475 C43.9018073,28.354859 44.8886106,25.7980488 46.73475,23.922 C48.5019033,22.1373837 50.9255055,21.1585039 53.436375,21.21525 C54.6953299,21.1951492 55.9450452,21.4332996 57.108375,21.915 C57.9402689,22.2171944 58.7005974,22.6883299 59.3415,23.29875 L59.949,23.97375 L59.949,21.513375 L64.04625,21.513375 L64.04625,38.70675 C64.04625,45.14325 60.788625,48.3615 54.273375,48.3615 L54.232875,48.3615 C53.2336108,48.364006 52.2372721,48.2534275 51.262875,48.031875 L51.262875,48.031875 Z M49.667625,26.463375 C48.5882853,27.7034866 48.0264768,29.3107824 48.09825,30.95325 C48.0314424,32.589572 48.6085839,34.1869091 49.705875,35.402625 C50.8113556,36.5639946 52.3642496,37.1917952 53.96625,37.125 C55.6131451,37.1993032 57.2173064,36.5884268 58.397625,35.4375 C59.5394544,34.2305288 60.1406093,32.6106603 60.062625,30.951 C60.1299729,29.2846671 59.5143881,27.6630176 58.35825,26.461125 C57.1838046,25.2974515 55.5789107,24.6736656 53.926875,24.73875 C52.3227529,24.6642422 50.7664023,25.2956618 49.667625,26.46675 L49.667625,26.463375 Z M0,47.950875 L0,21.513375 L4.0905,21.513375 L4.0905,24.051375 C4.14225,23.974875 4.224375,23.869125 4.336875,23.7285 C4.57036367,23.474576 4.82352433,23.2394714 5.094,23.025375 C5.49232267,22.6907885 5.92440252,22.3985879 6.38325,22.1535 C6.98666122,21.8529333 7.62120051,21.6194138 8.2755,21.457125 C9.08248626,21.239993 9.91481761,21.1314116 10.7505,21.13425 C13.2626714,21.0464046 15.6935009,22.0319092 17.43525,23.844375 C19.2157372,25.7827061 20.1498398,28.350982 20.030625,30.98025 C20.1845886,33.6676634 19.2489911,36.3037204 17.43525,38.29275 C15.6272788,40.0928018 13.1486438,41.0543131 10.59975,40.944375 C9.78259086,40.9490605 8.96832257,40.846946 8.177625,40.640625 C7.52710491,40.4835929 6.90213527,40.2351201 6.321375,39.902625 C5.88818876,39.6435956 5.47116793,39.3584435 5.072625,39.04875 C4.79065139,38.842363 4.53621466,38.6007804 4.3155,38.329875 L4.0905,38.026125 L4.0905,47.948625 L0,47.950875 Z M5.644125,26.43975 C4.50347556,27.7014128 3.90429273,29.3607816 3.97575,31.060125 C3.88103499,32.7737502 4.4826914,34.4529517 5.644125,35.7165 C6.84015274,36.8885602 8.47166571,37.5073115 10.144125,37.423125 C11.7377761,37.4953346 13.2798416,36.8491947 14.346,35.6625 C15.4165746,34.3890342 15.9709159,32.760531 15.899625,31.098375 C15.9701393,29.4032356 15.3943287,27.7445635 14.288625,26.45775 C13.2067506,25.2561725 11.6473372,24.596801 10.031625,24.65775 C8.37955224,24.5943694 6.78043671,25.2467265 5.644125,26.447625 L5.644125,26.43975 Z M149.756625,41.06475 C146.299125,41.06475 143.629875,40.161375 141.748875,38.354625 C139.800198,36.3842504 138.77499,33.6820994 138.92625,30.915 C138.824532,28.1891713 139.869017,25.5453173 141.80625,23.625 C143.74623,21.7341271 146.372892,20.7153106 149.0805,20.8035 C151.884797,20.6525723 154.615728,21.7307337 156.560625,23.756625 C158.469186,26.0232147 159.437707,28.9344125 159.267375,31.892625 L159.267375,32.877 L144.94725,32.877 C144.95064,33.0068173 144.970294,33.1356974 145.00575,33.260625 C145.098292,33.5373408 145.218921,33.8038552 145.36575,34.056 C145.567797,34.435821 145.829073,34.7810233 146.13975,35.078625 C146.560355,35.4428923 147.049034,35.7201163 147.5775,35.89425 C148.30027,36.1463033 149.062197,36.2674495 149.8275,36.252 C150.777432,36.2559242 151.718499,36.069241 152.595,35.703 C153.297436,35.4438178 153.950354,35.0663733 154.5255,34.587 L155.088,34.018875 L158.1975,37.6515 C158.122125,37.7505 158.013,37.8765 157.87575,38.03175 C157.569605,38.3287698 157.240454,38.6011185 156.891375,38.84625 C156.366806,39.2416523 155.808538,39.5902404 155.223,39.888 C154.46916,40.2487587 153.6765,40.5220376 152.8605,40.7025 C151.857058,40.9425211 150.828874,41.0637281 149.797125,41.063625 L149.756625,41.06475 Z M147.254625,25.91325 C146.79144,26.0931617 146.376582,26.3785927 146.043,26.746875 C145.78218,27.050683 145.553348,27.3805488 145.360125,27.73125 C145.209092,27.9885659 145.106878,28.2715615 145.058625,28.566 L144.982125,28.9035 L153.2025,28.9035 C153.17775,28.810125 153.154125,28.6785 153.129375,28.54575 C153.049235,28.2699199 152.941045,28.0030264 152.8065,27.74925 C152.6269,27.3746069 152.390907,27.029723 152.10675,26.726625 C151.754901,26.3885796 151.343286,26.1188745 150.892875,25.93125 C150.319786,25.6822241 149.699589,25.5601805 149.074875,25.5735 L148.9815,25.5735 C148.389397,25.574428 147.803174,25.6909846 147.25575,25.916625 L147.254625,25.91325 Z M100.735875,40.06125 C100.081609,39.4252977 99.7127068,38.5515387 99.71325,37.639125 C99.7124372,36.7256702 100.08131,35.8507634 100.735875,35.213625 C101.403327,34.5634385 102.304059,34.2087399 103.235625,34.22925 C104.167558,34.2104091 105.068368,34.5648192 105.737625,35.213625 C106.390409,35.8516972 106.757934,36.7262934 106.756875,37.639125 C106.757152,38.5508117 106.389678,39.4240692 105.737625,40.06125 C105.059143,40.6948798 104.165095,41.0467881 103.23675,41.045625 C102.309275,41.0473057 101.415779,40.6966629 100.737,40.064625 L100.735875,40.06125 Z M75.738375,40.9815 C73.2135005,41.0764963 70.7544311,40.1638561 68.902875,38.444625 C67.0267246,36.50711 66.0584541,33.8659264 66.23775,31.174875 C66.1186477,28.5039804 67.1045549,25.9018853 68.963625,23.9805 C70.7251042,22.18523 73.1507591,21.1985988 75.66525,21.254625 C76.9242049,21.2345242 78.1739202,21.4726746 79.33725,21.954375 C80.1683566,22.2572901 80.9286983,22.727048 81.5715,23.33475 L82.177875,24.01875 L82.177875,21.59325 L86.266125,21.59325 L86.266125,40.68225 L82.1745,40.68225 L82.1745,38.06775 C82.123875,38.14425 82.05075,38.25 81.9495,38.38725 C81.7314407,38.643088 81.4904367,38.8784435 81.2295,39.090375 C80.8488708,39.4200498 80.4366211,39.7113377 79.99875,39.96 C79.422894,40.2650696 78.8125382,40.4999962 78.18075,40.65975 C77.4073346,40.8741111 76.6084472,40.9827234 75.805875,40.982625 L75.738375,40.9815 Z M71.8965,26.517375 C70.807644,27.7878501 70.2443618,29.4257944 70.3215,31.09725 C70.252842,32.7747703 70.8293336,34.4148728 71.9325,35.6805 C73.0197296,36.8743427 74.5794887,37.5259241 76.192875,37.46025 C77.8493112,37.5441846 79.4643568,36.9257782 80.641125,35.757 C81.7914928,34.48656 82.3854223,32.8084863 82.290375,31.09725 C82.3651168,29.402515 81.749305,27.7499311 80.58375,26.517375 C79.4165486,25.3420091 77.8097794,24.7102391 76.154625,24.775875 C74.5475796,24.700319 72.9893295,25.3390204 71.897625,26.52075 L71.8965,26.517375 Z M31.284,40.9815 C28.7595348,41.0781398 26.3005541,40.1652321 24.45075,38.444625 C22.5742589,36.5069944 21.6041896,33.8664772 21.78,31.174875 C21.6608977,28.5039804 22.6468049,25.9018853 24.505875,23.9805 C26.2678892,22.1860281 28.6931831,21.1995438 31.2075,21.254625 C32.4675771,21.2341894 33.718462,21.4723438 34.882875,21.954375 C35.7129871,22.2586506 36.4726997,22.7282564 37.116,23.33475 L37.720125,24.01875 L37.720125,21.59325 L41.810625,21.59325 L41.810625,40.68225 L37.720125,40.68225 L37.720125,38.06775 C37.647393,38.1758292 37.5723761,38.2823532 37.495125,38.38725 C37.2773669,38.6429855 37.036746,38.8783347 36.77625,39.090375 C36.3956208,39.4200498 35.9833711,39.7113377 35.5455,39.96 C34.9694077,40.2645506 34.3591155,40.4994527 33.7275,40.65975 C32.9536937,40.8740761 32.1544395,40.9826868 31.3515,40.982625 L31.284,40.9815 Z M27.43875,26.517375 C26.3504133,27.7878307 25.7889623,29.4263017 25.869375,31.09725 C25.7996729,32.774333 26.3749518,34.4144212 27.477,35.6805 C28.5637713,36.8749928 30.1238483,37.526707 31.737375,37.46025 C33.3936765,37.5433374 35.0083911,36.9250577 36.185625,35.757 C37.3360931,34.4868125 37.9289872,32.8082291 37.8315,31.09725 C37.9074955,29.4027357 37.2924204,27.7499498 36.127125,26.517375 C34.9601572,25.3416539 33.3532253,24.7098198 31.698,24.775875 C30.0901554,24.6994878 28.5308789,25.3382722 27.43875,26.52075 L27.43875,26.517375 Z M131.77125,40.681125 L131.77125,28.756125 C131.77125,26.761875 131.0385,25.76475 129.573,25.76475 C127.755,25.76475 126.846375,27.09 126.847125,29.7405 L126.847125,40.685625 L121.091625,40.685625 L121.091625,28.760625 C121.091625,26.766375 120.359625,25.76925 118.895625,25.76925 C117.077625,25.76925 116.169,27.0945 116.16975,29.745 L116.16975,40.690125 L110.41425,40.690125 L110.41425,21.227625 L116.16975,21.227625 L116.16975,23.7645 C116.2215,23.688 116.28225,23.589 116.362125,23.46075 C116.528284,23.2225609 116.711782,22.9969491 116.911125,22.78575 C117.198162,22.4602662 117.52166,22.1688537 117.87525,21.91725 C118.317401,21.6204161 118.800658,21.3899685 119.309625,21.23325 C119.932362,21.0281996 120.584527,20.9267265 121.240125,20.932875 C121.895759,20.924685 122.548528,21.0207586 123.174,21.2175 C123.669992,21.3654179 124.137171,21.5967246 124.5555,21.9015 C124.862246,22.1348204 125.147963,22.3945632 125.409375,22.67775 C125.601156,22.8833616 125.766671,23.1119846 125.902125,23.358375 L126.014625,23.62275 C126.063,23.54625 126.13275,23.454 126.22275,23.335875 C126.418724,23.1102657 126.627175,22.8958051 126.847125,22.6935 C127.171942,22.3812675 127.52693,22.1020253 127.906875,21.859875 C128.38052,21.5779976 128.890323,21.3618897 129.42225,21.2175 C130.060612,21.0245143 130.724107,20.9274544 131.391,20.9295 C135.4815,20.9295 137.52675,23.290125 137.52675,28.011375 L137.52675,40.699125 L131.77125,40.681125 Z M89.488125,40.681125 L89.488125,21.556125 L93.578625,21.556125 L93.578625,25.002 C93.6208506,24.8579688 93.6773822,24.7185242 93.747375,24.58575 C93.9310845,24.2586976 94.1339372,23.9427733 94.354875,23.639625 C94.6538564,23.2037284 95.009473,22.8095236 95.412375,22.467375 C95.9099726,22.0826004 96.4670493,21.7816421 97.061625,21.576375 C97.7878089,21.3095765 98.5625268,21.2006557 99.334125,21.256875 L98.996625,25.687125 C97.5518954,25.4540115 96.0812165,25.9092811 95.020875,26.917875 C94.0184173,27.9984445 93.5003503,29.4413119 93.5865,30.91275 L93.5865,40.68225 L89.488125,40.681125 Z" id="pagarme" fill="#2A2C3B"></path>
        </g>
    </g>
</svg>