<?xml version="1.0" encoding="UTF-8"?>
<svg width="865px" height="158px" viewBox="0 0 865 158" version="1.1" xmlns="http://www.w3.org/2000/svg" xmlns:xlink="http://www.w3.org/1999/xlink">
    <title>logo PB Novo</title>
    <defs>
        <linearGradient x1="31.7331691%" y1="78.7237326%" x2="80.9577584%" y2="27.0992268%" id="linearGradient-1">
            <stop stop-color="#54CA2F" offset="0%"></stop>
            <stop stop-color="#319A11" offset="100%"></stop>
        </linearGradient>
        <linearGradient x1="59.8243487%" y1="25.3452995%" x2="22.7927769%" y2="76.5897091%" id="linearGradient-2">
            <stop stop-color="#007CC3" offset="0%"></stop>
            <stop stop-color="#004690" offset="100%"></stop>
        </linearGradient>
        <linearGradient x1="51.1512145%" y1="87.6566319%" x2="47.5903405%" y2="4.16313403%" id="linearGradient-3">
            <stop stop-color="#0058B5" offset="0%"></stop>
            <stop stop-color="#0090DB" offset="100%"></stop>
        </linearGradient>
        <linearGradient x1="49.5802189%" y1="13.7921736%" x2="50.9045354%" y2="94.8136201%" id="linearGradient-4">
            <stop stop-color="#54CA30" offset="0%"></stop>
            <stop stop-color="#8CE65D" offset="100%"></stop>
        </linearGradient>
    </defs>
    <g id="logo-PB-Novo" stroke="none" stroke-width="1" fill="none" fill-rule="evenodd">
        <g id="Logo" transform="translate(3.000000, 2.000000)">
            <path d="M84.9834197,111.665268 C75.3691057,121.279582 75.3691057,136.865135 84.9880606,146.482543 C94.6008276,156.096857 110.189475,156.098404 119.803789,146.485637 L142.999278,123.162108 L142.782705,115.789329 C142.312431,99.4117356 132.68033,87.2842564 121.447903,75.4098438 L84.9834197,111.665268 Z" id="Fill-1" fill="url(#linearGradient-1)"></path>
            <path d="M30.0638475,27.2732276 L30.0638475,34.7171663 C30.5341213,51.0885718 36.6895126,67.2411052 47.9219396,79.1155178 L84.9880606,42.0307178 C94.6008276,32.4179508 94.5977337,16.8277567 84.9818728,7.21034876 C80.1739423,2.40396524 73.874749,0 67.5740087,0 C61.2748153,0 54.974075,2.40396524 50.1676915,7.21034876 L30.0638475,27.2732276 Z" id="Fill-4" fill="url(#linearGradient-2)"></path>
            <path d="M13.7647894,43.6147979 C4.63157781,52.7464625 0.0433146889,64.7028636 -1.42108547e-14,76.6731873 L-1.42108547e-14,76.6731873 L-1.42108547e-14,77.0166109 C0.0433146889,88.9869345 4.63157781,100.944883 13.7647894,110.078094 L13.7647894,110.078094 L50.1676915,146.479449 C59.7804586,156.093763 75.3721996,156.098404 84.9880606,146.485637 L84.9880606,146.485637 C94.6008276,136.871323 94.5961868,121.279582 84.9803258,111.665268 L84.9803258,111.665268 L51.4810548,78.1659971 C39.4534938,66.1399831 32.4875637,49.9665876 31.9987265,32.9702131 L31.9987265,32.9702131 L31.7883408,25.5896995 L13.7647894,43.6147979 Z" id="Fill-7" fill="url(#linearGradient-3)"></path>
            <path d="M84.9834197,7.2088018 C75.3691057,16.8246628 75.3721996,32.4194977 84.9880606,42.0322648 L84.9880606,42.0322648 L118.487332,75.5315358 C130.514893,87.5590968 137.487011,103.724757 137.972754,120.724226 L137.972754,120.724226 L138.186233,128.101646 L154.899515,111.386817 C173.973448,92.3144308 173.973448,61.384649 154.899515,42.3107163 L154.899515,42.3107163 L119.803789,7.21653657 C114.995858,2.40705914 108.692024,0.00154695318 102.38819,0.00154695318 L102.38819,0.00154695318 C96.0889966,0.00309390635 89.7898032,2.40396524 84.9834197,7.2088018" id="Fill-10" fill="url(#linearGradient-4)"></path>
            <path d="M618.191108,61.3387045 L609.378116,61.3387045 C604.693942,61.3387045 600.896172,65.1364745 600.896172,69.8160079 L600.896172,118.107245 L580.454732,118.107245 L580.454732,68.7919249 C580.454732,54.4655915 592.06771,42.8495201 606.394043,42.8495201 L628.863538,42.8495201 L618.191108,61.3387045 Z M766.495962,72.0482613 C783.462945,74.6409549 791.706658,81.9534025 791.706658,94.4032817 C791.706658,102.122578 788.645238,108.345971 782.61212,112.898654 C776.58055,117.44979 768.098606,119.757844 757.401424,119.757844 C743.94912,119.757844 732.316032,116.776865 724.149666,111.243414 L732.831167,96.2023882 L732.910062,96.2503438 C740.046157,100.764353 748.339373,103.052297 757.55612,103.052297 C766.726458,103.052297 771.376599,100.685459 771.376599,96.0183008 C771.376599,94.2222882 770.389643,92.7650583 768.440482,91.6883789 C766.460382,90.5962299 763.358741,89.7624222 758.943737,89.139 L752.853382,88.2912697 C735.479551,85.9089618 727.03164,78.4944152 727.03164,65.6314996 C727.03164,58.0143021 729.845548,51.9672622 735.388281,47.6713732 C740.941843,43.3785781 748.73694,41.202015 758.556998,41.202015 C769.359373,41.202015 780.689258,43.8287415 790.091639,48.2855136 L781.45964,63.23991 C779.054128,62.280799 774.363766,60.4584881 771.518919,59.6772768 C767.22303,58.5031393 763.066367,57.8828111 759.177327,57.8302147 C755.442982,57.8302147 752.553273,58.4397142 750.608753,59.6416969 C748.658045,60.8498673 747.669542,62.5298584 747.669542,64.6306209 C747.669542,66.5550306 748.713735,68.0138075 750.689195,68.8476152 C752.687858,69.6922517 755.777124,70.4332422 759.867268,71.0442887 L766.495962,72.0482613 L766.495962,72.0482613 Z M804.356094,118.105698 L824.800627,118.105698 L824.800627,42.8495201 L804.356094,42.8495201 L804.356094,118.105698 Z M814.575267,32.8283575 C808.398283,32.8283575 803.376873,27.8038535 803.376873,21.6299634 C803.376873,15.4529794 808.398283,10.4238346 814.575267,10.4238346 C820.752251,10.4238346 825.776755,15.4498855 825.776755,21.6268695 C825.776755,27.8038535 820.752251,32.8283575 814.575267,32.8283575 L814.575267,32.8283575 Z M538.07595,99.5438071 L513.853757,99.5438071 L513.853757,72.1812993 L535.331655,72.1812993 L535.337843,72.1812993 L538.07595,72.1812993 C545.054256,72.1812993 550.72848,78.3196095 550.72848,85.8671941 C550.72848,93.4070439 545.054256,99.5438071 538.07595,99.5438071 L538.07595,99.5438071 Z M513.853757,32.05024 L535.334749,32.05024 C540.713505,32.05024 545.089836,36.8906565 545.089836,42.8386915 C545.089836,48.7820856 540.713505,53.6163142 535.334749,53.6163142 L513.853757,53.6163142 L513.853757,32.05024 Z M553.186589,62.7278685 C561.529307,58.0050204 564.680451,49.6855062 564.680451,42.8325036 C564.680451,26.6250752 551.542177,13.4852549 535.331655,13.4852549 L493.404583,13.4852549 L493.404583,118.108792 L538.07595,118.108792 C555.884475,118.108792 570.320642,103.669531 570.320642,85.8641002 C570.320642,75.7454794 563.708964,65.7970236 553.186589,62.7278685 L553.186589,62.7278685 Z M860,118.107245 L839.555467,118.107245 L839.555467,10.4269285 C850.846678,10.4269285 860,19.5802504 860,30.8745556 L860,118.107245 Z M670.544644,103.534946 C658.348466,103.534946 648.426308,93.4132317 648.426308,80.9695403 C648.426308,68.5273959 658.348466,58.4056813 670.544644,58.4056813 C682.743917,58.4056813 692.664528,68.5273959 692.664528,80.9695403 C692.664528,93.4132317 682.743917,103.534946 670.544644,103.534946 L670.544644,103.534946 Z M693.643749,42.8510671 L693.643749,50.6090373 C686.535499,44.5341521 677.519856,41.200468 668.14532,41.200468 C646.486429,41.200468 628.863538,58.8218117 628.863538,80.4807031 C628.863538,102.139595 646.486429,119.759391 668.14532,119.759391 C677.519856,119.759391 686.535499,116.42416 693.643749,110.349275 L693.643749,118.107245 L712.136028,118.107245 L712.136028,42.8510671 L693.643749,42.8510671 Z" id="Fill-13" fill="#54CA30"></path>
            <path d="M435.658213,103.534018 C423.458941,103.534018 413.536783,93.4123035 413.536783,80.9686121 C413.536783,68.5264677 423.458941,58.4047531 435.658213,58.4047531 C447.854392,58.4047531 457.77655,68.5264677 457.77655,80.9686121 C457.77655,93.4123035 447.854392,103.534018 435.658213,103.534018 L435.658213,103.534018 Z M458.755771,42.848592 L458.755771,50.609656 C451.645974,44.533224 442.628784,41.2026338 433.258889,41.2026338 C411.596904,41.2026338 393.978654,58.8208835 393.978654,80.4797749 C393.978654,102.138666 411.596904,119.756916 433.258889,119.756916 C442.628784,119.756916 451.645974,116.423232 458.755771,110.3468 L458.755771,117.67317 C458.755771,132.525468 442.944363,134.740705 433.518777,134.740705 C425.162136,134.740705 416.194448,131.83862 408.586533,127.326158 L399.208903,143.569166 C413.917333,152.116083 428.433942,153.395413 434.906394,153.395413 C441.946578,153.395413 476.924736,151.679842 477.23258,118.106317 L477.246502,118.106317 L477.246502,42.848592 L458.755771,42.848592 Z M340.706227,103.534018 C328.506955,103.534018 318.584797,93.4138504 318.584797,80.9701591 C318.584797,68.5280147 328.506955,58.4047531 340.706227,58.4047531 C352.902406,58.4047531 362.824564,68.5280147 362.824564,80.9701591 C362.824564,93.4138504 352.902406,103.534018 340.706227,103.534018 L340.706227,103.534018 Z M363.802238,42.8501389 L363.802238,50.609656 C356.693988,44.5347709 347.676798,41.2010868 338.303809,41.2010868 C316.644918,41.2010868 299.026668,58.8224305 299.026668,80.4813219 C299.026668,102.140213 316.644918,119.758463 338.303809,119.758463 C347.676798,119.758463 356.693988,116.424779 363.802238,110.348347 L363.802238,118.107864 L382.294517,118.107864 L382.294517,42.8501389 L363.802238,42.8501389 Z M260.671511,62.405174 L238.546986,62.405174 L238.546986,32.0493118 L260.671511,32.0493118 C268.472796,32.0493118 274.821491,38.8589997 274.821491,47.2295634 C274.821491,55.6016739 268.472796,62.405174 260.671511,62.405174 L260.671511,62.405174 Z M260.668417,13.4843268 L218.397921,13.4843268 L218.397921,118.110958 L238.546986,118.110958 L238.546986,80.9701591 L260.668417,80.9701591 C279.304562,80.9701591 294.409013,65.8610674 294.409013,47.2249225 C294.409013,28.5934184 279.304562,13.4843268 260.668417,13.4843268 L260.668417,13.4843268 Z" id="Fill-15" fill="#0058B5"></path>
        </g>
    </g>
</svg>