<svg width="190" height="50" viewBox="0 0 190 50" fill="none" xmlns="http://www.w3.org/2000/svg">
<path d="M96.7518 5.30605C100.239 5.30605 101.984 7.10578 101.984 10.6748C101.984 14.2116 100.239 15.9486 96.7518 15.9486H88.0934V5.30605H96.7518ZM97.2583 21.286C100.778 21.286 102.523 23.0543 102.523 26.6548C102.523 30.1611 100.778 31.8962 97.2583 31.8962H88.0934V21.286H97.2583ZM82.8624 37.2346H97.2583C104.267 37.2346 107.755 33.6655 107.755 26.592C107.755 23.0543 106.012 20.3852 102.523 18.6168C105.662 16.8484 107.217 14.1793 107.217 10.6425C107.217 3.53674 103.728 0 96.7518 0H82.8615L82.8624 37.2346V37.2346ZM111.117 37.2346H116.349V13.8258C117.217 13.6387 118.096 13.5102 118.981 13.4409C119.837 13.344 120.694 13.2794 121.614 13.2794C122.437 13.2794 123.167 13.3763 123.737 13.5692L124.911 8.29546C123.928 8.07121 122.817 7.97428 121.614 7.97428C116.413 7.97428 112.924 8.42469 111.117 9.29225V37.2346V37.2346ZM141.813 31.3821C140.894 31.5427 140.036 31.7033 139.181 31.7679C138.324 31.8639 137.437 31.8962 136.549 31.8962C133.062 31.8962 131.316 30.6742 131.316 28.1998C131.316 25.3377 134.805 23.9219 141.813 23.9219V31.3821V31.3821ZM129.573 14.5014C131.887 13.6975 134.202 13.2794 136.548 13.2794C140.069 13.2794 141.812 15.0801 141.812 18.6168C131.316 18.6168 126.053 21.8001 126.053 28.1989C126.053 34.2119 129.573 37.2346 136.548 37.2346C141.812 37.2346 145.3 36.3337 147.045 34.5654V18.6168C147.045 11.511 143.557 7.97428 136.548 7.97428C133.695 7.97428 130.873 8.55392 128.049 9.7417L129.573 14.5014ZM150.248 35.8833C153.452 36.7841 156.939 37.2346 160.744 37.2346C167.721 37.2346 171.21 34.3725 171.21 28.7129C171.21 23.4078 167.721 20.4821 160.744 19.9357C157.604 19.4207 156.019 18.2633 156.019 16.4949C156.019 14.3408 157.604 13.2794 160.744 13.2794C163.408 13.2794 165.85 13.6329 168.07 14.3408L169.401 9.29225C166.199 8.42469 163.313 7.97428 160.745 7.97428C154.086 7.97428 150.786 10.8041 150.786 16.4949C150.786 21.8001 154.086 24.7258 160.745 25.2408C164.232 25.7872 165.977 26.9455 165.977 28.7129C165.977 30.8357 164.233 31.8962 160.744 31.8962C156.844 31.8962 153.767 31.5427 151.548 30.8357L150.248 35.8833ZM174.475 37.2346H179.708V7.97428H174.475V37.2346V37.2346ZM174.475 5.62723H179.708V0.12828H174.475V5.62723V5.62723ZM183.862 37.2346H189.095V0.12828H183.862V37.2346Z" fill="#5BA345"/>
<path d="M76.4874 49.9991H78.6121V1.0625H76.4874V49.9991Z" fill="#A7B6BE"/>
<path d="M66.9718 13.7536C66.1043 13.5635 65.2234 13.4352 64.3378 13.3697C63.4826 13.2737 62.6255 13.2091 61.738 13.2091C58.2155 13.2091 56.4699 15.4164 56.4699 19.8302V25.1078C56.4699 29.5216 58.2155 31.728 61.738 31.728C62.6255 31.728 63.4826 31.6957 64.3378 31.5997C65.2263 31.5361 66.0834 31.3764 66.9718 31.2168V13.7536ZM51.2361 19.8302C51.2361 11.8978 54.7263 7.93152 61.738 7.93152C66.9718 7.93152 70.4943 8.38003 72.238 9.24283V38.3482C72.238 45.3856 68.7174 48.9366 61.738 48.9366C58.2792 48.9366 55.2337 48.4881 52.5683 47.5929L53.8692 42.3154C55.6461 43.1782 58.2792 43.6267 61.737 43.6267C65.2263 43.6267 66.9728 41.8678 66.9728 38.3492V36.2378C65.2776 36.7661 63.513 37.036 61.737 37.0379C54.7263 37.0379 51.2361 33.0716 51.2361 25.1078V19.8302V19.8302ZM5.23479 5.27755V18.5199H11.8008C17.0366 18.5199 19.6696 16.3125 19.6696 11.8987C19.6696 7.48492 17.0375 5.2785 11.8018 5.2785L5.23479 5.27755V5.27755ZM0 0H11.8018C20.5581 0 24.9054 3.96529 24.9054 11.8978C24.9054 19.8302 20.5581 23.7965 11.8018 23.7965H5.23479V37.0379H0V0ZM42.6708 23.7965C35.6904 23.7965 32.2022 25.2038 32.2022 28.0497C32.2022 30.5127 33.9458 31.728 37.436 31.728C38.3235 31.728 39.2129 31.6957 40.0691 31.5997C40.9243 31.5361 41.7823 31.3764 42.6708 31.2168V23.7965V23.7965ZM28.902 9.69039C31.7261 8.50831 34.5806 7.93247 37.436 7.93247C44.4154 7.93247 47.936 11.4502 47.936 18.518V34.3829C46.1923 36.1427 42.6717 37.0379 37.436 37.0379C30.4556 37.0379 26.9351 34.0313 26.9351 28.0497C26.9351 21.6851 32.2022 18.5189 42.6708 18.5189C42.6708 15.0002 40.9252 13.2091 37.436 13.2091C35.0889 13.2091 32.7723 13.6253 30.4243 14.4254L28.9011 9.69039H28.902V9.69039Z" fill="#11467B"/>
</svg>
