<svg width="125" height="34" viewBox="0 0 125 34" fill="none" xmlns="http://www.w3.org/2000/svg">
<path d="M63.8152 4.10103C66.1112 4.10103 67.2601 5.28597 67.2601 7.6358C67.2601 9.96441 66.1112 11.108 63.8152 11.108H58.1146V4.10103H63.8152ZM64.1487 14.6222C66.4661 14.6222 67.615 15.7864 67.615 18.157C67.615 20.4655 66.4661 21.6079 64.1487 21.6079H58.1146V14.6222H64.1487ZM54.6705 25.1227H64.1487C68.7632 25.1227 71.0597 22.7728 71.0597 18.1156C71.0597 15.7864 69.9121 14.0291 67.615 12.8648C69.6817 11.7005 70.7055 9.94315 70.7055 7.61453C70.7055 2.93612 68.4084 0.607544 63.8152 0.607544H54.6699L54.6705 25.1227ZM73.2732 25.1227H76.718V9.7104C77.2895 9.58722 77.8682 9.50261 78.4509 9.45699C79.0145 9.39319 79.5787 9.35066 80.1844 9.35066C80.7263 9.35066 81.2069 9.41445 81.5822 9.54146L82.3552 6.06925C81.708 5.9216 80.9765 5.85778 80.1844 5.85778C76.7601 5.85778 74.463 6.15433 73.2732 6.72553V25.1227ZM93.4834 21.2694C92.8783 21.3751 92.3134 21.4809 91.7505 21.5234C91.1863 21.5866 90.6023 21.6079 90.0176 21.6079C87.7218 21.6079 86.5722 20.8033 86.5722 19.1742C86.5722 17.2898 88.8694 16.3576 93.4834 16.3576V21.2694ZM85.4246 10.1552C86.9482 9.62593 88.4723 9.35066 90.0169 9.35066C92.3352 9.35066 93.4827 10.5362 93.4827 12.8648C86.5722 12.8648 83.1071 14.9607 83.1071 19.1736C83.1071 23.1325 85.4246 25.1227 90.0169 25.1227C93.4827 25.1227 95.7792 24.5295 96.9281 23.3653V12.8648C96.9281 8.18635 94.6316 5.85778 90.0169 5.85778C88.1385 5.85778 86.2805 6.23942 84.4212 7.02145L85.4246 10.1552ZM99.037 24.233C101.146 24.8261 103.442 25.1227 105.948 25.1227C110.541 25.1227 112.838 23.2383 112.838 19.512C112.838 16.0192 110.541 14.0929 105.948 13.7331C103.88 13.3941 102.837 12.632 102.837 11.4677C102.837 10.0495 103.88 9.35066 105.948 9.35066C107.701 9.35066 109.309 9.5834 110.771 10.0495L111.647 6.72553C109.539 6.15433 107.639 5.85778 105.948 5.85778C101.564 5.85778 99.3912 7.72093 99.3912 11.4677C99.3912 14.9607 101.564 16.8869 105.948 17.226C108.244 17.5857 109.393 18.3484 109.393 19.512C109.393 20.9097 108.245 21.6079 105.948 21.6079C103.38 21.6079 101.354 21.3751 99.8929 20.9097L99.037 24.233ZM114.988 25.1227H118.433V5.85778H114.988V25.1227ZM114.988 4.31249H118.433V0.692003H114.988V4.31249ZM121.168 25.1227H124.614V0.692003H121.168V25.1227Z" fill="#5BA345"/>
<path d="M50.4731 33.5268H51.872V1.30713H50.4731V33.5268Z" fill="#A7B6BE"/>
<path d="M44.2095 9.66288C43.6384 9.53771 43.0584 9.45324 42.4753 9.41012C41.9122 9.34691 41.3479 9.30438 40.7636 9.30438C38.4444 9.30438 37.2951 10.7577 37.2951 13.6637V17.1384C37.2951 20.0445 38.4444 21.4972 40.7636 21.4972C41.3479 21.4972 41.9122 21.4759 42.4753 21.4127C43.0603 21.3708 43.6246 21.2657 44.2095 21.1606V9.66288ZM33.8492 13.6637C33.8492 8.44102 36.1471 5.82963 40.7636 5.82963C44.2095 5.82963 46.5287 6.12493 47.6768 6.693V25.8559C47.6768 30.4893 45.3588 32.8273 40.7636 32.8273C38.4863 32.8273 36.4812 32.532 34.7263 31.9426L35.5828 28.4679C36.7527 29.0359 38.4863 29.3312 40.7629 29.3312C43.0603 29.3312 44.2102 28.1732 44.2102 25.8566V24.4664C43.0941 24.8142 41.9322 24.9919 40.7629 24.9932C36.1471 24.9932 33.8492 22.3818 33.8492 17.1384V13.6637ZM3.56205 4.08227V12.801H7.88509C11.3323 12.801 13.0659 11.3476 13.0659 8.44161C13.0659 5.53559 11.3329 4.08289 7.88575 4.08289L3.56205 4.08227ZM0.115479 0.607544H7.88575C13.6509 0.607544 16.5131 3.21828 16.5131 8.44102C16.5131 13.6637 13.6509 16.2751 7.88575 16.2751H3.56205V24.9932H0.115479V0.607544ZM28.2098 16.2751C23.6139 16.2751 21.3173 17.2017 21.3173 19.0754C21.3173 20.697 22.4653 21.4972 24.7632 21.4972C25.3476 21.4972 25.9331 21.4759 26.4969 21.4127C27.0599 21.3708 27.6248 21.2657 28.2098 21.1606V16.2751ZM19.1445 6.98767C21.0038 6.20939 22.8832 5.83026 24.7632 5.83026C29.3584 5.83026 31.6764 8.14632 31.6764 12.7997V23.2451C30.5284 24.4038 28.2104 24.9932 24.7632 24.9932C20.1674 24.9932 17.8495 23.0137 17.8495 19.0754C17.8495 14.885 21.3173 12.8003 28.2098 12.8003C28.2098 10.4836 27.0605 9.30438 24.7632 9.30438C23.2179 9.30438 21.6927 9.5784 20.1467 10.1052L19.1439 6.98767H19.1445Z" fill="#11467B"/>
</svg>
