<svg width="270" height="61" viewBox="0 0 270 61" fill="none" xmlns="http://www.w3.org/2000/svg">
<path d="M32.4121 17.3293C33.042 13.484 32.1138 10.0695 29.8927 7.94791C27.7048 5.76002 24.0915 4.69922 18.887 4.69922C14.3123 4.69922 10.4337 4.96442 7.28447 5.52797L7.18502 5.56112L0.687638 45.0095L0.621338 45.2084H9.33977L11.6934 30.9208C12.3564 31.0534 13.2183 31.1197 14.4117 31.1197C19.6162 31.1197 24.0915 29.6611 27.3402 26.8765C29.9259 24.7218 31.7491 21.3405 32.4121 17.3293ZM23.6605 17.5614C22.9975 21.5062 19.9477 23.8599 15.5057 23.8599C14.2791 23.8599 13.5167 23.7936 12.92 23.661L14.8095 12.158C15.5057 11.9922 16.6659 11.8928 18.1577 11.8928C20.3124 11.8928 21.9367 12.4563 22.8649 13.5503C23.6605 14.5448 23.9257 15.8707 23.6605 17.5614Z" fill="#1256A7"/>
<path d="M53.9929 27.9678C54.689 23.6583 54.1255 20.3765 52.3022 18.2217C50.6116 16.2327 47.827 15.2051 44.0147 15.2051C38.2466 15.2051 34.1029 17.2272 32.9758 17.8239L32.8764 17.8902L33.5062 24.0561L33.7383 23.9235C35.5284 22.8296 38.6444 21.7688 41.4953 21.7688C43.2523 21.7688 44.4788 22.1666 45.1418 22.929C45.6391 23.5257 45.838 24.3545 45.6391 25.349L45.6059 25.581C35.3295 25.6142 29.031 29.5921 27.8376 36.7857C27.4066 39.3051 28.0033 41.725 29.4288 43.3825C30.7879 45.0069 32.8432 45.8356 35.2963 45.8356C38.545 45.8356 41.4953 44.6091 43.6501 42.3549L43.6832 45.1726H51.6061V45.0069C51.5398 43.6146 51.805 41.2278 52.3022 38.0454L53.9929 27.9678ZM44.4125 34.4983C44.3131 35.0287 44.1805 35.5591 44.0147 35.9901C43.1528 37.8465 41.1307 39.2056 39.2411 39.2056C38.3129 39.2056 37.5836 38.9073 37.1195 38.3769C36.6554 37.8133 36.4897 36.9846 36.6554 35.9569C37.1195 33.0729 39.9041 31.5811 44.9098 31.548L44.4125 34.4983Z" fill="#1256A7"/>
<path d="M85.2532 15.9404H77.5956L76.8 19.2554C75.6066 16.6365 73.3524 15.3105 70.0374 15.3105C62.8107 15.3105 56.5122 21.7748 55.0536 30.7253C54.2912 35.3331 55.0868 39.3111 57.3078 41.9299C59.0316 43.9521 61.4516 45.0129 64.3688 45.0129C67.3854 45.0129 70.1369 43.7863 72.1922 41.499L71.9601 42.9244C71.1645 47.698 68.2142 50.4163 63.8052 50.4163C60.656 50.4163 57.9045 49.2892 56.3796 48.2616L56.2139 48.129L53.2967 55.3225L53.3961 55.3888C55.5509 56.7811 59.0979 57.6099 62.877 57.6099C67.6506 57.6099 71.5955 56.4165 74.5458 54.0297C77.8608 51.3445 79.8829 47.2008 80.9106 40.9023L83.5626 24.7914C84.2587 20.5482 84.756 18.1283 85.2201 16.1724L85.2532 15.9404ZM74.3138 27.8744L73.6176 32.1507C73.4519 33.1452 73.2198 33.974 72.9546 34.5375C72.0596 36.626 70.0706 38.0514 68.0153 38.0514C66.7556 38.0514 65.7611 37.6205 65.0318 36.7586C63.9047 35.4326 63.54 33.1784 63.971 30.5595C64.7666 25.7196 67.4849 22.4709 70.7004 22.4709C72.8552 22.4709 74.2143 23.8632 74.4132 26.2832C74.4464 26.7473 74.3801 27.3108 74.3138 27.8744Z" fill="#1256A7"/>
<path d="M121.387 4.99609H112.635L110.082 20.3114H96.5241L99.0435 4.99609H90.2588L83.6619 45.0081L83.6288 45.207H92.4135L95.165 28.5325H108.756L106.005 45.207H114.757L121.353 5.19499L121.387 4.99609Z" fill="#1256A7"/>
<path d="M133.321 3.53711H124.569L123.442 10.3328H132.227L133.321 3.53711Z" fill="#1256A7"/>
<path d="M122.514 15.9355L117.74 45.008L117.707 45.2069H126.459L131.298 15.9355H122.514Z" fill="#1256A7"/>
<path d="M157.586 18.3232C155.929 16.3674 153.575 15.2734 150.956 15.2734C147.111 15.2734 143.763 16.8315 141.21 19.7487L141.475 15.9033H133.818L133.785 16.0359C133.42 18.8536 133.022 22.0029 132.392 25.7488L127.287 56.7109L127.254 56.9098H136.006L138.359 42.7216C139.453 44.6443 141.906 45.8377 144.857 45.8377C150.857 45.8377 158.117 40.9315 159.874 30.1909C160.736 25.2847 159.907 21.0747 157.586 18.3232ZM150.99 30.5887C150.161 35.528 147.476 38.611 143.995 38.611C141.708 38.611 140.083 36.9535 139.917 34.5004C139.917 33.9037 139.951 33.307 140.05 32.644L140.713 28.666C140.812 28.1025 140.945 27.5389 141.144 27.108C142.105 24.5223 144.492 22.6659 146.779 22.6659C148.105 22.6659 149.199 23.13 149.929 23.9919C151.089 25.351 151.487 27.7047 150.99 30.5887Z" fill="#1256A7"/>
<path d="M182.548 37.5542C180.062 38.4161 177.708 38.7807 174.924 38.7807C172.437 38.7807 170.448 38.0846 169.321 36.8249C168.559 35.963 168.227 34.869 168.327 33.6093H185.764L185.797 33.5099C186.062 32.7143 186.427 31.3551 186.659 29.9297C187.454 25.0898 186.692 21.0123 184.504 18.4266C182.747 16.3713 180.161 15.3105 176.813 15.3105C172.437 15.3105 168.526 17.0343 165.476 20.3493C162.89 23.1339 161.034 26.9793 160.404 30.9242C159.642 35.5652 160.404 39.4106 162.625 42.0294C164.747 44.5488 168.227 45.8748 172.636 45.8748C176.415 45.8748 179.929 45.2449 182.813 44.0184L182.913 43.9852L182.813 37.5542H182.548ZM175.288 21.609C176.515 21.609 177.443 21.9737 178.106 22.7361C179.266 24.0953 179.101 26.3163 178.968 27.1451H169.355C169.951 24.9903 171.841 21.609 175.288 21.609Z" fill="#1256A7"/>
<path d="M205.455 15.2363C202.969 15.2363 199.355 16.7944 197.101 21.1039L197.631 15.9325H190.073V16.0982C189.841 18.485 189.477 21.137 188.714 25.6123L185.465 45.2039H194.217L196.67 30.3858C196.803 29.6565 196.968 28.9604 197.167 28.3969C198.195 25.6123 200.549 23.9548 203.532 23.9548C204.46 23.9548 205.09 24.0542 205.753 24.1868L205.919 24.22L207.378 15.4352L207.212 15.4021C206.681 15.3026 206.284 15.2363 205.455 15.2363Z" fill="#1256A7"/>
<path d="M269.766 15.9681C269.766 15.5371 269.401 15.2056 268.97 15.2388L266.65 15.3382C266.384 14.3437 266.02 13.4155 265.589 12.4873L267.412 11.0619C267.744 10.7967 267.81 10.3326 267.545 10.0011L263.832 5.22751C263.567 4.89601 263.103 4.82971 262.771 5.09491L260.948 6.52036C260.152 5.89051 259.324 5.32696 258.428 4.82971L259.058 2.60866C259.158 2.21087 258.926 1.77992 258.528 1.68047L252.727 0.0229697C252.329 -0.0764801 251.898 0.155569 251.799 0.553369L251.169 2.77441C250.87 2.74126 250.539 2.74126 250.24 2.74126C249.412 2.74126 248.616 2.80756 247.821 2.90701L246.992 0.752268C246.826 0.354469 246.395 0.155569 245.997 0.321319L240.362 2.47606C239.964 2.64181 239.765 3.07276 239.931 3.47056L240.76 5.62531C239.931 6.18886 239.135 6.81871 238.406 7.51485L236.45 6.25516C236.085 6.02311 235.621 6.12256 235.389 6.48721L232.074 11.5591C231.842 11.9238 231.942 12.3879 232.306 12.6199L234.229 13.8796C233.864 14.8078 233.632 15.8023 233.433 16.7968L231.113 16.8963C230.682 16.9294 230.35 17.2609 230.384 17.6919L230.682 23.7252C230.715 24.1561 231.047 24.4876 231.478 24.4545L233.798 24.355C234.063 25.3495 234.428 26.2777 234.859 27.1728L233.069 28.6314C232.737 28.8966 232.671 29.3607 232.936 29.6922L236.715 34.3995C236.98 34.731 237.445 34.7972 237.776 34.5321L239.599 33.0735C240.395 33.7033 241.224 34.2669 242.119 34.731L241.489 36.952C241.389 37.3498 241.621 37.7807 242.019 37.8802L247.854 39.5045C248.251 39.604 248.682 39.3719 248.782 38.9741L249.412 36.7531C249.677 36.7531 249.942 36.7862 250.174 36.7862C250.937 36.7862 251.699 36.7199 252.428 36.6205L253.224 38.7752C253.357 39.173 253.821 39.3719 254.218 39.2393L259.887 37.1177C260.285 36.9851 260.484 36.521 260.351 36.1232L259.556 33.9354C260.384 33.3718 261.18 32.742 261.909 32.0458L263.832 33.3387C264.197 33.5707 264.661 33.4713 264.893 33.1398L268.241 28.101C268.473 27.7363 268.373 27.2722 268.042 27.0402L266.119 25.7473C266.484 24.8191 266.749 23.8246 266.948 22.8301L269.269 22.7307C269.699 22.7307 270.031 22.366 269.998 21.9351L269.766 15.9681ZM250.207 34.4989C242.086 34.4989 235.456 27.8689 235.456 19.7472C235.456 11.6254 242.086 4.99546 250.207 4.99546C258.329 4.99546 264.959 11.6254 264.959 19.7472C264.959 27.9021 258.362 34.4989 250.207 34.4989Z" fill="#1256A7"/>
<path d="M242.98 45.1376L241.456 45.2038C241.29 44.5409 241.058 43.9442 240.759 43.3475L241.953 42.4193C242.185 42.2535 242.218 41.922 242.052 41.7231L239.599 38.607C239.433 38.375 239.102 38.3418 238.903 38.5076L237.71 39.4358C237.212 39.0048 236.649 38.6402 236.052 38.3087L236.483 36.8501C236.549 36.5849 236.417 36.3197 236.152 36.2202L232.339 35.1263C232.074 35.06 231.809 35.1926 231.709 35.4578L231.278 36.9164C231.08 36.9164 230.881 36.8832 230.682 36.8832C230.151 36.8832 229.621 36.9164 229.091 36.9827L228.56 35.5572C228.461 35.292 228.162 35.1594 227.897 35.2589L224.184 36.6843C223.919 36.7838 223.787 37.0821 223.886 37.3473L224.416 38.7728C223.853 39.1374 223.356 39.5684 222.858 40.0325L221.566 39.2037C221.334 39.038 221.035 39.1043 220.869 39.3363L218.715 42.6513C218.549 42.8834 218.615 43.1817 218.847 43.3475L220.107 44.1762C219.875 44.8061 219.709 45.4359 219.577 46.0989L218.052 46.1652C217.786 46.1652 217.554 46.4304 217.588 46.6956L217.786 50.6404C217.786 50.9056 218.052 51.1377 218.317 51.1045L219.842 51.0382C220.008 51.6681 220.273 52.2979 220.538 52.8946L219.345 53.856C219.146 54.0217 219.079 54.3532 219.278 54.5521L221.764 57.6351C221.93 57.834 222.262 57.9003 222.461 57.7014L223.654 56.74C224.184 57.1378 224.715 57.5356 225.312 57.834L224.914 59.2926C224.847 59.5578 225.013 59.823 225.278 59.9224L229.091 60.9832C229.356 61.0495 229.621 60.8838 229.72 60.6186L230.118 59.16C230.284 59.16 230.45 59.16 230.615 59.16C231.113 59.16 231.61 59.1268 232.107 59.0605L232.638 60.486C232.737 60.7512 233.035 60.8838 233.267 60.7843L236.98 59.392C237.245 59.2926 237.378 58.9942 237.279 58.7622L236.748 57.3367C237.312 56.9721 237.809 56.5411 238.306 56.1102L239.566 56.9721C239.798 57.1378 240.096 57.0715 240.262 56.8395L242.45 53.5245C242.616 53.2924 242.549 52.9941 242.317 52.8283L241.058 51.9996C241.29 51.3697 241.489 50.7399 241.588 50.0769L243.113 50.0106C243.378 50.0106 243.61 49.7785 243.61 49.4802L243.445 45.5353C243.511 45.3696 243.279 45.1376 242.98 45.1376ZM230.682 57.8008C225.345 57.8008 221.002 53.4582 221.002 48.121C221.002 42.7839 225.345 38.4413 230.682 38.4413C236.019 38.4413 240.362 42.7839 240.362 48.121C240.362 53.4582 236.019 57.8008 230.682 57.8008Z" fill="#1256A7"/>
<path d="M219.179 35.1281L219.477 34.0673C219.61 34.0673 219.709 34.0673 219.842 34.0673C220.207 34.0673 220.571 34.0342 220.903 34.001L221.301 35.0287C221.367 35.2276 221.566 35.327 221.765 35.2276L224.483 34.2331C224.682 34.1668 224.781 33.9679 224.682 33.769L224.284 32.7413C224.682 32.4761 225.08 32.1778 225.411 31.8463L226.339 32.4761C226.505 32.5756 226.737 32.5424 226.837 32.3767L228.428 29.9899C228.527 29.8241 228.494 29.5921 228.328 29.4927L227.4 28.896C227.566 28.465 227.698 27.9678 227.798 27.5037L228.892 27.4705C229.091 27.4705 229.257 27.3048 229.257 27.1059L229.157 24.2218C229.157 24.0229 228.991 23.8572 228.792 23.8572L227.698 23.8903C227.566 23.4262 227.4 22.9621 227.201 22.5312L228.063 21.835C228.229 21.7024 228.262 21.4704 228.129 21.3378L226.339 19.0836C226.207 18.9178 225.975 18.8847 225.842 19.0173L224.98 19.7134C224.616 19.4151 224.218 19.1499 223.787 18.9178L224.085 17.857C224.151 17.6581 224.019 17.4592 223.82 17.3929L221.035 16.5973C220.836 16.531 220.638 16.6636 220.571 16.8625L220.273 17.9233C220.14 17.9233 219.975 17.9233 219.842 17.9233C219.444 17.9233 219.079 17.9565 218.682 17.9896L218.284 16.962C218.218 16.7631 217.986 16.6636 217.82 16.7631L215.135 17.7907C214.936 17.857 214.836 18.0891 214.936 18.2548L215.334 19.2825C214.936 19.5477 214.571 19.846 214.206 20.1775L213.278 19.5808C213.112 19.4814 212.88 19.5145 212.781 19.6803L211.19 22.1002C211.09 22.266 211.123 22.498 211.289 22.5975L212.217 23.1942C212.052 23.6583 211.919 24.1224 211.853 24.5865L210.759 24.6528C210.56 24.6528 210.394 24.8185 210.427 25.0506L210.56 27.9346C210.56 28.1335 210.726 28.2993 210.958 28.2661L212.052 28.1998C212.184 28.6639 212.35 29.128 212.549 29.5589L211.687 30.2551C211.521 30.3877 211.488 30.6197 211.621 30.7523L213.411 33.0065C213.543 33.1723 213.775 33.2054 213.908 33.0728L214.77 32.3767C215.135 32.675 215.566 32.9402 215.963 33.1723L215.665 34.2331C215.599 34.432 215.731 34.6309 215.93 34.6972L218.715 35.4596C218.914 35.4265 219.113 35.327 219.179 35.1281ZM212.781 25.9456C212.781 22.0671 215.93 18.8847 219.842 18.8847C223.754 18.8847 226.903 22.0339 226.903 25.9456C226.903 29.8242 223.754 33.0065 219.842 33.0065C215.93 33.0065 212.781 29.8242 212.781 25.9456Z" fill="#1256A7"/>
<path d="M250.704 19.5807C250.804 19.6801 251.003 19.6801 251.102 19.5807L259.423 11.2601C259.522 11.1606 259.522 10.9617 259.423 10.8623L257.334 8.77381C257.235 8.67436 257.036 8.67436 256.937 8.77381L248.583 17.0944C248.483 17.1939 248.483 17.3928 248.583 17.4922L250.704 19.5807Z" fill="#1256A7"/>
<path d="M258.495 22.498H241.953C241.787 22.498 241.655 22.6306 241.655 22.7964L241.887 27.3379C241.887 28.6971 242.981 29.791 244.34 29.791H256.075C257.434 29.791 258.528 28.6971 258.528 27.3379L258.76 22.7964C258.793 22.6306 258.66 22.498 258.495 22.498ZM246.561 27.6694C246.561 28.1667 246.163 28.5645 245.666 28.5645C245.168 28.5645 244.771 28.1667 244.771 27.6694V24.6528C244.771 24.1555 245.168 23.7577 245.666 23.7577C246.163 23.7577 246.561 24.1555 246.561 24.6528V27.6694ZM251.102 27.6694C251.102 28.1667 250.704 28.5645 250.207 28.5645C249.71 28.5645 249.312 28.1667 249.312 27.6694V24.6528C249.312 24.1555 249.71 23.7577 250.207 23.7577C250.704 23.7577 251.102 24.1555 251.102 24.6528V27.6694ZM255.644 27.6694C255.644 28.1667 255.246 28.5645 254.749 28.5645C254.252 28.5645 253.854 28.1667 253.854 27.6694V24.6528C253.854 24.1555 254.252 23.7577 254.749 23.7577C255.246 23.7577 255.644 24.1555 255.644 24.6528V27.6694Z" fill="#1256A7"/>
<path d="M259.522 18.2227H254.019L250.937 21.3056C250.837 21.4051 250.638 21.4051 250.539 21.3056L247.456 18.2227H240.925C240.759 18.2227 240.627 18.3553 240.627 18.521V21.4714C240.627 21.6371 240.759 21.7697 240.925 21.7697H259.522C259.688 21.7697 259.821 21.6371 259.821 21.4714V18.521C259.788 18.3553 259.655 18.2227 259.522 18.2227Z" fill="#1256A7"/>
<path d="M236.616 44.2473L224.35 44.9766C224.184 44.9766 224.085 45.1092 224.085 45.275L224.483 51.7723C224.483 51.9381 224.615 52.0375 224.781 52.0375L237.047 51.3082C237.212 51.3082 237.312 51.1756 237.312 51.0099L236.914 44.5125C236.881 44.3468 236.748 44.2142 236.616 44.2473ZM231.146 50.2806L231.179 51.0099L230.483 51.043L230.45 50.38C229.986 50.38 229.488 50.2806 229.223 50.148L229.389 49.3192C229.687 49.4518 230.118 49.5844 230.582 49.5513C230.98 49.5181 231.245 49.3524 231.245 49.054C231.245 48.7888 230.98 48.6231 230.45 48.4905C229.687 48.2916 229.124 47.9601 229.091 47.2639C229.058 46.6341 229.455 46.1037 230.218 45.9379L230.185 45.275L230.881 45.2418L230.914 45.8716C231.378 45.8716 231.71 45.9379 231.975 46.0374L231.809 46.8661C231.61 46.7998 231.279 46.6341 230.781 46.6672C230.317 46.7004 230.185 46.8993 230.185 47.0982C230.185 47.3302 230.45 47.4628 231.08 47.6617C231.942 47.8938 232.306 48.2916 232.339 48.9214C232.339 49.5181 231.942 50.0817 231.146 50.2806Z" fill="#1256A7"/>
<path d="M228.958 20.708L226.87 18.6195C226.77 18.5201 226.571 18.5201 226.472 18.6195L220.173 24.918L216.394 21.1389C216.295 21.0395 216.096 21.0395 215.996 21.1389L213.908 23.2273C213.809 23.3268 213.809 23.5257 213.908 23.6252L219.941 29.6584C220.008 29.7247 220.107 29.7579 220.173 29.7247C220.273 29.7247 220.339 29.7247 220.405 29.6584L228.958 21.1058C229.058 21.0063 229.058 20.8406 228.958 20.708Z" fill="#19B515"/>
</svg>
