<?xml version="1.0" encoding="UTF-8"?>
<svg width="94px" height="36px" viewBox="0 0 94 36" version="1.1" xmlns="http://www.w3.org/2000/svg" xmlns:xlink="http://www.w3.org/1999/xlink">
    <!-- Generator: Sketch 52.4 (67378) - http://www.bohemiancoding.com/sketch -->
    <title>pagseguro</title>
    <desc>Created with Sketch.</desc>
    <defs>
        <radialGradient cx="66.0498338%" cy="17.4453003%" fx="66.0498338%" fy="17.4453003%" r="141.032126%" gradientTransform="translate(0.660498,0.174453),scale(1.000000,0.663907),translate(-0.660498,-0.174453)" id="radialGradient-1">
            <stop stop-color="#FFFF00" offset="0%"></stop>
            <stop stop-color="#FF9900" offset="100%"></stop>
        </radialGradient>
        <linearGradient x1="49.9867065%" y1="100.004982%" x2="49.9867065%" y2="0.00830288941%" id="linearGradient-2">
            <stop stop-color="#FF3000" offset="31.47%"></stop>
            <stop stop-color="#FFAD00" offset="100%"></stop>
        </linearGradient>
        <linearGradient x1="-4.90097708%" y1="96.5805836%" x2="112.484397%" y2="15.6470686%" id="linearGradient-3">
            <stop stop-color="#FF3000" offset="0%"></stop>
            <stop stop-color="#FFAD00" offset="100%"></stop>
        </linearGradient>
        <linearGradient x1="93.1053068%" y1="-45.599051%" x2="7.18283582%" y2="143.653618%" id="linearGradient-4">
            <stop stop-color="#FF1F00" offset="25.38%"></stop>
            <stop stop-color="#FFD900" offset="79.19%"></stop>
        </linearGradient>
        <radialGradient cx="64.0375327%" cy="-8.01706113%" fx="64.0375327%" fy="-8.01706113%" r="202.417344%" gradientTransform="translate(0.640375,-0.080171),scale(0.654889,1.000000),translate(-0.640375,0.080171)" id="radialGradient-5">
            <stop stop-color="#FF7D00" offset="44.67%"></stop>
            <stop stop-color="#FFEB00" offset="52.79%"></stop>
        </radialGradient>
        <radialGradient cx="80.7057997%" cy="10.2778588%" fx="80.7057997%" fy="10.2778588%" r="180.547409%" gradientTransform="translate(0.807058,0.102779),scale(0.884956,1.000000),translate(-0.807058,-0.102779)" id="radialGradient-6">
            <stop stop-color="#FF9C00" offset="0.51%"></stop>
            <stop stop-color="#FF0000" offset="38.07%"></stop>
        </radialGradient>
        <linearGradient x1="0.00876616261%" y1="49.9979037%" x2="100.002192%" y2="49.9979037%" id="linearGradient-7">
            <stop stop-color="#FF1F00" offset="25.38%"></stop>
            <stop stop-color="#FFD900" offset="69.04%"></stop>
        </linearGradient>
        <radialGradient cx="69.0155734%" cy="35.5351705%" fx="69.0155734%" fy="35.5351705%" r="153.768919%" gradientTransform="translate(0.690156,0.355352),scale(0.554027,1.000000),translate(-0.690156,-0.355352)" id="radialGradient-8">
            <stop stop-color="#FFFFFF" offset="8.12%"></stop>
            <stop stop-color="#FFD900" offset="37.56%"></stop>
            <stop stop-color="#FF8000" offset="81.22%"></stop>
        </radialGradient>
        <linearGradient x1="-21.3709244%" y1="10.9066945%" x2="121.551706%" y2="83.8480971%" id="linearGradient-9">
            <stop stop-color="#FFD900" offset="31.98%"></stop>
            <stop stop-color="#FF4700" offset="93.4%"></stop>
        </linearGradient>
    </defs>
    <g id="Page-1" stroke="none" stroke-width="1" fill="none" fill-rule="evenodd">
        <g id="pagseguro">
            <g id="Group">
                <circle id="Oval" fill="#000000" cx="15.649" cy="15.057" r="14.683"></circle>
                <path d="M18.133,24.178 C17.528,23.073 17.358,21.61 17.763,20.019 C18.425,17.421 20.427,15.245 22.662,14.443 C23.965,16.659 24.375,19.288 23.65,21.754 C22.091,22.988 20.203,23.844 18.133,24.178 Z" id="Path" fill="url(#radialGradient-1)"></path>
                <path d="M20.723,26.125 C19.696,25.903 18.869,25.316 18.317,24.482 C20.256,24.084 22.032,23.263 23.533,22.126 C23.442,22.39 23.338,22.652 23.221,22.911 C22.634,24.199 21.771,25.28 20.723,26.125 Z" id="Path" fill="#FD0100"></path>
                <path d="M25.325,20.138 C25.732,18.092 25.477,15.999 24.662,14.116 C25.942,14.164 26.982,14.729 27.671,15.631 C27.237,17.31 26.424,18.843 25.325,20.138 Z" id="Path" fill="url(#linearGradient-2)"></path>
                <path d="M27.636,22.199 C27.015,23.147 26.282,24.014 25.457,24.783 C24.274,25.713 22.887,26.26 21.529,26.222 C21.521,26.222 21.512,26.221 21.504,26.221 C22.793,25.24 23.861,23.955 24.58,22.411 C24.858,21.813 25.072,21.201 25.225,20.584 C26.439,19.255 27.356,17.671 27.876,15.928 C28.59,17.056 28.816,18.613 28.382,20.318 C28.214,20.977 27.959,21.609 27.636,22.199 Z" id="Path" fill="url(#linearGradient-3)"></path>
                <path d="M20.981,26.594 C21.019,26.596 21.056,26.598 21.094,26.599 C22.067,26.625 23.041,26.408 23.958,25.997 C21.689,27.59 18.925,28.526 15.942,28.526 C15.39,28.526 14.845,28.493 14.31,28.43 C16.707,28.538 19.054,27.883 20.981,26.594 Z" id="Path" fill="url(#linearGradient-4)"></path>
                <path d="M17.22,24.66 C17.941,25.608 18.97,26.269 20.216,26.504 C17.538,28.371 13.853,28.817 10.465,27.41 C10.109,27.258 9.762,27.092 9.422,26.912 C5.85,24.969 3.807,21.283 4.034,17.628 C6.04,21.832 10.477,24.755 15.627,24.755 C16.167,24.755 16.699,24.723 17.22,24.66 Z" id="Path" fill="url(#radialGradient-5)"></path>
                <path d="M21.645,13.011 C19.084,13.979 16.888,16.462 16.254,19.416 C15.851,21.296 16.154,23.021 16.975,24.31 C16.71,24.327 16.442,24.337 16.172,24.337 C10.445,24.337 5.665,20.389 4.558,15.141 C4.632,14.94 4.714,14.74 4.804,14.542 C6.947,9.827 12.808,7.877 17.892,10.188 C19.395,10.871 20.662,11.849 21.645,13.011 Z" id="Path" fill="url(#radialGradient-6)"></path>
                <path d="M3.676,16.795 C3.409,19.733 4.462,22.678 6.534,24.882 C3.731,22.327 1.971,18.646 1.971,14.555 C1.971,11.241 3.126,8.197 5.055,5.801 C3.69,7.74 2.893,10.074 2.893,12.586 C2.893,14.065 3.17,15.483 3.676,16.795 Z" id="Path" fill="url(#linearGradient-7)"></path>
                <path d="M27.911,14.432 C27.027,13.318 25.704,12.621 24.102,12.577 C24.015,12.575 23.927,12.575 23.84,12.576 C22.72,10.836 21.071,9.377 18.996,8.451 C13.471,5.987 7.011,8.241 4.57,13.485 C4.5,13.635 4.435,13.786 4.373,13.937 C4.336,13.568 4.317,13.194 4.317,12.816 C4.317,6.455 9.626,1.296 16.172,1.296 C22.718,1.296 28.027,6.455 28.027,12.816 C28.028,13.365 27.988,13.904 27.911,14.432 Z" id="Path" fill="url(#radialGradient-8)"></path>
                <path d="M20.62,1.387 C26.035,3.311 29.913,8.48 29.913,14.554 C29.913,16.332 29.58,18.032 28.974,19.596 C29.335,17.733 29,16.032 28.157,14.771 C28.292,14.062 28.362,13.332 28.362,12.586 C28.363,7.559 25.172,3.243 20.62,1.387 Z" id="Path" fill="url(#linearGradient-9)"></path>
            </g>
            <path d="M67.197,10.464 C67.087,10.459 67.053,10.509 67.011,10.544 C66.293,11.161 65.497,11.649 64.613,11.988 C64.003,12.222 63.375,12.358 62.717,12.328 C61.832,12.288 61.164,11.901 60.729,11.116 C60.016,9.828 60.034,8.508 60.58,7.185 C61.407,5.184 62.901,3.914 64.96,3.281 C65.852,3.007 66.767,2.872 67.692,2.781 C68.504,2.701 69.319,2.673 70.135,2.666 C70.529,2.662 70.922,2.642 71.315,2.63 C71.381,2.628 71.447,2.626 71.512,2.63 C71.716,2.645 71.744,2.679 71.69,2.873 C71.635,3.072 71.565,3.266 71.511,3.465 C71.29,4.28 71.138,5.11 70.996,5.942 C70.738,7.457 70.536,8.983 70.166,10.477 C69.978,11.234 69.756,11.978 69.437,12.692 C68.765,14.194 67.664,15.251 66.137,15.862 C65.15,16.257 64.123,16.422 63.061,16.443 C61.974,16.465 60.912,16.315 59.856,16.086 C59.81,16.076 59.765,16.064 59.72,16.049 C59.522,15.984 59.495,15.95 59.533,15.743 C59.652,15.088 59.774,14.434 59.902,13.781 C59.95,13.537 59.991,13.513 60.227,13.586 C60.845,13.779 61.469,13.948 62.108,14.058 C62.908,14.196 63.708,14.246 64.505,14.03 C65.193,13.844 65.737,13.453 66.164,12.888 C66.71,12.171 66.991,11.344 67.197,10.464 Z M63.348,8.357 C63.34,8.72 63.41,9.067 63.549,9.4 C63.721,9.812 64.025,10.071 64.467,10.145 C64.736,10.19 65.011,10.192 65.279,10.131 C66.27,9.903 66.937,9.294 67.308,8.359 C67.788,7.15 67.971,5.861 68.305,4.612 C68.339,4.484 68.3,4.442 68.159,4.448 C68.038,4.454 67.918,4.479 67.797,4.495 C66.869,4.618 65.98,4.869 65.159,5.328 C63.974,5.99 63.382,7.008 63.348,8.357 Z" id="Shape" fill="#000000" fill-rule="nonzero"></path>
            <path d="M41.119,4.268 C41.605,3.974 42.08,3.693 42.579,3.455 C43.462,3.034 44.384,2.766 45.37,2.789 C45.829,2.8 46.284,2.866 46.724,3.014 C47.736,3.354 48.356,4.155 48.429,5.296 C48.492,6.276 48.228,7.192 47.832,8.074 C47.433,8.963 46.899,9.762 46.208,10.455 C45.595,11.07 44.843,11.439 44.034,11.706 C43.355,11.93 42.656,12.051 41.941,12.11 C41.065,12.182 40.199,12.11 39.331,12.025 C39.108,12.003 39.104,11.999 39.047,12.223 C38.794,13.233 38.544,14.243 38.293,15.253 C38.259,15.389 38.224,15.526 38.187,15.661 C38.12,15.904 38.101,15.921 37.833,15.923 C37.364,15.926 36.895,15.924 36.426,15.924 C36.032,15.924 35.638,15.927 35.244,15.923 C34.972,15.92 34.948,15.885 35.032,15.622 C35.359,14.604 35.691,13.588 36.016,12.57 C36.455,11.194 36.869,9.811 37.268,8.423 C37.654,7.08 38.014,5.731 38.347,4.374 C38.463,3.901 38.572,3.425 38.683,2.951 C38.756,2.643 38.778,2.623 39.101,2.624 C39.72,2.626 40.339,2.63 40.958,2.633 C41.014,2.633 41.071,2.632 41.127,2.64 C41.303,2.663 41.333,2.698 41.304,2.881 C41.241,3.279 41.169,3.676 41.103,4.073 C41.096,4.126 41.067,4.181 41.119,4.268 Z M43.923,4.653 C42.611,4.65 41.46,5.404 40.972,6.576 C40.788,7.017 40.631,7.469 40.502,7.93 C40.306,8.634 40.125,9.341 39.929,10.045 C39.829,10.404 39.835,10.419 40.222,10.373 C40.771,10.307 41.316,10.217 41.852,10.083 C42.665,9.881 43.455,9.61 44.147,9.123 C45.241,8.352 45.73,7.3 45.534,5.965 C45.443,5.343 45.113,4.892 44.477,4.712 C44.286,4.657 44.089,4.663 43.923,4.653 Z" id="Shape" fill="#000000" fill-rule="nonzero"></path>
            <path d="M55.983,10.39 C55.617,10.703 55.267,10.981 54.889,11.222 C54.044,11.763 53.149,12.189 52.141,12.308 C51.386,12.397 50.658,12.313 50.047,11.793 C49.679,11.481 49.456,11.067 49.277,10.632 C48.954,9.847 48.878,9.029 49.064,8.204 C49.525,6.154 50.718,4.668 52.595,3.733 C53.511,3.277 54.494,3.042 55.501,2.897 C56.644,2.732 57.793,2.67 58.947,2.667 C59.228,2.666 59.509,2.667 59.79,2.638 C59.929,2.623 60.071,2.629 60.212,2.629 C60.523,2.63 60.549,2.665 60.446,2.95 C60.106,3.894 59.811,4.853 59.55,5.821 C59.135,7.362 58.828,8.924 58.668,10.513 C58.622,10.97 58.574,11.426 58.563,11.885 C58.556,12.195 58.533,12.214 58.216,12.216 C57.513,12.219 56.809,12.22 56.106,12.219 C55.88,12.219 55.874,12.215 55.891,11.979 C55.92,11.577 55.956,11.176 55.99,10.775 C55.998,10.664 56.02,10.553 55.983,10.39 Z M52.135,8.326 C52.121,8.68 52.18,9.019 52.307,9.348 C52.503,9.855 52.872,10.124 53.414,10.164 C54.139,10.217 54.757,9.972 55.3,9.506 C55.75,9.12 56.012,8.621 56.199,8.069 C56.474,7.259 56.667,6.428 56.849,5.594 C56.919,5.274 57.003,4.956 57.078,4.637 C57.118,4.465 57.094,4.436 56.918,4.448 C56.815,4.455 56.714,4.479 56.612,4.492 C55.674,4.614 54.777,4.864 53.944,5.327 C52.765,5.983 52.177,6.99 52.135,8.326 Z" id="Shape" fill="#000000" fill-rule="nonzero"></path>
            <path d="M58.304,25.437 C58.203,25.426 58.153,25.519 58.083,25.575 C57.157,26.332 56.143,26.924 54.966,27.195 C54.336,27.34 53.704,27.364 53.079,27.153 C52.654,27.01 52.319,26.75 52.069,26.382 C51.299,25.25 51.147,24.016 51.547,22.728 C52.175,20.704 53.5,19.302 55.462,18.506 C56.275,18.176 57.127,17.992 57.995,17.879 C58.683,17.789 59.373,17.737 60.066,17.702 C60.854,17.662 61.641,17.665 62.428,17.651 C62.475,17.65 62.522,17.65 62.569,17.651 C62.853,17.655 62.875,17.674 62.789,17.937 C62.533,18.724 62.37,19.534 62.222,20.345 C62.027,21.415 61.874,22.492 61.687,23.563 C61.458,24.876 61.179,26.178 60.676,27.42 C59.851,29.457 58.321,30.656 56.214,31.173 C55.172,31.429 54.113,31.451 53.054,31.386 C52.335,31.342 51.622,31.209 50.921,31.03 C50.661,30.964 50.649,30.943 50.697,30.679 C50.81,30.061 50.926,29.444 51.045,28.827 C51.104,28.519 51.125,28.506 51.439,28.604 C52.129,28.819 52.83,28.993 53.544,29.104 C54.301,29.221 55.052,29.226 55.795,28.982 C56.435,28.771 56.939,28.383 57.337,27.855 C57.861,27.161 58.142,26.357 58.335,25.518 C58.341,25.491 58.341,25.461 58.304,25.437 Z M54.479,23.314 C54.468,23.629 54.518,23.932 54.613,24.23 C54.851,24.969 55.385,25.203 56.035,25.176 C56.869,25.141 57.536,24.748 58.05,24.094 C58.412,23.633 58.568,23.079 58.741,22.535 C59.048,21.569 59.183,20.56 59.467,19.587 C59.507,19.449 59.475,19.411 59.337,19.419 C59.225,19.426 59.114,19.45 59.003,19.464 C58.026,19.585 57.09,19.845 56.233,20.339 C55.092,20.997 54.516,22 54.479,23.314 Z" id="Shape" fill="#79B621" fill-rule="nonzero"></path>
            <path d="M86.333,33.491 C85.727,34.881 84.702,35.584 83.25,35.612 C82.561,35.625 81.922,35.401 81.356,34.993 C80.798,34.591 80.428,34.051 80.201,33.399 C80.115,33.46 80.124,33.539 80.113,33.608 C80.068,33.878 79.988,34.138 79.87,34.384 C79.588,34.975 79.103,35.328 78.484,35.482 C77.688,35.68 76.888,35.682 76.098,35.427 C75.304,35.171 74.842,34.607 74.627,33.822 C74.545,33.523 74.513,33.214 74.513,32.903 C74.513,31.89 74.511,30.877 74.513,29.864 C74.513,29.562 74.537,29.535 74.828,29.536 C75.137,29.537 75.446,29.511 75.754,29.57 C76.15,29.646 76.383,29.877 76.463,30.271 C76.493,30.419 76.504,30.568 76.504,30.718 C76.503,31.412 76.505,32.106 76.504,32.8 C76.504,32.97 76.518,33.136 76.577,33.298 C76.7,33.635 76.947,33.8 77.339,33.8 C77.736,33.801 78.005,33.622 78.124,33.284 C78.188,33.103 78.186,32.915 78.187,32.728 C78.189,31.856 78.188,30.984 78.188,30.111 C78.188,30.036 78.187,29.961 78.189,29.886 C78.195,29.564 78.222,29.534 78.548,29.535 C78.829,29.536 79.11,29.514 79.39,29.563 C79.9,29.652 80.148,29.92 80.168,30.439 C80.181,30.775 80.17,31.111 80.186,31.457 C80.887,29.939 82.094,29.274 83.717,29.426 C84.976,29.544 85.829,30.269 86.334,31.444 C86.334,31.302 86.334,31.159 86.334,31.017 C86.334,30.614 86.331,30.21 86.336,29.807 C86.339,29.576 86.37,29.539 86.595,29.538 C86.922,29.537 87.252,29.505 87.577,29.573 C87.996,29.661 88.21,29.885 88.277,30.309 C88.307,30.495 88.321,30.681 88.32,30.869 C88.317,31.657 88.319,32.445 88.319,33.232 C88.319,33.298 88.317,33.363 88.32,33.429 C88.33,33.662 88.353,33.691 88.581,33.695 C88.9,33.701 89.219,33.697 89.538,33.697 C89.932,33.697 90.326,33.694 90.72,33.699 C90.977,33.702 91.016,33.739 91.018,33.994 C91.021,34.265 91.041,34.537 90.987,34.808 C90.921,35.139 90.725,35.337 90.396,35.406 C90.23,35.441 90.064,35.461 89.894,35.461 C88.834,35.459 87.774,35.46 86.715,35.46 C86.687,35.46 86.659,35.46 86.631,35.46 C86.365,35.452 86.339,35.431 86.336,35.169 C86.332,34.719 86.335,34.269 86.334,33.819 C86.333,33.729 86.333,33.639 86.333,33.491 Z M82.013,32.498 C81.99,33.208 82.507,33.787 83.233,33.801 C83.97,33.815 84.531,33.253 84.537,32.509 C84.543,31.769 83.982,31.188 83.258,31.186 C82.547,31.183 82.016,31.742 82.013,32.498 Z" id="Shape" fill="#000000" fill-rule="nonzero"></path>
            <path d="M85.873,27.408 C84.872,27.413 83.935,27.189 83.121,26.584 C82.271,25.952 81.83,25.088 81.779,24.035 C81.723,22.862 82.117,21.818 82.779,20.875 C83.907,19.267 85.45,18.237 87.34,17.74 C88.448,17.449 89.568,17.426 90.665,17.819 C92.297,18.403 93.094,19.762 93.031,21.273 C92.991,22.229 92.658,23.105 92.129,23.903 C91.21,25.292 89.959,26.272 88.42,26.891 C87.537,27.245 86.72,27.405 85.873,27.408 Z M89.94,21.414 C89.94,21.283 89.949,21.151 89.939,21.02 C89.864,20.036 89.07,19.406 88.135,19.641 C87.74,19.74 87.374,19.903 87.047,20.148 C86.234,20.756 85.678,21.554 85.329,22.498 C85.138,23.014 85.065,23.551 85.111,24.102 C85.141,24.455 85.248,24.781 85.467,25.064 C85.664,25.318 85.92,25.491 86.242,25.531 C86.658,25.582 87.061,25.536 87.449,25.353 C87.969,25.108 88.398,24.747 88.766,24.318 C89.48,23.484 89.933,22.536 89.94,21.414 Z" id="Shape" fill="#79B621" fill-rule="nonzero"></path>
            <path d="M45.585,23.527 C45.173,23.519 44.761,23.523 44.35,23.475 C43.919,23.426 43.902,23.456 43.893,23.879 C43.892,23.926 43.894,23.973 43.892,24.02 C43.856,24.762 44.282,25.19 44.89,25.368 C45.333,25.498 45.789,25.526 46.253,25.506 C47.262,25.464 48.241,25.253 49.218,25.025 C49.448,24.971 49.509,25.017 49.466,25.239 C49.37,25.736 49.254,26.229 49.149,26.724 C49.123,26.846 49.044,26.886 48.93,26.902 C48.429,26.973 47.929,27.056 47.427,27.12 C46.953,27.18 46.478,27.238 46.002,27.27 C45.138,27.329 44.274,27.324 43.435,27.079 C42.124,26.697 41.262,25.873 40.96,24.506 C40.673,23.209 40.921,22.011 41.594,20.888 C42.179,19.911 42.969,19.131 43.943,18.55 C44.765,18.06 45.675,17.796 46.606,17.595 C46.993,17.512 47.384,17.462 47.776,17.451 C48.601,17.428 49.403,17.537 50.134,17.966 C50.614,18.248 50.955,18.641 51.154,19.161 C51.492,20.042 51.469,20.887 50.903,21.674 C50.614,22.076 50.233,22.379 49.802,22.62 C49.047,23.041 48.231,23.277 47.381,23.408 C46.784,23.501 46.186,23.54 45.585,23.527 Z M44.477,21.56 C44.63,21.517 44.745,21.485 44.859,21.453 C45.385,21.308 45.914,21.217 46.466,21.295 C46.87,21.352 47.269,21.295 47.649,21.134 C48.022,20.976 48.253,20.593 48.216,20.192 C48.179,19.795 47.882,19.497 47.483,19.468 C47.278,19.453 47.074,19.466 46.869,19.507 C46.142,19.653 45.546,20.015 45.069,20.575 C44.829,20.859 44.615,21.161 44.477,21.56 Z" id="Shape" fill="#79B621" fill-rule="nonzero"></path>
            <path d="M69.519,25.48 C69.341,25.615 69.179,25.737 69.018,25.86 C68.252,26.451 67.407,26.884 66.482,27.166 C65.918,27.338 65.34,27.413 64.759,27.34 C63.743,27.212 63.072,26.62 62.918,25.49 C62.813,24.721 62.974,23.979 63.131,23.236 C63.418,21.874 63.892,20.569 64.333,19.253 C64.488,18.791 64.649,18.331 64.811,17.871 C64.898,17.622 64.918,17.598 65.172,17.608 C65.912,17.638 66.652,17.654 67.393,17.666 C67.62,17.669 67.65,17.717 67.593,17.951 C67.427,18.635 67.219,19.306 67.008,19.977 C66.634,21.167 66.238,22.349 65.94,23.561 C65.895,23.743 65.851,23.926 65.822,24.111 C65.707,24.851 66.176,25.407 66.924,25.421 C67.855,25.438 68.614,25.045 69.247,24.398 C69.476,24.164 69.588,23.84 69.729,23.544 C70.371,22.19 70.77,20.753 71.178,19.319 C71.314,18.841 71.45,18.363 71.59,17.886 C71.664,17.633 71.699,17.606 71.968,17.605 C72.681,17.602 73.393,17.602 74.106,17.605 C74.401,17.606 74.425,17.636 74.337,17.914 C74.037,18.852 73.743,19.791 73.472,20.737 C72.916,22.676 72.437,24.633 72.156,26.633 C72.147,26.698 72.129,26.761 72.119,26.826 C72.099,26.961 72.021,27.019 71.887,27.015 C71.66,27.01 71.435,27.013 71.21,27 C70.724,26.971 70.238,26.934 69.753,26.899 C69.541,26.884 69.505,26.855 69.504,26.648 C69.503,26.386 69.494,26.123 69.537,25.862 C69.557,25.745 69.576,25.625 69.519,25.48 Z" id="Path" fill="#79B621"></path>
            <path d="M34.668,27.186 C33.688,27.208 32.685,27.084 31.69,26.886 C31.672,26.882 31.654,26.877 31.635,26.873 C31.313,26.802 31.309,26.797 31.451,26.488 C31.671,26.012 31.893,25.536 32.12,25.062 C32.255,24.78 32.272,24.777 32.541,24.904 C33.329,25.276 34.159,25.5 35.025,25.574 C35.391,25.605 35.754,25.542 36.087,25.363 C36.293,25.252 36.444,25.094 36.542,24.882 C36.695,24.551 36.648,24.241 36.39,23.977 C36.178,23.759 35.915,23.612 35.646,23.477 C35.16,23.232 34.673,22.992 34.187,22.748 C34.112,22.71 34.04,22.666 33.968,22.622 C33.023,22.054 32.885,21.24 33.131,20.374 C33.314,19.728 33.7,19.224 34.219,18.807 C35.19,18.027 36.29,17.59 37.533,17.476 C38.456,17.392 39.366,17.458 40.276,17.6 C40.304,17.604 40.332,17.607 40.359,17.612 C40.686,17.672 40.701,17.697 40.631,18.016 C40.522,18.51 40.414,19.005 40.306,19.499 C40.243,19.787 40.227,19.797 39.954,19.716 C39.404,19.552 38.839,19.467 38.268,19.419 C37.91,19.389 37.555,19.432 37.211,19.536 C36.899,19.63 36.673,19.827 36.549,20.137 C36.415,20.47 36.483,20.759 36.71,21.025 C36.945,21.3 37.244,21.494 37.543,21.688 C37.928,21.938 38.336,22.155 38.683,22.46 C39.401,23.091 39.807,23.849 39.551,24.827 C39.36,25.556 38.928,26.119 38.251,26.481 C37.562,26.85 36.82,27.027 36.052,27.13 C35.604,27.188 35.155,27.186 34.668,27.186 Z" id="Path" fill="#79B621"></path>
            <path d="M78.573,19.466 C78.775,19.229 78.979,19.026 79.206,18.845 C80.02,18.194 80.949,17.829 81.98,17.711 C82.213,17.684 82.445,17.647 82.68,17.664 C82.892,17.679 82.93,17.725 82.862,17.932 C82.638,18.619 82.404,19.302 82.18,19.988 C82.127,20.15 82.025,20.2 81.862,20.197 C81.544,20.191 81.225,20.178 80.911,20.257 C80.175,20.443 79.581,20.848 79.092,21.418 C78.382,22.245 77.952,23.219 77.62,24.243 C77.359,25.048 77.185,25.873 77.052,26.707 C77.019,26.912 76.988,26.942 76.779,26.949 C76.62,26.954 76.459,26.96 76.301,26.944 C75.562,26.873 74.82,26.913 74.08,26.897 C74.042,26.896 74.005,26.898 73.967,26.895 C73.744,26.881 73.715,26.844 73.784,26.638 C73.844,26.46 73.914,26.286 73.979,26.11 C74.527,24.611 74.951,23.074 75.349,21.53 C75.636,20.413 75.915,19.294 76.204,18.177 C76.351,17.607 76.323,17.666 76.854,17.663 C77.285,17.66 77.717,17.662 78.148,17.663 C78.563,17.664 78.603,17.698 78.56,18.119 C78.524,18.475 78.524,18.831 78.517,19.187 C78.517,19.269 78.493,19.356 78.573,19.466 Z" id="Path" fill="#79B621"></path>
        </g>
    </g>
</svg>