<svg width="186" height="48" viewBox="0 0 186 48" fill="none" xmlns="http://www.w3.org/2000/svg">
<g clip-path="url(#clip0)">
<path d="M31 40.7003C28.6 43.0003 25.8 44.5003 22.6 45.0003C15.1 46.1003 8 41.9003 5.6 34.8003C3.1 27.6003 6 19.8003 12.6 16.0003C18.7 12.5003 26.7 13.7003 31.4 18.9003C32.1 19.6003 32.1 19.6003 31.2 19.9003C26.8 21.3003 23.8 25.1003 23.6 29.8003C23.4 34.3003 26 38.5003 30.2 40.3003C30.5 40.4003 30.7 40.6003 31 40.7003Z" fill="#A7DCDA"/>
<path d="M3.3133e-06 23.8008C3.3133e-06 10.1008 11.1 0.200816 23.3 0.000815845C34.7 -0.0991842 46.7 9.00082 47 23.4008C47.3 36.7008 36.7 47.3008 23.8 47.5008C9.5 47.6008 -0.0999967 35.8008 3.3133e-06 23.8008ZM31 40.7008C30.7 40.5008 30.4 40.4008 30.2 40.3008C26 38.5008 23.4 34.3008 23.6 29.8008C23.8 25.1008 26.8 21.2008 31.2 19.9008C32.1 19.6008 32.1 19.6008 31.4 18.9008C26.6 13.7008 18.7 12.5008 12.6 16.0008C6 19.8008 3.1 27.6008 5.6 34.8008C8 41.8008 15.1 46.1008 22.6 45.0008C25.9 44.5008 28.7 43.1008 31 40.7008ZM4.9 22.2008C5 22.0008 5.1 21.8008 5.2 21.6008C8 16.5008 12.2 13.5008 18 12.7008C24.3 11.9008 29.5 14.1008 33.5 19.0008C33.7 19.3008 33.9 19.4008 34.3 19.4008C37.1 19.4008 39.5 20.3008 41.6 22.2008C41.7 22.3008 41.9 22.6008 42.1 22.4008C42.3 22.3008 42.2 22.0008 42.2 21.8008C42.3 20.3008 42.3 18.7008 42 17.2008C40.8 9.60082 35 3.50082 27.2 1.80082C20.4 0.400816 12.6 3.00082 8 9.70082C5.4 13.4008 4.4 17.6008 4.9 22.2008ZM43.7 30.3008C43.7 25.1008 39.5 21.0008 34.4 21.0008C29.2 21.0008 25.1 25.2008 25.1 30.4008C25.1 35.6008 29.2 39.8008 34.4 39.8008C39.6 39.7008 43.7 35.5008 43.7 30.3008Z" fill="black"/>
<path d="M139.1 30.2C138.6 30.3 138.5 30.6 138.3 30.8C136.6 32.3 134.6 32.5 132.5 31.9C131 31.4 130.3 30.3 130.1 28.8C129.6 25.4 131.6 21.6 134.9 19.6C138.1 17.7 141.5 17.5 145 18.3C145.4 18.4 145.6 18.5 145.5 18.9C144.3 23.8 143.6 28.8 142 33.5C141 36.4 138.8 37.9 135.8 38.3C133.6 38.6 131.5 38.4 129.4 37.9C128.9 37.8 128.7 37.6 128.8 37C129 36.4 129 35.5 129.4 35.1C129.9 34.7 130.5 35.4 131.1 35.5C132.8 35.9 134.5 36 136.1 35.2C138.2 34.3 138.6 32.3 139.1 30.2ZM140 20.5C139.6 20.5 139 20.6 138.4 20.8C135.6 22 133.7 25.2 134.1 28.3C134.2 29.3 134.9 29.9 136 29.8C137.4 29.7 138.2 28.9 138.9 27.8C140.2 25.9 140.5 23.7 141 21.6C141.3 20.6 141.2 20.5 140 20.5Z" fill="black"/>
<path d="M95.5 30.3015C94.4 31.4015 93.1 32.1015 91.5 32.2015C88.2 32.4015 86.3 30.4015 86.6 27.1015C87.2 21.9015 91.5 18.8015 95.6 18.1015C97.6 17.8015 99.5 18.0015 101.4 18.3015C102 18.4015 102.1 18.7015 102 19.2015C101 23.5015 100.2 27.9015 99 32.2015C97.9 36.3015 95.8 38.0015 91.6 38.4015C89.7 38.6015 87.8 38.4015 85.9 37.9015C85.4 37.8015 85.2 37.5015 85.4 37.0015C85.6 36.4015 85.6 35.5015 86 35.1015C86.5 34.7015 87.2 35.4015 87.8 35.5015C88.9 35.7015 89.9 35.8015 91 35.7015C93.1 35.4015 94.4 34.2015 95.1 32.2015C95.3 31.5015 95.4 30.8015 95.6 30.2015C95.6 30.1015 95.6 29.9015 95.6 29.9015C95.5 30.0015 95.5 30.2015 95.5 30.3015ZM96.7 20.5015C96.6 20.5015 96.4 20.5015 96.3 20.5015C92.8 21.0015 90.3 25.0015 90.8 28.4015C90.9 29.4015 91.7 29.9015 92.7 29.8015C94 29.7015 94.8 28.9015 95.5 27.9015C96.8 26.0015 97.2 23.7015 97.7 21.5015C97.9 20.6015 97.8 20.5015 96.7 20.5015Z" fill="black"/>
<path d="M63.3 13.6016C64.4 13.6016 65.4 13.6016 66.5 13.6016C71.1 13.6016 73.2 17.6016 71 21.8016C69.5 24.5016 66.9 25.2016 64.1 25.3016C63.2 25.3016 62.2 25.3016 61.3 25.3016C60.7 25.3016 60.5 25.5016 60.4 26.1016C60.1 27.9016 59.7 29.7016 59.3 31.5016C59.2 32.1016 59 32.3016 58.4 32.3016C57.6 32.3016 56.7 32.3016 55.9 32.3016C55.2 32.3016 55.1 32.1016 55.3 31.5016C56.3 27.1016 57.2 22.6016 58.1 18.2016C58.4 16.9016 58.7 15.7016 58.9 14.4016C59 13.8016 59.3 13.6016 59.9 13.6016C60.9 13.6016 62.1 13.6016 63.3 13.6016ZM63.8 16.3016C63.5 16.3016 63.1 16.3016 62.8 16.3016C62.5 16.3016 62.3 16.4016 62.3 16.7016C61.9 18.5016 61.6 20.2016 61.2 22.0016C61.1 22.3016 61.2 22.5016 61.6 22.5016C63 22.5016 64.5 22.5016 65.8 21.9016C67.2 21.3016 67.7 20.1016 67.7 18.6016C67.7 17.6016 67.1 16.8016 66 16.4016C65.2 16.3016 64.5 16.3016 63.8 16.3016Z" fill="black"/>
<path d="M112.3 13.3008C113.5 13.3008 114.7 13.5008 116 13.8008C116.7 14.0008 116.9 14.2008 116.6 14.9008C116.3 15.5008 116.3 16.4008 115.9 16.7008C115.4 17.1008 114.7 16.4008 114.1 16.3008C112.6 16.0008 111.2 15.9008 109.7 16.5008C109.3 16.7008 108.9 16.9008 108.6 17.2008C107.6 18.2008 107.6 19.3008 108.8 20.1008C109.6 20.7008 110.6 21.0008 111.5 21.5008C112.5 22.0008 113.4 22.5008 114.1 23.3008C115.9 25.4008 115.4 28.7008 113 30.5008C110.7 32.3008 108 32.5008 105.2 32.4008C104.1 32.3008 103 32.1008 101.8 31.8008C101.2 31.7008 101.1 31.4008 101.3 30.9008C101.6 30.2008 101.6 29.3008 102 28.9008C102.6 28.4008 103.3 29.2008 103.9 29.3008C105.6 29.6008 107.2 29.8008 108.9 29.1008C109.4 28.9008 109.8 28.6008 110.2 28.2008C111.1 27.1008 110.9 25.9008 109.8 25.1008C108.8 24.4008 107.7 24.0008 106.6 23.4008C105.3 22.7008 104 21.9008 103.6 20.3008C103 18.0008 104.2 15.5008 106.5 14.4008C108.4 13.6008 110.3 13.3008 112.3 13.3008Z" fill="black"/>
<path d="M80.2 29.8008C79.1 31.2008 77.7 32.3008 75.8 32.5008C73 32.7008 71.2 31.0008 71.1 28.2008C71 23.3008 74.6 19.1008 79.7 18.1008C81.8 17.7008 83.8 17.9008 85.9 18.3008C86.6 18.4008 86.7 18.7008 86.6 19.4008C85.9 22.4008 85.3 25.5008 84.6 28.5008C84.4 29.5008 84.2 30.5008 84.3 31.5008C84.3 32.0008 84.2 32.2008 83.6 32.2008C82.7 32.2008 81.8 32.2008 80.9 32.2008C80.4 32.2008 80.3 32.0008 80.4 31.6008C80.5 31.1008 80.5 30.6008 80.6 30.0008C80.7 29.9008 80.8 29.7008 80.6 29.6008C80.3 29.5008 80.2 29.7008 80.2 29.8008ZM75.2 27.4008C75.2 28.3008 75.2 29.2008 76.2 29.6008C77.2 30.0008 78.1 29.7008 78.9 29.0008C79.4 28.6008 79.8 28.1008 80.1 27.6008C81.1 26.0008 81.6 24.1008 82 22.3008C82.1 21.7008 82.7 21.0008 82.2 20.6008C81.6 20.1008 80.8 20.4008 80 20.6008C79.9 20.6008 79.7 20.7008 79.6 20.7008C77 21.9008 75.2 24.6008 75.2 27.4008Z" fill="black"/>
<path d="M170.5 26.1009C170.6 23.7009 171.8 20.8009 174.9 19.0009C177.3 17.7009 179.9 17.4009 182.5 18.5009C184.2 19.2009 185.2 20.6009 185.3 22.4009C185.7 29.0009 180.6 33.7009 174.3 32.2009C171.8 31.6009 170.5 29.7009 170.5 26.1009ZM174.5 26.7009C174.5 27.9009 174.6 29.0009 175.8 29.6009C176.9 30.1009 178.1 29.9009 179 29.0009C180.8 27.2009 181.6 25.0009 181.3 22.5009C181.1 21.1009 180.2 20.4009 178.7 20.4009C177.9 20.4009 177.2 20.8009 176.7 21.3009C175.2 22.9009 174.7 24.8009 174.5 26.7009Z" fill="black"/>
<path d="M154.4 29.901C153.2 31.401 151.8 32.401 149.9 32.501C148.5 32.601 147.2 32.401 146.3 31.101C145.5 30.001 145.6 28.701 145.8 27.501C146.3 24.601 147 21.701 147.6 18.801C147.7 18.301 147.9 18.101 148.4 18.101C149.2 18.101 150 18.101 150.9 18.101C151.5 18.101 151.6 18.201 151.5 18.801C150.9 21.401 150.4 24.101 149.8 26.801C149.7 27.101 149.7 27.301 149.7 27.601C149.6 28.401 149.6 29.301 150.5 29.701C151.4 30.101 152.3 30.001 153.1 29.401C154.3 28.501 154.7 27.201 155 25.801C155.5 23.501 156 21.201 156.4 18.901C156.5 18.301 156.7 18.001 157.4 18.101C158.2 18.201 158.9 18.201 159.7 18.101C160.4 18.101 160.5 18.301 160.3 18.901C159.5 22.801 158.7 26.701 157.9 30.601C157.6 32.101 157.6 32.101 156 32.101C154.2 32.101 154.2 32.101 154.3 30.301C154.4 30.301 154.4 30.201 154.4 29.901Z" fill="black"/>
<path d="M122 32.5013C120.7 32.5013 119.5 32.3013 118.4 31.7013C117.1 31.0013 116.4 30.0013 116.2 28.5013C115.7 23.6013 119 18.6013 124.3 17.9013C125.4 17.8013 126.5 17.8013 127.6 18.2013C130.3 19.0013 131 22.1013 129 24.1013C127.8 25.3013 126.2 25.7013 124.6 26.0013C123.4 26.2013 122.2 26.3013 121 26.3013C120.5 26.3013 120.3 26.5013 120.2 27.0013C119.9 28.7013 120.9 30.0013 122.6 30.2013C124.1 30.4013 125.5 30.1013 126.8 29.4013C127.3 29.1013 127.6 29.0013 127.5 29.8013C127.4 31.6013 127.4 31.5013 125.7 32.1013C124.5 32.4013 123.3 32.5013 122 32.5013ZM120.6 24.2013C122.3 24.2013 123.9 24.1013 125.3 23.3013C126.3 22.8013 126.8 21.8013 126.4 20.9013C126.1 20.2013 125.1 19.9013 124 20.3013C122.3 20.9013 121.4 22.4013 120.6 24.2013Z" fill="black"/>
<path d="M164.8 18.2008C164.9 18.2008 165 18.2008 165.1 18.2008C166.6 18.2008 166.6 18.2008 166.4 19.6008C166.4 19.8008 166.1 20.0008 166.4 20.1008C166.7 20.2008 166.7 20.0008 166.9 19.8008C168 18.6008 169.3 17.8008 171 17.8008C171.6 17.8008 171.9 18.0008 171.7 18.6008C171.6 18.8008 171.6 19.1008 171.5 19.4008C171.3 20.0008 171.3 20.7008 171 21.2008C170.6 21.8008 169.9 21.2008 169.3 21.4008C167.9 21.7008 167 22.5008 166.3 23.7008C165.6 24.9008 165.4 26.2008 165.1 27.5008C164.8 28.9008 164.5 30.3008 164.2 31.7008C164.1 32.2008 164 32.3008 163.5 32.3008C162.6 32.3008 161.7 32.3008 160.9 32.3008C160.3 32.3008 160.2 32.1008 160.3 31.6008C160.9 29.0008 161.4 26.4008 162 23.7008C162.3 22.2008 162.7 20.7008 162.9 19.2008C163 18.5008 163.3 18.2008 164 18.3008C164.2 18.2008 164.5 18.2008 164.8 18.2008Z" fill="black"/>
<path d="M4.9 22.2006C4.4 17.6006 5.4 13.4006 8 9.70056C12.6 3.00056 20.4 0.40056 27.2 1.80056C35 3.50056 40.8 9.60056 42.1 17.2006C42.4 18.7006 42.4 20.3006 42.3 21.8006C42.3 22.0006 42.4 22.2006 42.2 22.4006C42 22.5006 41.8 22.3006 41.7 22.2006C39.6 20.3006 37.2 19.4006 34.4 19.4006C34 19.4006 33.9 19.3006 33.6 19.0006C29.6 14.1006 24.4 11.9006 18.1 12.7006C12.4 13.4006 8.1 16.5006 5.3 21.6006C5.1 21.8006 5 22.0006 4.9 22.2006Z" fill="#DDE460"/>
<path d="M43.7 30.3004C43.7 35.5004 39.5 39.7004 34.4 39.7004C29.3 39.7004 25.1 35.5004 25.1 30.3004C25.1 25.1004 29.2 20.9004 34.4 20.9004C39.6 20.9004 43.7 25.1004 43.7 30.3004Z" fill="#F6DF3F"/>
</g>
<defs>
<clipPath id="clip0">
<rect width="185.4" height="47.5" fill="white"/>
</clipPath>
</defs>
</svg>
