<?xml version="1.0" encoding="UTF-8"?>
<svg width="54px" height="27px" viewBox="0 0 54 27" version="1.1" xmlns="http://www.w3.org/2000/svg" xmlns:xlink="http://www.w3.org/1999/xlink">
    <!-- Generator: Sketch 52.4 (67378) - http://www.bohemiancoding.com/sketch -->
    <title>Artboard</title>
    <desc>Created with Sketch.</desc>
    <defs>
        <linearGradient x1="50.0002279%" y1="-0.00217485863%" x2="50.0002279%" y2="100.002175%" id="linearGradient-1">
            <stop stop-color="#BCCF00" offset="29.8%"></stop>
            <stop stop-color="#65A11E" offset="100%"></stop>
        </linearGradient>
        <linearGradient x1="50.0006816%" y1="-0.0016225864%" x2="50.0006816%" y2="99.9989183%" id="linearGradient-2">
            <stop stop-color="#BCCF00" offset="0%"></stop>
            <stop stop-color="#65A11E" offset="100%"></stop>
        </linearGradient>
        <linearGradient x1="50.0005719%" y1="-0.00209065061%" x2="50.0005719%" y2="99.9949824%" id="linearGradient-3">
            <stop stop-color="#BCCF00" offset="0%"></stop>
            <stop stop-color="#65A11E" offset="100%"></stop>
        </linearGradient>
    </defs>
    <g id="Artboard" stroke="none" stroke-width="1" fill="none" fill-rule="evenodd">
        <path d="M45.8620714,6.78728571 L45.0861429,6.78728571 C44.3025,6.78728571 43.6660714,7.42371429 43.6660714,8.208 L43.6660714,17.1225 C43.6660714,17.1225 43.5927857,18.6730714 41.0175,18.6730714 C38.4422143,18.6730714 38.3689286,17.1225 38.3689286,17.1225 L38.3689286,8.208 C38.3689286,7.42371429 37.7331429,6.78728571 36.9488571,6.78728571 L35.3963571,6.78728571 C34.6127143,6.78728571 33.9762857,7.42307143 33.9762857,8.20735714 L33.9762857,16.7361429 C33.9762857,19.8025714 36.4635,22.2904286 39.5318571,22.2904286 L42.5031429,22.2904286 C45.5715,22.2904286 48.0587143,19.8038571 48.0587143,16.7361429 L48.0587143,10.2754286 L49.7385,10.2754286 C50.094,10.2754286 50.3839286,9.98614286 50.3839286,9.63 L50.3839286,6.399 C50.3839286,6.0435 50.0946429,5.75357143 49.7385,5.75357143 L46.5075,5.75357143 C46.152,5.75357143 45.8620714,6.04285714 45.8620714,6.399 L45.8620714,6.78728571 Z M50.2547143,2.91214286 C50.2547143,2.62607143 50.4855,2.39464286 50.7722143,2.39464286 L53.0961429,2.39464286 C53.3822143,2.39464286 53.6136429,2.62542857 53.6136429,2.91214286 L53.6136429,5.23607143 C53.6136429,5.52214286 53.3828571,5.75357143 53.0961429,5.75357143 L50.7722143,5.75357143 C50.4861429,5.75357143 50.2547143,5.52278571 50.2547143,5.23607143 L50.2547143,2.91214286 Z M48.0587143,0.585 C48.0587143,0.371571429 48.2335714,0.198642857 48.4450714,0.198642857 L49.9975714,0.198642857 C50.211,0.198642857 50.3839286,0.3735 50.3839286,0.585 L50.3839286,2.1375 C50.3839286,2.35092857 50.2090714,2.52385714 49.9975714,2.52385714 L48.4450714,2.52385714 C48.2316429,2.52385714 48.0587143,2.349 48.0587143,2.1375 L48.0587143,0.585 Z M27.6795,22.293 C27.6332143,22.3013571 27.3863571,22.3392857 27.3863571,22.3392857 C24.8843571,22.6639286 24.3880714,20.8054286 23.9541429,19.3872857 L21.7755,11.2821429 C21.6642857,10.8681429 21.9201429,10.5332143 22.3495714,10.5332143 L22.8657857,10.5332143 C23.2939286,10.5332143 23.7310714,10.8681429 23.8429286,11.2821429 C23.8429286,11.2821429 25.2295714,16.4410714 26.0241429,19.3956429 C26.2600714,19.9941429 26.5622143,20.5482857 27.2172857,20.5482857 C27.8723571,20.5482857 28.2156429,20.4132857 28.5158571,19.296 L30.4071429,11.2879286 C30.5055,10.8713571 30.9323571,10.5332143 31.3611429,10.5332143 L31.8696429,10.5332143 C32.2984286,10.5332143 32.5632857,10.8713571 32.4617143,11.2866429 L29.961,21.5286429 C28.8096429,26.0485714 27.3304286,26.7055714 24.9396429,26.8013571 C24.21,26.7062143 23.8345714,25.2250714 24.4298571,24.9859286 C24.4298571,24.9859286 25.6345714,24.9942857 26.3314286,24.489 C27.0842143,23.9432143 27.4043571,23.0702143 27.5785714,22.5726429 C27.5875714,22.5713571 27.6672857,22.3212857 27.6795,22.293 Z" id="Shape" fill="url(#linearGradient-1)" fill-rule="nonzero"></path>
        <path d="M18.99,15.3135 L15.0505714,15.3135 C13.1592857,15.3135 11.6254286,16.8460714 11.6254286,18.7373571 C11.6254286,20.6286429 13.1586429,22.1612143 15.0505714,22.1612143 L17.6322857,22.1612143 C19.5235714,22.1612143 21.0574286,20.6286429 21.0574286,18.7373571 L21.0574286,15.8303571 L21.0574286,13.7635714 C21.0574286,10.2754286 17.307,10.2754286 16.2771429,10.2754286 C14.9445,10.2754286 13.302,10.4766429 13.302,10.4766429 C13.0178571,10.5075 12.789,10.7646429 12.789,11.0494286 L12.789,11.8266429 C12.789,12.1114286 13.0185,12.3184286 13.3013571,12.2882143 C13.3013571,12.2882143 15.1026429,12.0844286 16.1762143,12.0844286 C17.2028571,12.0844286 18.99,12.0844286 18.99,13.7635714 L18.99,15.3135 Z M13.6928571,18.6730714 C13.6928571,17.6740714 14.5028571,16.8640714 15.5012143,16.8640714 L18.99,16.8640714 L18.99,18.6730714 C18.99,19.6720714 18.18,20.4820714 17.1816429,20.4820714 L15.5005714,20.4820714 C14.5022143,20.4814286 13.6928571,19.6720714 13.6928571,18.6730714 Z" id="Shape" fill="url(#linearGradient-2)" fill-rule="nonzero"></path>
        <path d="M7.36264286,6.78728571 L2.583,6.78728571 C1.36864286,6.78728571 0.385714286,7.77085714 0.385714286,8.98392857 L0.385714286,21.5157857 C0.385714286,21.8719286 0.675642857,22.1618571 1.03307143,22.1618571 L1.935,22.1618571 C2.29242857,22.1618571 2.58235714,21.8725714 2.58235714,21.5151429 L2.58235714,16.7355 L7.36264286,16.7355 C9.71678571,16.7355 11.6260714,14.8275 11.6260714,12.4733571 L11.6260714,11.0494286 C11.6260714,8.69592857 9.71742857,6.78728571 7.36264286,6.78728571 Z M6.65035714,14.6680714 L2.58171429,14.6680714 L2.58171429,9.48728571 C2.58171429,9.13757143 2.86392857,8.85407143 3.21621429,8.85407143 L6.65035714,8.85407143 C8.25621429,8.85407143 9.55864286,10.1552143 9.55864286,11.7610714 C9.55864286,13.3662857 8.25878571,14.6680714 6.65035714,14.6680714 Z" id="Shape" fill="url(#linearGradient-3)" fill-rule="nonzero"></path>
        <path d="M45.8620714,6.78728571 L46.638,6.78728571 C47.4222857,6.78728571 48.0580714,7.425 48.0580714,8.20735714 L48.0580714,10.2754286 L46.5075,10.2754286 C46.1507143,10.2754286 45.8620714,9.9855 45.8620714,9.63 L45.8620714,6.78728571 Z" id="Path" fill="#8BA800"></path>
    </g>
</svg>