<svg width="80" height="41" viewBox="0 0 80 41" fill="none" xmlns="http://www.w3.org/2000/svg">
<path d="M68.302 10.7125H67.1521C65.9908 10.7125 65.0477 11.6556 65.0477 12.8178V26.0284C65.0477 26.0284 64.9391 28.3263 61.1227 28.3263C57.3064 28.3263 57.1977 26.0284 57.1977 26.0284V12.8178C57.1977 11.6556 56.2556 10.7125 55.0933 10.7125H52.7926C51.6313 10.7125 50.6882 11.6546 50.6882 12.8169V25.4559C50.6882 30.0001 54.3741 33.6869 58.9211 33.6869H63.3243C67.8714 33.6869 71.5572 30.002 71.5572 25.4559V15.8816H74.0466C74.5734 15.8816 75.003 15.4529 75.003 14.9251V10.137C75.003 9.61023 74.5743 9.18057 74.0466 9.18057H69.2585C68.7316 9.18057 68.302 9.60927 68.302 10.137V10.7125ZM74.8115 4.9698C74.8115 4.54587 75.1535 4.20291 75.5784 4.20291H79.0223C79.4463 4.20291 79.7892 4.54491 79.7892 4.9698V8.41368C79.7892 8.83762 79.4472 9.18057 79.0223 9.18057H75.5784C75.1545 9.18057 74.8115 8.83857 74.8115 8.41368V4.9698ZM71.5572 1.52116C71.5572 1.20487 71.8164 0.948608 72.1298 0.948608H74.4305C74.7468 0.948608 75.003 1.20773 75.003 1.52116V3.82184C75.003 4.13813 74.7439 4.39439 74.4305 4.39439H72.1298C71.8135 4.39439 71.5572 4.13527 71.5572 3.82184V1.52116ZM41.3569 33.6907C41.2883 33.7031 40.9225 33.7593 40.9225 33.7593C37.2147 34.2404 36.4792 31.4862 35.8362 29.3847L32.6076 17.3735C32.4428 16.76 32.822 16.2636 33.4583 16.2636H34.2233C34.8578 16.2636 35.5056 16.76 35.6714 17.3735C35.6714 17.3735 37.7263 25.0186 38.9038 29.397C39.2534 30.284 39.7011 31.1052 40.6719 31.1052C41.6427 31.1052 42.1514 30.9051 42.5963 29.2494L45.399 17.3821C45.5448 16.7647 46.1773 16.2636 46.8128 16.2636H47.5663C48.2018 16.2636 48.5943 16.7647 48.4437 17.3801L44.7379 32.558C43.0316 39.2562 40.8396 40.2298 37.2966 40.3717C36.2153 40.2307 35.659 38.0358 36.5412 37.6814C36.5412 37.6814 38.3264 37.6938 39.3591 36.945C40.4747 36.1362 40.9491 34.8425 41.2073 34.1051C41.2206 34.1032 41.3388 33.7326 41.3569 33.6907Z" fill="url(#paint0_linear)"/>
<path d="M28.4794 23.3474H22.6415C19.8387 23.3474 17.5657 25.6185 17.5657 28.4213C17.5657 31.224 19.8378 33.4951 22.6415 33.4951H26.4674C29.2701 33.4951 31.5432 31.224 31.5432 28.4213V24.1133V21.0505C31.5432 15.8813 25.9853 15.8813 24.4591 15.8813C22.4843 15.8813 20.0502 16.1795 20.0502 16.1795C19.6291 16.2253 19.29 16.6063 19.29 17.0284V18.1801C19.29 18.6022 19.6301 18.9089 20.0493 18.8641C20.0493 18.8641 22.7186 18.5621 24.3096 18.5621C25.831 18.5621 28.4794 18.5621 28.4794 21.0505V23.3474ZM20.6294 28.326C20.6294 26.8456 21.8298 25.6452 23.3093 25.6452H28.4794V28.326C28.4794 29.8064 27.279 31.0068 25.7995 31.0068H23.3083C21.8288 31.0058 20.6294 29.8064 20.6294 28.326Z" fill="url(#paint1_linear)"/>
<path d="M11.2494 10.7125H4.16636C2.36678 10.7125 0.910156 12.17 0.910156 13.9677V32.5389C0.910156 33.0667 1.33981 33.4964 1.86949 33.4964H3.20607C3.73576 33.4964 4.16541 33.0677 4.16541 32.538V25.4549H11.2494C14.7381 25.4549 17.5675 22.6274 17.5675 19.1388V17.0286C17.5675 13.5409 14.739 10.7125 11.2494 10.7125ZM10.1939 22.3912H4.16445V14.7136C4.16445 14.1954 4.58267 13.7753 5.10473 13.7753H10.1939C12.5736 13.7753 14.5037 15.7035 14.5037 18.0832C14.5037 20.462 12.5774 22.3912 10.1939 22.3912Z" fill="url(#paint2_linear)"/>
<path fill-rule="evenodd" clip-rule="evenodd" d="M68.3015 10.7125H69.4514C70.6136 10.7125 71.5558 11.6575 71.5558 12.8169V15.8816H69.258C68.7293 15.8816 68.3015 15.452 68.3015 14.9251V10.7125Z" fill="#8BA800"/>
<defs>
<linearGradient id="paint0_linear" x1="56.1793" y1="0.947751" x2="56.1793" y2="40.3726" gradientUnits="userSpaceOnUse">
<stop offset="0.298" stop-color="#BCCF00"/>
<stop offset="1" stop-color="#65A11E"/>
</linearGradient>
<linearGradient id="paint1_linear" x1="24.5545" y1="15.8811" x2="24.5545" y2="33.495" gradientUnits="userSpaceOnUse">
<stop stop-color="#BCCF00"/>
<stop offset="1" stop-color="#65A11E"/>
</linearGradient>
<linearGradient id="paint2_linear" x1="9.23891" y1="10.712" x2="9.23891" y2="33.4952" gradientUnits="userSpaceOnUse">
<stop stop-color="#BCCF00"/>
<stop offset="1" stop-color="#65A11E"/>
</linearGradient>
</defs>
</svg>
