<svg width="80" height="19" viewBox="0 0 80 19" fill="none" xmlns="http://www.w3.org/2000/svg">
<path d="M8.40725 0.00612053C6.20623 0.180616 4.27885 1.04119 2.73021 2.54027C1.77049 3.47223 1.04078 4.58265 0.566865 5.84179C0.301157 6.54572 0.13261 7.2556 0.037431 8.07454C-0.0121415 8.49293 -0.0121415 9.53593 0.0354481 9.96424C0.225806 11.6477 0.826625 13.1627 1.82601 14.4892C2.77581 15.7484 4.0409 16.7299 5.51222 17.3525C5.653 17.412 5.77198 17.4576 5.77594 17.4536C5.78189 17.4497 5.76801 17.2554 5.74818 17.0234C5.70059 16.4622 5.69861 15.5183 5.7462 15.1654C5.76404 15.0246 6.00001 13.9578 6.29546 12.659C6.581 11.4137 6.80903 10.3727 6.80507 10.345C6.79912 10.3172 6.75946 10.1962 6.71584 10.0773C6.57902 9.7025 6.54531 9.48636 6.54332 9.02633C6.54332 8.58613 6.56712 8.42155 6.67618 8.09833C6.85266 7.56692 7.18975 7.14258 7.58831 6.94825C7.82229 6.83523 7.94127 6.80747 8.18913 6.80945C8.83556 6.8154 9.18058 7.14852 9.24998 7.83262C9.29162 8.24507 9.24007 8.50879 8.88116 9.74017C8.71658 10.2974 8.59364 10.7633 8.52424 11.0885C8.50045 11.1936 8.49053 11.3324 8.49053 11.505C8.49053 11.729 8.49846 11.7845 8.54209 11.9214C8.60554 12.1157 8.68485 12.2426 8.82564 12.3794C8.95056 12.4984 9.19049 12.6253 9.38878 12.6729C9.57319 12.7205 9.87658 12.7344 10.0233 12.7066C10.404 12.6312 10.9097 12.3021 11.34 11.85C11.9071 11.2531 12.3255 10.4877 12.5218 9.68664C12.6249 9.27023 12.6487 9.05012 12.6487 8.56035C12.6487 7.79098 12.5257 7.22189 12.2382 6.66073C11.7326 5.66928 10.7788 5.0645 9.47801 4.90983C9.18653 4.87612 8.60752 4.88009 8.35966 4.91975C7.04896 5.12398 5.89293 6.00043 5.2941 7.24172C5.05417 7.74141 4.93519 8.20937 4.91338 8.73881C4.8995 9.06599 4.92329 9.31187 4.99864 9.64896C5.11365 10.1625 5.28418 10.5532 5.57963 10.9775C5.61334 11.0271 5.6411 11.0905 5.6411 11.1223C5.6411 11.2373 5.421 12.2188 5.37936 12.2842C5.30005 12.4131 5.23064 12.4171 5.02641 12.306C4.38989 11.961 3.82873 11.2055 3.52139 10.2795C3.33301 9.70646 3.26956 9.27023 3.2874 8.67932C3.33301 7.25957 3.89417 5.96672 4.87967 5.00898C5.78189 4.1365 6.9399 3.61896 8.38742 3.4405C8.68089 3.40481 9.86865 3.40481 10.1919 3.4405C11.9586 3.63681 13.19 4.30108 13.9871 5.49082C14.7763 6.67263 15.0222 8.58018 14.5919 10.226C14.1121 12.0721 12.9005 13.4997 11.3895 14.0034C10.3683 14.3425 9.3987 14.2592 8.6452 13.7674C8.45087 13.6405 8.23077 13.4284 8.15145 13.2935C8.11973 13.242 8.08998 13.2003 8.08404 13.2003C8.0761 13.2003 7.9492 13.6405 7.80445 14.1779C7.46339 15.4232 7.40787 15.6096 7.27501 15.9466C7.09457 16.3987 6.65437 17.2673 6.41443 17.6361C6.39857 17.6599 6.39064 17.6837 6.39659 17.6896C6.41443 17.7094 7.04698 17.8601 7.30674 17.9077C7.90359 18.0168 8.42906 18.0624 9.03186 18.0565C11.3459 18.0346 13.5806 17.1047 15.2364 15.4747C16.3944 14.3326 17.1915 12.9763 17.6178 11.4217C17.8419 10.6067 17.9351 9.89484 17.9351 9.01641C17.9351 7.98729 17.7983 7.14059 17.479 6.18087C16.8266 4.21582 15.5655 2.57596 13.8503 1.4576C13.4815 1.21767 13.307 1.11853 12.8906 0.914288C11.9606 0.456239 10.9751 0.170701 9.89442 0.0437956C9.62871 0.0120692 8.64123 -0.0117256 8.40725 0.00612053Z" fill="#E60023"/>
<path d="M31.2063 3.05749C30.6729 3.17448 30.2783 3.54924 30.1335 4.07273C30.078 4.26904 30.074 4.58234 30.1236 4.77269C30.2505 5.25454 30.5955 5.61741 31.0774 5.77802C31.2082 5.81966 31.2737 5.82958 31.464 5.83156C31.7278 5.83354 31.8448 5.80975 32.0688 5.70466C32.4594 5.52223 32.7371 5.19109 32.8461 4.77269C32.8878 4.61604 32.8917 4.273 32.854 4.11834C32.8164 3.96367 32.6934 3.70589 32.5923 3.57106C32.4238 3.34897 32.1283 3.15068 31.8507 3.07732C31.6822 3.03171 31.3649 3.02179 31.2063 3.05749Z" fill="#E60023"/>
<path d="M21.306 13.9132H23.7449V10.4233H24.9426C26.2335 10.4233 26.3961 10.4134 26.8085 10.3143C27.1059 10.2449 27.2963 10.1755 27.5818 10.0347C28.3512 9.65793 28.8945 9.02737 29.1681 8.19852C29.5191 7.12775 29.3545 5.83887 28.7517 4.9307C28.601 4.70465 28.2183 4.33186 27.9606 4.15935C27.4391 3.81234 26.8363 3.60414 26.0649 3.50103C25.9519 3.48516 25.1528 3.47525 23.6021 3.4693L21.306 3.46137V13.9132ZM25.9479 5.72981C26.3941 5.83688 26.6796 6.04112 26.8402 6.3683C26.9552 6.60228 26.985 6.74108 26.983 7.03257C26.979 7.74047 26.6241 8.2124 25.9658 8.38293C25.8051 8.42457 25.7496 8.42655 24.7721 8.43448L23.7449 8.4444V5.68023L24.782 5.69015C25.6346 5.69808 25.8408 5.70403 25.9479 5.72981Z" fill="#E60023"/>
<path d="M42.4135 6.43959H41.6798V7.90694L42.0823 7.9109L42.4829 7.91685L42.4948 10.1972C42.5047 12.4299 42.5047 12.4815 42.5463 12.6461C42.7129 13.3163 43.052 13.697 43.6627 13.9012C44.0414 14.0262 44.317 14.0539 45.2193 14.0539H45.9529L45.9192 13.2469C45.9014 12.8007 45.8855 12.3883 45.8855 12.3268L45.8835 12.2138L45.5821 12.2039C45.1578 12.19 45.015 12.1384 44.8881 11.9481C44.781 11.7895 44.785 11.8608 44.7771 9.81449L44.7731 7.90694H45.8835V6.43959H44.7731V4.06011H42.4135V6.43959Z" fill="#E60023"/>
<path d="M76.3911 6.43959H75.6376V7.90694L76.0104 7.9109L76.3812 7.91685L76.3911 10.1873C76.403 12.4022 76.403 12.4617 76.4447 12.6362C76.6449 13.4947 77.1783 13.9191 78.2055 14.0341C78.3046 14.044 78.729 14.0539 79.1533 14.0539H79.9207V12.2098H79.649C79.2048 12.2098 78.9947 12.1424 78.8697 11.9639C78.7488 11.7855 78.7508 11.8311 78.7508 9.77681V7.90694H80V6.43959H78.7508V4.06011H76.3911V6.43959Z" fill="#E60023"/>
<path d="M37.9463 6.24933C37.5815 6.3108 37.2583 6.4377 36.9628 6.63798C36.7705 6.76686 36.4631 7.06232 36.2767 7.29431C36.0586 7.56597 36.0626 7.57192 36.0626 6.95326V6.4377H33.7822V13.9132H36.1419V11.7439C36.1419 9.35851 36.1399 9.39024 36.2628 9.07298C36.3917 8.73787 36.6198 8.47811 36.9053 8.34129C37.1175 8.24016 37.2424 8.21438 37.4903 8.21438C38.1664 8.22033 38.559 8.59113 38.6384 9.29903C38.6522 9.42395 38.6602 10.2548 38.6602 11.7023V13.9132H41.0218L41.0139 11.2998C41.0079 8.39681 41.0178 8.63277 40.8711 8.1886C40.7858 7.93281 40.7026 7.76624 40.5201 7.49657C40.3496 7.24078 40.0026 6.88385 39.7567 6.70936C39.4474 6.48926 39.0686 6.31476 38.7534 6.24933C38.5888 6.21363 38.1565 6.21363 37.9463 6.24933Z" fill="#E60023"/>
<path d="M49.6634 6.2611C48.9833 6.36619 48.4202 6.60414 47.9086 7.00469C47.6924 7.17323 47.3415 7.54205 47.1809 7.7681C47.0262 7.98622 46.82 8.37289 46.7188 8.64256C46.6237 8.88844 46.5206 9.28899 46.4789 9.58246C46.4373 9.86601 46.4313 10.5224 46.469 10.7821C46.5662 11.4821 46.7704 12.0472 47.1035 12.5469C47.6607 13.3876 48.4757 13.8953 49.5742 14.0876C49.8637 14.1372 50.8274 14.1372 51.1506 14.0876C51.5888 14.0182 51.9319 13.9171 52.2967 13.7446C53.1553 13.3401 53.7581 12.656 54.0119 11.7974L54.0437 11.6942H51.6761L51.5769 11.8886C51.4282 12.182 51.2894 12.299 50.996 12.3803C50.8393 12.424 50.3039 12.4398 50.1037 12.4081C49.5643 12.3208 49.1737 12.0234 48.9318 11.5138C48.8465 11.3353 48.7612 11.0637 48.7394 10.9011L48.7255 10.8019H54.1904L54.1785 10.5283C54.127 9.39805 53.657 8.08339 53.0483 7.36954C52.6636 6.91744 51.9359 6.49905 51.2399 6.32852C50.7798 6.21748 50.1274 6.18773 49.6634 6.2611ZM50.6846 7.96045C51.0733 8.05761 51.4183 8.36297 51.6007 8.7774C51.6602 8.91025 51.7455 9.23347 51.7455 9.32666V9.39408H48.7949L48.8128 9.30882C48.8901 8.95983 49.0567 8.63463 49.2827 8.39668C49.6674 7.99415 50.181 7.83354 50.6846 7.96045Z" fill="#E60023"/>
<path d="M63.1948 6.25299C62.1062 6.40567 61.194 6.9708 60.613 7.84724C59.9607 8.83076 59.7683 10.2307 60.1133 11.466C60.2244 11.8666 60.4366 12.3167 60.6705 12.6459C60.7439 12.749 60.9006 12.9354 61.0215 13.0583C61.6263 13.6849 62.3818 14.0478 63.3514 14.1767C63.6231 14.2123 64.3191 14.2064 64.6125 14.1667C65.8717 13.9942 66.8909 13.3022 67.3529 12.3088C67.4243 12.1561 67.5353 11.8448 67.5353 11.7992C67.5353 11.7773 67.3172 11.7734 66.3615 11.7734H65.1856L65.1281 11.8924C65.025 12.1105 64.7692 12.2988 64.4718 12.3801C64.2854 12.4297 63.8511 12.4396 63.6469 12.398C62.9489 12.2572 62.473 11.7119 62.3144 10.8652L62.3025 10.8018H67.694V10.6273C67.694 10.4171 67.6622 10.0522 67.6226 9.77065C67.462 8.66023 67.0019 7.7362 66.3 7.11555C65.7309 6.61388 65.2649 6.37196 64.67 6.26885C64.4103 6.22324 63.4724 6.21333 63.1948 6.25299ZM64.2497 7.97018C64.4757 8.03165 64.6125 8.11493 64.7989 8.30331C64.9397 8.44211 64.9853 8.50358 65.0607 8.66023C65.1559 8.85257 65.2233 9.07862 65.2471 9.28088L65.2609 9.3939H62.3005L62.3124 9.33838C62.4373 8.77722 62.6277 8.41831 62.9152 8.20218C63.1135 8.05148 63.395 7.94837 63.6786 7.91862C63.8233 7.90474 64.1049 7.92854 64.2497 7.97018Z" fill="#E60023"/>
<path d="M71.008 6.23572C69.2333 6.38444 68.341 7.1895 68.341 8.64098C68.341 8.79168 68.3549 8.98799 68.3708 9.0792C68.5413 10.0548 69.3067 10.6715 70.7166 10.9689C70.8454 10.9967 71.1964 11.0601 71.4958 11.1097C72.3346 11.2505 72.5864 11.3258 72.751 11.4904C72.8482 11.5876 72.8739 11.6411 72.9017 11.7997C72.9493 12.0654 72.8561 12.3549 72.6876 12.4779C72.4972 12.6147 72.2711 12.6544 71.7239 12.6425C71.359 12.6345 71.3114 12.6286 71.1667 12.581C70.7939 12.4561 70.5738 12.2518 70.4489 11.9128L70.3973 11.774H68.1844L68.1943 11.8374C68.234 12.0793 68.2716 12.234 68.3232 12.3847C68.7138 13.4951 69.8857 14.1951 71.4839 14.2704C72.985 14.3398 74.139 13.977 74.7161 13.2552C75.0175 12.8804 75.1682 12.4501 75.1959 11.9009C75.2475 10.8539 74.718 10.0726 73.6572 9.6245C73.2031 9.43216 72.8085 9.32905 72.0867 9.21404C71.1667 9.06929 70.897 8.98799 70.7047 8.79763C70.5916 8.68659 70.554 8.59141 70.554 8.42286C70.554 8.08577 70.6928 7.90731 71.0279 7.81411C71.1984 7.76652 71.6941 7.75661 71.9202 7.79825C72.3762 7.87955 72.6618 8.13732 72.7451 8.53589L72.7708 8.66081H74.9857L74.9738 8.58546C74.8668 7.9192 74.6625 7.48495 74.2818 7.10225C73.794 6.61644 73.104 6.33487 72.17 6.24167C71.9836 6.22383 71.2004 6.21986 71.008 6.23572Z" fill="#E60023"/>
<path d="M58.9068 6.37996C58.2425 6.46522 57.7012 6.82016 57.3066 7.43089C57.1103 7.73626 57.1123 7.74023 57.1123 7.03233V6.43746H54.832V13.9923L56.0078 13.9883L57.1817 13.9824L57.1916 12.0392C57.2035 10.1594 57.2055 10.09 57.2451 9.91745C57.3562 9.43957 57.5624 9.05886 57.8341 8.83082C58.1751 8.54528 58.5658 8.42036 59.1071 8.42036C59.3867 8.42036 59.3926 8.42036 59.4006 8.37475C59.4065 8.35096 59.4204 8.01387 59.4323 7.6272C59.4442 7.24054 59.4581 6.79637 59.466 6.63972L59.4779 6.35815L59.2617 6.36013C59.1428 6.36211 58.9841 6.37203 58.9068 6.37996Z" fill="#E60023"/>
<path d="M30.314 13.9923L31.4898 13.9883L32.6637 13.9824L32.6736 6.43746H30.314V13.9923Z" fill="#E60023"/>
</svg>
