<svg width="22" height="23" viewBox="0 0 22 23" fill="none" xmlns="http://www.w3.org/2000/svg">
<path d="M4.84202 16.831C5.2666 16.8325 5.68724 16.7496 6.07953 16.5871C6.47182 16.4247 6.82794 16.186 7.12722 15.8848L10.4259 12.5862C10.5429 12.4746 10.6985 12.4123 10.8602 12.4123C11.022 12.4123 11.1775 12.4746 11.2946 12.5862L14.6061 15.8984C14.9059 16.1992 15.2623 16.4376 15.6548 16.5998C16.0473 16.762 16.468 16.8447 16.8927 16.8432H17.5432L13.3629 21.0215C13.0529 21.3322 12.6845 21.5788 12.2791 21.747C11.8736 21.9152 11.4389 22.0018 10.9999 22.0018C10.5609 22.0018 10.1262 21.9152 9.72074 21.747C9.31526 21.5788 8.94694 21.3322 8.63687 21.0215L4.43962 16.831H4.84202ZM16.8927 5.15824C16.4682 5.15696 16.0477 5.23986 15.6554 5.40215C15.2632 5.56444 14.907 5.8029 14.6075 6.10372L11.3007 9.41734C11.1855 9.53227 11.0294 9.59682 10.8667 9.59682C10.704 9.59682 10.5479 9.53227 10.4327 9.41734L7.13402 6.118C6.83478 5.81677 6.47867 5.57801 6.08637 5.41558C5.69407 5.25316 5.27341 5.1703 4.84881 5.17183H4.43962L8.63687 0.978663C9.26363 0.352029 10.1136 0 10.9999 0C11.8862 0 12.7362 0.352029 13.3629 0.978663L17.5432 5.15756L16.8927 5.15824Z" fill="#4AB7A8"/>
<path d="M0.979227 8.63771L3.47514 6.14111H4.84205C5.44156 6.14179 6.01592 6.37901 6.44143 6.80044L9.74009 10.0991C9.88707 10.2469 10.0618 10.3642 10.2543 10.4442C10.4468 10.5243 10.6532 10.5655 10.8616 10.5655C11.0701 10.5655 11.2765 10.5243 11.4689 10.4442C11.6614 10.3642 11.8362 10.2469 11.9832 10.0991L15.2947 6.78752C15.7202 6.36565 16.2949 6.12872 16.8941 6.1282H18.5145L21.0213 8.63499C21.648 9.26175 22 10.1117 22 10.998C22 11.8843 21.648 12.7343 21.0213 13.3611L18.5145 15.8678H16.8927C16.2939 15.8678 15.7189 15.6299 15.2934 15.2085L11.9825 11.8956C11.6804 11.6071 11.2787 11.4461 10.8609 11.4461C10.4432 11.4461 10.0415 11.6071 9.73941 11.8956L6.44075 15.1943C6.01524 15.6157 5.44088 15.8536 4.84137 15.8536H3.47514L0.979227 13.3638C0.668786 13.0535 0.42252 12.6851 0.254501 12.2797C0.0864807 11.8742 0 11.4396 0 11.0007C0 10.5618 0.0864807 10.1273 0.254501 9.7218C0.42252 9.31634 0.668786 8.94796 0.979227 8.63771Z" fill="#4AB7A8"/>
</svg>
