<svg width="144" height="28" viewBox="0 0 144 28" fill="none" xmlns="http://www.w3.org/2000/svg">
<path d="M50.1412 5.05908H58.772C60.6544 5.05908 61.9402 5.52129 62.6378 6.43732C63.3353 7.35334 63.4613 8.65594 63.0159 10.3535C62.5621 12.0931 61.6965 13.4546 60.4191 14.4294C59.1417 15.4127 57.461 15.9001 55.36 15.9001H52.5195L50.8471 22.2954H45.6367L50.1412 5.05908ZM53.4355 12.4041H54.7045C55.7046 12.4041 56.4525 12.2276 56.9567 11.8662C57.4526 11.5133 57.7803 11.051 57.9232 10.4964C58.066 9.95854 58.0072 9.49633 57.7551 9.11815C57.503 8.73998 56.8895 8.55509 55.9231 8.55509H54.444L53.4355 12.4041Z" fill="#EE342B"/>
<path d="M66.1758 5.05908H71.3694L67.9742 18.0515H76.0839L74.9746 22.2954H61.6797L66.1758 5.05908Z" fill="#EE342B"/>
<path d="M81.1095 5.05908H86.3115L81.807 22.2954H76.605L81.1095 5.05908Z" fill="#EE342B"/>
<path d="M89.0427 5.05908H95.875L95.7658 15.5471L101.119 5.05908H107.943L103.439 22.2954H99.1861L102.623 9.15177L95.9086 22.2954H92.0597L92.2193 9.15177L88.7821 22.2954H84.5298L89.0427 5.05908Z" fill="#EE342B"/>
<path d="M107.413 13.6815C108.145 10.8662 109.489 8.6812 111.422 7.10968C113.363 5.53815 115.691 4.75659 118.423 4.75659C121.221 4.75659 123.171 5.52975 124.288 7.06766C125.398 8.60557 125.591 10.7654 124.868 13.5386C124.339 15.5556 123.583 17.2027 122.582 18.4969C121.582 19.7827 120.364 20.7912 118.927 21.5055C117.49 22.2198 115.843 22.5812 113.977 22.5812C112.078 22.5812 110.59 22.2703 109.514 21.6484C108.43 21.0265 107.682 20.0516 107.262 18.707C106.834 17.3792 106.884 15.6984 107.413 13.6815ZM112.599 13.7067C112.145 15.4463 112.136 16.6985 112.565 17.4548C112.994 18.2112 113.758 18.5978 114.843 18.5978C115.96 18.5978 116.918 18.228 117.725 17.4801C118.532 16.7321 119.187 15.3959 119.692 13.4714C120.112 11.8495 120.103 10.6645 119.666 9.91657C119.221 9.16863 118.456 8.79045 117.364 8.79045C116.313 8.79045 115.38 9.16863 114.54 9.93338C113.708 10.6981 113.061 11.9503 112.599 13.7067Z" fill="#EE342B"/>
<path d="M124.507 22.2871L129.012 5.05078H137.668C139.273 5.05078 140.466 5.19365 141.239 5.47097C142.013 5.75671 142.559 6.27775 142.878 7.0425C143.198 7.80725 143.214 8.74008 142.929 9.83259C142.676 10.7906 142.265 11.6142 141.685 12.3033C141.105 13.0008 140.416 13.5555 139.601 13.9925C139.088 14.2698 138.416 14.4967 137.601 14.6732C138.164 14.8833 138.559 15.0934 138.786 15.3119C138.937 15.4548 139.138 15.7573 139.382 16.2195C139.626 16.6817 139.777 17.0431 139.828 17.2868L141.038 22.2787H135.172L133.768 17.0095C133.592 16.3288 133.399 15.8834 133.172 15.6817C132.869 15.4128 132.474 15.2783 132.004 15.2783H131.541L129.709 22.2703H124.507V22.2871ZM132.407 12.0428H134.6C134.836 12.0428 135.315 11.9672 136.037 11.8075C136.399 11.7403 136.727 11.5554 137.021 11.2696C137.315 10.9839 137.508 10.6478 137.609 10.2696C137.752 9.71493 137.693 9.28633 137.424 8.9922C137.155 8.69806 136.55 8.54679 135.6 8.54679H133.323L132.407 12.0428Z" fill="#EE342B"/>
<path d="M44.334 27.7076L45.4097 23.5981H48.3762L48.1914 24.2957H46.0316L45.7963 25.2033H47.8048L47.6199 25.9008H45.6114L45.3172 27.0101H47.5527L47.3678 27.7076H44.334V27.7076Z" fill="#EE342B"/>
<path d="M47.9811 26.3714L48.7879 26.2958C48.7627 26.5647 48.8047 26.7664 48.9224 26.8925C49.0316 27.0185 49.2165 27.0857 49.4602 27.0857C49.7207 27.0857 49.9308 27.0269 50.0905 26.9177C50.2502 26.8084 50.351 26.674 50.393 26.5227C50.4183 26.4218 50.4099 26.3462 50.3762 26.2706C50.3342 26.2033 50.2586 26.1445 50.1325 26.0941C50.0485 26.0605 49.8468 26.0016 49.5274 25.9176C49.1241 25.8084 48.8551 25.6739 48.7207 25.5142C48.5358 25.2873 48.4854 25.01 48.5694 24.6906C48.6282 24.4805 48.7291 24.2872 48.8972 24.1024C49.0568 23.9175 49.2669 23.783 49.5022 23.6822C49.746 23.5897 50.0233 23.5393 50.3258 23.5393C50.8301 23.5393 51.1746 23.6486 51.3763 23.8755C51.5696 24.1024 51.6284 24.4049 51.5444 24.7831L50.7292 24.8167C50.746 24.6066 50.7124 24.4553 50.6284 24.3629C50.5359 24.2704 50.3762 24.22 50.1493 24.22C49.914 24.22 49.7207 24.2704 49.5611 24.3713C49.4602 24.4385 49.393 24.5226 49.3678 24.6234C49.3426 24.7243 49.3594 24.7999 49.4266 24.8755C49.5022 24.9596 49.7291 25.052 50.0989 25.1528C50.4687 25.2453 50.7292 25.3461 50.8973 25.447C51.057 25.5478 51.1746 25.6907 51.2334 25.8672C51.2923 26.0437 51.2923 26.2622 51.225 26.5227C51.1662 26.758 51.0401 26.9765 50.8637 27.1866C50.6788 27.3883 50.4603 27.548 50.1998 27.6488C49.9392 27.7496 49.6367 27.8001 49.2921 27.8001C48.7879 27.8001 48.4265 27.6824 48.2164 27.4387C47.9895 27.1782 47.9139 26.8252 47.9811 26.3714Z" fill="#EE342B"/>
<path d="M52.2591 27.7076L53.1499 24.2957H51.9565L52.1414 23.5981H55.3265L55.1416 24.2957H53.9567L53.0659 27.7076H52.2591Z" fill="#EE342B"/>
<path d="M54.5532 27.7076L55.6289 23.5981H57.3349C57.7635 23.5981 58.066 23.6318 58.2425 23.7074C58.419 23.783 58.5367 23.9091 58.6039 24.1024C58.6711 24.2873 58.6711 24.5058 58.6123 24.7495C58.5283 25.0604 58.377 25.3125 58.1501 25.5142C57.9232 25.7159 57.6206 25.842 57.2593 25.8924C57.4105 25.9933 57.5198 26.1109 57.6038 26.237C57.6879 26.363 57.7803 26.5815 57.8896 26.9009L58.1669 27.6992H57.2004L56.8475 26.8084C56.7214 26.4891 56.6374 26.2874 56.5786 26.2033C56.5197 26.1193 56.4609 26.0605 56.3769 26.0353C56.3012 26.0017 56.1668 25.9848 55.9819 25.9848H55.8138L55.3684 27.6992H54.5532V27.7076ZM55.9819 25.3293H56.5786C56.9651 25.3293 57.2173 25.3125 57.3181 25.2789C57.4273 25.2453 57.5114 25.1865 57.587 25.1024C57.6627 25.0184 57.7215 24.9176 57.7467 24.7915C57.7803 24.657 57.7719 24.5394 57.7299 24.4553C57.6795 24.3713 57.5954 24.3125 57.4694 24.2957C57.4021 24.2873 57.2088 24.2789 56.8811 24.2789H56.2508L55.9819 25.3293Z" fill="#EE342B"/>
<path d="M61.9821 27.7076H61.0997L60.9904 26.7748H59.3853L58.8054 27.7076H57.9482L60.5871 23.5981H61.4443L61.9821 27.7076ZM60.9148 26.0773L60.7635 24.5562L59.8223 26.0773H60.9148Z" fill="#EE342B"/>
<path d="M62.6712 27.7076L63.562 24.2957H62.3687L62.5535 23.5981H65.7386L65.5537 24.2957H64.3772L63.4864 27.7076H62.6712Z" fill="#EE342B"/>
<path d="M64.9653 27.7076L66.041 23.5981H69.0076L68.8311 24.2872H66.6713L66.436 25.1948H68.4445L68.2597 25.8923H66.2511L65.957 27.0016H68.1924L68.0075 27.6992H64.9653V27.7076ZM67.2344 23.2199L67.8311 22.3795H68.6882L67.7218 23.2199H67.2344Z" fill="#EE342B"/>
<path d="M70.7306 26.1949L70.9155 25.4974H72.6635L72.2349 27.1361C72.0248 27.3042 71.7391 27.4555 71.3861 27.5816C71.0332 27.7076 70.6886 27.7748 70.3609 27.7748C69.9407 27.7748 69.5961 27.6824 69.3356 27.5059C69.0751 27.3294 68.907 27.0689 68.8314 26.7328C68.7641 26.3966 68.7809 26.0352 68.8818 25.6403C68.991 25.2117 69.1843 24.8335 69.4448 24.4973C69.7054 24.1612 70.0331 23.9091 70.4113 23.7326C70.7054 23.5981 71.0416 23.5309 71.4282 23.5309C71.924 23.5309 72.2853 23.6401 72.5123 23.8502C72.7392 24.0603 72.84 24.3629 72.8232 24.741L71.9828 24.8923C71.9828 24.6906 71.9156 24.5309 71.7895 24.4133C71.6635 24.2956 71.487 24.2368 71.2517 24.2368C70.8987 24.2368 70.5878 24.3545 70.3188 24.5814C70.0499 24.8083 69.8566 25.1528 69.739 25.6066C69.6129 26.0941 69.6213 26.4638 69.7726 26.7075C69.9239 26.9513 70.1676 27.0773 70.5121 27.0773C70.6802 27.0773 70.8567 27.0437 71.05 26.9765C71.2349 26.9092 71.4029 26.8252 71.5542 26.7328L71.6887 26.2117H70.7306V26.1949Z" fill="#EE342B"/>
<path d="M72.5796 27.7076L73.6553 23.5981H74.4621L73.3864 27.7076H72.5796Z" fill="#EE342B"/>
<path d="M77.5543 27.7076H76.6719L76.5626 26.7748H74.9659L74.386 27.7076H73.5288L76.1676 23.5981H77.0248L77.5543 27.7076ZM76.487 26.0773L76.3357 24.5562L75.3945 26.0773H76.487Z" fill="#EE342B"/>
<path d="M77.8991 26.3714L78.7059 26.2958C78.6807 26.5647 78.7227 26.7664 78.8403 26.8925C78.9496 27.0185 79.1345 27.0857 79.3782 27.0857C79.6387 27.0857 79.8488 27.0269 80.0085 26.9177C80.1682 26.8084 80.269 26.674 80.311 26.5227C80.3362 26.4218 80.3278 26.3462 80.2942 26.2706C80.2522 26.2033 80.1766 26.1445 80.0505 26.0941C79.9665 26.0605 79.7648 26.0016 79.4454 25.9176C79.042 25.8084 78.7731 25.6739 78.6386 25.5142C78.4538 25.2873 78.4033 25.01 78.4874 24.6906C78.5462 24.4805 78.6471 24.2872 78.8151 24.1024C78.9748 23.9175 79.1849 23.783 79.4202 23.6822C79.6639 23.5897 79.9412 23.5393 80.2438 23.5393C80.748 23.5393 81.0926 23.6486 81.2943 23.8755C81.4876 24.1024 81.5464 24.4049 81.4623 24.7831L80.6472 24.8167C80.664 24.6066 80.6304 24.4553 80.5463 24.3629C80.4539 24.2704 80.2942 24.22 80.0673 24.22C79.832 24.22 79.6387 24.2704 79.479 24.3713C79.3782 24.4385 79.311 24.5226 79.2857 24.6234C79.2605 24.7243 79.2773 24.7999 79.3446 24.8755C79.4202 24.9596 79.6471 25.052 80.0169 25.1528C80.3867 25.2453 80.6472 25.3461 80.8152 25.447C80.9749 25.5478 81.0926 25.6907 81.1514 25.8672C81.2102 26.0437 81.2102 26.2622 81.143 26.5227C81.0842 26.758 80.9581 26.9765 80.7816 27.1866C80.5968 27.3883 80.3782 27.548 80.1177 27.6488C79.8572 27.7496 79.5547 27.8001 79.2101 27.8001C78.7059 27.8001 78.3445 27.6824 78.1344 27.4387C77.9075 27.1782 77.8319 26.8252 77.8991 26.3714Z" fill="#EE342B"/>
<path d="M82.605 27.7076L83.6807 23.5981H84.9749C85.4623 23.5981 85.7816 23.615 85.9161 23.657C86.1262 23.7158 86.2859 23.8503 86.3867 24.0604C86.4876 24.2705 86.496 24.531 86.4119 24.8587C86.3447 25.1108 86.2439 25.3209 86.1094 25.4974C85.9749 25.6655 85.8237 25.8084 85.664 25.9008C85.5043 26.0017 85.3446 26.0605 85.1934 26.0941C84.9917 26.1361 84.7059 26.1529 84.3362 26.1529H83.8067L83.4033 27.6992H82.605V27.7076ZM84.3026 24.2873L84 25.4554H84.4454C84.7648 25.4554 84.9833 25.4302 85.1009 25.3882C85.2186 25.3462 85.3194 25.2789 85.4035 25.1865C85.4875 25.094 85.5463 24.9848 85.5799 24.8671C85.622 24.7159 85.6052 24.5898 85.5463 24.4974C85.4875 24.3965 85.3951 24.3377 85.269 24.3125C85.1766 24.2957 84.9833 24.2873 84.6975 24.2873H84.3026Z" fill="#EE342B"/>
<path d="M89.3117 27.7076H88.4293L88.32 26.7748H86.7149L86.135 27.7076H85.2778L87.9166 23.5981H88.7738L89.3117 27.7076ZM88.2444 26.0773L88.0931 24.5562L87.1519 26.0773H88.2444Z" fill="#EE342B"/>
<path d="M89.5132 27.7076L90.5889 23.5981H92.2949C92.7235 23.5981 93.026 23.6318 93.2025 23.7074C93.379 23.783 93.4966 23.9091 93.5639 24.1024C93.6311 24.2873 93.6311 24.5058 93.5723 24.7495C93.4882 25.0604 93.337 25.3125 93.11 25.5142C92.8831 25.7159 92.5806 25.842 92.2192 25.8924C92.3705 25.9933 92.4798 26.1109 92.5638 26.237C92.6478 26.363 92.7403 26.5815 92.8495 26.9009L93.1268 27.6992H92.1604L91.8074 26.8084C91.6814 26.4891 91.5973 26.2874 91.5385 26.2033C91.4797 26.1193 91.4209 26.0605 91.3368 26.0353C91.2612 26.0017 91.1267 25.9848 90.9418 25.9848H90.7738L90.3284 27.6992H89.5132V27.7076ZM90.9418 25.3293H91.5385C91.9251 25.3293 92.1772 25.3125 92.2781 25.2789C92.3873 25.2453 92.4713 25.1865 92.547 25.1024C92.6226 25.0184 92.6814 24.9176 92.7067 24.7915C92.7403 24.657 92.7319 24.5394 92.6899 24.4553C92.6394 24.3713 92.5554 24.3125 92.4293 24.2957C92.3621 24.2873 92.1688 24.2789 91.8411 24.2789H91.2108L90.9418 25.3293Z" fill="#EE342B"/>
<path d="M96.9509 27.7076H96.0684L95.9592 26.7748H94.3541L93.7742 27.7076H92.917L95.5558 23.5981H96.413L96.9509 27.7076ZM95.8836 26.0773L95.7323 24.5562L94.7911 26.0773H95.8836Z" fill="#EE342B"/>
<path d="M98.6399 25.6739C98.7491 25.2537 98.9004 24.9007 99.1021 24.6234C99.2449 24.4133 99.4214 24.2284 99.6231 24.0603C99.8248 23.8922 100.027 23.7746 100.237 23.6906C100.514 23.5813 100.816 23.5309 101.144 23.5309C101.732 23.5309 102.161 23.7158 102.413 24.0939C102.665 24.4721 102.707 24.9932 102.539 25.6571C102.363 26.321 102.052 26.842 101.606 27.2118C101.161 27.59 100.64 27.7748 100.052 27.7748C99.455 27.7748 99.0264 27.59 98.7743 27.2118C98.5138 26.842 98.4718 26.3294 98.6399 25.6739ZM99.4803 25.6487C99.3626 26.1109 99.371 26.4638 99.5223 26.7075C99.6651 26.9513 99.9004 27.0689 100.228 27.0689C100.548 27.0689 100.85 26.9513 101.119 26.7075C101.388 26.4722 101.581 26.1109 101.707 25.6319C101.833 25.1612 101.825 24.8083 101.682 24.5814C101.539 24.3461 101.304 24.2368 100.968 24.2368C100.632 24.2368 100.337 24.3545 100.069 24.5898C99.7996 24.8167 99.6063 25.178 99.4803 25.6487Z" fill="#EE342B"/>
<path d="M104.64 27.7076L105.531 24.2957H104.338L104.523 23.5981H107.708L107.523 24.2957H106.338L105.447 27.7076H104.64Z" fill="#EE342B"/>
<path d="M106.935 27.7076L108.01 23.5981H109.716C110.145 23.5981 110.447 23.6318 110.624 23.7074C110.8 23.783 110.918 23.9091 110.985 24.1024C111.052 24.2873 111.052 24.5058 110.994 24.7495C110.91 25.0604 110.758 25.3125 110.531 25.5142C110.305 25.7159 110.002 25.842 109.641 25.8924C109.792 25.9933 109.901 26.1109 109.985 26.237C110.069 26.363 110.162 26.5815 110.271 26.9009L110.548 27.6992H109.582L109.229 26.8084C109.103 26.4891 109.019 26.2874 108.96 26.2033C108.901 26.1193 108.842 26.0605 108.758 26.0353C108.683 26.0017 108.548 25.9848 108.363 25.9848H108.195L107.75 27.6992H106.935V27.7076ZM108.363 25.3293H108.96C109.346 25.3293 109.599 25.3125 109.699 25.2789C109.809 25.2453 109.893 25.1865 109.968 25.1024C110.044 25.0184 110.103 24.9176 110.128 24.7915C110.162 24.657 110.153 24.5394 110.111 24.4553C110.061 24.3713 109.977 24.3125 109.851 24.2957C109.783 24.2873 109.59 24.2789 109.262 24.2789H108.632L108.363 25.3293Z" fill="#EE342B"/>
<path d="M114.372 27.7076H113.489L113.38 26.7748H111.775L111.195 27.7076H110.346L112.985 23.5981H113.842L114.372 27.7076ZM113.304 26.0773L113.153 24.5562L112.212 26.0773H113.304Z" fill="#EE342B"/>
<path d="M114.582 27.7076L115.658 23.5981H116.439L117.364 26.3546L118.086 23.5981H118.834L117.759 27.7076H116.952L116.036 25.0184L115.33 27.7076H114.582Z" fill="#EE342B"/>
<path d="M118.54 26.3714L119.347 26.2958C119.322 26.5647 119.364 26.7664 119.482 26.8925C119.591 27.0185 119.776 27.0857 120.019 27.0857C120.28 27.0857 120.49 27.0269 120.65 26.9177C120.809 26.8084 120.91 26.674 120.952 26.5227C120.977 26.4218 120.969 26.3462 120.935 26.2706C120.893 26.2033 120.818 26.1445 120.692 26.0941C120.608 26.0605 120.406 26.0016 120.087 25.9176C119.683 25.8084 119.414 25.6739 119.28 25.5142C119.095 25.2873 119.045 25.01 119.129 24.6906C119.187 24.4805 119.288 24.2872 119.456 24.1024C119.616 23.9175 119.826 23.783 120.061 23.6822C120.305 23.5897 120.582 23.5393 120.885 23.5393C121.389 23.5393 121.734 23.6486 121.936 23.8755C122.129 24.1024 122.188 24.4049 122.104 24.7831L121.288 24.8167C121.305 24.6066 121.272 24.4553 121.188 24.3629C121.095 24.2704 120.935 24.22 120.709 24.22C120.473 24.22 120.28 24.2704 120.12 24.3713C120.019 24.4385 119.952 24.5226 119.927 24.6234C119.902 24.7243 119.919 24.7999 119.986 24.8755C120.061 24.9596 120.288 25.052 120.658 25.1528C121.028 25.2453 121.288 25.3461 121.456 25.447C121.616 25.5478 121.734 25.6907 121.793 25.8672C121.851 26.0437 121.851 26.2622 121.784 26.5227C121.725 26.758 121.599 26.9765 121.423 27.1866C121.238 27.3883 121.019 27.548 120.759 27.6488C120.498 27.7496 120.196 27.8001 119.851 27.8001C119.347 27.8001 118.986 27.6824 118.776 27.4387C118.54 27.1782 118.473 26.8252 118.54 26.3714Z" fill="#EE342B"/>
<path d="M121.902 27.7076L122.978 23.5981H124.272C124.759 23.5981 125.079 23.615 125.213 23.657C125.423 23.7158 125.583 23.8503 125.684 24.0604C125.784 24.2705 125.793 24.531 125.709 24.8587C125.642 25.1108 125.541 25.3209 125.406 25.4974C125.272 25.6655 125.121 25.8084 124.961 25.9008C124.801 26.0017 124.642 26.0605 124.49 26.0941C124.289 26.1361 124.003 26.1529 123.633 26.1529H123.104L122.7 27.6992H121.902V27.7076ZM123.608 24.2873L123.305 25.4554H123.751C124.07 25.4554 124.289 25.4302 124.406 25.3882C124.524 25.3462 124.625 25.2789 124.709 25.1865C124.793 25.094 124.852 24.9848 124.885 24.8671C124.927 24.7159 124.91 24.5898 124.852 24.4974C124.793 24.3965 124.7 24.3377 124.574 24.3125C124.482 24.2957 124.289 24.2873 124.003 24.2873H123.608Z" fill="#EE342B"/>
<path d="M125.776 25.6739C125.885 25.2537 126.037 24.9007 126.238 24.6234C126.381 24.4133 126.558 24.2284 126.759 24.0603C126.961 23.8922 127.163 23.7746 127.373 23.6906C127.65 23.5813 127.953 23.5309 128.28 23.5309C128.869 23.5309 129.297 23.7158 129.549 24.0939C129.802 24.4721 129.844 24.9932 129.675 25.6571C129.499 26.321 129.188 26.842 128.743 27.2118C128.289 27.59 127.776 27.7748 127.188 27.7748C126.591 27.7748 126.163 27.59 125.911 27.2118C125.65 26.842 125.608 26.3294 125.776 25.6739ZM126.616 25.6487C126.499 26.1109 126.507 26.4638 126.659 26.7075C126.801 26.9513 127.037 27.0689 127.364 27.0689C127.684 27.0689 127.986 26.9513 128.255 26.7075C128.524 26.4638 128.717 26.1109 128.844 25.6319C128.97 25.1612 128.961 24.8083 128.818 24.5814C128.675 24.3461 128.44 24.2368 128.104 24.2368C127.768 24.2368 127.474 24.3545 127.205 24.5898C126.936 24.8167 126.743 25.178 126.616 25.6487Z" fill="#EE342B"/>
<path d="M129.549 27.7076L130.625 23.5981H132.331C132.76 23.5981 133.062 23.6318 133.239 23.7074C133.415 23.783 133.533 23.9091 133.6 24.1024C133.667 24.2873 133.667 24.5058 133.608 24.7495C133.524 25.0604 133.373 25.3125 133.146 25.5142C132.919 25.7159 132.617 25.842 132.255 25.8924C132.407 25.9933 132.516 26.1109 132.6 26.237C132.684 26.363 132.776 26.5815 132.886 26.9009L133.163 27.6992H132.197L131.844 26.8084C131.718 26.4891 131.633 26.2874 131.575 26.2033C131.516 26.1193 131.457 26.0605 131.373 26.0353C131.297 26.0017 131.163 25.9848 130.978 25.9848H130.81L130.364 27.6992H129.549V27.7076ZM130.978 25.3293H131.575C131.961 25.3293 132.213 25.3125 132.314 25.2789C132.423 25.2453 132.507 25.1865 132.583 25.1024C132.659 25.0184 132.718 24.9176 132.743 24.7915C132.776 24.657 132.768 24.5394 132.726 24.4553C132.676 24.3713 132.592 24.3125 132.465 24.2957C132.398 24.2873 132.205 24.2789 131.877 24.2789H131.247L130.978 25.3293Z" fill="#EE342B"/>
<path d="M134.264 27.7076L135.155 24.2957H133.961L134.146 23.5981H137.331L137.146 24.2957H135.962L135.071 27.7076H134.264Z" fill="#EE342B"/>
<path d="M136.558 27.7076L137.634 23.5981H140.6L140.415 24.2957H138.256L138.02 25.2033H140.029L139.844 25.9008H137.835L137.541 27.0101H139.777L139.592 27.7076H136.558V27.7076Z" fill="#EE342B"/>
<path d="M17.8197 26.7748C17.8197 26.7748 10.3654 26.716 10.3654 22.1779C10.3654 16.4632 24.9882 8.73167 32.6609 6.94165C40.3337 5.15162 41.401 5.65586 41.401 5.65586C41.401 5.65586 41.9052 3.70616 36.636 3.807C30.6944 3.91625 17.0297 5.0928 11.2563 6.10126C5.83576 7.0509 4.36508 10.6982 4.76006 13.2193C4.76006 13.2193 5.65928 10.0259 11.147 8.7905C16.6347 7.55513 30.4759 4.98355 37.7621 5.0928C29.5263 6.04243 17.5928 8.22744 9.97046 11.3705C2.34815 14.5135 -0.105783 18.9844 0.00346761 21.3963C0.13793 24.1528 5.16345 27.279 17.8197 26.7748Z" fill="#006A55"/>
<path d="M44.4096 13.7236C44.4096 11.0511 43.3507 8.55517 41.5187 6.4458C36.0898 6.90801 30.3499 8.12658 23.4336 12.942C15.9877 18.1188 13.122 22.1526 17.2987 26.1445C19.7611 26.9849 22.5091 27.4555 25.4085 27.4555C35.8965 27.4471 44.4096 21.3039 44.4096 13.7236Z" fill="#EE342B"/>
<path d="M37.8122 3.32793C34.4759 1.25218 30.1395 0 25.3997 0C19.5758 0 14.3738 1.89087 10.8862 4.85744C14.7016 4.38682 18.8447 4.04226 24.5509 3.6893C30.1731 3.33634 34.6692 3.28591 37.8122 3.32793Z" fill="#EE342B"/>
</svg>
