<?xml version="1.0" encoding="UTF-8"?>
<svg width="78px" height="78px" viewBox="0 0 78 78" version="1.1" xmlns="http://www.w3.org/2000/svg" xmlns:xlink="http://www.w3.org/1999/xlink">
    <!-- Generator: Sketch 52.4 (67378) - http://www.bohemiancoding.com/sketch -->
    <title>Fill 24 + Group 37 Mask</title>
    <desc>Created with Sketch.</desc>
    <defs>
        <rect id="path-1" x="0" y="0" width="78" height="78"></rect>
    </defs>
    <g id="RELATORIOS" stroke="none" stroke-width="1" fill="none" fill-rule="evenodd">
        <g id="Artboard" transform="translate(-299.000000, -83.000000)">
            <g id="Fill-24-+-Group-37-Mask" transform="translate(299.000000, 83.000000)">
                <mask id="mask-2" fill="white">
                    <use xlink:href="#path-1"></use>
                </mask>
                <use id="Mask" fill="#B4252A" xlink:href="#path-1"></use>
                <g id="Group" mask="url(#mask-2)">
                    <g transform="translate(24.000000, 5.000000)">
                        <path d="M24.2232893,23.1359313 C17.6290092,12.5160106 17.9709643,9.85989432 17.9709643,9.85989432 C18.0573052,3.39285337 26.5147292,2.00231176 26.5147292,2.00231176 L26.5090489,2.00231176 C26.3766975,2.00117569 25.4570542,1.99606341 24.2011361,2.08751651 C12.7030383,2.92252312 9.56011889,11.7247424 9.88844122,19.2846764 C10.6342668,36.4488904 26.5721004,48.6786129 21.9755878,68.1229062 C18.5810304,64.1165786 17.0234875,58.5237384 13.3409379,54.8042668 C15.3625627,67.7991281 13.1290621,82.1805548 1.92804491,84.2391017 L1.90191546,84.2555746 C5.41178336,86.1403038 18.7417834,85.7443857 18.7417834,85.7443857 C27.0503831,86.0869089 26.4499736,80.6054029 26.4499736,80.6054029 C26.4499736,80.6054029 26.5357464,79.406288 29.8763408,57.4802642 C33.2163672,35.5548085 24.2232893,23.1359313 24.2232893,23.1359313" id="Fill-24" fill="#FFFFFF"></path>
                        <g id="Group-37" stroke-width="1" fill="none" transform="translate(0.175694, 0.000000)">
                            <path d="M26.38107,1.33885073 C26.38107,1.74499339 26.3600528,2.00231176 26.3600528,2.00231176 C26.3600528,2.00231176 25.3824703,1.98924703 24.0254425,2.08751651 C12.5273448,2.92252312 9.38442536,11.7247424 9.71274769,19.2846764 C10.4585733,36.4488904 26.3964069,48.6786129 21.7998943,68.1229062 C18.4053369,64.1165786 16.8477939,58.5237384 13.1652444,54.8042668 C15.1891413,67.814465 12.9488243,82.2152048 1.71486129,84.2464861 C1.3064465,83.8443197 4.06480845,81.6954557 4.49821664,80.4134082 C4.94752972,79.0864861 5.4434214,77.2841215 5.33265522,75.2744254 C5.00319683,69.2493131 3.49904888,63.3116777 2.55895641,57.2712285 C0.637305152,44.9261955 -0.514095112,31.6933289 4.28406869,20.801321 C7.05322325,14.5160502 6.17163804,1.11959049 14.304716,0.438520476 C18.3854557,0.095997358 20.7416513,2.00742404 26.38107,1.33885073" id="Fill-36" fill="#1A1919"></path>
                        </g>
                    </g>
                </g>
            </g>
        </g>
    </g>
</svg>