<svg width="23" height="23" viewBox="0 0 23 23" fill="none" xmlns="http://www.w3.org/2000/svg">
<path d="M11.5174 0C5.17673 0 0 5.14198 0 11.5C0 14.2273 0.955436 16.7288 2.51888 18.6918V11.3436C2.51888 10.0929 2.76208 8.91161 3.23111 7.81721C3.70014 6.7228 4.34289 5.76736 5.15936 4.9509C5.97582 4.13443 6.94863 3.47431 8.06041 2.98791C9.17219 2.50151 10.3882 2.22356 11.6563 2.17145C12.8897 2.17145 14.0536 2.41465 15.1654 2.88368C16.2772 3.35271 17.2326 4.01283 18.0664 4.84667C18.9003 5.6805 19.5604 6.63594 20.0468 7.74772C20.5332 8.8595 20.7764 10.0408 20.7764 11.3263C20.7764 12.577 20.5332 13.7583 20.0642 14.8527C19.5951 15.9471 18.935 16.9025 18.1185 17.7364C17.3021 18.5702 16.3466 19.213 15.2349 19.6994C14.1231 20.1858 12.9418 20.4116 11.6563 20.4116C10.4056 20.4116 9.2243 20.1858 8.11252 19.7341C8.11252 19.7341 7.83458 19.6125 7.76509 19.5778C7.67823 19.543 7.4524 19.4214 7.4524 19.4214V22.253C8.75527 22.7394 10.1276 22.9826 11.5 22.9826C17.8406 22.9826 23 17.8406 23 11.4826C23.0173 5.15936 17.8753 0 11.5174 0V0Z" fill="#124983"/>
<path d="M8.72058 14.3488C9.10275 14.731 9.55441 15.0437 10.0582 15.2695C10.562 15.4954 11.1005 15.617 11.6737 15.617C12.247 15.617 12.8029 15.5127 13.3067 15.2695C13.8278 15.0437 14.2621 14.731 14.6443 14.3488C15.0265 13.9667 15.3218 13.515 15.5476 12.9939C15.7734 12.4727 15.895 11.9342 15.895 11.3609C15.8429 10.197 15.426 9.22424 14.6443 8.42514C13.8626 7.62605 12.8724 7.19176 11.6737 7.13965C11.1005 7.13965 10.562 7.24388 10.0582 7.45234C9.55441 7.6608 9.10275 7.95611 8.72058 8.33829C8.3384 8.72046 8.02572 9.15475 7.79989 9.6759C7.57405 10.197 7.45245 10.7529 7.45245 11.3609C7.45245 11.9342 7.57405 12.4901 7.79989 12.9939C8.02572 13.4976 8.3384 13.9667 8.72058 14.3488V14.3488Z" fill="#124983"/>
</svg>
