<svg width="117" height="33" viewBox="0 0 117 33" fill="none" xmlns="http://www.w3.org/2000/svg">
<path d="M28.088 32.944C27.8456 32.9553 27.6077 32.8752 27.4227 32.7185C27.2649 32.5302 27.1916 32.2855 27.2198 32.042V9.04024C27.1916 8.7967 27.2649 8.55202 27.4227 8.36372C27.6099 8.22165 27.8422 8.154 28.0767 8.17204H30.5798C31.0534 8.12468 31.4796 8.45731 31.5495 8.92749L31.7976 9.82952C32.5181 9.13383 33.3694 8.58585 34.3007 8.21714C35.2535 7.83152 36.2716 7.63195 37.3 7.63082C39.3498 7.56317 41.3095 8.47535 42.5768 10.0889C43.9727 12.0124 44.6661 14.3566 44.5387 16.73C44.5771 18.4529 44.2467 20.1634 43.569 21.7476C43.0098 23.0668 42.101 24.209 40.9419 25.0512C39.8211 25.8157 38.4872 26.2104 37.1308 26.1788C36.2096 26.1833 35.2941 26.0311 34.4247 25.7278C33.6253 25.4594 32.8868 25.0377 32.2486 24.4875V32.0645C32.2734 32.3058 32.2057 32.5482 32.0569 32.741C31.8641 32.8899 31.6217 32.9575 31.3804 32.9327L28.088 32.944ZM35.6763 22.3903C36.7903 22.4703 37.8682 21.9719 38.529 21.071C39.2314 19.8105 39.5494 18.3717 39.4423 16.933C39.5505 15.4807 39.2371 14.0285 38.5402 12.7498C37.8773 11.8399 36.7881 11.3404 35.665 11.4306C34.4732 11.4317 33.3051 11.7542 32.2824 12.3665V21.4431C33.2972 22.0746 34.4698 22.406 35.665 22.4015L35.6763 22.3903Z" fill="#2191C0"/>
<path d="M48.8238 25.8178C48.4201 25.8934 48.0311 25.6273 47.9556 25.2225C47.9387 25.1323 47.9387 25.0398 47.9556 24.9496V9.04011C47.9274 8.79656 48.0007 8.55189 48.1585 8.36359C48.3457 8.22152 48.578 8.15387 48.8125 8.17191H51.3044C51.7779 8.12455 52.2041 8.45718 52.274 8.92736L52.7251 10.7765C53.4658 9.90944 54.351 9.17654 55.3409 8.61165C56.1483 8.18882 57.0458 7.96895 57.9568 7.96895H58.4417C58.6863 7.94753 58.931 8.01518 59.1295 8.16063C59.2873 8.34893 59.3606 8.59361 59.3324 8.83715V11.7462C59.3516 11.9807 59.2839 12.213 59.1407 12.4002C58.9524 12.558 58.7078 12.6313 58.4642 12.6031H57.8441C57.5881 12.6031 57.2656 12.6031 56.8744 12.6031C56.2227 12.6167 55.5732 12.6922 54.935 12.8286C54.2698 12.9515 53.6203 13.1443 52.9957 13.4037V24.9609C53.0137 25.1954 52.946 25.4277 52.804 25.6149C52.6157 25.7727 52.371 25.846 52.1275 25.8178H48.8238Z" fill="#2191C0"/>
<path d="M64.3276 5.42091C63.5587 5.45924 62.8043 5.20104 62.2192 4.69929C61.6757 4.19077 61.3836 3.46914 61.4186 2.7261C61.3803 1.97854 61.6723 1.25241 62.2192 0.741636C63.4549 -0.247212 65.2116 -0.247212 66.4474 0.741636C66.9909 1.25015 67.2829 1.97178 67.248 2.71482C67.2829 3.45787 66.9909 4.17949 66.4474 4.68801C65.8611 5.19653 65.1023 5.45924 64.3276 5.42091ZM62.6702 25.8293C62.2665 25.9048 61.8775 25.6387 61.802 25.234C61.7851 25.1438 61.7851 25.0513 61.802 24.9611V9.0403C61.7738 8.79675 61.8471 8.55207 62.0049 8.36378C62.1921 8.22171 62.4244 8.15405 62.6589 8.17209H65.9851C66.2264 8.14729 66.4688 8.21494 66.6616 8.36378C66.8105 8.55658 66.8781 8.799 66.8533 9.0403V24.9611C66.8725 25.1956 66.8048 25.4279 66.6616 25.6151C66.4733 25.7729 66.2287 25.8462 65.9851 25.818L62.6702 25.8293Z" fill="#2191C0"/>
<path d="M72.006 25.8179C71.6023 25.8934 71.2133 25.6273 71.1378 25.2225C71.1208 25.1323 71.1208 25.0399 71.1378 24.9497V9.04014C71.1096 8.79659 71.1829 8.55192 71.3407 8.36362C71.5279 8.22155 71.7602 8.1539 71.9947 8.17194H74.4865C74.9601 8.12458 75.3863 8.45721 75.4562 8.92739L75.7381 9.86324C76.7642 9.15628 77.8736 8.58124 79.0418 8.14939C80.0058 7.81338 81.0195 7.63862 82.041 7.63072C83.818 7.47851 85.5251 8.3546 86.4384 9.88579C87.4679 9.1777 88.5864 8.60942 89.7646 8.19449C90.8042 7.84834 91.8934 7.67357 92.9894 7.67582C94.374 7.59239 95.7316 8.08174 96.7441 9.02887C97.6777 10.0527 98.158 11.4113 98.0746 12.7948V24.9609C98.0926 25.1955 98.025 25.4277 97.8829 25.6149C97.6946 25.7728 97.4499 25.8461 97.2064 25.8179H93.9252C93.5216 25.8934 93.1326 25.6273 93.057 25.2225C93.0401 25.1323 93.0401 25.0399 93.057 24.9497V13.8547C93.057 12.2841 92.3546 11.4982 90.9486 11.4982C89.6384 11.5128 88.3473 11.8218 87.1713 12.4002V24.9609C87.1905 25.1955 87.1228 25.4277 86.9796 25.6149C86.7913 25.7728 86.5467 25.8461 86.3031 25.8179H82.9882C82.5845 25.8934 82.1955 25.6273 82.1199 25.2225C82.103 25.1323 82.103 25.0399 82.1199 24.9497V13.8547C82.1199 12.2841 81.4175 11.4982 80.0115 11.4982C78.6855 11.5061 77.3798 11.8274 76.2004 12.434V24.9497C76.2184 25.1842 76.1508 25.4165 76.0087 25.6036C75.8204 25.7615 75.5757 25.8348 75.3322 25.8066L72.006 25.8179Z" fill="#2191C0"/>
<path d="M110.138 26.3367C107.709 26.4956 105.322 25.6432 103.542 23.9801C101.915 22.1174 101.102 19.6808 101.287 17.2149C101.125 14.6588 101.948 12.1365 103.587 10.1678C105.296 8.40434 107.687 7.46961 110.138 7.6083C111.951 7.50006 113.742 8.05368 115.178 9.1643C116.394 10.2016 117.064 11.7407 116.994 13.3362C117.076 14.8978 116.331 16.3884 115.032 17.26C113.283 18.259 111.279 18.7213 109.27 18.5905C108.131 18.604 106.995 18.4755 105.888 18.2071C105.894 19.4542 106.397 20.6471 107.286 21.5221C108.338 22.2685 109.619 22.6237 110.905 22.5256C111.534 22.5256 112.163 22.4839 112.788 22.4016C113.647 22.2685 114.497 22.087 115.336 21.8603H115.708C116.1 21.8603 116.295 22.1276 116.295 22.6609V24.2507C116.316 24.5202 116.262 24.7897 116.137 25.0287C115.977 25.217 115.765 25.3535 115.528 25.4234C113.803 26.0582 111.976 26.3682 110.138 26.3367ZM109.011 15.4785C109.898 15.5428 110.786 15.3556 111.57 14.9373C112.109 14.5686 112.414 13.9428 112.371 13.2911C112.371 11.8399 111.506 11.1149 109.778 11.1149C107.56 11.1149 106.279 12.4759 105.933 15.1966C106.94 15.3894 107.963 15.4841 108.988 15.4785H109.011Z" fill="#2191C0"/>
<path d="M25.6411 9.42171L11.4012 31.2004C11.156 31.5755 10.616 31.6017 10.3356 31.2522L0.725833 19.2758C0.379743 18.8445 0.686803 18.2044 1.23981 18.2044H5.88612C6.08972 18.2044 6.28188 18.2985 6.40671 18.4594L10.2036 23.3516C10.3439 23.5323 10.621 23.5186 10.7428 23.325L19.936 8.71021C20.0566 8.51846 20.2673 8.4021 20.4938 8.4021H25.0895C25.6132 8.4021 25.9277 8.98342 25.6411 9.42171Z" fill="#F7981C"/>
</svg>
