<svg width="225" height="225" viewBox="0 0 225 225" fill="none" xmlns="http://www.w3.org/2000/svg">
<path d="M111.181 225C169.566 225 216.897 175.309 216.897 114.012C216.897 52.7153 169.566 3.02441 111.181 3.02441C52.7956 3.02441 5.46484 52.7153 5.46484 114.012C5.46484 175.309 52.7956 225 111.181 225Z" fill="#0F1116"/>
<path d="M128.243 56.0691L128.62 56.6432L128.997 57.4086C128.997 57.6 129.186 57.6 129.186 57.6L129.374 57.7913C129.562 57.9827 129.562 57.9827 129.562 58.174C129.751 58.3654 130.128 58.7481 130.316 59.1308C130.505 59.5135 130.882 59.7049 131.258 59.8963C131.635 60.0876 131.824 60.4703 132.201 60.6617C134.65 62.5753 138.231 63.3407 141.246 62.958H141.811L142.377 62.7666C142.753 62.5753 143.13 62.5753 143.507 62.3839C143.884 62.1926 144.261 62.1926 144.638 62.0012L145.203 61.8098L145.392 61.6185H145.58C145.58 61.6185 145.392 61.8098 145.392 61.6185L145.957 61.2358C146.145 61.0444 146.522 61.0444 146.522 60.8531L146.899 60.4703C147.088 60.279 147.088 60.279 147.276 60.0876C147.841 59.5135 148.407 58.9395 148.972 58.3654C150.856 56.0691 151.422 52.816 151.233 50.137C151.045 48.6061 150.668 47.458 149.914 46.3098C149.914 46.5012 149.914 46.3098 149.914 46.3098V46.1185L149.726 45.9271C149.537 45.7357 149.537 45.5444 149.537 45.353C149.349 45.1617 149.16 44.779 148.972 44.5876C148.784 44.3962 148.595 44.2049 148.407 43.8222C148.218 43.6308 148.03 43.4394 147.653 43.2481C145.768 41.7172 143.884 40.9518 142 40.9518C140.115 40.7604 138.985 41.1432 138.042 41.5259C137.477 41.7172 137.289 41.9086 136.912 41.9086C136.723 42.0999 136.535 42.0999 136.535 42.0999L136.158 41.5259C136.158 41.5259 136.346 41.5259 136.535 41.3345C136.723 41.1432 137.1 40.9518 137.665 40.7604C138.608 40.1864 139.927 39.6123 142 39.4209C143.13 39.4209 144.261 39.4209 145.203 39.6123C146.522 39.8036 147.653 40.3777 148.784 41.1431C149.16 41.3345 149.349 41.5259 149.726 41.9086C150.103 42.2913 150.291 42.4827 150.668 42.674C150.856 43.0567 151.233 43.2481 151.61 43.6308C151.799 43.8222 151.799 43.8222 151.987 44.0135L152.176 44.2049L152.364 44.3962C152.364 44.3962 152.364 44.3962 152.364 44.5876C153.306 45.9271 154.06 47.458 154.625 49.3716C155.756 52.816 155.379 57.2172 153.118 61.0444C153.495 60.4703 153.872 60.0876 154.248 59.5135C155.756 57.4086 156.887 55.1123 157.64 52.4333C158.771 49.1802 158.959 45.7357 157.452 42.4827C155.568 38.2728 151.422 35.4024 147.276 34.2543C145.015 33.6802 142.753 33.2975 140.304 33.6802C139.927 33.6802 139.55 33.6802 139.361 33.8715C138.985 33.8715 138.608 34.0629 138.419 34.0629C137.665 34.2543 137.1 34.4456 136.346 34.637C136.158 34.637 135.969 34.8283 135.781 34.8283L135.216 35.0197C134.839 35.211 134.462 35.4024 134.273 35.4024L133.897 35.5938C133.897 35.5938 134.462 35.211 134.085 35.4024L133.897 35.5938L133.143 35.9765L132.389 36.3592L132.201 36.5506L132.012 36.7419C131.824 36.9333 131.635 37.1246 131.258 37.1246C131.07 37.316 130.693 37.6987 130.505 37.8901C130.316 38.0814 129.939 38.4641 129.751 38.6555C129.562 38.8469 129.186 39.2296 128.997 39.4209C128.809 39.8036 128.62 39.995 128.243 40.3777L127.678 41.3345C127.49 41.7172 127.301 42.0999 127.113 42.2913C126.924 42.674 126.736 43.0567 126.547 43.4395C125.982 44.9703 125.605 46.3098 125.417 48.032C125.228 49.7543 125.417 51.2851 125.794 52.816C125.794 53.1987 125.982 53.5814 126.17 53.9642C126.359 54.3469 126.359 54.7296 126.547 55.1123L128.243 56.0691C128.243 55.8777 128.62 56.2605 128.243 56.0691Z" fill="url(#paint0_linear_1925_3885)"/>
<path d="M86.4953 156.149C86.1184 161.124 86.1184 167.439 85.93 171.075H79.523V218.531C74.8119 216.809 70.2893 215.087 65.9551 212.982V183.704H62.5632C62.5632 182.365 62.5632 179.494 60.6787 174.519C58.9827 169.735 61.6209 158.254 64.636 150.791C65.7667 148.303 66.8973 146.007 68.028 144.859C71.0431 141.605 80.4652 131.081 85.93 121.896C86.4953 132.037 86.6838 149.642 86.4953 156.149Z" fill="#07DD56"/>
<path d="M115.327 138.926C114.95 143.71 114.95 150.599 114.762 155.192H109.297V224.081C104.586 223.889 100.063 223.315 95.7288 222.55V171.075H92.1484C92.1484 168.587 92.1484 163.994 92.5253 157.105C92.9022 146.389 101.571 132.229 99.8746 116.155C103.643 117.112 108.166 117.494 112.689 116.729C113.819 116.537 114.762 116.346 115.704 115.963C115.704 122.661 115.704 132.994 115.327 138.926Z" fill="#07DD56"/>
<path d="M143.217 134.716H139.259V221.21C134.925 222.358 130.214 223.124 125.691 223.506V155.191H120.792C120.792 152.13 121.169 146.772 122.488 139.883C125.126 126.296 133.418 117.877 142.463 109.648C142.274 113.858 142.274 119.216 142.651 122.086C142.84 124.383 143.028 129.741 143.217 134.716Z" fill="#07DD56"/>
<path d="M225.001 111.562C225.001 116.729 224.624 121.513 224.059 126.488C218.782 167.247 191.835 201.118 155.466 216.043V134.525H150.566C150.755 132.42 150.755 130.506 150.943 129.55C152.074 102.377 167.526 91.2779 169.222 76.352C170.164 67.9322 169.41 49.3704 169.41 49.3704C169.41 49.3704 171.86 47.0741 176.571 47.8396C181.471 48.605 182.79 49.9445 184.863 47.0741C184.863 47.0741 184.863 46.8828 185.051 46.8828C187.312 44.3951 188.82 45.1606 188.255 41.7161C187.501 38.2717 187.124 36.1667 184.109 35.5926C181.659 35.0186 169.41 23.3457 168.468 22.7716C167.714 22.3889 167.149 21.8148 166.395 21.4321C165.641 21.0494 164.888 20.6667 164.134 20.0926C161.119 18.3704 157.162 17.2222 153.016 16.6482C148.87 16.0741 144.159 16.2655 139.636 17.605C139.071 17.7963 138.506 17.9877 137.94 18.179C137.375 18.3704 136.81 18.5618 136.244 18.9445C135.114 19.3272 133.983 20.0926 133.041 20.6667C132.664 20.8581 132.476 20.8581 132.287 21.0494L131.533 21.6235C130.968 22.0062 130.403 22.3889 129.837 22.7716L129.461 22.963C129.461 22.963 129.272 23.1544 129.084 23.1544L129.649 23.3457L129.084 23.9198L128.518 24.4939L128.33 24.6852L128.141 24.8766L127.765 25.2593C127.199 25.8334 126.634 26.4074 126.069 26.9815C125.503 27.5556 125.126 28.1297 124.749 28.7037C124.373 29.2778 123.996 29.8519 123.43 30.426C123.053 31 122.677 31.5741 122.3 32.1482C121.923 32.7223 121.546 33.2963 121.358 34.0618C120.981 34.6358 120.792 35.4013 120.604 35.9754C120.227 36.5494 120.038 37.3149 119.85 38.0803C119.662 38.8457 119.473 39.4198 119.285 40.1852C118.531 42.6729 118.342 45.5433 118.531 48.2223C118.719 50.9013 119.285 53.5803 120.415 56.068C120.604 56.8334 120.981 57.4075 121.169 57.9816C121.358 58.5556 121.734 59.3211 122.111 59.8951L123.242 61.6174L123.43 61.8087L123.619 62.0001L123.807 62.3828L124.373 62.9569C124.373 63.1482 124.561 63.1482 124.749 63.3396L125.126 63.7223L125.88 64.4877C126.445 65.0618 127.011 65.4445 127.576 65.8272C128.141 66.21 128.707 66.5927 129.272 66.9754C129.837 67.3581 130.403 67.7408 130.968 67.9322C133.983 69.6544 137.375 70.2285 140.39 70.2285C129.649 71.9507 122.865 67.9322 119.096 64.2964C108.355 69.0803 94.4103 75.0125 89.3223 77.6915C82.1615 81.3273 73.6816 85.1544 72.1741 98.9322C65.767 99.5063 59.1716 98.1668 58.7947 97.9754C59.1716 98.5495 64.448 107.161 71.9856 106.587C71.6088 123.617 64.8248 135.673 61.6213 138.352C58.4178 141.031 57.2871 141.031 57.664 148.111C58.0409 155 55.2143 169.161 53.3299 171.457C51.4454 173.753 51.0685 174.519 52.0108 177.006C52.7645 178.92 52.5761 182.939 52.3876 184.469H50.1263V203.988C22.0484 183.513 3.76953 150.408 3.76953 112.519C3.76953 50.3272 53.3299 0 114.574 0C175.817 0 225.001 49.3704 225.001 111.562Z" fill="url(#paint1_linear_1925_3885)"/>
<path d="M85.927 121.792C86.2944 132.175 86.6618 149.671 86.1107 156.4C85.7433 161.399 85.7433 167.743 85.5596 171.396H79.3137V218.885C74.7212 217.155 70.3124 215.425 66.0873 213.31V183.893H62.7807C62.7807 182.548 62.7807 179.664 60.9437 174.665C59.2903 169.858 61.8622 158.322 64.8014 150.824C65.9036 148.325 67.0058 146.018 68.108 144.864C71.5983 141.403 80.7834 131.021 85.927 121.792Z" fill="url(#paint2_linear_1925_3885)"/>
<path d="M115.605 116.275C115.605 123.344 115.605 133.469 115.224 139.391C114.843 144.167 114.843 151.044 114.653 155.629H109.13V224.401C104.37 224.21 99.7996 223.637 95.4198 222.873V171.485H91.8018C91.8018 169.001 91.8018 164.416 92.1826 157.539C92.5635 146.841 101.323 132.704 99.6091 116.657C103.418 117.613 107.988 117.995 112.558 117.231C113.701 116.848 114.653 116.466 115.605 116.275Z" fill="url(#paint3_linear_1925_3885)"/>
<path d="M142.972 122.07C143.354 124.362 143.736 129.71 143.736 134.676H139.726V221.006C135.335 222.152 130.561 222.916 125.979 223.298V155.113H121.015C121.015 152.057 121.397 146.709 122.733 139.833C125.406 126.272 133.807 117.868 142.972 109.656C142.59 113.667 142.399 119.014 142.972 122.07Z" fill="url(#paint4_linear_1925_3885)"/>
<path d="M224.058 126.488C218.782 167.247 191.834 201.117 155.465 216.043V134.525H150.565C150.754 132.42 150.754 130.506 150.942 129.549C152.073 102.376 167.525 91.2777 169.221 76.3518C170.163 67.932 169.41 49.3702 169.41 49.3702C169.41 49.3702 171.859 47.0739 176.57 47.8394C181.47 48.6048 182.789 49.9443 184.862 47.0739C184.862 47.0739 184.862 46.8826 185.05 46.8826L224.058 126.488Z" fill="url(#paint5_linear_1925_3885)"/>
<g opacity="0.8">
<path d="M127.952 56.0308L128.329 56.6049L128.706 57.3703C128.706 57.5617 128.895 57.5617 128.895 57.5617L129.083 57.7531C129.271 57.9444 129.271 57.9444 129.271 58.1358C129.46 58.3271 129.837 58.7099 130.025 59.0926C130.214 59.4753 130.591 59.6667 130.967 59.858C131.344 60.0494 131.533 60.4321 131.91 60.6234C134.359 62.537 137.94 63.3025 140.955 62.9197H141.52L142.085 62.7284C142.462 62.537 142.839 62.537 143.216 62.3457C143.593 62.1543 143.97 62.1543 144.347 61.9629L144.912 61.7716L145.101 61.5802H145.289C145.289 61.5802 145.101 61.7716 145.101 61.5802L145.666 61.1975C145.854 61.0062 146.231 61.0062 146.231 60.8148L146.608 60.4321C146.797 60.2407 146.797 60.2407 146.985 60.0494C147.55 59.4753 148.116 58.9012 148.681 58.3271C150.565 56.0308 151.131 52.7777 150.942 50.0987C150.754 48.5679 150.377 47.4197 149.623 46.2716C149.623 46.4629 149.623 46.2716 149.623 46.2716V46.0802L149.058 45.6975C148.869 45.5061 148.869 45.3148 148.869 45.1234C148.681 44.9321 148.493 44.5493 148.304 44.358C148.116 44.1666 147.927 43.9753 147.739 43.5926C147.55 43.4012 147.362 43.2098 146.985 43.0185C145.101 41.4876 143.216 40.7222 141.332 40.7222C139.447 40.5308 138.317 40.9135 137.374 41.2963C136.809 41.4876 136.621 41.679 136.244 41.679C136.055 41.8703 135.867 41.8703 135.867 41.8703L135.49 41.2963C135.49 41.2963 135.678 41.2963 135.867 41.1049C136.055 40.9135 136.432 40.7222 136.998 40.5308C137.94 39.9567 139.259 39.3827 141.332 39.1913C142.462 39.1913 143.593 39.1913 144.535 39.3827C145.854 39.574 146.985 40.1481 148.116 40.9135C148.493 41.1049 148.681 41.2963 149.058 41.679C149.435 42.0617 149.623 42.253 150 42.4444C150.189 42.8271 150.565 43.0185 150.942 43.4012C151.131 43.5926 151.131 43.5926 151.319 43.7839L151.508 43.9753L151.696 44.1666C151.696 44.1666 151.696 44.1666 151.696 44.358C152.638 45.6975 153.392 47.2284 153.957 49.1419C155.088 52.5864 154.711 56.9876 152.45 60.8148C152.827 60.2407 153.204 59.858 153.58 59.2839C155.088 57.179 156.219 54.8827 156.972 52.2037C158.103 48.9506 158.292 45.5061 156.784 42.253C154.9 38.0432 150.754 35.1728 146.608 34.0246C144.347 33.4506 142.086 33.0678 139.636 33.4506C139.259 33.4506 138.882 33.4506 138.694 33.6419C138.317 33.6419 137.94 33.8333 137.751 33.8333C136.998 34.0246 136.432 34.216 135.678 34.4074C135.49 34.4074 135.302 34.5987 135.113 34.5987L134.548 34.7901C134.171 34.9814 133.794 35.1728 133.606 35.1728L133.417 35.3641C133.417 35.3641 133.982 34.9814 133.606 35.1728L133.417 35.3641L132.852 36.1296L132.098 36.5123L131.91 36.7037L131.721 36.895C131.533 37.0864 131.344 37.2777 130.967 37.2777C130.779 37.4691 130.402 37.8518 130.214 38.0432C130.025 38.2345 129.648 38.6172 129.46 38.8086C129.271 39 128.895 39.3827 128.706 39.574C128.518 39.9567 128.329 40.1481 127.952 40.5308L127.387 41.4876C127.199 41.8703 127.01 42.253 126.822 42.4444C126.633 42.8271 126.445 43.2098 126.256 43.5926C125.691 45.1234 125.314 46.4629 125.126 48.1852C124.937 49.9074 125.126 51.4382 125.503 52.9691C125.503 53.3518 125.691 53.7345 125.879 54.1173C126.068 54.5 126.068 54.8827 126.256 55.2654L127.952 56.0308C127.952 56.0308 128.329 56.2222 127.952 56.0308Z" fill="url(#paint6_linear_1925_3885)"/>
<path d="M221.985 112.482C221.985 117.649 221.608 122.433 221.043 127.408C215.766 168.167 188.819 202.038 152.45 216.964V135.445H147.55C147.739 133.34 147.739 131.427 147.927 130.47C149.058 103.297 164.51 92.1982 166.206 77.2722C167.148 68.8525 166.395 50.2907 166.395 50.2907C166.395 50.2907 168.844 47.9944 173.555 48.7599C178.455 49.5253 179.774 50.8648 181.847 47.9944C181.847 47.9944 181.847 47.8031 182.035 47.8031C184.297 45.3154 185.804 46.0808 185.239 42.6364C184.485 39.1919 184.108 37.087 181.093 36.5129C178.643 35.9389 166.395 24.266 165.452 23.6919C164.699 23.3092 164.133 22.7351 163.38 22.3524C162.626 21.9697 161.872 21.587 161.118 21.0129C158.103 19.2907 154.146 18.1425 150 17.5685C145.854 16.9944 141.143 17.1857 136.621 18.5252C136.055 18.7166 135.49 18.908 134.925 19.0993C134.359 19.2907 133.794 19.482 133.229 19.8648C132.098 20.2475 130.967 21.0129 130.025 21.587C129.648 21.7783 129.46 21.7783 129.271 21.9697L128.518 22.5438C127.952 22.9265 127.387 23.3092 126.822 23.6919L126.445 23.8833C126.445 23.8833 126.256 24.0746 126.068 24.0746L125.879 24.266L125.314 24.8401L124.749 25.4141L124.56 25.6055L124.372 25.7969L123.995 26.1796C123.43 26.7537 122.864 27.3277 122.299 27.9018C121.734 28.4759 121.357 29.05 120.98 29.624C120.603 30.1981 120.226 30.7722 119.661 31.3463C119.284 31.9203 118.907 32.4944 118.53 33.0685C118.153 33.6426 117.776 34.2166 117.588 34.9821C117.211 35.5561 117.023 36.3216 116.834 36.8956C116.457 37.4697 116.269 38.2351 116.08 39.0006C115.892 39.766 115.704 40.3401 115.515 41.1055C114.761 43.5932 114.573 46.4636 114.761 49.1426C114.95 51.8216 115.515 54.5006 116.646 56.9883C116.834 57.7537 117.211 58.3278 117.4 58.9018C117.588 59.4759 117.965 60.2414 118.342 60.8154L119.472 62.5377L119.661 62.729L119.849 62.9204L120.038 63.3031L120.603 63.8772C120.603 64.0685 120.792 64.0685 120.98 64.2599L121.357 64.6426L122.111 65.408C122.676 65.9821 123.241 66.3648 123.807 66.7475C124.372 67.1302 124.937 67.513 125.503 67.8957C126.068 68.2784 126.633 68.6611 127.199 68.8525C130.214 70.5747 133.606 71.1488 136.621 71.1488C125.879 72.871 119.096 68.8525 115.327 65.2167C104.586 70.0006 90.6408 75.9327 85.5528 78.6117C78.392 82.2476 69.9121 86.0747 68.4046 99.8525C61.9975 100.427 55.4021 99.0871 55.0252 98.8957C55.4021 99.4698 60.6784 108.081 68.2161 107.507C67.8392 124.538 61.0553 136.593 57.8518 139.272C54.6483 141.951 53.5176 141.951 53.8945 149.032C54.2714 155.92 51.4448 170.081 49.5603 172.377C47.6759 174.674 47.299 175.439 48.2412 177.927C48.995 179.84 48.8066 183.859 48.6181 185.39H46.3568V204.908C18.2789 184.433 0 151.328 0 113.439C0 51.2475 49.5603 0.920288 110.804 0.920288C172.048 0.920288 221.985 50.2907 221.985 112.482Z" fill="url(#paint7_linear_1925_3885)"/>
<path d="M220.855 127.407C215.578 168.167 188.631 202.037 152.262 216.963V135.444H147.362C147.551 133.34 147.551 131.426 147.739 130.469C148.87 103.296 164.322 92.1975 166.018 77.2715C166.96 68.8518 166.207 50.29 166.207 50.29C166.207 50.29 168.656 47.9937 173.367 48.7592C178.267 49.5246 179.586 50.8641 181.659 47.9937C181.659 47.9937 181.659 47.8024 181.847 47.8024L220.855 127.407Z" fill="url(#paint8_linear_1925_3885)"/>
</g>
<defs>
<linearGradient id="paint0_linear_1925_3885" x1="158.535" y1="33.5261" x2="129.209" y2="66.4929" gradientUnits="userSpaceOnUse">
<stop stop-color="#916BE3"/>
<stop offset="1" stop-color="#59D1EC"/>
</linearGradient>
<linearGradient id="paint1_linear_1925_3885" x1="225.001" y1="0" x2="9.01813" y2="221.169" gradientUnits="userSpaceOnUse">
<stop stop-color="#1F9AEA"/>
<stop offset="1" stop-color="#49F898"/>
</linearGradient>
<linearGradient id="paint2_linear_1925_3885" x1="86.3917" y1="121.792" x2="37.9246" y2="134.755" gradientUnits="userSpaceOnUse">
<stop stop-color="#1F9AEA"/>
<stop offset="1" stop-color="#49F898"/>
</linearGradient>
<linearGradient id="paint3_linear_1925_3885" x1="115.605" y1="116.275" x2="70.1992" y2="126.271" gradientUnits="userSpaceOnUse">
<stop stop-color="#1F9AEA"/>
<stop offset="1" stop-color="#49F898"/>
</linearGradient>
<linearGradient id="paint4_linear_1925_3885" x1="143.736" y1="109.656" x2="100.04" y2="118.392" gradientUnits="userSpaceOnUse">
<stop stop-color="#1F9AEA"/>
<stop offset="1" stop-color="#49F898"/>
</linearGradient>
<linearGradient id="paint5_linear_1925_3885" x1="224.058" y1="46.8826" x2="100.411" y2="100.601" gradientUnits="userSpaceOnUse">
<stop stop-color="#1F9AEA"/>
<stop offset="1" stop-color="#49F898"/>
</linearGradient>
<linearGradient id="paint6_linear_1925_3885" x1="157.868" y1="33.2965" x2="128.294" y2="65.9517" gradientUnits="userSpaceOnUse">
<stop stop-color="#1F9AEA"/>
<stop offset="1" stop-color="#49F898"/>
</linearGradient>
<linearGradient id="paint7_linear_1925_3885" x1="221.985" y1="0.920288" x2="6.02108" y2="222.824" gradientUnits="userSpaceOnUse">
<stop stop-color="#1F9AEA"/>
<stop offset="1" stop-color="#49F898"/>
</linearGradient>
<linearGradient id="paint8_linear_1925_3885" x1="220.855" y1="47.8024" x2="97.2081" y2="101.521" gradientUnits="userSpaceOnUse">
<stop stop-color="#1F9AEA"/>
<stop offset="1" stop-color="#49F898"/>
</linearGradient>
</defs>
</svg>
