<?xml version="1.0" encoding="UTF-8"?>
<svg width="121px" height="38px" viewBox="0 0 121 38" version="1.1" xmlns="http://www.w3.org/2000/svg" xmlns:xlink="http://www.w3.org/1999/xlink">
    <!-- Generator: Sketch 52.4 (67378) - http://www.bohemiancoding.com/sketch -->
    <title>Artboard</title>
    <desc>Created with Sketch.</desc>
    <g id="Artboard" stroke="none" stroke-width="1" fill="none" fill-rule="evenodd">
        <path d="M97.201302,31.3685188 L29.9684787,37.2880057 L24.1494236,31.3685188 L97.201302,31.3685188 Z M30.9166232,7.4255722 L35.4150447,7.4255722 L35.4150447,27.5900741 L30.9166232,27.5900741 L30.9166232,26.6959416 C29.5601744,27.576212 28.3436771,28.0853948 26.677815,28.0853948 C21.5600498,28.0853948 17.6722324,23.3406701 17.6722324,17.5084449 C17.6722324,11.6778221 21.5600411,6.93025151 26.677815,6.93025151 C28.3436771,6.93025151 29.5601744,7.44156216 30.9166232,8.32041401 L30.9166232,7.4255722 Z M26.677815,23.2295986 C29.2044725,23.2295986 30.9852854,20.7016364 30.9852854,17.5084536 C30.9852854,14.3173988 29.2044636,11.7892614 26.677815,11.7892614 C24.1543099,11.7892614 22.3065774,14.3173988 22.3065774,17.5084536 C22.3065774,20.7016364 24.1543099,23.2295986 26.677815,23.2295986 Z M66.9548644,7.4255722 L71.4536364,7.4255722 L71.4536364,27.5900828 L66.9548644,27.5900828 L66.9548644,26.8402627 C66.9548644,26.8402627 65.3438638,28.0854036 63.1309981,28.0854036 C58.3525072,28.0854036 55.0840421,24.1313759 55.0840421,19.2709472 L55.0840421,7.4255722 L59.582814,7.4255722 L59.582814,19.2709472 C59.582814,21.4928676 61.0846171,23.3694625 63.2684889,23.3694625 C65.4542784,23.3694625 66.9548644,21.4928676 66.9548644,19.2709472 L66.9548644,7.4255722 Z M108.874536,27.5900828 L104.37558,27.5900828 L104.37558,7.4255722 L108.874536,7.4255722 L108.874536,8.1752172 C108.874536,8.1752172 110.485361,6.93025151 112.698227,6.93025151 C117.476893,6.93025151 120.745183,10.8842792 120.745183,15.7445238 L120.745183,27.5900828 L116.246411,27.5900828 L116.246411,15.7445238 C116.246411,13.5226036 114.744608,11.6460086 112.560736,11.6460086 C110.374946,11.6460086 108.874536,13.5226036 108.874536,15.7445238 L108.874536,27.5900828 Z M4.70545909,27.5900741 L0.000350272754,27.5900828 L0.000350272754,2.40056805 L7.77597631,2.40056805 C12.4868471,2.40056805 16.3175351,6.29293023 16.3175351,11.0851081 C16.3175351,14.0031779 14.892608,16.5793027 12.7228872,18.1635425 L19.6848908,27.5900828 L13.7949057,27.5900828 L8.0335056,19.777827 L4.70545909,19.777827 L4.70545909,27.5900828 Z M4.70545909,7.18314843 L4.70545909,14.9914987 L7.77598508,14.9914987 C9.88875151,14.9914987 11.6168046,13.2442769 11.6168046,11.0850993 C11.6168046,8.93160494 9.88875151,7.18314843 7.77598508,7.18314843 L4.70545909,7.18314843 Z M83.5790196,22.8186937 L86.5441922,26.8335113 C85.1286875,27.6862414 83.3936464,28.1026458 82.1434266,28.1026458 C78.7884704,28.1026458 75.4537863,25.4131377 75.4550122,20.9104689 L75.4550122,12.2115327 L73.0749438,12.2115327 L73.0749438,7.42522194 L75.4550122,7.42522194 L75.454662,2.40040166 L79.953609,2.40040166 L79.9539592,7.42522194 L83.8012501,7.42522194 L83.8012501,12.2115327 L79.953968,12.2115327 L79.953968,20.8406158 C79.953968,22.7433412 81.3395858,23.3145485 82.0745981,23.3145485 C82.6649389,23.3145485 83.1749187,23.0975458 83.5790196,22.8186937 Z M46.5999632,16.8775249 L55.551735,27.5900828 L49.2483842,27.5900828 L42.6130886,19.3068503 L42.6130886,27.5900828 L37.9804862,27.5900828 L37.9804862,0.73510867 L42.6130886,0.73510867 L42.6130886,14.4501522 L48.0103976,7.4255722 L54.3168923,7.4255722 L46.5999632,16.8775249 Z M93.9707539,6.91390253 C99.0897363,6.91390253 103.69317,11.6769289 102.584469,18.9194048 L89.6253753,18.9165589 C90.2167669,23.5244406 95.3383851,25.8632995 98.4115294,21.2550673 L102.38512,23.5894864 C99.8308697,27.275678 96.790397,28.1033463 94.4176669,28.1033463 C89.7169191,28.1033463 85.0287635,23.7526347 85.0287635,17.5077356 C85.0287635,11.5685195 88.7637043,6.91390253 93.9707539,6.91390253 Z M97.8980471,14.9049551 C97.0213495,9.91123027 90.7421149,10.1820874 89.7953627,14.9049551 L97.8980471,14.9049551 Z" id="Combined-Shape" fill="#000000"></path>
    </g>
</svg>