<svg width="50" height="50" viewBox="0 0 50 50" fill="none" xmlns="http://www.w3.org/2000/svg">
<rect x="0.5" y="0.5" width="49" height="49" rx="9.5" fill="white" stroke="#EEEEEE"/>
<path d="M15.0859 32.5012L23.9261 40.593C24.2238 40.8657 24.6142 41.0115 25.0157 40.9999C25.4172 40.9883 25.7987 40.8201 26.0805 40.5307L33.9102 32.5012H15.0859Z" fill="#0098CA"/>
<path d="M24.5188 22.6669V30.0504L18.196 26.3578V18.9744L24.5188 22.6669Z" fill="url(#paint0_linear)"/>
<path d="M30.8415 18.9744V26.3578L24.5188 30.0504V22.6669L30.8415 18.9744Z" fill="url(#paint1_linear)"/>
<path d="M18.196 18.9744L24.5188 22.667L30.8415 18.9744L24.5188 15.2836L18.196 18.9744Z" fill="url(#paint2_linear)"/>
<path d="M18.1926 26.3682L24.5085 30.0607C24.5085 30.0607 27.1544 34.9276 32.8555 33.4069C32.8555 33.4069 28.5005 37.3905 21.8284 36.0603C21.8284 36.0603 18.2509 33.1281 18.1858 30.0607L18.1926 26.3682Z" fill="#0083CA"/>
<path d="M18.1925 30.0609V18.9883C18.1901 19.0023 18.1842 19.0154 18.1754 19.0264L18.1925 18.9849L14.8308 22.5094C11.3869 25.8955 13.2433 30.1994 13.2433 30.1994C16.1666 35.1407 21.8334 36.0604 21.8334 36.0604C18.047 32.8182 18.1925 30.0609 18.1925 30.0609Z" fill="#0075CA"/>
<path d="M18.1926 18.9849L14.8309 22.5094C14.8309 22.5094 11.4863 25.3672 13.2434 30.2081C13.2434 30.2081 8.4311 23.7218 12.8837 15.7357C12.8837 15.7357 14.5723 13.7456 17.2798 13.9846L24.5016 15.3027L18.1926 18.9849Z" fill="#005ECA"/>
<path d="M24.5086 15.294L17.2867 13.9759C17.2867 13.9759 14.9834 13.6088 12.8838 15.727C12.8838 15.727 18.1122 6.06253 29.2677 9.90232C29.2677 9.90232 30.8244 11.3901 30.8244 14.3015V18.9779L24.5086 15.294Z" fill="#FFC615"/>
<path d="M37.6215 19.4265C36.2155 12.3254 29.2745 9.9006 29.2745 9.9006C27.3239 9.05886 24.9932 9.02075 24.9932 9.02075C26.9712 9.69276 29.0416 12.7965 30.1068 14.5891C30.1291 14.6324 30.7816 15.8828 30.8312 16.8129V17.0502C30.8278 17.1004 30.8278 17.1507 30.8312 17.2009V26.3682L35.8764 22.7709C37.8629 21.2312 37.6215 19.4265 37.6215 19.4265Z" fill="#FFAD15"/>
<path d="M24.5085 30.0609C24.5085 30.0609 26.9969 34.9277 32.8555 33.407C32.8555 33.407 39.6475 28.4224 37.6215 19.4265C37.6215 19.4265 37.863 21.2312 35.8713 22.771L30.8313 26.0115L24.5085 30.0609Z" fill="#FFA515"/>
<defs>
<linearGradient id="paint0_linear" x1="19.1636" y1="29.9326" x2="24.6441" y2="16.6899" gradientUnits="userSpaceOnUse">
<stop stop-color="white"/>
<stop offset="1" stop-color="#E8E8E8"/>
</linearGradient>
<linearGradient id="paint1_linear" x1="523.634" y1="1906.66" x2="757.069" y2="1906.66" gradientUnits="userSpaceOnUse">
<stop stop-color="white"/>
<stop offset="1" stop-color="#E8E8E8"/>
</linearGradient>
<linearGradient id="paint2_linear" x1="612.405" y1="1375.83" x2="2158.03" y2="2877.38" gradientUnits="userSpaceOnUse">
<stop stop-color="white"/>
<stop offset="1" stop-color="#E8E8E8"/>
</linearGradient>
</defs>
</svg>
