<?xml version="1.0" encoding="UTF-8"?>
<svg width="124px" height="22px" viewBox="0 0 124 22" version="1.1" xmlns="http://www.w3.org/2000/svg" xmlns:xlink="http://www.w3.org/1999/xlink">
    <!-- Generator: Sketch 52.4 (67378) - http://www.bohemiancoding.com/sketch -->
    <title>Artboard</title>
    <desc>Created with Sketch.</desc>
    <g id="Artboard" stroke="none" stroke-width="1" fill="none" fill-rule="evenodd">
        <path d="M0.1578,0.86075 C1.6866,0.616 3.963,0.43175 6.49,0.43175 C9.6092,0.43175 11.7918,0.891 13.2898,2.055625 C14.5372,3.036 15.2232,4.475625 15.2232,6.3745 C15.2232,9.009 13.3206,10.81575 11.5118,11.45925 L11.5118,11.551375 C12.9776,12.133 13.7882,13.512125 14.3188,15.411 C14.974,17.738875 15.6292,20.43525 16.0338,21.231375 L11.1688,21.231375 C10.8258,20.64975 10.326,18.964 9.703,16.421625 C9.1416,13.849 8.2372,13.143625 6.3038,13.113375 L4.8688,13.113375 L4.8688,21.231375 L0.1592,21.231375 L0.1592,0.86075 L0.1578,0.86075 Z M4.8674,9.744625 L6.7392,9.744625 C9.1094,9.744625 10.5136,8.58 10.5136,6.77325 C10.5136,4.874375 9.2032,3.92425 7.0206,3.894 C5.867,3.894 5.2118,3.986125 4.8688,4.046625 L4.8688,9.744625 L4.8674,9.744625 Z M17.7404,0.86075 C19.4876,0.58575 21.764,0.43175 24.1664,0.43175 C28.1592,0.43175 30.7478,1.13575 32.775,2.63725 C34.959,4.230875 36.331,6.77325 36.331,10.418375 C36.331,14.370125 34.8652,17.09675 32.838,18.781125 C30.6232,20.587875 27.2548,21.445875 23.1374,21.445875 C20.6734,21.445875 18.9262,21.291875 17.7418,21.13925 L17.7418,0.86075 L17.7404,0.86075 Z M22.513,17.708625 C22.919,17.80075 23.5742,17.80075 24.1664,17.80075 C28.47,17.831 31.277,15.503125 31.277,10.571 C31.3078,6.282375 28.75,4.015 24.6648,4.015 C23.605,4.015 22.9176,4.107125 22.513,4.19925 L22.513,17.708625 Z M42.8102,18.016625 C44.0156,18.745375 45.7782,19.35175 47.6332,19.35175 C50.3842,19.35175 51.9914,17.9245 51.9914,15.860625 C51.9914,13.948 50.8784,12.854875 48.0658,11.792 C44.6652,10.608125 42.5638,8.877 42.5638,5.993625 C42.5638,2.806375 45.2532,0.43725 49.3034,0.43725 C51.437,0.43725 52.9826,0.922625 53.9094,1.439625 L53.1674,3.595625 C52.487,3.23125 51.0968,2.6235 49.211,2.6235 C46.3676,2.6235 45.2854,4.29275 45.2854,5.68975 C45.2854,7.602375 46.5524,8.54425 49.428,9.637375 C52.9518,10.9725 54.7452,12.643125 54.7452,15.648875 C54.7452,18.805875 52.3652,21.539375 47.4498,21.539375 C45.4408,21.539375 43.2456,20.961875 42.1326,20.2345 L42.8102,18.016625 Z M60.1716,3.007125 L60.1716,6.40475 L64.1014,6.40475 L64.1014,8.457625 L60.1716,8.457625 L60.1716,16.45325 C60.1716,18.291625 60.7022,19.3325 62.2296,19.3325 C62.9478,19.3325 63.477,19.240375 63.82,19.14825 L63.9446,21.1695 C63.414,21.384 62.5726,21.536625 61.5114,21.536625 C60.2332,21.536625 59.2028,21.137875 58.549,20.403625 C57.7692,19.6075 57.4892,18.29025 57.4892,16.544 L57.4892,8.457625 L55.1498,8.457625 L55.1498,6.40475 L57.4892,6.40475 L57.4892,3.711125 L60.1716,3.007125 Z M83.3262,3.007125 L83.3262,6.40475 L87.256,6.40475 L87.256,8.457625 L83.3262,8.457625 L83.3262,16.45325 C83.3262,18.291625 83.8568,19.3325 85.3842,19.3325 C86.101,19.3325 86.6316,19.240375 86.9746,19.14825 L87.0992,21.1695 C86.5686,21.384 85.7272,21.536625 84.666,21.536625 C83.3878,21.536625 82.3574,21.137875 81.7036,20.403625 C80.9238,19.6075 80.6438,18.29025 80.6438,16.544 L80.6438,8.457625 L78.3044,8.457625 L78.3044,6.40475 L80.6438,6.40475 L80.6438,3.711125 L83.3262,3.007125 Z M75.0508,21.231375 L74.8324,19.36275 L74.7386,19.36275 C73.8958,20.527375 72.2746,21.56825 70.1228,21.56825 C67.0666,21.56825 65.507,19.454875 65.507,17.309875 C65.507,13.72525 68.7508,11.765875 74.5832,11.796125 L74.5832,11.4895 C74.5832,10.264375 74.2402,8.058875 71.1518,8.058875 C69.7476,8.058875 68.2818,8.487875 67.222,9.161625 L66.5976,7.385125 C67.845,6.589 69.6538,6.067875 71.5564,6.067875 C76.1722,6.067875 77.295,9.161625 77.295,12.133 L77.295,17.677 C77.295,18.964 77.3566,20.219375 77.5442,21.23 L75.0508,21.23 L75.0508,21.231375 Z M74.6448,13.66475 C71.6502,13.602875 68.251,14.124 68.251,17.00325 C68.251,18.7495 69.4368,19.575875 70.8396,19.575875 C72.8052,19.575875 74.0526,18.35075 74.4894,17.094 C74.5832,16.817625 74.6448,16.512375 74.6448,16.236 L74.6448,13.66475 Z M92.667,2.2385 C92.6978,3.157 92.0118,3.892625 90.9198,3.892625 C89.9524,3.892625 89.2664,3.157 89.2664,2.2385 C89.2664,1.288375 89.9832,0.554125 90.9814,0.554125 C92.0118,0.554125 92.667,1.28975 92.667,2.2385 Z M89.6094,6.40475 L92.3548,6.40475 L92.3548,21.231375 L89.6094,21.231375 L89.6094,6.40475 Z M109.173,13.696375 C109.173,19.179875 105.3048,21.569625 101.6564,21.569625 C97.5712,21.569625 94.4198,18.6285 94.4198,13.9425 C94.4198,8.980125 97.7252,6.06925 101.9056,6.06925 C106.2414,6.067875 109.173,9.161625 109.173,13.696375 Z M97.196,13.849 C97.196,17.09675 99.0986,19.547 101.781,19.547 C104.4004,19.547 106.366,17.127 106.366,13.7885 C106.366,11.276375 105.0864,8.0905 101.844,8.0905 C98.6002,8.0905 97.196,11.03025 97.196,13.849 Z M110.9916,10.418375 C110.9916,8.886625 110.9608,7.63125 110.867,6.406125 L113.3002,6.406125 L113.4556,8.856375 L113.5172,8.856375 C114.2662,7.447 116.012,6.06925 118.5082,6.06925 C120.5984,6.06925 123.8422,7.294375 123.8422,12.379125 L123.8422,21.23275 L121.0968,21.23275 L121.0968,12.68575 C121.0968,10.296 120.1924,8.305 117.6038,8.305 C115.795,8.305 114.3908,9.560375 113.9232,11.061875 C113.7986,11.39875 113.7356,11.858 113.7356,12.31725 L113.7356,21.231375 L110.9902,21.231375 L110.9902,10.418375 L110.9916,10.418375 Z" id="Combined-Shape" fill="#425B9C" fill-rule="nonzero"></path>
    </g>
</svg>