<svg width="50" height="50" viewBox="0 0 50 50" fill="none" xmlns="http://www.w3.org/2000/svg">
<rect width="50" height="50" rx="10" fill="#425B9C"/>
<path fill-rule="evenodd" clip-rule="evenodd" d="M17.0419 18C15.4289 18 13.9759 18.1176 13 18.2738H13.0009V31.2767H16.0071V26.0949H16.9231C18.1572 26.1142 18.7345 26.5644 19.0929 28.2066C19.4905 29.8294 19.8096 30.9055 20.0285 31.2767H23.1339C22.9467 30.9083 22.6754 29.9025 22.381 28.811C22.2693 28.3968 22.1542 27.9702 22.0392 27.5615C21.7005 26.3494 21.1831 25.4691 20.2474 25.0978V25.039C21.402 24.6283 22.6165 23.475 22.6165 21.7934C22.6165 20.5813 22.1786 19.6623 21.3824 19.0365C20.4262 18.2931 19.033 18 17.0419 18ZM17.2013 23.9548H16.0074V20.3176C16.2263 20.279 16.6446 20.2202 17.3809 20.2202C18.7741 20.2395 19.6106 20.846 19.6106 22.0581C19.6106 23.2114 18.7142 23.9548 17.2013 23.9548Z" fill="white"/>
<path fill-rule="evenodd" clip-rule="evenodd" d="M28.3251 18C26.7916 18 25.3386 18.0983 24.2233 18.2738H24.2242V31.2179C24.9802 31.3154 26.0955 31.4137 27.6683 31.4137C30.2965 31.4137 32.4466 30.866 33.8603 29.7127C35.1543 28.6375 36.09 26.8971 36.09 24.3746C36.09 22.0479 35.2142 20.425 33.8201 19.4078C32.5261 18.4494 30.8738 18 28.3251 18ZM28.3252 29.0799C27.9472 29.0799 27.529 29.0799 27.2698 29.0211V20.3979C27.5281 20.3391 27.9669 20.2803 28.6434 20.2803C31.251 20.2803 32.8837 21.7276 32.864 24.4651C32.864 27.6133 31.0723 29.0993 28.3252 29.0799Z" fill="white"/>
</svg>
