<svg width="127" height="23" viewBox="0 0 127 23" fill="none" xmlns="http://www.w3.org/2000/svg">
<path d="M0.629883 1.30366C2.18661 1.05444 4.50459 0.866821 7.07775 0.866821C10.2539 0.866821 12.4764 1.33446 14.0018 2.52036C15.2719 3.51864 15.9705 4.98457 15.9705 6.91813C15.9705 9.60075 14.0331 11.4405 12.1913 12.0958V12.1896C13.6839 12.7818 14.5093 14.1861 15.0496 16.1197C15.7167 18.4901 16.3839 21.2357 16.7959 22.0464H11.842C11.4927 21.4541 10.9838 19.7376 10.3494 17.1488C9.77779 14.5292 8.85686 13.8109 6.88815 13.7801H5.42694V22.0464H0.631308V1.30366H0.629883ZM5.42551 10.3498H7.3315C9.745 10.3498 11.1748 9.16392 11.1748 7.32416C11.1748 5.3906 9.84051 4.42312 7.61804 4.39232C6.44337 4.39232 5.7762 4.48612 5.42694 4.54773V10.3498H5.42551ZM18.5337 1.30366C20.3128 1.02363 22.6308 0.866821 25.077 0.866821C29.1428 0.866821 31.7787 1.58368 33.8429 3.11261C36.0668 4.73534 37.4638 7.32416 37.4638 11.0359C37.4638 15.0598 35.9713 17.8362 33.907 19.5514C31.6518 21.3911 28.2218 22.2648 24.0292 22.2648C21.5202 22.2648 19.7411 22.108 18.5351 21.9526V1.30366H18.5337ZM23.3934 18.4593C23.8068 18.5531 24.474 18.5531 25.077 18.5531C29.4592 18.5839 32.3175 16.2135 32.3175 11.1913C32.3489 6.82432 29.7444 4.51553 25.5845 4.51553C24.5054 4.51553 23.8054 4.60933 23.3934 4.70314V18.4593ZM44.0614 18.7729C45.2888 19.515 47.0836 20.1324 48.9725 20.1324C51.7737 20.1324 53.4103 18.6791 53.4103 16.5775C53.4103 14.63 52.277 13.5169 49.413 12.4346C45.9503 11.2291 43.8105 9.46634 43.8105 6.5303C43.8105 3.28482 46.549 0.872422 50.6732 0.872422C52.8458 0.872422 54.4196 1.36666 55.3633 1.89311L54.6078 4.08849C53.915 3.71746 52.4994 3.09861 50.5791 3.09861C47.6838 3.09861 46.5818 4.79835 46.5818 6.22087C46.5818 8.16843 47.8719 9.12751 50.8001 10.2406C54.3882 11.6001 56.2144 13.3013 56.2144 16.3619C56.2144 19.5766 53.7909 22.36 48.7857 22.36C46.74 22.36 44.5047 21.772 43.3714 21.0313L44.0614 18.7729ZM61.7399 3.48924V6.94893H65.7415V9.03931H61.7399V17.181C61.7399 19.0529 62.2802 20.1128 63.8355 20.1128C64.5668 20.1128 65.1057 20.019 65.455 19.9252L65.5818 21.9834C65.0415 22.2018 64.1848 22.3572 63.1042 22.3572C61.8026 22.3572 60.7534 21.9512 60.0877 21.2035C59.2936 20.3929 59.0085 19.0515 59.0085 17.2734V9.03931H56.6264V6.94893H59.0085V4.2061L61.7399 3.48924ZM85.3175 3.48924V6.94893H89.3191V9.03931H85.3175V17.181C85.3175 19.0529 85.8578 20.1128 87.4131 20.1128C88.143 20.1128 88.6833 20.019 89.0325 19.9252L89.1594 21.9834C88.6191 22.2018 87.7623 22.3572 86.6817 22.3572C85.3802 22.3572 84.331 21.9512 83.6652 21.2035C82.8712 20.3929 82.5861 19.0515 82.5861 17.2734V9.03931H80.2039V6.94893H82.5861V4.2061L85.3175 3.48924ZM76.8909 22.0464L76.6685 20.1436H76.573C75.7148 21.3295 74.064 22.3894 71.8729 22.3894C68.7609 22.3894 67.1728 20.2374 67.1728 18.0533C67.1728 14.4032 70.4758 12.408 76.4148 12.4388V12.1266C76.4148 10.8791 76.0655 8.63327 72.9207 8.63327C71.4908 8.63327 69.9983 9.07011 68.9191 9.75616L68.2833 7.94721C69.5535 7.13655 71.3953 6.6059 73.3327 6.6059C78.0328 6.6059 79.1761 9.75617 79.1761 12.7818V18.4271C79.1761 19.7376 79.2388 21.0159 79.4299 22.045H76.8909V22.0464ZM76.4775 14.3415C73.4282 14.2785 69.9669 14.8092 69.9669 17.741C69.9669 19.5192 71.1744 20.3607 72.6028 20.3607C74.6043 20.3607 75.8745 19.1131 76.3193 17.8334C76.4148 17.552 76.4775 17.2412 76.4775 16.9598V14.3415ZM94.8289 2.70658C94.8603 3.64185 94.1617 4.39092 93.0498 4.39092C92.0647 4.39092 91.3662 3.64185 91.3662 2.70658C91.3662 1.73909 92.0961 0.991432 93.1125 0.991432C94.1617 0.991432 94.8289 1.74049 94.8289 2.70658ZM91.7154 6.94893H94.511V22.0464H91.7154V6.94893ZM111.636 14.3738C111.636 19.9574 107.698 22.3908 103.983 22.3908C99.8227 22.3908 96.6137 19.396 96.6137 14.6244C96.6137 9.57135 99.9795 6.6073 104.236 6.6073C108.651 6.6059 111.636 9.75616 111.636 14.3738ZM99.4406 14.5292C99.4406 17.8362 101.378 20.3313 104.109 20.3313C106.777 20.3313 108.778 17.867 108.778 14.4676C108.778 11.9095 107.475 8.66547 104.174 8.66547C100.87 8.66547 99.4406 11.6589 99.4406 14.5292ZM113.488 11.0359C113.488 9.47614 113.457 8.19784 113.361 6.95033H115.839L115.997 9.44534H116.06C116.823 8.01022 118.6 6.6073 121.142 6.6073C123.271 6.6073 126.574 7.85481 126.574 13.0324V22.0478H123.778V13.3447C123.778 10.9113 122.857 8.88389 120.221 8.88389C118.379 8.88389 116.95 10.1622 116.473 11.6911C116.346 12.0342 116.282 12.5018 116.282 12.9694V22.0464H113.487V11.0359H113.488Z" fill="#425B9C"/>
</svg>
