<?xml version="1.0" encoding="UTF-8"?>
<svg width="100px" height="33px" viewBox="0 0 100 33" version="1.1" xmlns="http://www.w3.org/2000/svg" xmlns:xlink="http://www.w3.org/1999/xlink">
    <!-- Generator: Sketch 52.4 (67378) - http://www.bohemiancoding.com/sketch -->
    <title>Artboard</title>
    <desc>Created with Sketch.</desc>
    <g id="Artboard" stroke="none" stroke-width="1" fill="none" fill-rule="evenodd">
        <path d="M98.3456034,20.4131856 L76.4248491,20.4131856 C73.2297957,20.4131856 71.8752584,19.1723882 71.3231036,17.5076516 L78.2322773,17.5076516 C82.8501117,17.5076516 85.6936057,15.4727438 85.6936057,11.0803209 C85.6936057,6.68789809 82.8439077,4.42551079 78.2260732,4.42551079 L76.0298618,4.42551079 C71.8938705,4.42551079 66.860369,6.83265779 65.8036231,12.5961618 L59.622384,12.5961618 L59.622384,-1.42108547e-14 L54.3882869,-1.42108547e-14 L54.3882869,12.5961618 L47.9299364,12.5961618 C41.7383571,12.6271817 38.2910083,15.7622632 37.8401853,20.4131856 L27.0328397,20.4131856 C23.8377864,20.4131856 22.4832492,19.1723882 21.9310944,17.5076516 L28.8402681,17.5076516 C33.4581025,17.5076516 36.3015965,15.4727438 36.3015965,11.0803209 C36.3015965,6.68789809 33.4601704,4.42551079 28.842336,4.42551079 L26.6461245,4.42551079 C22.5101331,4.42551079 17.4766317,6.83265779 16.4198858,12.5961618 L11.8847713,12.5961618 C9.04334519,12.5961618 6.52245843,13.468856 5.13483332,15.1811564 L5.13483332,12.982877 L8.52651283e-14,12.982877 L8.52651283e-14,31.1026553 C8.52651283e-14,32.1366531 0.322607329,32.4592605 1.32351725,32.4592605 L3.90851187,32.4592605 C4.87633386,32.4592605 5.23202912,32.1366531 5.23202912,31.1026553 L5.23202912,23.9660022 C5.23202912,18.5726694 8.62354206,17.5055836 12.1122508,17.5055836 L16.4674497,17.5055836 C17.5552155,22.8575565 22.0365622,25.4177352 27.2210274,25.4177352 L38.4874679,25.4177352 C39.7820332,28.5197287 42.8736869,30.1327653 47.8286045,30.1327653 L50.8313343,30.1327653 C55.7407561,30.1327653 59.8746795,26.6440566 59.8746795,21.5092232 L59.8746795,17.5055836 L65.844983,17.5055836 C66.9327488,22.8575565 71.4140955,25.4177352 76.5985606,25.4177352 L98.3456034,25.4177352 C98.6324622,25.4133808 98.9058383,25.2952334 99.1055751,25.0892912 C99.3053118,24.883349 99.4150427,24.6064871 99.4106212,24.3196294 L99.4106212,21.4451155 C99.4062679,21.1670317 99.2916069,20.902071 99.0918696,20.7085392 C98.8921325,20.5150074 98.6236861,20.408763 98.3456034,20.4131856 Z M26.451733,9.33493258 L29.0036396,9.33493258 C30.1658532,9.33493258 30.9744396,9.81884357 30.9744396,10.9893291 C30.9744396,12.0874349 30.1679213,12.6044338 29.0036396,12.6044338 L21.7863347,12.6044338 C22.2144097,10.7763256 23.4159153,9.33493258 26.451733,9.33493258 Z M54.3882869,21.6725949 C54.3882869,23.7075027 52.8393581,25.1613036 50.8354703,25.1613036 L47.4770452,25.1613036 C44.7638349,25.1613036 42.9874266,24.0962858 42.9874266,21.4140955 C42.9874266,18.7980809 44.7638349,17.5055836 47.4770452,17.5055836 L54.3882869,17.5055836 L54.3882869,21.6725949 Z M75.8354703,9.33493258 L78.377037,9.33493258 C79.5392505,9.33493258 80.3478369,9.81884357 80.3478369,10.9893291 C80.3478369,12.0874349 79.5413186,12.6044338 78.377037,12.6044338 L71.1597319,12.6044338 C71.598147,10.7763256 72.7934486,9.33493258 75.8354703,9.33493258 Z" id="Shape" fill="#FF7800" fill-rule="nonzero"></path>
    </g>
</svg>