<svg width="24" height="24" viewBox="0 0 24 24" fill="none" xmlns="http://www.w3.org/2000/svg">
<path fill-rule="evenodd" clip-rule="evenodd" d="M9.24364 5.1977C11.9606 4.49877 12.3445 6.18211 12.2461 7.08777C12.0394 8.94831 11.7834 9.51927 11.37 11.3011C13.1222 8.76128 15.0911 5.02051 17.9754 5.07957C18.6546 5.05988 19.324 5.38474 19.324 5.38474C21.7851 6.98933 19.5111 10.3068 17.6505 9.99179C16.5185 9.8146 16.3216 9.16488 16.1936 8.06234C16.0263 7.64889 15.3076 7.7178 14.9139 8.13125C12.8564 10.3757 11.4389 13.5751 11.4389 13.5751C11.4389 13.5751 10.4348 16.2034 9.30271 18.3593C9.30271 18.3593 8.98769 18.7924 8.20016 18.8712L5.60131 18.8417C4.73503 18.7629 4.93191 18.1624 4.93191 18.1624C4.93191 18.1624 8.02297 8.87941 8.00328 8.36751C8.06235 8.07219 7.98359 7.22559 7.16653 7.6292C6.08368 8.17063 6.0443 8.91878 4.88269 9.78506C4.88269 9.78506 4.29204 10.0607 4.29204 9.41099C4.69565 8.35767 6.98934 5.72928 9.24364 5.1977ZM0 12C0 5.3749 5.3749 0 12 0C18.6251 0 24 5.3749 24 12C24 18.6251 18.6251 24 12 24C5.3749 24.0098 0 18.6349 0 12Z" fill="#D61F27"/>
</svg>
