<svg width="50" height="50" viewBox="0 0 50 50" fill="none" xmlns="http://www.w3.org/2000/svg">
<rect x="0.5" y="0.5" width="49" height="49" rx="9.5" fill="white" stroke="#EEEEEE"/>
<path fill-rule="evenodd" clip-rule="evenodd" d="M14.4537 14.1312C13.2943 14.2147 12.141 14.3678 11 14.5895V36.9504H16.107V28.6673H18.6277C19.0655 29.1912 19.5037 29.775 19.9422 30.4189C20.3807 31.0628 20.8244 31.7449 21.2732 32.4651C21.7224 33.1853 22.1604 33.9274 22.5873 34.6913C23.0142 35.4553 23.4361 36.2083 23.8528 36.9504H29.5617C29.1689 36.1211 28.7433 35.2753 28.285 34.4131C27.8267 33.5508 27.352 32.7214 26.861 31.9249C26.3699 31.1286 25.8734 30.3647 25.3714 29.6331C24.8694 28.9015 24.3893 28.2522 23.931 27.685C25.3059 27.1176 26.3589 26.3373 27.0899 25.3441C27.8208 24.3508 28.1863 23.0576 28.1863 21.4645C28.1863 18.9109 27.2806 17.0284 25.4692 15.817C23.6578 14.6056 21.0497 14 17.6451 14C16.7068 14.0002 15.643 14.0439 14.4537 14.1312ZM21.6558 19.0584C22.4956 19.5281 22.9157 20.3193 22.9162 21.432C22.9162 22.5894 22.5015 23.4079 21.6722 23.8875C20.8429 24.3671 19.468 24.6072 17.5474 24.6077H16.107V18.4527C16.3689 18.4313 16.6471 18.4095 16.9417 18.3875C17.2364 18.366 17.5692 18.3551 17.9403 18.3548C19.5773 18.3546 20.8158 18.5891 21.6558 19.0584Z" fill="#1C1C1E"/>
<path d="M36.3869 14.0655H42.9998L30.4688 36.9737H23.856L36.3869 14.0655Z" fill="#00E86E"/>
</svg>
