<?xml version="1.0" encoding="UTF-8"?>
<svg width="55px" height="55px" viewBox="0 0 55 55" version="1.1" xmlns="http://www.w3.org/2000/svg" xmlns:xlink="http://www.w3.org/1999/xlink">
    <!-- Generator: Sketch 52.4 (67378) - http://www.bohemiancoding.com/sketch -->
    <title>Group 42</title>
    <desc>Created with Sketch.</desc>
    <defs>
        <linearGradient x1="50%" y1="0%" x2="50%" y2="100%" id="linearGradient-1">
            <stop stop-color="#FEEC5D" offset="0%"></stop>
            <stop stop-color="#FFE315" offset="100%"></stop>
        </linearGradient>
        <linearGradient x1="50%" y1="0%" x2="50%" y2="50%" id="linearGradient-2">
            <stop stop-color="#FAE853" offset="0%"></stop>
            <stop stop-color="#A92426" offset="100%"></stop>
        </linearGradient>
        <linearGradient x1="50%" y1="21.3691301%" x2="50%" y2="100%" id="linearGradient-3">
            <stop stop-color="#E62D33" offset="0%"></stop>
            <stop stop-color="#CC2225" offset="100%"></stop>
        </linearGradient>
    </defs>
    <g id="HOME" stroke="none" stroke-width="1" fill="none" fill-rule="evenodd">
        <g id="Group-42">
            <rect id="Rectangle" fill="url(#linearGradient-1)" x="0" y="0" width="55" height="55"></rect>
            <g id="Group-40" transform="translate(4.000000, 9.000000)">
                <g id="Group-38">
                    <path d="M26.749,5.237 L26.631,5.237 C25.691,5.237 24.987,5.354 24.635,5.53 C24.282,5.764 23.871,6.291 23.577,7.053 L22.225,10.041 C22.108,10.334 21.991,10.627 21.991,10.803 C21.873,11.331 21.991,11.74 22.285,11.916 C22.579,12.15 23.107,12.268 23.871,12.268 L26.513,12.268 L26.749,12.268 C27.63,12.268 28.216,12.15 28.628,11.916 C29.097,11.682 29.508,11.213 29.803,10.393 L31.037,7.698 C31.33,6.994 31.507,6.526 31.507,6.467 C31.624,5.998 31.507,5.705 31.212,5.471 C30.919,5.354 30.449,5.237 29.744,5.237 L26.749,5.237 Z M26.749,0.256 L36.146,0.256 C37.849,0.256 38.966,0.315 39.493,0.432 C40.082,0.549 40.611,0.842 41.08,1.311 C42.196,2.425 42.607,3.831 42.255,5.647 C42.196,6.115 41.961,6.76 41.608,7.405 L39.553,12.15 C38.672,14.025 37.556,15.256 36.087,15.959 C34.854,16.546 33.092,16.956 30.685,17.014 C30.742,17.365 32.681,27.443 33.092,29.494 L26.749,29.494 L22.695,29.494 L20.17,17.014 L19.054,17.014 L13.298,29.494 L2.902,29.494 L13.591,5.823 C14.062,4.709 14.591,3.831 15.061,3.186 C15.53,2.6 16.117,2.073 16.881,1.546 C17.645,1.077 18.467,0.725 19.348,0.549 C20.229,0.374 21.521,0.256 23.224,0.256 L26.749,0.256 Z" id="Combined-Shape" fill="#81191A"></path>
                    <path d="M25.749,5.237 L25.631,5.237 C24.691,5.237 23.987,5.354 23.635,5.53 C23.282,5.764 22.871,6.291 22.577,7.053 L21.225,10.041 C21.108,10.334 20.991,10.627 20.991,10.803 C20.873,11.331 20.991,11.74 21.285,11.916 C21.579,12.15 22.107,12.268 22.871,12.268 L25.513,12.268 L25.749,12.268 C26.63,12.268 27.216,12.15 27.628,11.916 C28.097,11.682 28.508,11.213 28.803,10.393 L30.037,7.698 C30.33,6.994 30.507,6.526 30.507,6.467 C30.624,5.998 30.507,5.705 30.212,5.471 C29.919,5.354 29.449,5.237 28.744,5.237 L25.749,5.237 Z M25.749,0.256 L35.146,0.256 C36.849,0.256 37.966,0.315 38.493,0.432 C39.082,0.549 39.611,0.842 40.08,1.311 C41.196,2.425 41.607,3.831 41.255,5.647 C41.196,6.115 40.961,6.76 40.608,7.405 L38.553,12.15 C37.672,14.025 36.556,15.256 35.087,15.959 C33.854,16.546 32.092,16.956 29.685,17.014 C29.742,17.365 31.681,27.443 32.092,29.494 L25.749,29.494 L21.695,29.494 L19.17,17.014 L18.054,17.014 L12.298,29.494 L1.902,29.494 L12.591,5.823 C13.062,4.709 13.591,3.831 14.061,3.186 C14.53,2.6 15.117,2.073 15.881,1.546 C16.645,1.077 17.467,0.725 18.348,0.549 C19.229,0.374 20.521,0.256 22.224,0.256 L25.749,0.256 Z" id="Combined-Shape" fill="url(#linearGradient-2)"></path>
                    <path d="M24.749,5.237 L24.631,5.237 C23.691,5.237 22.987,5.354 22.635,5.53 C22.282,5.764 21.871,6.291 21.577,7.053 L20.225,10.041 C20.108,10.334 19.991,10.627 19.991,10.803 C19.873,11.331 19.991,11.74 20.285,11.916 C20.579,12.15 21.107,12.268 21.871,12.268 L24.513,12.268 L24.749,12.268 C25.63,12.268 26.216,12.15 26.628,11.916 C27.097,11.682 27.508,11.213 27.803,10.393 L29.037,7.698 C29.33,6.994 29.507,6.526 29.507,6.467 C29.624,5.998 29.507,5.705 29.212,5.471 C28.919,5.354 28.449,5.237 27.744,5.237 L24.749,5.237 Z M24.749,0.256 L34.146,0.256 C35.849,0.256 36.966,0.315 37.493,0.432 C38.082,0.549 38.611,0.842 39.08,1.311 C40.196,2.425 40.607,3.831 40.255,5.647 C40.196,6.115 39.961,6.76 39.608,7.405 L37.553,12.15 C36.672,14.025 35.556,15.256 34.087,15.959 C32.854,16.546 31.092,16.956 28.685,17.014 C28.742,17.365 30.681,27.443 31.092,29.494 L24.749,29.494 L20.695,29.494 L18.17,17.014 L17.054,17.014 L11.298,29.494 L0.902,29.494 L11.591,5.823 C12.062,4.709 12.591,3.831 13.061,3.186 C13.53,2.6 14.117,2.073 14.881,1.546 C15.645,1.077 16.467,0.725 17.348,0.549 C18.229,0.374 19.521,0.256 21.224,0.256 L24.749,0.256 Z" id="Combined-Shape" fill="url(#linearGradient-3)"></path>
                </g>
                <g id="Group-39" transform="translate(26.000000, 22.000000)">
                    <path d="M17.3689231,0.236307692 C19.0043077,0.236307692 19.7558462,1.51476923 19.0481538,3.14707692 L15.4243077,11.2147692 C14.7173846,12.8024615 12.8612308,14.1247692 11.2250769,14.1247692 L2.19276923,14.1247692 C0.558153846,14.1247692 -0.192615385,12.8024615 0.513538462,11.1709231 L4.09353846,3.14707692 C4.80123077,1.51476923 6.74584615,0.192461538 8.38123077,0.192461538 L17.3689231,0.236307692 Z" id="Fill-20" fill="#017737"></path>
                    <path d="M10.2374615,3.85238462 L13.0220769,3.85238462 C13.5520769,3.85238462 13.9497692,3.89546154 14.259,3.94007692 C14.3474615,3.98469231 14.4805385,4.02853846 14.569,4.07238462 C14.7013077,4.16084615 14.7897692,4.20546154 14.8782308,4.337 C15.2313077,4.69007692 15.3205385,5.13084615 15.2313077,5.70392308 C15.1874615,5.92392308 15.099,6.14469231 14.9666923,6.40930769 L14.569,7.33469231 L14.1705385,8.26161538 L10.2374615,8.26161538 L8.11592308,8.26161538 L7.80592308,8.92161538 C7.71823077,9.09853846 7.67361538,9.23161538 7.62976923,9.31930769 C7.62976923,9.407 7.62976923,9.49546154 7.71823077,9.58392308 C7.76207692,9.67161538 7.80592308,9.71623077 7.89515385,9.71623077 C7.939,9.71623077 8.15976923,9.76007692 8.55823077,9.76007692 L10.2374615,9.76007692 L12.0936154,9.76007692 L13.4197692,9.76007692 L12.8451538,11.2146923 L10.2374615,11.2146923 L6.03823077,11.2146923 C5.28746154,11.2146923 4.80130769,11.0385385 4.49130769,10.6862308 C4.13823077,10.3331538 4.00592308,9.84853846 4.09361538,9.36315385 C4.13823077,9.187 4.18207692,8.96623077 4.31515385,8.79007692 L5.77361538,5.527 C6.25976923,4.42546154 7.18746154,3.85238462 8.42515385,3.85238462 L10.2374615,3.85238462 Z M10.2374615,5.26315385 L10.1043846,5.26315385 C9.83976923,5.26315385 9.66284615,5.307 9.53053846,5.39469231 C9.39746154,5.48392308 9.26438462,5.70392308 9.13207692,5.96853846 L8.779,6.80546154 L10.2374615,6.80546154 L11.2097692,6.80546154 L11.5628462,5.96853846 C11.6513077,5.88007692 11.6959231,5.74776923 11.6959231,5.66007692 C11.7397692,5.39469231 11.6074615,5.26315385 11.2536154,5.26315385 L10.2374615,5.26315385 Z" id="Combined-Shape" fill="#FEFEFE"></path>
                </g>
            </g>
        </g>
    </g>
</svg>