<svg width="140" height="41" viewBox="0 0 140 41" fill="none" xmlns="http://www.w3.org/2000/svg">
<path d="M30.6155 8.26601C30.5928 8.06143 30.4109 7.97051 30.2745 7.97051C30.1381 7.97051 27.1604 7.7432 27.1604 7.7432C27.1604 7.7432 25.0919 5.67471 24.8419 5.47014C24.6146 5.24283 24.1827 5.31102 24.0009 5.35648C23.9781 5.35648 23.5462 5.49287 22.8416 5.72017C22.1369 3.69714 20.9322 1.85596 18.7728 1.85596H18.5682C17.9772 1.08311 17.2044 0.719421 16.5679 0.719421C11.5672 0.719421 9.15772 6.97036 8.40761 10.1527C6.45277 10.7664 5.0662 11.1755 4.90708 11.2437C3.81601 11.5847 3.79328 11.6074 3.65689 12.6303C3.54324 13.4031 0.701904 35.3837 0.701904 35.3837L22.8189 39.5207L34.8207 36.9294C34.8434 36.884 30.6382 8.47058 30.6155 8.26601ZM21.6141 6.0384C21.0686 6.19752 20.4094 6.4021 19.7502 6.6294V6.22025C19.7502 4.99279 19.5911 3.99264 19.2956 3.19707C20.4321 3.33345 21.1368 4.58364 21.6141 6.0384ZM17.909 3.4471C18.2045 4.21995 18.4091 5.31102 18.4091 6.81124V7.03855C17.1817 7.42497 15.886 7.81139 14.5449 8.24328C15.295 5.37921 16.727 3.96991 17.909 3.4471ZM16.4543 2.0378C16.6816 2.0378 16.9089 2.12872 17.0907 2.26511C15.4768 3.01522 13.772 4.90187 13.0674 8.72062C11.9991 9.06158 10.9762 9.35708 9.99875 9.67531C10.8171 6.76578 12.8628 2.0378 16.4543 2.0378V2.0378Z" fill="#95BF47"/>
<path d="M30.2769 7.92515C30.1405 7.92515 27.1628 7.69785 27.1628 7.69785C27.1628 7.69785 25.0943 5.62935 24.8442 5.42478C24.7533 5.33385 24.6397 5.28839 24.5487 5.28839L22.8894 39.5208L34.8912 36.9295C34.8912 36.9295 30.686 8.47069 30.6633 8.26611C30.5724 8.06154 30.4133 7.97062 30.2769 7.92515V7.92515Z" fill="#5E8E3E"/>
<path d="M18.7742 14.5623L17.3194 18.9493C17.3194 18.9493 16.001 18.2446 14.4326 18.2446C12.0914 18.2446 11.9777 19.7221 11.9777 20.0858C11.9777 22.0861 17.2058 22.8589 17.2058 27.5642C17.2058 31.2693 14.8645 33.656 11.7049 33.656C7.88619 33.656 5.97681 31.292 5.97681 31.292L6.99969 27.9279C6.99969 27.9279 8.99999 29.6554 10.6821 29.6554C11.7959 29.6554 12.2505 28.7917 12.2505 28.1552C12.2505 25.5412 7.97711 25.4275 7.97711 21.1087C7.97711 17.4945 10.5684 13.994 15.8192 13.994C17.774 13.9713 18.7742 14.5623 18.7742 14.5623V14.5623Z" fill="white"/>
<path d="M48.8231 22.8135C47.6184 22.177 47.0046 21.6088 47.0046 20.8586C47.0046 19.904 47.8684 19.2902 49.2095 19.2902C50.7779 19.2902 52.1645 19.9267 52.1645 19.9267L53.2556 16.5853C53.2556 16.5853 52.2554 15.8124 49.3004 15.8124C45.1862 15.8124 42.3221 18.1764 42.3221 21.4951C42.3221 23.3818 43.6632 24.8138 45.4362 25.8367C46.891 26.6322 47.391 27.2232 47.391 28.087C47.391 28.9735 46.6637 29.7009 45.3226 29.7009C43.345 29.7009 41.4583 28.678 41.4583 28.678L40.2991 32.0194C40.2991 32.0194 42.0266 33.1787 44.9361 33.1787C49.164 33.1787 52.2327 31.0875 52.2327 27.3369C52.1872 25.2911 50.6643 23.8818 48.8231 22.8135V22.8135ZM65.6892 15.767C63.598 15.767 61.9614 16.7671 60.7112 18.2673L60.6658 18.2446L62.4842 8.78865H57.779L53.1874 32.8832H57.8926L59.461 24.6547C60.0748 21.5406 61.6886 19.6085 63.1889 19.6085C64.2572 19.6085 64.6664 20.3358 64.6664 21.3587C64.6664 21.9952 64.6209 22.8135 64.4618 23.4499L62.6888 32.8832H67.394L69.2352 23.1544C69.4398 22.1316 69.5762 20.9041 69.5762 20.0631C69.5535 17.3581 68.1669 15.767 65.6892 15.767V15.767ZM80.2141 15.767C74.5315 15.767 70.7809 20.8814 70.7809 26.5868C70.7809 30.2237 73.0313 33.1787 77.2592 33.1787C82.8282 33.1787 86.5787 28.2007 86.5787 22.3589C86.6015 18.972 84.6466 15.767 80.2141 15.767ZM77.8956 29.5872C76.2817 29.5872 75.6225 28.2234 75.6225 26.4959C75.6225 23.7909 77.0091 19.4039 79.5777 19.4039C81.237 19.4039 81.8053 20.8586 81.8053 22.2452C81.8053 25.132 80.3733 29.5872 77.8956 29.5872ZM98.6487 15.767C95.4664 15.767 93.6707 18.5856 93.6707 18.5856H93.6252L93.898 16.0625H89.7156C89.511 17.7673 89.1246 20.3813 88.7609 22.3134L85.5104 39.566H90.2156L91.534 32.5877H91.6477C91.6477 32.5877 92.6251 33.2014 94.3981 33.2014C99.9444 33.2014 103.559 27.5187 103.559 21.7906C103.536 18.6083 102.104 15.767 98.6487 15.767V15.767ZM94.1481 29.6327C92.9206 29.6327 92.1932 28.928 92.1932 28.928L92.9661 24.541C93.5116 21.586 95.0573 19.6539 96.6939 19.6539C98.1487 19.6539 98.5805 20.995 98.5805 22.2452C98.6033 25.2911 96.7848 29.6327 94.1481 29.6327V29.6327ZM110.264 9.01596C108.764 9.01596 107.559 10.2207 107.559 11.7436C107.559 13.1302 108.446 14.1076 109.787 14.1076H109.832C111.31 14.1076 112.56 13.1075 112.583 11.38C112.605 9.99338 111.673 9.01596 110.264 9.01596V9.01596ZM103.672 32.8605H108.377L111.56 16.1307H106.832L103.672 32.8605ZM123.562 16.1079H120.288L120.447 15.3351C120.72 13.7212 121.675 12.3119 123.266 12.3119C124.107 12.3119 124.766 12.5619 124.766 12.5619L125.676 8.85684C125.676 8.85684 124.88 8.44769 123.107 8.44769C121.448 8.44769 119.766 8.92504 118.493 10.0161C116.879 11.38 116.129 13.3575 115.765 15.3578L115.629 16.1307H113.424L112.719 19.6994H114.924L112.424 32.8832H117.129L119.629 19.6994H122.88L123.562 16.1079V16.1079ZM134.904 16.1307C134.904 16.1307 131.949 23.5636 130.654 27.6324H130.608C130.517 26.314 129.449 16.1307 129.449 16.1307H124.494L127.335 31.4511C127.38 31.7921 127.358 31.9967 127.221 32.224C126.676 33.2923 125.744 34.3152 124.653 35.0653C123.766 35.7018 122.766 36.1337 121.97 36.4064L123.289 40.407C124.243 40.2025 126.244 39.4069 127.903 37.8385C130.04 35.8382 132.04 32.7241 134.086 28.4962L139.837 16.1079H134.904V16.1307Z" fill="black"/>
</svg>
