<?xml version="1.0" encoding="UTF-8"?>
<svg width="71px" height="48px" viewBox="0 0 71 48" version="1.1" xmlns="http://www.w3.org/2000/svg" xmlns:xlink="http://www.w3.org/1999/xlink">
    <!-- Generator: Sketch 52.4 (67378) - http://www.bohemiancoding.com/sketch -->
    <title>Combined Shape</title>
    <desc>Created with Sketch.</desc>
    <g id="MARKETPLACE" stroke="none" stroke-width="1" fill="none" fill-rule="evenodd">
        <g id="MODAL-ESCOLHA-DO-MARKETPLACE-SOMENTE-ML" transform="translate(-527.000000, -556.000000)" fill="#1BADE0">
            <path d="M570.477968,592.309879 C573.445174,592.309879 575.850233,594.715414 575.850233,597.68262 C575.850233,600.649826 573.445174,603.054885 570.477968,603.054885 C570.47559,603.054885 570.472736,603.05441 570.470358,603.05441 L549.132059,603.05441 C545.314022,603.05441 542.218882,599.95927 542.218882,596.141233 C542.218882,592.323196 545.314022,589.228056 549.132059,589.228056 C550.211173,589.228056 551.22846,589.482496 552.138264,589.923368 C552.912049,586.034468 556.342956,583.104358 560.458712,583.108638 C565.140421,583.11387 568.931349,586.913359 568.926118,591.595067 C568.926118,591.920371 568.903289,592.240443 568.867144,592.556235 C569.37555,592.396437 569.916772,592.309879 570.477968,592.309879 Z M548.831962,586.534789 C543.532937,586.534789 539.222665,590.845537 539.222665,596.144086 C539.222665,596.885531 539.315405,597.604623 539.475203,598.298509 L533.913177,598.298509 C530.09514,598.298509 527,595.203369 527,591.385332 C527,587.567295 530.09514,584.472155 533.913177,584.472155 C534.992291,584.472155 536.009578,584.726596 536.919858,585.167468 C537.693167,581.278568 541.124549,578.348457 545.23983,578.352738 C548.594642,578.356542 551.482901,580.31312 552.854027,583.141454 C551.739244,584.103573 550.808514,585.282085 550.141261,586.6242 C549.709901,586.564751 549.272834,586.534789 548.831962,586.534789 Z M555.377032,558.690413 C553.273022,558.690413 551.568031,560.395879 551.567556,562.499414 C551.567556,564.603424 553.273022,566.30889 555.377032,566.30889 C557.480567,566.30889 559.186033,564.603424 559.186033,562.499414 C559.186033,560.395879 557.480567,558.690413 555.377032,558.690413 Z M553.950262,568.837127 C551.047736,568.186044 548.877143,565.598359 548.877143,562.499414 C548.877143,558.910136 551.787278,556 555.377032,556 C558.966786,556 561.876922,558.910136 561.876922,562.499414 C561.876922,565.598359 559.706329,568.18652 556.803802,568.837127 L556.803802,580.524753 C556.209315,580.710233 555.638131,580.94993 555.088825,581.228626 C554.767801,580.619871 554.384,580.042029 553.950262,579.496051 L553.950262,568.837127 Z M575.748933,571.06051 C575.748933,573.164521 577.454399,574.869511 579.557933,574.869511 C581.661944,574.869511 583.36741,573.164521 583.36741,571.06051 C583.36741,568.956976 581.661944,567.25151 579.557933,567.25151 C577.454399,567.25151 575.748933,568.956976 575.748933,571.06051 Z M586.057823,571.06051 C586.057823,574.650264 583.147687,577.5604 579.557933,577.5604 C578.280023,577.5604 577.091999,577.18611 576.087077,576.549295 L568.574656,584.06124 C568.370628,583.819641 568.157564,583.583272 567.931659,583.356416 C567.476995,582.900801 566.988088,582.492269 566.473975,582.127016 L574.069624,574.531367 C573.432333,573.526445 573.05852,572.338421 573.05852,571.06051 C573.05852,567.470757 575.968655,564.560621 579.557933,564.560621 C583.147687,564.560621 586.057823,567.470757 586.057823,571.06051 Z M591.238711,599.550495 C593.342721,599.550495 595.047711,597.845029 595.048187,595.741495 C595.048187,593.637484 593.342721,591.932018 591.238711,591.932018 C589.135176,591.932018 587.42971,593.637484 587.42971,595.741495 C587.42971,597.845029 589.135176,599.550495 591.238711,599.550495 Z M591.238711,589.241605 C594.828464,589.241605 597.7386,592.151741 597.7386,595.741495 C597.7386,599.330773 594.828464,602.240908 591.238711,602.240908 C588.139766,602.240908 585.55208,600.070791 584.900997,597.168265 L578.220859,597.168265 C578.153326,596.154307 577.898409,595.192664 577.488926,594.314724 L584.900997,594.314724 C585.55208,591.412198 588.139766,589.241605 591.238711,589.241605 Z" id="Combined-Shape"></path>
        </g>
    </g>
</svg>