<?xml version="1.0" encoding="UTF-8"?>
<svg width="140px" height="26px" viewBox="0 0 140 26" version="1.1" xmlns="http://www.w3.org/2000/svg" xmlns:xlink="http://www.w3.org/1999/xlink">
    <!-- Generator: Sketch 52.4 (67378) - http://www.bohemiancoding.com/sketch -->
    <title>Artboard</title>
    <desc>Created with Sketch.</desc>
    <g id="Artboard" stroke="none" stroke-width="1" fill="none" fill-rule="evenodd">
        <path d="M0.115714286,12.9841111 C0.131653061,6.00166667 5.80295918,0.365444444 12.7884898,0.388555556 C19.7957551,0.410222222 25.4395306,6.058 25.4177959,13.026 C25.3960612,20.0084444 19.7204082,25.6417778 12.7363265,25.6114444 C5.73485714,25.5811111 0.0997755102,19.9434444 0.115714286,12.9841111 Z M15.3126122,12.883 C15.2343673,12.7992222 15.1937959,12.753 15.1503265,12.7096667 C12.5769388,10.1428889 10.002102,7.57755556 7.43161224,5.00644444 C7.2997551,4.87355556 7.23889796,4.90244444 7.12442857,5.018 C6.24489796,5.90488889 5.36102041,6.78744444 4.46989796,7.66277778 C4.33079592,7.8 4.31340816,7.86644444 4.46265306,8.01377778 C6.03914286,9.57233333 7.6054898,11.1424444 9.18053061,12.7024444 C9.3094898,12.831 9.31528571,12.8931111 9.18197959,13.0245556 C7.59679592,14.5946667 6.02030612,16.1734444 4.43367347,17.7435556 C4.29312245,17.8836667 4.30616327,17.953 4.43802041,18.083 C5.32769388,18.9583333 6.21157143,19.8408889 7.09255102,20.7277778 C7.20267347,20.839 7.25628571,20.8404444 7.36930612,20.7292222 C9.97312245,18.1321111 12.5798367,15.5407778 15.188,12.9494444 C15.2198776,12.9205556 15.2662449,12.9075556 15.3126122,12.883 Z M22.7560204,12.8512222 C22.711102,12.8035556 22.6763265,12.7616667 22.6372041,12.7226667 C20.0580204,10.1501111 17.4773878,7.579 14.901102,5.00211111 C14.7793878,4.88077778 14.7199796,4.89522222 14.6084082,5.00788889 C13.7230816,5.89911111 12.8348571,6.78744444 11.9379388,7.66855556 C11.8017347,7.80144444 11.7988367,7.86933333 11.9364898,8.00511111 C13.5071837,9.56077778 15.0691837,11.1265556 16.6413265,12.6807778 C16.7992653,12.8367778 16.7760816,12.9061111 16.6340816,13.0476667 C15.047449,14.6177778 13.4695102,16.1965556 11.8857755,17.7695556 C11.7742041,17.8807778 11.7727551,17.9356667 11.8857755,18.0468889 C12.7899388,18.9395556 13.6897551,19.8365556 14.5866735,20.7364444 C14.6765102,20.8274444 14.7272245,20.8476667 14.830102,20.7451111 C17.4397143,18.1436667 20.0536735,15.5451111 22.6661837,12.9465556 C22.6922653,12.9191111 22.7197959,12.8887778 22.7560204,12.8512222 Z" id="Shape" fill="#0C5C9D" fill-rule="nonzero"></path>
        <path d="M133.475449,14.0963333 C135.624286,16.3756667 137.752837,18.6347778 139.884286,20.8938889 C139.83502,20.9574444 139.774163,20.9285556 139.724898,20.9285556 C138.255633,20.93 136.786367,20.9285556 135.317102,20.9328889 C135.195388,20.9328889 135.109898,20.8996667 135.024408,20.8115556 C133.294327,19.0478889 131.588878,17.2611111 129.887776,15.47 C129.708102,15.2822222 129.548714,15.0785556 129.409612,14.8575556 C128.97202,14.157 129.02998,13.4275556 129.58349,12.8107778 C129.916755,12.4395556 130.319571,12.1622222 130.784694,11.9802222 C131.652633,11.6393333 132.523469,11.3071111 133.391408,10.9691111 C133.792776,10.8131111 134.16951,10.6123333 134.495531,10.3277778 C135.193939,9.71677778 135.172204,8.88188889 134.427429,8.32577778 C133.84349,7.891 133.174061,7.65844444 132.448122,7.64544444 C131.35849,7.62666667 130.268857,7.64544444 129.179224,7.63388889 C128.977816,7.63244444 129.012592,7.74366667 129.012592,7.85922222 C129.012592,12.1275556 129.011143,16.3944444 129.016939,20.6627778 C129.016939,20.8736667 128.974918,20.9401111 128.748878,20.9372222 C127.560714,20.9242222 126.372551,20.9271111 125.184388,20.9357778 C125.022102,20.9372222 124.991673,20.891 124.991673,20.7378889 C124.99602,16.0492222 124.99602,11.362 124.993122,6.67333333 C124.993122,6.18944444 125.177143,5.80088889 125.543735,5.499 C126.113184,5.02955556 126.781163,4.81 127.511449,4.80855556 C129.296592,4.80422222 131.084633,4.74644444 132.866878,4.83166667 C134.69549,4.91977778 136.350224,5.54088889 137.786163,6.68777778 C138.393286,7.17311111 138.820735,7.79422222 138.959837,8.57566667 C139.152551,9.659 138.848265,10.6137778 138.154204,11.4501111 C137.403633,12.3572222 136.424122,12.9523333 135.369265,13.4376667 C134.770837,13.7121111 134.146327,13.9143333 133.475449,14.0963333 Z M124.694633,20.93 C123.305061,20.93 121.948816,20.9271111 120.591122,20.9328889 C120.449122,20.9328889 120.436082,20.8404444 120.401306,20.7537778 C119.966612,19.708 119.526122,18.6636667 119.101571,17.6135556 C119.033469,17.4445556 118.94798,17.4041111 118.778449,17.4041111 C116.84551,17.4098889 114.912571,17.4098889 112.979633,17.4041111 C112.817347,17.4041111 112.736204,17.4445556 112.669551,17.602 C112.227612,18.6521111 111.771184,19.6964444 111.324898,20.7451111 C111.268388,20.8794444 111.204633,20.9314444 111.051041,20.9314444 C109.778837,20.9242222 108.506633,20.9271111 107.234429,20.9271111 C107.173571,20.9271111 107.111265,20.9271111 107.025776,20.9271111 C107.299633,20.2814444 107.563347,19.6588889 107.827061,19.0348889 C109.583224,14.8893333 111.342286,10.7437778 113.091204,6.59533333 C113.572265,5.45422222 114.418469,4.86344444 115.650102,4.80711111 C116.538327,4.76666667 117.357,4.93711111 118.006143,5.60155556 C118.275653,5.876 118.465469,6.201 118.614714,6.552 C120.620102,11.2912222 122.62549,16.0304444 124.630878,20.7696667 C124.649714,20.8173333 124.667102,20.8621111 124.694633,20.93 Z M117.807633,14.5701111 C117.800388,14.5412222 117.798939,14.5195556 117.791694,14.5022222 C117.175878,13.065 116.560061,11.6263333 115.944245,10.1891111 C115.928306,10.153 115.92251,10.0865556 115.879041,10.0966667 C115.848612,10.1038889 115.826878,10.1674444 115.808041,10.2093333 C115.208163,11.6234444 114.611184,13.039 114.012755,14.4531111 C113.996816,14.4906667 113.972184,14.5267778 113.999714,14.5701111 L117.807633,14.5701111 Z M49.2187347,12.8598889 C49.2187347,11.7317778 49.2317755,10.6036667 49.2143878,9.47555556 C49.198449,8.37633333 49.623,7.48077778 50.4460204,6.78166667 C51.5979592,5.80233333 52.9411633,5.20288889 54.4278163,4.94288889 C56.8403673,4.52111111 59.0442653,5.05411111 61.0351633,6.45666667 C61.8147143,7.00555556 62.3841633,7.71911111 62.5826735,8.67966667 C62.6304898,8.90644444 62.6507755,9.13611111 62.6507755,9.36866667 C62.6493265,11.6465556 62.6348367,13.923 62.6565714,16.2008889 C62.6681633,17.3997778 62.1972449,18.3458889 61.2829388,19.0854444 C60.2860408,19.8928889 59.1456939,20.4302222 57.8981224,20.7075556 C55.4203673,21.2593333 53.1150408,20.8086667 51.0038776,19.4075556 C50.2272245,18.8918889 49.620102,18.2245556 49.3462449,17.3044444 C49.2491633,16.978 49.2172857,16.6457778 49.2172857,16.3092222 C49.2187347,15.158 49.2187347,14.0096667 49.2187347,12.8598889 Z M58.6342041,12.8642222 C58.6342041,11.7433333 58.6240612,10.6224444 58.638551,9.50011111 C58.6457959,8.97577778 58.4327959,8.58433333 58.0212857,8.281 C56.863551,7.42877778 55.021898,7.43022222 53.8670612,8.28533333 C53.4613469,8.58433333 53.2541429,8.97 53.2555918,9.48566667 C53.2642857,11.7418889 53.2642857,13.9981111 53.2555918,16.2543333 C53.2541429,16.7526667 53.4512041,17.1282222 53.8380816,17.4257778 C54.9943673,18.317 56.9273061,18.3083333 58.0763469,17.407 C58.4487347,17.1152222 58.64,16.7468889 58.637102,16.2673333 C58.6284082,15.1334444 58.6342041,13.9981111 58.6342041,12.8642222 Z M44.9587347,9.58966667 C44.3545102,9.58966667 43.7502857,9.59111111 43.1446122,9.58822222 C43.0707143,9.58822222 42.9794286,9.62722222 42.946102,9.49577778 C42.7026735,8.515 42.0013673,7.99788889 41.0812653,7.75233333 C40.0669796,7.48222222 39.117898,7.65266667 38.2760408,8.30266667 C37.9340816,8.567 37.6906531,8.90066667 37.5892245,9.32966667 C37.4486735,9.92766667 37.624,10.4101111 38.119551,10.7683333 C38.7730408,11.2392222 39.5105714,11.4501111 40.3118571,11.453 C41.8564694,11.4587778 43.2967551,11.8386667 44.6153265,12.6504444 C45.3470612,13.1011111 45.9904082,13.65 46.425102,14.404 C47.2220408,15.7848889 47.277102,17.7117778 45.6223673,19.058 C44.4313061,20.0272222 43.0547755,20.605 41.5420408,20.8317778 C39.5569388,21.1293333 37.6834082,20.787 35.9518776,19.7513333 C34.9839592,19.1735556 34.1928163,18.4296667 33.7755102,17.3521111 C33.6436531,17.0112222 33.5639592,16.6573333 33.5320816,16.2918889 C33.5219388,16.1734444 33.5494694,16.1344444 33.6740816,16.1344444 C34.9042653,16.1387778 36.134449,16.1373333 37.3646327,16.1358889 C37.4486735,16.1358889 37.5022857,16.1431111 37.5312653,16.2427778 C37.839898,17.3578889 38.6745102,17.8663333 39.7337143,18.0526667 C40.6306327,18.2101111 41.4652449,18.0035556 42.1926327,17.4358889 C42.5824082,17.1311111 42.8417755,16.7483333 42.9156735,16.2471111 C42.9939184,15.7213333 42.809898,15.3082222 42.3969388,14.9976667 C41.7535918,14.5137778 41.0189592,14.2884444 40.2162245,14.2841111 C38.7643469,14.2768889 37.3921633,13.9562222 36.1243061,13.2368889 C35.4027143,12.8281111 34.7550204,12.3312222 34.2623673,11.6552222 C33.2712653,10.2931111 33.0655102,8.10333333 34.8912245,6.63866667 C35.2708571,6.33388889 35.6736735,6.06666667 36.1069184,5.85 C39.042551,4.381 41.9376122,4.39111111 44.7602245,6.136 C45.6962653,6.71377778 46.4135102,7.49811111 46.7656122,8.56844444 C46.8583469,8.84866667 46.9018163,9.139 46.9481837,9.42933333 C46.9699184,9.568 46.9192041,9.594 46.7916939,9.59255556 C46.1816735,9.58677778 45.5702041,9.58966667 44.9587347,9.58966667 Z M100.79951,15.691 C101.141469,14.8835556 101.470388,14.1078889 101.797857,13.3322222 C102.968633,10.5632222 104.140857,7.79566667 105.307286,5.02522222 C105.376837,4.86055556 105.453633,4.797 105.640551,4.79844444 C106.898265,4.80855556 108.157429,4.80711111 109.415143,4.79988889 C109.586122,4.79844444 109.616551,4.83022222 109.548449,4.992 C107.538714,9.72833333 105.533327,14.4661111 103.52649,19.2038889 C103.045429,20.3392222 102.165898,20.8881111 100.947306,20.9285556 C100.587959,20.9401111 100.230061,20.9155556 99.8808571,20.826 C98.9824898,20.5977778 98.3942041,20.0243333 98.0392041,19.1851111 C97.0162245,16.7642222 95.988898,14.3447778 94.9644694,11.9238889 C93.9893061,9.62 93.0155918,7.31322222 92.0346327,5.01077778 C91.9578367,4.83166667 91.9839184,4.797 92.1766327,4.79844444 C93.4415918,4.80566667 94.706551,4.80422222 95.9715102,4.79844444 C96.1149592,4.79844444 96.1772653,4.84322222 96.2337755,4.97322222 C97.7189796,8.46733333 99.2085306,11.9585556 100.696633,15.4497778 C100.724163,15.522 100.756041,15.5913333 100.79951,15.691 Z M64.9271224,13.6398889 C64.9271224,11.3345556 64.9329184,9.02922222 64.9227755,6.72388889 C64.9198776,6.15188889 65.1546122,5.72722222 65.6110408,5.40944444 C66.1790408,5.01511111 66.8107959,4.80422222 67.5063061,4.80422222 C70.570898,4.80277778 73.6354898,4.80422222 76.7000816,4.80133333 C76.8391837,4.80133333 76.8971429,4.82877778 76.8956939,4.98333333 C76.888449,5.80377778 76.885551,6.62277778 76.8971429,7.44322222 C76.9000408,7.62522222 76.8290408,7.64111111 76.6783469,7.64111111 C74.1832041,7.63677778 71.6880612,7.64111111 69.1914694,7.63388889 C68.9944082,7.63388889 68.933551,7.67144444 68.936449,7.88088889 C68.9480408,8.99455556 68.9465918,10.1096667 68.937898,11.2233333 C68.936449,11.4038889 68.9741224,11.4587778 69.1668367,11.4587778 C70.6853673,11.4501111 72.203898,11.4573333 73.7224286,11.4501111 C73.902102,11.4486667 73.9586122,11.4862222 73.9557143,11.6768889 C73.9426735,12.4828889 73.9455714,13.2888889 73.9542653,14.0948889 C73.9557143,14.2537778 73.9136939,14.2898889 73.7572041,14.2898889 C72.2241837,14.2841111 70.6926122,14.2884444 69.1595918,14.2826667 C68.9886122,14.2812222 68.937898,14.3173333 68.937898,14.4978889 C68.9451429,16.5721111 68.9393469,18.6463333 68.9465918,20.7205556 C68.9465918,20.8953333 68.9060204,20.9386667 68.7292449,20.9386667 C67.5265918,20.93 66.3253878,20.93 65.1227347,20.9386667 C64.9474082,20.9401111 64.9213265,20.8823333 64.9227755,20.7277778 C64.9285714,18.3632222 64.9271224,16.0015556 64.9271224,13.6398889 Z M84.411551,4.80133333 C86.5763265,4.80133333 88.742551,4.80422222 90.9073265,4.797 C91.0985918,4.797 91.1377143,4.849 91.1348163,5.02955556 C91.1246735,5.83555556 91.1261224,6.64155556 91.1348163,7.44755556 C91.1362653,7.60644444 91.0927959,7.64255556 90.9377551,7.64255556 C89.5105102,7.63677778 88.0832653,7.64255556 86.6560204,7.63388889 C86.472,7.63244444 86.4256327,7.67433333 86.4270816,7.86066667 C86.4328776,12.1362222 86.4299796,16.4103333 86.4372245,20.6858889 C86.4372245,20.891 86.3865102,20.9372222 86.185102,20.9357778 C85.0041837,20.9256667 83.8232653,20.9256667 82.6423469,20.9357778 C82.4525306,20.9372222 82.4003673,20.8924444 82.4003673,20.6974444 C82.4061633,16.4291111 82.4032653,12.1607778 82.4105102,7.89388889 C82.4105102,7.68155556 82.3597959,7.63244444 82.1482449,7.63388889 C80.7354898,7.644 79.3227347,7.63677778 77.9085306,7.64255556 C77.7462449,7.644 77.6984286,7.605 77.6998776,7.43744444 C77.7085714,6.63866667 77.7100204,5.83988889 77.6998776,5.04111111 C77.6969796,4.85333333 77.740449,4.797 77.9375102,4.797 C80.0950408,4.80422222 82.2540204,4.80133333 84.411551,4.80133333 Z" id="Combined-Shape" fill="#00121E"></path>
    </g>
</svg>