<svg xmlns="http://www.w3.org/2000/svg" xmlns:xlink="http://www.w3.org/1999/xlink" width="231px" height="239px">
<defs>
<linearGradient id="PSgrad_0" x1="0%" x2="0%" y1="100%" y2="0%">
  <stop offset="0%" stop-color="rgb(237,95,77)" stop-opacity="1"/>
  <stop offset="100%" stop-color="rgb(240,141,79)" stop-opacity="1"/>
</linearGradient>

</defs>
<path fill-rule="evenodd" fill="url(#PSgrad_0)" d="M230.690,174.426 C230.670,181.177 227.067,187.411 221.224,190.803 L219.768,191.420 C220.656,188.251 221.140,184.915 221.140,181.467 C221.140,161.060 204.521,144.459 184.092,144.459 C163.664,144.459 147.044,161.060 147.044,181.467 C147.044,195.508 154.913,207.747 166.477,214.017 L131.741,228.746 C127.729,231.075 122.701,228.175 122.715,223.540 L123.008,120.156 C123.027,113.405 126.630,107.171 132.473,103.779 L221.956,65.836 C225.968,63.507 230.996,66.407 230.982,71.042 L230.690,174.426 ZM215.036,51.782 L125.557,89.722 C119.664,93.143 112.389,93.153 106.486,89.749 L16.332,51.757 C12.333,49.451 12.325,43.689 16.317,41.372 L105.795,3.431 C111.688,0.011 118.964,-0.000 124.867,3.404 L215.021,41.396 C219.020,43.702 219.028,49.464 215.036,51.782 ZM108.989,120.264 L108.696,223.642 C108.683,228.254 103.683,231.128 99.684,228.822 L9.530,190.831 C3.627,187.427 -0.002,181.128 0.018,174.319 L0.311,70.941 C0.324,66.328 5.324,63.454 9.323,65.761 L99.477,103.752 C105.380,107.156 109.009,113.455 108.989,120.264 ZM184.092,158.462 C196.792,158.462 207.122,168.781 207.122,181.467 C207.122,194.152 196.792,204.472 184.092,204.472 C171.393,204.472 161.062,194.152 161.062,181.467 C161.062,168.781 171.393,158.462 184.092,158.462 ZM219.449,228.497 C221.391,231.848 220.239,236.128 216.885,238.059 C213.531,239.999 209.245,238.849 207.312,235.499 L196.278,216.414 C200.774,214.844 204.879,212.444 208.394,209.373 L219.449,228.497 Z"/>
</svg>