<?xml version="1.0" encoding="UTF-8"?>
<svg width="119px" height="50px" viewBox="0 0 119 50" version="1.1" xmlns="http://www.w3.org/2000/svg" xmlns:xlink="http://www.w3.org/1999/xlink">
    <!-- Generator: Sketch 52.4 (67378) - http://www.bohemiancoding.com/sketch -->
    <title>Artboard</title>
    <desc>Created with Sketch.</desc>
    <g id="Artboard" stroke="none" stroke-width="1" fill="none" fill-rule="evenodd">
        <path d="M108.714545,49.8597222 C108.094091,49.8597222 107.570455,49.575 107.303182,49.3069444 C106.689545,48.6916667 106.476818,47.7805556 106.776818,47 C107.104091,46.1458333 107.85,45.6027778 108.739091,45.5930556 C109.513636,45.5861111 110.265,45.4583333 110.972727,45.1402778 C112.905,44.2708333 114.079091,42.775 114.474545,40.6541667 C114.527727,40.3666667 114.545455,40.075 114.544091,39.7833333 C114.542727,39.0625 114.544091,38.3430556 114.544091,37.6222222 C114.544091,37.5458333 114.553636,37.4666667 114.520909,37.3986111 C114.458182,37.3638889 114.422727,37.4041667 114.391364,37.4375 C113.61,38.2388889 112.660909,38.775 111.653182,39.2125 C111.124091,39.4416667 110.58,39.6194444 110.020909,39.7569444 C109.103182,39.9847222 108.182727,39.9416667 107.260909,39.8 C105.662727,39.5541667 104.200909,38.9527778 102.901364,37.9777778 C100.711364,36.3347222 99.36,34.1458333 98.8813636,31.4097222 C98.7640909,30.7375 98.7231818,30.0583333 98.7231818,29.3763889 C98.7231818,26.6027778 98.7231818,23.8291667 98.7231818,21.0555556 C98.7231818,20.7416667 98.7518182,20.4333333 98.8404545,20.1333333 C99.1131818,19.2097222 100.058182,18.5194444 101.105455,18.6472222 C102.216818,18.7819444 102.972273,19.7625 102.972273,20.7486111 C102.972273,23.7069444 102.970909,26.6666667 102.973636,29.625 C102.975,31.3611111 103.591364,32.8375 104.832273,34.025 C105.735,34.8888889 106.813636,35.4013889 108.050455,35.5513889 C109.647273,35.7444444 111.088636,35.3430556 112.347273,34.3277778 C113.517273,33.3833333 114.229091,32.1486111 114.48,30.6416667 C114.54,30.2847222 114.545455,29.925 114.545455,29.5652778 C114.545455,26.675 114.546818,23.7847222 114.544091,20.8930556 C114.544091,20.2361111 114.748636,19.6680556 115.227273,19.2208333 C115.834091,18.6541667 116.544545,18.4763889 117.325909,18.7416667 C118.066364,18.9930556 118.539545,19.5291667 118.730455,20.3069444 C118.776818,20.4958333 118.793182,20.6888889 118.793182,20.8861111 C118.791818,27.1930556 118.810909,33.5 118.782273,39.8055556 C118.771364,42.3666667 117.883636,44.6166667 116.195455,46.5277778 C114.868636,48.0305556 113.241818,49.0347222 111.328636,49.5638889 C110.950909,49.6680556 110.566364,49.7472222 110.177727,49.8041667 C110.101364,49.8166667 109.385455,49.8597222 108.714545,49.8597222 Z M95.2922727,32.5388889 C95.2922727,34.0958333 95.265,35.6541667 95.3018182,37.2097222 C95.3263636,38.2472222 94.5995455,39.3777778 93.2618182,39.4388889 C92.1122727,39.4916667 91.1618182,38.6097222 91.0840909,37.45 C91.0759091,37.3236111 91.08,37.1972222 91.08,37.0708333 C91.08,34.1902778 91.0895455,31.3097222 91.0759091,28.4277778 C91.0690909,26.7083333 90.4581818,25.2347222 89.2213636,24.0541667 C88.3322727,23.2055556 87.2754545,22.6902778 86.0618182,22.5319444 C84.2209091,22.2916667 82.6063636,22.825 81.2740909,24.1222222 C80.1122727,25.2541667 79.5068182,26.6652778 79.5068182,28.3222222 L79.5068182,37.0527778 C79.5068182,37.3861111 79.4727273,37.7125 79.3622727,38.0291667 C78.855,39.4805556 77.0140909,39.9166667 75.9272727,38.8472222 C75.4840909,38.4097222 75.2604545,37.8819444 75.2604545,37.2569444 C75.2590909,34.2208333 75.2427273,31.1833333 75.2659091,28.1472222 C75.2822727,26.1277778 75.8918182,24.2805556 77.0086364,22.6138889 C78.0272727,21.0930556 79.3595455,19.9375 80.9918182,19.1444444 C82.0977273,18.6069444 83.2636364,18.2902778 84.4881818,18.1930556 C86.9427273,17.9986111 89.1654545,18.6527778 91.1577273,20.1041667 C92.6427273,21.1861111 93.75,22.5958333 94.4781818,24.3055556 C95.0372727,25.6166667 95.3140909,26.9875 95.2977273,28.4222222 C95.28,29.7930556 95.2922727,31.1666667 95.2922727,32.5388889 Z M53.5786364,21.7986111 C53.5786364,19.1902778 53.5827273,16.5833333 53.5759091,13.975 C53.5745455,13.3319444 53.7940909,12.7875 54.2590909,12.3666667 C54.87,11.8125 55.5818182,11.6416667 56.3645455,11.9152778 C57.1322727,12.1847222 57.5890909,12.7513889 57.7636364,13.5527778 C57.7936364,13.6930556 57.7895455,13.8430556 57.7895455,13.9888889 C57.7909091,15.3805556 57.7909091,16.7722222 57.7909091,18.1638889 C57.7909091,18.6194444 57.7909091,18.6208333 58.2272727,18.6208333 C59.4409091,18.6208333 60.6545455,18.6180556 61.8668182,18.6222222 C62.4790909,18.625 63.0368182,18.7902778 63.4827273,19.2486111 C64.0540909,19.8375 64.2531818,20.5361111 64.0472727,21.3361111 C63.8372727,22.1513889 63.3027273,22.65 62.5159091,22.8791667 C62.3222727,22.9361111 62.1218182,22.9472222 61.92,22.9472222 C60.7159091,22.9444444 59.5118182,22.9458333 58.3090909,22.9458333 C58.2422727,22.9458333 58.1754545,22.9444444 58.1086364,22.9458333 C57.8127273,22.9513889 57.7977273,22.9652778 57.7922727,23.2555556 C57.7895455,23.3819444 57.7922727,23.5083333 57.7922727,23.6347222 C57.7922727,25.2208333 57.7977273,26.8069444 57.7909091,28.3930556 C57.7854545,29.5013889 57.9272727,30.5875 58.2627273,31.6416667 C58.575,32.625 59.0222727,33.5291667 59.7859091,34.2444444 C60.4131818,34.8319444 61.1522727,35.125 61.9977273,35.1319444 C62.4954545,35.1361111 62.9318182,35.2902778 63.3245455,35.6013889 C64.3459091,36.4069444 64.4590909,38.0986111 63.2781818,39.0097222 C62.8063636,39.3736111 62.2677273,39.4777778 61.6827273,39.4430556 C60.9545455,39.4 60.2386364,39.2986111 59.5431818,39.0722222 C58.5845455,38.7611111 57.7172727,38.2805556 56.9563636,37.6083333 C55.5709091,36.3847222 54.7063636,34.8263889 54.1731818,33.0638889 C53.7559091,31.6875 53.5704545,30.2763889 53.5786364,28.8347222 C53.5868182,26.4888889 53.5786364,24.1430556 53.5786364,21.7986111 Z M71.7122727,29.0291667 C71.7122727,31.7541667 71.7109091,34.4791667 71.7122727,37.2055556 C71.7122727,37.8638889 71.4954545,38.4277778 71.0140909,38.8708333 C70.4195455,39.4166667 69.7281818,39.5833333 68.9645455,39.3416667 C68.2009091,39.0986111 67.7304545,38.5555556 67.5272727,37.7722222 C67.4754545,37.575 67.4631818,37.3708333 67.4631818,37.1638889 C67.4645455,31.7430556 67.4645455,26.3208333 67.4631818,20.9 C67.4631818,20.1152778 67.7509091,19.4736111 68.3863636,19.0222222 C69.0640909,18.5416667 69.7990909,18.4861111 70.5313636,18.8652778 C71.2704545,19.2472222 71.6604545,19.8902778 71.7109091,20.7375 C71.7163636,20.8347222 71.7122727,20.9319444 71.7122727,21.0291667 L71.7122727,29.0291667 Z M69.5427273,15.4736111 C68.1163636,15.4722222 67.0022727,14.3291667 66.9995455,12.875 C66.9954545,11.4277778 68.22,10.2930556 69.5427273,10.2972222 C70.7495455,10.3013889 72.09,11.2777778 72.09,12.875 C72.0913636,14.5152778 70.7386364,15.5263889 69.5427273,15.4736111 Z" id="Combined-Shape" fill="#0050DC"></path>
        <path d="M23.0454545,14.175 C23.0863636,15.5791667 21.9231818,16.9430556 20.3386364,16.95 C18.8127273,16.9569444 17.5772727,15.7041667 17.5813636,14.1555556 C17.5854545,12.6361111 18.8359091,11.3555556 20.3304545,11.3736111 C21.9763636,11.3958333 23.0809091,12.7638889 23.0454545,14.175 Z M34.9718182,14.1944444 C34.965,15.7236111 33.7513636,16.9375 32.2363636,16.9319444 C30.7418182,16.9263889 29.5281818,15.6263889 29.5486364,14.1375 C29.5677273,12.7430556 30.6586364,11.3986111 32.265,11.4 C33.8727273,11.4013889 35.0168182,12.7416667 34.9718182,14.1944444 Z M26.3004545,24.0319444 C27.5236364,23.9944444 28.5709091,25.0833333 28.56,26.3569444 C28.5504545,27.5 27.6313636,28.6652778 26.2840909,28.6472222 C24.9572727,28.6305556 24.0095455,27.6 24.0218182,26.3125 C24.0340909,24.8958333 25.2095455,23.9805556 26.3004545,24.0319444 Z M22.5422727,26.3638889 C22.5136364,27.6375 21.4990909,28.6361111 20.2677273,28.6055556 C19.0240909,28.575 18.0627273,27.5236111 18.0954545,26.2291667 C18.1213636,25.2097222 18.9654545,24.0430556 20.3290909,24.0638889 C21.7186364,24.0847222 22.5654545,25.2111111 22.5422727,26.3638889 Z M22.47,32.4236111 C22.4686364,33.65 21.5004545,34.6291667 20.2990909,34.6208333 C19.1290909,34.6125 18.1486364,33.6027778 18.1554545,32.4111111 C18.1622727,31.1888889 19.1304545,30.2333333 20.34,30.2222222 C21.4936364,30.2125 22.5095455,31.2361111 22.47,32.4236111 Z M26.2813636,22.3069444 C25.155,22.3041667 24.2590909,21.3916667 24.2659091,20.2458333 C24.2727273,19.0277778 25.2490909,18.1680556 26.3168182,18.1888889 C27.4418182,18.2111111 28.3077273,19.1097222 28.3172727,20.2680556 C28.3281818,21.4208333 27.3122727,22.3652778 26.2813636,22.3069444 Z M8.38772727,22.2430556 C7.40181818,22.2652778 6.41454545,21.4666667 6.41318182,20.25 C6.41181818,19.0277778 7.40181818,18.2555556 8.35909091,18.2555556 C9.45409091,18.2555556 10.3281818,19.1347222 10.3295455,20.25 C10.3309091,21.3486111 9.46227273,22.2388889 8.38772727,22.2430556 Z M24.3995455,14.1611111 C24.3995455,13.0986111 25.2477273,12.2402778 26.2977273,12.2416667 C27.3409091,12.2430556 28.2054545,13.1097222 28.1890909,14.1722222 C28.1727273,15.1777778 27.4622727,16.0930556 26.2881818,16.0930556 C25.1931818,16.0930556 24.3995455,15.2166667 24.3995455,14.1611111 Z M38.2418182,12.5305556 C39.1527273,12.5319444 39.8468182,13.2513889 39.8427273,14.1875 C39.8386364,15.0861111 39.1159091,15.8152778 38.2309091,15.8152778 C37.3663636,15.8152778 36.615,15.0569444 36.6190909,14.175 C36.6245455,13.1763889 37.4563636,12.4847222 38.2418182,12.5305556 Z M9.96954545,14.175 C10.0159091,14.8875 9.41727273,15.7944444 8.36590909,15.8055556 C7.49318182,15.8138889 6.76636364,15.05 6.76090909,14.1583333 C6.75545455,13.2791667 7.50409091,12.5291667 8.38090909,12.5347222 C9.27272727,12.5388889 9.97090909,13.2611111 9.96954545,14.175 Z M21.8863636,38.5055556 C21.8822727,39.3722222 21.1568182,40.1236111 20.3059091,40.0958333 C19.3295455,40.0638889 18.7554545,39.2819444 18.7622727,38.4805556 C18.7690909,37.7347222 19.3186364,36.9291667 20.3168182,36.9069444 C21.1745455,36.8875 21.8904545,37.6388889 21.8863636,38.5055556 Z M14.3509091,12.5902778 C15.2018182,12.5916667 15.8931818,13.2916667 15.9040909,14.1638889 C15.915,15.0263889 15.1854545,15.7638889 14.3304545,15.7541667 C13.4836364,15.7444444 12.7868182,15.0180556 12.7977273,14.1583333 C12.8086364,13.2777778 13.4918182,12.5888889 14.3509091,12.5902778 Z M38.2472727,21.7819444 C37.3922727,21.7833333 36.7295455,21.1194444 36.7268182,20.2569444 C36.7240909,19.3916667 37.3813636,18.7291667 38.2295455,18.7152778 C39.0163636,18.7013889 39.75,19.3138889 39.7540909,20.2402778 C39.7609091,21.2472222 38.9359091,21.8152778 38.2472727,21.7819444 Z M14.3427273,21.7819444 C13.5081818,21.7805556 12.8222727,21.0875 12.8263636,20.2458333 C12.8304545,19.3958333 13.5081818,18.7166667 14.3509091,18.7180556 C15.1881818,18.7194444 15.8686364,19.4083333 15.8672727,20.2527778 C15.8645455,21.1 15.1827273,21.7819444 14.3427273,21.7819444 Z M18.8318182,20.2430556 C18.8331818,19.3875 19.4822727,18.7236111 20.3168182,18.725 C21.1377273,18.7263889 21.8168182,19.4083333 21.825,20.2402778 C21.8331818,21.0763889 21.1390909,21.7777778 20.3072727,21.775 C19.4822727,21.7722222 18.8304545,21.0958333 18.8318182,20.2430556 Z M33.7568182,20.25 C33.7568182,21.0819444 33.075,21.775 32.2595455,21.7722222 C31.4618182,21.7694444 30.7786364,21.0777778 30.7704545,20.2652778 C30.7622727,19.4388889 31.4468182,18.7333333 32.2595455,18.7305556 C33.0763636,18.7263889 33.7568182,19.4166667 33.7568182,20.25 Z M26.3031818,39.8888889 C25.5177273,39.9347222 24.9095455,39.2277778 24.915,38.4972222 C24.9218182,37.7277778 25.5204545,37.1111111 26.2813636,37.1013889 C27.0395455,37.0916667 27.6859091,37.7333333 27.6722727,38.5041667 C27.6572727,39.4111111 26.9154545,39.9263889 26.3031818,39.8888889 Z M27.5740909,32.4138889 C27.6190909,33.0305556 27.0722727,33.7347222 26.2868182,33.7375 C25.5940909,33.7402778 25.005,33.1361111 24.9940909,32.4347222 C24.9831818,31.7166667 25.5736364,31.1055556 26.2813636,31.1041667 C27.015,31.1041667 27.5727273,31.6680556 27.5740909,32.4138889 Z" id="Combined-Shape" fill="#0050DC"></path>
        <path d="M0.612272727,26.0333333 C0.688636364,25.9541667 0.717272727,25.85 0.752727273,25.75 C1.14409091,24.6138889 2.445,24.2472222 3.34090909,24.8333333 C3.93272727,25.2208333 4.20545455,25.7986111 4.14136364,26.4972222 C4.06909091,27.2819444 3.54409091,27.8611111 2.87045455,28.0583333 C2.05363636,28.2986111 1.05,27.8277778 0.75,26.925 C0.72,26.8333333 0.702272727,26.7347222 0.613636364,26.6763889 C0.612272727,26.4611111 0.612272727,26.2472222 0.612272727,26.0333333 Z M46.4863636,20.2527778 C46.5477273,21.4166667 45.5304545,22.5930556 44.2254545,22.5847222 C42.975,22.5777778 41.925,21.6430556 41.9154545,20.2597222 C41.9045455,18.8555556 43.0009091,17.9138889 44.2322727,17.9138889 C45.4731818,17.9138889 46.5572727,19.0375 46.4863636,20.2527778 Z M24.1186364,8.075 C24.0818182,7.02638889 24.8645455,5.86527778 26.2990909,5.85694444 C27.6163636,5.85 28.4809091,6.92083333 28.4754545,8.0875 C28.47,9.375 27.4731818,10.3152778 26.2881818,10.3111111 C24.9654545,10.3069444 24.0790909,9.18888889 24.1186364,8.075 Z M32.2690909,5.94166667 C33.1868182,5.88194444 34.3854545,6.68611111 34.38,8.0875 C34.3759091,9.24305556 33.4895455,10.2416667 32.2609091,10.2388889 C30.9627273,10.2347222 30.1322727,9.15138889 30.1486364,8.08055556 C30.1704545,6.61805556 31.3704545,5.88333333 32.2690909,5.94166667 Z M16.38,26.3611111 C16.3936364,27.4430556 15.4772727,28.4208333 14.3413636,28.4152778 C13.2422727,28.4097222 12.3163636,27.5152778 12.3095455,26.3208333 C12.3027273,25.3138889 13.1536364,24.2375 14.3959091,24.2638889 C15.435,24.2847222 16.3977273,25.1916667 16.38,26.3611111 Z M38.2527273,24.3375 C39.2768182,24.3138889 40.2081818,25.1625 40.2122727,26.3180556 C40.2163636,27.4430556 39.3572727,28.3569444 38.2240909,28.3388889 C36.9040909,28.3180556 36.2604545,27.2277778 36.2713636,26.3194444 C36.285,25.1916667 37.1959091,24.3 38.2527273,24.3375 Z M14.34,34.3291667 C13.4686364,34.3902778 12.4663636,33.6569444 12.4472727,32.4388889 C12.4309091,31.2958333 13.3418182,30.475 14.3509091,30.4791667 C15.3613636,30.4833333 16.2368182,31.2986111 16.2436364,32.3916667 C16.2531818,33.6027778 15.2809091,34.3833333 14.34,34.3291667 Z M38.2540909,6.23333333 C39.2754545,6.2375 40.0554545,7.04722222 40.0636364,8.08888889 C40.0718182,8.99305556 39.375,9.97222222 38.22,9.95 C37.1604545,9.93055556 36.4022727,9.15138889 36.4090909,8.08333333 C36.4159091,6.94027778 37.2804545,6.20138889 38.2540909,6.23333333 Z M26.3140909,0.140277778 C27.3354545,0.144444444 28.1154545,0.954166667 28.1236364,1.99583333 C28.1318182,2.9 27.435,3.87916667 26.28,3.85694444 C25.2204545,3.8375 24.4622727,3.05833333 24.4690909,1.99027778 C24.4759091,0.848611111 25.3390909,0.109722222 26.3140909,0.140277778 Z M10.1345455,26.3277778 C10.1890909,27.3694444 9.26590909,28.1472222 8.36590909,28.1472222 C7.48363636,28.1486111 6.57545455,27.4069444 6.58772727,26.3194444 C6.6,25.1833333 7.49590909,24.5138889 8.39045455,24.5152778 C9.33136364,24.5166667 10.1945455,25.3388889 10.1345455,26.3277778 Z M45.9109091,26.3041667 C45.9668182,27.2375 45.1690909,28.0694444 44.2377273,28.0777778 C43.3336364,28.0861111 42.5140909,27.3861111 42.4990909,26.3611111 C42.4840909,25.325 43.2763636,24.5888889 44.2118182,24.5861111 C45.2181818,24.5819444 45.9286364,25.4263889 45.9109091,26.3041667 Z M4.10863636,20.2430556 C4.11136364,21.1958333 3.35318182,21.9972222 2.43,21.9972222 C1.47954545,21.9958333 0.683181818,21.2666667 0.688636364,20.2416667 C0.692727273,19.2013889 1.48909091,18.5208333 2.38636364,18.5055556 C3.33,18.4888889 4.10590909,19.2833333 4.10863636,20.2430556 Z M6.69409091,38.5152778 C6.71863636,37.6819444 7.25590909,36.8138889 8.36590909,36.7986111 C9.27,36.7861111 10.0404545,37.4444444 10.0377273,38.5013889 C10.035,39.4958333 9.35045455,40.1930556 8.39318182,40.2027778 C7.34318182,40.2138889 6.74045455,39.4138889 6.69409091,38.5152778 Z M20.3072727,6.40694444 C21.15,6.3625 21.9886364,7.03888889 21.9859091,8.09305556 C21.9845455,8.91805556 21.4159091,9.76111111 20.3181818,9.78055556 C19.3459091,9.79722222 18.6709091,8.96944444 18.6586364,8.09305556 C18.6477273,7.19583333 19.4495455,6.33194444 20.3072727,6.40694444 Z M8.39045455,30.7597222 C9.25909091,30.6930556 10.0404545,31.5430556 10.02,32.4236111 C9.99818182,33.3513889 9.28090909,34.0888889 8.37545455,34.0930556 C7.41,34.0972222 6.73363636,33.2555556 6.73090909,32.3986111 C6.72818182,31.5694444 7.515,30.6777778 8.39045455,30.7597222 Z M32.2622727,34.0347222 C31.4059091,34.0638889 30.66,33.3236111 30.6668182,32.4347222 C30.6736364,31.4861111 31.35,30.7916667 32.2540909,30.7847222 C33.2304545,30.7777778 33.8618182,31.5597222 33.8645455,32.4083333 C33.8672727,33.3180556 33.1540909,34.0361111 32.2622727,34.0347222 Z M38.2322727,40.0527778 C37.4304545,40.1041667 36.6968182,39.4125 36.6927273,38.5125 C36.6872727,37.5680556 37.4413636,36.9416667 38.2377273,36.9388889 C39.0627273,36.9361111 39.7881818,37.6597222 39.7786364,38.5180556 C39.7690909,39.4166667 38.9945455,40.1069444 38.2322727,40.0527778 Z M36.7322727,32.4013889 C36.7377273,31.5083333 37.3772727,30.8736111 38.2690909,30.8777778 C39.0886364,30.8819444 39.7827273,31.5736111 39.765,32.4013889 C39.7459091,33.3444444 39.0695455,33.9638889 38.2404545,33.9652778 C37.3022727,33.9680556 36.6818182,33.1652778 36.7322727,32.4013889 Z M33.7527273,38.5055556 C33.7390909,39.3583333 33.1390909,40.0208333 32.2581818,40.0166667 C31.3636364,40.0125 30.7718182,39.3375 30.7759091,38.4958333 C30.78,37.6333333 31.3977273,36.9763889 32.2690909,36.9861111 C33.2427273,36.9972222 33.7431818,37.7305556 33.7527273,38.5055556 Z M18.9,1.99027778 C18.8890909,1.09861111 19.5613636,0.538888889 20.3004545,0.530555556 C21.1854545,0.522222222 21.7731818,1.23611111 21.7595455,2.00555556 C21.7459091,2.8125 21.1663636,3.46111111 20.3127273,3.46527778 C19.5272727,3.47083333 18.8659091,2.82361111 18.9,1.99027778 Z M32.2813636,27.7847222 C31.5027273,27.7958333 30.8304545,27.1847222 30.8386364,26.3347222 C30.8454545,25.4513889 31.4986364,24.8722222 32.28,24.8791667 C33.0422727,24.8847222 33.6845455,25.4597222 33.6927273,26.3319444 C33.7009091,27.1347222 33.06,27.7861111 32.2813636,27.7847222 Z M44.1995455,15.5805556 C43.5081818,15.6347222 42.795,14.9388889 42.8113636,14.15 C42.8263636,13.3861111 43.4563636,12.7027778 44.1940909,12.7333333 C44.9563636,12.7652778 45.5959091,13.2513889 45.6122727,14.175 C45.6259091,14.9277778 44.985,15.6166667 44.1995455,15.5805556 Z M14.3509091,9.50416667 C13.5790909,9.50694444 12.9327273,8.86527778 12.9463636,8.07916667 C12.9586364,7.35972222 13.44,6.67777778 14.3536364,6.65416667 C15.1077273,6.63472222 15.7418182,7.30277778 15.7459091,8.06666667 C15.75,8.85416667 15.12,9.50277778 14.3509091,9.50416667 Z M8.39318182,9.50138889 C7.62409091,9.50972222 6.98318182,8.86388889 6.98045455,8.07916667 C6.97772727,7.31111111 7.60227273,6.64861111 8.36727273,6.6625 C9.16772727,6.67638889 9.76363636,7.26111111 9.76090909,8.06805556 C9.75818182,8.94166667 9.16909091,9.44722222 8.39318182,9.50138889 Z M33.5836364,1.99444444 C33.6218182,2.61388889 33.1704545,3.34444444 32.2690909,3.35277778 C31.4740909,3.35972222 30.9490909,2.76388889 30.945,2.00138889 C30.9409091,1.25 31.5395455,0.623611111 32.265,0.636111111 C33.0859091,0.65 33.6340909,1.34583333 33.5836364,1.99444444 Z M33.4677273,44.5944444 C33.4622727,45.2902778 32.9209091,45.8375 32.2472727,45.8263889 C31.5804545,45.8152778 31.0595455,45.25 31.0554545,44.5569444 C31.0513636,43.9361111 31.5490909,43.3375 32.2677273,43.3458333 C33.0940909,43.3555556 33.5018182,44.0388889 33.4677273,44.5944444 Z M14.3454545,39.7319444 C13.695,39.7333333 13.1222727,39.1611111 13.1386364,38.4986111 C13.1577273,37.7611111 13.7045455,37.2652778 14.3468182,37.2680556 C15.0313636,37.2722222 15.5509091,37.8027778 15.555,38.4986111 C15.5577273,39.1597222 15.0640909,39.7013889 14.3454545,39.7319444 Z M43.0963636,32.4222222 C43.0677273,31.7208333 43.6090909,31.2583333 44.1981818,31.2597222 C44.8990909,31.2611111 45.3477273,31.8013889 45.3395455,32.4222222 C45.3313636,33.0597222 44.8363636,33.55 44.2118182,33.5736111 C43.6445455,33.5958333 43.0431818,33.0277778 43.0963636,32.4222222 Z M2.40681818,15.2916667 C1.77818182,15.3333333 1.29954545,14.7763889 1.28727273,14.1888889 C1.27227273,13.4486111 1.90636364,13.0138889 2.38636364,13.0125 C3.01772727,13.0111111 3.53454545,13.5375 3.53318182,14.1805556 C3.53181818,14.6791667 3.09409091,15.3333333 2.40681818,15.2916667 Z M1.29954545,32.3958333 C1.30227273,31.7861111 1.82181818,31.2805556 2.43409091,31.2916667 C3.04090909,31.3013889 3.51,31.8125 3.50454545,32.4569444 C3.49909091,33.0402778 2.96454545,33.5819444 2.38636364,33.5527778 C1.79181818,33.5208333 1.29818182,33.0888889 1.29954545,32.3958333 Z M14.3440909,43.4916667 C14.9631818,43.4541667 15.4663636,44.0083333 15.4404545,44.5847222 C15.4104545,45.2444444 15.03,45.6638889 14.3522727,45.7027778 C13.7768182,45.7361111 13.2559091,45.1930556 13.2531818,44.5902778 C13.2490909,43.9708333 13.7604545,43.4513889 14.3440909,43.4916667 Z M13.3445455,1.98611111 C13.3513636,1.41805556 13.7959091,0.984722222 14.3563636,0.979166667 C14.8759091,0.973611111 15.3627273,1.4625 15.3490909,2.00833333 C15.3354545,2.55138889 14.8909091,3.02083333 14.3686364,3.01944444 C13.8040909,3.01944444 13.3377273,2.54861111 13.3445455,1.98611111 Z M26.3127273,42.2055556 C27.5931818,42.1611111 28.6527273,43.2680556 28.6486364,44.5972222 C28.6459091,45.8013889 27.7295455,46.9777778 26.2868182,46.9861111 C24.9477273,46.9930556 23.9209091,45.8277778 23.9359091,44.5555556 C23.9522727,43.2902778 25.0377273,42.1166667 26.3127273,42.2055556 Z M20.3468182,42.6736111 C21.2604545,42.6125 22.2340909,43.4694444 22.2190909,44.5847222 C22.2027273,45.7055556 21.3790909,46.5277778 20.295,46.5180556 C19.1959091,46.5083333 18.4227273,45.5736111 18.4309091,44.5583333 C18.4377273,43.5638889 19.2654545,42.6125 20.3468182,42.6736111 Z" id="Combined-Shape" fill="#CCCCCC"></path>
    </g>
</svg>