<?xml version="1.0" encoding="UTF-8"?>
<svg width="92px" height="34px" viewBox="0 0 92 34" version="1.1" xmlns="http://www.w3.org/2000/svg" xmlns:xlink="http://www.w3.org/1999/xlink">
    <!-- Generator: Sketch 52.4 (67378) - http://www.bohemiancoding.com/sketch -->
    <title>Artboard</title>
    <desc>Created with Sketch.</desc>
    <g id="Artboard" stroke="none" stroke-width="1" fill="none" fill-rule="evenodd">
        <path d="M81.1017825,9.76623821 C81.344205,9.76623821 81.524785,9.94805506 81.524785,10.1892407 L81.524785,12.9399935 C81.524785,13.1824159 81.3429681,13.3629959 81.1017825,13.3629959 L77.9267904,13.3629959 C77.5334723,13.3629959 77.1104699,13.3023903 77.1104699,13.3023903 L77.1104699,24.1866639 C77.1104699,24.4290864 76.928653,24.6096664 76.6874674,24.6096664 L73.2712897,24.6096664 C73.0288673,24.6096664 72.8482873,24.4278496 72.8482873,24.1866639 L72.8482873,13.3023903 C72.8482873,13.3023903 72.546496,13.3629959 72.2137836,13.3629959 L68.8878959,13.3629959 C68.6454734,13.3629959 68.4648934,13.1811791 68.4648934,12.9399935 L68.4648934,10.1892407 C68.4648934,9.94681821 68.6467103,9.76623821 68.8878959,9.76623821 L81.1017825,9.76623821 Z M10.8376119,9.76623821 C10.5951894,9.76623821 10.4146094,9.94805506 10.4146094,10.1892407 L10.4146094,12.9399935 C10.4146094,13.1824159 10.5964263,13.3629959 10.8376119,13.3629959 L14.1634996,13.3629959 C14.496212,13.3629959 14.7980033,13.3023903 14.7980033,13.3023903 L14.7980033,24.1866639 C14.7980033,24.4290864 14.9798201,24.6096664 15.2210057,24.6096664 L18.6371834,24.6096664 C18.8796059,24.6096664 19.0601859,24.4278496 19.0601859,24.1866639 L19.0601859,13.3023903 C19.0601859,13.3023903 19.4831883,13.3629959 19.8765064,13.3629959 L23.0514985,13.3629959 C23.293921,13.3629959 23.474501,13.1811791 23.474501,12.9399935 L23.474501,10.1892407 C23.474501,9.94681821 23.2926841,9.76623821 23.0514985,9.76623821 L10.8376119,9.76623821 Z M74.9645364,0.454 C68.6763947,0.454 63.2033366,4.05199455 60.4525838,9.31231453 C57.7315154,4.05199455 52.2596942,0.454 45.9406312,0.454 C39.6524895,0.454 34.1497471,4.05199455 31.4286787,9.31231453 C28.7076102,4.05199455 23.235789,0.454 16.9167261,0.454 C7.96688471,0.454 0.62,7.83056909 0.62,16.8707005 C0.62,25.9108318 7.96688471,33.2874009 16.9760948,33.2874009 C23.2642366,33.2874009 28.7372946,29.6894064 31.4880474,24.4290864 C34.2091158,29.6894064 39.680937,33.2874009 46,33.2874009 C52.2881417,33.2874009 57.7611998,29.6894064 60.5119526,24.4290864 C63.233021,29.6894064 68.7048422,33.2874009 75.0239052,33.2874009 C84.0331153,33.2874009 91.38,25.9108318 91.38,16.8707005 C91.3206312,7.83056909 83.9737465,0.454 74.9645364,0.454 Z M16.974858,29.5991164 C9.99037013,29.5991164 4.3070477,23.8848727 4.3070477,16.8707005 C4.3070477,9.85652821 9.99160698,4.14228455 16.974858,4.14228455 C23.958109,4.14228455 29.6439052,9.85652821 29.6439052,16.8707005 C29.6129839,23.8848727 23.9296615,29.5991164 16.974858,29.5991164 Z M45.9703156,29.5991164 C38.9858277,29.5991164 33.3025053,23.8848727 33.3025053,16.8707005 C33.3025053,9.85652821 38.9870646,4.14228455 45.9703156,4.14228455 C52.9548035,4.14228455 58.6381259,9.85652821 58.6381259,16.8707005 C58.6381259,23.8848727 52.9535666,29.5991164 45.9703156,29.5991164 Z M74.9645364,29.5991164 C67.9800485,29.5991164 62.2967261,23.8848727 62.2967261,16.8707005 C62.2967261,9.85652821 67.9812854,4.14228455 74.9645364,4.14228455 C81.9477874,4.14228455 87.6323467,9.85652821 87.6323467,16.8707005 C87.6323467,23.8848727 81.9477874,29.5991164 74.9645364,29.5991164 Z M52.2881417,9.49413137 C52.5602486,9.49413137 52.7420654,9.7056326 52.7420654,9.94805506 L52.7420654,23.825504 C52.7420654,24.0679264 52.5602486,24.2485064 52.319063,24.2485064 L49.4470989,24.2485064 C49.2962033,24.2485064 49.0847021,24.1272952 48.9634909,24.0060839 C48.9634909,24.0060839 43.7934609,16.9313061 43.6425653,16.7494892 C43.4607484,16.5070668 43.2801684,16.0840643 43.2801684,16.0840643 L43.2801684,23.8242671 C43.2801684,24.0666896 43.0983516,24.2472696 42.857166,24.2472696 L39.6215683,24.2472696 C39.3791458,24.2472696 39.1985658,24.0654527 39.1985658,23.8242671 L39.1985658,9.94681821 C39.1985658,9.70439575 39.3803827,9.52381575 39.6215683,9.52381575 L42.4935323,9.52381575 C42.6444279,9.52381575 42.8868504,9.64502698 42.9771404,9.76623821 C42.9771404,9.76623821 48.0865647,16.7198049 48.298066,17.0228329 C48.4798828,17.2652554 48.6604628,17.6882578 48.6604628,17.6882578 L48.6604628,9.94805506 C48.6604628,9.7056326 48.8422796,9.5250526 49.0834652,9.5250526 C49.0834652,9.49413137 52.0766405,9.49413137 52.2881417,9.49413137 Z" id="Shape" fill="#FF6600" fill-rule="nonzero"></path>
    </g>
</svg>