<svg width="149" height="26" viewBox="0 0 149 26" fill="none" xmlns="http://www.w3.org/2000/svg">
<path fill-rule="evenodd" clip-rule="evenodd" d="M148.018 23.9948C147.883 24.3154 147.792 24.662 147.605 24.9512C147.233 25.5277 146.663 25.8249 145.958 25.8284C144.245 25.8368 142.532 25.8207 140.819 25.835C139.762 25.8438 138.769 24.9414 138.755 23.8251C138.74 22.656 138.682 21.4812 138.779 20.3195C138.833 19.6623 138.563 19.246 138.175 18.809C137.733 18.3099 137.308 17.7965 136.874 17.2897C136.695 17.0798 136.485 16.9687 136.181 16.9708C134.367 16.9837 132.552 16.9841 130.738 16.9743C129.811 16.9694 129.102 16.5677 128.695 15.755C128.555 15.4753 128.488 15.1382 128.48 14.8252C128.454 13.8096 128.453 12.7925 128.475 11.7766C128.502 10.5562 129.373 9.62295 130.678 9.62996C132.324 9.63872 133.97 9.59667 135.614 9.64959C136.256 9.67027 136.662 9.45508 137.026 8.98651C137.501 8.3739 138.034 7.80299 138.513 7.19354C138.645 7.02672 138.737 6.7863 138.741 6.57812C138.762 5.36552 138.761 4.15222 138.749 2.93926C138.735 1.62152 139.7 0.712766 141.054 0.712766C142.643 0.712766 144.233 0.704355 145.822 0.715921C146.808 0.72293 147.637 1.33799 147.903 2.20013C147.939 2.31719 147.98 2.43284 148.018 2.54885V6.2217C148 6.23327 147.969 6.24343 147.968 6.2571C147.842 7.37753 146.798 8.09213 145.712 8.0683C143.956 8.02975 142.197 8.06164 140.44 8.05393C140.186 8.05288 139.982 8.10895 139.818 8.30135C139.279 8.93324 138.744 9.56933 138.191 10.1897C137.943 10.4665 137.738 10.75 137.738 11.1285C137.736 12.516 137.725 13.9039 137.748 15.291C137.752 15.5314 137.851 15.8097 137.999 16.0017C138.481 16.6231 139.041 17.1874 139.503 17.821C139.94 18.4231 140.485 18.5875 141.218 18.5657C142.806 18.5191 144.395 18.5556 145.984 18.5489C146.506 18.5465 146.922 18.7616 147.308 19.0736C147.735 19.4184 147.884 19.8975 148.018 20.3878V23.9948ZM0.156982 6.41842H1.98341C1.98341 5.77567 1.98341 5.15675 1.98341 4.53748C1.98341 4.24239 1.99534 3.9466 1.97871 3.65256C1.96823 3.46681 2.04196 3.39287 2.21727 3.33259C3.31934 2.95233 4.41671 2.55946 5.55204 2.15783V6.40931H9.74273V9.22248H5.5683V9.60483C5.5683 11.736 5.55384 13.8675 5.57951 15.9987C5.58493 16.4641 5.70349 16.9351 5.82168 17.3911C6.01578 18.1383 6.60857 18.4702 7.33545 18.5413C8.36523 18.6426 9.35597 18.4838 10.2708 17.8712V21.1894C9.65743 21.2907 9.02163 21.4277 8.37788 21.4933C7.75546 21.5567 7.12364 21.5826 6.49832 21.5598C5.56071 21.5255 4.64226 21.3618 3.84706 20.8333C2.91307 20.213 2.33004 19.3505 2.1269 18.2728C2.03329 17.7762 1.99244 17.2642 1.98955 16.7588C1.97546 14.3873 1.98341 12.0157 1.98341 9.64374C1.98341 9.52458 1.98341 9.40542 1.98341 9.2386H0.156982V6.41842ZM56.0953 0.122375C56.0953 5.74802 56.0881 11.3737 56.1036 16.9993C56.1058 17.7857 56.2583 18.5568 56.7477 19.2311C57.0102 19.5931 57.3597 19.8118 57.7949 19.9716C57.3734 20.8765 56.6212 21.3577 55.646 21.4891C55.1725 21.5532 54.6643 21.5469 54.1984 21.4509C53.2926 21.2637 52.8571 20.5901 52.6564 19.7729C52.5621 19.3888 52.5169 18.984 52.5162 18.5887C52.5075 12.8428 52.5104 7.09695 52.5104 1.3511V0.92739C53.3924 0.723771 54.27 0.524007 55.1458 0.317233C55.3749 0.263262 55.5987 0.187912 55.8246 0.122375H56.0953ZM45.7627 14.2942C45.192 14.2203 44.7138 14.1053 44.237 14.1103C43.6634 14.1166 43.0847 14.1923 42.519 14.2949C41.1087 14.5508 39.8826 15.4532 40.2036 17.2827C40.3088 17.8833 40.646 18.3256 41.2529 18.5496C41.9512 18.8068 42.6705 18.8026 43.3876 18.6775C44.4329 18.4953 45.2556 17.8819 45.4616 16.8744C45.6315 16.0441 45.6641 15.1879 45.7627 14.2942ZM45.5813 11.5771C45.6731 10.6196 45.0846 9.71088 44.1004 9.37199C43.1534 9.04641 42.1818 9.07234 41.1972 9.1596C40.3915 9.2311 39.6285 9.41579 38.8817 9.76836C38.6197 8.85435 38.3612 7.95296 38.0782 6.96535C38.6699 6.78171 39.2464 6.57248 39.8392 6.42494C41.0071 6.1344 42.2067 6.09445 43.3992 6.16735C44.6429 6.24375 45.8549 6.48872 46.9396 7.14654C47.9857 7.78158 48.5506 8.74395 48.8405 9.85598C49.0267 10.5695 49.1532 11.3125 49.1817 12.0471C49.2489 13.757 49.2193 15.4701 49.2735 17.181C49.2985 17.971 49.3639 18.7756 49.7525 19.4965C49.9361 19.8372 50.2032 20.1354 50.453 20.4813C50.115 21.3095 49.3277 21.5134 48.4834 21.5604C47.2584 21.6287 46.5384 20.9299 45.9868 19.8116C45.8379 20.0072 45.7396 20.1803 45.5997 20.3117C44.9299 20.9397 44.0849 21.2464 43.1997 21.4164C41.683 21.708 40.1888 21.6123 38.7928 20.9096C37.5379 20.2777 36.8121 19.2607 36.614 17.8967C36.4513 16.7755 36.512 15.6779 37.0192 14.6384C37.6499 13.3452 38.7325 12.5234 40.093 12.073C40.8701 11.8158 41.696 11.6854 42.5086 11.5417C43.011 11.453 43.5297 11.4078 44.0397 11.4148C44.5464 11.4215 45.0518 11.5175 45.5813 11.5771ZM21.7829 13.7778C21.7214 13.2093 21.6853 12.637 21.5924 12.0738C21.4648 11.3007 21.1944 10.5717 20.6367 9.98365C19.9293 9.23751 19.0109 9.0027 18.0013 9.04406C16.9831 9.08576 16.1832 9.52104 15.5684 10.312C14.7772 11.3301 14.6044 12.5231 14.5838 13.7298C14.5708 14.498 14.6904 15.2802 14.8531 16.0355C15.0154 16.7868 15.3566 17.4864 16.0101 17.9823C16.7843 18.5697 17.6616 18.7386 18.6324 18.6247C19.7446 18.4943 20.5203 17.9171 21.0437 17.0031C21.6148 16.005 21.7644 14.9091 21.7829 13.7778ZM10.8442 13.8384C10.8023 12.3906 11.0744 11.0074 11.7879 9.72676C12.8401 7.83811 14.4399 6.656 16.6394 6.28731C18.4712 5.9803 20.264 6.10998 21.9307 6.95249C23.5955 7.7943 24.6033 9.17163 25.1202 10.9089C25.4606 12.0531 25.577 13.2223 25.5145 14.4012C25.4231 16.1171 24.9926 17.7426 23.8684 19.1185C22.8882 20.3178 21.6119 21.0947 20.0504 21.3618C19.3304 21.4852 18.5891 21.5738 17.8607 21.5539C16.2215 21.5086 14.6705 21.1203 13.3921 20.0577C12.2087 19.074 11.4543 17.8137 11.1265 16.3418C10.9443 15.5238 10.876 14.6816 10.756 13.8503C10.7856 13.8465 10.8149 13.8423 10.8442 13.8384ZM35.9881 17.8708V21.1858C35.3675 21.2892 34.7332 21.4277 34.0905 21.4932C33.4673 21.557 32.8344 21.5868 32.2091 21.5587C31.2274 21.5149 30.275 21.3418 29.4469 20.7572C28.5635 20.1337 28.0318 19.294 27.8334 18.2724C27.7249 17.7138 27.6964 17.1341 27.6928 16.5639C27.6776 14.2575 27.6866 11.9511 27.6866 9.64507V9.2508H25.8808V6.42536H27.6866C27.6866 6.05702 27.6866 5.71216 27.6866 5.36696C27.6866 4.78764 27.6794 4.20833 27.6938 3.62936C27.696 3.53824 27.7752 3.3963 27.8533 3.36791C28.9785 2.95822 30.1098 2.56395 31.2657 2.15706V6.40468H35.4438V9.23012H31.2715V9.59916C31.2715 11.7198 31.2556 13.8405 31.2834 15.9604C31.2896 16.4455 31.4255 16.9333 31.5394 17.4113C31.7176 18.1585 32.4405 18.4995 33.1352 18.5503C34.1465 18.6243 35.1 18.4459 35.9881 17.8708Z" fill="#52658C"/>
<path fill-rule="evenodd" clip-rule="evenodd" d="M120.343 12.241C120.347 12.1559 120.358 12.1005 120.35 12.0476C120.334 11.9316 120.311 11.8156 120.284 11.7017C120.038 10.6797 119.542 9.85332 118.49 9.41489C117.88 9.16081 117.254 9.09597 116.605 9.10613C115.458 9.12366 114.502 9.51407 113.814 10.4323C113.412 10.9692 113.176 11.5737 113.032 12.241H120.343ZM112.855 14.9445C113.01 16.8041 113.929 18.0195 115.785 18.4491C117.422 18.8283 119.035 18.672 120.475 17.702C120.612 17.6101 120.734 17.4973 120.885 17.3757C121.358 18.2588 121.827 19.1361 122.343 20.1005C121.833 20.3704 121.346 20.6886 120.812 20.8978C119.808 21.2921 118.753 21.4999 117.663 21.5024C116.949 21.5041 116.23 21.5581 115.524 21.4912C114.015 21.3489 112.638 20.8684 111.466 19.8808C110.139 18.7621 109.447 17.321 109.208 15.6819C108.948 13.9022 109.031 12.1331 109.803 10.4519C110.281 9.41349 110.986 8.54785 111.885 7.81818C112.796 7.07765 113.819 6.56913 114.981 6.32521C115.905 6.1314 116.834 6.11528 117.776 6.21271C118.725 6.31084 119.631 6.53023 120.467 6.96761C122.284 7.91876 123.418 9.383 123.869 11.3386C124.13 12.4713 124.047 13.5984 123.803 14.7241C123.749 14.9711 123.58 14.9452 123.4 14.9452C120.019 14.9442 116.637 14.9445 113.256 14.9445H112.855ZM83.4621 13.774C83.4032 13.2048 83.3797 12.6297 83.2767 12.0683C83.1256 11.2454 82.8441 10.4625 82.2 9.86317C81.7232 9.41948 81.1384 9.21131 80.4856 9.08584C79.1554 8.83001 77.7103 9.45348 77.0304 10.603C76.5013 11.497 76.2786 12.4717 76.2714 13.4698C76.2649 14.3365 76.3339 15.2277 76.5428 16.0671C77.0431 18.0763 78.5048 18.9093 80.5488 18.6023C81.596 18.4453 82.3174 17.7735 82.7927 16.8795C83.3078 15.9101 83.4379 14.8552 83.4621 13.774ZM72.5332 13.9236C72.4855 12.3988 72.7487 11.0187 73.4647 9.7342C74.5183 7.8438 76.1109 6.66169 78.3078 6.28844C80.0345 5.99475 81.7254 6.11566 83.3364 6.81905C84.4623 7.3111 85.3446 8.09193 85.9905 9.11633C86.6003 10.0826 86.9646 11.1315 87.0716 12.2593C87.1316 12.8943 87.2209 13.5336 87.1978 14.1679C87.1316 15.9851 86.7232 17.7164 85.5073 19.1645C84.5414 20.3143 83.3017 21.0871 81.7857 21.3591C81.056 21.4902 80.3012 21.5725 79.561 21.5539C77.9312 21.5133 76.386 21.1362 75.1075 20.0876C74.0542 19.2241 73.3454 18.1225 72.9384 16.8434C72.6279 15.8673 72.4819 14.8685 72.5332 13.9236ZM106.857 10.1622C106.29 9.88041 105.777 9.53731 105.21 9.36103C103.938 8.96605 102.65 8.94678 101.415 9.53486C100.274 10.0774 99.6399 11.0299 99.3374 12.1735C98.9893 13.4884 98.9889 14.8206 99.4494 16.1239C99.9258 17.4715 100.922 18.2179 102.347 18.4906C103.658 18.7412 104.911 18.6224 106.097 18.0175C106.447 17.8387 106.762 17.5959 107.118 17.3667C107.156 17.4192 107.206 17.4722 107.237 17.5345C107.623 18.321 108.001 19.1109 108.393 19.8946C108.47 20.0481 108.442 20.1094 108.293 20.2009C107.222 20.8604 106.091 21.3532 104.805 21.4373C104.103 21.4832 103.399 21.581 102.7 21.5568C101.117 21.5028 99.598 21.1944 98.274 20.2703C96.8336 19.2648 95.9256 17.9204 95.6057 16.2329C95.4539 15.4307 95.3307 14.6071 95.3426 13.7954C95.3697 11.9716 95.8497 10.2603 97.083 8.82972C98.1496 7.59224 99.5101 6.78968 101.137 6.41643C102.202 6.17216 103.285 6.0912 104.367 6.1669C105.747 6.26363 107.04 6.6565 108.162 7.47764C108.236 7.53196 108.301 7.7135 108.264 7.77868C107.801 8.58826 107.319 9.38696 106.857 10.1622ZM68.9191 6.42593H72.7458C72.5731 6.8167 72.4176 7.18749 72.247 7.55162C71.5212 9.09857 70.7886 10.6427 70.0628 12.1897C69.2235 13.9791 68.3892 15.771 67.5514 17.5612C66.9601 18.8246 66.3629 20.0859 65.7777 21.3522C65.7036 21.5127 65.6223 21.5957 65.4344 21.5709C65.3238 21.5565 65.2052 21.5491 65.0975 21.5716C64.513 21.6925 64.2502 21.4251 64.0265 20.9141C63.0994 18.7976 62.1242 16.7008 61.1638 14.5984C59.9345 11.9075 58.7026 9.21807 57.473 6.52756C57.4647 6.50934 57.4672 6.48656 57.4607 6.43294C57.5341 6.42803 57.606 6.41927 57.6776 6.41927C58.8386 6.41822 59.9999 6.42383 61.1609 6.41366C61.3622 6.41191 61.4508 6.4764 61.5216 6.65513C62.3913 8.84693 63.2685 11.0363 64.1461 13.2256C64.4259 13.9241 64.7133 14.6198 65.0292 15.3964C66.3416 12.3705 67.6273 9.40557 68.9191 6.42593ZM93.407 21.2248H89.7881V9.31673H87.8384V6.43487H93.407V21.2248ZM91.6171 0.712812C92.6541 0.621341 93.7609 1.59388 93.7182 2.81559C93.6843 3.78778 92.7824 4.79676 91.6124 4.77994C90.4522 4.76347 89.5149 3.86804 89.5044 2.71291C89.4947 1.6489 90.4991 0.622743 91.6171 0.712812Z" fill="#838587"/>
</svg>
