<svg width="89" height="34" viewBox="0 0 89 34" fill="none" xmlns="http://www.w3.org/2000/svg">
<path fill-rule="evenodd" clip-rule="evenodd" d="M26.9055 3.33892C29.4803 3.33892 30.1948 4.51499 30.1948 6.45473C30.1948 6.46322 30.1945 6.47198 30.1943 6.48075C30.194 6.48951 30.1937 6.49828 30.1937 6.50677C31.651 6.32549 33.0711 6.21354 34.4553 6.15819L34.4555 6.14766L34.4557 6.13713C34.4557 1.83675 32.5222 0 27.4095 0C21.0465 0 18.6437 2.82729 17.3999 9.7089C18.9622 9.12165 20.4965 8.61914 22.0028 8.18928C22.6392 5.2373 23.6412 3.33892 26.9055 3.33892L26.9055 3.33892ZM15.2647 0.206236H1.69638C1.46432 0.206236 1.26629 0.374314 1.22771 0.603711L0.837759 2.92944C0.788995 3.22016 1.01243 3.48509 1.30643 3.48509H5.85747L3.1292 19.6495C3.08012 19.9404 3.30371 20.2056 3.59786 20.2056H6.89469C7.12643 20.2056 7.32431 20.038 7.3632 19.8088L10.1272 3.48509H14.8747C15.1068 3.48509 15.305 3.31701 15.3434 3.08746L15.7334 0.761884C15.7821 0.471167 15.5587 0.206236 15.2647 0.206236ZM52.4545 3.48509H47.707L47.066 7.2707C45.7467 6.97967 44.3636 6.73266 42.9212 6.54194L43.4372 3.48509H38.8862C38.5922 3.48509 38.3687 3.22016 38.4175 2.92944L38.8074 0.603711C38.846 0.374314 39.0441 0.206236 39.2761 0.206236H52.8444C53.1384 0.206236 53.3619 0.471167 53.3131 0.761884L52.9231 3.08746C52.8847 3.31701 52.6865 3.48509 52.4545 3.48509ZM64.2193 0C62.6067 0 61.3422 0.832686 60.3067 2.78956L56.3526 10.3128C57.5368 10.8367 58.6083 11.3666 59.5587 11.8757L63.3488 4.05117L65.7609 19.8011C65.7965 20.0337 65.996 20.2052 66.2307 20.2052H69.761C70.0577 20.2052 70.2817 19.9357 70.2286 19.6431L67.1605 2.78956C66.8124 0.8841 65.7862 0 64.2193 0ZM80.2295 15.4504C80.2295 16.6519 80.8618 16.961 82.8224 16.961H87.694C87.9881 16.961 88.2115 17.2261 88.1626 17.5168L87.789 19.7377C87.7515 19.9603 87.5649 20.1262 87.3399 20.1347C85.8218 20.1919 83.5589 20.257 82.3553 20.257C78.9469 20.257 75.7948 20.094 75.7948 16.6263C75.7948 16.2486 75.8315 15.8365 75.9138 15.373L78.4123 0.603065C78.4511 0.373825 78.6491 0.206061 78.8809 0.206061H82.1684C82.4626 0.206061 82.6862 0.471464 82.6369 0.762338L80.3577 14.24C80.2754 14.7207 80.2295 15.1156 80.2295 15.4504Z" fill="#C70101"/>
<path fill-rule="evenodd" clip-rule="evenodd" d="M24.4592 17.0637C26.2384 17.0637 27.3457 16.5031 28.0892 15.5182C28.8191 14.5514 29.1982 13.175 29.5139 11.5151C26.8461 12.0448 24.0638 12.7623 21.1757 13.7115L21.1738 13.7735V13.7735V13.7735V13.7735V13.7735V13.7735V13.7735C21.1717 13.8382 21.1696 13.9028 21.1696 13.9651C21.1696 15.537 21.6497 16.6027 23.2117 16.9449C23.5687 17.023 23.9819 17.0637 24.4592 17.0637ZM55.8058 11.3533C57.0729 11.7417 58.2191 12.147 59.2351 12.544C62.8468 13.9548 64.827 15.2526 64.827 15.2526C64.827 15.2526 62.7886 14.0827 59.0743 12.8761L58.6584 13.7346L55.654 19.9369C55.5745 20.1011 55.4085 20.2052 55.2265 20.2052H51.9411C51.5833 20.2052 51.3539 19.8237 51.5207 19.5064L54.8294 13.2111L55.5336 11.8712C52.9877 11.2466 49.9665 10.7082 46.5288 10.443L46.1143 12.8899L44.9429 19.8083C44.904 20.0376 44.7061 20.2052 44.4744 20.2052H41.1776C40.8834 20.2052 40.6598 19.9399 40.7089 19.6491L41.8091 13.1306L42.2921 10.2686C39.6927 10.2538 36.9048 10.4067 33.9491 10.7875C33.7002 12.1381 33.4062 13.3322 33.0456 14.3772C31.5845 18.6088 29.0302 20.4113 23.9553 20.4113C21.1892 20.4113 19.3526 19.8748 18.2478 18.7039C17.4696 17.879 17.0554 16.7381 16.9372 15.247C16.4693 15.4317 15.9994 15.6218 15.5269 15.8182C15.0166 16.0303 14.4546 15.6539 14.4546 15.0998C14.4546 14.7875 14.6412 14.5034 14.9278 14.3816C15.5961 14.0976 16.2593 13.8283 16.9185 13.5698C18.4169 12.9822 19.8912 12.4594 21.3386 11.9999C24.2692 11.0697 27.0909 10.3925 29.7933 9.92019C31.297 9.65746 32.763 9.45872 34.1897 9.31611C37.1317 9.02193 39.907 8.96423 42.4928 9.08027C43.9573 9.14599 45.3597 9.26784 46.7 9.43105C50.1898 9.85604 53.2459 10.5684 55.8058 11.3533ZM52.8496 27.4711C52.4966 27.5182 51.9017 27.5689 51.5118 27.589L50.4967 27.6396C50.6445 26.6992 50.9001 26.0115 51.979 26.0115C52.668 26.0115 52.9336 26.3082 52.9336 26.8576C52.9336 26.9722 52.9201 27.0969 52.9001 27.2318C52.8899 27.2992 52.8698 27.4036 52.8496 27.4711ZM54.3655 26.7835C54.3655 25.5868 53.8512 24.8656 52.1606 24.8656C50.1942 24.8656 49.3807 25.7689 49.0378 27.9464C48.984 28.3001 48.9505 28.6339 48.9505 28.944C48.9505 30.191 49.4681 31.0304 51.0613 31.0304C52.1975 31.0304 53.0277 30.9056 53.663 30.8012L53.7168 29.672C53.105 29.7495 52.3723 29.8305 51.579 29.8305C50.8093 29.8305 50.3623 29.6383 50.3623 28.8934C50.3623 28.8241 50.3686 28.7484 50.3752 28.6694L50.3756 28.6643L51.3504 28.6137C52.1639 28.5698 53.4882 28.4383 54.1739 28.3137C54.2142 28.1519 54.2446 27.9901 54.2681 27.8318C54.3285 27.4508 54.3655 27.1003 54.3655 26.7835ZM54.3434 30.9497L56.955 27.8523L55.4391 24.9469H57.1131L58.0037 26.7434L59.4525 24.9469H61.0222L58.592 27.822L60.2357 30.9497H58.5282L57.5399 28.9646L55.9501 30.9497H54.3434ZM65.3559 27.1003C65.3559 27.3632 65.3156 27.6531 65.2686 27.9497C65.0938 29.0418 64.9324 29.8507 63.5308 29.8507C63.2787 29.8507 62.9594 29.7968 62.7341 29.7193L63.1611 27.0025C63.2047 26.7329 63.2619 26.4396 63.3224 26.197C63.5611 26.0925 63.9375 26.0386 64.2635 26.0386C65.1375 26.0386 65.3559 26.4936 65.3559 27.1003ZM60.7241 33.1606H62.1863L62.546 30.9023C62.8787 30.9798 63.2887 31.0304 63.6417 31.0304C65.4467 31.0304 66.371 30.2754 66.7408 27.9497C66.8047 27.5486 66.835 27.1947 66.835 26.8846C66.835 25.3645 66.0686 24.8656 64.4484 24.8656C63.6518 24.8656 62.7206 25.0274 61.9981 25.4219C61.9039 25.806 61.83 26.1532 61.766 26.561L60.7241 33.1606ZM67.5083 30.9494L68.2007 26.561C68.2645 26.1532 68.335 25.806 68.4293 25.4219C69.152 25.0274 70.083 24.8656 70.8796 24.8656C71.0879 24.8656 71.2863 24.8757 71.4679 24.896L71.1619 26.0959C71.0409 26.079 70.8897 26.0724 70.7417 26.0724C70.399 26.0724 69.9888 26.1364 69.7368 26.2577C69.6728 26.5003 69.6191 26.7936 69.5755 27.0632L68.9604 30.9495L67.5083 30.9494ZM75.2475 27.4711C74.8946 27.5182 74.2997 27.5689 73.9097 27.589L72.8946 27.6396C73.0425 26.6992 73.2981 26.0115 74.377 26.0115C75.0661 26.0115 75.3316 26.3082 75.3316 26.8576C75.3316 26.9722 75.3181 27.0969 75.298 27.2318C75.2878 27.2992 75.2676 27.4036 75.2475 27.4711ZM76.7634 26.7835C76.7634 25.5868 76.2491 24.8656 74.5585 24.8656C72.5921 24.8656 71.7787 25.7689 71.4358 27.9464C71.382 28.3001 71.3484 28.6339 71.3484 28.944C71.3484 30.191 71.866 31.0304 73.4594 31.0304C74.5954 31.0304 75.4256 30.9056 76.061 30.8012L76.1148 29.672C75.5029 29.7495 74.7702 29.8305 73.977 29.8305C73.2073 29.8305 72.7602 29.6383 72.7602 28.8934C72.7602 28.824 72.7666 28.7482 72.7732 28.6691L72.7736 28.6643L73.7484 28.6137C74.5618 28.5698 75.8862 28.4383 76.5718 28.3137C76.6123 28.1519 76.6425 27.9901 76.6659 27.8318C76.7266 27.4508 76.7634 27.1003 76.7634 26.7835ZM79.514 28.4892C78.7308 28.2297 77.9376 27.9634 77.9376 26.9691C77.9376 26.8579 77.9476 26.7398 77.9678 26.6118C78.183 25.2568 79.1678 24.866 80.3408 24.866C81.1778 24.866 81.7493 24.9435 82.4551 25.1153L82.1426 26.2073C81.6921 26.113 81.208 26.032 80.6804 26.032C80.2165 26.032 79.514 26.0354 79.4333 26.5477C79.365 26.9931 79.7763 27.1265 80.1794 27.2572L80.1797 27.2573C80.2526 27.2809 80.3251 27.3045 80.3946 27.3298C80.4477 27.3495 80.5004 27.3687 80.5525 27.3878C81.3012 27.6614 81.924 27.889 81.924 28.806C81.924 28.9274 81.9139 29.0656 81.8904 29.2138C81.6653 30.6363 80.5862 31.0306 79.2921 31.0306C78.6232 31.0306 77.8198 30.9363 77.2384 30.771L77.5544 29.6588C77.9812 29.7431 78.6737 29.8407 79.124 29.8407L79.1601 29.8407C79.6071 29.8412 80.3165 29.8419 80.4081 29.2645C80.4148 29.2206 80.4181 29.1802 80.4181 29.1431C80.4181 28.7561 80.0805 28.6573 79.7165 28.5508C79.6492 28.5312 79.5811 28.5112 79.514 28.4892ZM83.2228 26.9691C83.2228 27.9634 84.016 28.2297 84.7992 28.4892C84.8663 28.5112 84.9345 28.5312 85.0017 28.5508C85.3657 28.6573 85.7033 28.7561 85.7033 29.1431C85.7033 29.1802 85.7 29.2206 85.6933 29.2645C85.6017 29.8419 84.8923 29.8412 84.4454 29.8407L84.4093 29.8407C83.9588 29.8407 83.2664 29.7431 82.8396 29.6588L82.5236 30.771C83.105 30.9363 83.9085 31.0306 84.5774 31.0306C85.8714 31.0306 86.9505 30.6363 87.1757 29.2138C87.1992 29.0656 87.2092 28.9274 87.2092 28.806C87.2092 27.889 86.5864 27.6614 85.8378 27.3878C85.7857 27.3688 85.733 27.3495 85.6798 27.3298C85.6103 27.3044 85.5376 27.2809 85.4647 27.2572C85.0615 27.1265 84.6502 26.9931 84.7185 26.5477C84.7992 26.0354 85.5017 26.032 85.9655 26.032C86.4933 26.032 86.9773 26.113 87.4278 26.2073L87.7403 25.1153C87.0346 24.9435 86.463 24.866 85.626 24.866C84.453 24.866 83.4682 25.2568 83.2531 26.6118C83.2328 26.7398 83.2228 26.8579 83.2228 26.9691Z" fill="#20315E"/>
<path fill-rule="evenodd" clip-rule="evenodd" d="M42.2914 10.2684L41.8083 13.1305C43.3054 13.0034 44.742 12.9259 46.1137 12.8898L46.5279 10.4428C45.1785 10.3387 43.7655 10.2768 42.2914 10.2684ZM28.0898 15.5177C28.8197 14.5511 29.1988 13.1747 29.5144 11.5147C31.031 11.2136 32.5105 10.9725 33.9496 10.787C33.7008 12.1377 33.4069 13.3317 33.0461 14.3767C31.4409 14.6957 29.7879 15.0735 28.0898 15.5177ZM21.1722 13.7674C21.1701 13.8341 21.168 13.9008 21.168 13.965H21.168C21.168 15.5369 21.6481 16.6025 23.2101 16.9448C21.5893 17.4685 19.9343 18.0524 18.2462 18.7038C17.4679 17.8789 17.0536 16.738 16.9355 15.2467C18.3712 14.6797 19.785 14.1679 21.1739 13.7114L21.1722 13.7674ZM54.8278 13.2112L55.5321 11.8713C56.8403 12.1922 58.0239 12.5354 59.0727 12.8762L58.6568 13.7346C57.5228 13.54 56.2432 13.3581 54.8278 13.2112Z" fill="#1E2348"/>
</svg>
