<?xml version="1.0" encoding="UTF-8"?>
<svg width="160px" height="28px" viewBox="0 0 160 28" version="1.1" xmlns="http://www.w3.org/2000/svg" xmlns:xlink="http://www.w3.org/1999/xlink">
    <!-- Generator: Sketch 52.4 (67378) - http://www.bohemiancoding.com/sketch -->
    <title>Artboard</title>
    <desc>Created with Sketch.</desc>
    <g id="Artboard" stroke="none" stroke-width="1" fill="none" fill-rule="evenodd">
        <path d="M159.638595,25.7738108 C159.493034,26.120027 159.393912,26.4942432 159.192546,26.8064054 C158.791376,27.4288378 158.17518,27.7497027 157.414595,27.7534865 C155.565229,27.7625676 153.715473,27.7451622 151.866107,27.7606757 C150.725034,27.7701351 149.652254,26.7958108 149.637424,25.5906757 C149.621424,24.3284054 149.558595,23.0600811 149.66318,21.8057568 C149.722107,21.0962973 149.430595,20.6467838 149.011863,20.1749459 C148.533815,19.6361351 148.074888,19.0818108 147.606985,18.5346757 C147.413034,18.308027 147.187083,18.1880811 146.858888,18.1903514 C144.899863,18.2043514 142.940839,18.2047297 140.981815,18.1941351 C139.980839,18.1888378 139.21518,17.7552162 138.776546,16.8777568 C138.625522,16.5758108 138.552937,16.2118108 138.544351,15.8739189 C138.515863,14.7773784 138.514693,13.6793243 138.538498,12.5824054 C138.567376,11.2648919 139.508254,10.2572703 140.917424,10.2648378 C142.693815,10.2742973 144.471766,10.2288919 146.246595,10.286027 C146.939668,10.3083514 147.377522,10.076027 147.770888,9.57013514 C148.284059,8.90872973 148.858888,8.29235135 149.376741,7.63435135 C149.5184,7.45424324 149.618693,7.19467568 149.622595,6.96991892 C149.64562,5.66072973 149.644449,4.35078378 149.63079,3.04121622 C149.616351,1.61851351 150.657912,0.637378378 152.120156,0.637378378 C153.835668,0.637378378 155.551571,0.628297297 157.267083,0.640783784 C158.331668,0.648351351 159.226888,1.31240541 159.513717,2.24321622 C159.552741,2.36959459 159.596839,2.49445946 159.638595,2.6197027 L159.638595,6.58510811 C159.619473,6.59759459 159.585522,6.60856757 159.583961,6.62332432 C159.448546,7.833 158.321522,8.60451351 157.149229,8.57878378 C155.252644,8.53716216 153.354107,8.57159459 151.456351,8.56327027 C151.18279,8.56213514 150.962302,8.62267568 150.785132,8.83040541 C150.202888,9.51262162 149.625717,10.1993784 149.028254,10.8691081 C148.761327,11.168027 148.540059,11.4741351 148.539278,11.8827838 C148.536937,13.3807838 148.52562,14.8791622 148.550595,16.3767838 C148.554888,16.6363514 148.661424,16.9367838 148.821815,17.1441351 C149.341229,17.815 149.946888,18.4241892 150.444839,19.1082973 C150.917424,19.7583514 151.505912,19.9358108 152.296937,19.9123514 C154.010888,19.862027 155.72718,19.9013784 157.442302,19.8941892 C158.006205,19.8915405 158.454985,20.1238649 158.872156,20.4606216 C159.332644,20.8329459 159.494205,21.3501892 159.638595,21.8795405 L159.638595,25.7738108 Z M-3.55271368e-14,6.79749189 L1.97190244,6.79749189 C1.97190244,6.10354595 1.97190244,5.43532973 1.97190244,4.76673514 C1.97190244,4.44814054 1.98478049,4.12878919 1.96682927,3.81132973 C1.9555122,3.61078919 2.03512195,3.53095135 2.22439024,3.46587027 C3.4142439,3.05532973 4.59902439,2.63116757 5.82478049,2.19754595 L5.82478049,6.78765405 L10.3492683,6.78765405 L10.3492683,9.8248973 L5.84234146,9.8248973 L5.84234146,10.2377081 C5.84234146,12.538627 5.82673171,14.8399243 5.85443902,17.1408432 C5.86029268,17.6433297 5.98829268,18.1518703 6.11590244,18.6441405 C6.32546341,19.4508432 6.96546341,19.8091676 7.7502439,19.8859784 C8.86204878,19.9953297 9.93170732,19.8239243 10.9194146,19.1625189 L10.9194146,22.7450054 C10.2571707,22.8543568 9.57073171,23.0023027 8.87570732,23.0730595 C8.20370732,23.1415459 7.52156098,23.1695459 6.84643902,23.1449514 C5.83414634,23.1078703 4.84253659,22.9311676 3.984,22.360573 C2.97560976,21.6908432 2.34614634,20.7596541 2.12682927,19.5961405 C2.0257561,19.0599784 1.98165854,18.5071676 1.97853659,17.9615459 C1.96331707,15.4010595 1.97190244,12.840573 1.97190244,10.2797081 C1.97190244,10.1510595 1.97190244,10.0224108 1.97190244,9.8423027 L-3.55271368e-14,9.8423027 L-3.55271368e-14,6.79749189 Z M60.3939122,-3.78378379e-05 C60.3939122,6.07369189 60.3861073,12.1474216 60.4028878,18.2211514 C60.4052293,19.0702324 60.5699122,19.9026649 61.0983024,20.6306649 C61.3816195,21.0215297 61.7589854,21.2576378 62.228839,21.4301784 C61.7738146,22.4071514 60.9617171,22.9266649 59.908839,23.0685568 C59.3976195,23.1378 58.8489366,23.1309892 58.3459122,23.0273135 C57.367961,22.8252595 56.8977171,22.0980162 56.6811317,21.2156378 C56.579278,20.8009351 56.5304976,20.3639081 56.5297171,19.9370973 C56.5203512,13.7335838 56.5234732,7.53007027 56.5234732,1.32655676 L56.5234732,0.869097297 C57.4756683,0.649259459 58.4231805,0.433583784 59.3687415,0.210340541 C59.6161561,0.15207027 59.8577171,0.0707189189 60.1016195,-3.78378379e-05 L60.3939122,-3.78378379e-05 Z M49.238322,15.3006378 C48.6221268,15.2208 48.1058341,15.0966919 47.5911024,15.1019892 C46.9717854,15.1088 46.3470049,15.1905297 45.7362732,15.3013946 C44.2135415,15.5776108 42.8898341,16.5519351 43.2363707,18.5270703 C43.3499317,19.1756108 43.7140293,19.6531243 44.3692488,19.8949081 C45.1232,20.1726378 45.8997854,20.1680973 46.6740293,20.0330162 C47.8026146,19.8362595 48.6908098,19.1740973 48.9132488,18.0862595 C49.0966634,17.1898811 49.1317854,16.2655027 49.238322,15.3006378 Z M49.0424195,12.3670703 C49.1415415,11.3333405 48.5062244,10.3522054 47.4435902,9.98631351 C46.4211512,9.6348 45.3721756,9.6628 44.3091512,9.75701622 C43.4392976,9.83420541 42.6154927,10.0336108 41.8092488,10.4142595 C41.526322,9.42744865 41.2472976,8.45425946 40.9417366,7.38798919 C41.5805659,7.18971892 42.2030049,6.96382703 42.8430049,6.80452973 C44.1038829,6.49085405 45.3991024,6.44771892 46.6865171,6.52642162 C48.0293463,6.60890811 49.3378341,6.87339459 50.5089561,7.58361081 C51.638322,8.26923243 52.2482732,9.30825946 52.5612488,10.5088541 C52.7622244,11.2792324 52.8988098,12.0813946 52.929639,12.8744757 C53.0022244,14.7205838 52.9702244,16.5700973 53.028761,18.4173405 C53.0556878,19.2702054 53.126322,20.1389622 53.5458341,20.9172865 C53.744078,21.2850703 54.0324683,21.6070703 54.3021268,21.9805297 C53.9372488,22.8746378 53.0872976,23.0948541 52.1756878,23.1455568 C50.8531512,23.2193405 50.0757854,22.4648541 49.4802732,21.2574486 C49.3194927,21.4685838 49.2133463,21.6555027 49.062322,21.7973946 C48.3392,22.4754486 47.4268098,22.8065297 46.4711024,22.9900432 C44.833639,23.3048541 43.2203707,23.2015568 41.7132488,22.4429081 C40.358322,21.7606919 39.5747122,20.6626378 39.3608585,19.1899892 C39.1852488,17.9795568 39.2508098,16.7944757 39.798322,15.6722054 C40.4792976,14.2759892 41.648078,13.3886919 43.1169561,12.9024757 C43.9559805,12.6247459 44.8476878,12.4839892 45.7249561,12.3288541 C46.2673951,12.2331243 46.8273951,12.1843135 47.3780293,12.1918811 C47.9251512,12.1990703 48.4707122,12.3027459 49.0424195,12.3670703 Z M23.3484098,14.7430216 C23.2820683,14.1292919 23.2430439,13.5114 23.1427512,12.9033459 C23.0049951,12.0686432 22.7130927,11.2816162 22.1109463,10.6466973 C21.347239,9.84112973 20.3556293,9.58761622 19.265678,9.63226486 C18.166361,9.67729189 17.3027512,10.1472378 16.6389463,11.0012378 C15.7847024,12.100427 15.5981659,13.388427 15.575922,14.6911838 C15.5618732,15.5205892 15.6910439,16.3651297 15.8666537,17.1805351 C16.0418732,17.9917784 16.4102634,18.7470216 17.1158244,19.282427 C17.9517268,19.9165892 18.8988488,20.0989676 19.9470439,19.9759946 C21.1478244,19.8352378 21.9852878,19.2120486 22.550361,18.2252378 C23.1669463,17.1476162 23.3285073,15.964427 23.3484098,14.7430216 Z M11.5384585,14.8084811 C11.4931902,13.2454 11.7870439,11.7519405 12.5573854,10.3693459 C13.6933854,8.33026486 15.4206049,7.05399459 17.795239,6.65594054 C19.7729951,6.32448108 21.7086049,6.46448108 23.5080195,7.3741027 C25.3054829,8.28296757 26.3934829,9.76999459 26.9515317,11.6456162 C27.3191415,12.8810216 27.4448,14.1432919 27.3772878,15.4161568 C27.2785561,17.2686973 26.8137756,19.0236162 25.6001171,20.5091297 C24.5417756,21.8039405 23.1638244,22.6428054 21.4779707,22.9311297 C20.7006049,23.0643189 19.9002146,23.1600486 19.1138732,23.1384811 C17.3441171,23.0896703 15.6695805,22.670427 14.2892878,21.5231838 C13.0116293,20.4610757 12.1971902,19.100427 11.843239,17.5112378 C11.6465561,16.6281027 11.5728,15.7188595 11.443239,14.8213459 C11.475239,14.8171838 11.5068488,14.8126432 11.5384585,14.8084811 Z M38.6851512,19.1620649 L38.6851512,22.7411459 C38.0151024,22.8527676 37.3302244,23.002227 36.6363707,23.0729838 C35.9635902,23.1418486 35.2802732,23.1740108 34.6051512,23.1437405 C33.5452488,23.0964432 32.5169561,22.9095243 31.6229073,22.2783892 C30.6691512,21.6052541 30.0951024,20.6986595 29.8808585,19.5956865 C29.7637854,18.9925514 29.7329561,18.3667135 29.7290537,17.7510919 C29.7126634,15.2609838 29.7224195,12.7708757 29.7224195,10.2811459 L29.7224195,9.85547027 L27.772761,9.85547027 L27.772761,6.80498378 L29.7224195,6.80498378 C29.7224195,6.40730811 29.7224195,6.03498378 29.7224195,5.66228108 C29.7224195,5.03682162 29.7146146,4.41136216 29.7302244,3.78628108 C29.7325659,3.6879027 29.8180293,3.53465946 29.902322,3.50401081 C31.1171512,3.06168649 32.3386146,2.63601081 33.5866146,2.19671351 L33.5866146,6.78265946 L38.0974439,6.78265946 L38.0974439,9.83314595 L33.5928585,9.83314595 L33.5928585,10.2315784 C33.5928585,12.5211459 33.5756878,14.8107135 33.6057366,17.0995243 C33.6123707,17.6232 33.7591024,18.1499027 33.8820293,18.6660108 C34.0744195,19.4727135 34.8549073,19.8408757 35.6049561,19.8957405 C36.6968585,19.9755784 37.726322,19.7829838 38.6851512,19.1620649 Z" id="Combined-Shape" fill="#52658C"></path>
        <path d="M129.760117,13.0837189 C129.76441,12.991773 129.776507,12.9319892 129.767922,12.8748541 C129.749971,12.7496108 129.725776,12.6243676 129.696117,12.5013946 C129.431141,11.3980432 128.894946,10.505827 127.759337,10.0324757 C127.101385,9.75815135 126.425093,9.68815135 125.724215,9.69912432 C124.486361,9.71804324 123.454166,10.1395568 122.711532,11.1309081 C122.27719,11.7105838 122.022361,12.3632865 121.866654,13.0837189 L129.760117,13.0837189 Z M121.676215,16.0025297 C121.843629,18.0102054 122.835629,19.3224216 124.839141,19.7863135 C126.606946,20.1957189 128.347824,20.0269622 129.902946,18.9796108 C130.050459,18.8804757 130.181971,18.7586378 130.345483,18.6273405 C130.855532,19.5808541 131.362459,20.5279351 131.919337,21.5692324 C131.369093,21.8605838 130.842654,22.2041514 130.267044,22.4300432 C129.182946,22.8557189 128.043434,23.0800973 126.866459,23.0827459 C126.096117,23.0846378 125.319922,23.1429081 124.556995,23.0706378 C122.927727,22.9170162 121.441288,22.3982595 120.176507,21.3319892 C118.743532,20.1242054 117.996215,18.5683135 117.737873,16.7986378 C117.457288,14.8772324 117.546654,12.9671784 118.380995,11.1520973 C118.896507,10.0309622 119.657873,9.09636757 120.62841,8.30858378 C121.612605,7.50907027 122.716995,6.96004324 123.970849,6.69669189 C124.969093,6.48744865 125.971239,6.47004324 126.988995,6.57523243 C128.013385,6.68117838 128.990946,6.91804324 129.89358,7.39025946 C131.855337,8.41717838 133.080312,9.99804324 133.566946,12.1093946 C133.848702,13.3323135 133.759727,14.5491784 133.495532,15.7645297 C133.437776,16.0312865 133.255532,16.0032865 133.0608,16.0032865 C129.410068,16.0021514 125.759337,16.0025297 122.108605,16.0025297 L121.676215,16.0025297 Z M89.9417366,14.7387838 C89.8781268,14.1242973 89.852761,13.5033784 89.7415415,12.8972162 C89.5784195,12.0087838 89.2744195,11.1634865 88.5790049,10.5164595 C88.0642732,10.0374324 87.4328585,9.81267568 86.728078,9.67721622 C85.2919805,9.401 83.7317854,10.0741351 82.9977366,11.3152162 C82.4264195,12.2804595 82.1860293,13.3327297 82.1782244,14.4103514 C82.1712,15.3460811 82.2457366,16.3082973 82.4712976,17.2145135 C83.0113951,19.3837568 84.5895415,20.2831622 86.7963707,19.9517027 C87.9269073,19.7821892 88.7058341,19.0568378 89.2190049,18.0915946 C89.7751024,17.045 89.9155902,15.9060811 89.9417366,14.7387838 Z M78.142322,14.9003514 C78.0908098,13.254027 78.3749073,11.763973 79.1479805,10.3772162 C80.2855415,8.33624324 82.0049561,7.05997297 84.3768585,6.657 C86.2410537,6.33991892 88.0666146,6.47045946 89.8059317,7.22986486 C91.0215415,7.76110811 91.9741268,8.60413514 92.6714927,9.71013514 C93.3298341,10.7533243 93.7232,11.8858108 93.8387122,13.1034324 C93.9034927,13.7890541 93.9998829,14.4792162 93.9749073,15.1640811 C93.9034927,17.125973 93.4625171,18.9951622 92.1497366,20.5586216 C91.1070049,21.8000811 89.7684683,22.6344054 88.1317854,22.928027 C87.3438829,23.0695405 86.5290537,23.1584595 85.7298341,23.1384054 C83.9702244,23.0945135 82.3019317,22.6873784 80.921639,21.5552703 C79.7844683,20.6229459 79.0192,19.4337027 78.5797854,18.0526216 C78.2445659,16.9988378 78.0869073,15.9204595 78.142322,14.9003514 Z M115.199688,10.8392919 C114.588176,10.5350757 114.03442,10.1646432 113.421346,9.97431892 C112.048078,9.54788649 110.65842,9.52707568 109.324176,10.1619946 C108.092956,10.7477243 107.408078,11.7761568 107.081444,13.0108054 C106.705639,14.4304811 106.705249,15.8686973 107.20242,17.2758865 C107.716761,18.7307514 108.792663,19.5366973 110.331005,19.8310757 C111.746029,20.1016162 113.099005,19.9733459 114.379005,19.3202649 C114.757151,19.1272919 115.097834,18.8650757 115.481834,18.6176162 C115.52242,18.674373 115.577054,18.7315081 115.610224,18.7988595 C116.026615,19.6479405 116.43559,20.5008054 116.858224,21.3468595 C116.940956,21.5125892 116.911298,21.5788054 116.750907,21.6775622 C115.594615,22.3896703 114.373151,22.9216703 112.984663,23.0124811 C112.22681,23.0620486 111.467005,23.1676162 110.711883,23.1415081 C109.002615,23.0832378 107.36281,22.7502649 105.933346,21.7524811 C104.378224,20.6669135 103.397932,19.2154541 103.052566,17.3935622 C102.888663,16.5274541 102.75559,15.6382649 102.768468,14.7619405 C102.797737,12.7928595 103.31598,10.9452378 104.647493,9.4006973 C105.799102,8.06464324 107.26798,7.19815676 109.024468,6.79518378 C110.174517,6.53145405 111.343688,6.44404865 112.512078,6.52577838 C114.001249,6.63021081 115.397932,7.05437297 116.608859,7.94091351 C116.689249,7.99956216 116.759493,8.19556216 116.719298,8.26594054 C116.219395,9.13999459 115.69842,10.0023189 115.199688,10.8392919 Z M74.2403512,6.80543784 L78.3718634,6.80543784 C78.1853268,7.22732973 78.017522,7.62765405 77.8333268,8.02078919 C77.0497171,9.69095135 76.2586927,11.3580865 75.4750829,13.0282486 C74.5689366,14.9602486 73.6682537,16.8948973 72.7636683,18.8276541 C72.1252293,20.1917081 71.4805463,21.5534919 70.8487415,22.920573 C70.7687415,23.0938703 70.6809366,23.1835459 70.4780098,23.1566811 C70.3585951,23.1411676 70.2305951,23.1332216 70.1143024,23.1574378 C69.483278,23.2879784 69.1995707,22.9992757 68.9580098,22.4476 C67.9570341,20.162573 66.9041561,17.8987351 65.867278,15.6288432 C64.5400585,12.7236541 63.2101073,9.81997838 61.8824976,6.91516757 C61.873522,6.89549189 61.8762537,6.8708973 61.8692293,6.81300541 C61.9484488,6.80770811 62.0261073,6.79824865 62.1033756,6.79824865 C63.356839,6.79711351 64.6106927,6.80316757 65.8641561,6.79219459 C66.081522,6.7903027 66.1771317,6.85992432 66.2536195,7.0528973 C67.1925463,9.41927568 68.1396683,11.7830054 69.0871805,14.1467351 C69.3892293,14.9008432 69.6994732,15.6519243 70.0405463,16.4904108 C71.457522,13.2234919 72.8456195,10.0224108 74.2403512,6.80543784 Z M100.678673,22.7830324 L96.7715512,22.7830324 L96.7715512,9.92649189 L94.6665756,9.92649189 L94.6665756,6.81508649 L100.678673,6.81508649 L100.678673,22.7830324 Z M98.7462634,0.637264865 C99.8658732,0.538508108 101.0608,1.58850811 101.014751,2.90753514 C100.978068,3.95715676 100.00441,5.04650811 98.7411902,5.02834595 C97.4885073,5.01056216 96.4766049,4.04380541 96.4652878,2.79667027 C96.4547512,1.64791351 97.539239,0.540021622 98.7462634,0.637264865 Z" id="Combined-Shape" fill="#838587"></path>
    </g>
</svg>