<svg width="158" height="23" viewBox="0 0 158 23" fill="none" xmlns="http://www.w3.org/2000/svg">
<path d="M14.4867 6.47426C14.3418 6.12014 14.1868 5.72372 14.0215 5.28564C13.8766 4.91038 13.727 4.45684 13.5718 3.92502C13.4165 3.3932 13.2663 2.80426 13.1216 2.15756H10.1434V19.857C10.5363 19.9619 10.8881 20.0663 11.1983 20.1708C11.5083 20.2755 11.7772 20.3794 12.0047 20.4836C12.253 20.588 12.4905 20.7029 12.7181 20.8283V21.9875H3.28838V20.8283C3.49467 20.7032 3.73288 20.588 4.00178 20.4836C4.22903 20.3794 4.50293 20.2755 4.8238 20.1708C5.14403 20.0663 5.50088 19.9619 5.89404 19.857V2.15788H2.91588C2.77095 2.80457 2.62131 3.39352 2.46605 3.92533C2.31079 4.45715 2.16053 4.91038 2.01591 5.28596C1.85032 5.72404 1.68473 6.12045 1.51976 6.47458H0V0.375269L1.52008 0L2.91588 0.375269H13.1219L14.4867 0L16.0378 0.375269V6.47426H14.4867Z" fill="#79B261"/>
<path d="M32.2654 21.9045C31.8794 22.0339 31.4699 22.1361 31.0383 22.2106C30.6064 22.2841 30.1878 22.3217 29.7837 22.3217C29.3426 22.3217 28.9658 22.2706 28.6534 22.1689C28.3406 22.067 28.0696 21.9048 27.8397 21.6826C27.6097 21.4601 27.4125 21.1682 27.2466 20.8067C27.0813 20.4454 26.9432 19.9963 26.833 19.4588L26.1992 16.1504C25.9416 15.0199 25.6429 14.223 25.303 13.7594C24.9627 13.2963 24.4346 13.0643 23.7178 13.0643H22.7802V20.1259C23.313 20.3302 23.7266 20.5151 24.0211 20.6821C24.2045 20.7752 24.361 20.8676 24.4897 20.9604V21.989H17.1548V20.9604C17.2831 20.8676 17.4487 20.7752 17.6512 20.6821C17.8165 20.5896 18.0141 20.4972 18.2441 20.404C18.4739 20.3116 18.7268 20.2191 19.0026 20.1259V4.63958C18.7268 4.5471 18.4742 4.45431 18.2441 4.36152C18.0144 4.26904 17.826 4.17625 17.6788 4.08346C17.4766 3.99098 17.311 3.88872 17.1827 3.77763V2.77649H24.6275C26.5207 2.77649 27.9546 3.14765 28.9291 3.88841C29.9029 4.63011 30.3903 5.78874 30.3903 7.36399C30.3903 9.92178 29.1585 11.5065 26.6953 12.1178C27.6328 12.2479 28.3587 12.6045 28.8737 13.1884C29.3883 13.7723 29.7652 14.6667 30.0043 15.8715L30.6661 19.152C30.7212 19.4117 30.7804 19.6482 30.8452 19.8611C30.9093 20.0746 30.9873 20.2459 31.0796 20.3754L32.2651 20.8759L32.2654 21.9045ZM26.5025 7.75315C26.5025 6.58567 26.3003 5.72845 25.8959 5.1818C25.4911 4.63547 24.8202 4.36152 23.8827 4.36152H22.78V11.5346H23.7175C24.7283 11.5346 25.4451 11.1827 25.868 10.4779C26.2909 9.7737 26.5025 8.86538 26.5025 7.75315Z" fill="#79B261"/>
<path d="M48.2852 21.9881H41.3365V20.9872C41.4648 20.8758 41.6213 20.7742 41.8054 20.6811C41.9522 20.5886 42.1266 20.4961 42.3294 20.403C42.5317 20.3106 42.7611 20.2181 43.0187 20.125L42.2465 17.0392H36.9246C36.8511 17.5398 36.7819 18.0586 36.7177 18.5961C36.6533 19.1339 36.5937 19.6433 36.5386 20.1253C37.0163 20.3295 37.4117 20.5144 37.7244 20.6814C37.9079 20.7745 38.0644 20.8669 38.193 20.9597V21.9883H32.4302V20.9597C32.5219 20.8669 32.6324 20.7745 32.7611 20.6814C32.8715 20.5889 32.9999 20.4965 33.147 20.4033C33.2941 20.3109 33.4685 20.2184 33.671 20.1253C34.4063 17.16 35.1692 14.2315 35.9599 11.3401C36.75 8.44869 37.6324 5.59457 38.6068 2.77673H42.2743L47.0446 20.1253C47.2284 20.2184 47.3983 20.3109 47.5548 20.4033C47.7107 20.4965 47.8444 20.5889 47.9546 20.6814C48.0829 20.7745 48.1935 20.8669 48.2854 20.9597L48.2852 21.9881ZM41.8054 15.4541L39.2686 5.66779C39.0664 6.42812 38.8642 7.23452 38.6619 8.08669C38.4595 8.93948 38.2662 9.79194 38.0825 10.6445C37.8988 11.4969 37.7285 12.3358 37.5726 13.1605C37.4161 13.9852 37.283 14.75 37.1728 15.4541H41.8054Z" fill="#79B261"/>
<path d="M64.9399 3.77763C64.8115 3.88872 64.6641 3.99098 64.4992 4.08346C64.3517 4.17625 64.1817 4.26904 63.9886 4.36152C63.7961 4.45431 63.5704 4.5471 63.313 4.63958L63.0648 22.0714H59.7561L53.5525 8.80952L52.9179 6.83565L53.4696 20.1247C53.7635 20.2178 54.0352 20.3103 54.2834 20.4028C54.5316 20.4959 54.7382 20.5883 54.9038 20.6809C55.1057 20.7739 55.2797 20.8665 55.4272 20.9592V21.9878H49.1128V20.9592C49.2411 20.8665 49.4064 20.7739 49.6092 20.6809C49.7561 20.5883 49.9442 20.4959 50.1746 20.4028C50.404 20.3103 50.657 20.2178 50.9328 20.1247L51.1534 4.63926C50.8592 4.54679 50.5972 4.45399 50.3674 4.3612C50.1376 4.26873 49.9401 4.17593 49.7745 4.08314C49.572 3.99067 49.3976 3.88841 49.2505 3.77731V2.77649H55.1514L60.6392 14.4256L61.3832 16.6498L60.915 4.63926C60.6392 4.54679 60.3863 4.45399 60.1562 4.3612C59.9264 4.26873 59.7379 4.17593 59.5911 4.08314C59.407 3.99067 59.2505 3.88841 59.1222 3.77731V2.77649H64.9402L64.9399 3.77763Z" fill="#79B261"/>
<path d="M77.3488 17.1781C77.3488 18.0494 77.1923 18.8044 76.8799 19.4442C76.5669 20.0833 76.1262 20.6211 75.5561 21.0563C74.9864 21.4922 74.2968 21.8167 73.4879 22.0294C72.679 22.2424 71.7694 22.3495 70.758 22.3495C70.023 22.3495 69.2552 22.3031 68.4559 22.2105C67.6561 22.1175 66.8883 21.9972 66.1536 21.8488V16.3994H67.4492C67.5776 16.715 67.7065 17.0667 67.8355 17.4561C67.9457 17.7897 68.0606 18.1928 68.1805 18.6656C68.2998 19.138 68.4147 19.6619 68.5248 20.2364C68.8373 20.403 69.2235 20.533 69.6834 20.6256C70.1426 20.7186 70.6108 20.7644 71.0895 20.7644C71.9716 20.7644 72.629 20.5375 73.0606 20.0834C73.4929 19.6294 73.7086 19.0408 73.7086 18.3178C73.7086 17.6505 73.5201 17.0439 73.1436 16.4966C72.7664 15.9503 72.2931 15.4172 71.7234 14.898C71.1537 14.3795 70.5329 13.8603 69.8624 13.3411C69.191 12.8222 68.5706 12.2664 68.0008 11.673C67.4311 11.08 66.9578 10.4314 66.5812 9.72693C66.204 9.02281 66.0156 8.21641 66.0156 7.30806C66.0156 5.69589 66.5712 4.47697 67.6841 3.65226C68.7962 2.82787 70.3075 2.41504 72.2198 2.41504C72.8631 2.41504 73.5336 2.4567 74.2326 2.54002C74.9313 2.62335 75.6022 2.7395 76.2461 2.88752V7.64166H74.9773C74.8483 7.36361 74.72 7.05746 74.5917 6.72417C74.4809 6.42812 74.3613 6.07557 74.2329 5.66748C74.1039 5.26002 73.9938 4.79637 73.902 4.2775C73.3871 4.03668 72.7345 3.91612 71.9444 3.91612C71.1348 3.91612 70.5423 4.12947 70.1658 4.55524C69.7885 4.98196 69.6001 5.52829 69.6001 6.19551C69.6001 6.84473 69.7932 7.44219 70.1792 7.98884C70.5654 8.53581 71.0431 9.06889 71.6135 9.58746C72.1826 10.1067 72.8034 10.6255 73.4744 11.1444C74.1453 11.6636 74.7657 12.2193 75.3355 12.8124C75.9051 13.4061 76.3835 14.0591 76.7691 14.7727C77.1554 15.487 77.3488 16.2886 77.3488 17.1781Z" fill="#79B261"/>
<path d="M91.8523 0.375366L92.1006 5.75507H90.5803C90.3943 5.46343 90.2084 5.12983 90.0221 4.75424C89.8565 4.44146 89.686 4.06588 89.5103 3.62844C89.3344 3.19036 89.1638 2.70084 88.9986 2.15829H85.1204V10.1343H87.5401C87.7883 9.4257 88.0463 8.83139 88.3155 8.35165C88.4604 8.10136 88.6053 7.88264 88.7502 7.69485H90.0844V14.4506H88.7502C88.6264 14.2423 88.491 14.0025 88.3468 13.7313C88.2228 13.5019 88.0882 13.2308 87.9439 12.9183C87.799 12.6056 87.675 12.2511 87.5717 11.8546H85.1207V19.8619C85.7615 20.0706 86.3098 20.2792 86.7653 20.4872C86.9923 20.5916 87.2099 20.7059 87.4165 20.8312V21.9885H78.7925V20.8312C78.9368 20.7273 79.1227 20.6232 79.3506 20.5187C79.5365 20.4146 79.7591 20.3104 80.0177 20.206C80.2756 20.1017 80.5604 19.9976 80.8706 19.8931V2.47106C80.5608 2.36691 80.2759 2.26308 80.0177 2.15829C79.7591 2.05445 79.5469 1.9503 79.3819 1.84582C79.1537 1.74168 78.9681 1.62679 78.8231 1.50149V0.375366H91.8523Z" fill="#197AA2"/>
<path d="M101.11 2.44299C102.452 2.44299 103.583 2.61468 104.502 2.95745C105.421 3.30053 106.17 3.85191 106.749 4.6116C107.328 5.3716 107.747 6.35854 108.004 7.5724C108.262 8.78659 108.39 10.2555 108.39 11.979C108.39 13.5915 108.262 15.037 108.004 16.3162C107.747 17.5951 107.31 18.684 106.695 19.5832C106.078 20.4824 105.265 21.1679 104.254 21.6404C103.243 22.1132 101.984 22.3496 100.477 22.3496C99.1346 22.3496 97.9991 22.1779 97.0711 21.8352C96.1421 21.4924 95.3936 20.941 94.8235 20.181C94.2535 19.4213 93.8393 18.4343 93.5828 17.2199C93.3255 16.006 93.1968 14.528 93.1968 12.7854C93.1968 11.173 93.3255 9.72741 93.5828 8.44856C93.8393 7.16936 94.2761 6.08521 94.8924 5.19549C95.5087 4.30576 96.3216 3.62434 97.333 3.15187C98.3435 2.67939 99.6023 2.44299 101.11 2.44299ZM100.807 4.02739C99.5017 4.02739 98.5546 4.69366 97.9674 6.0262C97.3783 7.35873 97.0847 9.46804 97.0847 12.3543C97.0847 13.9087 97.1626 15.2179 97.3194 16.2815C97.4753 17.3458 97.7045 18.211 98.0081 18.8769C98.3117 19.5432 98.6978 20.0241 99.1663 20.3205C99.6349 20.6165 100.173 20.7643 100.779 20.7643C102.085 20.7643 103.027 20.103 103.606 18.78C104.184 17.4569 104.474 15.3521 104.474 12.4654C104.474 10.911 104.395 9.59737 104.24 8.52399C104.084 7.45121 103.854 6.58137 103.551 5.91478C103.247 5.24915 102.866 4.76783 102.406 4.47178C101.947 4.17573 101.414 4.02739 100.807 4.02739Z" fill="#197AA2"/>
<path d="M122.148 21.9881H110.043V20.9595C110.171 20.8667 110.337 20.7743 110.54 20.6811C110.705 20.5887 110.903 20.4962 111.133 20.4031C111.363 20.3106 111.615 20.2181 111.891 20.125V4.63958C111.615 4.5471 111.368 4.45431 111.147 4.36152C110.926 4.26904 110.733 4.17625 110.567 4.08346C110.365 3.99098 110.199 3.88872 110.072 3.77763V2.77649H117.626V3.77921C117.461 3.89061 117.277 3.99256 117.075 4.08567C116.891 4.17846 116.685 4.27125 116.454 4.36405C116.225 4.45715 115.963 4.54963 115.669 4.64273V20.4034H119.336C119.483 19.6806 119.64 19.0273 119.805 18.4434C119.971 17.8596 120.127 17.3549 120.273 16.9281C120.439 16.4465 120.605 16.011 120.77 15.6215H122.148V21.9881Z" fill="#197AA2"/>
<path d="M140.514 21.9881H133.344V20.9595C133.473 20.8667 133.621 20.7743 133.786 20.6811C133.932 20.5887 134.097 20.5006 134.282 20.4173C134.465 20.3337 134.676 20.2459 134.916 20.1531V12.7298H128.961V20.1531C129.199 20.2459 129.41 20.3337 129.594 20.4173C129.777 20.5006 129.943 20.5887 130.091 20.6811C130.256 20.7743 130.394 20.8667 130.504 20.9595V21.9881H123.334V20.9595C123.463 20.8667 123.629 20.7743 123.831 20.6811C123.996 20.5887 124.194 20.4962 124.424 20.4031C124.654 20.3106 124.907 20.2181 125.182 20.125V4.63958C124.907 4.5471 124.654 4.45431 124.424 4.36152C124.194 4.26904 124.006 4.17625 123.859 4.08346C123.656 3.99098 123.49 3.88872 123.363 3.77763V2.77649H130.504V3.77763C130.393 3.87041 130.256 3.9629 130.091 4.05569C129.943 4.14847 129.777 4.23622 129.594 4.31986C129.41 4.40318 129.198 4.49124 128.961 4.58371V11.0895H134.916V4.58371C134.676 4.49124 134.465 4.40318 134.282 4.31986C134.097 4.23622 133.932 4.14847 133.786 4.05569C133.621 3.9629 133.482 3.87041 133.372 3.77763V2.77649H140.486V3.77763C140.339 3.88872 140.174 3.99098 139.99 4.08346C139.842 4.17625 139.654 4.26904 139.424 4.36152C139.194 4.45431 138.951 4.5471 138.694 4.63958V20.125C138.951 20.2181 139.194 20.3106 139.424 20.4031C139.654 20.4962 139.852 20.5887 140.017 20.6811C140.22 20.7743 140.385 20.8667 140.514 20.9595V21.9881Z" fill="#197AA2"/>
<path d="M157.086 21.9881H150.137V20.9872C150.265 20.8758 150.422 20.7742 150.606 20.6811C150.753 20.5886 150.927 20.4961 151.13 20.403C151.332 20.3106 151.562 20.2181 151.819 20.125L151.047 17.0392H145.725C145.652 17.5398 145.582 18.0586 145.518 18.5961C145.454 19.1339 145.395 19.6433 145.339 20.1253C145.817 20.3295 146.212 20.5144 146.525 20.6814C146.708 20.7745 146.865 20.8669 146.993 20.9597V21.9883H141.23V20.9597C141.323 20.8669 141.433 20.7745 141.561 20.6814C141.672 20.5889 141.801 20.4965 141.947 20.4033C142.095 20.3109 142.269 20.2184 142.471 20.1253C143.207 17.16 143.97 14.2315 144.76 11.3401C145.55 8.44869 146.432 5.59457 147.407 2.77673H151.074L155.845 20.1253C156.029 20.2184 156.198 20.3109 156.355 20.4033C156.511 20.4965 156.644 20.5889 156.755 20.6814C156.883 20.7745 156.993 20.8669 157.086 20.9597V21.9881ZM150.606 15.4541L148.069 5.66779C147.867 6.42812 147.664 7.23452 147.462 8.08669C147.26 8.93948 147.067 9.79194 146.883 10.6445C146.699 11.4969 146.528 12.3358 146.373 13.1605C146.216 13.9852 146.084 14.75 145.973 15.4541H150.606Z" fill="#197AA2"/>
</svg>
