<?xml version="1.0" encoding="UTF-8"?>
<svg width="114px" height="53px" viewBox="0 0 114 53" version="1.1" xmlns="http://www.w3.org/2000/svg" xmlns:xlink="http://www.w3.org/1999/xlink">
    <!-- Generator: Sketch 52.4 (67378) - http://www.bohemiancoding.com/sketch -->
    <title>Artboard Copy 5</title>
    <desc>Created with Sketch.</desc>
    <g id="Artboard-Copy-5" stroke="none" stroke-width="1" fill="none" fill-rule="evenodd">
        <path d="M67.8530612,52.3586006 C64.1988338,52.3586006 60.7107872,50.2664723 57.4798834,46.1346939 L43.3177843,28.0279883 C41.8361516,26.1335277 40.2915452,25.1784257 38.5947522,25.1084548 C34.3230321,24.9737609 29.4023324,30.277551 26.4565598,33.4717201 C20.4723032,39.954519 16.4437318,40.4548105 11.4075802,40.4548105 L2.72594752,40.4548105 C1.71661808,40.4548105 0.897959184,39.6361516 0.897959184,38.6268222 C0.897959184,37.6174927 1.71661808,36.7988338 2.72594752,36.7988338 L11.4058309,36.7988338 C15.7475219,36.7988338 18.6670554,36.5172012 23.76793,30.9912536 C28.335277,26.0443149 33.2682216,21.2215743 38.741691,21.4577259 C41.535277,21.5714286 44.0437318,23.0250729 46.1953353,25.7749271 L60.3574344,43.8816327 C62.1102041,46.1241983 64.8565598,48.7690962 68.0034985,48.7008746 C70.8215743,48.6291545 73.7673469,46.4303207 76.7620991,42.1690962 L97.3195335,12.9072886 C98.6629738,10.9183673 105.747522,0.860058309 111.455394,0.860058309 C112.464723,0.860058309 113.283382,1.6787172 113.283382,2.68804665 C113.283382,3.69737609 112.464723,4.51603499 111.455394,4.51603499 C108.658309,4.51603499 103.265306,10.6367347 100.330029,14.9819242 L79.755102,44.2699708 C76.0588921,49.5317784 72.1370262,52.251895 68.0997085,52.355102 C68.0174927,52.3568513 67.935277,52.3586006 67.8530612,52.3586006 Z" id="Path" fill="#EEA834"></path>
        <path d="M53.6979592,46.8361516 C50.3183673,46.8361516 46.9387755,44.6985423 43.9020408,40.6349854 L33.5463557,26.7772595 C32.3673469,25.1994169 31.0938776,24.3825073 29.6542274,24.2793003 C26.7434402,24.071137 23.7504373,26.7335277 22.5959184,27.8880466 L15.5900875,34.8938776 C13.025656,37.458309 8.1154519,40.4548105 2.72419825,40.4548105 C1.7148688,40.4548105 0.896209913,39.6361516 0.896209913,38.6268222 C0.896209913,37.6174927 1.7148688,36.7988338 2.72419825,36.7988338 C6.72478134,36.7988338 10.7708455,34.5440233 13.006414,32.3084548 L20.0122449,25.3026239 C21.8857143,23.4274052 25.6676385,20.3294461 29.9166181,20.63207 C32.4408163,20.8139942 34.6483965,22.1434402 36.4728863,24.587172 L46.8285714,38.444898 C48.4851312,40.6629738 51.0897959,43.2798834 53.8658892,43.1749271 C56.7609329,43.0629738 59.2763848,40.0244898 60.8769679,37.4950437 L77.9323615,10.5405248 C80.6612245,6.22682216 84.0600583,0.858309038 91.354519,0.858309038 L111.609329,0.858309038 C112.618659,0.858309038 113.437318,1.67696793 113.437318,2.68629738 C113.437318,3.69562682 112.618659,4.51428571 111.609329,4.51428571 L91.3562682,4.51428571 C86.4408163,4.51428571 84.0723032,7.67521866 81.0215743,12.4962099 L63.9661808,39.4507289 C60.9556851,44.2052478 57.6058309,46.6892128 54.0075802,46.8274052 C53.9061224,46.8326531 53.8011662,46.8361516 53.6979592,46.8361516 Z" id="Path" fill="#2F8243"></path>
    </g>
</svg>