<?xml version="1.0" encoding="UTF-8"?>
<svg width="74px" height="24px" viewBox="0 0 74 24" version="1.1" xmlns="http://www.w3.org/2000/svg" xmlns:xlink="http://www.w3.org/1999/xlink">
    <!-- Generator: Sketch 52.4 (67378) - http://www.bohemiancoding.com/sketch -->
    <title>Artboard</title>
    <desc>Created with Sketch.</desc>
    <g id="Artboard" stroke="none" stroke-width="1" fill="none" fill-rule="evenodd">
        <path d="M66.0214444,15.38 C65.4366667,12.5091667 64.8645556,9.68816667 64.2903333,6.86716667 C64.2628889,6.865 64.2354444,6.86283333 64.208,6.8585 C63.2094444,9.686 62.2108889,12.5135 61.1975556,15.3778333 C62.8315556,15.38 64.3895556,15.38 66.0214444,15.38 Z M52.1957778,23.5613333 C52.542,22.7055 52.884,21.8626667 53.2281111,21.0198333 C55.772,14.782 58.318,8.54416667 60.8618889,2.30416667 C61.358,1.0865 62.2404444,0.466833333 63.5366667,0.471166667 C65.0207778,0.477666667 66.5027778,0.477666667 67.9868889,0.466833333 C68.2697778,0.464666667 68.3964444,0.525333333 68.4618889,0.846 C69.9628889,8.27333333 71.4786667,15.6963333 72.9923333,23.1193333 C73.0218889,23.2645 73.0387778,23.414 73.0641111,23.5808333 C71.2738889,23.5808333 69.5005556,23.5808333 67.6955556,23.5808333 C67.4928889,22.582 67.2754444,21.5983333 67.1002222,20.6038333 C67.0347778,20.2311667 66.8912222,20.1293333 66.5281111,20.1315 C64.3241111,20.151 62.118,20.1466667 59.914,20.1336667 C59.61,20.1315 59.4685556,20.229 59.3714444,20.5258333 C59.0653333,21.4596667 58.736,22.3848333 58.3918889,23.3056667 C58.3454444,23.4313333 58.1638889,23.5851667 58.0435556,23.5851667 C56.1456667,23.6025 54.2477778,23.596 52.3498889,23.5938333 C52.3118889,23.596 52.2738889,23.5786667 52.1957778,23.5613333 Z M53.5426667,1.08866667 C53.2048889,2.70933333 52.8692222,4.3105 52.5335556,5.92466667 C51.8938889,5.70583333 51.2858889,5.4675 50.661,5.28983333 C49.2824444,4.89766667 47.8764444,4.72866667 46.462,5.01033333 C45.9532222,5.11216667 45.4296667,5.33316667 45.0053333,5.6365 C44.0658889,6.306 44.0363333,7.411 44.9504444,8.1195 C45.6492222,8.66116667 46.4387778,9.07716667 47.1903333,9.54516667 C48.1255556,10.1258333 49.1135556,10.6306667 49.9917778,11.2915 C52.2253333,12.9728333 52.9684444,15.3085 52.2105556,18.045 C51.497,20.6211667 49.7342222,22.166 47.3845556,23.0955 C45.2312222,23.947 42.9871111,24.0683333 40.7176667,23.8798333 C39.2905556,23.7606667 37.8866667,23.505 36.5292222,23.0196667 C36.3054444,22.9395 36.0858889,22.8463333 35.8346667,22.7466667 C36.1872222,21.048 36.5355556,19.3818333 36.8733333,17.7503333 C37.8381111,18.0991667 38.7627778,18.4978333 39.7212222,18.7665 C41.1504444,19.1651667 42.6218889,19.3103333 44.0806667,18.9745 C44.6485556,18.8445 45.2291111,18.578 45.6977778,18.227 C46.5738889,17.5683333 46.6393333,16.355 45.8202222,15.6226667 C45.2037778,15.0723333 44.4691111,14.6563333 43.7682222,14.2121667 C42.7147778,13.5448333 41.5811111,12.9923333 40.5931111,12.2361667 C37.2955556,9.712 37.8845556,5.89866667 39.5966667,3.615 C40.8675556,1.92066667 42.6113333,0.9825 44.5894444,0.479833333 C47.507,-0.261166667 50.3865556,-0.0488333333 53.2196667,0.954333333 C53.3231111,0.993333333 53.4181111,1.03666667 53.5426667,1.08866667 Z M36.6305556,0.508 C36.4764444,1.26633333 36.3286667,2.01166667 36.1724444,2.75483333 C34.7643333,9.51266667 33.3498889,16.2705 31.9565556,23.0305 C31.8657778,23.4703333 31.7201111,23.6198333 31.2683333,23.609 C29.6786667,23.5765 28.089,23.596 26.4993333,23.596 C26.3536667,23.596 26.2101111,23.596 26.0053333,23.596 C26.1552222,22.8723333 26.2945556,22.1941667 26.436,21.5181667 C27.8757778,14.613 29.3176667,7.70783333 30.7532222,0.8005 C30.7975556,0.586 30.844,0.4625 31.0973333,0.4625 C32.8748889,0.473333333 34.6503333,0.469 36.4278889,0.471166667 C36.4785556,0.4755 36.5292222,0.490666667 36.6305556,0.508 Z M1.05622222,0.471166667 L1.489,0.471166667 C4.57544444,0.471166667 7.66188889,0.469 10.7483333,0.471166667 C12.3781111,0.471166667 13.3766667,1.32483333 13.6785556,2.96283333 C14.4765556,7.294 15.2745556,11.6251667 16.0725556,15.9563333 C16.0767778,15.9823333 16.0894444,16.0083333 16.1295556,16.121 C16.2161111,15.926 16.2815556,15.7938333 16.3343333,15.6551667 C18.2343333,10.7303333 20.1364444,5.8055 22.0216667,0.876333333 C22.1462222,0.549166667 22.3045556,0.458166667 22.6296667,0.460333333 C24.3671111,0.4755 26.1045556,0.466833333 27.8398889,0.466833333 L28.2937778,0.466833333 C28.2072222,0.698666667 28.1417778,0.887166667 28.0657778,1.07133333 C25.0511111,8.4575 22.0343333,15.8415 19.0238889,23.2298333 C18.9183333,23.4898333 18.8001111,23.6046667 18.5045556,23.6003333 C16.6868889,23.5851667 14.8692222,23.5851667 13.0536667,23.6003333 C12.7686667,23.6025 12.6715556,23.5093333 12.6018889,23.232 C11.0734444,17.135 9.52811111,11.0423333 8.00388889,4.94316667 C7.77377778,4.02666667 7.28611111,3.39183333 6.45222222,2.9845 C4.78022222,2.1655 3.01533333,1.6455 1.223,1.2035 C1.13433333,1.18183333 1.04777778,1.15366667 0.931666667,1.12116667 C0.952777778,1.00416667 0.969666667,0.900166667 0.988666667,0.796166667 C1.00977778,0.707333333 1.02877778,0.614166667 1.05622222,0.471166667 Z" id="Combined-Shape" fill="#152884" fill-rule="nonzero"></path>
    </g>
</svg>