<svg width="50" height="50" viewBox="0 0 50 50" fill="none" xmlns="http://www.w3.org/2000/svg">
<rect width="50" height="50" rx="10" fill="#2962FF"/>
<path d="M15.3656 34.6653C14.1367 33.9214 13.0693 33.2754 12 32.628C12 29.0963 12 25.6063 12 22.0435C14.8719 20.3004 17.7669 18.5433 20.6829 16.7737C21.7923 17.4476 22.8817 18.1095 24.0523 18.8206C21.0952 20.6177 18.2467 22.3485 15.3656 24.0994C15.3656 27.5766 15.3656 31.0327 15.3656 34.6653Z" fill="white"/>
<path d="M19.7039 33.6477C22.6537 35.439 25.5023 37.1688 28.4352 38.9497C27.2635 39.6629 26.1727 40.3268 25.0667 41C22.1705 39.2418 19.2964 37.4969 16.4005 35.7388C16.4005 32.2382 16.4005 28.7485 16.4005 25.1374C17.4254 24.5162 18.5089 23.8594 19.7039 23.1352C19.7039 26.7176 19.7039 30.1627 19.7039 33.6477Z" fill="white"/>
<path d="M33.91 24.8475C32.8446 25.4931 31.7826 26.1369 30.6073 26.8492C30.6073 23.2804 30.6073 19.8408 30.6073 16.3697C27.6965 14.5999 24.8311 12.8577 21.8512 11.0458C23.0351 10.327 24.1181 9.66933 25.2204 9C28.1339 10.7685 31.0257 12.524 33.91 14.2749C33.91 17.8013 33.91 21.2583 33.91 24.8475Z" fill="white"/>
<path d="M29.3253 33.2285C28.1981 32.5396 27.1358 31.8903 25.9673 31.1761C28.9206 29.3812 31.7591 27.656 34.6299 25.9112C34.6299 22.4365 34.6299 18.98 34.6299 15.33C35.8285 16.0518 36.9096 16.7027 38 17.3594C38 20.9086 38 24.4232 38 27.9659C35.1242 29.7105 32.251 31.4535 29.3253 33.2285Z" fill="white"/>
<path d="M12.0072 21.1429C12.0072 19.6961 12.0072 18.4018 12.0072 17.0544C14.8673 15.3183 17.7405 13.5743 20.6868 11.786C23.5639 13.53 26.4591 15.285 29.3673 17.0477C29.3673 18.3669 29.3673 19.666 29.3673 21.1361C26.4399 19.3643 23.5812 17.6342 20.6901 15.8844C17.8334 17.6145 14.9851 19.3395 12.0072 21.1429Z" fill="white"/>
<path d="M29.183 38.1498C26.2483 36.3679 23.3754 34.6237 20.5045 32.8806C20.5045 31.5404 20.5045 30.2539 20.5045 28.7963C23.4466 30.5767 26.287 32.2956 29.1839 34.0487C32.0122 32.3364 34.8575 30.6138 37.8014 28.8314C37.8014 30.2394 37.8014 31.5434 37.8014 32.9197C34.9721 34.6367 32.1 36.3796 29.183 38.1498Z" fill="white"/>
</svg>
