<svg width="50" height="50" viewBox="0 0 50 50" fill="none" xmlns="http://www.w3.org/2000/svg">
<rect width="50" height="50" rx="10" fill="url(#paint0_linear)"/>
<path fill-rule="evenodd" clip-rule="evenodd" d="M36.4833 13.5051C33.5692 10.6015 29.6936 9.0017 25.5648 9C17.057 9 10.1329 15.8908 10.1295 24.3602C10.1283 27.0676 10.839 29.7104 12.1898 32.04L10 40L18.1825 37.8638C20.4371 39.0878 22.9754 39.7328 25.5586 39.7336H25.565C34.0719 39.7336 40.9968 32.8422 41 24.3725C41.0017 20.2678 39.3977 16.4085 36.4833 13.5051ZM25.5648 37.1393H25.5595C23.2575 37.1384 20.9999 36.5227 19.0299 35.3596L18.5616 35.0828L13.706 36.3505L15.002 31.639L14.6969 31.156C13.4126 29.1231 12.7345 26.7735 12.7356 24.3611C12.7383 17.3216 18.4936 11.5944 25.57 11.5944C28.9967 11.5956 32.2178 12.9253 34.64 15.3387C37.0621 17.7521 38.3952 20.9599 38.394 24.3715C38.391 31.4116 32.6361 37.1393 25.5648 37.1393V37.1393ZM32.6019 27.5769C32.2163 27.3847 30.3201 26.4564 29.9665 26.3281C29.6132 26.2 29.3558 26.1363 29.0989 26.5204C28.8417 26.9045 28.1027 27.7692 27.8776 28.0252C27.6525 28.2813 27.4278 28.3135 27.0421 28.1213C26.6563 27.9292 25.4137 27.5237 23.9405 26.2161C22.794 25.1984 22.0201 23.9415 21.795 23.5574C21.5702 23.1729 21.7931 22.9852 21.9642 22.774C22.3817 22.2581 22.7997 21.7171 22.9283 21.4611C23.057 21.2049 22.9925 20.9807 22.8959 20.7887C22.7997 20.5966 22.0284 18.7074 21.7071 17.9386C21.3938 17.1905 21.0761 17.2915 20.8392 17.2798C20.6145 17.2686 20.3573 17.2664 20.1001 17.2664C19.843 17.2664 19.4251 17.3623 19.0715 17.7468C18.7181 18.131 17.7219 19.0595 17.7219 20.9487C17.7219 22.838 19.1038 24.6631 19.2966 24.9193C19.4894 25.1755 22.0163 29.0524 25.885 30.7148C26.8052 31.1106 27.5234 31.3465 28.0837 31.5234C29.0077 31.8156 29.8482 31.7743 30.5129 31.6756C31.2539 31.5653 32.7945 30.7469 33.1162 29.8505C33.4375 28.9538 33.4375 28.1854 33.3409 28.0252C33.2447 27.8651 32.9874 27.7692 32.6019 27.5769V27.5769Z" fill="white"/>
<defs>
<linearGradient id="paint0_linear" x1="50" y1="-7" x2="50" y2="50" gradientUnits="userSpaceOnUse">
<stop stop-color="#5EF97A"/>
<stop offset="1" stop-color="#0ABA27"/>
</linearGradient>
</defs>
</svg>
