<svg width="50" height="50" viewBox="0 0 50 50" fill="none" xmlns="http://www.w3.org/2000/svg">
<rect x="0.5" y="0.5" width="49" height="49" rx="9.5" fill="white" stroke="#EEEEEE"/>
<path d="M12.0168 15.0995L28.2894 21.2381C28.9551 21.4892 29.4189 21.994 29.6131 22.6783C29.8072 23.3627 29.6774 24.0358 29.2426 24.599L22.0586 33.9056C21.5885 34.5143 20.8956 34.8146 20.1302 34.7409C19.3645 34.6669 18.7416 34.2403 18.3965 33.553L10.1629 17.1584C9.8825 16.6 9.9685 15.9602 10.3868 15.4958C10.8049 15.0314 11.432 14.8788 12.0168 15.0995Z" fill="#FFAC68"/>
<path d="M37.9832 15.0995L21.7106 21.238C21.0449 21.4891 20.5811 21.9938 20.387 22.6781C20.1929 23.3625 20.3228 24.0356 20.7576 24.5988L27.9416 33.9055C28.4115 34.5142 29.1045 34.8144 29.87 34.7408C30.6355 34.6668 31.2586 34.2402 31.6037 33.5529L39.8371 17.1581C40.1175 16.5997 40.0315 15.9599 39.6132 15.4955C39.1949 15.0314 38.5678 14.8788 37.9832 15.0995Z" fill="#FF556B"/>
<path d="M28.2893 21.2369L24.9998 19.9961L21.7106 21.2369C21.0449 21.488 20.5811 21.9927 20.387 22.677C20.1929 23.3614 20.3228 24.0345 20.7576 24.5977L25 30.0937L29.2426 24.5977C29.6772 24.0345 29.8071 23.3614 29.6131 22.677C29.4189 21.9927 28.955 21.4881 28.2893 21.2369Z" fill="#FF8069"/>
</svg>
