<?xml version="1.0" encoding="UTF-8"?>
<svg width="140px" height="28px" viewBox="0 0 140 28" version="1.1" xmlns="http://www.w3.org/2000/svg" xmlns:xlink="http://www.w3.org/1999/xlink">
    <!-- Generator: Sketch 52.4 (67378) - http://www.bohemiancoding.com/sketch -->
    <title>Group</title>
    <desc>Created with Sketch.</desc>
    <g id="Page-1" stroke="none" stroke-width="1" fill="none" fill-rule="evenodd">
        <g id="Group">
            <polyline id="path44123" fill="#E00001" points="30.6459015 0.0576631116 34.9998826 0.0576631116 34.9998826 4.41232602 30.6459015 4.41232602 30.6459015 0.0576631116"></polyline>
            <path d="M30.6459015,7.73553459 L34.9998826,7.73553459 L34.9998826,27.4490987 L30.6459015,27.4490987 L30.6459015,7.73553459 Z M0.0683531454,7.63243651 L4.70679937,7.63243651 L8.57822395,22.4285804 L8.65499193,22.4285804 L12.3721908,7.63243651 L16.7810102,7.63243651 L20.3460447,22.4285804 L20.4228127,22.4285804 L24.4470945,7.63243651 L28.8943011,7.63243651 L22.6834291,27.4488257 L18.1985268,27.4488257 L14.5197087,12.7301411 L14.4422557,12.7301411 L10.8011398,27.4488257 L6.20176735,27.4488257 L0.0683531454,7.63243651 Z M37.4086938,7.63243651 L41.5097453,7.63243651 L41.5097453,11.4668582 L41.586518,11.4668582 C42.0848406,9.35704079 44.6916122,7.0964117 47.3758321,7.0964117 C48.371109,7.0964117 48.6398064,7.17250415 49.0229723,7.21019524 L49.0229723,11.4270994 C48.4101811,11.3503283 47.7590043,11.2365447 47.1448368,11.2365447 C44.154219,11.2365447 41.7784411,13.6513853 41.7784411,18.020446 L41.7784411,27.4488257 L37.4086938,27.4488257 L37.4086938,7.63243651 Z M62.6759854,15.7975979 C62.5217628,13.0372888 60.6436273,10.5470408 57.6920754,10.5470408 C54.6630657,10.5470408 52.594377,12.8460397 52.4799085,15.7975979 L62.6759854,15.7975979 Z M52.4799085,18.6716954 C52.4799085,21.776103 54.1668012,24.5370972 57.8079171,24.5370972 C60.3379144,24.5370972 61.8712711,23.4259801 62.637603,21.2400814 L66.7770415,21.2400814 C65.8187802,25.5714415 62.1392819,27.9855986 57.8079171,27.9855986 C51.5977301,27.9855986 48.1101613,23.6549188 48.1101613,17.5605783 C48.1101613,11.9261749 51.789658,7.09649062 57.6920754,7.09649062 C63.9406447,7.09649062 67.7729971,12.7302043 67.0457374,18.6716954 L52.4799085,18.6716954 Z M82.608966,14.2633526 C82.2641809,11.8485041 80.5005202,10.5468356 78.0849915,10.5468356 C75.82369,10.5468356 72.641823,11.7333474 72.641823,17.7522978 C72.641823,21.0479436 74.0990905,24.5368888 77.8930636,24.5368888 C80.4230609,24.5368888 82.1867279,22.8486261 82.608966,20.0135993 L86.9773416,20.0135993 C86.1733092,25.1496848 82.9914469,27.9860816 77.8930636,27.9860816 C71.683568,27.9860816 68.2720758,23.5786338 68.2720758,17.7522978 C68.2720758,11.7717488 71.5307108,7.09628543 78.0472909,7.09628543 C82.6466681,7.09628543 86.5557885,9.39528431 86.9773416,14.2633526 L82.608966,14.2633526 Z M101.620631,17.5219166 C100.279889,18.4040949 98.1714386,18.3650228 96.2542357,18.7098031 C94.3767852,19.0162011 92.6898878,19.705765 92.6898878,22.0068252 C92.6898878,23.9617287 95.1815042,24.5368225 96.7141696,24.5368225 C98.6306923,24.5368225 101.620631,23.5408606 101.620631,20.7805515 L101.620631,17.5219166 Z M105.990377,23.0432246 C105.990377,24.1152694 106.221374,24.5368225 107.026093,24.5368225 C107.293419,24.5368225 107.638883,24.5368225 108.098823,24.4600498 L108.098823,27.4876895 C107.446959,27.7179998 106.067832,27.9860106 105.338515,27.9860106 C103.575535,27.9860106 102.310876,27.3739044 101.966782,25.5711668 C100.240817,27.2580642 97.4428073,27.9860106 95.1040465,27.9860106 C91.5397033,27.9860106 88.3201405,26.0701729 88.3201405,22.1973768 C88.3201405,17.2539057 92.268341,16.4498717 95.9478377,16.0262683 C99.0906262,15.4518579 101.889327,15.7973233 101.889327,13.2296286 C101.889327,10.9669461 99.5512515,10.5467725 97.7875861,10.5467725 C95.3343615,10.5467725 93.6090769,11.5427296 93.4178388,13.6895625 L89.0487766,13.6895625 C89.3544848,8.59117608 93.6851646,7.09620652 98.0562835,7.09620652 C101.927708,7.09620652 105.990377,8.66726852 105.990377,12.84645 L105.990377,23.0432246 Z M109.55472,7.63243651 L113.656457,7.63243651 L113.656457,11.4668582 L113.733229,11.4668582 C114.232237,9.35704079 116.839013,7.0964117 119.522547,7.0964117 C120.518504,7.0964117 120.787203,7.17250415 121.169685,7.21019524 L121.169685,11.4270994 C120.556889,11.3503283 119.905029,11.2365447 119.292233,11.2365447 C116.302294,11.2365447 113.925837,13.6513853 113.925837,18.020446 L113.925837,27.4488257 L109.55472,27.4488257 L109.55472,7.63243651 Z M130.108646,24.5370972 C134.017771,24.5370972 135.665604,20.9727556 135.665604,17.5221912 C135.665604,13.1524455 133.557839,10.5470408 130.185417,10.5470408 C126.083685,10.5470408 124.627101,14.1874733 124.627101,17.7525062 C124.627101,21.1633071 126.313304,24.5370972 130.108646,24.5370972 Z M139.883171,27.4488904 L135.743054,27.4488904 L135.743054,24.7660358 L135.665604,24.7660358 C134.516783,27.0287089 132.024483,27.9855986 129.532878,27.9855986 C123.28498,27.9855986 120.256671,23.3471556 120.256671,17.4077211 C120.256671,10.2392775 124.512623,7.09649062 128.843311,7.09649062 C131.334916,7.09649062 134.094542,8.01637112 135.436648,10.2002133 L135.512741,10.2002133 L135.512741,0.0808964825 L139.883171,0.0808964825 L139.883171,27.4488904 Z" id="Combined-Shape" fill="#002946"></path>
        </g>
    </g>
</svg>