<svg width="126" height="25" viewBox="0 0 126 25" fill="none" xmlns="http://www.w3.org/2000/svg">
<path d="M20.0161 7.16266L17.5117 18.428L13.7201 7.16266H10.929L7.13827 18.428L4.63388 7.16266H0.806152L5.31397 24.0826H8.31865L12.3245 12.9223L16.3305 24.0826H19.336L23.8421 7.16266H20.0161Z" fill="#012846"/>
<path d="M26.5984 4.29998H30.1756V0.722809H26.5984V4.29998ZM26.5984 24.0824H30.1756V7.16253H26.5984V24.0824Z" fill="#012846"/>
<path d="M52.9981 24.4053C51.8546 24.4594 50.7124 24.2746 49.6444 23.8628C48.5763 23.4509 47.6057 22.8209 46.7946 22.0131C45.9836 21.2053 45.3498 20.2373 44.9336 19.1708C44.5174 18.1044 44.3281 16.963 44.3776 15.8193C44.3776 9.91759 48.3827 6.94824 52.7476 6.94824C57.7917 6.94824 60.6888 10.5969 60.6888 15.6411V16.7853H48.0615C48.3827 19.5394 49.9951 21.4721 53.5345 21.4721C55.3046 21.4367 57.0333 20.93 58.5425 20.0043L59.7598 22.5449C57.7198 23.7748 55.3802 24.4185 52.9981 24.4053V24.4053ZM48.0951 14.3884H57.2167C57.1091 12.3851 56.0355 9.91762 52.745 9.91762C49.8867 9.91762 48.4163 11.7419 48.0951 14.3884" fill="#012846"/>
<path d="M71.0082 24.4769C65.822 24.4769 62.7458 20.6492 62.7458 15.8564C62.7458 10.6685 66.3609 7.01984 71.4723 7.01984C73.1313 6.97747 74.7722 7.37208 76.2306 8.16405L75.1941 11.241C74.1256 10.4911 72.8507 10.0913 71.5454 10.0968C68.4348 10.0968 66.5012 12.2423 66.5012 15.6454C66.5012 18.6854 68.0405 21.4756 71.8321 21.4756C73.1297 21.4881 74.3878 21.0303 75.374 20.1868L76.3744 23.157C74.7258 24.0426 72.8803 24.4977 71.009 24.4803" fill="#012846"/>
<path d="M94.2165 7.16278V24.0793H90.6394V22.7208C89.1125 23.8312 87.2688 24.4208 85.3808 24.4022C80.7301 24.4022 77.2261 21.004 77.2261 15.7101C77.2261 9.80761 81.6986 6.94506 85.918 6.94506C87.6078 6.92178 89.2615 7.43514 90.6411 8.41126V7.16027L94.2165 7.16278ZM80.9806 15.7127C80.9806 19.0032 82.9142 21.3992 86.0601 21.3992C89.1707 21.3992 90.9244 19.0032 90.9244 15.7127C90.9244 12.2415 88.9227 9.98756 85.9542 9.98756C82.9478 9.98756 80.9806 12.2776 80.9806 15.7127" fill="#012846"/>
<path d="M125.396 0.722839V24.1539H121.819V22.7953C120.292 23.9057 118.448 24.4952 116.56 24.4767C111.909 24.4767 108.405 21.077 108.405 15.7831C108.405 9.88055 112.876 7.01965 117.097 7.01965C118.787 6.9959 120.441 7.5093 121.82 8.48584V0.722839H125.396ZM112.156 15.7831C112.156 19.0753 114.09 21.4704 117.236 21.4704C120.347 21.4704 122.101 19.0753 122.101 15.7831C122.101 12.3135 120.097 10.0596 117.128 10.0596C114.124 10.0596 112.156 12.3488 112.156 15.7831" fill="#012846"/>
<path d="M105.521 6.871H105.506C105.369 6.87689 102.926 7.01644 101.835 8.5524V7.16107H98.2588V24.0792H101.835V14.8534C101.835 12.1716 103.517 10.3137 105.591 10.3137C106.084 10.3268 106.57 10.4359 107.021 10.6348L108.273 7.55869C107.425 7.10855 106.479 6.87329 105.519 6.87352" fill="#012846"/>
<path d="M41.4433 6.85593H41.429C41.292 6.86181 38.849 7.00137 37.7577 8.53732V7.14764H34.1814V24.0675H37.7544V14.8383C37.7544 12.1565 39.4358 10.2986 41.5106 10.2986C42.0033 10.3119 42.4888 10.4209 42.9398 10.6197L44.1924 7.54361C43.3442 7.09351 42.3986 6.85825 41.4383 6.85844" fill="#012846"/>
</svg>
