<?xml version="1.0" encoding="utf-8"?>
<!-- Generator: Adobe Illustrator 19.2.1, SVG Export Plug-In . SVG Version: 6.00 Build 0)  -->
<svg version="1.1" id="layer" xmlns="http://www.w3.org/2000/svg" xmlns:xlink="http://www.w3.org/1999/xlink" x="0px" y="0px"
	 viewBox="0 0 652 652" style="enable-background:new 0 0 652 652;" xml:space="preserve">
<style type="text/css">
	.st0{fill-rule:evenodd;clip-rule:evenodd;fill:#945C87;}
	.st1{fill-rule:evenodd;clip-rule:evenodd;fill:#FFFFFF;}
	.st2{fill-rule:evenodd;clip-rule:evenodd;}
</style>
<g>
	<path class="st0" d="M21.7,272.8c2.8-6.7,9.8-11.5,17.1-11.5c55.1,0,110.2,0,165.4,0c4.8-0.1,9.6,1.7,13.1,4.9
		c4,3.6,6.3,9,6.2,14.4c0,21.1,0,42.2,0,63.4c-0.1,9.5-8.4,18.1-17.9,18.3c-20.1,0.1-40.2,0-60.3,0c2.7,6.7,5.4,13.3,8.1,20
		c-12-6.6-23.8-13.4-35.9-19.9c-26.4-0.2-52.9,0-79.4-0.1c-9.5-0.3-17.8-8.8-17.9-18.3c-0.1-20.7,0-41.4-0.1-62
		C20.1,278.9,20.4,275.7,21.7,272.8"/>
	<path class="st1" d="M102.5,274.3c3-3.2,8.8-2.2,11.1,1.5c1.2,1.9,1.3,4.5,0.3,6.5c-4.2,8.4-6,17.7-7.6,26.8
		c-1.9,11.9-3.5,24-2.9,36.1c0.2,3.1-1.3,6.8-4.6,7.6c-3.1,0.7-6-1.4-8-3.6c-9-9.7-14.1-22.2-17.8-34.7c-3.7,7.3-7.4,14.7-11,22
		c-2.5,5-5.2,10.1-9.2,14.1c-1.7,1.7-4.6,3.2-6.8,1.5c-3.3-2.9-4.1-7.5-5.5-11.4c-5.3-18.3-8.3-37.2-11.4-56
		c-0.7-3.1,0.6-6.9,3.7-8.1c2.5-0.9,5.8-1.1,7.9,0.8c1.5,1.3,1.9,3.4,2.2,5.3c2.2,14.6,4.7,29.1,8.3,43.4c6-11.4,12-22.8,18-34.3
		c0.9-1.7,2-3.4,3.6-4.4c2.2-1.4,5.4-1.3,7.3,0.7c1.5,1.6,2.1,3.9,2.5,6c1.8,9.4,4.2,18.8,7.7,27.7c1.5-13.5,3.4-27.2,8.3-39.9
		C99.7,279.2,100.7,276.5,102.5,274.3 M136.4,281.6c6.5-0.8,13.5,1.4,17.9,6.3c3.6,4.1,5.6,9.4,6.3,14.7c1.1,9.1-0.6,18.7-5,26.8
		c-2.5,4.6-5.7,9.1-10.3,11.8c-6.7,4.1-15.7,3.6-22.2-0.7c-5.2-3.6-8.1-9.6-9.3-15.6c-2.4-13.7,1.7-28.9,12-38.4
		C128.8,283.8,132.5,282.1,136.4,281.6 M137.7,295.6c-3.1,1-5.1,3.9-6.8,6.5c-4.2,6.8-5.4,15.7-2,23c0.9,1.9,2.3,4,4.6,4.4
		c2.4,0.4,4.6-1,6.3-2.5c3.8-3.3,5.7-8.2,6.7-13.1c1-5.5,0.5-11.6-2.7-16.4C142.5,295.7,139.9,294.9,137.7,295.6 M188.3,281.6
		c6.3-0.8,13.2,1.2,17.6,5.9c4,4.3,6.1,10,6.7,15.8c0.9,8.8-0.7,18-4.9,25.8c-2.5,4.7-5.8,9.3-10.6,12.1c-6.4,3.9-15,3.5-21.4-0.3
		c-4.3-2.6-7.2-7-8.9-11.7c-4.5-14.3-0.7-31.1,9.7-41.9C179.9,284.3,184,282.1,188.3,281.6 M189.7,295.6c-3.4,1.2-5.4,4.5-7.2,7.4
		c-3.8,6.7-4.8,15.4-1.3,22.5c0.9,2,2.6,3.9,4.9,4c2.5,0.1,4.7-1.5,6.5-3.2c3.9-3.8,5.6-9.2,6.2-14.5c0.6-4.9-0.2-10.2-3.1-14.4
		C194.5,295.7,191.9,294.9,189.7,295.6"/>
	<path class="st2" d="M257.7,283.5c5.5-1.2,11.3-1.1,16.8,0.2c0,4.5,0,9,0,13.5c-4.5-1.1-9.6-2.1-13.9,0c-5.2,2.6-8.1,8.5-8.1,14.1
		c-0.3,5.6,1.6,11.9,6.6,15.1c4.6,3,10.5,2.4,15.5,1c0,4.5,0,9,0,13.5c-6.7,1.9-14,1.7-20.5-0.7c-7.8-2.9-14-9.7-16.4-17.7
		c-1.8-6.1-2-12.6-0.6-18.8C239.4,293.8,247.8,285.7,257.7,283.5 M298.3,282.8c6.8-0.8,14.2,0.3,19.7,4.6c5.3,4.1,7.9,10.8,8.9,17.2
		c0.9,7.1,0.7,14.5-1.5,21.3c-1.9,5.8-5.8,11.2-11.4,13.9c-5.7,2.7-12.4,2.9-18.5,1.5c-5.6-1.3-10.6-5-13.4-10.1
		c-3.9-6.8-4.6-14.9-4.3-22.6c0.3-6.6,2-13.5,6.4-18.6C287.8,285.9,293,283.4,298.3,282.8 M300.4,295.7c-2.9,0.7-4.6,3.6-5.3,6.3
		c-1.4,5.4-1.2,11-0.8,16.5c0.4,3,0.7,6.2,2.8,8.6c2.8,3.2,8.5,2.8,11-0.5c1.7-2.1,2.2-4.8,2.5-7.4c0.6-4.6,0.7-9.3,0-13.9
		c-0.5-2.8-1.3-5.7-3.3-7.8C305.5,295.7,302.8,295.1,300.4,295.7 M567.1,283.7c5.8-1.5,11.9-1.3,17.7-0.1c0.1,4.5,0,9,0.1,13.6
		c-4.4-1.1-9.3-2.1-13.6-0.2c-5,2.3-8,7.6-8.4,12.9c-0.6,6,1,12.8,6.3,16.3c4.6,3.2,10.6,2.6,15.7,1.1c-0.1,4.5,0.1,9.1-0.1,13.6
		c-7.1,1.8-14.9,1.6-21.6-1.3c-7.4-3.2-13.2-10-15.3-17.8c-1.6-6-1.8-12.4-0.3-18.5C549.8,293.9,557.7,286.2,567.1,283.7
		 M335.8,284.1c6.4,0,12.9,0,19.3,0c2.3,10.4,4.5,20.9,6.5,31.4c1.8-10.6,4.3-21,6.8-31.4c6.6,0,13.2,0,19.8,0
		c2.6,18.9,5.1,37.8,7.6,56.6c-5,0-10.1,0-15.1,0c-1.4-12.9-2.6-25.9-4.1-38.8c-3.1,12.9-6.3,25.9-9.4,38.8c-3.4,0-6.9,0-10.3,0
		c-3.3-12.9-6.5-25.9-9.9-38.9c-1.3,12.9-2.6,25.9-3.9,38.9c-4.8,0-9.6,0-14.5,0C331,321.9,333.4,303,335.8,284.1 M405,284.1
		c6.4,0,12.9,0,19.3,0c2.3,10.4,4.5,20.9,6.5,31.4c1.9-10.5,4.3-21,6.8-31.4h19.7c2.6,18.9,5.1,37.8,7.6,56.6c-5,0-10.1,0-15.1,0
		c-1.4-12.9-2.7-25.9-4.1-38.8c-3.1,12.9-6.2,25.9-9.4,38.8c-3.4,0-6.9,0-10.3,0c-3.3-13-6.6-25.9-9.9-38.9
		c-1.3,13-2.6,25.9-3.9,38.9c-4.8,0-9.6,0-14.5,0C400.2,321.9,402.6,303,405,284.1 M469.3,284.3c10.3-0.2,20.7,0,31-0.1
		c0,4,0,8,0,12.1c-5.2,0.1-10.4,0-15.6,0c0,3.5,0,6.9,0,10.4c4.5,0,9,0,13.5,0c0,3.9,0,7.8,0,11.7c-4.5,0-9,0-13.5,0
		c0,3.4,0,6.9,0,10.4c5.2,0,10.5,0,15.7,0c0,4,0,8,0,12.1c-10.3,0-20.7,0-31,0C469.3,322,469.5,303.2,469.3,284.3 M504.7,284.1
		c6.5,0,12.9-0.1,19.4,0c6.1,0.2,12.6,1.7,17.1,6c4.1,3.8,5.5,10.1,3.9,15.4c-1.3,4.3-4.5,7.8-8.5,9.7c4,8.5,8.1,17,12.2,25.5
		c-5.4,0-10.8,0-16.1,0c-4.2-8.7-8.3-17.4-12.6-26c-0.1,8.7,0,17.4,0,26c-5.1,0-10.2,0-15.3,0C504.7,321.9,504.7,303,504.7,284.1
		 M520,295c0,4.5,0,9,0,13.5c2.8-0.2,5.8-0.3,8.1-2c2.7-2,2.4-6.1,0.7-8.7C526.7,295.3,523,295.3,520,295 M589.2,284.2
		c10.3,0,20.6,0,30.9,0c0,4,0,8.1,0,12.1c-5.2,0-10.5,0-15.7,0c0,3.5,0,6.9,0,10.4c4.5,0,9,0,13.5,0c0,3.9,0,7.8,0,11.7h-13.5
		c0,3.5,0,6.9,0,10.4c5.3,0,10.5,0,15.8,0c0,4,0,8,0,12.1c-10.3,0-20.7,0-31,0C589.1,321.9,589.2,303,589.2,284.2"/>
</g>
</svg>
