<?xml version="1.0" encoding="UTF-8"?>
<svg width="73px" height="19px" viewBox="0 0 73 19" version="1.1" xmlns="http://www.w3.org/2000/svg" xmlns:xlink="http://www.w3.org/1999/xlink">
    <!-- Generator: Sketch 53.2 (72643) - https://sketchapp.com -->
    <title>logo-Yampi-negativo</title>
    <desc>Created with Sketch.</desc>
    <g id="Page-1" stroke="none" stroke-width="1" fill="none" fill-rule="evenodd">
        <g id="HOME" transform="translate(-641.000000, -3174.000000)">
            <g id="logo-Yampi-negativo" transform="translate(641.000000, 3174.000000)">
                <g>
                    <path d="M3.95305,16.94285 L3.96155,16.94285 L9.98655,16.93035 C11.48205,16.92685 12.78105,16.09385 13.45005,14.86785 C14.11755,14.50435 14.66805,13.95335 15.03205,13.28585 C16.26405,12.61435 17.09905,11.30685 17.09605,9.80485 C17.09155,7.62435 15.32255,5.85985 13.14305,5.85985 L13.13455,5.85985 L11.07055,5.86435 L11.07055,3.95285 C11.07055,1.76985 9.30055,-0.00015 7.11755,-0.00015 C5.61905,-0.00015 4.31555,0.83385 3.64505,2.06285 C2.97755,2.42685 2.42705,2.97785 2.06305,3.64535 C0.83405,4.31535 5e-05,5.61885 5e-05,7.11735 L5e-05,12.98985 C5e-05,14.03985 0.41755,15.04635 1.16055,15.78835 C1.90205,16.52785 2.90605,16.94285 3.95305,16.94285" id="Fill-1" fill="#773CBC"></path>
                    <path d="M3.95305,16.94285 C2.90605,16.94285 1.90205,16.52785 1.16055,15.78835 C0.41755,15.04635 5e-05,14.03985 5e-05,12.98985 L5e-05,7.11735 C5e-05,4.93435 1.77005,3.16435 3.95305,3.16435 C6.13605,3.16435 7.90605,4.93435 7.90605,7.11735 L7.90605,9.02835 L9.97005,9.02435 L9.97855,9.02435 C12.15805,9.02435 13.92705,10.78885 13.93155,12.96885 C13.93605,15.15235 12.17005,16.92585 9.98655,16.93035 L3.96155,16.94285 L3.95305,16.94285 Z" id="Fill-4" fill="#FFFFFF"></path>
                    <path d="M5.5353,15.36065 C4.4883,15.36065 3.4843,14.94565 2.7428,14.20615 C1.9998,13.46415 1.5823,12.45765 1.5823,11.40765 L1.5823,5.53515 C1.5823,3.35215 3.3523,1.58215 5.5353,1.58215 C7.7183,1.58215 9.4883,3.35215 9.4883,5.53515 L9.4883,7.44615 L11.5523,7.44215 L11.5608,7.44215 C13.7403,7.44215 15.5093,9.20665 15.5138,11.38665 C15.5183,13.57015 13.7523,15.34365 11.5688,15.34815 L5.5438,15.36065 C5.5408,15.36065 5.5378,15.36065 5.5353,15.36065" id="Fill-6" fill="#FE509C" opacity="0.5"></path>
                    <path d="M7.11745,13.7784 C6.07045,13.7784 5.06645,13.3634 4.32495,12.6234 C3.58195,11.8819 3.16445,10.8754 3.16445,9.8254 L3.16445,3.9529 C3.16445,1.7699 4.93445,-0.0001 7.11745,-0.0001 C9.30045,-0.0001 11.07045,1.7699 11.07045,3.9529 L11.07045,5.8644 L13.13495,5.8599 L13.14295,5.8599 C15.32245,5.8599 17.09145,7.6244 17.09595,9.8049 C17.10045,11.9879 15.33395,13.7614 13.15095,13.7659 L7.12545,13.7784 L7.11745,13.7784 Z" id="Fill-8" fill="#FF005E" opacity="0.5"></path>
                    <path d="M69.2241,3.3531 C69.2241,2.4356 69.9681,1.6921 70.8856,1.6921 C71.8031,1.6921 72.5466,2.4356 72.5466,3.3531 C72.5466,4.2706 71.8026,5.0141 70.8851,5.0141 C69.9676,5.0141 69.2241,4.2706 69.2241,3.3531" id="Fill-10" fill="#FE509C"></path>
                    <path d="M30.3475,3.4421 L33.56,3.4421 L28.955,11.6031 L28.955,15.1261 L26.053,15.1261 L26.053,11.6031 L21.431,3.4421 L24.644,3.4421 L27.4875,8.5336 L30.3475,3.4421 Z M53.3802,6.5371 C54.4562,6.5371 55.3177,6.8826 55.9652,7.5731 C56.6127,8.2636 56.9367,9.1961 56.9367,10.3706 L56.9367,15.1261 L54.1517,15.1261 L54.1517,10.8146 C54.1517,10.2226 54.0162,9.7821 53.7447,9.4941 C53.4737,9.2056 53.1062,9.0616 52.6417,9.0616 C52.1777,9.0616 51.7582,9.2911 51.3837,9.7496 C51.4062,9.9511 51.4172,10.1581 51.4172,10.3706 L51.4172,15.1261 L48.6327,15.1261 L48.6327,10.8146 C48.6327,10.2226 48.4977,9.7821 48.2287,9.4941 C47.9597,9.2056 47.5922,9.0616 47.1267,9.0616 C46.6612,9.0616 46.2487,9.3026 45.8902,9.7836 L45.8902,15.1261 L43.1052,15.1261 L43.1052,6.7971 L45.8902,6.7971 L45.8902,7.2756 C46.4507,6.7831 47.1352,6.5371 47.9427,6.5371 C49.0057,6.5371 49.8652,6.9146 50.5197,7.6696 C51.3307,6.9146 52.2842,6.5371 53.3802,6.5371 Z M63.21015,13.07705 C64.38365,13.07705 65.33515,12.12555 65.33515,10.95205 C65.33565,9.77855 64.38415,8.82705 63.21015,8.82655 C62.03665,8.82655 61.08515,9.77805 61.08515,10.95155 C61.08515,11.44955 61.26315,11.90105 61.54965,12.26355 L61.54965,12.26455 C61.55115,12.26555 61.55215,12.26655 61.55315,12.26755 C61.94265,12.75705 62.53615,13.07705 63.21015,13.07705 Z M63.82815,6.60405 C64.98565,6.60405 65.97465,7.01805 66.79465,7.84605 C67.61515,8.67355 68.02515,9.71055 68.02515,10.95705 C68.02515,12.20455 67.61215,13.23855 66.78665,14.06055 C65.96065,14.88305 64.97465,15.29405 63.82815,15.29405 C62.96515,15.29405 62.20515,15.09055 61.54965,14.68405 L61.54965,18.99305 L58.76515,18.99305 L58.76515,6.79705 L61.54965,6.79705 L61.54965,7.22505 C62.19965,6.81105 62.95915,6.60405 63.82815,6.60405 Z M36.873,13.07705 C38.0465,13.07705 38.998,12.12555 38.998,10.95205 C38.9985,9.77855 38.047,8.82705 36.873,8.82655 C35.6995,8.82655 34.748,9.77805 34.748,10.95155 C34.748,12.12555 35.6995,13.07705 36.873,13.07705 Z M38.492,7.24155 L38.492,6.79705 L41.2765,6.79705 L41.2765,15.12605 L38.492,15.12605 L38.492,14.66655 C37.8335,15.08455 37.072,15.29405 36.2075,15.29405 C35.0625,15.29405 34.078,14.88305 33.2535,14.06055 C32.429,13.23855 32.0165,12.20455 32.0165,10.95705 C32.0165,9.71055 32.426,8.67355 33.245,7.84605 C34.064,7.01805 35.0515,6.60405 36.2075,6.60405 C37.05,6.60405 37.8115,6.81705 38.492,7.24155 Z M69.493,15.1264 L69.493,6.7974 L72.2775,6.7974 L72.2775,15.1264 L69.493,15.1264 Z" id="Combined-Shape" fill="#FFFFFF"></path>
                </g>
            </g>
        </g>
    </g>
</svg>