<svg xmlns="http://www.w3.org/2000/svg" width="71" height="24" viewBox="0 0 69 24"><path style="stroke:none;fill-rule:nonzero;fill:#503296;fill-opacity:1" d="M19.027 5.61h3.18l2.563 5.015 2.546-5.016h3.18l-4.316 7.989v4.246h-2.84v-4.246ZM32.313 18.016c-.56 0-1.07-.094-1.508-.282a2.375 2.375 0 0 1-1.04-.882c-.245-.391-.37-.88-.37-1.477 0-.504.078-.926.261-1.258a2.19 2.19 0 0 1 .715-.832 3.085 3.085 0 0 1 1.055-.488c.406-.11.824-.188 1.273-.219.496-.05.918-.098 1.211-.144.309-.047.528-.125.668-.235.14-.094.203-.234.203-.426v-.03c0-.298-.11-.536-.312-.692-.203-.156-.48-.25-.824-.25-.372 0-.665.078-.899.25-.234.156-.371.394-.434.676l-2.609-.094c.078-.551.281-1.04.59-1.461a3.314 3.314 0 0 1 1.336-1.024c.558-.25 1.242-.378 2.031-.378.559 0 1.09.062 1.57.207.48.14.883.328 1.243.582.355.25.617.566.82.941.203.379.297.785.297 1.273v6.118h-2.656v-1.258h-.047c-.153.3-.356.566-.606.77a2.587 2.587 0 0 1-.851.472c-.344.078-.715.14-1.117.14Zm.867-1.887c.312 0 .574-.063.824-.188.246-.125.434-.3.59-.52.14-.218.215-.472.215-.769v-.847a1.002 1.002 0 0 1-.293.11c-.11.03-.235.062-.371.093-.141.031-.282.062-.422.078-.137.016-.278.047-.418.062-.262.047-.496.11-.684.204a1.3 1.3 0 0 0-.434.347.896.896 0 0 0-.14.504c0 .297.11.52.312.676.23.172.496.25.82.25ZM39.793 17.86V8.753h2.684v1.762c.187-.551.59-.973 1.039-1.29.437-.312.964-.472 1.57-.472.621 0 1.148.16 1.582.488.434.317.715.754.836 1.29.172-.536.574-.958 1.059-1.29a3.047 3.047 0 0 1 1.707-.488c.835 0 1.52.27 2.046.82.528.551.793 1.29.793 2.23v6.055h-2.824v-5.394c0-.453-.11-.785-.344-1.02a1.184 1.184 0 0 0-.882-.363c-.391 0-.7.125-.918.379-.215.25-.325.598-.325 1.02v5.363h-2.714v-5.426c0-.422-.11-.754-.329-.988-.214-.239-.511-.364-.882-.364-.25 0-.47.063-.653.172a1.136 1.136 0 0 0-.433.504c-.11.223-.157.473-.157.77v5.316ZM55.172 21.227V8.754h2.793v1.652c.125-.265.375-.535.574-.785.219-.254.48-.457.824-.629.325-.16.727-.238 1.196-.238.62 0 1.195.16 1.722.488.543.332.961.832 1.301 1.512.328.676.5 1.555.5 2.61 0 1.019-.156 1.87-.484 2.562-.309.691-.743 1.195-1.285 1.539a3.23 3.23 0 0 1-1.786.52c-.449 0-.84-.079-1.164-.22a2.454 2.454 0 0 1-.824-.581 2.921 2.921 0 0 1-.512-.786h-.062v4.829Zm2.762-7.864c0 .489.062.91.187 1.258.125.36.309.645.559.832.25.203.543.3.883.3.343 0 .636-.097.886-.3.246-.203.418-.473.543-.832.125-.363.188-.785.188-1.258 0-.488-.063-.898-.188-1.258a1.792 1.792 0 0 0-.543-.82 1.41 1.41 0 0 0-.886-.297c-.34 0-.633.094-.883.282-.25.19-.434.472-.559.82-.11.36-.187.785-.187 1.273ZM67.559 7.105c-.407 0-.746-.144-1.028-.41a1.312 1.312 0 0 1-.418-.976c0-.375.14-.692.418-.957.281-.27.621-.395 1.028-.395.402 0 .742.14 1.023.395.277.265.418.582.418.957 0 .379-.14.71-.418.976-.297.266-.637.41-1.023.41ZM68.953 8.785H66.13v9.074h2.824Zm0 0"/><path style="stroke:none;fill-rule:nonzero;fill:#fa3296;fill-opacity:1" d="M10.926 17.89c.73 0 1.398-.203 1.988-.566.309-.55.48-1.195.48-1.887 0-2.105-1.69-3.82-3.773-3.82H7.543V9.574c0-2.11-1.691-3.824-3.773-3.824-.696 0-1.364.191-1.922.535a3.92 3.92 0 0 0-.496 1.902v5.696c0 2.105 1.843 4.008 3.925 4.008Zm0 0"/><path style="stroke:none;fill-rule:nonzero;fill:#503296;fill-opacity:1" d="M10.926 17.89H5.277c-2.082 0-3.925-1.902-3.925-4.007V8.188c0-.692.183-1.336.496-1.903A3.83 3.83 0 0 0 0 9.575v5.405c0 2.11 2.094 4.293 4.176 4.293H9.62c1.414 0 2.64-.785 3.293-1.949a3.785 3.785 0 0 1-1.988.567Zm0 0"/><path style="stroke:none;fill-rule:nonzero;fill:#c83296;fill-opacity:1" d="M12.324 16.508H6.316c-2.078 0-3.617-1.367-3.617-3.82V6.804c0-.707.188-1.367.528-1.934a3.832 3.832 0 0 0-1.891 3.316v5.696c0 2.105 1.844 4.008 3.926 4.008h5.648a3.812 3.812 0 0 0 3.29-1.887 3.703 3.703 0 0 1-1.876.504Zm0 0"/><path style="stroke:none;fill-rule:nonzero;fill:#fa78b4;fill-opacity:1" d="M14.742 13.898c-.09-2.046-1.738-3.664-3.77-3.664H8.896v-2c0-2.183-1.786-3.96-3.946-3.867a3.769 3.769 0 0 0-3.101 1.918A3.675 3.675 0 0 1 3.77 5.75c2.082 0 3.773 1.715 3.773 3.824v2.043h2.078c2.082 0 3.774 1.715 3.774 3.82 0 .676-.172 1.32-.48 1.887a3.861 3.861 0 0 0 1.827-3.426Zm0 0"/><path style="stroke:none;fill-rule:nonzero;fill:#faa0c8;fill-opacity:1" d="M12.324 8.863h-2.082V6.82c0-2.105-1.691-3.82-3.77-3.82-1.382 0-2.593.754-3.261 1.887a3.843 3.843 0 0 1 1.723-.52c2.16-.094 3.945 1.684 3.945 3.867v2h2.078c2.031 0 3.68 1.618 3.77 3.664a3.844 3.844 0 0 1-.528 2.106 3.835 3.835 0 0 0 1.895-3.317c0-2.124-1.676-3.824-3.77-3.824Zm0 0"/><path style="stroke:none;fill-rule:nonzero;fill:#faa0c8;fill-opacity:1" d="M2.824 5.863c.094-.363.235-.691.403-.992a3.636 3.636 0 0 0-1.38 1.414c.294-.187.622-.328.977-.422ZM13.27 16.383a4.255 4.255 0 0 1-.372.941 3.726 3.726 0 0 0 1.301-1.32c-.277.172-.59.3-.93.379Zm0 0"/></svg>