<svg width="890" height="307" viewBox="0 0 890 307" fill="none" xmlns="http://www.w3.org/2000/svg">
    <path d="M245.421 71.7646H286.458L319.487 135.929L352.317 71.7646H393.354L337.704 173.945V228.253H301.071V173.945L245.421 71.7646Z" fill="#503296"/>
    <path d="M416.775 230.466C409.568 230.466 402.962 229.259 397.357 226.845C391.752 224.432 387.348 220.61 383.945 215.581C380.742 210.553 379.141 204.317 379.141 196.674C379.141 190.237 380.142 184.807 382.544 180.583C384.746 176.157 387.949 172.537 391.752 169.922C395.556 167.106 400.16 165.095 405.364 163.687C410.569 162.279 415.974 161.273 421.779 160.871C428.185 160.267 433.59 159.664 437.393 159.06C441.397 158.457 444.199 157.451 446.001 156.043C447.803 154.836 448.603 153.026 448.603 150.612V150.21C448.603 146.388 447.202 143.371 444.6 141.36C441.997 139.348 438.394 138.142 433.99 138.142C429.186 138.142 425.382 139.147 422.38 141.36C419.377 143.371 417.575 146.388 416.775 150.009L383.144 148.802C384.145 141.762 386.748 135.527 390.751 130.096C394.955 124.665 400.56 120.24 407.967 117.022C415.173 113.803 423.981 112.194 434.19 112.194C441.397 112.194 448.203 112.999 454.409 114.809C460.614 116.619 465.819 119.033 470.423 122.251C475.027 125.47 478.43 129.493 481.032 134.32C483.635 139.147 484.836 144.377 484.836 150.612V228.857H450.605V212.765H450.005C448.003 216.587 445.4 220.006 442.198 222.621C438.995 225.236 435.391 227.247 431.188 228.655C426.784 229.661 421.979 230.466 416.775 230.466ZM427.985 206.329C431.988 206.329 435.391 205.524 438.594 203.915C441.797 202.306 444.199 200.093 446.201 197.277C448.003 194.461 449.004 191.243 449.004 187.421V176.56C448.003 177.163 446.802 177.565 445.2 177.968C443.799 178.37 442.198 178.772 440.396 179.175C438.594 179.577 436.793 179.979 434.991 180.18C433.189 180.381 431.388 180.784 429.586 180.985C426.183 181.588 423.18 182.393 420.778 183.6C418.376 184.807 416.575 186.215 415.173 188.025C413.972 189.835 413.372 192.048 413.372 194.461C413.372 198.283 414.773 201.099 417.375 203.11C420.378 205.323 423.781 206.329 427.985 206.329Z" fill="#503296"/>
    <path d="M513.262 228.454V111.993H547.893V134.521C550.295 127.481 555.5 122.05 561.305 118.027C566.91 114.005 573.716 111.993 581.523 111.993C589.53 111.993 596.336 114.005 601.941 118.229C607.546 122.251 611.15 127.883 612.751 134.722C614.953 127.883 620.158 122.453 626.363 118.229C632.569 114.206 639.775 111.993 648.383 111.993C659.193 111.993 668.001 115.413 674.807 122.453C681.613 129.493 685.016 138.946 685.016 151.015V228.454H648.583V159.463C648.583 153.63 647.182 149.406 644.179 146.388C641.177 143.371 637.373 141.762 632.769 141.762C627.765 141.762 623.761 143.371 620.958 146.59C618.156 149.808 616.755 154.233 616.755 159.664V228.253H581.723V158.859C581.723 153.428 580.322 149.204 577.519 146.187C574.717 143.17 570.913 141.561 566.109 141.561C562.906 141.561 560.104 142.366 557.702 143.774C555.299 145.383 553.298 147.394 552.097 150.21C550.695 153.026 550.095 156.244 550.095 160.066V228.052L513.262 228.454Z" fill="#503296"/>
    <path d="M711.64 271.499V111.993H747.672V133.113C749.273 129.694 752.476 126.274 755.079 123.056C757.881 119.838 761.284 117.223 765.688 115.01C769.892 112.999 775.097 111.993 781.102 111.993C789.109 111.993 796.516 114.005 803.322 118.229C810.328 122.453 815.733 128.889 820.137 137.538C824.341 146.187 826.543 157.451 826.543 170.928C826.543 184.002 824.541 194.864 820.337 203.714C816.334 212.564 810.729 219.001 803.722 223.426C796.716 227.851 789.109 230.063 780.702 230.063C774.897 230.063 769.892 229.058 765.688 227.247C761.484 225.437 757.881 222.822 755.079 219.805C752.276 216.788 750.074 213.369 748.473 209.748H747.672V271.499H711.64ZM747.272 170.928C747.272 177.163 748.072 182.594 749.674 187.019C751.275 191.645 753.677 195.266 756.88 197.68C760.083 200.294 763.887 201.501 768.291 201.501C772.695 201.501 776.498 200.294 779.701 197.68C782.904 195.065 785.106 191.645 786.707 187.019C788.309 182.393 789.109 176.962 789.109 170.928C789.109 164.692 788.309 159.463 786.707 154.836C785.106 150.21 782.704 146.791 779.701 144.377C776.698 141.963 772.695 140.555 768.291 140.555C763.887 140.555 760.083 141.762 756.88 144.176C753.677 146.59 751.275 150.21 749.674 154.635C748.273 159.262 747.272 164.692 747.272 170.928Z" fill="#503296"/>
    <path d="M871.383 90.8727C866.179 90.8727 861.775 89.0624 858.171 85.643C854.568 82.2236 852.767 77.9996 852.767 73.1722C852.767 68.3448 854.568 64.322 858.171 60.9026C861.775 57.4832 866.179 55.874 871.383 55.874C876.588 55.874 880.992 57.6843 884.595 60.9026C888.198 64.322 890 68.3448 890 73.1722C890 77.9996 888.198 82.2236 884.595 85.643C880.792 89.0624 876.388 90.8727 871.383 90.8727Z" fill="#503296"/>
    <path d="M889.399 112.396H852.967V228.454H889.399V112.396Z" fill="#503296"/>
    <path d="M140.927 228.857C150.335 228.857 158.943 226.242 166.55 221.616C170.553 214.576 172.755 206.329 172.755 197.479C172.755 170.526 150.936 148.601 124.111 148.601H97.2873V122.453C97.2873 95.4997 75.4677 73.5752 48.6436 73.5752C39.6355 73.5752 31.0278 75.9889 23.8213 80.414C19.8177 87.6551 17.4155 95.9019 17.4155 104.752V177.566C17.4155 204.519 41.2369 228.857 68.061 228.857H140.927Z" fill="#FA3296"/>
    <path d="M140.927 228.857H68.0612C41.2371 228.857 17.4157 204.519 17.4157 177.566V104.752C17.4157 95.902 19.8178 87.6552 23.8214 80.4141C9.60864 88.862 0 104.551 0 122.453V191.646C0 218.599 27.0243 246.557 53.8484 246.557H124.112C142.328 246.557 158.142 236.5 166.55 221.616C158.943 226.242 150.135 228.857 140.927 228.857Z" fill="#503296"/>
    <path d="M158.943 211.156H81.4732C54.6491 211.156 34.8313 193.656 34.8313 162.278V87.051C34.8313 77.9996 37.2334 69.5517 41.6374 62.3105C27.0243 70.7585 17.2155 86.6487 17.2155 104.751V177.565C17.2155 204.518 41.0369 228.856 67.861 228.856H140.726C158.743 228.856 174.557 219.201 183.165 204.719C176.158 208.742 167.951 211.156 158.943 211.156Z" fill="#C83296"/>
    <path d="M190.171 177.766C188.97 151.618 167.751 130.9 141.527 130.9H114.703V105.355C114.703 77.3962 91.6825 54.6672 63.8575 55.8741C46.642 56.6786 31.8287 66.3335 23.8215 80.4134C31.028 75.9883 39.6358 73.5746 48.6439 73.5746C75.468 73.5746 97.2876 95.499 97.2876 122.452V148.6H124.112C150.936 148.6 172.755 170.525 172.755 197.478C172.755 206.127 170.553 214.374 166.55 221.615C181.163 212.765 190.772 196.271 190.171 177.766Z" fill="#FA78B4"/>
    <path d="M158.943 113.401H132.119V87.2525C132.119 60.2995 110.299 38.375 83.4749 38.375C65.6589 38.375 50.0449 48.0298 41.4371 62.512C48.0431 58.6903 55.6499 56.2766 63.6571 55.8743C91.4821 54.6675 114.503 77.3965 114.503 105.355V130.9H141.327C167.55 130.9 188.77 151.618 189.971 177.766C190.371 187.622 187.769 196.875 183.165 204.719C197.778 196.271 207.586 180.381 207.586 162.278C207.586 135.124 185.967 113.401 158.943 113.401Z" fill="#FAA0C8"/>
    <path d="M36.4329 74.9825C37.634 70.3562 39.4356 66.1322 41.6376 62.3105C34.2309 66.5345 28.0253 72.7699 23.8215 80.4133C27.625 77.9996 31.8287 76.1893 36.4329 74.9825Z" fill="#FAA0C8"/>
    <path d="M171.154 209.547C170.153 213.771 168.351 217.794 166.35 221.616C173.356 217.392 179.161 211.559 183.165 204.72C179.561 206.932 175.558 208.541 171.154 209.547Z" fill="#FAA0C8"/>
</svg>
