<svg xmlns="http://www.w3.org/2000/svg" width="71" height="18" viewBox="0 0 71 18">
    <g fill="none" fill-rule="nonzero">
        <path fill="#773CBC" d="M3.77 16.051a3.782 3.782 0 0 1-2.664-1.094A3.734 3.734 0 0 1 0 12.306V6.743c0-2.069 1.688-3.745 3.77-3.745 2.08 0 3.768 1.677 3.768 3.745v1.81l1.968-.004h.008c2.078 0 3.765 1.672 3.769 3.737.004 2.069-1.68 3.749-3.762 3.753l-5.744.012h-.008z"/>
        <path fill="#FE509C" d="M5.278 14.552a3.782 3.782 0 0 1-2.663-1.093 3.734 3.734 0 0 1-1.107-2.652V5.244c0-2.068 1.688-3.745 3.77-3.745 2.081 0 3.768 1.677 3.768 3.745v1.81l1.968-.003h.009c2.077 0 3.764 1.671 3.768 3.736.004 2.07-1.68 3.75-3.761 3.753l-5.745.012h-.007z" opacity=".5"/>
        <path fill="#FF005E" d="M6.786 13.053a3.78 3.78 0 0 1-2.662-1.094 3.733 3.733 0 0 1-1.107-2.65V3.743C3.017 1.677 4.705 0 6.786 0c2.081 0 3.768 1.677 3.768 3.744v1.812l1.969-.005h.007c2.078 0 3.765 1.672 3.769 3.738.004 2.068-1.68 3.748-3.761 3.753l-5.745.012h-.008l.001-.001z" opacity=".5"/>
        <path fill="#FE509C" d="M66 3.176a1.579 1.579 0 0 1 1.584-1.573 1.578 1.578 0 0 1 1.584 1.573 1.579 1.579 0 0 1-1.584 1.574A1.578 1.578 0 0 1 66 3.176"/>
        <path fill="#773CBC" d="M28.934 3.261h3.063l-4.39 7.731v3.337h-2.768v-3.337l-4.406-7.731h3.063l2.711 4.824 2.727-4.824zm21.96 2.932c1.026 0 1.848.327 2.465.982.617.654.926 1.537.926 2.65v4.505h-2.656v-4.084c0-.561-.129-.978-.387-1.251-.259-.274-.61-.41-1.052-.41-.442 0-.842.217-1.2.651.022.191.032.387.032.588v4.506h-2.655v-4.084c0-.561-.128-.978-.385-1.251-.256-.274-.606-.41-1.05-.41-.444 0-.837.228-1.18.684v5.06h-2.654V6.44h2.655v.454c.534-.467 1.187-.7 1.957-.7 1.014 0 1.833.358 2.457 1.073a3.886 3.886 0 0 1 2.727-1.073zm9.372 6.196a2.02 2.02 0 0 0 2.026-2.013 2.019 2.019 0 0 0-2.026-2.014 2.02 2.02 0 0 0-2.026 2.013c0 .472.17.9.443 1.243v.001c.382.485.966.769 1.583.77zm.59-6.132c1.103 0 2.046.392 2.827 1.176.783.784 1.174 1.766 1.174 2.948s-.394 2.16-1.18 2.94c-.789.779-1.729 1.168-2.821 1.168-.824 0-1.548-.192-2.173-.578v4.082h-2.655V6.44h2.655v.406c.62-.393 1.344-.588 2.172-.588zm-25.7 6.132a2.02 2.02 0 0 0 2.025-2.013 2.019 2.019 0 0 0-2.025-2.014 2.02 2.02 0 0 0-2.026 2.013 2.02 2.02 0 0 0 2.026 2.014zm1.543-5.529v-.42h2.655v7.89h-2.655v-.435c-.628.396-1.354.594-2.178.594-1.092 0-2.03-.389-2.816-1.168-.786-.78-1.18-1.758-1.18-2.94s.39-2.164 1.172-2.948c.78-.784 1.722-1.177 2.824-1.177.803 0 1.53.202 2.178.604zm29.557 7.47V6.44h2.655v7.89h-2.655z"/>
    </g>
</svg>
