<svg width="64" height="64" viewBox="0 0 64 64" fill="none" xmlns="http://www.w3.org/2000/svg">
<rect width="64" height="64" rx="6" fill="#725BC2"/>
<g clip-path="url(#clip0_496_5452)">
<path d="M37.727 45.2899C39.1617 45.2899 40.5132 44.8938 41.6568 44.185C42.2806 43.101 42.6341 41.8293 42.6341 40.4743C42.6341 36.3257 39.2865 32.9485 35.1279 32.9485L30.9902 32.9277V28.9251C30.9902 24.7766 27.6218 21.3994 23.4841 21.3994C22.0909 21.3994 20.781 21.7746 19.6582 22.4625C19.0344 23.5674 18.6602 24.8391 18.6602 26.215V37.4098C18.6602 41.5792 22.3197 45.2899 26.4782 45.2899H37.727Z" fill="#FA78B4"/>
<path d="M37.7283 45.2899H26.5003C22.3626 45.2899 18.6823 41.5583 18.6823 37.4098V26.215C18.6823 24.8599 19.0357 23.5674 19.6803 22.4625C17.4763 23.7759 16 26.1733 16 28.9251V39.557C16 43.7055 20.1585 48 24.2963 48H35.1292C37.9363 48 40.369 46.4573 41.6581 44.185C40.5145 44.8938 39.163 45.2899 37.7283 45.2899Z" fill="white"/>
<path d="M40.5367 42.5798H28.5809C24.4432 42.5798 21.3866 39.8906 21.3866 35.0541V23.5049C21.3866 22.1082 21.7609 20.8156 22.4263 19.6899C20.1807 20.9824 18.6836 23.4215 18.6836 26.215V37.4098C18.6836 41.5792 22.3431 45.2899 26.5016 45.2899H37.7297C40.4951 45.2899 42.9278 43.7889 44.2586 41.5792C43.1566 42.2254 41.8882 42.5798 40.5367 42.5798Z" fill="#FAA0C8"/>
<path d="M45.3158 37.4515C45.1494 33.4489 41.8434 30.2593 37.8304 30.2593L33.6927 30.2384V26.3192C33.6927 22.0248 30.1579 18.5225 25.8746 18.7101C23.234 18.8143 20.9468 20.3153 19.6992 22.4834C20.822 21.8163 22.132 21.4202 23.5251 21.4202C27.6628 21.4202 31.0312 24.7974 31.0312 28.9459V32.9694L35.169 32.9902C39.3067 32.9902 42.6751 36.3674 42.6751 40.516C42.6751 41.871 42.3216 43.1218 41.6979 44.2267C43.9435 42.83 45.4405 40.2866 45.3158 37.4515Z" fill="#FA3296"/>
<path d="M40.5362 27.5492L36.3984 27.5283V23.5257C36.3984 19.3772 33.03 16 28.8923 16C26.1269 16 23.7357 17.501 22.4258 19.7107C23.4446 19.1062 24.609 18.7518 25.8566 18.7101C30.1399 18.5225 33.6746 22.0248 33.6746 26.3192V30.2384L37.8123 30.2593C41.8461 30.2593 45.1314 33.4489 45.2977 37.4515C45.3601 38.9733 44.965 40.3909 44.2581 41.6C46.5037 40.3075 48.0007 37.8684 48.0007 35.0749C48.0215 30.9055 44.6739 27.5492 40.5362 27.5492Z" fill="#C83296"/>
<path d="M21.6134 21.6704C21.7797 20.9824 22.0708 20.3153 22.4243 19.7108C21.2807 20.3779 20.3243 21.3368 19.6797 22.4834C20.2827 22.1081 20.9272 21.8371 21.6134 21.6704Z" fill="#C83296"/>
<path d="M42.4048 42.3505C42.2384 42.9967 41.9889 43.6222 41.6562 44.2059C42.7167 43.5596 43.6108 42.6632 44.2553 41.6C43.6731 41.9127 43.0702 42.1837 42.4048 42.3505Z" fill="#C83296"/>
</g>
<defs>
<clipPath id="clip0_496_5452">
<rect width="32" height="32" fill="white" transform="translate(16 16)"/>
</clipPath>
</defs>
</svg>
