<svg xmlns="http://www.w3.org/2000/svg" xmlns:xlink="http://www.w3.org/1999/xlink" width="52px" height="18px" viewBox="0 0 52 18" version="1.1">
    <g id="surface1">
        <path style=" stroke:none;fill-rule:nonzero;fill:rgb(31.372549%,19.607843%,58.823529%);fill-opacity:1;" d="M 14.339844 4.207031 L 16.738281 4.207031 L 18.667969 7.96875 L 20.585938 4.207031 L 22.984375 4.207031 L 19.730469 10.199219 L 19.730469 13.382812 L 17.589844 13.382812 L 17.589844 10.199219 Z M 14.339844 4.207031 "/>
        <path style=" stroke:none;fill-rule:nonzero;fill:rgb(31.372549%,19.607843%,58.823529%);fill-opacity:1;" d="M 24.351562 13.511719 C 23.929688 13.511719 23.542969 13.441406 23.214844 13.300781 C 22.890625 13.160156 22.632812 12.933594 22.433594 12.640625 C 22.246094 12.34375 22.152344 11.980469 22.152344 11.53125 C 22.152344 11.152344 22.210938 10.835938 22.351562 10.589844 C 22.480469 10.328125 22.667969 10.117188 22.890625 9.960938 C 23.109375 9.796875 23.378906 9.679688 23.683594 9.597656 C 23.988281 9.515625 24.304688 9.457031 24.644531 9.433594 C 25.015625 9.398438 25.332031 9.363281 25.554688 9.324219 C 25.789062 9.289062 25.953125 9.230469 26.058594 9.148438 C 26.164062 9.078125 26.210938 8.972656 26.210938 8.832031 L 26.210938 8.808594 C 26.210938 8.582031 26.128906 8.40625 25.976562 8.289062 C 25.824219 8.171875 25.613281 8.097656 25.355469 8.097656 C 25.074219 8.097656 24.855469 8.160156 24.679688 8.289062 C 24.503906 8.40625 24.398438 8.582031 24.351562 8.796875 L 22.386719 8.722656 C 22.445312 8.3125 22.597656 7.945312 22.832031 7.628906 C 23.074219 7.308594 23.402344 7.050781 23.835938 6.859375 C 24.257812 6.671875 24.773438 6.578125 25.367188 6.578125 C 25.789062 6.578125 26.1875 6.625 26.550781 6.730469 C 26.914062 6.835938 27.214844 6.980469 27.484375 7.167969 C 27.753906 7.355469 27.953125 7.59375 28.105469 7.875 C 28.257812 8.160156 28.328125 8.464844 28.328125 8.832031 L 28.328125 13.417969 L 26.328125 13.417969 L 26.328125 12.476562 L 26.292969 12.476562 C 26.175781 12.699219 26.023438 12.898438 25.835938 13.050781 C 25.648438 13.207031 25.4375 13.324219 25.191406 13.40625 C 24.9375 13.464844 24.65625 13.511719 24.351562 13.511719 Z M 25.007812 12.097656 C 25.238281 12.097656 25.4375 12.050781 25.625 11.957031 C 25.8125 11.863281 25.953125 11.730469 26.070312 11.566406 C 26.175781 11.402344 26.234375 11.214844 26.234375 10.988281 L 26.234375 10.351562 C 26.175781 10.386719 26.105469 10.410156 26.011719 10.433594 C 25.929688 10.457031 25.835938 10.480469 25.730469 10.503906 C 25.625 10.527344 25.519531 10.550781 25.414062 10.5625 C 25.308594 10.574219 25.203125 10.601562 25.097656 10.613281 C 24.902344 10.648438 24.726562 10.695312 24.585938 10.765625 C 24.445312 10.835938 24.339844 10.917969 24.257812 11.023438 C 24.1875 11.128906 24.152344 11.261719 24.152344 11.402344 C 24.152344 11.625 24.234375 11.789062 24.386719 11.910156 C 24.5625 12.039062 24.761719 12.097656 25.007812 12.097656 Z M 25.007812 12.097656 "/>
        <path style=" stroke:none;fill-rule:nonzero;fill:rgb(31.372549%,19.607843%,58.823529%);fill-opacity:1;" d="M 29.988281 13.394531 L 29.988281 6.566406 L 32.011719 6.566406 L 32.011719 7.886719 C 32.152344 7.472656 32.457031 7.15625 32.796875 6.921875 C 33.121094 6.683594 33.519531 6.566406 33.976562 6.566406 C 34.445312 6.566406 34.84375 6.683594 35.167969 6.933594 C 35.496094 7.167969 35.707031 7.496094 35.800781 7.898438 C 35.929688 7.496094 36.234375 7.179688 36.597656 6.933594 C 36.960938 6.695312 37.378906 6.566406 37.882812 6.566406 C 38.515625 6.566406 39.027344 6.765625 39.425781 7.179688 C 39.824219 7.59375 40.023438 8.148438 40.023438 8.855469 L 40.023438 13.394531 L 37.894531 13.394531 L 37.894531 9.351562 C 37.894531 9.007812 37.8125 8.761719 37.636719 8.582031 C 37.460938 8.40625 37.238281 8.3125 36.972656 8.3125 C 36.679688 8.3125 36.445312 8.40625 36.28125 8.59375 C 36.117188 8.785156 36.035156 9.042969 36.035156 9.363281 L 36.035156 13.382812 L 33.988281 13.382812 L 33.988281 9.3125 C 33.988281 8.996094 33.90625 8.75 33.742188 8.570312 C 33.578125 8.394531 33.355469 8.300781 33.074219 8.300781 C 32.890625 8.300781 32.726562 8.347656 32.585938 8.429688 C 32.445312 8.523438 32.328125 8.640625 32.257812 8.808594 C 32.175781 8.972656 32.140625 9.160156 32.140625 9.386719 L 32.140625 13.371094 Z M 29.988281 13.394531 "/>
        <path style=" stroke:none;fill-rule:nonzero;fill:rgb(31.372549%,19.607843%,58.823529%);fill-opacity:1;" d="M 41.578125 15.917969 L 41.578125 6.566406 L 43.683594 6.566406 L 43.683594 7.804688 C 43.777344 7.605469 43.964844 7.402344 44.117188 7.214844 C 44.28125 7.027344 44.480469 6.871094 44.738281 6.742188 C 44.984375 6.625 45.285156 6.566406 45.636719 6.566406 C 46.105469 6.566406 46.539062 6.683594 46.9375 6.933594 C 47.34375 7.179688 47.660156 7.558594 47.917969 8.0625 C 48.164062 8.570312 48.292969 9.230469 48.292969 10.023438 C 48.292969 10.789062 48.175781 11.425781 47.929688 11.945312 C 47.695312 12.464844 47.367188 12.839844 46.960938 13.101562 C 46.550781 13.359375 46.105469 13.488281 45.613281 13.488281 C 45.273438 13.488281 44.984375 13.429688 44.738281 13.324219 C 44.492188 13.21875 44.28125 13.066406 44.117188 12.886719 C 43.953125 12.710938 43.824219 12.511719 43.730469 12.296875 L 43.683594 12.296875 L 43.683594 15.917969 Z M 43.660156 10.023438 C 43.660156 10.386719 43.707031 10.707031 43.800781 10.964844 C 43.894531 11.238281 44.035156 11.449219 44.222656 11.589844 C 44.410156 11.742188 44.632812 11.8125 44.890625 11.8125 C 45.144531 11.8125 45.367188 11.742188 45.554688 11.589844 C 45.742188 11.4375 45.871094 11.238281 45.964844 10.964844 C 46.058594 10.695312 46.105469 10.375 46.105469 10.023438 C 46.105469 9.65625 46.058594 9.351562 45.964844 9.078125 C 45.871094 8.808594 45.730469 8.605469 45.554688 8.464844 C 45.378906 8.324219 45.144531 8.242188 44.890625 8.242188 C 44.632812 8.242188 44.410156 8.3125 44.222656 8.453125 C 44.035156 8.59375 43.894531 8.808594 43.800781 9.066406 C 43.71875 9.335938 43.660156 9.65625 43.660156 10.023438 Z M 43.660156 10.023438 "/>
        <path style=" stroke:none;fill-rule:nonzero;fill:rgb(31.372549%,19.607843%,58.823529%);fill-opacity:1;" d="M 50.914062 5.328125 C 50.609375 5.328125 50.351562 5.222656 50.140625 5.019531 C 49.929688 4.820312 49.824219 4.574219 49.824219 4.289062 C 49.824219 4.007812 49.929688 3.769531 50.140625 3.570312 C 50.351562 3.371094 50.609375 3.277344 50.914062 3.277344 C 51.214844 3.277344 51.472656 3.382812 51.683594 3.570312 C 51.894531 3.769531 52 4.007812 52 4.289062 C 52 4.574219 51.894531 4.820312 51.683594 5.019531 C 51.460938 5.222656 51.203125 5.328125 50.914062 5.328125 Z M 50.914062 5.328125 "/>
        <path style=" stroke:none;fill-rule:nonzero;fill:rgb(31.372549%,19.607843%,58.823529%);fill-opacity:1;" d="M 51.964844 6.589844 L 49.835938 6.589844 L 49.835938 13.394531 L 51.964844 13.394531 Z M 51.964844 6.589844 "/>
        <path style=" stroke:none;fill-rule:nonzero;fill:rgb(98.039216%,19.607843%,58.823529%);fill-opacity:1;" d="M 8.234375 13.417969 C 8.785156 13.417969 9.285156 13.265625 9.730469 12.992188 C 9.964844 12.582031 10.09375 12.097656 10.09375 11.578125 C 10.09375 10 8.820312 8.710938 7.25 8.710938 L 5.683594 8.710938 L 5.683594 7.179688 C 5.683594 5.597656 4.410156 4.3125 2.84375 4.3125 C 2.316406 4.3125 1.8125 4.457031 1.390625 4.714844 C 1.15625 5.140625 1.015625 5.621094 1.015625 6.140625 L 1.015625 10.410156 C 1.015625 11.992188 2.410156 13.417969 3.976562 13.417969 Z M 8.234375 13.417969 "/>
        <path style=" stroke:none;fill-rule:nonzero;fill:rgb(31.372549%,19.607843%,58.823529%);fill-opacity:1;" d="M 8.234375 13.417969 L 3.976562 13.417969 C 2.410156 13.417969 1.015625 11.992188 1.015625 10.410156 L 1.015625 6.140625 C 1.015625 5.621094 1.15625 5.140625 1.390625 4.714844 C 0.5625 5.210938 0 6.128906 0 7.179688 L 0 11.238281 C 0 12.816406 1.578125 14.457031 3.144531 14.457031 L 7.25 14.457031 C 8.316406 14.457031 9.238281 13.867188 9.730469 12.992188 C 9.285156 13.265625 8.773438 13.417969 8.234375 13.417969 Z M 8.234375 13.417969 "/>
        <path style=" stroke:none;fill-rule:nonzero;fill:rgb(78.431373%,19.607843%,58.823529%);fill-opacity:1;" d="M 9.285156 12.378906 L 4.761719 12.378906 C 3.191406 12.378906 2.035156 11.355469 2.035156 9.515625 L 2.035156 5.105469 C 2.035156 4.574219 2.175781 4.078125 2.433594 3.652344 C 1.578125 4.148438 1.003906 5.082031 1.003906 6.140625 L 1.003906 10.410156 C 1.003906 11.992188 2.398438 13.417969 3.964844 13.417969 L 8.222656 13.417969 C 9.273438 13.417969 10.199219 12.851562 10.703125 12.003906 C 10.292969 12.238281 9.8125 12.378906 9.285156 12.378906 Z M 9.285156 12.378906 "/>
        <path style=" stroke:none;fill-rule:nonzero;fill:rgb(98.039216%,47.058824%,70.588235%);fill-opacity:1;" d="M 11.109375 10.421875 C 11.039062 8.890625 9.800781 7.675781 8.269531 7.675781 L 6.703125 7.675781 L 6.703125 6.175781 C 6.703125 4.539062 5.355469 3.207031 3.730469 3.277344 C 2.726562 3.324219 1.859375 3.890625 1.390625 4.714844 C 1.8125 4.457031 2.316406 4.3125 2.84375 4.3125 C 4.410156 4.3125 5.683594 5.597656 5.683594 7.179688 L 5.683594 8.710938 L 7.25 8.710938 C 8.820312 8.710938 10.09375 10 10.09375 11.578125 C 10.09375 12.085938 9.964844 12.570312 9.730469 12.992188 C 10.585938 12.476562 11.144531 11.507812 11.109375 10.421875 Z M 11.109375 10.421875 "/>
        <path style=" stroke:none;fill-rule:nonzero;fill:rgb(98.039216%,62.745098%,78.431373%);fill-opacity:1;" d="M 9.285156 6.648438 L 7.71875 6.648438 L 7.71875 5.117188 C 7.71875 3.535156 6.445312 2.25 4.878906 2.25 C 3.835938 2.25 2.925781 2.816406 2.421875 3.664062 C 2.808594 3.441406 3.25 3.300781 3.71875 3.277344 C 5.34375 3.207031 6.691406 4.539062 6.691406 6.175781 L 6.691406 7.675781 L 8.257812 7.675781 C 9.789062 7.675781 11.027344 8.890625 11.097656 10.421875 C 11.121094 11 10.972656 11.542969 10.703125 12.003906 C 11.554688 11.507812 12.128906 10.574219 12.128906 9.515625 C 12.128906 7.921875 10.867188 6.648438 9.285156 6.648438 Z M 9.285156 6.648438 "/>
        <path style=" stroke:none;fill-rule:nonzero;fill:rgb(98.039216%,62.745098%,78.431373%);fill-opacity:1;" d="M 2.128906 4.394531 C 2.199219 4.125 2.304688 3.878906 2.433594 3.652344 C 2 3.902344 1.636719 4.265625 1.390625 4.714844 C 1.613281 4.574219 1.859375 4.46875 2.128906 4.394531 Z M 2.128906 4.394531 "/>
        <path style=" stroke:none;fill-rule:nonzero;fill:rgb(98.039216%,62.745098%,78.431373%);fill-opacity:1;" d="M 10 12.285156 C 9.941406 12.535156 9.835938 12.769531 9.71875 12.992188 C 10.128906 12.746094 10.46875 12.402344 10.703125 12.003906 C 10.492188 12.132812 10.257812 12.226562 10 12.285156 Z M 10 12.285156 "/>
    </g>
</svg>