<?xml version="1.0" encoding="UTF-8"?>
<svg width="331px" height="94px" viewBox="0 0 331 94" version="1.1" xmlns="http://www.w3.org/2000/svg" xmlns:xlink="http://www.w3.org/1999/xlink">
    <!-- Generator: Sketch 52.4 (67378) - http://www.bohemiancoding.com/sketch -->
    <title>Combined Shape</title>
    <desc>Created with Sketch.</desc>
    <g id="Page-1" stroke="none" stroke-width="1" fill="none" fill-rule="evenodd">
        <path d="M264.762655,12.7469859 C264.754,16.088174 264.754,19.4292293 264.754,22.77 C264.754,36.502 264.811,61.725 264.811,63.966 C264.811,66.206 264.352,67.356 261.651,67.298 C257.285,67.183 253.722,65.977 251.309,61.783 C242.806,68.62 233.326,70.171 223.099,67.701 C214.94,65.747 208.677,60.978 203.736,54.313 C201.080034,50.739883 199.268042,46.7230469 198.273689,42.5258596 C197.129952,47.2259921 194.973436,51.7567279 191.786,55.807 C181.903,68.332 162.828,73.791 146.683,63.104 L146.683,84.822 C146.683,88.614 143.581,91.659 139.789,91.659 L139.789,91.66 L131.802,91.66 C131.802,91.66 131.745,16.335 131.745,4.844 C131.745,2.201 132.492,1.34 135.135,1.454 C139.501,1.627 143.064,2.891 145.247,6.855 C159.668,-4.693 180.122,-0.614 190.694,11.625 C194.505389,16.0379305 197.056094,21.1441585 198.319305,26.484016 C199.71265,20.6098146 202.614272,15.0205682 206.954,10.418 C217.813,-0.902 237.348,-4.348 251.424,6.913 C253.895,2.489 257.744,1.454 262.283,1.512 L265.099,1.512 C276.762,1.512 275.613,1.167 280.21,11.452 C285.323,22.942 290.322,34.434 295.55,46.385 C298.48,39.662 301.296,33.4 304.053,27.08 C306.352,21.794 310.488,12.026 312.959,6.223 C314.167884,3.36053576 316.976746,1.50333592 320.084,1.512 L331,1.512 C331,1.512 306.122,58.967 294.401,85.626 C290.954,93.67 284.059,95.566 276.303,90.396 L276.303,90.395 C279.175,83.788 283.082,74.997 285.093,70.631 C287.104,66.207 286.932,63.047 285.036,58.852 C278.153229,43.5732842 271.47763,28.1689659 264.762655,12.746986 Z M60.4292337,26.7775192 C52.2598377,45.6016101 41.3995801,70.583496 34.761,85.684 C31.256,93.67 24.361,95.566 16.605,90.395 C19.477,83.788 23.442,75.227 25.395,70.631 C27.349,66.034 27.234,63.047 25.338,58.852 C17.237,40.87 0,1.33981873 0,1.33981873 L5.056,1.34 C16.719,1.34 15.973,1.167 20.569,11.51 C25.683,23 30.681,34.49 35.909,46.441 C38.839,39.719 41.655,33.456 44.413,27.136 C46.711,21.85 50.848,12.083 53.319,6.28 C54.5270036,3.41712213 57.3357073,1.55937202 60.443,1.568 L71.359,1.568 C71.359,1.568 69.0834761,6.82343753 65.5846173,14.8929167 C66.6304645,13.3432761 67.8092351,11.8642074 69.119,10.475 C79.92,-0.901 99.455,-4.348 113.532,6.913 C116.002,2.489 119.909,1.455 124.448,1.455 C126.402,1.455 127.034,2.087 126.976,3.983 C126.919,10.245 126.919,50.234 126.976,64.023 C126.976,66.436 126.517,67.413 123.816,67.356 C119.45,67.241 115.887,66.034 113.474,61.84 C104.971,68.677 95.491,70.228 85.264,67.758 C77.104,65.804 70.842,61.036 65.901,54.371 C59.9802771,46.4057506 58.2536069,36.2354817 60.4292337,26.7775192 Z M164.724,54.026 C175.756,54.083 184.604,45.293 184.604,34.261 C184.604,23.575 175.756,14.727 165.126,14.669 C154.095,14.612 145.132,23.402 145.132,34.319 C145.075,45.178 153.808,53.969 164.724,54.026 Z M231.66,54.026 C242.806,54.141 251.482,45.523 251.539,34.376 C251.597,23.632 242.921,14.784 232.234,14.669 C221.318,14.554 212.297,23.173 212.125,33.974 C211.952,45.006 220.628,53.911 231.66,54.026 Z M93.767,54.026 C104.913,54.141 113.589,45.523 113.647,34.376 C113.704,23.632 105.028,14.784 94.341,14.669 C83.425,14.554 74.405,23.173 74.232,33.974 C74.06,45.006 82.736,53.911 93.767,54.026 Z" id="Combined-Shape" fill="#244785" fill-rule="nonzero"></path>
    </g>
</svg>