<svg width="88px" height="60px" viewBox="0 0 647 183" fill="none" xmlns="http://www.w3.org/2000/svg">
<path d="M158.165 119.271C150.672 116.088 144.046 111.64 138.287 105.858C132.527 100.192 128.031 93.5675 124.824 86.0299C121.593 78.4923 120 70.5327 120 62.1524C120 53.7715 121.616 45.7892 124.824 38.2042C128.031 30.6199 132.527 23.9476 138.287 18.1894C144.046 12.4305 150.672 7.95892 158.165 4.77535C165.658 1.59178 173.594 0 182.001 0C190.383 0 198.367 1.61515 205.953 4.82208C213.539 8.05308 220.165 12.5006 225.831 18.166C231.497 23.9242 235.946 30.5965 239.177 38.1808C242.385 45.7659 244 53.7481 244 62.1284C244 70.5093 242.408 78.4449 239.224 85.9598C236.04 93.4507 231.568 100.076 225.807 105.834C220.142 111.499 213.492 115.947 205.929 119.178C198.343 122.408 190.359 124 181.977 124C173.594 124.023 165.658 122.431 158.165 119.271ZM195.136 93.2163C199.233 91.4843 202.862 89.0499 205.999 85.9131C209.137 82.7762 211.549 79.1707 213.235 75.1211C214.92 71.0475 215.786 66.7402 215.786 62.1524C215.786 57.5874 214.92 53.2567 213.188 49.1831C211.455 45.1102 209.02 41.5287 205.882 38.3918C202.838 35.3485 199.233 32.9608 195.089 31.2048C190.944 29.4728 186.566 28.6061 182.001 28.6061C177.505 28.6061 173.197 29.4728 169.029 31.2048C164.885 32.9374 161.279 35.3251 158.235 38.3918C155.098 41.5287 152.663 45.1335 150.93 49.1831C149.198 53.2567 148.331 57.564 148.331 62.1524C148.331 66.7168 149.198 71.0475 150.93 75.1211C152.663 79.194 155.098 82.7996 158.235 85.9131C161.373 89.0499 164.978 91.4843 169.029 93.2163C173.103 94.949 177.411 95.815 182.001 95.815C186.637 95.815 191.038 94.949 195.136 93.2163Z" fill="url(#paint0_linear_3_556)"/>
<path d="M4.09488 119.493C1.37369 116.741 0.0130883 113.539 0.0130883 109.837C-0.151349 106.326 1.23285 103.053 4.21215 100.063L72.976 28.3491H15.5437C11.6493 28.3491 8.31821 26.9728 5.61992 24.2209C2.89872 21.469 1.53813 18.0771 1.53813 14.0436C1.53813 12.1463 1.8899 10.3431 2.61703 8.63526C3.34416 6.92674 4.33009 5.40905 5.61992 4.12748C8.3418 1.37559 11.6493 0 15.5437 0H103.78C105.234 0 106.876 0.355906 108.753 1.01967H108.871L109.387 1.28086L110.02 1.54205L111.287 2.32494L112.061 2.84662C113.938 4.05644 115.346 5.66955 116.331 7.68593C117.316 9.7023 117.785 11.7904 117.785 13.9252V14.4469C117.622 18.7408 116.097 22.1809 113.211 24.7433L44.5881 96.197H106.736C110.818 96.197 114.196 97.4778 116.918 100.063C119.639 102.649 121 105.899 121 109.837C121 113.775 119.639 117.144 116.918 119.873C114.196 122.624 110.794 124 106.736 124H14.3004C10.2887 124 6.88685 122.505 4.09488 119.493Z" fill="#002E73"/>
<path d="M259.331 163.656C257.973 162.381 256.919 160.823 256.147 158.981C255.375 157.14 255 155.204 255 153.15V62.6815C255 54.2292 256.615 46.179 259.823 38.5294C263.031 30.8805 267.526 24.1521 273.286 18.3442C279.046 12.5363 285.696 8.02667 293.235 4.816C300.774 1.60533 308.735 0 317.117 0C325.429 0 333.366 1.62889 340.953 4.86313C348.539 8.12162 355.165 12.607 360.831 18.3206C366.497 24.1278 370.946 30.8569 374.177 38.5058C377.385 46.1554 379 54.2057 379 62.6579C379 71.1095 377.408 79.1133 374.224 86.6915C371.04 94.2461 366.568 100.927 360.807 106.735C355.142 112.448 348.492 116.934 340.929 120.192C333.343 123.45 325.406 125.056 317.094 125.056C304.731 125.056 293.422 121.632 283.167 114.809V153.126C283.167 157.4 281.926 160.941 279.421 163.774C276.915 166.583 273.544 168 269.329 168C265.372 168 262.024 166.56 259.331 163.656ZM330.159 94.0098C334.256 92.263 337.885 89.8079 341.023 86.6444C344.16 83.4808 346.572 79.8446 348.258 75.7605C349.944 71.6522 350.81 67.3083 350.81 62.6815C350.81 58.0776 349.967 53.7101 348.258 49.6018C346.572 45.4942 344.137 41.8822 341.023 38.7186C337.979 35.6494 334.373 33.2414 330.229 31.4704C326.085 29.7236 321.706 28.8496 317.14 28.8496C312.575 28.8496 308.197 29.7236 304.052 31.4704C299.908 33.2178 296.302 35.6258 293.258 38.7186C290.121 41.8822 287.686 45.5177 285.953 49.6018C284.221 53.7101 283.354 58.054 283.354 62.6815C283.354 67.2847 284.221 71.6522 285.953 75.7605C287.686 79.8681 290.121 83.5044 293.258 86.6444C296.396 89.8079 300.001 92.263 304.122 94.0098C308.22 95.7572 312.575 96.6306 317.14 96.6306C321.73 96.6306 326.061 95.7572 330.159 94.0098Z" fill="#002E73"/>
<path d="M393.331 163.656C391.973 162.381 390.919 160.823 390.147 158.981C389.375 157.14 389 155.204 389 153.15V62.6815C389 54.2292 390.615 46.179 393.823 38.5294C397.031 30.8805 401.526 24.1521 407.286 18.3442C413.046 12.5363 419.696 8.02667 427.235 4.816C434.774 1.60533 442.735 0 451.117 0C459.429 0 467.366 1.62889 474.953 4.86313C482.539 8.12162 489.165 12.607 494.831 18.3206C500.497 24.1278 504.946 30.8569 508.177 38.5058C511.385 46.1554 513 54.2057 513 62.6579C513 71.1095 511.408 79.1133 508.224 86.6915C505.04 94.2461 500.568 100.927 494.807 106.735C489.142 112.448 482.492 116.934 474.929 120.192C467.343 123.45 459.406 125.056 451.094 125.056C438.731 125.056 427.422 121.632 417.167 114.809V153.126C417.167 157.4 415.926 160.941 413.421 163.774C410.915 166.583 407.544 168 403.329 168C399.372 168 396.024 166.56 393.331 163.656ZM464.159 94.0098C468.256 92.263 471.885 89.8079 475.023 86.6444C478.16 83.4808 480.572 79.8446 482.258 75.7605C483.944 71.6522 484.81 67.3083 484.81 62.6815C484.81 58.0776 483.967 53.7101 482.258 49.6018C480.572 45.4942 478.137 41.8822 475.023 38.7186C471.979 35.6494 468.373 33.2414 464.229 31.4704C460.085 29.7236 455.706 28.8496 451.14 28.8496C446.575 28.8496 442.197 29.7236 438.052 31.4704C433.908 33.2178 430.302 35.6258 427.258 38.7186C424.121 41.8822 421.686 45.5177 419.953 49.6018C418.221 53.7101 417.354 58.054 417.354 62.6815C417.354 67.2847 418.221 71.6522 419.953 75.7605C421.686 79.8681 424.121 83.5044 427.258 86.6444C430.396 89.8079 434.001 92.263 438.122 94.0098C442.22 95.7572 446.575 96.6306 451.14 96.6306C455.73 96.6306 460.061 95.7572 464.159 94.0098Z" fill="#002E73"/>
<path d="M642.843 4.22688C639.866 1.41636 636.487 0 632.664 0C628.772 0 625.414 1.41636 622.597 4.22688C619.877 6.966 618.517 10.3658 618.517 14.4748V61.5119C618.351 65.9509 617.317 70.1299 615.465 74.0732C613.591 78.0166 611.059 81.5113 607.84 84.5811C604.697 87.651 601.109 90.0358 597.071 91.6886C593.04 93.3656 588.863 94.192 584.52 94.192C580.017 94.192 575.723 93.2942 571.594 91.5C567.466 89.7051 563.851 87.226 560.708 84.0619C557.475 80.8978 554.984 77.2616 553.201 73.1054C551.418 68.9735 550.53 64.6281 550.53 60.0948V14.4748C550.53 10.4601 549.121 7.03671 546.325 4.22688C543.536 1.41636 540.185 0 536.265 0C532.373 0 529.015 1.41636 526.198 4.22688C523.408 7.03671 522 10.4601 522 14.4748V59.9534C522 68.5007 523.617 76.6002 526.836 84.2983C530.048 91.9957 534.551 98.7017 540.324 104.416C546.096 110.225 552.778 114.759 560.382 117.993C567.98 121.252 576.028 122.858 584.499 122.858C596.884 122.858 608.214 118.49 618.49 109.776V119.977C618.49 138.136 603.76 153.153 586.185 153.153C577.041 153.153 568.146 148.926 561.95 141.701C556.767 135.231 547.616 134.475 541.684 139.953C535.745 145.432 534.995 154.877 540.206 161.111C551.82 175.043 568.382 183 586.185 183C619.551 183 646.999 154.641 646.999 120.048V109.918V108.265V14.4041C647.047 10.4601 645.66 7.03671 642.843 4.22688Z" fill="#002E73"/>
<defs>
<linearGradient id="paint0_linear_3_556" x1="137.117" y1="19.0184" x2="226.123" y2="106.503" gradientUnits="userSpaceOnUse">
<stop stop-color="#00FFE6"/>
<stop offset="1" stop-color="#7B3DFF"/>
</linearGradient>
</defs>
</svg>
