<svg width="50" height="50" viewBox="0 0 50 50" fill="none" xmlns="http://www.w3.org/2000/svg">
<rect width="50" height="50" rx="10" fill="#356AE6"/>
<path d="M32.7813 22.9274C33.3031 23.2383 33.6286 23.7935 33.6436 24.3986V24.6846C33.6436 25.3374 33.3212 25.9485 32.7813 26.3192L25.3903 31.4193C21.8427 33.8712 17.8433 36.6255 17.3588 36.9688V37.3693L17.1207 36.977C17.1207 36.977 17.1207 36.977 17.1207 36.9116V34.7457C17.0344 34.0894 17.3871 33.4535 17.9912 33.1765C18.6235 32.7596 29.1269 25.5183 30.4983 24.5866C29.1187 23.6303 18.7713 16.487 18.0651 15.9721L17.9829 15.9067C17.4574 15.5308 17.0468 15.2365 17.0468 14.4519V12L17.2438 12.1389C17.8598 12.5639 32.3789 22.6332 32.7813 22.9356V22.9274Z" fill="white"/>
<path d="M23.7481 25.7275C23.3577 25.7169 22.9797 25.5887 22.664 25.3598C21.7525 24.755 17.1044 21.5348 17.0551 21.5021H17.0058V19.8429C16.9657 19.509 17.1351 19.1847 17.4329 19.0256C17.7616 18.8742 18.1486 18.9251 18.4266 19.1564C19.1246 19.6059 25.8914 24.2727 25.9654 24.3218L26.1132 24.428L25.9571 24.5343L24.9963 25.1881C24.635 25.4937 24.1808 25.6694 23.707 25.6867L23.7481 25.7275Z" fill="white"/>
</svg>
