<svg width="118" height="25" viewBox="0 0 118 25" fill="none" xmlns="http://www.w3.org/2000/svg">
<path d="M87.7843 2.28403C89.2762 2.32382 88.9381 2.02543 89.5349 3.59697C91.365 8.43096 93.1753 13.265 95.0054 18.099C95.2442 18.7156 95.2243 18.7156 94.5678 18.7156C94.3689 18.7156 94.15 18.7156 93.9511 18.7156C92.5984 18.6957 92.9366 18.9146 92.4392 17.6215C92.0812 16.6667 91.743 15.7118 91.4247 14.737C91.3252 14.4187 91.1462 14.2994 90.808 14.2994C88.8386 14.3193 86.8692 14.3193 84.8998 14.2994C84.5417 14.2994 84.3428 14.4386 84.2433 14.7569C83.8455 15.9107 83.4078 17.0645 83.01 18.2183C82.8707 18.6162 82.6519 18.7355 82.2739 18.7156C81.8562 18.6957 81.4384 18.7156 81.0405 18.7156C80.4637 18.7156 80.4438 18.6758 80.6427 18.1586C81.6174 15.5328 82.6121 12.9268 83.6067 10.3009C84.5218 7.85407 85.4767 5.42712 86.3719 2.98029C86.5708 2.44318 86.8095 2.18457 87.3864 2.26414C87.466 2.30393 87.6251 2.28403 87.7843 2.28403ZM87.8241 4.90991C87.7246 5.12873 87.6649 5.24809 87.6251 5.36745C86.9289 7.31696 86.2326 9.24658 85.5165 11.1961C85.0589 12.4096 85.1385 12.2305 86.2525 12.2504C87.4859 12.2504 88.7391 12.2504 89.9725 12.2504C90.3704 12.2504 90.4499 12.1112 90.3107 11.773C90.1913 11.4746 90.072 11.1563 89.9725 10.838C89.2564 8.8885 88.5601 6.95888 87.8241 4.90991Z" fill="#5F6368"/>
<path d="M104.594 17.2571C104.256 17.6152 103.997 17.9534 103.639 18.1921C101.391 19.7636 98.5665 19.326 96.7364 17.1378C94.6277 14.6511 94.8068 9.91661 98.109 7.80795C100.138 6.51491 102.903 6.91277 104.455 8.76282C104.475 8.8026 104.534 8.8225 104.574 8.84239C104.574 6.91277 104.574 5.00304 104.574 3.07342C104.574 2.25781 104.574 2.25781 105.39 2.25781C106.703 2.25781 106.703 2.25781 106.703 3.57075C106.703 8.36496 106.703 13.1791 106.703 17.9733C106.703 18.7093 106.703 18.7093 106.007 18.7093C104.733 18.7093 104.733 18.7093 104.674 17.4759C104.654 17.4362 104.634 17.3765 104.594 17.2571ZM101.312 17.098C102.088 17.098 102.824 16.8195 103.5 16.1033C104.594 14.9893 104.773 13.6167 104.554 12.1645C104.316 10.6129 103.241 9.43918 101.789 9.12089C100.436 8.8225 98.9445 9.41929 98.1886 10.7123C97.2536 12.2839 97.2536 13.935 98.2085 15.5065C98.8251 16.5609 99.8198 17.1179 101.312 17.098Z" fill="#5F6368"/>
<path d="M112.869 19.1274C110.9 19.187 109.388 18.2322 108.314 16.4617C107.995 15.9445 108.035 15.8649 108.592 15.6262C108.891 15.5068 109.189 15.4074 109.467 15.2681C109.826 15.0692 110.024 15.1488 110.223 15.5068C110.979 16.8994 112.392 17.4961 113.904 17.0585C114.083 16.9988 114.262 16.9391 114.441 16.8397C114.918 16.5612 115.276 16.1633 115.256 15.5864C115.236 15.0294 114.898 14.6514 114.421 14.4127C113.804 14.1143 113.148 14.0149 112.491 13.8557C111.536 13.6369 110.641 13.3584 109.786 12.8412C108.055 11.7869 107.956 9.32013 109.686 8.06687C111.536 6.69425 114.441 6.73404 116.231 8.18623C116.629 8.50452 116.907 8.94216 117.146 9.37981C117.266 9.59863 117.246 9.75777 116.967 9.85724C116.808 9.91692 116.649 9.99649 116.49 10.0562C116.171 10.1755 115.873 10.3745 115.555 10.3943C115.177 10.4142 115.117 9.9567 114.898 9.71799C114.043 8.8228 111.914 8.74323 111.019 9.57874C110.442 10.1158 110.601 11.0508 111.337 11.4089C112.014 11.7471 112.77 11.8266 113.486 12.0057C114.202 12.1847 114.918 12.3041 115.575 12.6423C117.902 13.8159 118.121 16.7601 115.972 18.2521C115.097 18.9085 114.083 19.1274 112.869 19.1274Z" fill="#5F6368"/>
<path d="M15.9905 2.62552C15.3738 3.26209 14.7771 3.85888 14.1604 4.47556C13.9416 4.29653 13.6829 4.07771 13.4243 3.89867C9.38606 0.9744 3.637 3.50081 2.92085 8.51384C2.36384 12.1344 4.57197 15.6554 8.09302 16.3915C10.6393 16.9286 12.9071 16.3517 14.6378 14.243C15.2943 13.4473 15.5728 12.4725 15.6921 11.3784C13.6432 11.3784 11.6141 11.3784 9.58499 11.3784C9.58499 10.4832 9.58499 9.62785 9.58499 8.75256H18.2185C19.0342 13.5468 16.5873 17.9829 11.7533 18.9776C8.17259 19.7136 5.0295 18.7587 2.5031 16.0334C-1.39593 11.836 -0.639994 5.03257 4.07464 1.77012C7.5957 -0.676718 11.9722 -0.577253 15.2943 2.00884C15.533 2.20776 15.7717 2.42659 15.9905 2.62552ZM54.9012 8.23534C54.9012 7.85737 54.9012 7.55898 54.9012 7.26058H57.4674V7.71812C57.4674 11.2989 57.4674 14.8796 57.4674 18.4603C57.4674 19.8329 57.2287 21.1459 56.4926 22.3395C55.5179 23.911 54.0458 24.5675 52.2952 24.7664C49.8484 25.025 47.4811 23.6723 46.4268 21.4244C46.387 21.3448 46.3671 21.2652 46.3074 21.1061C47.0832 20.7679 47.8392 20.4496 48.5354 20.1512C48.9333 20.6486 49.2715 21.1658 49.7091 21.5636C50.7436 22.4787 51.9371 22.5384 53.1506 22.0212C54.2845 21.5437 54.7619 20.5491 54.8813 19.3555C54.9211 18.8781 54.8813 18.4007 54.8813 17.8238C54.2447 18.52 53.5286 18.9577 52.6732 19.1168C50.2661 19.5544 48.3564 18.6195 46.944 16.67C44.4375 13.1688 46.2477 8.09609 50.3457 7.04176C52.0167 6.58422 53.5485 6.90251 54.9012 8.23534ZM55.12 13.0097C55.0603 12.6317 55.0404 12.2537 54.941 11.8956C54.563 10.6225 53.827 9.66763 52.4941 9.38913C51.3006 9.13052 50.2462 9.52838 49.4306 10.4634C48.237 11.8161 48.1973 14.0839 49.3113 15.5162C50.4849 17.0081 52.5737 17.2071 53.9463 15.9339C54.7818 15.1382 55.1001 14.1237 55.12 13.0097Z" fill="#4285F4"/>
<path d="M25.3203 19.2064C21.8589 19.2064 19.233 16.5208 19.2529 12.9799C19.2529 9.49858 21.8987 6.83292 25.3601 6.85281C28.8413 6.85281 31.4672 9.53837 31.4473 13.0793C31.4473 16.5407 28.7817 19.2064 25.3203 19.2064ZM25.3601 9.31954C24.6638 9.29965 24.0471 9.49858 23.4901 9.89644C21.7992 11.0701 21.4213 13.5965 22.6546 15.3471C23.709 16.8192 25.6983 17.1972 27.1703 16.1826C28.0854 15.566 28.5628 14.6509 28.7021 13.5766C29.0403 11.1099 27.3096 9.25987 25.3601 9.31954ZM74.3366 16.4611C73.2624 18.0128 71.85 18.9279 70.0397 19.1865C67.3343 19.5446 64.788 18.0924 63.7337 15.566C62.4804 12.582 63.6342 8.94158 66.28 7.52917C69.2241 5.95763 72.6059 7.19099 73.9785 10.3341C74.1377 10.7121 74.2769 11.09 74.456 11.5078C73.1033 12.0847 71.7505 12.6417 70.3978 13.2186C69.0451 13.7955 67.7123 14.3525 66.3595 14.9294C67.195 17.038 70.557 17.6746 72.2677 15.0885C72.9441 15.5262 73.6205 15.9837 74.3366 16.4611ZM65.9219 12.8008C67.6924 12.0449 69.4628 11.3088 71.2333 10.5529C70.8752 9.57815 69.6419 9.04104 68.4284 9.31954C66.9165 9.65773 65.7826 11.2293 65.9219 12.8008Z" fill="#EA4335"/>
<path d="M38.609 19.2013C35.1476 19.2013 32.5217 16.5157 32.5416 12.9748C32.5416 9.49353 35.1874 6.82787 38.6488 6.84777C42.13 6.84777 44.7559 9.53332 44.736 13.0743C44.7161 16.5356 42.0505 19.2013 38.609 19.2013ZM38.6488 9.31449C37.9525 9.2946 37.3358 9.49353 36.7788 9.89139C35.0879 11.0651 34.71 13.5915 35.9433 15.3421C36.9976 16.8141 38.9869 17.1921 40.459 16.1776C41.3741 15.5609 41.8515 14.6458 41.9908 13.5716C42.329 11.1049 40.5983 9.25482 38.6488 9.31449Z" fill="#FBBC05"/>
<path d="M61.9237 0.6875V18.7901C61.0484 18.7901 60.193 18.7901 59.2978 18.7901C59.2978 12.7625 59.2978 6.75486 59.2978 0.6875H61.9237Z" fill="#34A853"/>
</svg>
