<?xml version="1.0" encoding="UTF-8"?>
<svg width="124px" height="48px" viewBox="0 0 124 48" version="1.1" xmlns="http://www.w3.org/2000/svg" xmlns:xlink="http://www.w3.org/1999/xlink">
    <!-- Generator: Sketch 52.4 (67378) - http://www.bohemiancoding.com/sketch -->
    <title>Artboard</title>
    <desc>Created with Sketch.</desc>
    <g id="Artboard" stroke="none" stroke-width="1" fill="none" fill-rule="evenodd">
        <path d="M74.0859565,0.0866666667 C74.6345217,1.66266667 75.183087,3.24 75.7316522,4.816 C76.7573478,7.75866667 77.7830435,10.7026667 78.810087,13.6453333 C80.1296087,17.4253333 81.4504783,21.2066667 82.7713478,24.9866667 C82.792913,25.0493333 82.809087,25.1133333 82.8360435,25.2 C82.7605652,25.2173333 82.6985652,25.2426667 82.6365652,25.2426667 C81.0663478,25.2453333 79.4961304,25.2453333 77.925913,25.244 C77.6954348,25.244 77.6927391,25.2386667 77.6118696,24.988 C77.167087,23.6013333 76.7398261,22.208 76.2775217,20.8266667 C74.9027391,16.7266667 73.5158261,12.632 72.1316087,8.53466667 C72.0992609,8.44 72.0561304,8.34933333 71.9806522,8.256 C71.6652609,8.83333333 71.4698261,9.44266667 71.2339565,10.0373333 C70.9926957,10.648 70.7595217,11.2613333 70.5236522,11.8733333 C70.2918261,12.4773333 70.06,13.0813333 69.8281739,13.684 C69.5963478,14.288 69.3631739,14.8906667 69.1313478,15.4946667 C68.8954783,16.108 68.6609565,16.72 68.425087,17.3333333 C68.1932609,17.9373333 67.9587391,18.54 67.726913,19.1426667 C67.495087,19.7466667 67.2673043,20.352 67.030087,20.9533333 C66.7901739,21.564 66.5408261,22.1706667 66.2941739,22.78 C66.052913,23.3773333 65.813,23.9733333 65.5474783,24.6306667 C65.4895217,24.5066667 65.4531304,24.444 65.4302174,24.3773333 C64.8102174,22.5906667 64.1915652,20.804 63.5715652,19.016 C63.4071304,18.5413333 63.2507826,18.0653333 63.0728696,17.596 C62.9812174,17.3546667 62.9879565,17.144 63.0944348,16.904 C63.9206522,15.0306667 64.736087,13.1533333 65.5528696,11.276 C66.4397391,9.23866667 67.3225652,7.20133333 68.2094348,5.16533333 C68.8995217,3.58 69.5936522,1.99733333 70.2837391,0.412 C70.3295652,0.306666667 70.3605652,0.194666667 70.3996522,0.0866666667 C71.6288696,0.0866666667 72.858087,0.0866666667 74.0859565,0.0866666667 Z M123.214217,34.236 C123.173783,34.6026667 123.177826,34.6026667 122.80313,34.6133333 L119.227348,34.6133333 C119.159957,34.6133333 119.092565,34.612 119.025174,34.6133333 C118.761,34.6173333 118.752913,34.6173333 118.715174,34.872 C118.619478,35.5293333 118.527826,36.188 118.437522,36.8466667 C118.325652,37.664 118.21513,38.4826667 118.105957,39.3013333 C117.981957,40.232 117.862,41.164 117.738,42.096 C117.636913,42.848 117.53313,43.6013333 117.430696,44.3533333 C117.321522,45.152 117.213696,45.952 117.10587,46.752 C117.064087,47.0626667 117.025,47.3733333 116.985913,47.684 C116.968391,47.824 116.910435,47.9093333 116.748696,47.9093333 C115.681217,47.9066667 114.615087,47.908 113.547609,47.9053333 C113.511217,47.9053333 113.476174,47.888 113.399348,47.868 C113.678348,45.664 113.991043,43.4693333 114.279478,41.272 C114.569261,39.0706667 114.87387,36.872 115.17713,34.6333333 C115.023478,34.624 114.914304,34.6106667 114.803783,34.6106667 C112.543478,34.6093333 110.284522,34.6093333 108.025565,34.6093333 L103.814957,34.6093333 C103.73813,34.6093333 103.661304,34.612 103.584478,34.6106667 C103.456435,34.608 103.393087,34.664 103.375565,34.792 C103.323,35.196 103.261,35.6 103.205739,36.004 C103.116783,36.652 103.027826,37.3013333 102.942913,37.9506667 C102.926739,38.0693333 102.928087,38.1906667 102.92,38.3506667 C104.071043,38.384 105.192435,38.3613333 106.312478,38.3653333 C107.425783,38.3693333 108.539087,38.3666667 109.694174,38.3666667 C109.655087,38.7053333 109.624087,39.0133333 109.585,39.32 C109.518957,39.828 109.443478,40.3346667 109.38013,40.844 C109.341043,41.1586667 109.332957,41.1746667 109.010826,41.1746667 L102.925391,41.1746667 C102.506217,41.1746667 102.508913,41.1813333 102.455,41.5973333 C102.332348,42.5386667 102.200261,43.4786667 102.074913,44.42 C102.047957,44.6253333 102.030435,44.832 102.004826,45.0706667 C102.161174,45.0813333 102.291913,45.0986667 102.421304,45.0986667 C104.833913,45.1 107.246522,45.1 109.65913,45.1 C109.772348,45.1 109.885565,45.1 110.036522,45.1 C110.001478,45.4133333 109.974522,45.6933333 109.93813,45.972 C109.868043,46.5093333 109.791217,47.044 109.722478,47.5813333 C109.683391,47.888 109.667217,47.908 109.346435,47.908 C104.645217,47.908 99.944,47.9053333 95.2427826,47.9133333 C95.0015217,47.9133333 94.8869565,47.8253333 94.7831739,47.624 C93.7143478,45.5586667 92.6374348,43.4986667 91.5605217,41.4386667 C91.4297826,41.188 91.2882609,40.9413333 91.1346087,40.66 C91.0362174,40.7346667 90.9580435,40.784 90.892,40.8453333 C90.2113478,41.4773333 89.5374348,42.1133333 88.8527391,42.74 C88.6883043,42.8906667 88.6006957,43.06 88.5737391,43.2773333 C88.474,44.088 88.3675217,44.8986667 88.2637391,45.708 C88.1815217,46.3493333 88.1033478,46.9893333 88.0143913,47.6293333 C87.9766522,47.9 87.9591304,47.908 87.6841739,47.908 C85.4346522,47.9093333 83.1851304,47.9053333 80.9356087,47.9146667 C80.7064783,47.9146667 80.6175217,47.82 80.5393478,47.6333333 C79.8398261,45.9453333 79.1322174,44.26 78.4273043,42.5746667 C78.3086957,42.2933333 78.1833478,42.0146667 78.0755217,41.7306667 C78.0027391,41.536 77.8935652,41.448 77.6711739,41.4546667 C77.0754348,41.472 76.4783478,41.464 75.8826087,41.4693333 C75.6211304,41.4706667 75.6036087,41.48 75.5658696,41.7293333 C75.4674783,42.3666667 75.3771739,43.0066667 75.2868696,43.6453333 C75.1413043,44.6706667 74.9997826,45.6946667 74.8555652,46.72 C74.811087,47.04 74.7666087,47.36 74.7167391,47.6786667 C74.6816957,47.9013333 74.6776522,47.9013333 74.4417826,47.9066667 C74.4026957,47.908 74.3649565,47.9066667 74.3258696,47.9066667 L68.5571739,47.9066667 C68.1905652,47.9053333 68.1959565,47.904 68.115087,47.54 C67.7538696,45.9173333 67.3899565,44.296 67.0260435,42.6733333 C67.0071739,42.5946667 66.9775217,42.5173333 66.9478696,42.4226667 C66.8481304,42.4493333 66.774,42.4613333 66.7052609,42.4893333 C65.3291304,43.0453333 64.0123043,43.7053333 62.828913,44.604 C62.0377391,45.2053333 61.3355217,45.892 60.8233478,46.7466667 C60.6427391,47.048 60.4944783,47.3693333 60.3516087,47.6906667 C60.2842174,47.84 60.2114348,47.9106667 60.0348696,47.9106667 C57.9295652,47.9053333 55.8242609,47.908 53.7189565,47.9066667 C53.6461739,47.9066667 53.5720435,47.8906667 53.466913,47.8786667 C53.8604783,44.9333333 54.2742609,42.0106667 54.6664783,39.0506667 C54.4885652,39.092 54.4535217,39.2 54.3982609,39.28 C53.7486087,40.2333333 53.1016522,41.1906667 52.4533478,42.1453333 C51.9991304,42.8173333 51.5381739,43.4853333 51.0893478,44.16 C50.9882609,44.3106667 50.8763913,44.3773333 50.6903913,44.3746667 C50.065,44.364 49.4396087,44.3626667 48.8155652,44.3746667 C48.6106957,44.3786667 48.506913,44.308 48.4273913,44.1213333 C47.7251739,42.4866667 47.0135217,40.8546667 46.3032174,39.2226667 C46.2627826,39.1293333 46.2115652,39.0413333 46.1387826,38.8973333 C46.0902609,39.0053333 46.0525217,39.0573333 46.0444348,39.1133333 C45.8840435,40.2893333 45.7317391,41.4653333 45.5713478,42.6413333 C45.4082609,43.836 45.2397826,45.0293333 45.0753478,46.224 C45.0093043,46.704 44.9473043,47.184 44.8839565,47.664 C44.8556522,47.88 44.834087,47.9053333 44.6130435,47.9053333 C43.5752174,47.908 42.5360435,47.9066667 41.4982174,47.9053333 C41.4429565,47.9053333 41.3876957,47.888 41.2960435,47.8733333 C41.9564783,42.9933333 42.6155652,38.128 43.2786957,33.232 C43.2706087,33.232 43.267913,33.236 43.2611739,33.2373333 L43.4579565,31.776 C44.4566957,31.7773333 45.4567826,31.7813333 46.4568696,31.784 C46.7897826,31.784 46.7897826,31.7866667 46.911087,32.0946667 C47.9044348,34.6173333 48.8977826,37.1413333 49.8924783,39.664 C49.9423478,39.792 50.0016522,39.916 50.0838696,40.1026667 C50.1903478,39.9626667 50.2617826,39.88 50.3224348,39.7893333 C51.4087826,38.1853333 52.4924348,36.58 53.5774348,34.976 C54.2405652,33.996 54.9104348,33.0213333 55.5668261,32.0373333 C55.6921739,31.8493333 55.8336957,31.776 56.0614783,31.7786667 C56.9833913,31.7893333 57.9066522,31.7826667 58.829913,31.7826667 C58.869,31.7826667 58.908087,31.7826667 58.9458261,31.784 C59.1655217,31.796 59.201913,31.8346667 59.1736087,32.0413333 C59.0293913,33.0853333 58.8811304,34.1293333 58.7396087,35.1733333 C58.5563043,36.528 58.3824348,37.884 58.1991304,39.2386667 C58.0562609,40.2933333 57.9039565,41.3453333 57.761087,42.3986667 C57.6128261,43.4906667 57.4726522,44.5826667 57.3311304,45.6746667 C57.3243913,45.7253333 57.3297826,45.7786667 57.3297826,45.856 C57.4645652,45.812 57.4874783,45.7133333 57.5292609,45.6346667 C58.0441304,44.6573333 58.5576522,43.6786667 59.0725217,42.7 C60.5133478,39.9586667 61.9555217,37.2186667 63.3963478,34.4786667 C63.8182174,33.6773333 64.2454783,32.88 64.6565652,32.0733333 C64.7657391,31.8573333 64.9018696,31.772 65.1471739,31.7773333 C65.8574783,31.792 66.5691304,31.7813333 67.2807826,31.7826667 C67.6258261,31.784 67.6312174,31.784 67.7215217,32.128 C68.0894783,33.5346667 68.4520435,34.9426667 68.8173043,36.3493333 C69.6138696,39.4213333 70.4117826,42.4933333 71.2110435,45.5653333 C71.2353043,45.66 71.2757391,45.7506667 71.3269565,45.8946667 C71.4900435,45.592 71.4698261,45.32 71.5075652,45.064 C71.6234783,44.284 71.7191739,43.5026667 71.8243043,42.7213333 C71.9321304,41.912 72.0426522,41.1026667 72.1518261,40.2933333 C72.252913,39.5413333 72.3566957,38.788 72.4591304,38.036 C72.5696522,37.2266667 72.6761304,36.4173333 72.7866522,35.608 C72.889087,34.8466667 72.996913,34.084 73.1006957,33.3226667 C73.1505652,32.956 73.1977391,32.588 73.2462609,32.2213333 C73.253,32.164 73.2583913,32.108 73.2691739,32.052 C73.3203913,31.796 73.3284783,31.784 73.5832174,31.784 C75.8610435,31.788 78.1402174,31.7773333 80.4180435,31.8066667 C81.3008696,31.8173333 82.1459565,32.052 82.9236522,32.484 C83.7943478,32.9693333 84.4170435,33.6773333 84.7796087,34.5933333 C85.2688696,35.8266667 85.343,37.072 84.7998261,38.3106667 C84.3698696,39.288 83.6406957,40.004 82.716087,40.5266667 C82.4006957,40.7053333 82.0583478,40.8373333 81.7281304,40.9906667 C81.6593913,41.0226667 81.5893043,41.0493333 81.4882174,41.092 C81.5165217,41.1853333 81.5326957,41.276 81.569087,41.3573333 C82.0313913,42.3706667 82.4963913,43.384 82.9600435,44.396 C83.3886522,45.3306667 83.8172609,46.2666667 84.2472174,47.2 C84.2930435,47.2973333 84.3496522,47.3906667 84.4008696,47.4853333 C84.4251304,47.4813333 84.4507391,47.4773333 84.475,47.4733333 C84.4992609,47.348 84.5275652,47.224 84.545087,47.0973333 C84.6771739,46.1373333 84.807913,45.1786667 84.9359565,44.2186667 C85.0599565,43.2866667 85.179913,42.3546667 85.3052609,41.4226667 C85.4265652,40.52 85.5559565,39.6173333 85.6799565,38.7146667 C85.785087,37.9426667 85.8861739,37.172 85.9913043,36.4 C86.0977826,35.6093333 86.2083043,34.82 86.3147826,34.0293333 C86.4023913,33.38 86.4873043,32.7306667 86.5708696,32.0813333 C86.6032174,31.8266667 86.636913,31.7853333 86.8916522,31.784 C87.8903913,31.7813333 88.8904783,31.7826667 89.8905652,31.784 C89.9646957,31.784 90.0388261,31.8013333 90.139913,31.8146667 C89.8622609,33.9986667 89.5293478,36.1573333 89.2557391,38.3226667 C89.2813478,38.3346667 89.3069565,38.3466667 89.3325652,38.3586667 C89.4013043,38.3013333 89.474087,38.248 89.5374348,38.1853333 C90.6399565,37.0853333 91.7424783,35.9826667 92.845,34.8813333 C93.806,33.9213333 94.7696957,32.9653333 95.719913,31.996 C95.9045652,31.808 96.1013478,31.7786667 96.339913,31.7786667 C104.91613,31.7813333 113.491,31.7813333 122.067217,31.7813333 C122.432478,31.7813333 122.797739,31.78 123.163,31.7813333 C123.493217,31.7826667 123.528261,31.8173333 123.490522,32.1466667 C123.452783,32.4773333 123.402913,32.8053333 123.358435,33.1346667 C123.308565,33.5013333 123.256,33.868 123.214217,34.236 Z M66.5462174,41.724 C66.7713043,41.6946667 66.7955652,41.6586667 66.743,41.42 C66.424913,39.976 66.1041304,38.532 65.7833478,37.088 C65.7644783,37.0013333 65.7321304,36.9173333 65.7011304,36.8186667 C65.6431739,36.8493333 65.6081304,36.856 65.5986957,36.876 C64.697,38.7 63.7966522,40.524 62.899,42.3493333 C62.8787826,42.3893333 62.8801304,42.4373333 62.8693478,42.4973333 C62.9246087,42.5093333 62.9434783,42.5186667 62.961,42.516 C63.0081739,42.5066667 63.054,42.4946667 63.0998261,42.48 C64.2252609,42.1266667 65.3749565,41.876 66.5462174,41.724 Z M79.7266087,38.692 C80.6983913,38.4706667 81.3655652,37.904 81.5677391,36.9146667 C81.7092609,36.2306667 81.5758261,35.5866667 81.0218696,35.092 C80.6485217,34.7586667 80.1862174,34.62 79.6983043,34.6106667 C78.7103478,34.592 77.7210435,34.6026667 76.7317391,34.604 C76.6589565,34.604 76.5861739,34.624 76.4972174,34.6373333 C76.3004348,36.012 76.1023043,37.3693333 75.9351739,38.7613333 C76.0955652,38.776 76.2155217,38.7973333 76.3368261,38.7973333 C77.1630435,38.8013333 77.9892609,38.808 78.8141304,38.7946667 C79.120087,38.7893333 79.430087,38.76 79.7266087,38.692 Z M98.1581304,46.5106667 C98.2632609,46.248 100.13,32.4626667 100.085522,32.1546667 C99.9736522,32.2546667 99.8941304,32.3186667 99.8226957,32.3906667 C99.3738696,32.8466667 98.9277391,33.3053333 98.478913,33.7626667 C97.1472609,35.1186667 95.8142609,36.476 94.4812609,37.832 C94.3073913,38.0093333 94.1375652,38.1906667 93.9569565,38.3613333 C93.8302609,38.48 93.8127391,38.5986667 93.907087,38.74 C93.9340435,38.78 93.9515652,38.8253333 93.9744783,38.8666667 C94.8168696,40.436 95.6606087,42.0053333 96.503,43.5746667 C96.9949565,44.4893333 97.4855652,45.404 97.9788696,46.3173333 C98.0206522,46.3946667 98.0368261,46.5026667 98.1581304,46.5106667 Z" id="Combined-Shape" fill="#0075BE"></path>
        <path d="M41.1639565,25.2346667 C41.2623478,25.0013333 41.3432174,24.808 41.4267826,24.6146667 C43.555,19.7506667 45.6845652,14.8866667 47.8127826,10.0226667 C49.1943043,6.86533333 50.5785217,3.70933333 51.9533043,0.549333333 C52.0436087,0.341333333 52.1527826,0.258666667 52.3859565,0.261333333 C53.692,0.272 54.9993913,0.265333333 56.3054348,0.266666667 C56.6006087,0.266666667 56.6033043,0.269333333 56.707087,0.566666667 C57.7341304,3.508 58.7598261,6.44933333 59.7855217,9.39066667 C61.256,13.6066667 62.7251304,17.824 64.1956087,22.04 C64.5285217,22.996 64.8627826,23.952 65.1956957,24.9093333 C65.2266957,24.9986667 65.2523043,25.0906667 65.294087,25.2253333 C65.1633478,25.236 65.0528261,25.2506667 64.9436522,25.2506667 C63.6268261,25.252 62.3113478,25.252 60.9945217,25.252 C60.4877391,25.252 59.9823043,25.252 59.4526087,25.252 C59.4027391,25.1213333 59.3488261,25 59.3097391,24.8746667 C58.5428261,22.4173333 57.7772609,19.96 57.0103478,17.5026667 C56.9685652,17.3666667 56.9146522,17.2333333 56.8593913,17.08 C56.7650435,17.1066667 56.6895652,17.1186667 56.6221739,17.1466667 C54.5936957,18.0173333 52.6568696,19.044 50.9303043,20.4266667 C49.7617391,21.3626667 48.740087,22.4306667 48.0068696,23.7413333 C47.7763913,24.1533333 47.593087,24.592 47.4043913,25.024 C47.3396957,25.1733333 47.275,25.256 47.0916957,25.2546667 C45.1804783,25.248 43.2692609,25.2506667 41.3580435,25.2506667 C41.3108696,25.2506667 41.2636957,25.244 41.1639565,25.2346667 Z M54.1529565,8.524 C54.0046957,8.69466667 50.6647826,16.94 50.6297391,17.244 C50.7106087,17.2253333 50.7847391,17.2173333 50.8521304,17.1933333 C52.5746522,16.5613333 54.3456957,16.1146667 56.1612174,15.84 C56.2528696,15.8266667 56.3404783,15.792 56.4240435,15.768 C56.3863043,15.416 54.2756087,8.70666667 54.1529565,8.524 Z M43.2544348,33.236 C43.0913478,33.272 43.0563043,33.3866667 43.0037391,33.4693333 C42.2624348,34.5693333 41.5251739,35.6706667 40.7865652,36.772 C39.8511739,38.1666667 38.927913,39.568 37.975,40.9506667 C37.7256522,41.312 37.6097391,41.688 37.5571739,42.1093333 C37.4210435,43.192 37.2646957,44.2733333 37.1164348,45.356 C37.0126522,46.1186667 36.9088696,46.8813333 36.8064348,47.644 C36.774087,47.884 36.7552174,47.9093333 36.5274348,47.9093333 C35.4896087,47.912 34.4504348,47.9106667 33.4126087,47.9093333 C33.3573478,47.9093333 33.3007391,47.896 33.2077391,47.884 C33.2346957,47.6373333 33.2576087,47.4053333 33.2886087,47.1746667 C33.4341739,46.092 33.5824348,45.0106667 33.7320435,43.928 C33.8385217,43.1573333 33.945,42.3853333 34.0568696,41.6146667 C34.0865217,41.412 34.0676522,41.2253333 33.9827391,41.0333333 C32.9273913,38.648 31.8787826,36.26 30.8274783,33.8733333 C30.7789565,33.7653333 30.7223478,33.6626667 30.6455217,33.5093333 C30.4945652,33.8106667 30.5080435,34.08 30.4716522,34.3346667 C30.2910435,35.5946667 30.1252609,36.856 29.9554348,38.1173333 C29.7748261,39.4626667 29.5982609,40.8106667 29.4163043,42.156 C29.2532174,43.3613333 29.0833913,44.5653333 28.9189565,45.7693333 C28.8340435,46.3906667 28.7531739,47.012 28.6723043,47.6333333 C28.6399565,47.884 28.6224348,47.908 28.3717391,47.908 C27.5253043,47.9106667 26.6802174,47.9026667 25.8337826,47.9133333 C25.645087,47.916 25.5655652,47.8253333 25.4846957,47.6813333 C24.5803043,46.0693333 23.6705217,44.46 22.762087,42.8493333 C21.9668696,41.4386667 21.173,40.0266667 20.3764348,38.616 C20.327913,38.528 20.2686087,38.4453333 20.1958261,38.332 C20.0421739,38.592 20.0664348,38.8453333 20.0327391,39.0813333 C19.8157391,40.5946667 19.6108696,42.1106667 19.4046522,43.6253333 C19.2415652,44.8213333 19.0838696,46.016 18.9207826,47.212 C18.8911304,47.436 18.8493478,47.6573333 18.8075652,47.9093333 L18.4706087,47.9093333 L12.6439565,47.9093333 C12.6048696,47.9093333 12.5657826,47.9053333 12.5280435,47.9093333 C12.3622609,47.9253333 12.2935217,47.848 12.2598261,47.688 C12.1358261,47.0933333 11.997,46.5013333 11.864913,45.908 C11.6344348,44.88 11.4053043,43.8506667 11.1748261,42.8213333 C11.1546087,42.732 11.120913,42.6453333 11.089913,42.5493333 C11.0184783,42.568 10.9713043,42.5733333 10.9281739,42.5906667 C9.53721739,43.1546667 8.19208696,43.8026667 6.99252174,44.7133333 C6.23908696,45.2853333 5.57326087,45.9413333 5.08534783,46.7533333 C4.90473913,47.0546667 4.75782609,47.3773333 4.61765217,47.6986667 C4.55026087,47.8533333 4.4693913,47.9133333 4.29686957,47.912 C3.11482609,47.9066667 1.93143478,47.912 0.749391304,47.912 C0.676608696,47.912 0.603826087,47.8973333 0.498695652,47.8853333 C0.549913043,47.7746667 0.583608696,47.6893333 0.62673913,47.608 C1.6996087,45.5573333 2.77247826,43.5066667 3.84804348,41.4573333 C5.43847826,38.4293333 7.03026087,35.4026667 8.62069565,32.376 C8.69617391,32.232 8.77704348,32.092 8.84578261,31.9453333 C8.90104348,31.8266667 8.98595652,31.7746667 9.11669565,31.7746667 C9.93347826,31.776 10.7516087,31.7773333 11.5683913,31.7733333 C11.7436087,31.7733333 11.7948261,31.876 11.8312174,32.0173333 C11.9794783,32.5973333 12.1331304,33.1746667 12.2827391,33.7546667 C13.3030435,37.6906667 14.3233478,41.628 15.345,45.564 C15.367913,45.6546667 15.4016087,45.7413333 15.4838261,45.8346667 C15.5067391,45.772 15.5417826,45.7106667 15.5498696,45.6466667 C15.7668696,44.0373333 15.9798261,42.4266667 16.1981739,40.8173333 C16.3801304,39.472 16.5715217,38.1266667 16.7534783,36.7813333 C16.9165652,35.576 17.072913,34.3706667 17.2346522,33.1653333 C17.2872174,32.78 17.3438261,32.3946667 17.4004348,32.0093333 C17.430087,31.8053333 17.4462609,31.784 17.6511304,31.7773333 C17.9004783,31.7706667 18.1511739,31.7746667 18.4005217,31.7746667 C18.9773913,31.7746667 19.5542609,31.784 20.1311304,31.7693333 C20.3656522,31.7626667 20.491,31.8506667 20.6028696,32.0506667 C22.2997826,35.0653333 24.0034348,38.076 25.7057391,41.0866667 C25.7556087,41.1746667 25.8135652,41.2586667 25.8674783,41.344 C25.8876957,41.3426667 25.9092609,41.34 25.9294783,41.3386667 C25.9510435,41.2533333 25.9806957,41.1693333 25.9928261,41.0826667 C26.1437826,39.972 26.2947391,38.8613333 26.4416522,37.7506667 C26.5845217,36.668 26.7233478,35.584 26.8675652,34.5013333 C26.978087,33.6733333 27.094,32.8453333 27.2085652,32.0173333 C27.2368696,31.8106667 27.2665217,31.7866667 27.4862174,31.7746667 C27.5536087,31.772 27.621,31.7733333 27.6883913,31.7733333 C29.5524348,31.7733333 31.4178261,31.7733333 33.2832174,31.7733333 C33.3115217,31.7733333 33.3411739,31.7733333 33.3694783,31.7733333 C33.7077826,31.776 33.7091304,31.7746667 33.8277391,32.0826667 C34.3574348,33.4586667 34.8857826,34.8346667 35.4154783,36.2106667 C35.627087,36.76 35.8386957,37.312 36.0516522,37.8613333 C36.084,37.9453333 36.1271304,38.0266667 36.1918261,38.1653333 C36.2861739,38.0253333 36.3522174,37.9373333 36.4088261,37.844 C37.5935652,35.92 38.781,33.9973333 39.9549565,32.0666667 C40.0937826,31.8373333 40.2501304,31.7653333 40.508913,31.7666667 C41.4901304,31.772 42.47,31.772 43.4512174,31.7746667 L43.2544348,33.236 Z M9.56552174,42.008 C10.004913,41.92 10.4483478,41.8533333 10.9362609,41.7693333 C10.5669565,40.0973333 10.2138261,38.4693333 9.82834783,36.812 C9.76230435,36.8706667 9.72456522,36.8893333 9.70973913,36.92 C8.78513043,38.7973333 7.86186957,40.6773333 6.94130435,42.5573333 C6.93052174,42.5786667 6.944,42.6106667 6.95073913,42.676 C7.39013043,42.5493333 7.81469565,42.4146667 8.246,42.304 C8.68269565,42.192 9.12343478,42.096 9.56552174,42.008 Z" id="Combined-Shape" fill="#EC6707" fill-rule="nonzero"></path>
    </g>
</svg>