<?xml version="1.0" encoding="UTF-8"?>
<svg width="113px" height="46px" viewBox="0 0 113 46" version="1.1" xmlns="http://www.w3.org/2000/svg" xmlns:xlink="http://www.w3.org/1999/xlink">
    <!-- Generator: Sketch 52.4 (67378) - http://www.bohemiancoding.com/sketch -->
    <title>Artboard Copy</title>
    <desc>Created with Sketch.</desc>
    <g id="Artboard-Copy" stroke="none" stroke-width="1" fill="none" fill-rule="evenodd">
        <path d="M46.6285101,45.0886911 C42.5651373,45.0886911 38.5017646,45.0886911 34.4383919,45.0946755 C33.7362283,45.0946755 33.7342335,45.0926807 33.7342335,44.4104649 C33.7322388,42.9223569 33.7402179,41.4342489 33.7282492,39.9461409 C33.7242596,39.5990486 33.8160196,39.3237686 34.0414301,39.0484886 C39.6288169,32.2702164 45.2122142,25.4859598 50.7896271,18.6997085 C51.8608255,17.3951205 52.7923891,16.0107411 53.0856222,14.2972226 C53.3509283,12.7432868 53.2791162,11.2152831 52.7066135,9.73515421 C52.0323769,7.99969311 50.8055854,6.82875556 49.0242443,6.27819549 C47.3127206,5.74957803 45.5952125,5.78548412 43.9295688,6.44176768 C41.6615007,7.33543041 40.5703545,9.13272978 40.2491944,11.4706153 C40.2112935,11.7538745 40.1694031,12.0391284 40.1674083,12.3243824 C40.1634188,12.6694798 40.0237839,12.8071198 39.6746969,12.8051251 C37.8853767,12.7951511 36.0980513,12.7911616 34.308731,12.8071198 C33.8499309,12.8111094 33.7980666,12.5717355 33.8120301,12.208685 C34.0075188,7.31947215 36.5009974,3.17231855 41.1767685,1.31318091 C44.9588768,-0.190885377 48.806813,-0.162958416 52.5629891,1.39696179 C56.3071966,2.95289244 58.5054473,5.84931717 59.2953813,9.8069664 C60.0673623,13.6728556 59.3572196,17.2195796 56.9355532,20.3912843 C55.1103268,22.7810342 53.1713979,25.0750345 51.2763542,27.4069357 C48.144545,31.2588614 44.9967777,35.0988185 41.8589842,38.9467546 C41.769219,39.0584625 41.5697407,39.1621912 41.667485,39.3357373 C41.7552555,39.4893356 41.9547338,39.4255025 42.1063373,39.4255025 C47.6298911,39.4274973 53.1534448,39.4274973 58.6769986,39.4274973 C58.8485499,39.4274973 59.0201013,39.4314869 59.1916526,39.4334817 C59.4370109,39.4374712 59.5606874,39.5651373 59.5606874,39.8085008 C59.5606874,41.4382385 59.5606874,43.0699708 59.5626822,44.7017032 C59.5626822,44.9729937 59.427037,45.0906859 59.1637256,45.0866963 C59.0201013,45.0827068 58.8784717,45.0886911 58.7348473,45.0886911 L46.6285101,45.0886911 Z M86.1272058,14.8737149 C85.7561762,16.1543655 85.4090839,17.3412613 85.0659813,18.5301519 C82.5625288,27.2074574 80.0590763,35.8827681 77.5695872,44.5640632 C77.4439159,45.0049102 77.2584011,45.1305816 76.809575,45.1226024 C75.2496547,45.0926807 73.6897345,45.0966702 72.1298143,45.1206076 C71.7488108,45.126592 71.5852386,45.0228633 71.4874942,44.6438545 C69.4308731,36.7185822 67.3602885,28.7992942 65.2916986,20.8780114 C63.6739297,14.6842105 62.054166,8.4904097 60.4363971,2.29660887 C60.3945067,2.13303667 60.3605954,1.96547491 60.3147154,1.76001228 C60.4623293,1.7460488 60.5820163,1.72610097 60.703698,1.72610097 C62.7643087,1.72410618 64.8249194,1.73208532 66.8855302,1.71812184 C67.2046954,1.71612705 67.318398,1.81985576 67.3941998,2.13104189 C69.8118766,12.0870032 72.2415222,22.038975 74.6671781,31.9929415 C74.7030842,32.1425503 74.7449747,32.292159 74.8167869,32.5714286 C75.0342182,31.8154059 75.219733,31.1790701 75.3992635,30.5407396 C78.0483351,21.1034218 80.6994016,11.666104 83.3365045,2.22679147 C83.442228,1.8497775 83.5858524,1.70216357 84.002762,1.71213749 C85.4330213,1.74205923 86.8652754,1.74205923 88.2955348,1.71413227 C88.7164339,1.70615314 88.8820009,1.83980359 88.9937088,2.24274973 C91.7644622,12.1508363 94.5491791,22.0549333 97.3299064,31.9590302 C97.3717968,32.1066442 97.4196716,32.2522633 97.5034525,32.5275433 C97.5972073,32.1984042 97.6650299,31.9909468 97.7148995,31.7814946 C100.104649,21.9671628 102.492404,12.1508363 104.886144,2.33650453 C105.043732,1.68820009 104.87617,1.72809575 105.662114,1.72610097 L111.458954,1.72610097 L112.029461,1.72610097 C111.865889,2.37241062 111.72027,2.96286635 111.564677,3.55332208 C107.99601,17.2116004 104.425349,30.8698788 100.870646,44.5301519 C100.750959,44.9909468 100.573423,45.1345711 100.10066,45.1245972 C98.5267761,45.0926807 96.9528924,45.098665 95.3790087,45.1226024 C95.0219426,45.1285868 94.8942765,45.006905 94.7985269,44.6777658 C91.9779039,34.9332515 89.1453123,25.1927267 86.3147154,15.4502072 C86.2688354,15.286635 86.2109867,15.1290471 86.1272058,14.8737149 Z M24.6559767,22.737149 C25.599509,23.3814639 26.6168482,23.9539665 27.4885684,24.6960258 C29.4713825,26.3856069 30.5186435,28.6137793 30.835814,31.1750806 C31.1310419,33.5568513 30.8976523,35.8947368 29.9780574,38.1229093 C28.5837042,41.5020715 25.9845021,43.5108179 22.5375173,44.5042197 C21.0873101,44.9231241 19.5992021,45.1106337 18.0891515,45.1106337 C12.3501611,45.1106337 6.61117078,45.1106337 0.872180451,45.1106337 C0.690655209,45.1106337 0.507135185,45.1106337 0.301672549,45.1106337 C0.301672549,30.6424735 0.301672549,16.2221881 0.301672549,1.75003836 C0.45527083,1.74205923 0.604879546,1.72610097 0.756483044,1.72610097 C6.39573423,1.72410618 12.0349854,1.68820009 17.6742366,1.74006445 C20.7681449,1.76799141 23.6845174,2.50805585 26.1799908,4.46294307 C28.4061685,6.20638331 29.6389443,8.5362897 30.09176,11.2970692 C30.4727635,13.6170017 30.3351235,15.8910542 29.3137947,18.051404 C28.3323615,20.1259782 26.8442535,21.7118306 24.7517263,22.7012429 C24.7138254,22.7191959 24.6739297,22.7391438 24.6400184,22.7630812 C24.6180758,22.7750499 24.6041123,22.7989873 24.6559767,22.737149 Z M6.93233083,26.0504834 L6.93233083,39.1582016 L7.46094829,39.1582016 C10.6665644,39.1582016 13.8701857,39.1661808 17.0758017,39.1502225 C17.7021636,39.1462329 18.3345097,39.0943686 18.9508977,38.9926346 C23.8281418,38.1827528 26.0662882,32.3320546 22.9923278,28.4382385 C21.7156667,26.8204695 19.9502839,26.1003529 17.9614853,26.0584625 C14.3868344,25.9826607 10.808194,26.026546 7.23154826,26.0205616 C7.14776738,26.0205616 7.0639865,26.0365199 6.93233083,26.0504834 Z M6.92235691,20.036213 L7.51281264,20.036213 C10.5169557,20.036213 13.5210987,20.0421973 16.5232469,20.0302286 C17.0937548,20.0282338 17.6682523,20.0003069 18.2327758,19.916526 C20.9815866,19.5075955 23.2556391,17.8978057 23.596747,14.6762314 C23.854074,12.2485806 23.0561608,9.9226638 20.776124,8.64999233 C19.5593064,7.96977137 18.2327758,7.70446524 16.8603652,7.69449133 C13.6986343,7.67254872 10.5388983,7.6865122 7.37716741,7.68850698 C7.22755869,7.68850698 7.07794998,7.70845481 6.92235691,7.71842872 L6.92235691,20.036213 Z" id="Combined-Shape" fill="#00EACD"></path>
    </g>
</svg>