<svg fill="none" height="37" viewBox="0 0 37 37" width="37" xmlns="http://www.w3.org/2000/svg"><path d="m0 0h37v37h-37z" fill="#ff7a00"/><path d="m7.24891 15.6838h-1.56316c-.01782 0-.03547.0034-.05194.0102-.01648.0068-.03146.0168-.04408.0294-.01263.0125-.02265.0275-.0295.0439-.00685.0165-.01039.0341-.01043.0519v6.509c0 .0749.06111.1355.13621.1355h1.5629c.01784 0 .03552-.0034.05203-.0102.0165-.0068.03151-.0167.04416-.0293s.0227-.0275.02956-.044c.00687-.0165.01042-.0341.01045-.052v-6.509c-.00003-.0178-.00358-.0355-.01045-.0519-.00686-.0165-.01691-.0314-.02956-.044s-.02766-.0226-.04416-.0293c-.01651-.0068-.03419-.0103-.05203-.0102zm1.82818 6.7776h1.56241c.0359-.0001.0703-.0144.0958-.0398.0254-.0254.0399-.0597.0401-.0957v-4.8918c-.0002-.0331.0117-.0651.0335-.09.0219-.0249.0521-.0409.0849-.0449.318-.0366.638-.0516.958-.0451.5688 0 .9537.1469 1.1609.4463.1227.1767.1833.4063.1833.6907v3.9371c.0001.0179.0036.0357.0106.0522.0069.0165.017.0315.0297.0441s.0278.0225.0444.0292c.0166.0068.0344.0101.0523.01h1.5514c.036-.0001.0705-.0144.096-.0397.0255-.0254.04-.0598.0403-.0958v-3.8035c.0056-.4247-.0629-.8471-.2024-1.2482-.4023-1.1169-1.4003-1.7533-2.8298-1.7533-1.0682 0-2.22072.128-2.91879.3218-.02811.0081-.05282.0251-.07045.0485-.01762.0233-.0272.0518-.02731.081l-.02877 6.3532c.00033.0354.01455.0693.0396.0943s.05892.0391.09431.0394zm20.01151-.1332c0 .0179.0036.0356.0104.0521.0069.0165.017.0315.0297.0441s.0278.0225.0444.0293c.0165.0067.0343.0101.0522.01h1.5621c.036-.0001.0705-.0144.096-.0397.0255-.0254.0399-.0598.0402-.0958v-4.8941c-.0003-.0325.0112-.0641.0323-.0887.0212-.0247.0506-.0409.0828-.0455.251-.0331.5041-.0471.7571-.0428.2949-.0065.5891.0299.8735.108.0336.0091.0695.0049.1001-.0117.0307-.0166.0538-.0443.0646-.0774l.4598-1.4191c.0083-.0269.008-.0557-.001-.0824-.0089-.0266-.026-.0498-.0489-.0663-.0151-.011-.0324-.0188-.0507-.0229-.5029-.1115-1.0172-.1639-1.5323-.1563-.6999 0-1.7236.0929-2.4804.3289-.0275.009-.0515.0264-.0684.0498-.017.0235-.026.0517-.0258.0806zm-1.8211-1.6018c-.0106-.0332-.0336-.061-.0642-.0776s-.0664-.0207-.1-.0115c-.6823.1693-1.3826.2553-2.0856.2561-.974 0-1.6278-.4634-1.6278-1.8195 0-.6332.1029-1.0553.2918-1.3341.2217-.3279.5631-.4569.9992-.4857.7246-.0489 1.2796.2286 1.264.6721l-.7021.3587-1.1306.5774c-.0239.0125-.0436.0317-.0565.0553-.013.0236-.0187.0505-.0163.0773.0016.0179.0068.0352.0152.051l.663 1.2566c.0168.031.0451.0543.0787.065.0336.0106.0701.0079.1018-.0077l2.3355-1.1278.5494-.2651c.0234-.0115.043-.0294.0567-.0515.0138-.0221.021-.0477.021-.0737-.028-2.2124-1.1263-3.3185-3.1803-3.3185-1.4728 0-2.4512.6038-2.8987 1.7607-.1851.4771-.2816 1.0461-.2816 1.7098v.1606c0 2.3027 1.1831 3.4705 3.5169 3.4705.9384 0 1.8813-.1262 2.6138-.3365.0172-.0053.0332-.0139.0471-.0254s.0253-.0256.0337-.0415.0135-.0334.0151-.0513-.0004-.036-.0058-.0532l-.4531-1.3905zm-6.8977-.181c-.358.1713-.8468.4409-1.4784.3615-.5459-.069-.8284-.2979-.8284-.8814v-2.4735c-.0001-.0179.0034-.0356.0103-.0522.0068-.0165.0168-.0315.0295-.0441.0126-.0127.0277-.0227.0442-.0295s.0343-.0103.0522-.0102h2.0168c.0268-.0001.0531-.0081.0755-.023.0223-.0149.0398-.036.0502-.0608.0068-.0163.0103-.0339.0102-.0516v-1.4591c.0001-.0179-.0034-.0356-.0102-.0521-.0068-.0166-.0169-.0316-.0295-.0442-.0127-.0127-.0277-.0227-.0443-.0295-.0165-.0068-.0343-.0102-.0522-.0101h-2.0165c-.0271-.0001-.0535-.0081-.076-.0232-.0225-.015-.04-.0364-.0503-.0613-.0068-.0166-.0103-.0343-.0102-.0522v-2.4639c.0001-.0234-.0059-.0465-.0174-.0669s-.0282-.0375-.0483-.0495c-.0202-.012-.0431-.0187-.0666-.0193-.0235-.0007-.0468.0048-.0676.0158l-1.5616.8129c-.022.0114-.0405.0285-.0535.0497-.013.0211-.0199.0454-.0201.0702v6.1126c0 1.7009.9267 2.6675 2.6546 2.6675.7078 0 1.2984-.1519 2.22-.6066l.2581-.1299c.0316-.0158.0558-.0434.0674-.0767.0116-.0334.0097-.07-.0052-.102l-.6067-1.2849c-.0118-.0248-.0307-.0455-.0545-.0593-.0237-.0138-.051-.0201-.0784-.0181-.0182.0012-.0359.0059-.0522.014z" fill="#fff"/></svg>