<svg width="104" height="40" viewBox="0 0 104 40" fill="none" xmlns="http://www.w3.org/2000/svg">
<path d="M76.8237 31.4239C76.5304 31.4468 76.2396 31.4658 75.9502 31.4925C75.5416 31.5306 75.1407 31.6056 74.7526 31.7352C74.5963 31.7873 74.4452 31.8533 74.2954 31.9232C73.6153 32.2421 73.2067 32.777 73.0415 33.4999C72.8903 34.158 72.9428 34.8046 73.1721 35.4373C73.2438 35.6368 73.3296 35.8312 73.4295 36.0192C73.4897 36.131 73.4795 36.159 73.3681 36.2288C72.9736 36.4778 72.5586 36.6913 72.1308 36.8755C71.297 37.2338 70.4286 37.479 69.5359 37.6365C68.5279 37.8157 67.511 37.8944 66.485 37.8893C65.8126 37.8868 65.1415 37.8754 64.4729 37.8106C62.9757 37.6632 61.5104 37.3837 60.1092 36.8209C59.848 36.7167 59.5956 36.5909 59.342 36.469C59.2357 36.4169 59.2332 36.3965 59.2626 36.286C59.4099 35.7257 59.5572 35.1667 59.7032 34.6064C59.9376 33.7108 60.172 32.8138 60.4064 31.9181C60.4141 31.8902 60.4153 31.8597 60.4269 31.8343C60.4435 31.7974 60.4717 31.7682 60.5165 31.7873C60.5524 31.8012 60.5857 31.8228 60.619 31.8406C61.6718 32.4022 62.7887 32.782 63.9606 33.0095C64.8136 33.1759 65.673 33.2636 66.5427 33.228C67.3381 33.195 68.1091 33.0438 68.8276 32.6982C69.8984 32.1824 70.6079 31.3464 70.9896 30.2335C71.1561 29.7469 71.2471 29.2451 71.2893 28.7331C71.338 28.1448 71.3111 27.5553 71.3201 26.9671C71.3201 26.9481 71.3226 26.9277 71.3162 26.9099C71.3111 26.8947 71.2983 26.8756 71.2842 26.8693C71.2688 26.8629 71.2407 26.8642 71.2317 26.8731C71.192 26.915 71.1561 26.9608 71.119 27.0065C70.2058 28.1487 69.0172 28.8512 67.5929 29.1739C66.7117 29.3747 65.8203 29.4001 64.9225 29.2997C63.6942 29.1612 62.5556 28.7724 61.5181 28.1029C60.4538 27.4156 59.6161 26.5136 58.9706 25.4337C58.3238 24.3499 57.9255 23.1773 57.7116 21.9386C57.5502 21.001 57.5002 20.0583 57.5489 19.1105C57.6322 17.4742 57.9767 15.8975 58.7132 14.4225C59.5982 12.6489 60.8944 11.259 62.6811 10.3506C63.447 9.96188 64.2603 9.70524 65.112 9.56803C65.7499 9.46512 66.3903 9.43082 67.0332 9.46766C67.8939 9.51721 68.729 9.69126 69.5141 10.061C70.4709 10.5107 71.2266 11.1891 71.8106 12.0607C71.8542 12.1255 71.8759 12.2513 71.9771 12.2233C72.054 12.2017 72.0219 12.0861 72.0283 12.0124C72.0783 11.4445 72.1218 10.8766 72.1692 10.31C72.1782 10.2045 72.191 10.0991 72.2038 9.99364C72.2102 9.93901 72.2461 9.90979 72.3012 9.90852C72.3601 9.90724 72.4177 9.90597 72.4766 9.90597H77.2988H77.3283C77.5793 9.90089 77.5511 9.91233 77.5409 10.1258C77.505 10.8487 77.4679 11.5703 77.4384 12.2932C77.4218 12.6883 77.4179 13.0847 77.4154 13.4811C77.409 14.486 77.4026 15.491 77.4026 16.4946C77.4013 19.963 77.409 23.4327 77.3987 26.901C77.3949 28.0991 77.3027 29.2921 77.0644 30.4698C76.9991 30.7887 76.9325 31.1101 76.8237 31.4239ZM71.2278 19.4383H71.2407C71.2407 18.9454 71.2432 18.4524 71.2407 17.9595C71.2381 17.4157 71.1869 16.8809 70.9896 16.3663C70.7565 15.759 70.4184 15.2254 69.9125 14.8062C69.363 14.3513 68.7252 14.1239 68.0118 14.0896C66.9013 14.0363 65.974 14.4212 65.2158 15.2178C64.7893 15.6663 64.487 16.1923 64.2654 16.7665C64.0426 17.3471 63.9068 17.9468 63.8402 18.5642C63.7352 19.5311 63.7557 20.4928 63.9811 21.4431C64.1348 22.086 64.3743 22.6958 64.756 23.2434C65.5245 24.3461 66.5824 24.9026 67.9375 24.8391C69.2042 24.7781 70.152 24.1772 70.7629 23.0731C71.0882 22.4849 71.215 21.8433 71.2266 21.1789C71.2355 20.597 71.2278 20.0176 71.2278 19.4383ZM6.52829 6.60783V11.8828C6.52829 11.9692 6.52958 12.0569 6.53342 12.1433C6.5347 12.1585 6.55263 12.1788 6.56672 12.1839C6.58081 12.189 6.6077 12.1852 6.61795 12.175C6.65125 12.1407 6.68071 12.1013 6.71017 12.0632C7.59648 10.888 8.77994 10.1512 10.1901 9.76114C11.2596 9.46639 12.3521 9.38508 13.4574 9.49942C15.1634 9.67729 16.6351 10.3557 17.871 11.5322C18.5076 12.1395 19.0186 12.8433 19.4311 13.617C20.0061 14.6944 20.3584 15.8416 20.5479 17.0435C20.6914 17.9531 20.7349 18.8666 20.7119 19.7851C20.6824 20.8993 20.5428 21.997 20.2444 23.0731C19.823 24.5939 19.1314 25.9736 18.0568 27.1488C16.7516 28.5755 15.1442 29.4712 13.2307 29.8231C12.703 29.921 12.1702 29.9692 11.6348 29.9629C10.614 29.9514 9.62014 29.7901 8.67748 29.3861C7.56702 28.9097 6.67687 28.1702 5.99804 27.1767C5.9276 27.0726 5.86228 26.9646 5.79056 26.8617C5.77647 26.8413 5.74829 26.821 5.72395 26.8172C5.68297 26.8096 5.68297 26.8502 5.67913 26.8756C5.66632 26.9608 5.65479 27.0472 5.64839 27.1335C5.601 27.6722 5.55617 28.2109 5.51006 28.7496C5.49085 28.9706 5.46907 29.1917 5.45114 29.4128C5.44474 29.4839 5.40888 29.5157 5.33971 29.5157C5.27183 29.5157 5.20395 29.5169 5.13479 29.5169C3.59527 29.5169 2.05703 29.5169 0.517507 29.5169C0.468836 29.5169 0.420166 29.5182 0.371496 29.5169C0.225485 29.5131 0.203711 29.489 0.212677 29.3467C0.269032 28.5476 0.290805 27.7472 0.317702 26.9468C0.413762 24.059 0.367653 21.1712 0.371496 18.2835C0.37918 12.6502 0.374057 7.0182 0.374057 1.38493C0.374057 1.29854 0.372776 1.21088 0.375338 1.12449C0.37918 1.01142 0.391988 1.00125 0.516226 0.99617C0.564896 0.9949 0.613567 0.99617 0.662237 0.99617H6.27214C6.53726 0.99617 6.52445 0.973302 6.52445 1.24518C6.52829 3.034 6.52829 4.82155 6.52829 6.60783ZM6.52829 19.7356C6.52829 20.2184 6.52189 20.7024 6.52958 21.1852C6.53726 21.6502 6.58465 22.1101 6.74731 22.551C7.21224 23.8151 8.07166 24.6688 9.396 25.0233C9.95059 25.1719 10.5154 25.1554 11.0751 25.0538C11.8859 24.9064 12.5749 24.538 13.1334 23.9307C13.5945 23.4289 13.9006 22.8406 14.1093 22.2003C14.336 21.5066 14.4385 20.7926 14.4667 20.0647C14.4974 19.2795 14.4564 18.5007 14.2822 17.7321C14.1542 17.1642 13.9646 16.6179 13.6713 16.1122C13.3037 15.4808 12.8209 14.9612 12.1664 14.6118C11.7322 14.3806 11.2698 14.2497 10.7805 14.1887C10.2708 14.1252 9.76872 14.1468 9.27945 14.3043C8.00121 14.7147 7.17766 15.5812 6.74603 16.8288C6.58593 17.2899 6.53598 17.7702 6.52829 18.2542C6.52061 18.7497 6.52829 19.2427 6.52829 19.7356ZM37.9194 21.1331C37.9194 19.23 37.9232 17.3255 37.9181 15.4224C37.9155 14.6016 37.9002 13.7809 37.8835 12.9602C37.872 12.4012 37.8477 11.8409 37.8259 11.2819C37.8092 10.8677 37.7875 10.4535 37.7695 10.0381C37.7644 9.91995 37.7798 9.90724 37.9015 9.90343C37.9693 9.90216 38.0372 9.90216 38.1064 9.90216H42.7826C42.8607 9.90216 42.9388 9.90343 43.0157 9.9047C43.072 9.90597 43.1066 9.93392 43.1156 9.98855C43.1284 10.0749 43.1425 10.1601 43.1515 10.2465C43.2193 10.9096 43.2847 11.5716 43.3525 12.2347C43.3641 12.3491 43.3846 12.4634 43.4038 12.5778C43.4089 12.6121 43.4755 12.6286 43.4973 12.6019C43.528 12.5651 43.5575 12.527 43.5844 12.4876C44.235 11.5449 45.0765 10.8131 46.0934 10.2808C46.7607 9.93138 47.469 9.70143 48.2119 9.57057C48.8292 9.46258 49.4504 9.42828 50.0742 9.46258C51.4446 9.53881 52.7152 9.9136 53.8231 10.7445C54.671 11.381 55.2985 12.1954 55.752 13.1444C56.1721 14.0248 56.418 14.9536 56.5563 15.914C56.6562 16.6039 56.6869 17.2976 56.6869 17.9938C56.6857 21.7137 56.6857 25.4349 56.6857 29.1549C56.6857 29.2413 56.6857 29.3289 56.6844 29.4153C56.6831 29.4865 56.6421 29.5169 56.5717 29.5144C56.5038 29.5131 56.4359 29.5144 56.3667 29.5144C54.5352 29.5144 52.7037 29.5144 50.8721 29.5144C50.8042 29.5144 50.7351 29.5157 50.6672 29.5131C50.5481 29.5093 50.5378 29.4992 50.534 29.3746C50.5314 29.2972 50.5327 29.2197 50.5327 29.1422C50.5327 25.6446 50.5327 22.1457 50.5327 18.6481C50.5327 18.1551 50.4994 17.6635 50.411 17.1781C50.315 16.6534 50.1613 16.1465 49.8808 15.6853C49.4389 14.9612 48.7921 14.5521 47.9493 14.4314C47.3269 14.3425 46.7262 14.406 46.1498 14.6525C45.4121 14.9675 44.8946 15.5138 44.5091 16.1986C44.2324 16.6903 44.0967 17.2163 44.0941 17.7778C44.0928 18.0865 44.0826 18.3953 44.0826 18.7052C44.0813 22.194 44.0826 25.6814 44.0813 29.1701C44.0813 29.5576 44.1261 29.5119 43.7419 29.5119C41.9104 29.5131 40.0788 29.5119 38.2473 29.5119C38.1691 29.5119 38.091 29.5131 38.0142 29.5093C37.9578 29.5068 37.9258 29.475 37.9232 29.4178C37.9207 29.3403 37.9194 29.2628 37.9194 29.1866C37.9194 28.559 37.9194 27.9301 37.9194 27.3025C37.9194 25.2507 37.9194 23.1925 37.9194 21.1331ZM27.7716 15.289C27.7716 19.9071 27.7716 24.5265 27.7703 29.1447C27.7703 29.5754 27.8267 29.5169 27.404 29.5169C25.5917 29.5182 23.7807 29.5182 21.9683 29.5182C21.8812 29.5182 21.7929 29.5195 21.7058 29.5169C21.6507 29.5157 21.6161 29.4852 21.6135 29.428C21.611 29.3607 21.6097 29.2933 21.6097 29.2247C21.6097 19.9109 21.6097 10.5958 21.6097 1.28203C21.6097 0.973302 21.5841 0.997441 21.8889 0.997441H27.5001C27.559 0.997441 27.6166 0.99617 27.6756 0.998711C27.7306 1.00125 27.7665 1.02793 27.7691 1.08637C27.7716 1.18293 27.7729 1.27948 27.7729 1.37604C27.7716 6.01325 27.7716 10.6505 27.7716 15.289ZM29.7812 19.7242C29.7812 16.5645 29.7812 13.4048 29.7825 10.2452C29.7825 9.86405 29.73 9.9047 30.1206 9.9047C31.9521 9.90343 33.7837 9.90343 35.614 9.9047C35.979 9.9047 35.9316 9.85643 35.9316 10.2325C35.9329 16.407 35.9329 22.5802 35.9316 28.7547C35.9316 28.9668 35.9329 29.1803 35.9303 29.3924C35.929 29.4941 35.9085 29.5131 35.815 29.5169C35.7472 29.5195 35.6793 29.5182 35.6101 29.5182C33.7786 29.5182 31.947 29.5182 30.1168 29.5182C30.0386 29.5182 29.9605 29.5182 29.8824 29.5169C29.8081 29.5157 29.7812 29.4725 29.7812 29.4051C29.7812 29.3187 29.7812 29.2311 29.7812 29.1447C29.7812 26.0041 29.7812 22.8635 29.7812 19.7242ZM32.8935 7.50352C32.1737 7.50352 31.5538 7.36376 30.9967 7.0093C30.2577 6.5405 29.826 5.86461 29.671 5.01467C29.5699 4.46328 29.6108 3.91698 29.8004 3.38719C30.1014 2.54487 30.6854 1.96046 31.5192 1.64284C32.4043 1.30489 33.3098 1.28838 34.2038 1.6187C35.2733 2.01382 35.8791 2.80151 36.0917 3.90046C36.2146 4.53443 36.1442 5.15315 35.874 5.7401C35.4808 6.59513 34.7968 7.11348 33.8977 7.36885C33.548 7.46794 33.1894 7.4997 32.8935 7.50352Z" fill="#0F0F0F"/>
<path fill-rule="evenodd" clip-rule="evenodd" d="M86.2906 5.53324C85.6528 5.38713 85.047 5.24738 84.4412 5.11017C83.5113 4.89927 82.5802 4.70108 81.6426 4.53083C81.5273 4.50924 81.5107 4.49018 81.5094 4.38346C81.5081 4.20814 81.5478 4.03662 81.5927 3.87019C81.8629 2.86906 82.2203 1.90096 82.6942 0.976059C82.7428 0.882045 82.8017 0.793112 82.8568 0.701638C82.8914 0.643196 82.9503 0.62541 83.0067 0.641926C83.0989 0.668606 83.1898 0.705449 83.2769 0.746104C83.5408 0.87061 83.7995 1.00401 84.0736 1.10819C84.8933 1.41691 85.7335 1.65957 86.5839 1.86412C87.6624 2.12456 88.751 2.33038 89.8448 2.51206C90.6889 2.65308 91.5368 2.77504 92.3847 2.88939C93.1173 2.98848 93.8525 3.06471 94.5876 3.14348C95.2934 3.21844 96.0004 3.28577 96.7074 3.35311C96.9981 3.38106 97.2888 3.40266 97.5809 3.41917C98.0855 3.44712 98.5914 3.46491 99.0973 3.49286C99.7979 3.53225 100.499 3.5513 101.199 3.53479C101.763 3.52081 102.326 3.48524 102.89 3.45856C102.919 3.45729 102.949 3.44585 102.976 3.44966C103.014 3.45475 103.05 3.47253 103.07 3.50938C103.091 3.54622 103.091 3.58433 103.064 3.61737C103.027 3.66183 102.987 3.70376 102.946 3.74568C102.334 4.35551 101.756 4.99583 101.2 5.65647C100.451 6.54707 99.7454 7.4707 99.073 8.41974C97.7051 10.3496 96.4615 12.3569 95.2921 14.41C94.4775 15.8406 93.7065 17.2927 92.9892 18.7728C91.8583 21.1067 90.817 23.4774 89.946 25.9205C89.5208 27.1134 89.1443 28.3204 88.8138 29.5426C88.7959 29.6074 88.7754 29.6722 88.7562 29.737C88.7408 29.7916 88.6998 29.8132 88.6473 29.8132C88.5986 29.8132 88.55 29.8106 88.5013 29.8068C87.9877 29.756 87.4754 29.7039 86.9618 29.6556C86.6813 29.629 86.3995 29.6061 86.1177 29.5896C85.6131 29.5591 85.1072 29.5299 84.6013 29.5083C84.1543 29.4892 83.7073 29.4752 83.259 29.4676C82.821 29.46 82.3829 29.474 81.9462 29.507C81.8885 29.5108 81.8296 29.5121 81.772 29.5134C81.7143 29.5134 81.681 29.4816 81.6734 29.4282C81.658 29.3228 81.6401 29.2186 81.6337 29.1132C81.544 27.7334 81.5402 26.3524 81.5888 24.9714C81.6042 24.5191 81.6144 24.0656 81.6657 23.6133C81.699 23.3262 81.7041 23.0365 81.7284 22.7468C81.8027 21.8321 81.9065 20.9224 82.0243 20.0128C82.1972 18.6826 82.4149 17.3588 82.6634 16.04C82.9042 14.7594 83.177 13.4851 83.5011 12.2223C83.8622 10.8184 84.2811 9.43231 84.842 8.09069C85.1366 7.38431 85.4645 6.69445 85.9 6.06048C86.0165 5.89278 86.1421 5.7327 86.2906 5.53324ZM76.969 31.5321C77.8912 31.5334 78.6443 31.6071 79.3974 31.7151C81.1457 31.9654 82.8081 32.4812 84.3848 33.2663C85.1354 33.6398 85.8449 34.0782 86.484 34.6232C87.0566 35.111 87.5612 35.6561 87.9326 36.3142C88.085 36.5848 88.1913 36.8719 88.2541 37.1794C88.3156 37.4843 88.281 37.774 88.1939 38.0636C88.1042 38.3609 87.9185 38.5934 87.6752 38.7814C87.4434 38.9606 87.1833 39.0927 86.908 39.1943C86.4315 39.3709 85.9384 39.4789 85.4376 39.5488C84.8689 39.6288 84.2977 39.6733 83.7226 39.6835C83.4806 39.6886 83.2372 39.719 82.9939 39.7051C82.47 39.6771 81.9449 39.6708 81.421 39.6263C80.7614 39.5717 80.1057 39.4878 79.4537 39.376C78.4842 39.2096 77.5261 38.9987 76.6155 38.6175C75.9943 38.3584 75.4051 38.0395 74.88 37.6164C74.1384 37.0193 73.5813 36.2888 73.2585 35.3906C73.0267 34.7464 72.9729 34.0959 73.1535 33.4277C73.343 32.7251 73.7785 32.2411 74.442 31.9488C74.8634 31.7634 75.3078 31.6643 75.7625 31.5982C76.2159 31.5359 76.6731 31.5296 76.969 31.5321Z" fill="#A2BF15"/>
</svg>
