<svg width="50" height="50" viewBox="0 0 50 50" fill="none" xmlns="http://www.w3.org/2000/svg">
<rect width="50" height="50" rx="10" fill="#A9C90B"/>
<path fill-rule="evenodd" clip-rule="evenodd" d="M24.5928 16.8073C24.2272 16.7235 23.8799 16.6434 23.5326 16.5647C22.9996 16.4438 22.4658 16.3302 21.9284 16.2326C21.8623 16.2203 21.8528 16.2093 21.852 16.1482C21.8513 16.0477 21.8741 15.9493 21.8998 15.8539C22.0547 15.2801 22.2595 14.7251 22.5312 14.1949C22.5591 14.141 22.5928 14.09 22.6244 14.0376C22.6442 14.0041 22.678 13.9939 22.7103 14.0034C22.7632 14.0187 22.8153 14.0398 22.8652 14.0631C23.0165 14.1345 23.1648 14.2109 23.3219 14.2706C23.7918 14.4476 24.2734 14.5867 24.7609 14.704C25.3791 14.8533 26.0032 14.9713 26.6302 15.0754C27.1141 15.1562 27.6001 15.2262 28.0862 15.2917C28.5061 15.3485 28.9276 15.3922 29.349 15.4374C29.7535 15.4803 30.1588 15.5189 30.5641 15.5575C30.7308 15.5735 30.8974 15.5859 31.0648 15.5954C31.3541 15.6114 31.6441 15.6216 31.9341 15.6376C32.3357 15.6602 32.7373 15.6711 33.139 15.6617C33.462 15.6537 33.7851 15.6333 34.1081 15.618C34.125 15.6172 34.1419 15.6107 34.1573 15.6129C34.1793 15.6158 34.1999 15.626 34.2116 15.6471C34.2234 15.6682 34.2234 15.6901 34.208 15.709C34.1867 15.7345 34.1639 15.7585 34.1404 15.7826C33.7895 16.1321 33.4583 16.4992 33.1397 16.8779C32.7102 17.3884 32.3056 17.9179 31.9202 18.4619C31.136 19.5682 30.4231 20.7189 29.7528 21.8958C29.2859 22.7158 28.8439 23.5483 28.4327 24.3967C27.7844 25.7346 27.1875 27.0935 26.6882 28.494C26.4445 29.1779 26.2286 29.8698 26.0392 30.5704C26.0289 30.6075 26.0172 30.6446 26.0062 30.6818C25.9973 30.7131 25.9739 30.7255 25.9438 30.7255C25.9159 30.7255 25.888 30.724 25.8601 30.7218C25.5656 30.6927 25.272 30.6629 24.9775 30.6352C24.8167 30.6199 24.6552 30.6068 24.4937 30.5973C24.2044 30.5798 23.9144 30.5631 23.6244 30.5507C23.3682 30.5398 23.1119 30.5318 22.855 30.5274C22.6039 30.523 22.3528 30.531 22.1024 30.55C22.0694 30.5522 22.0356 30.5529 22.0025 30.5536C21.9695 30.5536 21.9504 30.5354 21.946 30.5048C21.9372 30.4444 21.9269 30.3847 21.9232 30.3242C21.8719 29.5333 21.8697 28.7416 21.8976 27.95C21.9064 27.6907 21.9122 27.4307 21.9416 27.1715C21.9607 27.0069 21.9636 26.8408 21.9776 26.6748C22.0202 26.1504 22.0796 25.629 22.1472 25.1075C22.2463 24.345 22.3711 23.5861 22.5135 22.8302C22.6516 22.0961 22.808 21.3656 22.9937 20.6417C23.2008 19.8369 23.4408 19.0424 23.7624 18.2733C23.9313 17.8684 24.1193 17.4729 24.3689 17.1095C24.4357 17.0134 24.5076 16.9216 24.5928 16.8073Z" fill="#0F0F0F"/>
<path fill-rule="evenodd" clip-rule="evenodd" d="M19.249 31.7073C19.7776 31.708 20.2093 31.7503 20.6411 31.8122C21.6432 31.9556 22.5962 32.2513 23.5001 32.7014C23.9303 32.9155 24.337 33.1668 24.7034 33.4792C25.0316 33.7589 25.3209 34.0713 25.5338 34.4485C25.6212 34.6037 25.6821 34.7683 25.7181 34.9445C25.7533 35.1193 25.7335 35.2853 25.6836 35.4514C25.6322 35.6218 25.5257 35.7551 25.3862 35.8629C25.2533 35.9656 25.1043 36.0413 24.9464 36.0996C24.6733 36.2008 24.3906 36.2627 24.1036 36.3028C23.7776 36.3486 23.4501 36.3741 23.1205 36.38C22.9817 36.3829 22.8422 36.4003 22.7027 36.3923C22.4024 36.3763 22.1014 36.3727 21.8011 36.3472C21.423 36.3159 21.0471 36.2678 20.6734 36.2037C20.1176 36.1083 19.5684 35.9874 19.0464 35.7689C18.6903 35.6204 18.3525 35.4376 18.0515 35.195C17.6264 34.8527 17.307 34.434 17.122 33.9191C16.9891 33.5498 16.9583 33.177 17.0618 32.7939C17.1705 32.3911 17.4201 32.1137 17.8004 31.9462C18.042 31.8398 18.2967 31.783 18.5574 31.7452C18.8173 31.7095 19.0794 31.7058 19.249 31.7073Z" fill="#0F0F0F"/>
</svg>
