<?xml version="1.0" encoding="UTF-8"?>
<svg width="40px" height="40px" viewBox="0 0 40 40" version="1.1" xmlns="http://www.w3.org/2000/svg" xmlns:xlink="http://www.w3.org/1999/xlink">
    <!-- Generator: Sketch 52.4 (67378) - http://www.bohemiancoding.com/sketch -->
    <title>Artboard</title>
    <desc>Created with Sketch.</desc>
    <g id="Artboard" stroke="none" stroke-width="1" fill="none" fill-rule="evenodd">
        <path d="M33.2805503,0 L0,0 L0,33.2805503 C0,40 6.71801669,40 6.71801669,40 L40,40 L40,6.71801669 C39.998567,0 33.2805503,0 33.2805503,0 Z" id="Path" fill="#EF182C"></path>
        <path d="M19.0563909,33.734293 L17.0921052,33.734293 L17.0921052,23.674293 L19.0563909,23.674293 L19.0563909,33.734293 Z M24.0578195,33.734293 L20.8421052,33.734293 L20.8421052,19.9257215 L24.0578195,19.9257215 L24.0578195,33.734293 Z M32.4406767,20.5757215 C30.9821052,23.2928644 27.5978195,24.3928644 27.5978195,24.3928644 C27.2206767,24.5485787 27.0535338,24.3085787 27.0535338,24.3085787 C26.8521052,24.0000072 27.2221052,23.784293 27.2221052,23.784293 C29.4321052,22.2614358 30.0149624,20.5771501 30.0149624,20.5771501 C32.0306767,15.734293 24.0263909,13.1228644 24.0263909,13.1228644 C19.3135338,11.3485787 13.7863909,12.1214358 13.7863909,12.1214358 C12.3349624,14.4085787 12.1521052,17.2971501 12.5392481,19.3857215 C13.0049624,21.954293 14.2021052,23.7557215 14.2021052,23.7557215 C14.3663909,24.0300072 14.1349624,24.1985787 14.1349624,24.1985787 C13.8678195,24.374293 13.6235338,24.1185787 13.6235338,24.1185787 C12.1192481,22.7585787 11.1378195,21.0671501 10.5992481,19.4071501 C9.38924808,15.674293 10.5478195,12.6671501 10.5478195,12.6671501 C9.10639094,12.9885787 7.61067665,13.504293 7.61067665,13.504293 C7.19496237,13.7014358 7.04067665,13.4357215 7.04067665,13.4357215 C6.86067665,13.0671501 7.33639094,12.8771501 7.33639094,12.8771501 C8.94639094,11.974293 11.0935338,11.2785787 11.0935338,11.2785787 C12.6006767,8.21286438 15.3163909,7.08857867 15.3163909,7.08857867 C19.7306767,5.01000724 24.0278195,6.5471501 24.0278195,6.5471501 C27.1535338,7.51857867 28.7378195,9.71572153 28.7378195,9.71572153 C29.0349624,10.0285787 28.7692481,10.2400072 28.7692481,10.2400072 C28.5578195,10.4500072 28.2835338,10.1914358 28.2835338,10.1914358 C26.4406767,8.55572153 24.0363909,8.18286438 24.0363909,8.18286438 C18.5735338,7.14000724 15.3306767,10.3071501 15.3306767,10.3071501 C19.5778195,9.6671501 24.0278195,10.7671501 24.0278195,10.7671501 C26.4963909,11.3171501 28.4163909,12.344293 28.4163909,12.344293 C35.4049624,16.0414358 32.4406767,20.5757215 32.4406767,20.5757215 Z" id="Shape" fill="#FFFFFF" fill-rule="nonzero"></path>
    </g>
</svg>