<svg width="58" height="34" viewBox="0 0 58 34" fill="none" xmlns="http://www.w3.org/2000/svg">
<g clip-path="url(#clip0)">
<path d="M21.7017 19.5912C21.5539 18.7906 21.3606 18.0129 21.0651 17.2581C20.7809 16.5376 20.4512 15.84 20.0306 15.1881C19.4622 14.2961 18.8142 13.4726 18.0071 12.7865C17.666 12.5005 17.325 12.2146 16.9726 11.963C16.3928 11.5399 15.7675 11.2197 15.1082 10.9338C14.1874 10.5449 13.2325 10.3162 12.2434 10.2247C11.7887 10.1789 11.334 10.2018 10.8793 10.2247C10.4245 10.2476 9.95845 10.3047 9.50372 10.3734C8.71933 10.4877 7.95766 10.7393 7.25284 11.1053C6.72991 11.3798 6.22971 11.7229 5.72952 12.0431C5.50216 12.1918 5.28616 12.3519 5.0247 12.5463C5.0247 8.92094 5.0247 5.35277 5.0247 1.76172C3.31948 2.24205 1.65974 2.74525 0 3.23702C0 13.0495 0 22.8391 0 32.6287C1.69385 32.6287 3.37632 32.6287 5.07017 32.6287C5.07017 32.034 5.07017 31.4508 5.07017 30.8217C5.33163 31.0047 5.559 31.1763 5.78636 31.3364C6.44571 31.8053 7.15053 32.217 7.91219 32.5143C8.82164 32.8689 9.76519 33.0633 10.7315 33.1205C11.5841 33.1662 12.4367 33.1205 13.2779 32.9489C14.3693 32.7316 15.3924 32.3428 16.3473 31.7824C17.3818 31.1648 18.2913 30.3986 19.0643 29.4722C19.5645 28.8776 20.0192 28.2371 20.383 27.5395C20.8263 26.7161 21.1788 25.8469 21.4289 24.932C21.6789 24.0056 21.8267 23.0678 21.8495 22.1072C21.8608 21.6497 21.8381 21.1808 21.8154 20.7234C21.7926 20.346 21.7699 19.9686 21.7017 19.5912ZM16.0972 24.8176C15.7789 25.4352 15.3583 25.9956 14.8467 26.4645C14.0282 27.1964 13.0847 27.6882 11.9933 27.8597C11.6523 27.9169 11.2999 27.9741 10.9475 27.9626C9.68561 27.9398 8.52607 27.5967 7.51431 26.8419C6.28655 25.9155 5.53626 24.6804 5.20659 23.1593C5.0929 22.6332 5.0247 22.1072 5.03606 21.5811C5.0588 20.6662 5.22932 19.7741 5.5931 18.9278C5.95688 18.0701 6.49118 17.3496 7.17327 16.7435C7.93493 16.0802 8.82164 15.6456 9.82203 15.4626C10.3109 15.3711 10.7997 15.3254 11.2885 15.3597C11.9933 15.4054 12.6641 15.5541 13.312 15.8514C14.0851 16.206 14.7444 16.7092 15.3128 17.3496C15.7903 17.8871 16.1541 18.4933 16.3814 19.168C16.5519 19.6826 16.677 20.2202 16.7907 20.7577C16.8475 21.055 16.8361 21.3638 16.8475 21.6726C16.8589 22.7934 16.6088 23.8455 16.0972 24.8176Z" fill="#353BC9"/>
<path d="M38.5606 23.3535C38.1513 22.633 37.6056 22.0269 36.9577 21.5237C36.2074 20.9404 35.3775 20.4715 34.5022 20.117C33.4108 19.6824 32.3081 19.2707 31.2168 18.8246C30.6256 18.5845 30.0459 18.3214 29.4888 18.0012C28.9432 17.6924 28.4884 17.2693 28.4089 16.5717C28.352 16.1028 28.4657 15.7025 28.7613 15.3594C29.216 14.8333 29.8412 14.6618 30.5006 14.616C30.9439 14.5817 31.3987 14.6275 31.842 14.6846C32.2854 14.7418 32.6946 14.9363 33.0243 15.2565C33.4563 15.6682 33.6268 16.2057 33.6495 16.7775C33.6723 17.1664 33.6495 17.5666 33.6495 17.9669C35.332 17.9669 36.9918 17.9669 38.6629 17.9669C38.6629 17.6696 38.6742 17.3722 38.6629 17.0863C38.6401 16.606 38.6515 16.1142 38.5833 15.6339C38.5037 15.0506 38.3218 14.4788 38.0831 13.9413C37.7989 13.2894 37.4351 12.6947 36.9577 12.1686C36.2756 11.4024 35.4457 10.8191 34.5022 10.4074C33.4677 9.96139 32.3763 9.73266 31.2509 9.69835C30.8644 9.68692 30.4778 9.70979 30.0913 9.73266C29.8071 9.7441 29.5116 9.7441 29.2387 9.81272C28.6703 9.94996 28.1133 10.0986 27.5676 10.293C26.7946 10.5675 26.1125 11.0021 25.51 11.5511C24.7711 12.2258 24.2027 13.0264 23.8275 13.9756C23.5888 14.5703 23.4183 15.1879 23.3955 15.8169C23.3728 16.3887 23.4183 16.9719 23.4637 17.5438C23.5092 18.0584 23.6684 18.5616 23.8844 19.0419C24.2254 19.7967 24.7029 20.4601 25.3167 21.009C25.8397 21.4779 26.4081 21.8667 27.0219 22.1984C28.3747 22.9418 29.8412 23.3878 31.2736 23.9367C32.1149 24.257 32.9447 24.5886 33.6609 25.1604C33.9792 25.4235 34.1952 25.7666 34.2293 26.1783C34.2748 26.773 34.0247 27.2533 33.5359 27.5964C32.9447 28.0196 32.2626 28.1454 31.5692 28.1911C30.978 28.2254 30.3755 28.1682 29.8071 28.0081C29.1819 27.8366 28.6362 27.5392 28.2611 26.9903C28.011 26.6243 27.8859 26.2126 27.8859 25.778C27.8859 25.3434 27.8859 24.9088 27.8859 24.4628C26.1921 24.4628 24.521 24.4628 22.8044 24.4628C22.8044 25.2519 22.7703 25.698 22.8499 26.4528C22.9181 27.0818 23.1227 27.7908 23.3501 28.3855C23.782 29.5063 24.4641 30.4555 25.3736 31.2103C26.1239 31.8279 26.9651 32.2625 27.8859 32.5827C28.7385 32.8686 29.6252 33.0402 30.5233 33.0859C31.3646 33.1317 32.2058 33.1317 33.047 32.983C34.002 32.8114 34.9228 32.5255 35.7754 32.0452C36.6394 31.5649 37.3783 30.9473 37.9808 30.1582C38.7197 29.1861 39.129 28.0882 39.2313 26.8874C39.2768 26.3727 39.254 25.8466 39.1972 25.3434C39.129 24.6572 38.913 23.9825 38.5606 23.3535Z" fill="#353BC9"/>
<path d="M50.4516 30.6833C50.1902 30.6833 49.9969 30.5003 49.9969 30.2487C49.9969 29.9399 50.2015 29.7569 50.5653 29.7569C52.2591 29.7569 53.9416 29.7569 55.6355 29.7569C55.7037 29.7569 55.7833 29.7569 55.8515 29.7569C55.8515 29.0936 55.8515 28.4418 55.8515 27.7899C53.3164 27.7899 50.7358 27.7899 48.2121 27.7899C48.2007 27.7784 48.2462 27.767 48.2348 27.7441C48.5986 27.401 48.9624 27.0465 49.3262 26.7034C49.7695 26.2688 50.2243 25.8457 50.6562 25.3997C51.2929 24.7592 51.9181 24.1188 52.532 23.4669C52.8958 23.0781 53.2368 22.6778 53.5551 22.2546C54.2713 21.2597 54.8965 20.2189 55.2035 19.0067C55.3172 18.5721 55.4195 18.1146 55.4422 17.6686C55.4763 17.0053 55.4763 16.342 55.3513 15.6901C55.2262 15.0725 55.0671 14.4778 54.8056 13.906C54.385 13.0025 53.8507 12.1677 53.0663 11.5272C52.6798 11.207 52.2705 10.8982 51.8272 10.6466C50.8154 10.0519 49.69 9.77746 48.5304 9.72028C47.9165 9.68597 47.2913 9.72028 46.6888 9.80033C46.0294 9.88039 45.3815 10.0519 44.7562 10.315C43.7217 10.7496 42.8009 11.3328 42.0506 12.1906C41.5504 12.7624 41.1639 13.3799 40.8797 14.0776C40.5273 14.9239 40.3568 15.8045 40.334 16.7194C40.3227 17.0854 40.334 17.4628 40.334 17.8287C40.334 17.8859 40.3454 17.9317 40.3454 17.9888C42.0051 17.9888 43.6535 17.9888 45.3132 17.9888C45.3132 17.9088 45.3132 17.8402 45.3132 17.7601C45.3246 17.337 45.3019 16.9252 45.3587 16.5021C45.461 15.6329 45.9385 15.0382 46.7684 14.7638C47.3027 14.5922 47.837 14.535 48.394 14.6151C48.8032 14.6723 49.167 14.7866 49.5081 15.0154C50.3379 15.5757 50.5994 16.6736 50.4175 17.5428C50.3038 18.1375 50.0424 18.6865 49.6786 19.1668C49.2466 19.75 48.8032 20.3219 48.303 20.8479C47.5073 21.6828 46.6774 22.4719 45.8589 23.2839C44.8244 24.3132 43.8013 25.3539 42.7668 26.3946C42.5735 26.589 42.403 26.7949 42.2439 27.0008C41.7664 27.6412 41.3458 28.316 41.0388 29.0593C40.8115 29.6083 40.6182 30.1801 40.5159 30.7634C40.4477 31.1522 40.3795 31.541 40.334 31.9299C40.3113 32.17 40.334 32.4102 40.334 32.6389C45.5179 32.6389 50.679 32.6389 55.8401 32.6389C55.8401 31.9871 55.8401 31.3352 55.8401 30.6833C55.3285 30.6833 54.817 30.6833 54.3168 30.6833C53.0322 30.6833 51.7362 30.6833 50.4516 30.6833Z" fill="#353BC9"/>
<path d="M41.2548 5.60368C41.2548 5.69517 41.2661 5.78666 41.2661 5.88959H42.5848C42.5848 5.22628 42.6076 4.5744 42.5735 3.92252C42.5621 3.49937 42.5166 3.06479 42.4257 2.66451C42.3234 2.22993 42.0392 1.89827 41.6072 1.74959C41.0729 1.55517 40.5158 1.55517 39.9702 1.69241C39.5837 1.79534 39.2199 1.95545 38.913 2.22993C38.8106 2.32142 38.8334 2.42435 38.8902 2.48153C39.0948 2.73313 39.3222 2.95042 39.5496 3.17915C39.7769 2.92755 40.0725 2.82462 40.3908 2.756C40.7773 2.66451 41.1411 2.8818 41.2093 3.24777C41.0274 3.25921 40.8342 3.28208 40.6523 3.29352C40.1748 3.31639 39.7201 3.40788 39.2767 3.62517C38.5151 4.00258 38.481 5.04329 38.9584 5.55793C39.3677 5.99252 40.1748 6.15263 40.7205 5.90103C40.9024 5.82097 41.0729 5.70661 41.2548 5.60368ZM40.1293 4.96324C40.0043 4.90606 39.9361 4.826 39.9247 4.68876C39.9133 4.54009 39.9702 4.41429 40.1066 4.35711C40.2771 4.28849 40.459 4.23131 40.6409 4.20843C40.8342 4.17412 41.0388 4.17412 41.2548 4.15125C41.2775 4.4486 41.2548 4.68876 41.0274 4.87175C40.7432 5.0776 40.4476 5.10048 40.1293 4.96324Z" fill="#353BC9"/>
<path d="M48.3258 5.60388C48.6441 5.85548 49.0192 5.96985 49.4285 6.02703C50.0878 6.11852 50.6903 5.98128 51.236 5.60388C51.3042 5.55813 51.3724 5.51239 51.2928 5.40946C51.0541 5.12355 50.8154 4.8262 50.588 4.52885C50.2015 4.92913 49.5194 4.952 49.167 4.52885C48.8032 4.08283 48.826 3.53388 49.2352 3.12217C49.5535 2.79051 50.031 2.76764 50.5312 3.21366C50.7927 2.91631 51.0428 2.6304 51.2815 2.33305C51.3497 2.24156 51.3497 2.13863 51.2133 2.03571C50.5767 1.60112 49.8832 1.50963 49.1556 1.69261C48.5531 1.84129 48.0757 2.17294 47.7801 2.73333C47.5414 3.19079 47.4618 3.68256 47.5414 4.1972C47.5982 4.76902 47.8711 5.23791 48.3258 5.60388Z" fill="#353BC9"/>
<path d="M57.2952 30.924C57.6844 30.924 58 30.6065 58 30.2149C58 29.8233 57.6844 29.5059 57.2952 29.5059C56.9059 29.5059 56.5903 29.8233 56.5903 30.2149C56.5903 30.6065 56.9059 30.924 57.2952 30.924Z" fill="#353BC9"/>
<path d="M36.4347 5.88949C36.7303 5.87806 37.0372 5.82087 37.3214 5.74082C37.6852 5.63789 38.0376 5.45491 38.2423 5.11181C38.3673 4.90596 38.4355 4.66579 38.4924 4.42563C38.5947 3.96817 38.4924 3.54502 38.1627 3.21336C37.9808 3.03038 37.7534 2.91601 37.5488 2.77878C37.617 2.73303 37.7193 2.66441 37.8103 2.58436C38.2309 2.20695 38.3446 1.71519 38.265 1.18911C38.2195 0.891761 38.0831 0.628723 37.833 0.434303C37.4124 0.102646 36.9236 -0.000282294 36.412 -0.0117188C35.6503 -0.000282294 34.9 -0.000282294 34.1497 -0.000282294C34.0815 -0.000282294 34.0247 -0.000282294 33.9678 -0.000282294C33.9678 1.97822 33.9678 3.93386 33.9678 5.90093C34.7977 5.90093 35.6162 5.91237 36.4347 5.88949ZM37.0031 4.0711C37.0031 4.39132 36.628 4.65436 36.3097 4.65436H35.332V3.4764H36.3097C36.628 3.4764 37.0031 3.75087 37.0031 4.0711ZM35.332 1.30347H36.2074C36.4916 1.30347 36.8212 1.5322 36.8212 1.80668C36.8212 2.08115 36.4916 2.30988 36.2074 2.30988H35.332V1.30347Z" fill="#353BC9"/>
<path d="M44.5061 3.70451C44.5061 3.16699 44.7903 2.84677 45.1199 2.84677C45.461 2.84677 45.7338 3.18987 45.7338 3.73882V5.87743C46.3932 5.87743 46.9616 5.87743 47.1435 5.87743C47.1435 5.79738 47.1435 5.7402 47.1435 5.67158C47.1435 4.88246 47.1435 4.09335 47.1435 3.2928C47.1435 3.12125 47.1435 2.9497 47.1094 2.77815C46.8934 1.81749 46.1658 1.48584 45.2905 1.64595C44.9381 1.71456 44.6425 1.90898 44.4151 2.25208C44.4151 2.04622 44.4151 1.89755 44.4151 1.726C43.9718 1.726 43.5511 1.726 43.1078 1.726C43.1078 3.10981 43.1078 4.49362 43.1078 5.866C43.2897 5.866 43.8467 5.866 44.4947 5.866V3.70451H44.5061Z" fill="#353BC9"/>
<path d="M53.4528 6.03891C54.726 6.03891 55.7491 5.04394 55.7491 3.82023C55.7491 2.49361 54.726 1.60156 53.4528 1.60156C52.1796 1.60156 51.1564 2.43642 51.1564 3.82023C51.1564 5.04394 52.1909 6.03891 53.4528 6.03891ZM53.4528 2.82526C53.953 2.82526 54.3736 3.22554 54.3736 3.8088C54.3736 4.35775 53.9644 4.79233 53.4528 4.79233C52.9412 4.79233 52.532 4.34631 52.532 3.8088C52.5433 3.20267 52.9526 2.82526 53.4528 2.82526Z" fill="#353BC9"/>
</g>
<defs>
<clipPath id="clip0">
<rect width="58" height="33.1428" fill="white"/>
</clipPath>
</defs>
</svg>
