<svg width="39" height="26" viewBox="0 0 39 26" fill="none" xmlns="http://www.w3.org/2000/svg">
<path fill-rule="evenodd" clip-rule="evenodd" d="M39 22.75C39 24.5375 37.5375 26 35.75 26H3.25C1.4625 26 0 24.5375 0 22.75V3.25C0 1.4625 1.4625 0 3.25 0H35.75C37.5375 0 39 1.4625 39 3.25V22.75Z" fill="white"/>
<path d="M35.75 0H3.25C1.4625 0 0 1.4625 0 3.25V22.75C0 24.5375 1.4625 26 3.25 26H35.75C37.5375 26 39 24.5375 39 22.75V3.25C39 1.4625 37.5375 0 35.75 0ZM35.75 0.65C37.1839 0.65 38.35 1.8161 38.35 3.25V22.75C38.35 24.1839 37.1839 25.35 35.75 25.35H3.25C1.8161 25.35 0.65 24.1839 0.65 22.75V3.25C0.65 1.8161 1.8161 0.65 3.25 0.65H35.75Z" fill="#B3B3B3"/>
<path fill-rule="evenodd" clip-rule="evenodd" d="M26.555 6.00138V6C25.2788 6 24.2321 7.03361 24.2321 8.32286V10.7353H27.5128C27.5892 10.7353 27.6788 10.7353 27.7422 10.7484C28.4823 10.787 29.0315 11.1694 29.0315 11.8337C29.0315 12.3567 28.6614 12.8039 27.9724 12.8935V12.919C28.7255 12.97 29.2995 13.391 29.2995 14.0421C29.2995 14.7443 28.6614 15.2039 27.8187 15.2039H24.219V19.9268H27.6271C28.9033 19.9268 29.95 18.8932 29.95 17.604V6.00138H26.555Z" fill="url(#paint0_linear)"/>
<path fill-rule="evenodd" clip-rule="evenodd" d="M25.3684 14.4625H26.7086C26.7472 14.4625 26.8361 14.4501 26.8747 14.4501C27.1296 14.3991 27.3467 14.1689 27.3467 13.8499C27.3467 13.5433 27.1296 13.3138 26.8747 13.2497C26.8361 13.2366 26.7596 13.2366 26.7086 13.2366H25.3684V14.4625Z" fill="url(#paint1_linear)"/>
<path fill-rule="evenodd" clip-rule="evenodd" d="M27.1806 11.9867C27.1806 11.68 26.9636 11.4761 26.7086 11.4375C26.6831 11.4375 26.619 11.4244 26.5811 11.4244H25.3684V12.5476H26.5811C26.6197 12.5476 26.6962 12.5476 26.7086 12.5345C26.9636 12.4973 27.1806 12.2926 27.1806 11.9867Z" fill="url(#paint2_linear)"/>
<path fill-rule="evenodd" clip-rule="evenodd" d="M19.4451 6C18.1689 6 17.1222 7.03361 17.1222 8.32286V11.361C17.7093 10.8635 18.7305 10.5437 20.3774 10.6209C21.258 10.6595 22.2028 10.9021 22.2028 10.9021V11.8847C21.7307 11.6421 21.1691 11.4251 20.4415 11.3741C19.1908 11.2845 18.4377 11.8971 18.4377 12.9693C18.4377 14.0546 19.1908 14.6671 20.4415 14.5645C21.1691 14.5135 21.7307 14.2833 22.2028 14.0539V15.0365C22.2028 15.0365 21.2711 15.279 20.3774 15.3176C18.7305 15.3941 17.7093 15.0751 17.1222 14.5776V19.9385H20.5304C21.8065 19.9385 22.8532 18.9049 22.8532 17.6157V6H19.4451Z" fill="url(#paint3_linear)"/>
<path fill-rule="evenodd" clip-rule="evenodd" d="M12.3353 6C11.0591 6 10.0124 7.03361 10.0124 8.32286V14.0539C10.6636 14.3729 11.3402 14.5769 12.0162 14.5769C12.8204 14.5769 13.2545 14.0918 13.2545 13.4282V10.7222H15.2459V13.4158C15.2459 14.4625 14.5947 15.3176 12.3869 15.3176C11.0467 15.3176 10 15.0241 10 15.0241V19.913H13.4081C14.6843 19.913 15.731 18.8794 15.731 17.5902V6H12.3353Z" fill="url(#paint4_linear)"/>
<defs>
<linearGradient id="paint0_linear" x1="24.3966" y1="12.9634" x2="29.7946" y2="12.9634" gradientUnits="userSpaceOnUse">
<stop stop-color="#007D40"/>
<stop offset="1" stop-color="#53B232"/>
</linearGradient>
<linearGradient id="paint1_linear" x1="24.3966" y1="13.8496" x2="29.7945" y2="13.8496" gradientUnits="userSpaceOnUse">
<stop stop-color="#007D40"/>
<stop offset="1" stop-color="#53B232"/>
</linearGradient>
<linearGradient id="paint2_linear" x1="24.3966" y1="11.986" x2="29.7945" y2="11.986" gradientUnits="userSpaceOnUse">
<stop stop-color="#007D40"/>
<stop offset="1" stop-color="#53B232"/>
</linearGradient>
<linearGradient id="paint3_linear" x1="17.1222" y1="12.9693" x2="22.8532" y2="12.9693" gradientUnits="userSpaceOnUse">
<stop stop-color="#762A2E"/>
<stop offset="1" stop-color="#E30138"/>
</linearGradient>
<linearGradient id="paint4_linear" x1="10" y1="12.9565" x2="15.731" y2="12.9565" gradientUnits="userSpaceOnUse">
<stop stop-color="#1B2D74"/>
<stop offset="1" stop-color="#006BB6"/>
</linearGradient>
</defs>
</svg>
