<svg width="39" height="26" viewBox="0 0 39 26" fill="none" xmlns="http://www.w3.org/2000/svg">
<path fill-rule="evenodd" clip-rule="evenodd" d="M39 22.75C39 24.5375 37.5375 26 35.75 26H3.25C1.4625 26 0 24.5375 0 22.75V3.25C0 1.4625 1.4625 0 3.25 0H35.75C37.5375 0 39 1.4625 39 3.25V22.75Z" fill="white"/>
<path fill-rule="evenodd" clip-rule="evenodd" d="M38.3706 18V22.5634C38.3706 22.9821 38.2848 23.3812 38.1303 23.7445C37.9751 24.1077 37.7524 24.4363 37.4768 24.7119C37.2012 24.9876 36.8732 25.2102 36.5094 25.3654C36.1449 25.52 35.7464 25.6057 35.3283 25.6057H21.6642H8L38.3706 18Z" fill="#F16821"/>
<path fill-rule="evenodd" clip-rule="evenodd" d="M20.4494 10.7782C19.1128 10.7782 18.0276 11.8226 18.0276 13.1108C18.0276 14.4806 19.065 15.5056 20.4494 15.5056C21.7978 15.5056 22.8623 14.4682 22.8623 13.1392C22.8623 11.815 21.8048 10.7782 20.4494 10.7782V10.7782Z" fill="url(#paint0_linear)"/>
<path fill-rule="evenodd" clip-rule="evenodd" d="M14.123 13.1079C14.123 14.4556 15.1819 15.5007 16.5434 15.5007C16.9285 15.5007 17.2588 15.4252 17.664 15.2327V14.18C17.3052 14.538 16.9901 14.6821 16.5843 14.6821C15.6833 14.6821 15.0434 14.029 15.0434 13.101C15.0434 12.2208 15.7041 11.5268 16.5434 11.5268C16.9694 11.5268 17.2921 11.6778 17.664 12.0428V10.9901C17.272 10.7906 16.9486 10.7082 16.5642 10.7082C15.2096 10.7082 14.123 11.7748 14.123 13.1079ZM25.1373 15.5142H24.656L22.7106 10.811H23.6864L24.9094 13.8915L26.147 10.811H27.1173L25.1373 15.5142ZM27.5232 10.811V15.3971V15.3978H30.0593V14.6208H28.4166V13.3832H29.9977V12.6061H28.4166V11.5881H30.0593V10.811H27.5232ZM34 15.3971L32.556 13.4649C33.2292 13.3285 33.6011 12.8672 33.6011 12.1664C33.6011 11.3062 33.011 10.811 31.9791 10.811H30.6522V15.3971H31.5462V13.5549H31.6633L32.9009 15.3971H34ZM32.6807 12.216C32.6807 12.6765 32.3766 12.9245 31.8074 12.9245H31.5463V11.5352H31.8205C32.3766 11.5359 32.6807 11.7693 32.6807 12.216ZM12.26 15.5087C11.5786 15.5087 11.0841 15.2407 10.672 14.6354L11.2496 14.0786C11.4553 14.4768 11.7995 14.6901 12.2247 14.6901C12.6243 14.6901 12.9193 14.4151 12.9193 14.0439C12.9193 13.8514 12.8314 13.6866 12.6527 13.5688C12.5627 13.5141 12.384 13.431 12.0336 13.3084C11.1949 13.0058 10.9061 12.6831 10.9061 12.0501C10.9061 11.3014 11.5252 10.7377 12.3355 10.7377C12.8376 10.7377 13.2989 10.9094 13.6832 11.246L13.2164 11.8582C12.9817 11.5964 12.7628 11.4863 12.4941 11.4863C12.1097 11.4863 11.8265 11.7066 11.8265 11.9954C11.8265 12.2433 11.9865 12.3735 12.5218 12.5729C13.5392 12.9448 13.8418 13.2745 13.8418 14.0031C13.8418 14.8888 13.188 15.5087 12.26 15.5087ZM10.334 10.811H9.44128V15.3971H10.334V10.811ZM9.02918 13.1075C9.02918 11.7529 8.01805 10.811 6.56784 10.811H5.25476V15.3971H6.56023C7.25486 15.3971 7.75696 15.2323 8.19673 14.8673C8.71961 14.4352 9.02918 13.7814 9.02918 13.1075ZM7.61295 14.2564C7.92252 13.9815 8.10743 13.5417 8.10743 13.1012C8.10743 12.6615 7.92252 12.2348 7.61295 11.9592C7.31723 11.6912 6.96679 11.588 6.3892 11.588H6.14819V14.6207H6.3892C6.96679 14.6207 7.33108 14.5106 7.61295 14.2564Z" fill="#221F1F"/>
<path fill-rule="evenodd" clip-rule="evenodd" d="M18.2984 13.3871C18.2984 12.0989 19.3836 11.0546 20.7202 11.0546C21.3359 11.0546 21.8893 11.2686 22.311 11.6259C21.8726 11.1051 21.2057 10.7782 20.4439 10.7782C19.1073 10.7782 18.022 11.8226 18.022 13.1108C18.022 13.8636 18.3358 14.5118 18.8476 14.9433C18.502 14.5312 18.2984 13.9931 18.2984 13.3871Z" fill="#A3310B"/>
<path d="M35.75 0H3.25C1.4625 0 0 1.4625 0 3.25V22.75C0 24.5375 1.4625 26 3.25 26H35.75C37.5375 26 39 24.5375 39 22.75V3.25C39 1.4625 37.5375 0 35.75 0ZM35.75 0.65C37.1839 0.65 38.35 1.8161 38.35 3.25V22.75C38.35 24.1839 37.1839 25.35 35.75 25.35H3.25C1.8161 25.35 0.65 24.1839 0.65 22.75V3.25C0.65 1.8161 1.8161 0.65 3.25 0.65H35.75Z" fill="#B3B3B3"/>
<defs>
<linearGradient id="paint0_linear" x1="16.8773" y1="12.6064" x2="19.7761" y2="16.8549" gradientUnits="userSpaceOnUse">
<stop stop-color="#E25416"/>
<stop offset="1" stop-color="#F9A020"/>
</linearGradient>
</defs>
</svg>
