<?xml version="1.0" encoding="UTF-8"?>
<svg width="43px" height="28px" viewBox="0 0 43 28" version="1.1" xmlns="http://www.w3.org/2000/svg" xmlns:xlink="http://www.w3.org/1999/xlink">
    <!-- Generator: Sketch 52.4 (67378) - http://www.bohemiancoding.com/sketch -->
    <title>Group</title>
    <desc>Created with Sketch.</desc>
    <g id="Page-1" stroke="none" stroke-width="1" fill="none" fill-rule="evenodd">
        <g id="Artboard" transform="translate(-104.000000, -115.000000)">
            <g id="Group" transform="translate(104.000000, 115.000000)">
                <path d="M13.172,0.926 L1.581,12.111 C0.998511224,12.5476041 0.655666506,13.2330465 0.655666506,13.961 C0.655666506,14.6889535 0.998511224,15.3743959 1.581,15.811 L13.172,26.996 C13.249,27.073 13.249,27.073 13.404,27.073 C13.481,27.073 13.559,26.996 13.559,26.842 C13.559,26.765 13.482,26.688 13.482,26.611 C7.19669669,19.3191652 7.19669669,8.52483478 13.482,1.233 C13.5411737,1.17154263 13.5694645,1.0866701 13.559,1.002 C13.559,0.848 13.482,0.771 13.404,0.771 C13.327,0.848 13.249,0.848 13.172,0.925" id="Path_508" fill="#EF3742"></path>
                <path d="M22.059,0 C17.5,0 15.722,6.4 15.722,14.039 C15.722,21.678 17.499,28 22.059,28 C24.759,28 27.082,26.38 27.082,25.069 C27.0971427,24.7791059 26.9841597,24.497197 26.773,24.298 C25.7042572,23.420898 25.0583039,22.1311725 24.996,20.75 C25.0056007,18.8088952 26.5339804,17.2154594 28.473,17.125 C30.791,17.125 32.105,18.899 32.105,21.29 C32.0454261,23.2955843 31.3709873,25.2344212 30.173,26.844 C30.1648985,26.902383 30.1378455,26.956489 30.096,26.998 C30.096,27.152 30.173,27.229 30.251,27.229 C30.329,27.229 30.328,27.229 30.483,27.152 L42.074,15.967 C42.6453023,15.5205273 42.9856636,14.8409062 43.001,14.116 C43.0028275,13.3869517 42.6588997,12.7002092 42.074,12.265 L30.482,1.08 C30.4202342,1.02066262 30.3349879,0.992369674 30.25,1.003 C30.173,1.003 30.095,1.08 30.095,1.234 C30.1031015,1.29238298 30.1301545,1.34648901 30.172,1.388 C31.3699873,2.99757883 32.0444261,4.93641565 32.104,6.942 C32.104,9.256 30.79,11.107 28.472,11.107 C26.5329804,11.0165406 25.0046007,9.42310481 24.995,7.482 C25.0573039,6.10082753 25.7032572,4.81110203 26.772,3.934 C26.9718016,3.72725827 27.0827178,3.4505063 27.081,3.163 C27.081,1.62 24.84,2.27373675e-13 22.058,2.27373675e-13" id="Path_509" fill="#1852CC"></path>
            </g>
        </g>
    </g>
</svg>