<?xml version="1.0" encoding="UTF-8"?>
<svg width="60px" height="65px" viewBox="0 0 60 65" version="1.1" xmlns="http://www.w3.org/2000/svg" xmlns:xlink="http://www.w3.org/1999/xlink">
    <!-- Generator: Sketch 52.4 (67378) - http://www.bohemiancoding.com/sketch -->
    <title>Path</title>
    <desc>Created with Sketch.</desc>
    <g id="RELATORIOS" stroke="none" stroke-width="1" fill="none" fill-rule="evenodd">
        <g id="Artboard" transform="translate(-138.000000, -63.000000)" fill="#E23A05">
            <path d="M185.854283,106.597678 C182.445957,111.417534 176.903122,114.27502 171.016013,114.257806 C160.481185,114.257806 152.528423,106.270616 152.528423,95.6841473 C152.528423,90.3823058 154.456365,85.5968775 157.950761,82.2057646 C161.341873,78.9179343 165.989592,77.1104884 171.016013,77.1104884 C176.920336,77.0932746 182.463171,79.9679744 185.854283,84.7878303 L186.405124,85.56245 L197.370296,76.2670136 L196.819456,75.6128903 C190.398719,68.0044035 180.948359,63.6148919 170.998799,63.6493195 C152.803843,63.6321057 138,78.0056045 138,95.6841473 C138,113.328263 152.803843,127.65012 170.998799,127.65012 C180.931145,127.701761 190.381505,123.346677 196.802242,115.772618 L197.353082,115.118495 L186.38791,105.823058 L185.854283,106.597678 Z" id="Path"></path>
        </g>
    </g>
</svg>