<svg width="50" height="50" viewBox="0 0 50 50" fill="none" xmlns="http://www.w3.org/2000/svg">
<rect width="50" height="50" rx="10" fill="#A91322"/>
<path fill-rule="evenodd" clip-rule="evenodd" d="M14.0025 22H18.274V23.8699C18.274 24.6374 18.274 24.6374 19.0301 24.6374C23.3161 24.6374 27.601 24.6353 31.887 24.6436C32.158 24.6446 32.2407 24.5722 32.2325 24.2992C32.2139 23.6321 32.2263 22.965 32.2263 22.2979C32.2263 22.2058 32.2263 22.1148 32.2263 22.0031H36.4854C36.4905 22.1169 36.4988 22.2172 36.4988 22.3175C36.4998 23.7645 36.5009 25.2124 36.4988 26.6594C36.4967 27.9998 35.5938 28.9016 34.2462 28.9027C28.2495 28.9047 22.2539 28.9047 16.2572 28.9037C14.8972 28.9037 14.0015 27.9987 14.0005 26.6366C13.9994 25.2176 14.0005 23.7986 14.0005 22.3796C14.0025 22.2586 14.0025 22.1386 14.0025 22Z" fill="white"/>
</svg>
