<?xml version="1.0" encoding="UTF-8"?>
<svg width="128px" height="32px" viewBox="0 0 128 32" version="1.1" xmlns="http://www.w3.org/2000/svg" xmlns:xlink="http://www.w3.org/1999/xlink">
    <!-- Generator: Sketch 52.4 (67378) - http://www.bohemiancoding.com/sketch -->
    <title>Artboard</title>
    <desc>Created with Sketch.</desc>
    <g id="Artboard" stroke="none" stroke-width="1" fill="none" fill-rule="evenodd">
        <path d="M98.4986667,22.852 L104.005333,22.852 L104.005333,25.2626667 C104.005333,26.252 104.005333,26.252 104.98,26.252 C110.505333,26.252 116.029333,26.2493333 121.554667,26.26 C121.904,26.2613333 122.010667,26.168 122,25.816 C121.976,24.956 121.992,24.096 121.992,23.236 C121.992,23.1173333 121.992,23 121.992,22.856 L127.482667,22.856 C127.489333,23.0026667 127.5,23.132 127.5,23.2613333 C127.501333,25.1266667 127.502667,26.9933333 127.5,28.8586667 C127.497333,30.5866667 126.333333,31.7493333 124.596,31.7506667 C116.865333,31.7533333 109.136,31.7533333 101.405333,31.752 C99.652,31.752 98.4973333,30.5853333 98.496,28.8293333 C98.4946667,27 98.496,25.1706667 98.496,23.3413333 C98.4986667,23.1853333 98.4986667,23.0306667 98.4986667,22.852 Z" id="Path" fill="#A91322"></path>
        <path d="M29.092,1.05466667 L29.092,1.05333333 L32.8186667,1.05333333 L32.8186667,1.14666667 C32.8186667,6.80133333 32.8186667,12.4306667 32.8186667,18.1373333 L32.8186667,18.2493333 L29.092,18.2493333 L29.092,11.7493333 L21.9706667,11.7493333 L21.9706667,18.2493333 L18.244,18.2493333 L18.244,1.05466667 L21.9706667,1.05466667 L21.9706667,7.94266667 C24.368,7.94266667 26.6706667,7.94266667 29.092,7.94266667 L29.092,1.05466667 Z M79.7306667,12.6186667 C81.0853333,14.428 82.4266667,16.22 83.9133333,18.2053333 C82.3173333,18.2053333 80.9453333,18.2333333 79.5773333,18.1786667 L79.3693333,18.1786667 L77.2346667,15.3226667 C76.9733333,15.0133333 76.664,14.624 76.2786667,14.112 C75.3466667,12.8706667 74.5906667,12.9 73.124,12.936 L73.124,18.2493333 L69.3973333,18.2493333 L69.3973333,18.1306667 L69.3973333,1.07866667 C70.2306667,1.07866667 71.0266667,1.07866667 71.8226667,1.07866667 L73.124,1.07866667 C74.4,1.07733333 75.6773333,1.07466667 76.9533333,1.08 C79.948,1.092 81.932,2.40666667 82.62,4.824 C83.4973333,7.904 82.5466667,10.7586667 80.1213333,12.332 C80.0146667,12.4 79.916,12.4813333 79.7306667,12.6186667 Z M73.124,9.176 C74.64,9.18 76.0346667,9.22266667 77.4226667,9.15466667 C78.2733333,9.11333333 78.8333333,8.58666667 79.0093333,7.70933333 C79.332,6.09733333 78.544,4.91733333 76.916,4.768 C76.0146667,4.68533333 74.336,4.69466667 73.124,4.724 L73.124,9.176 Z M48.3946667,6.008 C48.3946667,10.1333333 48.3893333,12.4906667 48.3853333,15.068 L48.3853333,18.2493333 L44.672,18.2493333 L44.672,17.1266667 C44.272,17.3333333 43.9493333,17.5093333 43.6173333,17.6693333 C41.6053333,18.6373333 39.5533333,18.92 37.464,17.936 C35.708,17.108 34.7106667,15.72 34.6613333,13.7586667 C34.608,11.6453333 35.3093333,9.87733333 37.288,8.848 C39.2493333,7.82666667 41.384,7.804 43.524,7.88 C43.8733333,7.892 44.2226667,7.92266667 44.56,7.944 C45.04,6.23333333 44.1973333,4.82666667 42.532,4.512 C40.9333333,4.20933333 39.388,4.444 37.8826667,5.02133333 C37.5586667,5.14533333 37.232,5.26533333 36.8186667,5.42 C36.636,4.368 36.4333333,3.39466667 36.32,2.412 C36.296,2.20266667 36.544,1.81333333 36.7453333,1.74666667 C39.4733333,0.841333333 42.244,0.606666667 45.004,1.55466667 C47.0626667,2.26266667 48.3453333,3.81733333 48.3946667,6.008 Z M43.2853333,14.764 C44.0106667,14.3813333 44.4386667,14.1546667 44.6733333,13.9466667 L44.6733333,11.0453333 C44.4266667,11.0253333 44.0106667,11.0333333 43.3133333,11.0253333 C42.0946667,11.0106667 40.816,11.176 39.6546667,11.548 C38.6346667,11.876 38.22,13.192 38.5133333,14.24 C38.7506667,15.0866667 39.4466667,15.5346667 40.68,15.4026667 C41.5626667,15.308 42.4386667,15.0466667 43.2853333,14.764 Z M58.8466667,18.5733333 C53.956,18.5733333 49.9773333,14.56 49.9773333,9.62666667 C49.9773333,4.69333333 53.956,0.68 58.8466667,0.68 C63.7373333,0.68 67.7173333,4.69333333 67.7173333,9.62666667 C67.7173333,14.56 63.7373333,18.5733333 58.8466667,18.5733333 Z M58.8466667,4.38 C55.996,4.38 53.676,6.73333333 53.676,9.62666667 C53.676,12.52 55.996,14.8746667 58.8466667,14.8746667 C61.6973333,14.8746667 64.0173333,12.52 64.0173333,9.62666667 C64.0173333,6.73333333 61.6986667,4.38 58.8466667,4.38 Z M13.6906667,12.496 L16.68,14.6773333 C15.08,17.0266667 12.4,18.572 9.36666667,18.572 C4.476,18.572 0.497333333,14.5586667 0.497333333,9.62533333 C0.497333333,4.692 4.476,0.678666667 9.36666667,0.678666667 C12.392,0.678666667 15.0666667,2.21733333 16.668,4.55733333 L13.6813333,6.74133333 C12.7546667,5.32 11.168,4.38 9.36666667,4.38 C6.516,4.38 4.196,6.73333333 4.196,9.62666667 C4.196,12.52 6.516,14.8746667 9.36666667,14.8746667 C11.1746667,14.8746667 12.7666667,13.9266667 13.6906667,12.496 Z M121.162667,12.496 L124.152,14.6773333 C122.552,17.0266667 119.872,18.572 116.838667,18.572 C111.948,18.572 107.969333,14.5586667 107.969333,9.62533333 C107.969333,4.692 111.948,0.678666667 116.838667,0.678666667 C119.864,0.678666667 122.538667,2.21733333 124.14,4.55733333 L121.153333,6.74133333 C120.226667,5.32 118.64,4.38 116.838667,4.38 C113.988,4.38 111.668,6.73333333 111.668,9.62666667 C111.668,12.52 113.988,14.8746667 116.838667,14.8746667 C118.646667,14.8746667 120.238667,13.9266667 121.162667,12.496 Z M91.7906667,1.076 C96.6813333,1.076 100.661333,4.912 100.66,9.628 C100.66,14.3426667 96.6813333,18.2506667 91.7906667,18.2506667 L89.228,18.2506667 L87.6773333,18.2506667 L85.5013333,18.2506667 L85.5013333,1.07866667 L87.6773333,1.07866667 L87.6773333,1.076 L91.7906667,1.076 Z M91.7906667,14.7053333 C94.6426667,14.7053333 96.9613333,12.3906667 96.9613333,9.62533333 C96.9613333,6.86 94.6413333,4.61066667 91.7906667,4.61066667 L91.7906667,4.61866667 L89.228,4.61866667 L89.228,14.7053333 L91.7906667,14.7053333 Z M102.481333,6.16133333 L106.256,6.16133333 L106.256,18.2493333 L102.481333,18.2493333 L102.481333,6.16133333 Z M102.481333,1.10133333 L106.256,1.10133333 L106.256,4.62 L102.481333,4.62 L102.481333,1.10133333 Z" id="Combined-Shape" fill="#313131"></path>
    </g>
</svg>