<svg width="50" height="50" viewBox="0 0 50 50" fill="none" xmlns="http://www.w3.org/2000/svg">
<rect width="50" height="50" rx="10" fill="#FC4C89"/>
<path d="M27.056 27.7966C28.3933 27.2328 29.4491 26.4653 30.2227 25.494C30.9962 24.5229 31.383 23.4653 31.383 22.3212C31.383 21.1771 30.9962 20.1194 30.2224 19.1483C29.4488 18.1771 28.3933 17.4096 27.0558 16.8456C25.7183 16.2818 24.2636 16 22.6915 16C21.1194 16 19.6647 16.282 18.3271 16.8456C16.9897 17.4095 15.9341 18.177 15.1605 19.1483C14.3869 20.1196 14 21.1771 14 22.3212C14 23.3006 14.2926 24.2228 14.877 25.087C15.4612 25.9511 16.2638 26.6796 17.2843 27.2721C17.2021 27.4698 17.1177 27.6507 17.0312 27.8155C16.9448 27.9801 16.842 28.1384 16.7225 28.2908C16.6032 28.4432 16.5107 28.5625 16.4448 28.6486C16.3789 28.735 16.272 28.8567 16.1237 29.0128C15.9755 29.1692 15.8808 29.2721 15.8398 29.3213C15.8398 29.3131 15.8233 29.3317 15.7903 29.377C15.7573 29.4222 15.7388 29.4427 15.7348 29.4389C15.7306 29.4344 15.7141 29.455 15.6853 29.5003C15.6565 29.5456 15.6421 29.5682 15.6421 29.5682L15.6112 29.6297C15.599 29.6546 15.5906 29.6789 15.5865 29.7038C15.5824 29.7283 15.5803 29.7552 15.5803 29.7839C15.5803 29.8126 15.5844 29.8393 15.5927 29.8641C15.6092 29.971 15.6565 30.0572 15.7347 30.1234C15.8128 30.1891 15.8971 30.2219 15.9878 30.2219H16.0248C16.4363 30.1643 16.7903 30.0985 17.0865 30.0244C18.354 29.6953 19.4982 29.1683 20.5187 28.4441C21.2594 28.5758 21.9837 28.6416 22.6915 28.6416C24.2637 28.6422 25.7186 28.3604 27.056 27.7966Z" fill="white"/>
<path d="M35.2477 28.2524C35.8322 27.3924 36.1243 26.4688 36.1243 25.481C36.1243 24.4686 35.8153 23.5215 35.1982 22.6409C34.5808 21.7604 33.7412 21.0277 32.6795 20.4434C32.8687 21.0606 32.9633 21.6861 32.9633 22.32C32.9633 23.4228 32.688 24.4681 32.1362 25.4559C31.5847 26.4434 30.7946 27.3157 29.7658 28.0731C28.811 28.7644 27.7245 29.2951 26.5063 29.6656C25.2884 30.0359 24.0167 30.2212 22.6916 30.2212C22.4447 30.2212 22.0825 30.2049 21.6052 30.1721C23.2595 31.2583 25.202 31.8016 27.4324 31.8016C28.1403 31.8016 28.8645 31.7357 29.6054 31.604C30.6259 32.3285 31.7701 32.855 33.0375 33.1845C33.3338 33.2587 33.6877 33.3244 34.0993 33.382C34.198 33.3902 34.2887 33.3614 34.371 33.2955C34.4533 33.2297 34.5068 33.1394 34.5314 33.0243C34.5275 32.9749 34.5314 32.9478 34.5438 32.9439C34.556 32.94 34.5539 32.9131 34.5376 32.8638C34.5213 32.8143 34.513 32.7896 34.513 32.7896L34.4822 32.728C34.4737 32.7118 34.4597 32.689 34.439 32.6603C34.4184 32.6317 34.4021 32.6108 34.3896 32.5986C34.3775 32.5863 34.3591 32.5656 34.3343 32.537C34.3097 32.5084 34.2931 32.4898 34.2848 32.4815C34.2437 32.4321 34.1491 32.3292 34.001 32.1728C33.8527 32.0166 33.7459 31.8952 33.68 31.8088C33.6142 31.7223 33.5216 31.6031 33.4023 31.4507C33.283 31.2985 33.18 31.14 33.0935 30.9754C33.0071 30.8108 32.9228 30.6297 32.8405 30.4323C33.8611 29.8391 34.6634 29.1128 35.2477 28.2524Z" fill="white"/>
</svg>
