<svg width="84" height="29" viewBox="0 0 84 29" fill="none" xmlns="http://www.w3.org/2000/svg">
<path d="M56.1367 0.672404C55.8803 0.672519 55.6265 0.723159 55.3898 0.821425C55.153 0.919693 54.938 1.06366 54.7569 1.2451C54.3989 1.60304 54.1842 2.10862 54.1842 2.62762V26.2271C54.1842 26.7461 54.39 27.2428 54.7569 27.6097C54.9381 27.7911 55.1532 27.935 55.39 28.0332C55.6269 28.1314 55.8808 28.1819 56.1371 28.1819C56.3935 28.1819 56.6474 28.1314 56.8842 28.0332C57.1211 27.935 57.3362 27.7911 57.5174 27.6097C57.8754 27.2517 58.0901 26.7461 58.0901 26.2271V2.62673C58.0901 2.10772 57.8843 1.61109 57.5174 1.24421C57.3362 1.06266 57.121 0.91863 56.8841 0.82036C56.6472 0.722089 56.3932 0.671507 56.1367 0.671509V0.672404ZM26.3905 8.99081C26.3905 7.91164 25.5162 7.03649 24.4398 7.03649C23.3633 7.03649 22.489 7.91164 22.489 8.99081V26.2254C22.489 27.3045 23.3633 28.1797 24.4398 28.1797C25.5162 28.1797 26.3905 27.3045 26.3905 26.2254V8.99081Z" fill="#5A646E"/>
<path d="M26.9429 2.63018C26.9303 3.28582 26.661 3.91036 26.193 4.36974C25.725 4.82879 25.096 5.08561 24.4409 5.08561C23.7859 5.08561 23.1568 4.8279 22.6888 4.36974C22.2209 3.91036 21.9517 3.28582 21.939 2.63018C21.9387 1.96578 22.2023 1.32847 22.6718 0.8584C23.1398 0.388611 23.7752 0.124634 24.44 0.124634C25.1049 0.124634 25.7402 0.388611 26.2091 0.8584C26.6787 1.32847 26.9423 1.96578 26.942 2.63018H26.9429Z" fill="#00AEEF"/>
<path d="M50.6577 13.2741C48.7821 9.02713 44.3446 6.02584 39.2817 6.54485C37.5747 6.72528 35.9327 7.29865 34.4844 8.21998C33.0356 9.14197 31.8198 10.3866 30.9319 11.8566C30.0438 13.3274 29.5075 14.9836 29.3651 16.6959C29.2219 18.4086 29.4778 20.1321 30.1105 21.7285C30.743 23.3253 31.7362 24.7543 33.0124 25.9038C34.2884 27.0523 35.8126 27.8902 37.466 28.3521C39.1188 28.8138 40.8664 28.8854 42.5424 28.5624C44.2185 28.2393 45.8158 27.5306 47.1822 26.4908C47.4119 26.3146 47.5993 26.0893 47.7307 25.8313C47.8623 25.5736 47.9347 25.289 47.9419 24.9991C47.9566 24.4849 47.7667 23.986 47.4139 23.6117C47.0611 23.2374 46.5742 23.0184 46.06 23.0027C45.6183 22.9885 45.1849 23.1262 44.8323 23.3929C43.4808 24.4366 41.8006 24.9628 40.0951 24.8765C38.7081 24.8049 37.3694 24.3369 36.2473 23.5298C35.1154 22.7223 34.2372 21.6088 33.7158 20.32C33.6446 20.1462 33.6403 19.9523 33.7036 19.7755C33.7669 19.5988 33.8933 19.4517 34.0585 19.3625C34.168 19.3037 34.2903 19.273 34.4146 19.273H47.9669C48.4 19.2748 48.8296 19.1907 49.2305 19.0261C49.6313 18.8614 49.9955 18.6189 50.3025 18.3129C50.6094 18.0069 50.8537 17.6435 51.0201 17.2427C51.1868 16.8422 51.2727 16.4128 51.2734 15.9792C51.2465 15.0485 51.0407 14.1304 50.6703 13.2767L50.6577 13.2741ZM40.4342 10.364C41.8851 10.3644 43.3025 10.8002 44.503 11.615C45.7043 12.4308 46.6332 13.5881 47.1696 14.9376C47.2149 15.0526 47.2318 15.1769 47.2189 15.3C47.2054 15.4228 47.1622 15.5406 47.093 15.643C47.0238 15.7455 46.9306 15.8295 46.8216 15.8879C46.7124 15.946 46.5907 15.9774 46.4672 15.9774H34.4003C34.2767 15.9775 34.1548 15.9468 34.046 15.8879C33.9368 15.8288 33.8437 15.7447 33.7739 15.6436C33.7041 15.5425 33.6612 15.4235 33.6487 15.3C33.6357 15.1769 33.6526 15.0526 33.6979 14.9376C34.2343 13.5881 35.1633 12.4308 36.3645 11.615C37.5654 10.8097 38.9828 10.364 40.4333 10.364H40.4342ZM72.132 24.8837C70.741 24.8839 69.3793 24.4835 68.21 23.7302C67.0404 22.9768 66.1116 21.9021 65.5254 20.6341C64.9487 19.3666 64.7484 17.96 64.9483 16.5818C65.1482 15.2037 65.7399 13.9121 66.6529 12.8606L63.7 10.3399C62.7439 11.4502 62.0172 12.7388 61.5613 14.1313C61.1044 15.5239 60.9265 16.9928 61.0378 18.4543C61.1488 19.9155 61.5479 21.341 62.2011 22.6484C62.8635 23.9551 63.7773 25.1182 64.8901 26.0711C66.0024 27.0241 67.2919 27.7472 68.6842 28.2008C70.0763 28.6541 71.5443 28.8275 73.0036 28.7109C74.4622 28.5946 75.885 28.1901 77.1879 27.5208C78.491 26.8522 79.6494 25.933 80.5963 24.8157L77.6433 22.2958C76.9638 23.1066 76.1146 23.7585 75.1557 24.2054C74.1964 24.6528 73.153 24.8837 72.0953 24.8828L72.132 24.8837Z" fill="#5A646E"/>
<path d="M72.1308 6.47755C70.5335 6.47576 68.9541 6.81937 67.5045 7.48424C66.0519 8.14964 64.7601 9.12088 63.7175 10.3316L66.6615 12.8524C67.9161 11.4054 69.6906 10.5141 71.5984 10.3737C73.5062 10.2332 75.3925 10.8506 76.8466 12.0962C78.3007 13.3418 79.2036 15.1118 79.3611 17.0205C79.517 18.9294 78.9131 20.8226 77.6806 22.2884L80.6246 24.8083C81.9937 23.1868 82.8733 21.2074 83.157 19.1028C83.4404 16.9981 83.1169 14.8563 82.2246 12.9293C81.3325 11.0032 79.9083 9.37224 78.1199 8.22874C76.3276 7.09319 74.2516 6.47755 72.1308 6.47755Z" fill="#00AEEF"/>
<path d="M18.8919 23.4792C18.5555 23.1875 18.1295 23.0193 17.6839 23.0031C17.2383 22.987 16.8025 23.1239 16.4463 23.3906C15.3725 24.2121 14.0911 24.7168 12.7462 24.8474C11.4012 24.9781 10.0465 24.7311 8.83577 24.1315C7.62505 23.532 6.60404 22.6067 5.88907 21.4587C5.17437 20.31 4.79454 18.9847 4.79232 17.6319C4.79011 16.2791 5.16561 14.9526 5.87654 13.8015C6.5869 12.6515 7.60438 11.7227 8.81429 11.1197C10.0241 10.5175 11.378 10.2651 12.7229 10.3913C14.0679 10.5175 15.351 11.0177 16.4275 11.8365C16.78 12.1081 17.2151 12.2505 17.6599 12.2398C18.1048 12.229 18.5325 12.0658 18.8713 11.7774C19.0906 11.5895 19.2651 11.3568 19.3814 11.0947C19.4977 10.8325 19.5568 10.5461 19.5514 10.258C19.546 9.96984 19.4745 9.68707 19.3456 9.43026C19.2167 9.17344 19.0306 8.94708 18.8042 8.77169C17.1558 7.50974 15.1867 6.73477 13.1202 6.5346C11.0531 6.33416 8.97357 6.71715 7.1132 7.63972C5.25284 8.5623 3.68866 9.99042 2.59517 11.7568C1.50168 13.5232 0.924507 15.5626 0.928981 17.6404C0.933455 19.7182 1.51689 21.7548 2.61575 23.5177C3.71461 25.2805 5.28416 26.7006 7.14721 27.616C9.01026 28.5314 11.0934 28.9082 13.1578 28.7015C15.2234 28.4944 17.1896 27.7129 18.8338 26.4456C19.0573 26.2704 19.2389 26.0476 19.3656 25.7935C19.4924 25.5394 19.5611 25.2602 19.5666 24.9763C19.5724 24.6924 19.5148 24.4108 19.3983 24.1519C19.2818 23.893 19.1091 23.6632 18.8928 23.4792H18.8919Z" fill="#5A646E"/>
</svg>
