<svg width="50" height="50" viewBox="0 0 50 50" fill="none" xmlns="http://www.w3.org/2000/svg">
<rect width="50" height="50" rx="10" fill="#78164A"/>
<path fill-rule="evenodd" clip-rule="evenodd" d="M10.1639 34.7536C10.1639 34.7536 15.7624 35.9454 21.3442 33.7027C26.926 31.4599 29.0278 28.6335 29.6982 27.8034C30.3695 26.9734 30.9571 26.0072 30.9571 26.0072C30.9571 26.0072 29.7159 26.1571 28.1435 27.2031C29.292 25.5252 29.1855 24.2712 29.362 23.3169C29.5385 22.3636 30.2453 21.9397 30.7392 21.7622C29.0968 21.7268 26.3591 21.8155 23.6392 25.5242C22.9146 22.7688 22.2039 21.7632 22.2039 21.7632C22.2039 21.7632 22.0511 25.3398 20.038 28.3723C18.3433 30.9246 15.8866 33.473 10.1639 34.7536H10.1639Z" fill="#FB9F28"/>
<path fill-rule="evenodd" clip-rule="evenodd" d="M43.2284 26.3638C43.2284 26.3638 41.6521 27.2244 38.5388 27.1721C35.4256 27.1189 34.5255 26.205 32.6968 26.0463C31.7839 25.9674 31.2565 25.9812 30.9578 26.0158C30.8552 26.1814 30.3042 27.0637 29.6989 27.8119C29.2661 28.3472 28.2379 29.7126 26.0661 31.216C27.4896 31.4457 30.1336 31.7139 32.5913 31.1056C31.9821 30.6817 31.7041 30.4037 31.7041 30.4037C31.7041 30.4037 33.0556 31.1983 34.2869 30.8808C33.2666 30.2322 32.962 29.9009 32.962 29.9009C32.962 29.9009 34.5255 30.8414 36.2073 30.1257C35.0283 29.7945 34.4062 29.4632 34.4062 29.4632C34.4062 29.4632 38.0627 30.4835 39.9565 28.854C39.9565 28.854 37.4258 29.0531 35.9165 28.6154C39.6114 28.5099 41.7714 27.874 43.2284 26.3638Z" fill="#FF7721"/>
<path fill-rule="evenodd" clip-rule="evenodd" d="M11.6476 22.2767C11.6476 22.2767 12.4826 24.2109 16.138 24.6082C14.3369 25.0854 13.2633 25.0716 13.2633 25.0716C13.2633 25.0716 14.5883 26.78 17.8199 26.2112C16.3096 26.6745 15.2636 26.8342 15.2636 26.8342C15.2636 26.8342 17.6434 28.6866 19.2345 29.4812C19.5224 29.1145 19.7876 28.7448 20.037 28.3751C21.8825 25.6384 22.1684 22.3447 22.2048 21.7661C22.0037 21.2554 21.3373 20.1118 19.1852 18.8204C19.1852 18.8204 17.5823 18.0652 15.5022 17.2835C13.4221 16.5017 11.9118 15.8658 9.95193 14.3289C7.99209 12.792 6.42856 10.7129 6.42856 10.7129C6.42856 10.7129 6.60108 13.2958 8.73344 15.9319C10.8658 18.568 12.9991 19.7205 13.7671 20.1976C10.5217 18.9919 9.34268 17.9588 8.17644 17.0715C9.01144 20.4628 12.455 22.0263 14.8791 22.7805C12.8138 22.5951 11.6476 22.2767 11.6476 22.2767Z" fill="#FF7721"/>
</svg>
