<?xml version="1.0" encoding="UTF-8"?>
<svg width="47px" height="48px" viewBox="0 0 47 48" version="1.1" xmlns="http://www.w3.org/2000/svg" xmlns:xlink="http://www.w3.org/1999/xlink">
    <!-- Generator: Sketch 52.4 (67378) - http://www.bohemiancoding.com/sketch -->
    <title>colombo</title>
    <desc>Created with Sketch.</desc>
    <g id="MARKETPLACE" stroke="none" stroke-width="1" fill="none" fill-rule="evenodd">
        <g id="MODAL-ESCOLHA-DO-MARKETPLACE-SOMENTE-ML" transform="translate(-715.000000, -556.000000)">
            <g id="colombo" transform="translate(715.000000, 556.000000)">
                <path d="M0.0484536082,47.5814433 L0.532989691,47.4360825 C10.8051546,44.6742268 10.8536082,28.0061856 0.532989691,24.7597938 L0,24.614433 L21.271134,24.5659794 L22.0463918,24.614433 C26.7948454,25.1958763 29.1690722,30.2835052 29.556701,34.5474227 L29.556701,36.3402062 C29.4113402,41.7185567 26.7463918,45.885567 21.5134021,47.5329897 L21.271134,47.5329897 L0.0484536082,47.5814433 Z" id="Path" fill="#EF8123"></path>
                <path d="M0.0484536082,21.2226804 L0.484536082,21.1257732 C10.0783505,18.4608247 9.88453608,3.14948454 0.484536082,0.242268041 L-9.23705556e-14,0.0484536082 L19.5752577,-2.48689958e-14 L20.3505155,0.0484536082 C24.7113402,0.532989691 26.8917526,5.32989691 27.2309278,9.20618557 L27.2309278,10.8536082 C27.1340206,15.7474227 24.614433,19.7206186 19.8175258,21.1742268 L19.5752577,21.1742268 L0.0484536082,21.2226804 Z" id="Path" fill="#003C86"></path>
                <path d="M16.1350515,35.0804124 L16.6195876,34.9835052 C27.1824742,32.1247423 27.3278351,15.0206186 16.6195876,11.5804124 L16.0865979,11.3865979 L37.9876289,11.2896907 L38.8113402,11.3865979 C43.7051546,11.9195876 46.1762887,17.2010309 46.5639175,21.5618557 L46.5639175,22.5309278 L46.6123711,23.4515464 C46.4185567,29.0237113 43.656701,33.3845361 38.2783505,35.0319588 L38.0360825,35.0319588 L16.1350515,35.0804124 Z" id="Path" fill="#FFD300"></path>
            </g>
        </g>
    </g>
</svg>