<?xml version="1.0" encoding="UTF-8"?>
<svg width="88px" height="60px" viewBox="0 0 88 60" version="1.1" xmlns="http://www.w3.org/2000/svg" xmlns:xlink="http://www.w3.org/1999/xlink">
    <!-- Generator: Sketch 52.4 (67378) - http://www.bohemiancoding.com/sketch -->
    <title>Artboard</title>
    <desc>Created with Sketch.</desc>
    <defs>
        <linearGradient x1="96.5340817%" y1="-4.76604651%" x2="14.4245679%" y2="74.5916279%" id="linearGradient-1">
            <stop stop-color="#F8D22F" offset="2.86%"></stop>
            <stop stop-color="#D09B28" offset="89.47%"></stop>
            <stop stop-color="#F3CC2F" offset="96.89%"></stop>
        </linearGradient>
        <linearGradient x1="15.742221%" y1="115.918104%" x2="73.2357799%" y2="48.5705063%" id="linearGradient-2">
            <stop stop-color="#A86222" offset="0%"></stop>
            <stop stop-color="#C18324" offset="100%"></stop>
        </linearGradient>
        <linearGradient x1="3.46309158%" y1="104.75907%" x2="85.5726054%" y2="25.4013953%" id="linearGradient-3">
            <stop stop-color="#064A74" offset="2.86%"></stop>
            <stop stop-color="#00B1EB" offset="89.47%"></stop>
            <stop stop-color="#178DCD" offset="96.89%"></stop>
        </linearGradient>
        <linearGradient x1="26.7635595%" y1="51.4258047%" x2="84.257779%" y2="-15.9227151%" id="linearGradient-4">
            <stop stop-color="#053D64" offset="0%"></stop>
            <stop stop-color="#022A4C" offset="100%"></stop>
        </linearGradient>
    </defs>
    <g id="Artboard" stroke="none" stroke-width="1" fill="none" fill-rule="evenodd">
        <path d="M31.0949189,38.4192432 L29.4324324,38.4192432 C28.0684324,38.4192432 26.8542703,37.7782703 26.0741622,36.7817297 L18.0459459,26.5071351 C17.8580541,26.2669189 17.7462703,25.9636757 17.7462703,25.6354595 C17.7462703,25.3060541 17.8580541,25.004 18.0459459,24.7625946 L26.072973,14.4891892 C26.8530811,13.4926486 28.0672432,12.8516757 29.4312432,12.8516757 L47.1953514,12.8516757 L37.1205405,25.5260541 L29.7368649,34.8207568 L31.0949189,38.4192432 Z" id="Path" fill="url(#linearGradient-1)"></path>
        <path d="M37.2073514,25.6354595 L37.1217297,25.5260541 L29.7380541,34.8207568 C29.455027,35.1822703 29.1945946,35.6971892 29.1945946,36.532 C29.1945946,37.368 30.0068108,38.4204324 31.5872432,38.4204324 L47.1953514,38.4204324 L37.2073514,25.6354595 Z" id="Path" fill="url(#linearGradient-2)"></path>
        <path d="M29.3432432,34.972973 C29.059027,35.3332973 28.8865946,35.7923243 28.8865946,36.2905946 C28.8865946,37.4643243 29.8391351,38.4192432 31.0152432,38.4192432 L31.5646486,38.4192432 C30.3885405,38.4192432 29.436,37.4655135 29.436,36.2905946 C29.436,35.7923243 29.6072432,35.3332973 29.8926486,34.972973 L37.1954595,25.6497297 L47.1763243,12.8754595 L29.3432432,34.972973 Z" id="Path" fill="#FFD400"></path>
        <path d="M58.2619459,3.66518919 L56.8955676,0.0655135135 L58.5675676,0.0655135135 C59.9315676,0.0655135135 61.1457297,0.706486486 61.9258378,1.70302703 L69.9528649,11.9776216 C70.1407568,12.2178378 70.2525405,12.5210811 70.2525405,12.8492973 C70.2525405,13.1787027 70.1407568,13.4807568 69.9528649,13.7221622 L61.9258378,23.9955676 C61.1457297,24.9921081 59.9315676,25.6330811 58.5675676,25.6330811 L40.8034595,25.6330811 L50.8782703,12.9587027 L58.2619459,3.66518919 Z" id="Path" fill="url(#linearGradient-3)"></path>
        <path d="M50.7926486,12.8504865 L50.8782703,12.9598919 L58.2619459,3.66518919 C58.544973,3.30367568 58.8054054,2.78875676 58.8054054,1.95394595 C58.8054054,1.11794595 57.9931892,0.0655135135 56.4127568,0.0655135135 L40.8046486,0.0655135135 L50.7926486,12.8504865 Z" id="Path" fill="url(#linearGradient-4)"></path>
        <path d="M58.6567568,3.51178378 C58.940973,3.15145946 59.1134054,2.69243243 59.1134054,2.19416216 C59.1134054,1.02043243 58.1608649,0.0655135135 56.9847568,0.0655135135 L56.4353514,0.0655135135 C57.6114595,0.0655135135 58.564,1.01924324 58.564,2.19416216 C58.564,2.69243243 58.3927568,3.15145946 58.1073514,3.51178378 L50.8045405,12.835027 L40.8236757,25.6092973 L58.6567568,3.51178378 Z" id="Path" fill="#00C0F3"></path>
        <path d="M41.9260541,46.1596757 C42.7358919,46.1477838 43.4517838,46.2690811 44.1700541,46.5164324 L42.880973,48.7307027 C42.792973,48.8757838 42.6336216,48.9756757 42.4504865,48.9756757 C42.4290811,48.9756757 42.3874595,48.9732973 42.3874595,48.9732973 C42.1983784,48.9483243 41.8202162,48.9221622 41.4158919,48.9792432 C41.0508108,49.0327568 40.675027,49.1540541 40.3967568,49.4037838 C40.0459459,49.7177297 40.020973,50.3361081 40.0221622,50.5132973 L40.0221622,59.4488649 C40.0221622,59.6094054 39.8901622,59.7425946 39.7308108,59.7425946 L37.2192318,59.7425946 L37.2192432,50.3408649 C37.2192432,50.3408649 37.2061622,48.9935135 38.0647568,47.8614054 C38.5784865,47.18 39.2598919,46.6912432 40.1517838,46.4189189 C40.7035676,46.2524324 41.2624865,46.1691892 41.9260541,46.1596757 Z M34.5554595,46.1596757 C35.3664865,46.1477838 36.0811892,46.2690811 36.7982703,46.5164324 L35.5115676,48.7307027 C35.4235676,48.8757838 35.2618378,48.9756757 35.0810811,48.9756757 C35.0572973,48.9756757 35.0168649,48.9732973 35.0168649,48.9732973 C34.8254054,48.9483243 34.4508108,48.9221622 34.0452973,48.9792432 C33.679027,49.0327568 33.3032432,49.1540541 33.024973,49.4037838 C32.6765405,49.7177297 32.6503784,50.3361081 32.6515676,50.5132973 L32.6515676,59.4488649 C32.6503784,59.6094054 32.5195676,59.7425946 32.3602162,59.7425946 L29.847448,59.7425946 L29.8474595,50.3408649 C29.8474595,50.3408649 29.8343784,48.9935135 30.6917838,47.8614054 C31.2078919,47.18 31.8881081,46.6912432 32.7811892,46.4189189 C33.3317838,46.2524324 33.8918919,46.1691892 34.5554595,46.1596757 Z M12.6708108,56.2642162 L14.0978378,58.1145946 C12.6827027,59.1551351 10.936973,59.7699459 9.04854054,59.7699459 C4.33816216,59.7699459 0.504216216,55.936 0.504216216,51.2232432 C0.504216216,46.5116757 4.33697297,42.6801081 9.04854054,42.6801081 C10.9357838,42.6801081 12.6803243,43.2925405 14.0966486,44.3342703 L12.6636757,46.192973 C12.5673514,46.3118919 12.4187027,46.3903784 12.251027,46.3903784 C12.1499459,46.3903784 12.0536216,46.3618378 11.9751351,46.3107027 C11.1165405,45.8005405 10.1164324,45.5056216 9.04854054,45.5056216 C5.89481081,45.5056216 3.32854054,48.0718919 3.32854054,51.2244324 C3.32854054,54.3793514 5.89481081,56.9468108 9.04854054,56.9468108 C10.1211892,56.9468108 11.1224865,56.6507027 11.9798919,56.136973 L11.9894054,56.1298378 C12.0678919,56.0846486 12.1582703,56.0584865 12.2534054,56.0584865 C12.4246486,56.0584865 12.5744865,56.1393514 12.6708108,56.2642162 Z M50.6713514,45.9598919 C54.4743784,45.9598919 57.5686486,49.052973 57.5698378,52.8583784 C57.5698378,52.9594595 57.5674595,53.0629189 57.5627027,53.1675676 L57.5472432,53.9678919 C57.5472432,54.1308108 57.4164324,54.2604324 57.2523243,54.2604324 L56.1606486,54.2651892 L46.7232432,54.2651892 C47.3023784,55.8884324 48.8542703,57.0538378 50.6737297,57.0526486 C51.8795676,57.0514595 52.9867027,56.5531892 53.3434595,56.3676757 C53.4195676,56.3236757 53.5051892,56.2975135 53.5979459,56.2975135 C53.7608649,56.2975135 53.9083243,56.3771892 54.0022703,56.5008649 C54.0165405,56.5187027 55.4304865,58.3488649 55.4304865,58.3488649 L55.1724324,58.5177297 C53.5812973,59.5499459 52.3802162,59.7556757 50.8782703,59.7556757 C50.8782703,59.7556757 50.7427027,59.7544865 50.6749189,59.7544865 C46.8695135,59.7164324 43.7740541,56.6197838 43.7740541,52.8571892 C43.7740541,49.052973 46.8671351,45.9598919 50.6713514,45.9598919 Z M50.6713514,48.6652973 C48.820973,48.6652973 47.2476757,49.8699459 46.6947027,51.5371892 L54.6503784,51.5371892 C54.0938378,49.8699459 52.5205405,48.6652973 50.6713514,48.6652973 Z M59.468973,59.7699459 C59.3108108,59.7699459 59.1823784,59.6450811 59.1764324,59.4892973 L59.1764324,46.6971892 C59.1776216,46.5437838 59.3012973,46.4165405 59.4558919,46.4094054 L61.6891892,46.4094054 C61.8485405,46.4094054 61.9781622,46.5402162 61.9781622,46.7007568 L61.9781622,59.4797838 C61.9781622,59.6403243 61.8485405,59.7687568 61.6891892,59.7687568 L59.468973,59.7687568 L59.468973,59.7699459 Z M21.535027,59.7699459 C17.6868108,59.7699459 14.5544865,56.6388108 14.5544865,52.7894054 C14.5544865,48.94 17.6856216,45.8076757 21.535027,45.8076757 C25.3844324,45.8076757 28.5191351,48.94 28.5191351,52.7894054 C28.5191351,56.6388108 25.3844324,59.7699459 21.535027,59.7699459 Z M21.535027,48.6272432 C19.2398919,48.6272432 17.3728649,50.4942703 17.3728649,52.7894054 C17.3728649,55.0857297 19.2398919,56.9515676 21.535027,56.9515676 C23.8313514,56.9515676 25.6983784,55.0857297 25.6983784,52.7894054 C25.6983784,50.4930811 23.8313514,48.6272432 21.535027,48.6272432 Z M70.2834595,59.7509189 C66.4744865,59.7509189 63.3766486,56.6518919 63.3766486,52.8452973 C63.3766486,49.0351351 66.4732973,45.9372973 70.2834595,45.9372973 C74.0948108,45.9372973 77.1926486,49.0351351 77.1926486,52.8452973 C77.1938378,56.6518919 74.0948108,59.7509189 70.2834595,59.7509189 Z M70.2834595,48.7271351 C68.0144865,48.7271351 66.1652973,50.5751351 66.1652973,52.8452973 C66.1652973,55.1166486 68.0144865,56.9634595 70.2834595,56.9634595 C72.556,56.9634595 74.4051892,55.1166486 74.4051892,52.8452973 C74.4051892,50.5739459 72.556,48.7271351 70.2834595,48.7271351 Z M85.0424865,51.7869189 C86.5503784,52.4635676 87.496973,53.9571892 87.4945946,55.5019459 C87.4945946,57.0134054 86.5717838,59.7604324 82.7021622,59.7735135 L82.6331892,59.7735135 C80.7958919,59.7735135 79.3974054,58.9767568 78.6172973,58.3916757 C78.4591351,58.2715676 77.9810811,57.8755676 77.9810811,57.8755676 C77.9810811,57.8755676 79.3367568,56.1274595 79.3545946,56.1036757 C79.4580541,55.9669189 79.596,55.8717838 79.772,55.8717838 C79.8385946,55.8717838 79.9004324,55.8824865 79.9575135,55.9038919 C80.0062703,55.9217297 80.1418378,56.0311351 80.1822703,56.0632432 C81.419027,57.0324324 82.7865946,57.1442162 83.6511351,56.8778378 C84.4336216,56.6376216 84.7130811,56.0287568 84.6976216,55.5067027 C84.6916757,55.3509189 84.6595676,55.2034595 84.6024865,55.0607568 C84.4728649,54.7396757 84.1220541,54.4126486 83.6475676,54.2687568 C82.7366486,53.9952432 80.9504865,53.7003243 80.0074595,53.1544865 C78.8277838,52.4730811 78.0441081,51.3814054 78.0441081,49.8568649 C78.0441081,48.852 78.6006486,46.0122162 82.6236757,45.9170811 C82.6807568,45.9158919 82.7354595,45.9147027 82.788973,45.9147027 C84.6262703,45.9147027 85.8856216,46.6401081 86.2994595,46.8779459 C86.504,46.9932973 86.6942703,47.1276757 86.8322162,47.2275676 L87.0676757,47.4130811 C87.0676757,47.4130811 85.6810811,49.2099459 85.6703784,49.2218378 C85.58,49.3514595 85.4313514,49.4358919 85.2601081,49.4358919 C85.1637838,49.4358919 85.0722162,49.4061622 84.9949189,49.3597838 C84.9949189,49.3597838 84.455027,49.0458378 84.3277838,48.9875676 C83.5952432,48.651027 82.2704865,48.3810811 81.292973,49.0541622 C80.8636757,49.3502703 80.6924324,49.9305946 81.0099459,50.4229189 C81.356,50.9568649 82.2776216,51.0115676 83.2682162,51.2577297 C83.9412973,51.4265946 84.5572973,51.5681081 85.0424865,51.7869189 Z" id="Combined-Shape" fill="#06426A"></path>
    </g>
</svg>