<svg width="50" height="50" viewBox="0 0 50 50" fill="none" xmlns="http://www.w3.org/2000/svg">
<rect width="50" height="50" rx="10" fill="#6610F2"/>
<path d="M23.3661 33.5716C23.3661 34.5716 22.7232 35.4288 21.8661 35.4288C21.0089 35.4288 20.3661 34.6431 20.3661 33.5716L20.2946 30.7145C20.2946 29.7145 20.9375 28.8574 21.7946 28.8574C22.6518 28.8574 23.2947 29.6431 23.2947 30.7145L23.3661 33.5716Z" fill="white"/>
<path d="M30.5804 33.5709C30.6518 34.5709 29.9375 35.4281 29.1518 35.4281C28.2947 35.4281 27.5804 34.6424 27.5804 33.5709V30.7138C27.5804 29.6424 28.2232 28.7852 29.0804 28.7852C29.8661 28.7852 30.5804 29.6424 30.5804 30.6424V33.5709Z" fill="white"/>
<path d="M36.8661 15.2143C36.8661 14.5714 37.2232 14 37.7947 14C38.2947 14 38.7232 14.4286 38.7232 15.1429C38.7947 15.7857 38.3661 16.2857 37.8661 16.3571C37.3661 16.3571 36.9375 15.8571 36.8661 15.2143Z" fill="white"/>
<path d="M38.1174 14.8809L37.4044 14.9229L38.1488 27.5439L38.8618 27.5018L38.1174 14.8809Z" fill="white"/>
<path d="M14.0089 15.2143C14.0804 14.5714 13.6518 14 13.1518 14C12.6518 14 12.1518 14.4286 12.1518 15.1429C12.1518 15.7857 12.5089 16.2857 13.0804 16.3571C13.5804 16.3571 14.0089 15.8571 14.0089 15.2143Z" fill="white"/>
<path d="M12.6919 16.1445L12.0947 26.2698L12.9504 26.3203L13.5476 16.195L12.6919 16.1445Z" fill="white"/>
<path d="M38.1518 24.8566C37.5804 23.9994 36.7232 23.9994 36.3661 24.0708C36.2232 23.428 36.009 22.8565 35.7947 22.5708C34.6518 20.928 29.009 20.6422 26.5804 20.5708C25.9375 20.4994 25.509 20.5708 25.4375 20.5708C25.4375 20.5708 25.2232 20.5708 24.8661 20.5708C22.8661 20.5708 16.2946 20.7851 15.0804 22.5708C14.8661 22.8565 14.6518 23.428 14.5089 24.0708C14.1518 23.9994 13.2946 23.9994 12.7232 24.928C12.0804 25.8566 11.8661 31.6423 12.0804 34.928C12.0804 34.928 14.4375 36.3566 16.4375 36.7137C15.4375 32.428 15.9375 25.7851 16.7946 24.5708C17.7232 23.2851 23.009 23.1422 24.7947 23.1422C24.9375 23.1422 25.009 23.1422 25.0804 23.1422C25.2947 23.1422 25.4375 23.1422 25.4375 23.1422H25.509C25.509 23.1422 25.5804 23.1422 25.7947 23.1422C26.009 23.1422 26.2947 23.1422 26.5804 23.1422C28.7232 23.1422 33.2947 23.428 34.1518 24.5708C35.009 25.7851 35.4375 32.428 34.4375 36.7137C36.4375 36.3566 38.7947 34.928 38.7947 34.928C39.0804 31.5708 38.7947 25.7851 38.1518 24.8566Z" fill="white"/>
</svg>
