<?xml version="1.0" encoding="UTF-8"?>
<svg width="48px" height="38px" viewBox="0 0 48 38" version="1.1" xmlns="http://www.w3.org/2000/svg" xmlns:xlink="http://www.w3.org/1999/xlink">
    <!-- Generator: Sketch 52.4 (67378) - http://www.bohemiancoding.com/sketch -->
    <title>Artboard</title>
    <desc>Created with Sketch.</desc>
    <g id="Artboard" stroke="none" stroke-width="1" fill="none" fill-rule="evenodd">
        <path d="M36.22,18.98 C36.296,9.982 29.016,2.27 19.63,2.16 C10.266,2.052 2.614,9.516 2.612,18.954 C2.61,28.408 10.188,35.688 19.252,35.776 C28.802,35.868 36.288,28.08 36.22,18.98 Z M19.854,37.312 C19.718,37.282 18.17,37.232 18.032,37.224 C16.592,37.148 15.19,36.872 13.818,36.438 C10.444,35.374 7.602,33.496 5.3,30.812 C2.922,28.04 1.494,24.844 1.07,21.208 C1.022,20.802 0.962,20.396 0.908,19.99 C0.908,19.4 0.908,18.812 0.908,18.222 C0.938,18.098 0.978,17.974 0.994,17.848 C1.094,17.044 1.148,16.234 1.292,15.438 C1.93,11.932 3.454,8.858 5.932,6.294 C9.02,3.1 12.818,1.334 17.224,0.848 C17.63,0.804 19.518,0.742 19.922,0.69 C23.434,0.69 29.24,0.766 29.376,0.78 C29.914,0.838 30.456,0.86 30.988,0.946 C34.786,1.552 38.186,3.048 41.046,5.632 C45.43,9.592 47.418,14.554 47.05,20.452 C46.922,22.508 46.406,24.478 45.47,26.302 C42.248,32.586 37.092,36.17 30.112,37.15 C29.734,37.206 23.366,37.312 19.854,37.312 Z M23.29,28.76 C23.29,22.216 23.29,15.706 23.29,9.19 C26.186,10.118 29.768,13.476 29.994,18.478 C30.228,23.7 26.736,27.554 23.29,28.76 Z M15.56,28.766 C12.366,27.648 8.568,23.938 8.864,18.342 C9.11,13.7 12.396,10.248 15.56,9.18 L15.56,28.766 Z" id="Combined-Shape" fill="#074C95" fill-rule="nonzero"></path>
    </g>
</svg>