<svg width="50" height="50" viewBox="0 0 50 50" fill="none" xmlns="http://www.w3.org/2000/svg">
<rect x="0.5" y="0.5" width="49" height="49" rx="9.5" fill="white" stroke="#EEEEEE"/>
<path fill-rule="evenodd" clip-rule="evenodd" d="M13.0004 25.0563C13.0533 31.6061 18.4827 36.7657 24.9446 36.74C31.55 36.74 36.91 31.4215 36.91 24.8659C36.9112 18.3816 31.5535 13.0035 25.0904 13C18.2476 12.9965 12.9452 18.2333 13.0004 25.0563ZM27.1661 26.2444V26.2456C26.7027 26.2456 26.2393 26.2463 25.776 26.247C24.6506 26.2487 23.5253 26.2504 22.3999 26.2421C22.0789 26.2386 22.0213 26.3099 22.1165 26.6159C22.8915 29.0982 25.5562 29.4954 27.1896 28.5141C27.6435 28.2408 28.0351 27.8939 28.3503 27.4698C28.4702 27.3086 28.5443 27.2724 28.7254 27.4079C29.6038 28.0656 30.4893 28.7139 31.3854 29.347C31.6112 29.507 31.61 29.6052 31.4325 29.7967C29.7191 31.6412 27.5812 32.4648 25.0846 32.3526C22.9056 32.2545 20.9841 31.5127 19.4683 29.8984C18.2559 28.6076 17.6667 27.0505 17.5856 25.3064C17.5009 23.4584 17.8925 21.7238 19.0002 20.1993C20.4302 18.231 22.4234 17.3362 24.82 17.2475C26.4346 17.1879 27.9552 17.5103 29.3016 18.4436C30.8539 19.5195 31.6818 21.0497 32.0663 22.851C32.2716 23.8074 32.2744 24.7767 32.2771 25.747C32.2773 25.8326 32.2776 25.9182 32.278 26.0038C32.279 26.2568 32.1432 26.2512 31.9983 26.2451C31.9759 26.2442 31.9534 26.2433 31.9311 26.2433C31.1373 26.2439 30.3432 26.2439 29.549 26.2439C28.7548 26.2439 27.9604 26.2439 27.1661 26.2444Z" fill="#EB2227"/>
<path fill-rule="evenodd" clip-rule="evenodd" d="M24.9282 23.2348C24.0545 23.2348 23.1807 23.2301 22.307 23.2383C22.1083 23.2406 22.0154 23.2173 22.0542 22.9766C22.2412 21.7875 23.216 20.8296 24.4861 20.61C25.8208 20.3787 26.972 20.8822 27.5506 21.9498C27.7129 22.2489 27.7976 22.5689 27.8528 22.9019C27.894 23.1507 27.8317 23.2465 27.5506 23.2406C26.6757 23.2231 25.802 23.2348 24.9282 23.2348Z" fill="#FE1018"/>
</svg>
