<?xml version="1.0" encoding="UTF-8"?>
<svg width="792px" height="456px" viewBox="0 0 792 456" version="1.1" xmlns="http://www.w3.org/2000/svg" xmlns:xlink="http://www.w3.org/1999/xlink">
    <!-- Generator: Sketch 52.4 (67378) - http://www.bohemiancoding.com/sketch -->
    <title>Group 41</title>
    <desc>Created with Sketch.</desc>
    <g id="RELATORIOS" stroke="none" stroke-width="1" fill="none" fill-rule="evenodd">
        <g id="extra">
            <g id="Group-41">
                <path d="M659.355004,0.0302794061 L791.107061,0.0302794061 C703.077297,114.175933 568.97777,195.750716 430.477018,254.14376 C282.292668,316.352101 133.815355,350.390046 50.7734961,404.0889 C23.7779623,421.694552 9.69314005,436.65977 0.889938333,455.439533 L0.889938333,366.822338 C0.889938333,339.533089 38.4494644,306.962219 71.6077652,290.236211 C152.301402,250.62293 250.895158,226.561547 390.863737,166.700676 C479.48018,128.55447 592.746189,68.1069204 659.355004,0.0302794061" id="path9703" fill="#0070B8"></path>
                <path d="M0.59622284,65.1727702 C0.59622284,35.2423351 23.4842468,0.0302794061 66.0324291,0.0302794061 L608.004371,0.0302794061 C557.827098,46.6859715 456.005476,99.7981461 380.59346,132.662731 C289.628795,172.569728 227.12749,187.82791 118.557173,230.082377 C66.3253934,250.62293 11.1602151,279.379254 0.59622284,321.047042 L0.59622284,65.1727702" id="path9705" fill="#E1003A"></path>
            </g>
        </g>
    </g>
</svg>