<svg width="121" height="24" viewBox="0 0 121 24" fill="none" xmlns="http://www.w3.org/2000/svg">
<path d="M70.228 10.2841C69.232 9.14613 67.9679 8.61508 66.4741 8.38748C64.8652 8.15989 63.4479 8.50127 62.2604 9.56339C62.0305 9.75305 61.8391 9.98064 61.6092 10.2462C61.6092 10.0186 61.6092 9.90478 61.6092 9.75305C61.6092 6.87018 61.6092 3.98731 61.6092 1.10444C61.6092 1.02858 61.6092 0.952714 61.6092 0.876848C61.6475 0.687186 61.5708 0.611321 61.3794 0.649254C61.2644 0.687186 61.1495 0.649254 61.0729 0.687186C59.8088 0.838916 58.5447 1.02858 57.2806 1.14238C56.9358 1.18031 56.8975 1.29411 56.8975 1.59757C56.8975 8.72887 56.8975 15.8602 56.8975 22.9915C56.8975 23.0673 56.8975 23.1053 56.8975 23.1811C56.8592 23.3329 56.9358 23.4087 57.1273 23.4087C58.583 23.4087 60.0003 23.4087 61.4559 23.4087C61.6092 23.4087 61.6858 23.3708 61.6858 23.1811C61.6858 22.8397 61.6858 22.4983 61.6858 22.0811C61.9156 22.2328 62.0688 22.3467 62.2604 22.4983C63.2563 23.3329 64.4439 23.6742 65.7463 23.7122C68.2745 23.826 70.4579 22.3846 71.339 20.0327C72.1434 17.8326 72.22 15.5947 71.722 13.3187C71.339 12.2566 70.9941 11.1945 70.228 10.2841ZM67.0869 16.0878C67.0869 16.7706 67.0869 17.4913 66.9337 18.174C66.6655 19.4637 65.6697 20.1845 64.3289 20.1466C62.9116 20.0707 61.8773 19.1603 61.6858 17.6809C61.5325 16.4671 61.5325 15.2533 61.7624 14.0394C61.9539 12.9393 62.6818 12.2566 63.7926 12.1049C64.712 11.991 65.593 12.0669 66.3208 12.7877C66.7422 13.2049 66.8954 13.736 66.9721 14.305C67.0486 14.8739 67.0869 15.4808 67.0869 16.0878Z" fill="#1777F2"/>
<path d="M115.43 16.3963C115.316 16.2445 115.239 16.1307 115.392 15.941C116.58 14.1582 117.729 12.3375 118.917 10.5167C119.262 9.94771 119.644 9.41666 120.027 8.77181C118.381 8.77181 116.772 8.77181 115.162 8.77181C115.01 8.77181 114.933 8.84767 114.857 8.9994C113.822 10.6305 112.749 12.2616 111.715 13.8927C111.37 14.4237 111.025 14.9548 110.681 15.4859C110.643 15.4859 110.643 15.4859 110.605 15.4479C110.605 15.3341 110.605 15.2204 110.605 15.1065C110.605 10.4788 110.605 5.81307 110.605 1.18531C110.605 0.730117 110.605 0.730117 110.107 0.805982C108.804 0.957713 107.463 1.14737 106.161 1.26117C105.893 1.2991 105.855 1.37497 105.855 1.60256C105.855 8.80974 105.855 15.979 105.855 23.1862C105.855 23.4517 105.931 23.4896 106.161 23.4896C107.501 23.4896 108.881 23.4896 110.222 23.4896C110.49 23.4896 110.566 23.4517 110.566 23.1482C110.566 21.1378 110.566 19.1274 110.566 17.1548C110.566 17.0411 110.528 16.9273 110.643 16.8134C110.681 16.8893 110.758 16.9652 110.795 17.0032C112.136 19.0515 113.439 21.1378 114.78 23.1862C114.933 23.4137 115.048 23.5276 115.354 23.4896C116.733 23.4896 118.113 23.4896 119.491 23.4896C119.644 23.4896 119.797 23.4896 120.027 23.4896C119.951 23.3758 119.912 23.2999 119.874 23.2241C118.381 20.9481 116.925 18.6721 115.43 16.3963Z" fill="#1777F2"/>
<path d="M26.9826 8.92339C26.9826 8.6958 26.9444 8.58199 26.6762 8.58199C25.4121 8.58199 24.148 8.58199 22.8456 8.58199C22.5775 8.58199 22.5392 8.65786 22.5392 8.92339C22.5392 9.41651 22.5392 9.90963 22.5392 10.4027C22.5009 10.4407 22.4626 10.4407 22.4626 10.4786C22.271 10.251 22.0795 10.0614 21.8879 9.83377C21.5432 9.49238 21.1602 9.11305 20.7005 8.92339C17.7509 7.55782 13.9969 8.73373 12.7328 12.2235C11.89 14.4995 11.9667 16.8513 12.503 19.1652C12.8094 20.5687 13.4606 21.7825 14.6481 22.6929C15.9505 23.6791 17.4445 23.9067 19.015 23.793C20.2025 23.6791 21.2368 23.2239 22.0029 22.3515C22.1945 22.1618 22.3476 21.9343 22.5775 21.7066C22.5775 22.2757 22.5775 22.7688 22.5775 23.2618C22.5775 23.5274 22.654 23.5653 22.8839 23.5653C24.148 23.5653 25.4121 23.5653 26.7145 23.5653C26.9444 23.5653 27.021 23.5274 27.021 23.2618C26.9826 18.4444 26.9826 13.665 26.9826 8.92339ZM22.1561 18.0271C22.0029 19.3548 20.8537 20.2272 19.4747 20.1514C17.8659 20.0376 17.0614 19.0134 16.9082 17.5341C16.7932 16.3582 16.8699 15.1823 17.0614 14.0442C17.2529 12.9063 18.1723 12.1098 19.3214 12.0339C20.3557 11.9959 21.2751 12.2235 21.8496 13.1718C22.1178 13.627 22.1945 14.1581 22.2327 14.6512C22.271 15.1443 22.2327 15.6374 22.2327 16.1306C22.2327 16.7375 22.2327 17.3823 22.1561 18.0271Z" fill="#1777F2"/>
<path d="M51.0002 8.72771C49.1998 8.23458 47.3995 8.27252 45.5991 8.72771C43.9136 9.1829 42.6112 10.1691 41.8067 11.7244C41.3854 12.5589 41.2322 13.4693 41.1556 14.3796C41.0023 16.0108 41.0023 17.6418 41.3854 19.2729C41.9217 21.4351 43.2624 22.8007 45.4459 23.3317C46.5567 23.5972 47.6676 23.7489 48.8168 23.7869C50.7704 23.8628 52.6474 23.5972 54.4478 22.7628C54.6777 22.6489 54.7543 22.573 54.6777 22.3075C54.4478 21.511 54.218 20.6764 54.0264 19.8419C53.9498 19.5764 53.8732 19.5005 53.605 19.6143C51.843 20.1833 50.0809 20.5247 48.2422 20.3351C47.0547 20.2213 45.9438 19.5764 45.8289 18.0591C45.8289 17.7936 45.8672 17.7177 46.1353 17.7177C47.591 17.7177 49.0083 17.7177 50.4639 17.7177C51.9196 17.7177 53.3752 17.7177 54.8691 17.7177C54.9841 17.7177 55.1757 17.7936 55.1757 17.5281C55.1373 15.9728 55.2522 14.3796 54.8691 12.8244C54.4095 10.7381 53.107 9.2967 51.0002 8.72771ZM50.2724 14.5693C49.6212 14.5693 48.97 14.5693 48.3188 14.5693C47.5527 14.5693 46.7866 14.5693 45.9822 14.5693C45.8672 14.5693 45.7523 14.6072 45.7523 14.3796C45.714 12.8244 46.5567 11.7624 48.089 11.6106C49.2764 11.4589 50.8471 12.0279 50.8853 13.9244C50.9236 14.5693 50.9619 14.5693 50.2724 14.5693Z" fill="#1777F2"/>
<path d="M100.031 8.88069C97.9241 8.12205 95.8172 8.12205 93.6721 8.88069C91.7184 9.56348 90.416 10.8153 89.8032 12.7877C89.4585 13.9637 89.3818 15.1775 89.3435 16.4293C89.3818 16.9603 89.3818 17.5672 89.4584 18.1742C89.8032 20.7157 91.6036 22.726 94.0935 23.4088C95.4342 23.7882 96.8132 23.864 98.1922 23.7123C100.835 23.4088 102.75 22.1191 103.708 19.6535C104.589 17.4534 104.551 15.1775 103.861 12.9015C103.287 10.9291 101.985 9.56348 100.031 8.88069ZM99.6093 15.9741C99.571 16.8085 99.6476 17.6811 99.3411 18.4776C98.8813 19.7294 97.8091 20.2984 96.3535 20.0708C95.1278 19.8811 94.2467 18.8949 94.1701 17.6431C94.0935 16.581 94.0552 15.481 94.1701 14.4188C94.2849 13.2429 95.0128 12.3326 96.047 12.067C97.3878 11.7636 98.537 12.1808 99.1495 13.167C99.4944 13.736 99.571 14.3429 99.6093 14.9878C99.6093 15.3292 99.6093 15.6706 99.6093 15.9741Z" fill="#1777F2"/>
<path d="M84.6325 9.26351C82.0659 8.04966 79.4611 8.04967 76.8562 9.14971C75.2474 9.83249 74.1366 11.0463 73.6769 12.7533C73.1406 14.5741 73.064 16.4328 73.3322 18.2914C73.7152 20.7571 75.1326 22.426 77.4692 23.2986C78.9632 23.8675 80.4954 23.9055 82.0659 23.7158C84.1728 23.4882 85.8583 22.5399 87.0074 20.7191C87.8885 19.3157 88.1182 17.7225 88.1566 16.1293C88.1566 15.2189 88.0417 14.3465 87.8501 13.4741C87.3905 11.5774 86.3945 10.098 84.6325 9.26351ZM83.2534 17.988C82.9469 19.5432 81.8744 20.1501 80.6486 20.1122C79.0397 20.0743 78.0821 19.1639 77.9289 17.7225C77.8905 17.1535 77.8522 16.5844 77.8522 16.0155C77.8522 15.2948 77.8522 14.612 78.0055 13.9292C78.2736 12.7912 79.2313 12.1084 80.3804 12.0326C82.1425 11.9188 83.2151 13.0947 83.3301 14.612C83.4449 15.7499 83.4449 16.8879 83.2534 17.988Z" fill="#1777F2"/>
<path d="M11.773 8.57736C10.7387 8.57736 9.70449 8.57736 8.67022 8.57736C8.36378 8.57736 8.24885 8.53943 8.24885 8.19804C8.28716 7.66698 8.24885 7.13593 8.24885 6.56694C8.24885 5.80829 8.63191 5.27724 9.32142 4.97378C10.0876 4.63239 10.892 4.55652 11.7347 4.59445C12.0411 4.59445 12.0794 4.51859 12.0411 4.25306C12.0411 3.45648 12.0411 2.6599 12.0411 1.86331C12.0411 0.952936 12.0411 0.915003 11.1219 0.801206C9.58957 0.573611 8.05733 0.611544 6.60169 1.18053C4.87791 1.93918 3.88195 3.22889 3.61381 5.12551C3.46059 6.18762 3.49889 7.2118 3.49889 8.2739C3.49889 8.53943 3.42228 8.61529 3.15414 8.61529C2.38802 8.61529 1.66019 8.61529 0.894071 8.61529C0.587623 8.61529 0.549316 8.69116 0.549316 8.95669C0.549316 10.0188 0.587623 11.1188 0.549316 12.181C0.549316 12.5223 0.664234 12.5602 0.932378 12.5602C1.73681 12.5223 2.54124 12.5602 3.34566 12.5602C3.61381 12.5602 3.69042 12.5982 3.69042 12.9016C3.69042 14.6087 3.69042 16.2776 3.69042 17.9846C3.69042 19.6916 3.69042 21.3606 3.69042 23.0676C3.69042 23.3331 3.72873 23.4469 4.03518 23.409C5.29928 23.409 6.56338 23.409 7.86579 23.409C8.17224 23.409 8.24885 23.3331 8.24885 23.0296C8.24885 19.6536 8.24885 16.2776 8.24885 12.9396C8.24885 12.6361 8.32546 12.5602 8.59361 12.5982C9.55126 12.5982 10.5089 12.5982 11.4666 12.5982C11.6581 12.5982 11.7347 12.5602 11.7347 12.3706C11.8496 11.2327 11.9646 10.0947 12.0794 8.95669C12.0794 8.6153 12.0029 8.57736 11.773 8.57736Z" fill="#1777F2"/>
<path d="M39.7367 19.6517C39.6984 19.4999 39.6218 19.462 39.4685 19.5379C38.6641 19.8793 37.8214 20.0689 36.9403 20.1448C35.2549 20.2966 33.9142 19.3861 33.4545 17.793C33.1097 16.5792 33.1864 15.3654 33.4162 14.1894C33.6461 13.0894 34.3355 12.4445 35.4464 12.179C36.0976 12.0272 36.7871 12.0272 37.4767 12.1411C38.0895 12.2549 38.7024 12.3686 39.3154 12.5583C39.6601 12.6721 39.775 12.5963 39.8516 12.2549C40.0432 11.5721 40.3113 10.8893 40.5412 10.1686C40.8093 9.33405 40.7326 9.29613 39.8899 8.99267C37.898 8.27195 35.8295 8.23401 33.7992 8.65128C31.3093 9.18232 29.6622 10.6238 28.9343 13.0894C28.3598 15.1377 28.3598 17.1861 28.9343 19.2344C29.4706 21.1311 30.6964 22.4966 32.5734 23.2173C33.7226 23.6726 34.9101 23.8622 36.2892 23.8243C37.7064 23.9002 39.1238 23.5208 40.5412 22.9518C40.7326 22.8759 40.7326 22.7621 40.6943 22.6484C40.3113 21.6242 40.0048 20.6379 39.7367 19.6517Z" fill="#1777F2"/>
</svg>
