<svg width="50" height="50" viewBox="0 0 50 50" fill="none" xmlns="http://www.w3.org/2000/svg">
<rect x="0.5" y="0.5" width="49" height="49" rx="9.5" fill="white" stroke="#EEEEEE"/>
<circle cx="25" cy="25" r="17" fill="#1777F2"/>
<mask id="mask0" mask-type="alpha" maskUnits="userSpaceOnUse" x="8" y="8" width="34" height="34">
<circle cx="25" cy="25" r="17" fill="#1777F2"/>
</mask>
<g mask="url(#mask0)">
<path d="M32.1454 24.8587C30.8843 24.8587 29.6234 24.8587 28.3624 24.8587C27.9888 24.8587 27.8487 24.8123 27.8487 24.3952C27.8954 23.7464 27.8487 23.0976 27.8487 22.4025C27.8487 21.4756 28.3157 20.8268 29.1563 20.4561C30.0905 20.039 31.0712 19.9463 32.0987 19.9926C32.4722 19.9926 32.5189 19.8999 32.4722 19.5755C32.4722 18.6023 32.4722 17.6291 32.4722 16.6559C32.4722 15.5436 32.4722 15.4973 31.3515 15.3583C29.4833 15.0802 27.6151 15.1266 25.8404 15.8217C23.7387 16.7486 22.5244 18.3243 22.1975 20.6414C22.0107 21.939 22.0574 23.1903 22.0574 24.4879C22.0574 24.8123 21.964 24.905 21.6371 24.905C20.703 24.905 19.8156 24.905 18.8816 24.905C18.5079 24.905 18.4612 24.9977 18.4612 25.3221C18.4612 26.6197 18.5079 27.9636 18.4612 29.2614C18.4612 29.6783 18.6013 29.7246 18.9283 29.7246C19.9091 29.6783 20.8898 29.7246 21.8706 29.7246C22.1975 29.7246 22.2909 29.7711 22.2909 30.1417C22.2909 32.2274 22.2909 34.2663 22.2909 36.3518C22.2909 38.4373 22.2909 40.4764 22.2909 42.5619C22.2909 42.8863 22.3376 43.0253 22.7113 42.979C24.2525 42.979 25.7937 42.979 27.3816 42.979C27.7552 42.979 27.8487 42.8863 27.8487 42.5155C27.8487 38.3909 27.8487 34.2663 27.8487 30.1882C27.8487 29.8174 27.9421 29.7246 28.269 29.7711C29.4366 29.7711 30.6041 29.7711 31.7718 29.7711C32.0053 29.7711 32.0987 29.7246 32.0987 29.493C32.2388 28.1028 32.379 26.7125 32.5189 25.3221C32.5189 24.905 32.4257 24.8587 32.1454 24.8587Z" fill="white"/>
</g>
</svg>
