<svg width="50" height="50" viewBox="0 0 50 50" fill="none" xmlns="http://www.w3.org/2000/svg">
<rect width="50" height="50" rx="10" fill="#121856"/>
<path fill-rule="evenodd" clip-rule="evenodd" d="M21.2731 27.297L26.1054 32.1388H21.8552L19.1876 29.453L16.5199 32.1388H11.0327C14.2944 28.8475 19.5077 23.5878 22.0046 21.0738C22.7751 20.2982 24.3782 18.6841 25.1237 18.6841C25.8727 18.6841 27.4758 20.2982 28.2462 21.0738C30.5956 23.4393 35.9272 28.7964 39.2542 32.1388H34.0221L25.2218 23.3213L21.2731 27.297ZM33.3314 33.8239H43.3C43.3 33.8239 32.9953 23.4736 29.4293 19.8832C25.605 16.0327 24.6335 16.0451 20.8216 19.8832C17.0096 23.7212 7 33.8239 7 33.8239H17.2129L19.1875 31.8358L21.1622 33.8239H30.1586L23.6421 27.2946L25.2247 25.7012L33.3314 33.8239Z" fill="#00ACED"/>
</svg>
