<svg width="50" height="50" viewBox="0 0 50 50" fill="none" xmlns="http://www.w3.org/2000/svg">
<path d="M40 0H10C4.47715 0 0 4.47715 0 10V40C0 45.5228 4.47715 50 10 50H40C45.5228 50 50 45.5228 50 40V10C50 4.47715 45.5228 0 40 0Z" fill="white"/>
<path d="M40.0648 19.1192C40.451 18.6418 40.6737 18.053 40.7002 17.4396V12.0709L30.7217 15.681C27.2451 16.9438 25.7152 19.0645 25.7152 24.9027L25.5938 39.4C27.0885 34.7038 29.4194 30.3162 32.4742 26.4488" fill="#DA365D"/>
<path d="M9.63542 19.0483C9.24924 18.5709 9.02651 17.9822 9 17.3687V12L18.9785 15.6102C22.4531 16.8729 23.9749 18.9937 23.9749 24.8319C24.0154 29.6643 24.0565 34.4974 24.0983 39.3312C22.6028 34.6353 20.272 30.2479 17.218 26.3799" fill="#DA365D"/>
</svg>
