<svg width="77" height="49" viewBox="0 0 77 49" fill="none" xmlns="http://www.w3.org/2000/svg">
<path fill-rule="evenodd" clip-rule="evenodd" d="M23.0206 37.2238C23.0206 39.2541 22.6838 40.9915 22.0107 42.4352C21.3378 43.8796 20.4409 45.0748 19.3183 46.0223C18.2416 47.015 17.0194 47.7597 15.65 48.2555C14.2818 48.7516 12.9017 49 11.5106 49C10.1197 49 8.74018 48.7516 7.37077 48.2555C6.0025 47.7597 4.75716 47.015 3.63514 46.0223C2.55823 45.0748 1.68284 43.8796 1.00993 42.4352C0.336834 40.9915 0 39.2541 0 37.2238V22.0634H12.3182V28.1549H6.8659V37.2238C6.8659 38.8936 7.32662 40.1238 8.24597 40.9123C9.16626 41.7023 10.2544 42.0969 11.5106 42.0969C12.7672 42.0969 13.8559 41.7023 14.7752 40.9123C15.6953 40.1238 16.1547 38.8936 16.1547 37.2238V11.7764C16.1547 10.1079 15.6953 8.87795 14.7752 8.0879C13.8559 7.2988 12.7672 6.90367 11.5106 6.90367C10.2544 6.90367 9.16626 7.2988 8.24597 8.0879C7.32662 8.87795 6.8659 10.1079 6.8659 11.7764V14.2128H0V11.7764C0 9.83716 0.336834 8.12196 1.00993 6.63292C1.68284 5.1437 2.55823 3.90322 3.63514 2.91053C4.75716 1.96299 6.0025 1.24182 7.37077 0.7449C8.74018 0.248555 10.1197 0 11.5106 0C12.9017 0 14.2818 0.248555 15.65 0.7449C17.0194 1.24182 18.2416 1.96299 19.3183 2.91053C20.4409 3.90322 21.3378 5.1437 22.0107 6.63292C22.6838 8.12196 23.0206 9.83716 23.0206 11.7764V37.2238Z" fill="black"/>
<path fill-rule="evenodd" clip-rule="evenodd" d="M29.3711 48.2097V0H50.0103V6.50041H36.2965V21.1255H48.2451V27.6259H36.2965V48.2097H29.3711Z" fill="black"/>
<path fill-rule="evenodd" clip-rule="evenodd" d="M53.9794 11.7764C53.9794 9.83716 54.3162 8.12177 54.9893 6.63292C55.6624 5.1435 56.5593 3.90322 57.6817 2.91053C58.7586 1.96299 59.9806 1.24182 61.3502 0.744709C62.7182 0.248555 64.0983 0 65.4894 0C66.8803 0 68.2598 0.248555 69.6294 0.744709C70.9977 1.24182 72.243 1.96299 73.3649 2.91053C74.4418 3.90322 75.317 5.1435 75.9903 6.63292C76.6634 8.12177 77 9.83716 77 11.7764V14.2128H70.1341V11.7764C70.1341 10.1077 69.6734 8.87795 68.754 8.0879C67.8339 7.2988 66.7456 6.90367 65.4894 6.90367C64.2328 6.90367 63.1443 7.2988 62.225 8.0879C61.3047 8.87795 60.8455 10.1077 60.8455 11.7764V37.2238C60.8455 38.8936 61.3047 40.1236 62.225 40.9123C63.1443 41.7022 64.2328 42.0969 65.4894 42.0969C66.7456 42.0969 67.8339 41.7022 68.754 40.9123C69.6734 40.1236 70.1341 38.8936 70.1341 37.2238V28.1549H64.6818V22.0634H77V37.2238C77 39.2541 76.6634 40.9915 75.9903 42.4352C75.317 43.8795 74.4418 45.0746 73.3649 46.0223C72.243 47.015 70.9977 47.7597 69.6294 48.2553C68.2598 48.7514 66.8803 49 65.4894 49C64.0983 49 62.7182 48.7514 61.3502 48.2553C59.9806 47.7597 58.7586 47.015 57.6817 46.0223C56.5593 45.0746 55.6624 43.8795 54.9893 42.4352C54.3162 40.9915 53.9794 39.2541 53.9794 37.2238V11.7764Z" fill="black"/>
</svg>
