<?xml version="1.0" encoding="UTF-8"?>
<svg width="112px" height="42px" viewBox="0 0 112 42" version="1.1" xmlns="http://www.w3.org/2000/svg" xmlns:xlink="http://www.w3.org/1999/xlink">
    <!-- Generator: Sketch 52.4 (67378) - http://www.bohemiancoding.com/sketch -->
    <title>Artboard</title>
    <desc>Created with Sketch.</desc>
    <defs>
        <linearGradient x1="0.00126167045%" y1="50.0018887%" x2="100.011355%" y2="50.0018887%" id="linearGradient-1">
            <stop stop-color="#E76E0B" offset="0%"></stop>
            <stop stop-color="#F47A00" offset="100%"></stop>
        </linearGradient>
    </defs>
    <g id="Artboard" stroke="none" stroke-width="1" fill="none" fill-rule="evenodd">
        <path d="M45.037,38.3697333 L43.4132308,38.3697333 L47.7101538,26.9370667 L49.3660769,26.9370667 L53.6615385,38.3697333 L52.0377692,38.3697333 L50.9401538,35.2721333 L46.1521538,35.2721333 L45.037,38.3697333 Z M48.5066923,28.7410667 L46.6446923,33.8993333 L50.4315385,33.8993333 L48.571,28.7410667 L48.5066923,28.7410667 Z M54.7430769,30.5465333 L56.1432308,30.5465333 L56.1432308,31.6318667 L56.2075385,31.6318667 C56.4296923,31.2490667 56.7716923,30.9293333 57.2335385,30.6756 C57.6953846,30.4204 58.1747692,30.2913333 58.6731538,30.2913333 C59.629,30.2913333 60.3626923,30.5656 60.8771538,31.1141333 C61.3916154,31.6626667 61.6488462,32.4414667 61.6488462,33.4534667 L61.6488462,38.3712 L60.1858462,38.3712 L60.1858462,33.5502667 C60.1536923,32.2728 59.5120769,31.6333333 58.261,31.6333333 C57.6763846,31.6333333 57.1896923,31.8709333 56.7965385,32.3446667 C56.4048462,32.8184 56.209,33.386 56.209,34.0445333 L56.209,38.3726667 L54.7430769,38.3726667 L54.7430769,30.5465333 Z M66.2468462,30.2913333 C67.3283846,30.2913333 68.1819231,30.5817333 68.8074615,31.1610667 C69.433,31.7418667 69.7457692,32.5368 69.7457692,33.5488 L69.7457692,38.3697333 L68.3456154,38.3697333 L68.3456154,37.2829333 L68.2827692,37.2829333 C67.6776923,38.1776 66.8709231,38.6249333 65.8639231,38.6249333 C65.0045385,38.6249333 64.2854615,38.3697333 63.7081538,37.8578667 C63.1293846,37.3474667 62.84,36.708 62.84,35.9424 C62.84,35.1328 63.1454615,34.4904 63.7549231,34.0108 C64.3643846,33.5312 65.1799231,33.2921333 66.1971538,33.2921333 C67.0667692,33.2921333 67.7829231,33.452 68.3441538,33.7717333 L68.3441538,33.4373333 C68.3441538,32.9254667 68.1424615,32.4913333 67.7405385,32.1349333 C67.3371538,31.7785333 66.8650769,31.6010667 66.3243077,31.6010667 C65.5058462,31.6010667 64.8613077,31.9457333 64.3833846,32.6394667 L63.0943077,31.8254667 C63.8060769,30.8032 64.8569231,30.2913333 66.2468462,30.2913333 Z M64.3526923,35.9761333 C64.3526923,36.3589333 64.5134615,36.6786667 64.8379231,36.9324 C65.1609231,37.1876 65.5394615,37.3166667 65.975,37.3166667 C66.5903077,37.3166667 67.1383846,37.0878667 67.6221538,36.6302667 C68.1044615,36.1726667 68.3456154,35.6344 68.3456154,35.0184 C67.8910769,34.6576 67.2538462,34.4757333 66.4368462,34.4757333 C65.8434615,34.4757333 65.3465385,34.6194667 64.949,34.9069333 C64.5514615,35.1929333 64.3526923,35.5493333 64.3526923,35.9761333 Z M72.8676154,26.9385333 L72.8676154,38.3712 L71.4031538,38.3712 L71.4031538,26.9385333 L72.8676154,26.9385333 Z M81.6163846,30.5465333 L76.7304615,41.8178667 L75.2192308,41.8178667 L77.033,37.874 L73.8190769,30.5465333 L75.4121538,30.5465333 L77.7345385,36.1668 L77.7666923,36.1668 L80.0247692,30.5465333 L81.6163846,30.5465333 Z M85.6560769,38.4973333 C85.0203077,38.4973333 84.4926923,38.2993333 84.0732308,37.9062667 C83.6537692,37.5132 83.4389231,36.9646667 83.4301538,36.2606667 L83.4301538,31.8856 L82.0621538,31.8856 L82.0621538,30.5450667 L83.4301538,30.5450667 L83.4301538,28.15 L84.8931538,28.15 L84.8931538,30.5450667 L86.8019231,30.5450667 L86.8019231,31.8856 L84.8931538,31.8856 L84.8931538,35.7810667 C84.8931538,36.3046667 84.9925385,36.6566667 85.1942308,36.8429333 C85.3959231,37.0292 85.6253846,37.1230667 85.8782308,37.1230667 C85.9966154,37.1230667 86.1091538,37.1098667 86.2202308,37.082 C86.3327692,37.0556 86.4365385,37.0204 86.5315385,36.9778667 L86.9933846,38.2876 C86.6119231,38.4284 86.1661538,38.4973333 85.6560769,38.4973333 Z M90.2580203,27.8478667 C90.2580203,28.1353333 90.1516132,28.3802667 89.9418392,28.5826667 C89.7320653,28.7850667 89.4782083,28.8848 89.1817886,28.8848 C88.8838487,28.8848 88.6299918,28.7850667 88.4202178,28.5826667 C88.2104438,28.3802667 88.1070769,28.1353333 88.1070769,27.8478667 C88.1070769,27.5618667 88.2104438,27.3169333 88.4202178,27.1145333 C88.6299918,26.9121333 88.8838487,26.8094667 89.1817886,26.8094667 C89.4782083,26.8094667 89.7320653,26.9121333 89.9418392,27.1145333 C90.1531333,27.3169333 90.2580203,27.5618667 90.2580203,27.8478667 Z M89.9433593,30.5465333 L89.9433593,38.3697333 L88.4217379,38.3697333 L88.4217379,30.5465333 L89.9433593,30.5465333 Z M95.2671538,38.6264 C94.1125385,38.6264 93.1523077,38.2333333 92.3879231,37.4442667 C91.6337692,36.6346667 91.2581538,35.6402667 91.2581538,34.4581333 C91.2581538,33.2554667 91.6337692,32.2596 92.3879231,31.472 C93.1523077,30.6829333 94.1125385,30.2898667 95.2671538,30.2898667 C96.0622308,30.2898667 96.7579231,30.4893333 97.3513077,30.8882667 C97.9446923,31.2872 98.3904615,31.8386667 98.6886154,32.5412 L97.3513077,33.1 C96.9376923,32.1202667 96.2113077,31.6304 95.1721538,31.6304 C94.5042308,31.6304 93.9254615,31.9017333 93.4373077,32.4444 C92.9593846,32.9885333 92.7211538,33.6588 92.7211538,34.4566667 C92.7211538,35.2545333 92.9593846,35.9248 93.4373077,36.4674667 C93.924,37.0116 94.5042308,37.2814667 95.1721538,37.2814667 C96.2434615,37.2814667 96.9976154,36.7930667 97.4302308,35.8133333 L98.7353846,36.3721333 C98.4503846,37.0746667 98.0016923,37.6246667 97.3907692,38.0250667 C96.7798462,38.4254667 96.0739231,38.6264 95.2671538,38.6264 Z M105.974385,36.1990667 C105.974385,36.8810667 105.677692,37.456 105.084308,37.9238667 C104.490923,38.3917333 103.742615,38.6264 102.842308,38.6264 C102.056,38.6264 101.367615,38.4210667 100.774231,38.0118667 C100.179385,37.6026667 99.7540769,37.0614667 99.5012308,36.3912 L100.804923,35.8324 C100.996385,36.3002667 101.274077,36.664 101.640923,36.9265333 C102.007769,37.1876 102.406769,37.3166667 102.842308,37.3166667 C103.308538,37.3166667 103.697308,37.2169333 104.010077,37.0145333 C104.322846,36.8121333 104.479231,36.5730667 104.479231,36.2958667 C104.479231,35.7957333 104.097769,35.4276 103.333385,35.1944 L101.997538,34.8570667 C100.480462,34.4742667 99.7219231,33.7394667 99.7219231,32.6556 C99.7219231,31.9413333 100.011308,31.3693333 100.588615,30.9381333 C101.165923,30.5069333 101.906923,30.2928 102.808692,30.2928 C103.497077,30.2928 104.119692,30.4585333 104.678,30.7885333 C105.234846,31.1185333 105.623615,31.5585333 105.845769,32.1129333 L104.542077,32.6570667 C104.393,32.3270667 104.151846,32.0674667 103.817154,31.8812 C103.482462,31.6949333 103.108308,31.6025333 102.696154,31.6025333 C102.313231,31.6025333 101.971231,31.6978667 101.670154,31.8885333 C101.366154,32.0806667 101.217077,32.3138667 101.217077,32.5910667 C101.217077,33.0384 101.635077,33.3566667 102.474,33.5502667 L103.652,33.8524 C105.199769,34.2352 105.974385,35.0169333 105.974385,36.1990667 Z M58.0549231,2.54346667 C57.482,3.1184 56.9412308,3.66106667 56.3843846,4.22133333 C56.1753846,4.05853333 55.9473846,3.86493333 55.7047692,3.69186667 C51.9997692,1.0504 46.7513846,3.33693333 46.0776154,7.85133333 C45.588,11.1322667 47.602,14.312 50.8276154,14.9734667 C53.1514615,15.4501333 55.2326923,14.9441333 56.8199231,13.0433333 C57.4220769,12.3217333 57.6661538,11.4432 57.7801538,10.4634667 C55.8947692,10.4634667 54.0532308,10.4634667 52.1912308,10.4634667 C52.1912308,9.65093333 52.1912308,8.8868 52.1912308,8.0904 L60.0893846,8.0904 C60.8420769,12.4141333 58.6015385,16.4108 54.1774615,17.3172 C50.9065385,17.9874667 48.02,17.128 45.7005385,14.6596 C42.1373077,10.8668 42.8388462,4.72146667 47.1445385,1.78226667 C50.3803846,-0.426533333 54.3806154,-0.345866667 57.4206154,1.992 C57.6442308,2.16653333 57.8517692,2.36746667 58.0549231,2.54346667 Z M93.6974615,7.61813333 C93.6974615,7.2676 93.6974615,7.0124 93.6974615,6.7308 L96.0403077,6.7308 L96.0403077,7.15173333 C96.0403077,10.3798667 96.0461538,13.6065333 96.0373846,16.8346667 C96.0344615,18.0725333 95.8093846,19.2634667 95.1429231,20.3297333 C94.2572308,21.7465333 92.8994615,22.3478667 91.3005385,22.5150667 C89.0614615,22.7482667 86.8954615,21.5309333 85.9308462,19.4952 C85.8972308,19.4233333 85.8723846,19.3456 85.8212308,19.2150667 C86.5286154,18.9173333 87.2243077,18.624 87.8600769,18.3556 C88.2283846,18.8014667 88.5265385,19.2737333 88.9284615,19.6242667 C89.8682308,20.4426667 90.9658462,20.5116 92.0780769,20.0437333 C93.1186923,19.6066667 93.5571538,18.7090667 93.6565385,17.6325333 C93.696,17.2013333 93.6623846,16.7642667 93.6623846,16.2524 C93.0792308,16.8742667 92.4259231,17.2805333 91.644,17.4169333 C89.4312308,17.8056 87.6905385,16.974 86.4029231,15.2037333 C84.1141538,12.0548 85.7656923,7.47733333 89.5203846,6.5152 C91.0535385,6.12213333 92.4478462,6.414 93.6974615,7.61813333 Z M93.8903846,11.9096 C93.8392308,11.5722667 93.8246154,11.2246667 93.7296154,10.9005333 C93.3905385,9.74626667 92.7006923,8.89413333 91.4832308,8.64186667 C90.3826923,8.41306667 89.4297692,8.77093333 88.6814615,9.61133333 C87.5911538,10.8345333 87.5531538,12.8776 88.5791538,14.1653333 C89.6475385,15.5073333 91.5753077,15.6862667 92.8205385,14.5393333 C93.582,13.8397333 93.8713846,12.9318667 93.8903846,11.9096 Z M66.6093077,17.5137333 C63.4406923,17.5049333 61.0423077,15.0849333 61.0496154,11.9022667 C61.0554615,8.76213333 63.4757692,6.36413333 66.6385385,6.3656 C69.8334615,6.36706667 72.2289231,8.7812 72.2186923,11.9917333 C72.2084615,15.1201333 69.7691538,17.5225333 66.6093077,17.5137333 Z M66.6458462,8.59053333 C66.0042308,8.57146667 65.4444615,8.7548 64.9343846,9.10386667 C63.3851538,10.1657333 63.0343846,12.442 64.1714615,14.0289333 C65.1287692,15.3665333 66.9513077,15.6994667 68.3134615,14.7842667 C69.1494615,14.2225333 69.5966923,13.4114667 69.7238462,12.4332 C70.0132308,10.2170667 68.4289231,8.53626667 66.6458462,8.59053333 Z M78.7663846,17.5137333 C75.5977692,17.5049333 73.1993846,15.0849333 73.2066923,11.9022667 C73.2125385,8.76213333 75.6328462,6.36413333 78.7956154,6.3656 C81.9905385,6.36706667 84.386,8.7812 84.3757692,11.9917333 C84.367,15.1201333 81.9276923,17.5225333 78.7663846,17.5137333 Z M78.8043846,8.59053333 C78.1627692,8.57146667 77.603,8.7548 77.0929231,9.10386667 C75.5436923,10.1657333 75.1929231,12.442 76.33,14.0289333 C77.2873077,15.3665333 79.1098462,15.6994667 80.472,14.7842667 C81.308,14.2225333 81.7552308,13.4114667 81.8823846,12.4332 C82.1717692,10.2170667 80.5874615,8.53626667 78.8043846,8.59053333 Z M111.484385,15.038 C110.500769,16.4416 109.207308,17.2673333 107.547,17.4888 C105.074077,17.8188 102.744385,16.4944 101.768077,14.2137333 C100.616385,11.5253333 101.677462,8.24146667 104.108,6.96253333 C106.803077,5.54426667 109.904462,6.656 111.157,9.49253333 C111.306077,9.8284 111.434692,10.1730667 111.589615,10.5544 C110.342923,11.0721333 109.110846,11.5810667 107.880231,12.0914667 C106.648154,12.6033333 105.417538,13.1181333 104.186923,13.6314667 C104.945462,15.5352 108.035154,16.1130667 109.600462,13.7766667 C110.221615,14.1917333 110.841308,14.6068 111.484385,15.038 Z M103.790846,11.7350667 C105.419,11.0574667 107.036923,10.3828 108.653385,9.7096 C108.317231,8.82373333 107.196231,8.35146667 106.081077,8.60226667 C104.701385,8.91173333 103.660769,10.3138667 103.790846,11.7350667 Z M100.126769,0.814266667 L100.126769,17.1470667 C99.3302308,17.1470667 98.5424615,17.1470667 97.7254615,17.1470667 C97.7254615,11.716 97.7254615,6.28346667 97.7254615,0.814266667 L100.126769,0.814266667 Z" id="Combined-Shape" fill="#757575" fill-rule="nonzero"></path>
        <path d="M31.6171538,2.872 L25.4786923,2.872 C23.9835385,2.872 22.7558462,4.104 22.7558462,5.6044 L22.7558462,36.9206667 L31.6171538,36.9206667 C33.1123077,36.9206667 34.34,35.6886667 34.34,34.1882667 L34.34,5.6044 C34.34,4.104 33.1123077,2.872 31.6171538,2.872 Z" id="Path" fill="#F57E04"></path>
        <path d="M11.1249231,16.3125333 L11.1249231,25.2724 L3.08938462,25.2724 C1.61615385,25.2724 0.410384615,26.4824 0.410384615,27.9608 L0.410384615,34.2337333 C0.410384615,35.7121333 1.61615385,36.9221333 3.08938462,36.9221333 L22.7324615,36.9221333 L22.7324615,13.6241333 L13.8039231,13.6241333 C12.3306923,13.6241333 11.1249231,14.8341333 11.1249231,16.3125333 Z" id="Path" fill="#FFC518"></path>
        <path d="M22.7324615,13.6241333 L22.7324615,36.9206667 L31.5937692,36.9206667 C33.0889231,36.9206667 34.3166154,35.6886667 34.3166154,34.1882667 L34.3166154,25.2724 L22.7324615,13.6241333 Z" id="Path" fill="url(#linearGradient-1)"></path>
        <path d="M13.8039231,13.8485333 L22.7324615,13.8485333 L22.7324615,13.6241333 L13.8039231,13.6241333 C12.3306923,13.6241333 11.1249231,14.8341333 11.1249231,16.3125333 L11.1249231,16.5369333 C11.1249231,15.0585333 12.3306923,13.8485333 13.8039231,13.8485333 Z" id="Path" fill="#FFD145"></path>
        <path d="M3.08938462,25.4968 L11.1249231,25.4968 L11.1249231,25.2724 L3.08938462,25.2724 C1.61615385,25.2724 0.410384615,26.4824 0.410384615,27.9608 L0.410384615,28.1852 C0.410384615,26.7068 1.61615385,25.4968 3.08938462,25.4968 Z" id="Path" fill="#FFD145"></path>
        <path d="M31.6171538,2.872 L25.4786923,2.872 C23.9835385,2.872 22.7558462,4.104 22.7558462,5.6044 L22.7558462,5.8288 C22.7558462,4.3284 23.9835385,3.0964 25.4786923,3.0964 L31.6171538,3.0964 C33.1123077,3.0964 34.34,4.3284 34.34,5.8288 L34.34,5.6044 C34.34,4.104 33.1123077,2.872 31.6171538,2.872 Z" id="Path" fill="#F79633"></path>
        <path d="M31.6171538,36.6977333 L3.08938462,36.6977333 C1.61615385,36.6977333 0.410384615,35.4877333 0.410384615,34.0093333 L0.410384615,34.2337333 C0.410384615,35.7121333 1.61615385,36.9221333 3.08938462,36.9221333 L31.5952308,36.9221333 C33.0903846,36.9221333 34.3180769,35.6901333 34.3180769,34.1897333 L34.3183661,33.9653333 C34.34,35.4657333 33.1123077,36.6977333 31.6171538,36.6977333 Z" id="Path" fill="#000000" opacity="0.15"></path>
    </g>
</svg>