<?xml version="1.0" encoding="UTF-8"?>
<svg width="114px" height="38px" viewBox="0 0 114 38" version="1.1" xmlns="http://www.w3.org/2000/svg" xmlns:xlink="http://www.w3.org/1999/xlink">
    <!-- Generator: Sketch 52.4 (67378) - http://www.bohemiancoding.com/sketch -->
    <title>Artboard</title>
    <desc>Created with Sketch.</desc>
    <g id="Artboard" stroke="none" stroke-width="1" fill="none" fill-rule="evenodd">
        <path d="M24.5730638,3.98623529 C23.6222553,4.95470588 22.727234,5.86635294 21.8031064,6.80764706 C21.4562553,6.53341176 21.0778723,6.20729412 20.675234,5.91823529 C14.5337872,1.47364706 5.83582979,5.32035294 4.72008511,12.9149412 C3.90753191,18.4342353 7.24506383,23.7830588 12.5909362,24.8972941 C16.4426809,25.6977647 19.8917872,24.8478824 22.5210638,21.6509412 C23.520383,20.4378824 23.9254468,18.958 24.1122128,17.3101176 C20.9881277,17.3101176 17.9368085,17.3101176 14.8491064,17.3101176 C14.8491064,15.9438824 14.8491064,14.6591765 14.8491064,13.3176471 L27.9397021,13.3176471 C29.1888511,20.5910588 25.4753617,27.3135294 18.1405532,28.8403529 C12.7194894,29.9694118 7.93634043,28.5216471 4.09187234,24.3685882 C-1.81187234,17.9895294 -0.650042553,7.65011765 6.48587234,2.70647059 C11.8487234,-1.00929412 18.4777021,-0.873411765 23.5179574,3.05976471 C23.8939149,3.35376471 24.2359149,3.68976471 24.5730638,3.98623529 Z M83.6444681,12.5221176 C83.6444681,11.9341176 83.6444681,11.5017647 83.6444681,11.0298824 L87.5277447,11.0298824 L87.5277447,11.7389412 C87.5277447,17.1692941 87.5374468,22.5971765 87.5228936,28.0275294 C87.5180426,30.1077647 87.1469362,32.1138824 86.0408936,33.9050588 C84.5710213,36.2867059 82.3225532,37.2996471 79.6738723,37.5812941 C75.9628085,37.9741176 72.3730213,35.926 70.7745957,32.5017647 C70.7188085,32.3807059 70.6775745,32.2497647 70.5926809,32.0298824 C71.7642128,31.5283529 72.918766,31.0342353 73.9738723,30.5845882 C74.5851064,31.3331765 75.0774894,32.1287059 75.7445106,32.7191765 C77.3017021,34.0952941 79.1208511,34.2114118 80.9642553,33.4257647 C82.6888085,32.6895294 83.4164681,31.1824706 83.5789787,29.3690588 C83.6444681,28.6427059 83.5886809,27.9064706 83.5886809,27.0467059 C82.6233191,28.0917647 81.5391064,28.7761176 80.2438723,29.0058824 C76.5764681,29.6605882 73.6900851,28.2622353 71.5580426,25.2827059 C67.7645106,19.9832941 70.5005106,12.2849412 76.7244255,10.6667059 C79.2639574,10.0045882 81.5730638,10.4962353 83.6444681,12.5221176 Z M83.9646383,19.7436471 C83.8797447,19.1754118 83.8579149,18.5898824 83.7002553,18.0463529 C83.1375319,16.1044706 81.9951064,14.6715294 79.9794894,14.2465882 C78.1554894,13.8611765 76.5764681,14.464 75.3345957,15.8771765 C73.5275745,17.9351765 73.4645106,21.3717647 75.1648085,23.5384706 C76.9354468,25.7965882 80.1298723,26.098 82.194,24.1684706 C83.4528511,22.99 83.9331064,21.4631765 83.9646383,19.7436471 Z" id="Combined-Shape" fill="#4285F4"></path>
        <path d="M38.7502979,29.1689412 C33.4990213,29.1541176 29.526,25.0825882 29.5357021,19.7288235 C29.5454043,14.4442353 33.557234,10.4122353 38.796383,10.4147059 C44.0913191,10.4171765 48.0619149,14.4788235 48.0449362,19.8795294 C48.030383,25.1418824 43.9870213,29.1837647 38.7502979,29.1689412 Z M38.8133617,14.1576471 C37.7509787,14.1255294 36.822,14.4343529 35.9779149,15.0223529 C33.4117021,16.8085882 32.8271489,20.638 34.7117872,23.3062353 C36.3005106,25.5544706 39.3178723,26.1152941 41.5760426,24.5761176 C42.9610213,23.6323529 43.7008085,22.2661176 43.9142553,20.6207059 C44.3945106,16.8925882 41.7676596,14.0662353 38.8133617,14.1576471 Z M113.124383,25.0035294 C111.494426,27.3654118 109.350255,28.7538824 106.597277,29.1269412 C102.498128,29.6828235 98.6391064,27.4543529 97.0212766,23.6175294 C95.112383,19.0963529 96.8708936,13.5696471 100.899702,11.4177647 C105.365106,9.03364706 110.507234,10.9038824 112.583489,15.6745882 C112.830894,16.2403529 113.04434,16.8209412 113.301447,17.4608235 C111.234894,18.3304706 109.192596,19.1877647 107.155149,20.0475294 C105.112851,20.9097647 103.072979,21.7744706 101.033106,22.6391765 C102.291957,25.8410588 107.412255,26.8144706 110.005149,22.8837647 C111.031149,23.5804706 112.057149,24.2796471 113.124383,25.0035294 Z M100.373362,19.4496471 C103.072979,18.3082353 105.753191,17.1742353 108.430979,16.0427059 C107.875532,14.5529412 106.015149,13.7598824 104.166894,14.1798824 C101.882043,14.6987059 100.159915,17.0581176 100.373362,19.4496471 Z" id="Combined-Shape" fill="#EA4335" fill-rule="nonzero"></path>
        <path d="M58.901617,29.1689412 C53.6503404,29.1541176 49.6773191,25.0825882 49.6870213,19.7288235 C49.6967234,14.4442353 53.7085532,10.4122353 58.9477021,10.4147059 C64.2426383,10.4171765 68.213234,14.4788235 68.1962553,19.8795294 C68.1817021,25.1418824 64.1383404,29.1837647 58.901617,29.1689412 Z M58.9622553,14.1576471 C57.8998723,14.1255294 56.9708936,14.4343529 56.1268085,15.0223529 C53.5605957,16.8085882 52.9760426,20.638 54.8606809,23.3062353 C56.4494043,25.5544706 59.466766,26.1152941 61.7249362,24.5761176 C63.1099149,23.6323529 63.8497021,22.2661176 64.0631489,20.6207059 C64.5434043,16.8925882 61.9165532,14.0662353 58.9622553,14.1576471 Z" id="Shape" fill="#FBBC05" fill-rule="nonzero"></path>
        <path d="M94.3022553,1.07835294 L94.3022553,28.5537647 C92.982766,28.5537647 91.6778298,28.5537647 90.3219574,28.5537647 C90.3219574,19.4175294 90.3219574,10.2788235 90.3219574,1.07835294 L94.3022553,1.07835294 Z" id="Path" fill="#34A853"></path>
    </g>
</svg>