<svg width="50" height="50" viewBox="0 0 50 50" fill="none" xmlns="http://www.w3.org/2000/svg">
<rect x="0.5" y="0.5" width="49" height="49" rx="9.5" fill="white" stroke="#EEEEEE"/>
<path fill-rule="evenodd" clip-rule="evenodd" d="M10 24.649C10 16.5482 16.5482 10 24.649 10C32.6823 10 39.163 16.4807 39.298 24.4465C39.433 32.6148 32.6148 39.433 24.4465 39.298C16.4807 39.163 10 32.6823 10 24.649ZM24.649 35.6526C28.2944 35.6526 31.3997 34.7075 33.0199 33.0873C34.6401 31.4672 35.5852 28.3619 35.5852 24.7165C35.5852 21.0712 34.6401 17.9659 33.0199 16.3457C31.3997 14.7255 28.2944 13.7804 24.649 13.7804C21.0036 13.7804 17.8983 14.7255 16.2782 16.3457C14.658 17.9659 13.7129 21.0712 13.7129 24.7165C13.7129 28.3619 14.658 31.4672 16.2782 33.0873C17.8308 34.7075 21.0036 35.6526 24.649 35.6526ZM31.5347 17.7633C30.3871 16.6157 27.6869 15.8731 24.649 15.8731C21.6113 15.8731 18.911 16.6157 17.7633 17.7633C16.6157 18.9109 15.8731 21.6112 15.8731 24.649C15.8731 27.6868 16.6157 30.3871 17.7633 31.5347C18.911 32.6823 21.6113 33.4249 24.649 33.4249C27.6869 33.4249 30.3871 32.6823 31.5347 31.5347C32.0748 30.9947 32.5473 29.982 32.8849 28.8344C33.2224 27.6193 33.425 26.2017 33.425 24.7165C33.3574 21.6112 32.6824 18.9109 31.5347 17.7633ZM28.8345 28.8344C28.5645 29.1045 27.8894 29.7795 24.5816 29.7795C21.5037 29.7795 20.7053 29.1366 20.3915 28.8841C20.3681 28.8652 20.3474 28.8485 20.3286 28.8344C20.3176 28.8199 20.3054 28.8041 20.2918 28.7868C20.0551 28.4838 19.451 27.7107 19.451 24.5815C19.451 21.5037 20.0939 20.7053 20.3464 20.3916C20.3653 20.3681 20.3821 20.3474 20.3961 20.3285C20.5986 20.0585 21.3412 19.3834 24.649 19.3834C27.7268 19.3834 28.5253 20.0263 28.839 20.2789C28.8625 20.2978 28.8832 20.3144 28.902 20.3285C28.9161 20.3474 28.9327 20.3681 28.9516 20.3916C29.2042 20.7053 29.8471 21.5037 29.8471 24.5815C29.8471 27.8265 29.1325 28.5378 28.8503 28.8186L28.8345 28.8344ZM27.4842 22.6238V26.6067C27.4842 27.0793 27.0792 27.4168 26.6741 27.4168H22.6912C22.2187 27.4168 21.8812 27.0118 21.8812 26.6067V22.6238C21.8812 22.1513 22.2862 21.8137 22.6912 21.8137H26.6741C27.1467 21.8137 27.4842 22.1513 27.4842 22.6238Z" fill="#FF5A00"/>
</svg>
