<?xml version="1.0" encoding="UTF-8"?>
<svg width="152px" height="153px" viewBox="0 0 152 153" version="1.1" xmlns="http://www.w3.org/2000/svg" xmlns:xlink="http://www.w3.org/1999/xlink">
    <!-- Generator: Sketch 52.4 (67378) - http://www.bohemiancoding.com/sketch -->
    <title>Group 27</title>
    <desc>Created with Sketch.</desc>
    <defs>
        <linearGradient x1="23.8747471%" y1="18.8363659%" x2="72.9078239%" y2="90.6818901%" id="linearGradient-1">
            <stop stop-color="#FFEE5E" offset="0%"></stop>
            <stop stop-color="#E8328F" offset="100%"></stop>
        </linearGradient>
        <linearGradient x1="0%" y1="13.4821288%" x2="71.5608531%" y2="76.7607533%" id="linearGradient-2">
            <stop stop-color="#FBAB3C" offset="0%"></stop>
            <stop stop-color="#FBA931" offset="100%"></stop>
        </linearGradient>
    </defs>
    <g id="MARKETPLACE" stroke="none" stroke-width="1" fill="none" fill-rule="evenodd">
        <g id="Group-27">
            <path d="M151.563197,76.4365414 C151.563197,118.28961 117.634438,152.218369 75.781369,152.218369 C33.9283,152.218369 0.000196551724,118.28961 0.000196551724,76.4365414 C0.000196551724,34.5834724 33.9283,0.654713793 75.781369,0.654713793 C117.634438,0.654713793 151.563197,34.5834724 151.563197,76.4365414" id="Fill-1" fill="url(#linearGradient-1)"></path>
            <polygon id="Fill-4" fill="#F18243" points="68.1352448 78.7527069 26.9543828 74.1769828 50.0321759 87.5064655"></polygon>
            <path d="M68.5166207,84.7381655 C68.5231724,84.7375103 68.5277586,84.7335793 68.5343103,84.7329241 L86.5882414,83.2286483 L69.9370345,78.9733034 L53.1665862,87.0823724 L68.5008966,84.7368552 C68.5061379,84.7362 68.5113793,84.7388207 68.5166207,84.7381655" id="Fill-6" fill="#F2714A"></path>
            <polygon id="Fill-8" fill="#F57B40" points="85.7176483 52.2750276 77.6917862 47.5322345 83.8680966 62.0757517"></polygon>
            <path d="M139.039969,34.7084138 C137.780728,32.8031724 136.437624,30.9582069 135.0159,29.1787586 L122.161417,37.0251034 L139.039969,34.7084138 Z" id="Fill-10" fill="#EE714B"></path>
            <path d="M137.879331,63.1791276 L144.454641,44.3671621 C143.036848,41.3369897 141.429055,38.4136103 139.638469,35.6186448 L120.751814,38.2105069 L137.879331,63.1791276 Z" id="Fill-12" fill="#E9604E"></path>
            <polygon id="Fill-14" fill="#F68F32" points="23.1560862 78.1631172 45.2485 85.8784276 24.9093276 74.130531"></polygon>
            <polygon id="Fill-16" fill="#F78B41" points="26.3368172 73.119731 69.7066103 77.9385241 83.6781621 64.1419034 76.4109897 47.0307655"></polygon>
            <polygon id="Fill-18" fill="#E76249" points="69.0666379 85.6750621 69.0666379 98.8473034 87.9401897 84.1026483"></polygon>
            <polygon id="Fill-20" fill="#FFA53A" points="37.7610586 34.9895483 76.0323 45.6649276 73.4135759 31.1626862"></polygon>
            <polygon id="Fill-22" fill="#FEA63A" points="25.4457828 72.475631 75.3247138 46.4882172 35.5053 35.3810793"></polygon>
            <polygon id="Fill-24" fill="#F19042" points="74.4224103 31.2171966 77.0503069 45.7705414 117.071514 37.8875069"></polygon>
            <polygon id="Fill-26" fill="#ED6B47" points="84.0085655 65.1966655 70.8481172 78.1920103 88.8430828 82.7906655"></polygon>
            <polygon id="Fill-28" fill="#F08245" points="78.0154414 46.5820379 86.3014069 51.4787966 115.302614 39.2375552"></polygon>
            <polygon id="Fill-30" fill="#EC6B4C" points="86.6519241 52.6240379 84.5842 63.5817966 84.6353034 63.7659 133.805993 63.7659"></polygon>
            <path d="M146.10371,48.1577931 C145.764986,47.3165517 145.412503,46.4831724 145.044952,45.657 L140.558986,58.4924828 L146.10371,48.1577931 Z" id="Fill-32" fill="#E75040"></path>
            <path d="M75.7096276,133.063486 L60.1407655,144.739969 L76.6334207,152.212866 C81.5341103,152.158486 86.3240759,151.644176 90.9594207,150.702038 L75.7096276,133.063486 Z" id="Fill-34" fill="#D61E5E"></path>
            <path d="M59.8589759,145.688855 L60.8987345,150.758579 C65.2228724,151.620131 69.6793552,152.112821 74.234769,152.20389 L59.8589759,145.688855 Z" id="Fill-36" fill="#D10F68"></path>
            <path d="M106.22271,136.105124 L76.9666414,133.014676 L92.0546069,150.465848 C96.3420552,149.528297 100.492572,148.227779 104.474055,146.597055 L106.22271,136.105124 Z" id="Fill-38" fill="#D21462"></path>
            <path d="M19.0467138,126.674572 C19.5204034,127.209193 20.0013,127.737917 20.4900586,128.258779 L23.3485759,125.972228 L19.0467138,126.674572 Z" id="Fill-40" fill="#EC7349"></path>
            <path d="M146.574583,49.3592483 L138.557238,64.3004552 L149.178238,95.3765931 C150.734928,89.3247655 151.563066,82.9800759 151.563066,76.4421103 C151.563066,66.898869 149.7941,57.7703517 146.574583,49.3592483" id="Fill-42" fill="#DE3E5A"></path>
            <path d="M142.237997,106.497228 L133.220203,124.317917 C133.187445,124.382779 133.137652,124.434538 133.081307,124.47909 L133.809859,125.176848 C138.434066,119.676021 142.289755,113.509538 145.21379,106.840538 L142.237997,106.497228 Z" id="Fill-45" fill="#D10C5C"></path>
            <path d="M138.902186,68.3490931 L142.406048,105.527507 L145.62491,105.89899 C146.831083,103.042438 147.866255,100.096128 148.71929,97.0731621 L138.902186,68.3490931 Z" id="Fill-47" fill="#D5275D"></path>
            <path d="M8.78664828,101.051041 L6.10437241,106.280628 C9.1659931,113.420697 13.292269,119.994697 18.2840276,125.80411 L24.2913034,124.824628 L8.78664828,101.051041 Z" id="Fill-49" fill="#ED6D46"></path>
            <path d="M59.935369,16.2747448 L62.8017483,1.77184828 C60.9266448,2.09550345 59.0751276,2.48795172 57.2498172,2.94657241 L49.7277828,9.60050345 L59.935369,16.2747448 Z" id="Fill-51" fill="#FDC62B"></path>
            <path d="M73.7982276,29.9123552 L97.4368483,3.8057 C96.0976759,3.4067 94.7440897,3.04307931 93.3754345,2.71811379 L61.1265379,17.2406655 L73.7982276,29.9123552 Z" id="Fill-53" fill="#FFB137"></path>
            <path d="M48.0747828,9.38390345 L45.9860931,6.74552414 C41.7117483,8.57542069 37.6405069,10.7879379 33.8129897,13.3385241 L48.0747828,9.38390345 Z" id="Fill-55" fill="#FBD723"></path>
            <path d="M33.2408276,34.3734241 L18.3448276,27.0079759 C16.0733448,29.6443897 13.9813793,32.4387 12.0859655,35.3732172 L33.2408276,34.3734241 Z" id="Fill-57" fill="#FDCB2F"></path>
            <path d="M25.7436241,19.5343586 C24.9357966,20.2452207 24.1417276,20.9704966 23.3653483,21.7141172 L32.6583138,31.4434276 L25.7436241,19.5343586 Z" id="Fill-59" fill="#FFC52C"></path>
            <path d="M119.042141,37.2007552 L103.834279,6.02503103 C102.079728,5.32596207 100.293728,4.68913448 98.4775897,4.11978966 L74.7911414,30.280169 L119.042141,37.2007552 Z" id="Fill-61" fill="#F9993B"></path>
            <path d="M32.8806138,33.0988517 L22.6618897,22.4011966 C21.4026483,23.6388172 20.1873034,24.9203345 19.0165103,26.2431276 L32.8806138,33.0988517 Z" id="Fill-63" fill="#FDCD2B"></path>
            <polygon id="Fill-65" fill="#EF6543" points="68.0838793 98.9599276 68.0838793 85.7948931 51.3802586 88.3494103"></polygon>
            <polygon id="Fill-67" fill="#E6564E" points="44.7298 108.410462 26.5002828 124.614186 57.4886276 122.726634"></polygon>
            <polygon id="Fill-69" fill="#E34755" points="58.0531241 123.676962 26.7765034 125.579583 58.6663655 143.977479"></polygon>
            <path d="M59.8508517,150.540734 L58.8884034,145.849045 L55.3799552,149.44201 C56.8527828,149.852803 58.3439552,150.21839 59.8508517,150.540734" id="Fill-71" fill="#D91869"></path>
            <path d="M8.88105862,98.9295276 L21.8895069,78.4874931 L3.00481724,55.2596655 C1.44812759,60.6150448 0.468644828,66.2154586 0.133851724,71.9888379 L8.88105862,98.9295276 Z" id="Fill-73" fill="url(#linearGradient-2)"></path>
            <path d="M22.3660138,77.5157414 L24.0937034,73.5414655 L3.64184138,53.1832931 C3.5416,53.4945 3.44004828,53.8057069 3.34373793,54.1188793 L22.3660138,77.5157414 Z" id="Fill-75" fill="#F8A72A"></path>
            <polygon id="Fill-77" fill="#EE6E49" points="43.7169034 107.996197 9.79666207 100.801093 25.2154897 124.442334"></polygon>
            <path d="M107.128683,136.648066 L105.545131,146.151997 C108.203821,145.015272 110.78389,143.73179 113.276166,142.310066 L107.128683,136.648066 Z" id="Fill-79" fill="#D30F69"></path>
            <polygon id="Fill-81" fill="#DA3359" points="132.422269 123.718631 141.279545 106.215045 91.8408897 84.9979414 132.32989 123.759907"></polygon>
            <path d="M8.20531379,100.030676 L0.0202448276,74.8229172 C0.00910689655,75.361469 -6.55172414e-05,75.9006759 -6.55172414e-05,76.4418483 C-6.55172414e-05,86.5812966 1.99624483,96.2529517 5.60952069,105.092538 L8.20531379,100.030676 Z" id="Fill-83" fill="#FFA23D"></path>
            <path d="M58.3920448,144.951197 L25.1597345,125.780852 L21.167769,128.974817 C30.1619759,138.322817 41.5331483,145.36461 54.3090103,149.132507 L58.3920448,144.951197 Z" id="Fill-86" fill="#E03F57"></path>
            <path d="M132.126786,124.925983 L107.675752,135.815603 L114.164579,141.792086 C121.341338,137.567534 127.763338,132.197741 133.173752,125.928397 L132.126786,124.925983 Z" id="Fill-88" fill="#D40C66"></path>
            <path d="M60.9430241,16.2454586 L91.7806793,2.35776897 C86.6225069,1.24921724 81.2710586,0.660217241 75.781369,0.660217241 C71.7173345,0.660217241 67.7286448,0.983872414 63.8375759,1.60038966 L60.9430241,16.2454586 Z" id="Fill-90" fill="#FFBE31"></path>
            <path d="M24.4252862,72.4845414 L34.5103552,35.2969552 L11.4456655,36.3865069 C8.38601034,41.2904724 5.86687241,46.5659207 3.98194138,52.1348862 L24.4252862,72.4845414 Z" id="Fill-92" fill="#FFBD35"></path>
            <polygon id="Fill-94" fill="#D7275D" points="90.6260034 85.1953448 107.089176 135.000897 131.360038 124.191862"></polygon>
            <path d="M120.101228,37.1313069 L134.394469,28.407031 C126.635262,18.9496172 116.6334,11.4039966 105.199331,6.58323793 L120.101228,37.1313069 Z" id="Fill-96" fill="#F28544"></path>
            <polygon id="Fill-98" fill="#E04356" points="89.2930552 84.2926483 69.3299517 99.8883724 105.720848 133.992717"></polygon>
            <polygon id="Fill-100" fill="#F48840" points="9.85012414 99.2371966 48.3991586 88.0193345 22.7000207 79.0447828"></polygon>
            <polygon id="Fill-102" fill="#E24455" points="68.4242414 101.445521 59.1587931 122.935831 75.0703103 131.457003"></polygon>
            <polygon id="Fill-104" fill="#D9315C" points="105.388807 135.028545 69.3982207 101.298959 76.1851517 131.943993"></polygon>
            <polygon id="Fill-106" fill="#DC3758" points="59.6465034 143.882217 74.8700897 132.464528 59.0457103 123.989872"></polygon>
            <polygon id="Fill-108" fill="#F07846" points="49.3123379 88.7772379 10.7515103 99.9983759 44.4155793 107.139755"></polygon>
            <polygon id="Fill-110" fill="#E6564E" points="67.6912345 100.664097 45.6348552 107.948959 58.3832 122.253338"></polygon>
            <polygon id="Fill-112" fill="#E8674A" points="50.3137034 88.836269 45.4791862 106.965545 67.4366345 99.7127862"></polygon>
            <path d="M49.4108103,8.56893448 L55.1304655,3.5096931 C53.1911552,4.05741724 51.2839483,4.6831069 49.4108103,5.37824483 L49.4108103,8.56893448 Z" id="Fill-114" fill="#F6CB31"></path>
            <path d="M47.929531,10.4437759 L31.3746345,15.0339138 C29.6960828,16.2499138 28.0692897,17.531431 26.4981862,18.8778103 L35.1484276,33.7744655 L47.929531,10.4437759 Z" id="Fill-116" fill="#FFC82D"></path>
            <polygon id="Fill-118" fill="#FEC133" points="49.0950828 10.3616172 36.6094621 33.1531 59.4016 17.1000655"></polygon>
            <path d="M48.4280517,8.24698276 L48.4280517,5.75208621 C47.9255345,5.94667241 47.4256379,6.14715517 46.9283621,6.35222414 L48.4280517,8.24698276 Z" id="Fill-120" fill="#F7D512"></path>
            <polygon id="Fill-122" fill="#E85E4C" points="84.9050379 64.7486586 89.8692793 82.8170034 135.449624 64.7486586"></polygon>
            <polygon id="Fill-124" fill="#E14256" points="137.595183 64.9554966 90.8283207 83.4936 141.387321 105.1916"></polygon>
            <polygon id="Fill-126" fill="#FEB535" points="36.9954241 34.0833793 72.7422862 30.2460345 60.2212862 17.7250345"></polygon>
            <polygon id="Fill-128" fill="#EB6D4A" points="87.8415207 51.8952897 136.89821 63.4866 119.718279 38.440669"></polygon>
            <path d="M116.338179,94.7030103 C109.535524,94.7030103 104.001283,89.168769 104.001283,82.3661138 C104.001283,75.5634586 109.535524,70.0292172 116.338179,70.0292172 C123.140834,70.0292172 128.675076,75.5634586 128.675076,82.3661138 C128.675076,89.168769 123.140834,94.7030103 116.338179,94.7030103 M75.2844207,113.977528 C69.7829379,113.977528 65.3068,109.502045 65.3068,104.000562 C65.3074552,98.4990793 69.7829379,94.0229414 75.2850759,94.0229414 C80.7865586,94.0229414 85.2620414,98.4984241 85.2620414,103.999907 C85.2620414,109.502045 80.7859034,113.977528 75.2844207,113.977528 M75.2850759,42.1712862 C77.0022828,42.1712862 78.3991103,43.5681138 78.3991103,45.2853207 C78.3991103,47.0025276 77.0016276,48.3993552 75.2844207,48.4000103 C73.5672138,48.3993552 72.1703862,47.0025276 72.1703862,45.2853207 C72.1703862,43.5681138 73.567869,42.1712862 75.2850759,42.1712862 M34.2228,80.2590793 C26.8671793,80.2590793 20.8834897,74.2747345 20.8834897,66.919769 C20.8834897,59.5648034 26.8671793,53.5804586 34.2228,53.5804586 C41.5784207,53.5804586 47.5621103,59.5648034 47.5621103,66.919769 C47.5614552,74.2747345 41.5777655,80.2590793 34.2228,80.2590793 M116.338179,65.4430103 C107.006559,65.4430103 99.4150759,73.0344931 99.4150759,82.3661138 C99.4150759,83.4923552 99.5277655,84.5923897 99.738731,85.6570448 L89.7421103,91.4638379 C87.1915241,88.5260448 83.7649724,86.3705276 79.8706276,85.4093897 L79.8706276,60.1577345 C86.2205586,58.1954931 90.8473862,52.270769 90.8473862,45.2853207 C90.8473862,36.7045276 83.865869,29.7230103 75.2850759,29.7230103 C66.7036276,29.7230103 59.7221103,36.7045276 59.7221103,45.2853207 C59.7221103,46.1770103 59.8013862,47.0497 59.9461793,47.900769 L45.7400759,55.9449759 C42.8383172,52.9017 38.7500414,50.9990793 34.2228,50.9990793 C25.4441448,50.9990793 18.3021103,58.1411138 18.3021103,66.919769 C18.3021103,75.6984241 25.4441448,82.8404586 34.2228,82.8404586 C43.0014552,82.8404586 50.1434897,75.6984241 50.1434897,66.919769 C50.1434897,65.9671483 50.0550414,65.0361483 49.893869,64.1293897 L64.0966966,56.0864931 C65.8984207,57.9530793 68.1594207,59.3728379 70.6982138,60.1577345 L70.6982138,85.4093897 C62.3473862,87.4705621 56.1350414,95.0220793 56.1343862,104.000562 C56.1343862,114.559976 64.7256621,123.149941 75.2844207,123.149941 C85.8438345,123.149941 94.4344552,114.559321 94.4344552,103.999907 C94.4344552,102.497597 94.2549379,101.036562 93.9260414,99.6325276 L103.908248,93.8349069 C107.001972,97.1861138 111.428317,99.2892172 116.338179,99.2892172 C125.6698,99.2892172 133.261283,91.6977345 133.261283,82.3661138 C133.261283,73.0344931 125.6698,65.4430103 116.338179,65.4430103" id="Fill-130" fill="#FFFFFF"></path>
        </g>
    </g>
</svg>