<?xml version="1.0" encoding="UTF-8"?>
<svg width="136px" height="24px" viewBox="0 0 136 24" version="1.1" xmlns="http://www.w3.org/2000/svg" xmlns:xlink="http://www.w3.org/1999/xlink">
    <!-- Generator: Sketch 52.4 (67378) - http://www.bohemiancoding.com/sketch -->
    <title>Artboard</title>
    <desc>Created with Sketch.</desc>
    <g id="Artboard" stroke="none" stroke-width="1" fill="none" fill-rule="evenodd">
        <path d="M79.4672727,18.765 C79.4672727,20.1045 79.4456364,21.4605 79.4796364,22.815 C79.4904545,23.265 79.3714545,23.3745 78.9109091,23.3655 C77.3237273,23.334 75.735,23.3415 74.1478182,23.3625 C73.7830909,23.367 73.695,23.2695 73.6965455,22.9215 C73.7089091,18.9075 73.6254545,14.8905 73.7336364,10.878 C73.8016364,8.3505 75.0441818,6.483 77.9032727,5.697 C79.3869091,5.289 80.8968182,5.115 82.4175455,5.1915 C84.1438182,5.2785 85.8314545,5.5875 87.2656364,6.651 C88.5514545,7.6035 89.4895455,8.7795 89.896,10.326 C90.4430909,12.4065 90.4106364,14.4495 89.5652727,16.461 C88.842,18.1845 87.5020909,19.152 85.6815455,19.59 C83.5812727,20.097 81.6200909,19.68 79.7176364,18.8025 C79.6697273,18.78 79.6233636,18.7545 79.5739091,18.7365 C79.5584545,18.732 79.5383636,18.7455 79.4672727,18.765 Z M79.5785455,12.543 C79.5785455,13.3305 79.6063636,14.118 79.5677273,14.9025 C79.5445455,15.3705 79.7763636,15.666 80.0962727,15.9465 C81.1889091,16.9095 83.3448182,16.1505 83.6971818,14.892 C84.0526364,13.6215 84.1932727,12.354 84.0031818,11.0595 C83.8563636,10.0635 83.5333636,9.1425 82.348,8.889 C81.8333636,8.778 81.2986364,8.754 80.784,8.901 C79.8969091,9.156 79.577,9.5835 79.577,10.449 C79.5785455,11.148 79.5785455,11.8455 79.5785455,12.543 Z M100.494727,19.8045 C98.7653636,19.8135 97.2245455,19.683 95.7424545,19.158 C93.568,18.3885 92.327,16.8855 91.987,14.6655 C91.8602727,13.8435 91.7103636,13.023 91.7768182,12.192 C91.8896364,10.7685 92.0534545,9.3555 92.8694545,8.097 C93.8384545,6.603 95.2880909,5.8575 96.9989091,5.499 C98.4315455,5.1975 99.8889091,5.094 101.347818,5.184 C102.996818,5.2845 104.627273,5.511 106.089273,6.357 C107.450818,7.1445 108.232818,8.3385 108.606818,9.7905 C108.894273,10.9065 109.022545,12.0525 108.937545,13.2015 C108.837091,14.559 108.616091,15.897 107.843364,17.0835 C107.015,18.354 105.755455,19.0005 104.313545,19.371 C103.009182,19.704 101.677,19.83 100.494727,19.8045 Z M102.853091,12.6885 C102.853091,12.0945 102.904091,11.6235 102.842273,11.166 C102.684636,10.0005 102.554818,8.844 100.769818,8.565 C99.8672727,8.424 98.4624545,8.9265 98.1641818,9.9315 C97.9648182,10.6035 97.9555455,11.277 97.8829091,11.946 C97.801,12.7005 97.8875455,13.4655 97.9632727,14.2275 C98.0668182,15.282 98.4361818,16.308 99.7776364,16.536 C101.221091,16.782 102.428091,16.2435 102.743364,14.733 C102.894818,14.013 102.839182,13.2855 102.853091,12.6885 Z M9.42109091,14.481 C9.42109091,13.047 9.40718182,11.6145 9.42572727,10.1805 C9.45354545,8.088 10.71,6.6285 12.5815455,5.928 C13.9832727,5.4045 15.4437273,5.2785 16.9397273,5.262 C18.4759091,5.2455 19.9935455,5.2815 21.471,5.715 C23.0149091,6.168 24.3409091,6.906 25.024,8.4345 C25.3145455,9.0825 25.4783636,9.765 25.4845455,10.4595 C25.5077273,13.344 25.4876364,16.23 25.5030909,19.1145 C25.5046364,19.467 25.4505455,19.605 25.0379091,19.5975 C23.3765455,19.572 21.7151818,19.5735 20.0538182,19.596 C19.6705455,19.602 19.6118182,19.4745 19.6133636,19.1445 C19.6257273,16.332 19.6210909,13.518 19.6195455,10.7055 C19.6195455,9.7155 18.9766364,9.1035 17.9736364,8.9115 C17.4821818,8.8185 17.0417273,8.9025 16.5858182,8.9475 C15.776,9.027 15.1871818,9.774 15.1871818,10.662 C15.1840909,13.4745 15.1763636,16.2885 15.1964545,19.101 C15.1995455,19.503 15.0990909,19.6035 14.6849091,19.596 C13.0791818,19.5705 11.4719091,19.575 9.86618182,19.593 C9.50763636,19.5975 9.40563636,19.509 9.41027273,19.155 C9.43345455,17.5995 9.42109091,16.0395 9.42109091,14.481 Z M44.6064545,13.7775 C44.9557273,15.2535 46.1055455,15.9225 47.4918182,16.146 C48.3464545,16.284 49.2103636,16.2915 50.0665455,16.239 C51.0757273,16.1775 52.0926364,16.161 53.0894545,15.939 C53.3892727,15.873 53.6906364,15.843 53.6597273,16.3545 C53.6071818,17.193 53.6442727,18.0375 53.6473636,18.8805 C53.6473636,19.0995 53.6550909,19.212 53.329,19.2825 C51.0571818,19.7745 48.7498182,19.776 46.4579091,19.6665 C44.4240909,19.5705 42.4443636,19.095 40.8030909,17.811 C39.7490909,16.9845 39.0969091,15.876 38.8017273,14.595 C38.352,12.645 38.4431818,10.7055 39.2823636,8.8755 C39.9778182,7.3575 41.2296364,6.363 42.8600909,5.8095 C44.387,5.2905 45.9649091,5.1 47.5582727,5.1885 C49.1500909,5.2785 50.7388182,5.5215 52.0849091,6.4635 C53.4464545,7.416 54.213,8.718 54.4309091,10.341 C54.5669091,11.3505 54.5607273,12.3465 54.4432727,13.356 C54.4015455,13.7115 54.3134545,13.7835 53.9719091,13.782 C50.9814545,13.77 47.991,13.7745 45.0005455,13.7745 C44.8660909,13.7775 44.7378182,13.7775 44.6064545,13.7775 Z M44.3978182,11.196 L48.433,11.196 C49.2907273,11.196 49.3154545,11.193 49.2041818,10.374 C49.1083636,9.6615 48.8100909,9.033 48.0636364,8.754 C47.4361818,8.52 46.7685455,8.562 46.121,8.6625 C45.2740909,8.796 44.8552727,9.345 44.6528182,10.131 C44.5631818,10.473 44.6389091,10.8345 44.3978182,11.196 Z M121.806545,9.222 C120.258,8.784 118.738818,8.3535 117.128455,8.394 C116.695727,8.4045 116.307818,8.547 115.974,8.766 C115.406818,9.1365 115.519636,9.8655 116.156364,10.23 C116.816273,10.6065 117.567364,10.692 118.287545,10.8735 C119.423455,11.16 120.588727,11.37 121.568545,12.0585 C122.560727,12.7545 123.129455,13.6485 123.151091,14.8905 C123.174273,16.2105 122.825,17.352 121.800364,18.243 C120.992091,18.9465 119.981364,19.251 118.945909,19.479 C118.236545,19.635 117.505545,19.6305 116.793091,19.7205 C115.817909,19.8435 114.865909,19.704 113.906182,19.6845 C112.915545,19.6635 111.943455,19.4505 110.972909,19.2645 C110.690091,19.2105 110.721,19.0035 110.721,18.807 C110.721,17.8395 110.721,16.872 110.721,15.861 C111.796636,16.164 112.867636,16.4295 113.961818,16.518 C114.969455,16.599 115.995636,16.821 116.990909,16.374 C117.400455,16.1895 117.700273,15.9825 117.708,15.498 C117.715727,15 117.371091,14.802 116.983182,14.634 C116.343364,14.3565 115.651,14.262 114.977182,14.1015 C113.461091,13.74 111.911,13.446 110.823,12.207 C110.105909,11.3895 109.854,10.4265 109.994636,9.378 C110.289818,7.1835 111.835273,6.132 113.847455,5.622 C115.315636,5.25 116.813182,5.0805 118.358636,5.2545 C119.401818,5.3715 120.415636,5.5455 121.423273,5.8125 C121.724636,5.892 121.817364,6.027 121.812727,6.324 C121.794182,7.272 121.806545,8.2215 121.806545,9.222 Z M124.798545,9.7935 C124.798545,7.2555 124.806273,5.196 124.790818,3.135 C124.787727,2.796 124.863455,2.6835 125.237455,2.688 C126.973,2.709 128.707,2.706 130.442545,2.6895 C130.788727,2.6865 130.918545,2.7525 130.904636,3.12 C130.873727,3.9795 130.910818,4.8405 130.887636,5.7 C130.878364,6.036 130.951,6.1605 131.331182,6.15 C132.345,6.1215 133.361909,6.15 134.375727,6.1335 C134.675545,6.129 134.793,6.189 134.782182,6.5085 C134.757455,7.224 134.749727,7.9425 134.783727,8.658 C134.800727,9.024 134.647727,9.0555 134.338636,9.051 C133.323273,9.0345 132.307909,9.0555 131.292545,9.039 C130.994273,9.0345 130.883,9.0945 130.886091,9.4125 C130.901545,11.3655 130.889182,13.3185 130.896909,15.2715 C130.898455,15.879 131.518182,16.4355 132.369727,16.5675 C133.082182,16.677 133.797727,16.7955 134.524091,16.5885 C134.837818,16.4985 134.870273,16.8075 134.874909,16.992 C134.893455,17.6985 134.995455,18.393 135.103636,19.089 C135.151545,19.398 135.123727,19.5765 134.680182,19.6095 C133.062091,19.7265 131.457909,19.878 129.824364,19.7205 C128.717818,19.6125 127.648364,19.476 126.676273,18.939 C125.617636,18.354 125.045818,17.445 124.911364,16.278 C124.644,13.9605 124.894364,11.6355 124.798545,9.7935 Z M33.473,12.33 C33.473,13.155 33.507,13.9815 33.4652727,14.8035 C33.3957273,16.1535 34.0077273,16.32 34.9365455,16.554 C35.6289091,16.728 36.3660909,16.812 37.0893636,16.584 C37.2578182,16.5315 37.3412727,16.6005 37.3598182,16.8 C37.4123636,17.358 37.5035455,17.9115 37.5715455,18.468 C37.587,18.591 37.5607273,18.72 37.5761818,18.8445 C37.6689091,19.6185 37.6472727,19.6755 36.8436364,19.6875 C35.5763636,19.707 34.3121818,19.9095 33.0464545,19.7925 C31.6972727,19.668 30.3202727,19.638 29.1179091,18.8715 C27.9371818,18.1185 27.4070909,17.0115 27.3931818,15.7185 C27.3499091,11.5245 27.3808182,7.329 27.37,3.1335 C27.3684545,2.793 27.4441818,2.6835 27.8166364,2.688 C29.5707273,2.709 31.3263636,2.7045 33.0804545,2.691 C33.388,2.688 33.4884545,2.7615 33.4807273,3.072 C33.4590909,3.9675 33.4853636,4.8645 33.4652727,5.7615 C33.4590909,6.063 33.5440909,6.1545 33.8593636,6.1485 C34.8932727,6.129 35.9287273,6.153 36.9626364,6.1335 C37.2763636,6.1275 37.3690909,6.2145 37.3582727,6.519 C37.3350909,7.236 37.3350909,7.953 37.3582727,8.67 C37.3675455,8.9775 37.2701818,9.0585 36.9595455,9.0525 C35.9256364,9.0345 34.8901818,9.0585 33.8562727,9.0375 C33.5363636,9.0315 33.4575455,9.1275 33.4637273,9.426 C33.4838182,10.3935 33.473,11.3625 33.473,12.33 Z M55.9717273,10.713 C55.9717273,7.917 55.981,5.1195 55.9609091,2.3235 C55.9578182,1.923 56.0536364,1.821 56.4709091,1.827 C58.3733636,1.851 60.2758182,1.848 62.1782727,1.8285 C62.5399091,1.8255 62.6310909,1.9185 62.6310909,2.268 C62.6187273,7.896 62.6187273,13.5255 62.6310909,19.1535 C62.6310909,19.503 62.543,19.5975 62.1798182,19.5945 C60.2588182,19.5765 58.3378182,19.5765 56.4183636,19.5945 C56.0567273,19.5975 55.964,19.506 55.9655455,19.155 C55.9779091,16.341 55.9717273,13.527 55.9717273,10.713 Z M0.888636364,12.756 C0.888636364,10.623 0.897909091,8.49 0.879363636,6.357 C0.876272727,6.0075 0.969,5.913 1.33218182,5.916 C3.25318182,5.934 5.17418182,5.934 7.09363636,5.916 C7.45527273,5.913 7.54645455,6.006 7.54645455,6.3555 C7.53409091,10.6215 7.53409091,14.8875 7.54645455,19.1535 C7.548,19.503 7.45681818,19.5975 7.09363636,19.5945 C5.17263636,19.5765 3.25163636,19.5765 1.33218182,19.5945 C0.970545455,19.5975 0.876272727,19.5045 0.879363636,19.155 C0.896363636,17.022 0.888636364,14.889 0.888636364,12.756 Z M71.3783636,12.81 C71.3783636,14.925 71.3690909,17.0415 71.3876364,19.1565 C71.3907273,19.509 71.2949091,19.599 70.9332727,19.596 C69.0493636,19.578 67.1654545,19.578 65.2815455,19.596 C64.9199091,19.599 64.8271818,19.5075 64.8287273,19.1565 C64.8410909,14.8905 64.8410909,10.623 64.8287273,6.357 C64.8271818,6.0045 64.9214545,5.9145 65.2830909,5.9175 C67.167,5.9355 69.0509091,5.9355 70.9348182,5.9175 C71.2964545,5.9145 71.3907273,6.006 71.3876364,6.357 C71.3690909,8.508 71.3783636,10.659 71.3783636,12.81 Z M68.0710909,0.6555 C69.1451818,0.603 70.0121818,0.9 70.7400909,1.59 C71.5885455,2.394 71.4216364,3.414 70.6334545,4.0845 C69.1946364,5.3085 66.7914545,5.247 65.5303636,3.957 C64.6092727,3.015 64.8812727,1.9845 65.8131818,1.3095 C66.4885455,0.822 67.269,0.5565 68.0710909,0.6555 Z M4.20518182,0.6555 C5.33027273,0.603 6.29772727,0.8865 6.96381818,1.704 C7.81227273,2.7435 7.39345455,3.657 6.49245455,4.2645 C5.015,5.259 3.19136364,5.256 1.75718182,4.0935 C0.808272727,3.324 0.746454545,2.1495 2.06781818,1.206 C2.71381818,0.7455 3.46954545,0.6 4.20518182,0.6555 Z" id="Combined-Shape" fill="#3C4042" fill-rule="nonzero"></path>
    </g>
</svg>