<?xml version="1.0" encoding="UTF-8"?>
<svg width="40px" height="40px" viewBox="0 0 40 40" version="1.1" xmlns="http://www.w3.org/2000/svg" xmlns:xlink="http://www.w3.org/1999/xlink">
    <!-- Generator: Sketch 52.4 (67378) - http://www.bohemiancoding.com/sketch -->
    <title>Artboard</title>
    <desc>Created with Sketch.</desc>
    <g id="Artboard" stroke="none" stroke-width="1" fill="none" fill-rule="evenodd">
        <path d="M6.67505828,0.02408128 L33.3249417,0.02408128 C35.1811279,0.02408128 36.7271247,0.687358468 38.0107806,1.96936438 C39.3373349,3.25137029 39.9989622,4.84191558 39.9989622,6.69810174 L39.9989622,33.3479852 C39.9989622,35.1596229 39.335685,36.7518181 38.0107806,38.0321741 C36.7287747,39.31418 35.1811279,39.9774572 33.3249417,39.9774572 L6.67505828,39.9774572 C4.81887212,39.9774572 3.22832682,39.31418 1.94632091,38.0321741 C0.664315004,36.7501682 0.00103781535,35.1596229 0.00103781535,33.3479852 L0.00103781535,6.6964518 C0.00103781535,4.84026564 0.664315004,3.24972034 1.94632091,1.96771443 C3.22832682,0.685708525 4.81887212,0.02408128 6.67505828,0.02408128 Z" id="Path" fill="#124C89"></path>
        <path d="M3.31577381,19.9982943 L3.31577381,33.3446853 L6.45396588,33.3446853 L6.45396588,19.9982943 L3.31577381,19.9982943 Z M18.343457,30.2955902 C18.343457,29.1026812 19.5363659,28.5713995 21.8792854,28.6159479 L21.8792854,29.6768614 L21.8347369,30.2510417 C21.7027414,30.648678 21.4371006,30.9588674 21.0823628,31.1783098 C20.7292749,31.4868492 20.2870901,31.6204946 19.8003569,31.6204946 C18.8285403,31.6221445 18.343457,31.1799597 18.343457,30.2955902 Z M14.2317984,23.3575788 L12.3310638,23.3575788 L12.3310638,19.9982943 L9.32651709,19.9982943 L9.32651709,23.3575788 L7.91251572,23.3575788 L7.91251572,25.6559497 L9.32651709,25.6559497 L9.32651709,29.6785114 C9.32651709,31.0496142 9.59215795,32.0643293 10.1663382,32.6401595 C10.7405185,33.2588883 11.5803396,33.5674276 12.5967046,33.5674276 C13.2599818,33.5674276 13.7896136,33.4783307 14.2763469,33.3017868 L14.2317984,30.9588674 C14.1427014,31.0479643 13.9661575,31.0908628 13.6576181,31.0908628 C13.1725348,31.0908628 12.817797,30.9143189 12.5967046,30.5595811 C12.4201607,30.2939402 12.3310638,29.8517554 12.3310638,29.1901282 L12.3310638,25.6542998 L14.2317984,25.6542998 L14.2317984,23.3575788 Z M21.7901884,26.6723148 C19.7574583,26.6723148 18.2098116,26.9808542 17.1488981,27.6441314 C16.0434361,28.3074085 15.4692558,29.2792251 15.4692558,30.561231 C15.4692558,31.3565037 15.7794452,32.0643293 16.3536254,32.6385096 C17.0169026,33.2572383 17.8567237,33.5657777 18.8730888,33.5657777 C20.2425417,33.5657777 21.2589067,33.1235929 21.9667324,32.2837718 L22.0558293,32.2837718 L22.0558293,33.3446853 L24.883832,33.3446853 L24.883832,27.4659375 C24.883832,26.1393831 24.5307442,25.1230181 23.867467,24.3722939 C23.0721943,23.5324728 21.8792854,23.090288 20.2870901,23.090288 C18.6519964,23.090288 17.2808935,23.3988274 16.2216299,24.0621046 L16.7958102,26.0073876 C17.6801798,25.4777559 18.6519964,25.212115 19.7574583,25.212115 C21.1269112,25.212115 21.7901884,25.6542998 21.7901884,26.5815679 L21.7901884,26.6723148 Z M29.7445649,23.3575788 L26.6509213,23.3575788 L26.6509213,29.1472297 C26.6509213,30.6948764 27.0485576,31.8432369 27.8009317,32.5939611 C28.4642089,33.2572383 29.3485785,33.5657777 30.4523905,33.5657777 C32.0000373,33.5657777 33.1483978,32.947049 33.8562234,31.75414 L33.9007719,31.75414 L33.9007719,33.3446853 L36.6413277,33.3446853 L36.6413277,23.3559288 L33.5476841,23.3559288 L33.5476841,29.1901282 C33.5476841,29.455769 33.5031356,29.6768614 33.4602371,29.8088569 C33.1071492,30.648678 32.4884205,31.0908628 31.5595024,31.0908628 C30.3665935,31.0908628 29.7478647,30.2510417 29.7478647,28.6159479 L29.7445649,23.3575788 Z M30.5398375,22.6943016 L32.706213,22.6943016 L35.3576718,19.9982943 L32.4405721,19.9982943 L30.5398375,22.6943016 Z" id="Shape" fill="#FFF22D" fill-rule="nonzero"></path>
    </g>
</svg>