<svg width="94" height="37" viewBox="0 0 94 37" fill="none" xmlns="http://www.w3.org/2000/svg">
<path d="M37.1716 4.87588H39.2441C39.8063 4.87588 40.2668 5.33425 40.2668 5.89492V7.9597C40.2668 8.52038 39.8063 8.97874 39.2441 8.97874H37.1716C36.6092 8.97874 36.1492 8.52038 36.1492 7.9597V5.89492C36.1492 5.33425 36.6092 4.87588 37.1716 4.87588ZM40.2668 10.5111V27.144H38.8942C37.3845 27.144 36.1492 25.9133 36.1492 24.4089V13.2462C36.1492 11.742 37.3845 10.5111 38.8942 10.5111H40.2668ZM47.4718 10.5111V20.4648C47.4718 22.231 48.9087 23.6626 50.681 23.6626C52.4532 23.6626 53.8897 22.231 53.8897 20.4648V13.2462C53.8897 11.742 55.1253 10.5111 56.6349 10.5111H58.007V20.4648C58.007 24.4966 54.7272 27.7654 50.681 27.7654C46.6348 27.7654 43.3546 24.4966 43.3546 20.4648V13.2462C43.3546 11.742 44.5899 10.5111 46.0995 10.5111H47.4718ZM71.6929 25.1793V24.7776C70.8721 25.586 69.6907 26.1683 67.8887 26.1683C63.1828 26.1683 60.4712 22.5364 60.4712 18.0788C60.4712 13.577 63.8236 9.88968 68.4021 9.88968C73.1652 9.88968 75.8102 13.5763 75.8102 18.0357C75.8102 18.1775 75.8069 18.3187 75.8003 18.4588H75.8102V25.1448C75.8102 29.9481 72.5373 32.7795 67.8457 32.7795C64.6866 32.7795 61.8314 31.7025 61.8314 29.1332V27.7654C63.4635 28.6945 65.0295 29.0178 66.5278 29.1267C68.6974 29.2844 71.6929 28.9377 71.6929 25.1793ZM68.4021 13.9925C66.2832 13.9925 64.589 15.6471 64.589 18.0788C64.589 20.5104 65.7067 22.0655 67.8887 22.0655C70.2108 22.0655 71.6929 20.2902 71.6929 18.0357C71.6929 15.7811 70.7621 13.9925 68.4021 13.9925ZM83.0158 10.5111V20.4648C83.0158 22.231 84.4521 23.6626 86.2245 23.6626C87.9968 23.6626 89.4337 22.231 89.4337 20.4648V13.2462C89.4337 11.742 90.6687 10.5111 92.1783 10.5111H93.5509V20.4648C93.5509 24.4966 90.2707 27.7654 86.2245 27.7654C82.1783 27.7654 78.8985 24.4966 78.8985 20.4648V13.2462C78.8985 11.742 80.1335 10.5111 81.6432 10.5111H83.0158ZM13.5698 15.5575H16.4749C17.2632 15.5575 17.9082 16.1992 17.9082 16.9837V19.8746C17.9082 20.6594 17.2632 21.3011 16.4749 21.3011H13.5698C12.7815 21.3011 12.1367 20.6594 12.1367 19.8746V16.9837C12.1367 16.1992 12.7815 15.5575 13.5698 15.5575ZM3.44175 15.1649C5.73254 14.8862 7.30207 15.7067 7.61151 18.1523C7.90977 20.5029 8.802 22.4442 10.2717 23.7647C11.7914 25.1315 14.0149 25.9168 16.9489 25.9039C19.1313 25.8935 21.1126 26.337 22.8694 27.1291C24.7623 27.9827 26.3949 29.2365 27.7373 30.7621L29.1028 32.3142C30.0852 33.43 29.9714 35.1257 28.8495 36.1016C27.7269 37.0776 26.0222 36.9646 25.0398 35.8498L23.674 34.2964C22.8328 33.3412 21.8184 32.5592 20.6472 32.0323C19.5537 31.5385 18.3234 31.2624 16.9708 31.2688C12.6067 31.2885 9.15742 29.9932 6.65246 27.7407C4.38149 25.7001 2.95346 22.9387 2.37701 19.7108C2.22077 18.8378 2.11432 17.5898 2.09425 16.7018C2.07088 15.5929 2.47482 15.2822 3.44175 15.1649ZM26.6022 21.6937C24.3124 21.9724 22.7429 21.1517 22.4332 18.7055C22.1352 16.3557 21.2427 14.4139 19.773 13.0931C18.253 11.7271 16.029 10.9421 13.095 10.9547C10.9134 10.964 8.93207 10.5216 7.17454 9.72947C5.28159 8.87515 3.64982 7.62135 2.30766 6.09652L0.94111 4.54413C-0.0405483 3.42838 0.073013 1.73289 1.19516 0.756955C2.31706 -0.219989 4.02276 -0.106215 5.00519 1.00878L6.37072 2.56117C7.21087 3.51738 8.22631 4.29914 9.39673 4.82629C10.4902 5.32007 11.7213 5.59515 13.0741 5.5901C17.438 5.57012 20.8865 6.86462 23.3922 9.1166C25.6629 11.1585 27.0905 13.9189 27.6679 17.1478C27.8239 18.0203 27.9306 19.2681 27.9494 20.1565C27.9738 21.2647 27.5688 21.5754 26.6022 21.6937Z" fill="#1A1919"/>
</svg>
