<svg width="144" height="34" viewBox="0 0 144 34" fill="none" xmlns="http://www.w3.org/2000/svg">
<path d="M1.74453 15.712L23.5752 1.25001C24.0405 0.979366 24.5692 0.836792 25.1075 0.836792C25.6458 0.836792 26.1745 0.979366 26.6398 1.25001L48.4705 15.712C48.7647 15.8547 49.0127 16.0773 49.1863 16.3544C49.3598 16.6314 49.4519 16.9518 49.4519 17.2787C49.4519 17.6056 49.3598 17.926 49.1863 18.203C49.0127 18.4801 48.7647 18.7027 48.4705 18.8454L45.5437 20.7737C43.3604 17.3245 40.3403 14.4834 36.7643 12.5148C33.1882 10.5461 29.1724 9.51374 25.0903 9.51374C21.0082 9.51374 16.9923 10.5461 13.4163 12.5148C9.84025 14.4834 6.82016 17.3245 4.63689 20.7737L1.71004 18.8454C1.42065 18.6968 1.17839 18.4704 1.0104 18.1918C0.842401 17.9132 0.755314 17.5934 0.758895 17.2681C0.762476 16.9427 0.856584 16.6249 1.03067 16.35C1.20476 16.0752 1.45195 15.8543 1.74453 15.712V15.712ZM25.0903 15.5399C22.0076 15.5468 18.9766 16.3334 16.2795 17.8265C13.5824 19.3195 11.3067 21.4705 9.6642 24.0793L14.6914 27.4193C15.7682 25.6333 17.2883 24.1558 19.1042 23.1302C20.9202 22.1046 22.9703 21.5656 25.0558 21.5656C27.1414 21.5656 29.1915 22.1046 31.0075 23.1302C32.8234 24.1558 34.3435 25.6333 35.4203 27.4193L40.4476 24.0793C38.8289 21.464 36.568 19.3064 33.8799 17.8117C31.1918 16.3169 28.166 15.5349 25.0903 15.5399V15.5399ZM25.0903 27.626C24.0038 27.6332 22.9384 27.9266 22.0014 28.4767C21.0644 29.0268 20.2889 29.8141 19.7531 30.7594L23.1276 32.9631C23.6766 33.4273 24.3715 33.6833 25.0903 33.6862C25.8103 33.6894 26.5072 33.4326 27.053 32.9631L30.4275 30.7594C29.8961 29.8103 29.1217 29.0198 28.1837 28.4691C27.2457 27.9184 26.178 27.6274 25.0903 27.626V27.626Z" fill="url(#paint0_linear)"/>
<path d="M63.0006 17.1931L68.4755 25.0439H64.619L60.4869 18.9491V25.0439H57.3535V9.47995H60.4869V15.678L64.4123 9.47995H68.0278L63.0006 17.1931ZM73.8815 9.51434H70.7481V25.0782H78.771V21.9452H73.8127L73.8815 9.51444V9.51434ZM88.0336 8.96338L94.576 25.0781H91.0638L90.4439 23.391H85.2789L84.6591 25.0782H81.1125L87.6546 8.96348L88.0336 8.96338ZM89.3074 20.4642L87.8959 16.4356L86.4496 20.4642H89.3074ZM98.9834 18.1571L95.7805 9.51434H92.2688L98.8113 25.6291H99.1214L105.664 9.51444H102.117L98.9834 18.1571ZM108.039 25.0781H111.173V9.51444H108.04L108.039 25.0781ZM123.603 9.51444L120.435 14.8861L117.267 9.51444H113.479L118.885 18.0538V25.0782H121.984V18.0538L127.425 9.51444H123.603ZM143.506 17.0209C143.506 18.6145 143.033 20.1723 142.148 21.4974C141.262 22.8224 140.004 23.8552 138.532 24.465C137.059 25.0749 135.439 25.2344 133.876 24.9235C132.313 24.6126 130.878 23.8452 129.751 22.7184C128.624 21.5915 127.857 20.1558 127.546 18.5928C127.235 17.0299 127.394 15.4098 128.004 13.9375C128.614 12.4652 129.647 11.2068 130.972 10.3214C132.297 9.43604 133.855 8.96348 135.448 8.96348C137.584 8.9662 139.632 9.81598 141.143 11.3264C142.653 12.8369 143.503 14.8848 143.506 17.0209V17.0209ZM140.476 17.0209C140.476 16.0266 140.181 15.0546 139.628 14.2279C139.076 13.4011 138.291 12.7567 137.372 12.3762C136.454 11.9957 135.443 11.8961 134.468 12.0901C133.492 12.2841 132.597 12.7629 131.893 13.4659C131.19 14.169 130.712 15.0648 130.518 16.04C130.324 17.0152 130.423 18.026 130.804 18.9447C131.184 19.8633 131.828 20.6484 132.655 21.2009C133.482 21.7533 134.454 22.0481 135.448 22.0481C136.109 22.0502 136.764 21.9216 137.375 21.6698C137.985 21.4179 138.541 21.0477 139.008 20.5804C139.475 20.1132 139.845 19.5581 140.097 18.9473C140.349 18.3364 140.478 17.6817 140.476 17.0209V17.0209Z" fill="#171A1D"/>
<defs>
<linearGradient id="paint0_linear" x1="25.1054" y1="33.6862" x2="25.1054" y2="0.836767" gradientUnits="userSpaceOnUse">
<stop stop-color="#EFC119"/>
<stop offset="0.3314" stop-color="#92C84E"/>
<stop offset="0.4859" stop-color="#71BF5B"/>
<stop offset="0.7506" stop-color="#15B158"/>
<stop offset="0.903" stop-color="#23AC69"/>
<stop offset="1" stop-color="#23AC69"/>
</linearGradient>
</defs>
</svg>
