<?xml version="1.0" encoding="UTF-8"?>
<svg width="86px" height="86px" viewBox="0 0 86 86" version="1.1" xmlns="http://www.w3.org/2000/svg" xmlns:xlink="http://www.w3.org/1999/xlink">
    <!-- Generator: Sketch 52.4 (67378) - http://www.bohemiancoding.com/sketch -->
    <title>Artboard Copy 3</title>
    <desc>Created with Sketch.</desc>
    <g id="Artboard-Copy-3" stroke="none" stroke-width="1" fill="none" fill-rule="evenodd">
        <path d="M14.4627421,8.12163424 L70.5926122,8.12163424 C74.4586055,8.12163424 77.5926122,11.255641 77.5926122,15.1216342 L77.5926122,71.2515044 C77.5926122,75.1174976 74.4586055,78.2515044 70.5926122,78.2515044 L14.4627421,78.2515044 C10.5967489,78.2515044 7.46274211,75.1174976 7.46274211,71.2515044 L7.46274211,15.1216342 C7.46274211,11.255641 10.5967489,8.12163424 14.4627421,8.12163424 Z" id="Rectangle" fill="#F4831F" transform="translate(42.527677, 43.186569) rotate(-14.000000) translate(-42.527677, -43.186569) "></path>
        <path d="M67.662657,72.8732625 C67.5640809,72.7746863 67.4655047,72.6761102 67.3669286,72.5775341 C65.5925584,70.7045878 63.1281553,69.9159788 59.8751433,70.0145549 L35.6254171,69.7188265 C29.119393,69.7188265 27.1478706,64.9871727 27.0492944,62.4241935 L25.2749242,44.1876108 L18.7689001,44.1876108 C17.6845628,44.1876108 16.7973777,43.3004257 16.7973777,42.2160883 C16.7973777,41.7232077 16.9945299,41.131751 17.3888344,40.8360226 L40.6527994,18.3606666 C41.3428322,17.6706338 42.5257457,17.5720576 43.2157786,18.2620905 L67.7612331,39.8502614 C68.6484182,40.5402942 68.7469943,41.8217838 68.0569615,42.5118167 C67.662657,43.0046973 67.0712003,43.3004257 66.4797435,43.2018495 L61.3537851,43.2018495 L61.3537851,60.5512471 C61.3537851,61.6355845 60.4666,62.5227696 59.3822627,62.5227696 L46.3702145,62.4241935 L42.5257457,51.7779722 L38.5827008,57.6925396 L38.5827008,35.1186075 L38.5827008,35.0200314 L53.0733908,52.2708528 L46.2716384,50.792211 C46.2716384,50.792211 47.6517041,55.2281365 48.6374653,58.5797247 L57.7064686,58.5797247 L57.7064686,41.4274793 C57.7064686,40.343142 58.5936537,39.4559569 59.6779911,39.4559569 L61.6495135,39.4559569 L42.1314412,22.4022877 L23.5991302,40.4417181 L27.1478706,40.4417181 C28.1336318,40.4417181 29.0208169,41.2303271 29.119393,42.2160883 L31.0909155,62.2270412 C31.0909155,62.818498 31.48522,65.8743578 35.8225694,65.8743578 L59.9737194,66.07151 C64.4096449,65.8743578 67.8598092,67.1558473 70.3242123,69.9159788 C70.915669,70.5074355 71.4085497,71.1974684 71.8028541,71.8875012 L67.662657,72.8732625 Z" id="Combined-Shape" fill="#FFFFFF"></path>
    </g>
</svg>