<svg width="50" height="50" viewBox="0 0 50 50" fill="none" xmlns="http://www.w3.org/2000/svg">
<path fill-rule="evenodd" clip-rule="evenodd" d="M33.264 25.0723C33.0161 25.0687 32.8098 25.3073 32.8043 25.6061C32.7987 25.9043 32.9953 26.149 33.2432 26.1527C33.4911 26.1563 33.6974 25.9177 33.703 25.6195C33.7085 25.3212 33.512 25.0766 33.264 25.0723Z" fill="black"/>
<rect width="50" height="50" rx="10" fill="#FFE01B"/>
<path fill-rule="evenodd" clip-rule="evenodd" d="M32.663 24.3815C32.8861 24.3547 33.1 24.3541 33.2963 24.3815C33.41 24.1216 33.4295 23.6742 33.3275 23.1873C33.1752 22.463 32.9698 22.0247 32.545 22.0929C32.1201 22.1611 32.1042 22.6857 32.2564 23.41C32.342 23.8172 32.4942 24.166 32.6636 24.3815H32.663Z" fill="black"/>
<path fill-rule="evenodd" clip-rule="evenodd" d="M29.0141 25.0882C29.3186 25.2396 29.505 25.3403 29.5784 25.2528C29.6254 25.1979 29.6114 25.0938 29.5386 24.959C29.3889 24.6805 29.0795 24.3986 28.7525 24.2395C28.0825 23.9117 27.2835 24.0208 26.6673 24.5243C26.4637 24.6937 26.2712 24.9285 26.2987 25.0708C26.3079 25.1167 26.3378 25.1514 26.4093 25.1632C26.5768 25.1847 27.1631 24.8486 27.8386 24.8014C28.3154 24.768 28.7103 24.9375 29.0141 25.0889V25.0882Z" fill="black"/>
<path fill-rule="evenodd" clip-rule="evenodd" d="M28.4023 25.3138C28.0062 25.3847 27.7879 25.5333 27.6473 25.6715C27.5275 25.7902 27.4535 25.9215 27.4541 26.0139L27.4847 26.0958L27.5501 26.1243C27.6394 26.1243 27.8399 26.0333 27.8399 26.0333C28.3913 25.809 28.755 25.8361 29.1151 25.8826C29.3144 25.9083 29.4085 25.9222 29.4519 25.8444C29.4647 25.8222 29.4806 25.7743 29.4409 25.7007C29.348 25.5298 28.9482 25.2409 28.4029 25.3145L28.4023 25.3138Z" fill="black"/>
<path fill-rule="evenodd" clip-rule="evenodd" d="M31.4311 26.5768C31.7001 26.7083 31.996 26.6566 32.0926 26.4612C32.1892 26.2658 32.0492 26.001 31.7802 25.8696C31.5112 25.7381 31.2153 25.7898 31.1188 25.9852C31.0222 26.1806 31.1622 26.4454 31.4311 26.5768Z" fill="black"/>
<path fill-rule="evenodd" clip-rule="evenodd" d="M18.4843 30.4525C18.4299 30.3849 18.3406 30.4056 18.2544 30.4251C18.1939 30.4391 18.1254 30.4549 18.0509 30.4537C17.8901 30.4506 17.7538 30.3825 17.6773 30.2656C17.5777 30.1134 17.5838 29.8864 17.6932 29.6265L17.7446 29.5103C17.92 29.1189 18.2129 28.4634 17.884 27.8395C17.6364 27.3696 17.2317 27.0768 16.7457 27.0154C16.2793 26.9563 15.7988 27.1286 15.4925 27.4652C15.009 27.9959 14.9338 28.7184 15.0273 28.974C15.0615 29.0678 15.1153 29.0933 15.1539 29.0988C15.2364 29.1098 15.3574 29.0501 15.4338 28.8462L15.4558 28.7799C15.4901 28.6721 15.553 28.4713 15.6564 28.31C15.7811 28.1158 15.9755 27.9819 16.2041 27.9332C16.4364 27.8839 16.6742 27.9277 16.8729 28.0574C17.2115 28.2783 17.3417 28.691 17.1975 29.0854C17.1229 29.2893 17.0012 29.6789 17.0281 29.999C17.0825 30.6472 17.483 30.9077 17.8424 30.9351C18.1921 30.9485 18.4366 30.7525 18.4983 30.6095C18.535 30.5249 18.5038 30.4738 18.4843 30.4512V30.4525Z" fill="black"/>
<path fill-rule="evenodd" clip-rule="evenodd" d="M38.6734 29.2672L38.6643 29.2348L38.6643 29.2347L38.6642 29.2345C38.6362 29.1347 38.5573 28.8536 38.454 28.524L38.2113 27.8758C38.6893 27.163 38.6979 26.5258 38.6343 26.1648C38.5665 25.7175 38.3794 25.3358 38.0022 24.942C37.625 24.5476 36.8542 24.1441 35.7703 23.8416L35.2018 23.6845C35.2008 23.677 35.1973 23.5332 35.1922 23.3231L35.1921 23.3224L35.1921 23.3221L35.1921 23.3219C35.1815 22.886 35.1639 22.1663 35.1474 21.7867C35.1297 21.3795 35.0942 20.7447 34.8961 20.1184C34.6602 19.2711 34.2494 18.5304 33.7359 18.0562C35.1523 16.5948 36.0362 14.9843 36.0338 13.6033C36.0295 10.9471 32.7535 10.143 28.7158 11.8077L27.8606 12.1693C27.8569 12.1656 26.3139 10.6586 26.2907 10.6385C21.6875 6.6408 7.29418 22.5695 11.8961 26.4381L12.9017 27.2866C12.6407 27.9592 12.5386 28.7303 12.6224 29.5593C12.73 30.6239 13.2814 31.6446 14.1757 32.4334C15.0242 33.1821 16.1405 33.6562 17.2231 33.655C19.0136 37.7641 23.1052 40.2846 27.9027 40.4264C33.0488 40.5785 37.3689 38.1743 39.179 33.8553C39.2976 33.5522 39.8001 32.1863 39.8001 30.9806C39.8001 29.7687 39.1124 29.2666 38.6741 29.2666L38.6734 29.2672ZM17.6187 32.5015C17.4622 32.5283 17.3026 32.5387 17.1419 32.535C15.5873 32.4936 13.9086 31.1004 13.7417 29.4479C13.5571 27.6219 14.4943 26.2159 16.154 25.883C16.352 25.8434 16.5923 25.8203 16.8509 25.8336C17.7807 25.8842 19.1506 26.5951 19.4636 28.6116C19.7405 30.3974 19.3004 32.2161 17.6187 32.5015ZM13.3829 26.3773C13.9398 25.572 14.85 24.9895 15.8831 24.7893C17.1981 21.2749 19.3939 18.0368 22.3001 15.8085C24.4568 14.0172 26.7828 12.7323 26.7828 12.7323C26.7828 12.7323 25.5302 11.2861 25.1518 11.1796C22.8246 10.5539 17.7984 14.005 14.589 18.5651C13.2905 20.41 11.4315 23.6773 12.3204 25.3578C12.4298 25.5659 13.0503 26.101 13.3829 26.3773ZM32.1979 31.8181C32.2315 31.8041 32.2547 31.7652 32.2511 31.7275C32.2462 31.6806 32.204 31.6465 32.1569 31.6514C32.1569 31.6514 29.7221 32.0105 27.4217 31.1717C27.6231 30.5201 28.0932 30.5814 28.7927 30.6725C28.9634 30.6948 29.1479 30.7188 29.3455 30.7347C31.1605 30.8425 32.7872 30.5783 33.989 30.235C35.0307 29.9374 36.3988 29.3506 37.4619 28.5155C37.8201 29.2995 37.9467 30.162 37.9467 30.162C37.9467 30.162 38.2242 30.1127 38.4559 30.2545C38.6747 30.389 38.8355 30.6678 38.7261 31.3896C38.5023 32.7378 37.9271 33.8316 36.96 34.8383C36.3713 35.4695 35.6567 36.0179 34.8387 36.4166C34.4047 36.6436 33.9419 36.8402 33.4535 36.9991C29.8076 38.1847 26.075 36.881 24.8719 34.0818C24.7759 33.8712 24.6946 33.6508 24.6304 33.4207C24.1176 31.5759 24.5528 29.3628 25.9136 27.9696V27.969C25.9973 27.8801 26.0829 27.776 26.0829 27.6446C26.0829 27.5344 26.0126 27.4187 25.9521 27.3366C25.8577 27.2004 25.7174 27.0452 25.5555 26.8663L25.5555 26.8663C24.9003 26.1421 23.8928 25.0285 24.1585 23.2105C24.3963 21.5817 25.8268 20.435 27.1607 20.5031L27.4987 20.5226C27.7755 20.5389 28.0354 20.5643 28.2835 20.5886C28.5532 20.615 28.8089 20.64 29.057 20.6504C29.8535 20.6845 30.5693 20.5695 31.4172 19.8659L31.4635 19.8274C31.7288 19.6065 31.9537 19.4192 32.3207 19.357C32.3283 19.3558 32.3378 19.3536 32.3496 19.3508C32.4023 19.3385 32.5003 19.3156 32.6655 19.3235C32.8728 19.3345 33.0696 19.3911 33.2469 19.5086C33.9267 19.959 34.0233 21.0503 34.0587 21.8483C34.0789 22.3042 34.1339 23.4064 34.1529 23.7223C34.1963 24.446 34.387 24.5477 34.7733 24.6749C34.9426 24.7303 35.1023 24.7746 35.3048 24.8309L35.3048 24.8309C35.3626 24.8469 35.4239 24.8639 35.4898 24.8824C36.3896 25.1338 36.9233 25.3895 37.2602 25.7169C37.4607 25.922 37.5542 26.1393 37.5829 26.3475C37.6893 27.1187 36.982 28.0706 35.1096 28.9361C33.0629 29.882 30.5803 30.1212 28.865 29.9313L28.2641 29.8637C26.8917 29.6799 26.1092 31.4456 26.9326 32.6551C27.4633 33.4347 28.909 33.9418 30.3554 33.9424C33.6717 33.943 36.2209 32.5327 37.1691 31.3148L37.2449 31.207C37.2913 31.137 37.2528 31.0987 37.1947 31.1383C36.4202 31.666 32.9791 33.7616 29.2984 33.131C29.2984 33.131 28.8509 33.058 28.4432 32.8997C28.1186 32.7743 27.44 32.4633 27.3575 31.7694C30.3279 32.6843 32.1979 31.8194 32.1979 31.8194V31.8181ZM25.614 15.4511C24.356 16.092 22.9512 17.2333 21.8105 18.5461V18.5455C21.7701 18.5924 21.83 18.6575 21.8795 18.6216C22.865 17.9077 24.216 17.2442 25.9857 16.8145C27.9682 16.3331 29.8767 16.5351 31.0425 16.8011C31.1012 16.8145 31.1379 16.7141 31.0859 16.6849C30.3156 16.2545 29.1334 15.9624 28.2946 15.9563C28.2537 15.9557 28.2305 15.9082 28.2549 15.8753C28.3998 15.6812 28.5985 15.4894 28.78 15.3507C28.8204 15.319 28.7959 15.2539 28.7446 15.2569C27.5501 15.33 26.1881 15.8991 25.4056 16.4304C25.3671 16.4566 25.3169 16.4225 25.3267 16.3769C25.3879 16.0847 25.5804 15.6988 25.6801 15.5187C25.7039 15.4761 25.6574 15.4292 25.614 15.4511Z" fill="black"/>
</svg>
