<?xml version="1.0" encoding="UTF-8"?>
<svg width="164px" height="44px" viewBox="0 0 164 44" version="1.1" xmlns="http://www.w3.org/2000/svg" xmlns:xlink="http://www.w3.org/1999/xlink">
    <!-- Generator: Sketch 52.4 (67378) - http://www.bohemiancoding.com/sketch -->
    <title>Combined Shape</title>
    <desc>Created with Sketch.</desc>
    <g id="Page-1" stroke="none" stroke-width="1" fill="none" fill-rule="evenodd">
        <path d="M31.3555632,20.8695624 L31.3564434,20.8695624 C31.1126246,20.5593183 30.8934517,20.0571436 30.770222,19.4708348 C30.5510491,18.4279239 30.5739346,17.6724708 31.1856822,17.5743144 C31.7974298,17.4761581 32.0931811,18.107163 32.312354,19.150074 C32.4593495,19.8511906 32.4311827,20.4953414 32.2674632,20.8695624 C31.984915,20.8301246 31.6768407,20.831001 31.3555632,20.8695624 Z M26.1015755,21.8890623 L26.1015755,21.8900623 C25.66411,21.6720623 25.0954928,21.4280623 24.4089271,21.4760623 C23.4362925,21.5440623 22.5921688,22.0280623 22.3509906,21.9970623 C22.2480058,21.9800623 22.2048754,21.9300623 22.1916722,21.8640623 C22.1520626,21.6590623 22.4293295,21.3210623 22.7224402,21.0770623 C23.6096943,20.3520623 24.7601319,20.1950623 25.7248446,20.6670623 C26.1957583,20.8960623 26.6411457,21.3020623 26.8567978,21.7030623 C26.961543,21.8970623 26.9817879,22.0470623 26.9140116,22.1260623 C26.8083861,22.2520623 26.5399213,22.1070623 26.1015755,21.8890623 Z M25.220483,22.2128537 L25.2213632,22.2138537 C26.0065126,22.1078537 26.5821715,22.5238537 26.7159638,22.7698537 C26.7731776,22.8758537 26.7502921,22.9448537 26.7318076,22.9768537 C26.6693125,23.0888537 26.5337598,23.0688537 26.2468106,23.0318537 C25.7283655,22.9648537 25.2046391,22.9258537 24.4106876,23.2488537 C24.4106876,23.2488537 24.1219779,23.3798537 23.9934669,23.3798537 L23.8992842,23.3388537 L23.8552736,23.2208537 C23.8543934,23.0878537 23.9608991,22.8988537 24.1334207,22.7278537 C24.3358695,22.5288537 24.6501053,22.3148537 25.220483,22.2128537 Z M29.5819353,24.0324746 C29.1946418,23.8431731 28.9930732,23.461941 29.1321467,23.1806179 C29.2712203,22.8992949 29.6972431,22.8248013 30.0845365,23.0141027 C30.47183,23.2034042 30.6733986,23.5846364 30.534325,23.8659594 C30.3952515,24.1472824 29.9692287,24.2217761 29.5819353,24.0324746 Z M32.2209104,21.8669007 C32.5779104,21.8730355 32.8609104,22.2253466 32.8529104,22.6547805 C32.8449104,23.0842144 32.5479104,23.4277615 32.1909104,23.4225032 C31.8339104,23.4172448 31.5509104,23.0649337 31.5589104,22.6354998 C31.5669104,22.2051895 31.8639104,21.8616424 32.2209104,21.8669007 Z M10.9399174,29.6124862 L10.9399174,29.6107334 C10.9680842,29.6431601 11.0129751,29.7167773 10.9601623,29.8385963 C10.8712609,30.0445493 10.5191759,30.3267487 10.0156945,30.307468 C9.49812959,30.2680302 8.92159048,29.8929328 8.84325158,28.9595714 C8.80452224,28.4985872 8.9796845,27.937694 9.08707041,27.6441014 C9.29480053,27.076197 9.10731529,26.4820007 8.61967764,26.163869 C8.33360862,25.9771967 7.99120601,25.9140962 7.65672531,25.9850843 C7.32752588,26.0551959 7.04761835,26.248003 6.86805502,26.5275732 C6.71929913,26.7598181 6.62863726,27.0490287 6.57934536,27.2041507 L6.54765772,27.2996779 C6.43763117,27.5932704 6.26334912,27.6791572 6.14452045,27.6633821 C6.08906707,27.6554945 6.01160839,27.6186859 5.96231649,27.483721 C5.827644,27.1156348 5.93591012,26.075353 6.63215811,25.311136 C7.0731445,24.8264891 7.76499143,24.5784691 8.43659347,24.6634795 C9.1363623,24.7519955 9.71906289,25.1735418 10.0755489,25.8501193 C10.5491032,26.748425 10.1274814,27.6923032 9.87486048,28.2558256 L9.80092264,28.4232172 C9.64336463,28.7974382 9.6345625,29.1243338 9.77803712,29.3434327 C9.88806367,29.5117007 10.084351,29.609857 10.3158469,29.614239 C10.4232328,29.6159918 10.5218166,29.5932055 10.6089576,29.5730484 C10.7330675,29.5450037 10.8615785,29.5152063 10.9399174,29.6124862 Z M40.0098112,27.9052673 L40.0106914,27.9043909 C40.6418037,27.9043909 41.6320426,28.6274174 41.6320426,30.3723213 C41.6320426,32.1084613 40.908508,34.0750933 40.7377468,34.5115384 C38.131438,40.7304425 31.9109772,44.1922056 24.5013494,43.9731067 C17.5934428,43.7689065 11.7021814,40.1397517 9.12403933,34.2232042 C7.56518322,34.224957 5.95791543,33.5422447 4.73618066,32.4642779 C3.44842996,31.3284691 2.6544784,29.8587534 2.49956103,28.3259373 C2.37897193,27.1322863 2.5259674,26.0218929 2.90181808,25.0534756 L1.45386873,23.83178 C-5.17237,18.2614087 15.5522303,-4.67386848 22.1802294,1.08229956 C22.2136775,1.11122062 24.4353335,3.28117645 24.4406148,3.28643483 L25.6720319,2.76585576 C31.4858346,0.368913434 36.2028927,1.5266322 36.2090542,5.35122317 C36.212575,7.33976509 34.939788,9.65870819 32.9003359,11.7629343 C33.6397143,12.4456466 34.231217,13.5122202 34.570979,14.7321631 C34.8561678,15.6339743 34.9072201,16.548055 34.9327463,17.1343638 C34.9679547,17.9450298 35.0066841,19.8336626 35.0110852,19.8669657 L35.8296827,20.0930758 C37.3902992,20.5286445 38.500247,21.1096948 39.043338,21.6775993 C39.5864291,22.2446273 39.855774,22.7941274 39.9534776,23.4382783 C40.0450197,23.957981 40.0326967,24.8755673 39.3443707,25.9018267 L39.693815,26.8351881 C39.8654564,27.3829355 39.9904465,27.8377849 40.0098112,27.9052673 Z M9.69353673,32.5615579 C12.115001,32.1505283 12.7487539,29.5318578 12.3500177,26.9605127 C11.8993489,24.0570137 9.92679301,23.0333835 8.58798999,22.9606426 C8.21566016,22.9413619 7.8697367,22.9746649 7.58454789,23.0316307 C5.19477131,23.5110191 3.84540574,25.5354933 4.11122988,28.1646805 C4.35152785,30.5440949 6.76859102,32.5501647 9.00697108,32.6097596 C9.23846694,32.615018 9.46820237,32.6001193 9.69353673,32.5615579 Z M7.19461381,21.4585003 C9.08795062,16.3981914 12.2496735,11.7357661 16.4342031,8.5272813 C19.5395923,5.94804866 22.8888004,4.09797727 22.8888004,4.09797727 C22.8888004,4.09797727 21.0852452,2.01566101 20.5403938,1.86229176 C17.1894253,0.961356949 9.95231917,5.93052075 5.33120422,12.4964776 C3.46163315,15.152833 0.784907327,19.8573253 2.06473611,22.2770539 C2.22229413,22.5767813 3.11570969,23.3471331 3.59454521,23.7450168 C4.39641868,22.5855452 5.7070549,21.7468345 7.19461381,21.4585003 Z M30.6857216,31.5782418 L30.6857216,31.5799946 C30.6857216,31.5799946 27.9931519,32.825353 23.7162,31.5081302 C23.8350287,32.5072213 24.8120644,32.9550595 25.2794572,33.1355971 C25.8665588,33.3634599 26.5108743,33.4686274 26.5108743,33.4686274 C31.810633,34.3765734 36.7653484,31.3591429 37.8805775,30.5993078 C37.9641977,30.5423421 38.019651,30.597555 37.9527549,30.6983405 L37.8436086,30.8534626 C36.4783992,32.6071304 32.8079136,34.6377393 28.0327615,34.6368629 C25.950179,34.6359865 23.8684768,33.9059489 23.1044524,32.783286 C21.9188064,31.0418877 23.0454782,28.4994636 25.021555,28.7641351 L25.8868037,28.8614151 C28.3566796,29.1348505 31.9312221,28.790427 34.8781731,27.4285081 C37.5742636,26.1822733 38.5926693,24.8115904 38.4395123,23.701197 C38.3981424,23.4014697 38.2634699,23.0885964 37.9747602,22.793251 C37.4897632,22.3217501 36.7213378,21.9536639 35.4256652,21.5917125 C34.997882,21.4716463 34.7074119,21.3953998 34.3940563,21.2928615 C33.8377621,21.1096948 33.5631358,20.9633367 33.5006407,19.9213022 C33.4733541,19.4664528 33.394135,17.8793002 33.365088,17.2228798 C33.3140357,16.0739249 33.1749621,14.5025474 32.196166,13.8540146 C31.9409044,13.6848702 31.657476,13.6033654 31.359084,13.5875903 C31.0677337,13.5735679 30.9216185,13.6261517 30.8626443,13.635792 C30.3037094,13.7304428 29.9736298,14.0266645 29.5616904,14.3684589 C28.3408358,15.3815723 27.3101071,15.5472111 26.1631904,15.498133 C25.477505,15.4692119 24.7513298,15.363168 23.9195291,15.3140898 L23.4327716,15.2860452 C21.5121482,15.1878889 19.4524513,16.8390184 19.1100487,19.1842534 C18.6329736,22.4488275 21.0069063,24.1358893 21.6925918,25.1253401 C21.7797328,25.2436535 21.8809572,25.4101687 21.8809572,25.5687963 C21.8809572,25.7580978 21.7577275,25.9079615 21.6371384,26.0359152 L21.6371384,26.0367916 C19.6777857,28.0428615 19.0510744,31.2294363 19.7895726,33.8857918 C19.8819949,34.2170694 19.9990632,34.5343246 20.1372565,34.8375576 C21.8695145,38.8681015 27.2440912,40.7453412 32.4936778,39.0381223 C33.1969675,38.809383 33.8632882,38.5263072 34.488239,38.1994116 C35.6659632,37.6253724 36.6949314,36.8357398 37.5425759,35.9269175 C38.9350719,34.4773589 39.7633517,32.9024758 40.0855095,30.9612592 C40.2430675,29.9218539 40.0115716,29.5204647 39.6964556,29.3267812 C39.3628551,29.122581 38.9632387,29.1935691 38.9632387,29.1935691 C38.9632387,29.1935691 38.7810347,27.9517163 38.2652303,26.8229186 C36.734541,28.0253335 34.7646257,28.870179 33.2647438,29.2987365 C31.5342463,29.7930237 29.1920012,30.1733795 26.5786506,30.0182574 C25.1289409,29.9016968 24.1695094,29.4801505 23.8086223,30.6475096 C27.1208615,31.8551829 30.6267473,31.3381094 30.6267473,31.3381094 C30.6945237,31.3310982 30.7552583,31.3801764 30.7623,31.4476589 C30.7675813,31.5019954 30.7341332,31.5580847 30.6857216,31.5782418 Z M15.729153,12.4684329 L15.729153,12.4675565 C15.6710589,12.535039 15.7573198,12.6288133 15.828617,12.577106 C17.2475193,11.5490938 19.1927886,10.5938224 21.7410035,9.97508705 C24.5955322,9.28185803 27.3435552,9.57282141 29.0221202,9.95580634 C29.1066206,9.97508705 29.1594333,9.83048176 29.0846153,9.78841476 C27.9755477,9.16880298 26.2732169,8.74813303 25.0655656,8.73936907 C25.0065913,8.73849267 24.9731433,8.67013381 25.0083518,8.62280844 C25.2169621,8.3432382 25.5030311,8.06717354 25.7644542,7.86735532 C25.8225482,7.82178274 25.7873397,7.72800839 25.7134019,7.73239037 C23.9934669,7.83755786 22.0323537,8.65698787 20.9056819,9.42208134 C20.8502285,9.45976636 20.7780511,9.4106882 20.7921345,9.34495852 C20.8801558,8.92428857 21.1574227,8.36865367 21.3008973,8.10924054 C21.3352255,8.04789284 21.2683294,7.98041037 21.2058343,8.01196061 C19.3943573,8.93480532 17.3716292,10.5780473 15.729153,12.4684329 Z M158.58586,16.9126357 L158.58498,16.9108829 C161.755505,16.9108829 163.836327,19.3087016 163.836327,23.7651739 C163.836327,27.6966851 162.097908,30.6071954 158.643954,30.6071954 C157.029645,30.6071954 155.982192,29.5870707 155.417096,28.6326758 L155.417096,33.9339936 L150.640183,33.9339936 L150.640183,17.2132394 L154.139908,17.2132394 C154.139908,17.2132394 154.370523,18.1930498 154.06773,19.4760932 C153.914573,20.1281316 153.631145,20.6820137 153.972667,20.6820137 C154.208564,20.6820137 154.19272,20.4795663 154.515758,19.7898429 C155.005156,18.7460555 156.130068,16.9126357 158.58586,16.9126357 Z M157.274344,27.5038781 C158.610506,27.5038781 159.132472,26.3733276 159.132472,24.192855 C159.132472,22.0965164 158.565615,20.8827083 157.236495,20.8827083 C156.201365,20.8827083 155.373085,22.3208737 155.373085,24.192855 C155.373085,26.1209256 156.178479,27.5038781 157.274344,27.5038781 Z M63.6347112,16.9126357 L63.6355915,16.9108829 C66.8061164,16.9108829 68.0164084,19.1903882 68.0164084,22.6100843 L68.0164084,30.3153556 L63.306392,30.3153556 L63.306392,23.2121682 C63.306392,22.0281576 63.1136255,20.8792027 62.0292039,20.8792027 C61.0248816,20.8792027 60.5557284,22.6521513 60.5557284,23.7967241 L60.5557284,30.3188612 L55.7594512,30.3188612 L55.7594512,23.2121682 C55.7594512,21.6977564 55.5446793,20.8792027 54.4752213,20.8792027 C53.5492379,20.8792027 53.0087875,22.5110516 53.0087875,23.7967241 L53.0087875,30.3153556 L48.231875,30.3153556 L48.231875,17.2132394 L51.7315994,17.2132394 C51.7315994,17.2132394 51.962215,18.1930498 51.6594219,19.4760932 C51.506265,20.1281316 51.2228366,20.6820137 51.564359,20.6820137 C51.8002559,20.6820137 51.8011361,20.4874539 52.10745,19.7898429 C52.5554781,18.7697182 53.5008262,16.9126357 55.7083988,16.9126357 C57.8085856,16.9126357 58.7961838,18.1825331 59.1245031,19.3718021 C59.3736032,20.2753661 59.1553105,20.6828901 59.459864,20.6828901 C59.6763962,20.6828901 59.7503341,20.2140184 60.0170384,19.6206985 C60.4941135,18.5593832 61.5336443,16.9126357 63.6347112,16.9126357 Z M144.714594,16.9126357 L144.715474,16.9108829 C147.885999,16.9108829 149.096291,19.1903882 149.096291,22.6100843 L149.096291,30.3153556 L144.386274,30.3153556 L144.386274,23.2121682 C144.386274,22.0281576 144.193508,20.8792027 143.109086,20.8792027 C142.104764,20.8792027 141.635611,22.6521513 141.635611,23.7967241 L141.635611,30.3188612 L136.839333,30.3188612 L136.839333,23.2121682 C136.839333,21.6977564 136.624562,20.8792027 135.555104,20.8792027 C134.62912,20.8792027 134.08867,22.5110516 134.08867,23.7967241 L134.08867,30.3153556 L129.311757,30.3153556 L129.311757,17.2132394 L132.811482,17.2132394 C132.811482,17.2132394 133.042097,18.1930498 132.739304,19.4760932 C132.586147,20.1281316 132.302719,20.6820137 132.644241,20.6820137 C132.880138,20.6820137 132.881018,20.4874539 133.187332,19.7898429 C133.63536,18.7697182 134.580709,16.9126357 136.788281,16.9126357 C138.983531,16.9126357 139.854061,18.1886678 140.204385,19.3718021 C140.438522,20.1649402 140.235193,20.6828901 140.539746,20.6828901 C140.756279,20.6828901 140.830216,20.2140184 141.096921,19.6206985 C141.573996,18.5593832 142.613527,16.9126357 144.714594,16.9126357 Z M76.171576,16.9152649 L76.1724563,16.9152649 C80.5083824,16.9152649 81.9387275,19.8450558 81.9387275,23.8712178 L81.9387275,30.3197376 L78.3386589,30.3197376 C78.1722988,29.656306 78.1230069,28.8675498 78.1450122,27.8255153 C78.1573352,27.2304426 78.2453564,26.941232 77.9848135,26.941232 C77.7559583,26.941232 77.7093071,27.3443741 77.4549257,27.9420759 C77.0878771,28.8044493 75.8943091,30.6212177 73.178854,30.6212177 C71.3172048,30.6212177 69.108752,29.501184 69.108752,26.8211658 C69.108752,23.995666 71.0742662,22.2341105 74.9674455,22.2341105 C76.6196041,22.2341105 77.1609347,22.3769631 77.1609347,22.3769631 C77.2463153,21.5400051 77.0156997,20.53215 75.1382067,20.53215 C72.7862793,20.53215 69.8868597,22.1920436 69.8868597,22.1920436 L69.8868597,18.2543975 C69.8868597,18.2543975 72.5125332,16.9152649 76.171576,16.9152649 Z M75.0088155,27.2541053 C76.2243888,26.9754115 77.1882213,25.4671344 77.1882213,25.0245546 C77.1882213,25.0245546 76.5535882,24.9667124 75.8784653,24.9667124 C74.347776,24.9667124 73.2747971,25.3803712 73.2747971,26.4127654 C73.2747971,27.1664657 73.8662998,27.517024 75.0088155,27.2541053 Z M89.8069459,13.2475487 L94.5838584,13.2475487 L94.5838584,30.3197376 L89.8069459,30.3197376 L89.8069459,13.2475487 Z M99.8413669,23.7678031 L99.8404867,23.7686795 C99.8404867,24.9956335 100.671407,26.0534431 102.980204,26.0534431 C105.16049,26.0534431 106.757196,24.9500609 107.330214,24.6310529 L107.330214,28.9595714 C107.330214,28.9595714 105.518737,30.6212177 102.481124,30.6212177 C98.5914653,30.6212177 95.8557653,28.1042092 95.8557653,23.5644793 C95.8557653,19.0247494 98.8704927,16.9152649 102.490806,16.9152649 C105.925395,16.9152649 107.322292,18.2543975 107.322292,18.2543975 L107.322292,22.8116553 C106.925316,22.5723993 105.156969,21.5180952 102.958199,21.5180952 C100.940752,21.5180952 99.8413669,22.5899272 99.8413669,23.7678031 Z M116.999347,16.9152649 L116.999347,16.9170176 C120.808026,16.9170176 121.367841,20.0220877 121.367841,23.3856945 L121.367841,30.320614 L116.590928,30.320614 L116.590928,23.0999895 C116.590928,21.6188807 116.278453,20.8835847 115.282052,20.8835847 C114.077922,20.8835847 113.652779,22.7389145 113.652779,23.8011061 L113.652779,30.3197376 L108.875867,30.3197376 L108.875867,13.2475487 L112.999662,13.2475487 C112.999662,13.2475487 113.19859,13.7365775 113.19859,15.1984056 C113.19859,17.3543391 112.727676,19.1071306 112.504982,19.7758205 C112.387034,20.129008 112.176663,20.6758789 112.478576,20.6855193 C112.651978,20.6907777 112.757603,20.4304881 112.969734,19.9773915 C113.181866,19.5242949 114.233719,16.9152649 116.999347,16.9152649 Z M122.920535,17.2316437 C122.920535,17.2316437 123.732971,17.699639 125.313833,17.699639 C126.894694,17.699639 127.697448,17.2316437 127.697448,17.2316437 L127.697448,30.3188612 L122.920535,30.3188612 L122.920535,17.2316437 Z M128.219414,15.0152389 C128.219414,16.0646352 126.910538,16.9152649 125.295348,16.9152649 C123.680159,16.9152649 122.371283,16.0646352 122.371283,15.0152389 C122.371283,13.9658427 123.680159,13.115213 125.295348,13.115213 C126.910538,13.115213 128.219414,13.9658427 128.219414,15.0152389 Z M83.4835002,17.2316437 L85.8767976,17.699639 C87.4576591,17.699639 88.2604127,17.2316437 88.2604127,17.2316437 L88.2604127,30.3188612 L83.4835002,30.3188612 L83.4835002,17.2316437 Z M88.7823787,15.0152389 C88.7823787,16.0646352 87.4732388,16.9152649 85.8583132,16.9152649 C84.2433875,16.9152649 82.9342477,16.0646352 82.9342477,15.0152389 C82.9342477,13.9658427 84.2433875,13.115213 85.8583132,13.115213 C87.4732388,13.115213 88.7823787,13.9658427 88.7823787,15.0152389 Z" id="Combined-Shape" fill="#000000"></path>
    </g>
</svg>