<svg width="115" height="54" viewBox="0 0 115 54" fill="none" xmlns="http://www.w3.org/2000/svg">
<path fill-rule="evenodd" clip-rule="evenodd" d="M49.4196 24.7096V21.5119C47.6541 21.5119 46.2219 20.0797 46.2219 18.3137V0.257812H43.0242V18.3137C43.0242 21.8462 45.8871 24.7096 49.4196 24.7096ZM11.3446 10.5766C12.5165 9.24818 14.2303 8.40899 16.1412 8.40899C19.6736 8.40899 22.5371 11.2724 22.5371 14.8049V24.7105H19.3389V14.8049C19.3389 13.0389 17.9071 11.6067 16.1412 11.6067C14.3757 11.6067 12.9434 13.0389 12.9434 14.8049V24.7105H9.74574V14.8049C9.74574 13.0389 8.3135 11.6067 6.54752 11.6067C4.78204 11.6067 3.34981 13.0389 3.34981 14.8049V24.7105H0.1521V14.8049C0.1521 11.2724 3.01555 8.40899 6.54752 8.40899C8.45885 8.40899 10.1727 9.24818 11.3446 10.5766ZM88.1603 14.8049C88.1603 13.0389 89.592 11.6067 91.3575 11.6067V8.40899C87.8251 8.40899 84.9621 11.2724 84.9621 14.8049V24.7105H88.1603V14.8049ZM54.7501 9.27037C55.6906 8.72594 56.7825 8.41245 57.9478 8.41245C61.4803 8.41245 64.3438 11.2759 64.3438 14.8084V24.714H61.1456V14.8084C61.1456 13.0424 59.7133 11.6102 57.9478 11.6102C56.1819 11.6102 54.7501 13.0424 54.7501 14.8084V24.714H51.5519V14.8084V0.301185H54.7501V9.27037ZM40.7327 14.9982C39.9867 11.2874 36.71 8.49285 32.7805 8.49285C28.851 8.49285 25.5737 11.2874 24.8283 14.9982C24.7244 15.5178 24.6692 16.0546 24.6692 16.6046C24.6692 17.1551 24.7244 17.6925 24.8283 18.2116C25.5748 21.9218 28.851 24.7159 32.7805 24.7159C35.4556 24.7159 37.8272 23.4209 39.3046 21.425L36.7353 19.5268C35.8405 20.7367 34.4021 21.5212 32.7805 21.5212C30.6276 21.5212 28.7973 20.1381 28.1318 18.2116H40.7327C40.8366 17.6925 40.8918 17.1551 40.8918 16.6046C40.8918 16.0546 40.8366 15.5178 40.7327 14.9982ZM32.7805 11.6875C34.9334 11.6875 36.7637 13.0716 37.4292 14.9982H28.1318C28.7973 13.0716 30.6276 11.6875 32.7805 11.6875ZM66.5281 16.5598C66.5281 12.0585 70.1771 8.40899 74.6789 8.40899C79.1807 8.40899 82.8297 12.0585 82.8297 16.5598C82.8297 21.0616 79.1807 24.7105 74.6789 24.7105C70.1771 24.7105 66.5281 21.0616 66.5281 16.5598ZM69.7228 16.5598C69.7228 19.2971 71.942 21.5159 74.6789 21.5159C77.4162 21.5159 79.635 19.2971 79.635 16.5598C79.635 13.8229 77.4162 11.6037 74.6789 11.6037C71.942 11.6037 69.7228 13.8229 69.7228 16.5598ZM88.0307 28.0511H84.833V44.2736H88.0307V28.0511ZM41.3765 28.1378C45.2873 28.1378 48.5483 30.9192 49.2897 34.6117C49.3941 35.1283 49.4482 35.6626 49.4482 36.2101C49.4482 36.758 49.3941 37.2929 49.2897 37.8089H36.7506C37.4125 39.7263 39.2342 41.1029 41.3765 41.1029C42.9905 41.1029 44.4217 40.3224 45.3121 39.1181L47.8686 41.0071C46.3989 42.9939 44.0384 44.2823 41.3765 44.2823C37.4657 44.2823 34.2052 41.5014 33.4632 37.8089C33.3589 37.2929 33.3047 36.758 33.3047 36.2101C33.3047 35.6626 33.3589 35.1283 33.4632 34.6117C34.2047 30.9192 37.4657 28.1378 41.3765 28.1378ZM46.0024 34.6117C45.3404 32.6943 43.5188 31.3168 41.3765 31.3168C39.2342 31.3168 37.4125 32.6943 36.7506 34.6117H46.0024ZM57.9478 27.9643C54.4154 27.9643 51.5519 30.8273 51.5519 34.3602V44.2658H54.7501V34.3602C54.7501 32.5943 56.1819 31.162 57.9478 31.162C59.7133 31.162 61.1456 32.5943 61.1456 34.3602V44.2658H64.3438V34.3602C64.3438 30.8273 61.4803 27.9643 57.9478 27.9643ZM90.1679 36.1151C90.1679 31.6138 93.8174 27.9643 98.3187 27.9643C102.821 27.9643 106.469 31.6138 106.469 36.1151C106.469 40.6169 102.821 44.2658 98.3187 44.2658C93.8174 44.2658 90.1679 40.6169 90.1679 36.1151ZM93.3626 36.1151C93.3626 38.8524 95.5819 41.0712 98.3187 41.0712C101.056 41.0712 103.275 38.8524 103.275 36.1151C103.275 33.3782 101.056 31.159 98.3187 31.159C95.5819 31.159 93.3626 33.3782 93.3626 36.1151ZM79.3012 28.1788L74.6799 39.7886L70.0575 28.1783L66.5281 28.1788L73.2451 44.2783H76.1152L82.8297 28.1788H79.3012Z" fill="#0A539B"/>
<path d="M114.983 27.7246L114.982 27.7099C114.909 26.7684 114.564 25.8669 113.956 25.0303L113.935 25.0019C112.23 22.7736 109.434 22.5735 106.863 22.5112C108.093 20.7078 109.704 18.1203 109.76 14.7909C109.818 12.437 109.096 10.3869 107.727 9.01743C107.236 8.52719 106.604 8.09621 105.946 7.80399C105.28 7.50771 104.606 7.36135 103.888 7.35629C102.483 7.29349 101.078 7.85919 100.027 8.91057C98.9428 9.99488 98.6055 11.2772 98.3077 12.4091L98.2971 12.4527C98.2956 12.4593 98.294 12.4653 98.293 12.4714C98.096 13.3182 97.7202 14.1123 97.1991 14.8077L96.446 15.8109L96.2039 16.1016L96.1568 16.1614C96.1062 16.2293 96.0459 16.2986 95.9776 16.3792C95.8975 16.4718 95.8089 16.5757 95.7137 16.6987C95.1131 17.385 94.3868 18.1806 93.541 18.921L93.5152 18.9438C92.6973 19.6939 91.7984 20.4586 91.0118 21.1028V23.2912V24.7057C91.0118 24.7057 94.1913 22.3527 95.5101 21.1448C96.4967 20.2798 97.3136 19.3819 97.9831 18.6172L98.053 18.5305C98.1041 18.4622 98.1639 18.3928 98.2328 18.3128C98.3153 18.216 98.4085 18.1072 98.5083 17.9765L98.7524 17.6833L99.7789 16.2915C100.359 15.506 100.792 14.6218 101.051 13.6803C101.098 13.5071 101.143 13.3283 101.186 13.1435C101.415 12.2739 101.615 11.5228 102.127 11.0113C102.243 10.8958 102.403 10.7956 102.579 10.71C102.923 10.5413 103.742 10.3484 104.444 10.4917C105.052 10.6158 105.572 11.0645 105.625 11.1177C106.404 11.8961 106.828 13.2098 106.791 14.7226L106.79 14.7362C106.747 17.4503 105.226 19.6538 104.115 21.2633L103.983 21.4543C103.496 22.0848 103.152 22.6444 102.871 23.2633L101.993 25.1954L104.109 25.3585C104.484 25.3873 104.851 25.4015 105.206 25.4152C105.548 25.4284 105.87 25.4405 106.189 25.4653L106.272 25.4694C108.598 25.5175 110.607 25.5595 111.564 26.7922C111.839 27.1756 111.989 27.5478 112.019 27.9302C112.059 28.5309 111.98 29.1128 111.786 29.6607C111.39 30.7233 111.292 31.9215 111.502 33.1289C111.582 33.6597 111.582 34.1924 111.503 34.671L111.499 34.6948C111.39 35.4216 111.053 36.1645 110.499 36.9035C110.321 37.142 110.068 37.5239 109.883 37.9893L109.852 38.0713C109.7 38.5281 109.616 39.0548 109.616 39.5537C109.616 40.0267 109.387 40.7195 109.183 41.2452C108.989 41.7436 108.724 42.211 108.397 42.6329C108.127 42.9808 107.789 43.3774 107.519 43.5708L107.454 43.6195C107.182 43.8372 106.816 44.172 106.53 44.5837L106.476 44.6379L106.392 44.7666C105.318 46.411 104.658 47.4224 103.657 48.2529C102.826 48.9422 101.841 49.4178 100.793 49.6776C100.475 49.7566 100.164 49.8229 99.861 49.8665C99.0912 49.9693 98.3639 50.0655 97.665 50.0655C95.0968 50.0655 92.5631 49.7576 90.1337 49.1504L90.1109 49.1448C88.7586 48.8293 86.9628 48.4434 85.0646 48.2595L83.7909 48.2524L33.5422 48.255C33.2343 48.255 33.2211 48.7118 33.5285 48.73L84.8484 51.2233C86.5429 51.3924 88.1803 51.7449 89.4246 52.0351C92.0865 52.6991 94.8588 53.0363 97.665 53.0363C98.563 53.0363 99.426 52.9214 100.261 52.81L100.274 52.8079C100.692 52.7482 101.455 52.5583 102.07 52.3957C102.808 52.2002 103.516 51.9039 104.17 51.5109C106.374 50.1876 107.355 48.7234 108.795 46.5204L108.963 46.2895C108.995 46.2363 109.106 46.1061 109.284 45.9603C110.163 45.3237 110.88 44.5017 111.418 43.5156C112.183 42.3422 112.587 40.9743 112.587 39.5537C112.587 39.3921 112.614 39.2002 112.657 39.0523C112.709 38.9363 112.789 38.8021 112.876 38.6856C113.727 37.5522 114.251 36.3621 114.435 35.1471C114.567 34.3494 114.567 33.5143 114.436 32.663L114.43 32.6311C114.309 31.9453 114.36 31.2566 114.572 30.6909L114.58 30.6691C114.915 29.7306 115.051 28.74 114.983 27.7246Z" fill="#F1B241"/>
</svg>
