<svg width="50" height="50" viewBox="0 0 50 50" fill="none" xmlns="http://www.w3.org/2000/svg">
<rect width="50" height="50" rx="10" fill="#0A539B"/>
<path fill-rule="evenodd" clip-rule="evenodd" d="M22.0172 23.942V22.7726C21.3715 22.7726 20.8478 22.2489 20.8478 21.6031V15H19.6784V21.6031C19.6784 22.8949 20.7253 23.942 22.0172 23.942ZM8.09311 18.7725C8.52168 18.2867 9.14842 17.9798 9.84722 17.9798C11.139 17.9798 12.1862 19.027 12.1862 20.3188V23.9413H11.0166V20.3188C11.0166 19.673 10.493 19.1492 9.84722 19.1492C9.20158 19.1492 8.67781 19.673 8.67781 20.3188V23.9413H7.5084V20.3188C7.5084 19.673 6.98463 19.1492 6.33881 19.1492C5.69318 19.1492 5.16941 19.673 5.16941 20.3188V23.9413H4V20.3188C4 19.027 5.04717 17.9798 6.33881 17.9798C7.03779 17.9798 7.66453 18.2867 8.09311 18.7725ZM36.1847 20.3188C36.1847 19.673 36.7083 19.1492 37.3539 19.1492V17.9798C36.0621 17.9798 35.0151 19.027 35.0151 20.3188V23.9413H36.1847V20.3188ZM23.9666 18.2953C24.3105 18.0962 24.7098 17.9816 25.136 17.9816C26.4278 17.9816 27.475 19.0287 27.475 20.3206V23.943H26.3054V20.3206C26.3054 19.6747 25.7816 19.151 25.136 19.151C24.4901 19.151 23.9666 19.6747 23.9666 20.3206V23.943H22.797V20.3206V15.0153H23.9666V18.2953ZM18.8404 20.3894C18.5676 19.0323 17.3693 18.0104 15.9322 18.0104C14.4952 18.0104 13.2967 19.0323 13.0241 20.3894C12.9861 20.5794 12.9659 20.7757 12.9659 20.9768C12.9659 21.1782 12.9861 21.3747 13.0241 21.5645C13.2971 22.9213 14.4952 23.9431 15.9322 23.9431C16.9105 23.9431 17.7778 23.4696 18.3181 22.7397L17.3785 22.0455C17.0513 22.488 16.5253 22.7748 15.9322 22.7748C15.1449 22.7748 14.4756 22.269 14.2322 21.5645H18.8404C18.8783 21.3747 18.8985 21.1782 18.8985 20.9768C18.8985 20.7757 18.8783 20.5794 18.8404 20.3894ZM15.9322 19.1787C16.7196 19.1787 17.3889 19.6848 17.6323 20.3894H14.2322C14.4756 19.6848 15.1449 19.1787 15.9322 19.1787ZM28.2738 20.9606C28.2738 19.3144 29.6082 17.9798 31.2545 17.9798C32.9008 17.9798 34.2353 19.3144 34.2353 20.9606C34.2353 22.6069 32.9008 23.9413 31.2545 23.9413C29.6082 23.9413 28.2738 22.6069 28.2738 20.9606ZM29.4421 20.9606C29.4421 21.9616 30.2536 22.773 31.2545 22.773C32.2556 22.773 33.067 21.9616 33.067 20.9606C33.067 19.9597 32.2556 19.1481 31.2545 19.1481C30.2536 19.1481 29.4421 19.9597 29.4421 20.9606ZM36.1373 25.1642H34.9679V31.0968H36.1373V25.1642ZM19.0758 25.1948C20.506 25.1948 21.6985 26.2119 21.9697 27.5623C22.0078 27.7512 22.0277 27.9466 22.0277 28.1468C22.0277 28.3472 22.0078 28.5428 21.9697 28.7315H17.3841C17.6262 29.4327 18.2924 29.9361 19.0758 29.9361C19.6661 29.9361 20.1895 29.6507 20.5151 29.2103L21.45 29.9011C20.9125 30.6277 20.0493 31.0988 19.0758 31.0988C17.6456 31.0988 16.4532 30.0819 16.1819 28.7315C16.1438 28.5428 16.1239 28.3472 16.1239 28.1468C16.1239 27.9466 16.1438 27.7512 16.1819 27.5623C16.4531 26.2119 17.6456 25.1948 19.0758 25.1948ZM20.7675 27.5623C20.5254 26.8611 19.8592 26.3573 19.0758 26.3573C18.2924 26.3573 17.6262 26.8611 17.3841 27.5623H20.7675ZM25.136 25.1337C23.8441 25.1337 22.797 26.1807 22.797 27.4727V31.0952H23.9666V27.4727C23.9666 26.8269 24.4901 26.3031 25.136 26.3031C25.7816 26.3031 26.3054 26.8269 26.3054 27.4727V31.0952H27.475V27.4727C27.475 26.1807 26.4278 25.1337 25.136 25.1337ZM36.9189 28.1145C36.9189 26.4683 38.2535 25.1337 39.8996 25.1337C41.5459 25.1337 42.8804 26.4683 42.8804 28.1145C42.8804 29.7608 41.5459 31.0952 39.8996 31.0952C38.2535 31.0952 36.9189 29.7608 36.9189 28.1145ZM38.0872 28.1145C38.0872 29.1155 38.8988 29.9269 39.8996 29.9269C40.9007 29.9269 41.7121 29.1155 41.7121 28.1145C41.7121 27.1136 40.9007 26.302 39.8996 26.302C38.8988 26.302 38.0872 27.1136 38.0872 28.1145ZM32.9449 25.2102L31.2549 29.4559L29.5645 25.21L28.2738 25.2102L30.7302 31.0978H31.7798L34.2353 25.2102H32.9449Z" fill="white"/>
<path d="M45.9938 25.0442L45.9934 25.0388C45.9667 24.6945 45.8406 24.3648 45.6182 24.0589L45.6104 24.0485C44.9872 23.2336 43.9645 23.1604 43.0241 23.1377C43.4742 22.4781 44.0634 21.5319 44.0837 20.3143C44.105 19.4535 43.8407 18.7038 43.3401 18.203C43.1606 18.0237 42.9295 17.8661 42.6889 17.7592C42.4454 17.6509 42.199 17.5973 41.9364 17.5955C41.4225 17.5725 40.9089 17.7794 40.5244 18.1639C40.1279 18.5604 40.0045 19.0294 39.8956 19.4433L39.8917 19.4592C39.8912 19.4616 39.8906 19.4639 39.8902 19.4661C39.8182 19.7758 39.6808 20.0662 39.4902 20.3204L39.2148 20.6873L39.1263 20.7937L39.109 20.8155C39.0905 20.8403 39.0685 20.8657 39.0435 20.8952C39.0142 20.929 38.9818 20.967 38.947 21.012C38.7273 21.263 38.4617 21.5539 38.1524 21.8247L38.143 21.833C37.8439 22.1073 37.5151 22.387 37.2275 22.6226V23.4229V23.9402C37.2275 23.9402 38.3902 23.0797 38.8725 22.638C39.2333 22.3216 39.532 21.9933 39.7769 21.7136L39.8024 21.6819C39.8212 21.6569 39.843 21.6315 39.8682 21.6023C39.8984 21.5669 39.9325 21.5271 39.9689 21.4793L40.0582 21.3721L40.4336 20.8631C40.6457 20.5759 40.8042 20.2525 40.8987 19.9082C40.9161 19.8448 40.9326 19.7795 40.9483 19.7119C41.032 19.3939 41.1052 19.1192 41.2924 18.9321C41.3347 18.8899 41.3932 18.8532 41.4575 18.8219C41.5836 18.7603 41.8829 18.6897 42.1396 18.7421C42.3618 18.7875 42.5522 18.9516 42.5717 18.971C42.8565 19.2557 43.0116 19.7361 42.9978 20.2893L42.9977 20.2943C42.9817 21.2869 42.4256 22.0927 42.0194 22.6813L41.9712 22.7511C41.7929 22.9817 41.6673 23.1864 41.5645 23.4127L41.2434 24.1193L42.0172 24.1789C42.1544 24.1895 42.2885 24.1946 42.4183 24.1996C42.5433 24.2045 42.6613 24.2089 42.7778 24.218L42.8082 24.2195C43.6587 24.2371 44.3934 24.2524 44.7434 24.7032C44.8442 24.8434 44.8988 24.9796 44.9099 25.1194C44.9244 25.339 44.8955 25.5518 44.8246 25.7522C44.6797 26.1408 44.644 26.579 44.7207 27.0205C44.7501 27.2146 44.7501 27.4095 44.721 27.5845L44.7195 27.5932C44.6797 27.859 44.5567 28.1307 44.3541 28.4009C44.2887 28.4881 44.1965 28.6278 44.1285 28.798L44.1174 28.828C44.0617 28.9951 44.0311 29.1877 44.0311 29.3701C44.0311 29.5431 43.9474 29.7965 43.8726 29.9887C43.8017 30.1709 43.705 30.3419 43.5851 30.4962C43.4866 30.6234 43.3631 30.7684 43.2642 30.8392L43.2405 30.857C43.141 30.9366 43.0071 31.059 42.9027 31.2096L42.8828 31.2294L42.8521 31.2765C42.4594 31.8778 42.2179 32.2477 41.8518 32.5514C41.548 32.8035 41.1878 32.9774 40.8046 33.0724C40.6883 33.1013 40.5746 33.1256 40.4636 33.1415C40.1821 33.1791 39.9162 33.2143 39.6606 33.2143C38.7214 33.2143 37.7948 33.1017 36.9063 32.8796L36.898 32.8776C36.4035 32.7622 35.7468 32.6211 35.0526 32.5538L34.5868 32.5512L16.2108 32.5522C16.0982 32.5522 16.0934 32.7192 16.2058 32.7259L34.9735 33.6377C35.5932 33.6995 36.192 33.8284 36.6471 33.9346C37.6205 34.1774 38.6343 34.3007 39.6606 34.3007C39.989 34.3007 40.3045 34.2587 40.6098 34.2179L40.6148 34.2172C40.7676 34.1953 41.0467 34.1259 41.2713 34.0664C41.5414 33.9949 41.8003 33.8866 42.0396 33.7429C42.8454 33.2589 43.2044 32.7235 43.7307 31.9178L43.7922 31.8334C43.8041 31.8139 43.8446 31.7663 43.9096 31.713C44.2312 31.4802 44.4934 31.1796 44.6901 30.819C44.9698 30.3899 45.1176 29.8896 45.1176 29.3701C45.1176 29.311 45.1274 29.2408 45.1433 29.1867C45.1622 29.1443 45.1915 29.0953 45.2233 29.0527C45.5343 28.6382 45.726 28.2029 45.7934 27.7586C45.8415 27.4669 45.8415 27.1615 45.7936 26.8502L45.7917 26.8385C45.7475 26.5877 45.766 26.3358 45.8434 26.129L45.8464 26.121C45.969 25.7778 46.0186 25.4155 45.9938 25.0442Z" fill="#F1B241"/>
</svg>
