<svg width="154" height="40" viewBox="0 0 154 40" fill="none" xmlns="http://www.w3.org/2000/svg">
<path fill-rule="evenodd" clip-rule="evenodd" d="M56.663 19.3522C56.663 9.25589 44.1226 1.02484 28.6532 1.02484C13.1837 1.02484 0.643759 9.25546 0.643759 19.3522C0.643759 19.6124 0.640381 20.3325 0.640381 20.4251C0.640381 31.1368 11.6012 39.8109 28.6498 39.8109C45.8023 39.8109 56.6635 31.138 56.6635 20.4263C56.663 20.0525 56.663 19.8371 56.663 19.3522Z" fill="#2B3375"/>
<path fill-rule="evenodd" clip-rule="evenodd" d="M28.6574 36.5757C43.5317 36.5757 55.5897 28.8591 55.5897 19.3402C55.5897 9.82132 43.5317 2.10474 28.6574 2.10474C13.7831 2.10474 1.7251 9.82132 1.7251 19.3402C1.7251 28.8591 13.7831 36.5757 28.6574 36.5757Z" fill="#00B0EA"/>
<path fill-rule="evenodd" clip-rule="evenodd" d="M19.7168 13.903C19.7025 13.9301 19.4343 14.2084 19.6083 14.4319C20.0335 14.9746 21.3458 15.2859 22.6737 14.9886C23.4642 14.8107 24.4771 14.0044 25.4588 13.2255C26.5228 12.3803 27.5776 11.5339 28.6382 11.1972C29.7614 10.8395 30.4809 10.9932 30.9563 11.1364C31.4782 11.2923 32.0913 11.6357 33.0696 12.3702C34.9126 13.756 42.3225 20.2262 43.6027 21.3446C44.6334 20.8787 49.2163 18.9054 55.4439 17.5326C54.903 14.2114 52.8838 11.1723 49.8205 8.68487C45.5513 10.4783 40.3354 11.4139 35.234 8.92183C35.2074 8.91127 32.4468 7.60398 29.7234 7.66818C25.6758 7.76238 23.9223 9.51443 22.0666 11.3696L19.7168 13.903Z" fill="white"/>
<path fill-rule="evenodd" clip-rule="evenodd" d="M43.2993 22.0484C43.2123 21.9707 34.5865 14.4206 32.632 12.9515C31.5008 12.1029 30.8725 11.8867 30.2121 11.8022C29.8684 11.7578 29.3934 11.8212 29.0607 11.9124C28.1521 12.1599 26.963 12.9549 25.9074 13.792C24.8151 14.6626 23.7844 15.4824 22.8289 15.6966C21.607 15.9707 20.1156 15.6472 19.435 15.1868C19.1597 15.0018 18.9655 14.7872 18.8722 14.5692C18.6209 13.9863 19.0845 13.52 19.1605 13.4419L21.5411 10.8658C21.8177 10.5904 22.0968 10.3133 22.3818 10.0413C21.6142 10.1414 20.904 10.3378 20.2123 10.53C19.3501 10.7724 18.52 11.0035 17.681 11.0026C17.331 11.0026 15.4537 10.6947 15.0974 10.5984C12.9427 10.0087 11.0524 9.43429 8.22802 8.11517C4.84381 10.6351 2.58104 13.7861 1.927 17.2569C2.413 17.3857 3.19666 17.6189 3.52601 17.6915C11.1841 19.395 13.5689 21.15 14.0021 21.5162C14.4704 20.995 15.1464 20.6647 15.9005 20.6647C16.7483 20.666 17.5113 21.0917 17.9758 21.7498C18.4145 21.4035 19.0191 21.1069 19.8011 21.1074C20.1562 21.1074 20.5244 21.1728 20.8964 21.2995C21.7607 21.5961 22.2066 22.1714 22.4375 22.6926C22.7276 22.5612 23.0835 22.4649 23.5032 22.4662C23.9153 22.4662 24.3443 22.5604 24.7767 22.7471C26.1891 23.3536 26.4086 24.7407 26.2807 25.7866C26.3812 25.7752 26.483 25.7701 26.5856 25.7701C28.2593 25.7714 29.621 27.1327 29.6206 28.8079C29.6206 29.3266 29.4884 29.814 29.2575 30.2423C29.7131 30.4979 30.8742 31.0782 31.8939 30.9485C32.7084 30.8459 33.0175 30.5676 33.1281 30.4113C33.2041 30.3031 33.2839 30.1773 33.2096 30.0873L31.049 27.6856C31.049 27.6856 30.6931 27.349 30.8109 27.2193C30.9325 27.0862 31.1525 27.2776 31.3083 27.4073C32.4078 28.326 33.7501 29.7126 33.7501 29.7126C33.7733 29.7274 33.8619 29.9031 34.3585 29.9923C34.7858 30.0691 35.5424 30.0244 36.066 29.594C36.1982 29.485 36.3303 29.3498 36.4414 29.2096C36.4325 29.2168 36.4253 29.2261 36.4169 29.229C36.9696 28.5215 36.3552 27.806 36.3552 27.806L33.8328 24.9722C33.8328 24.9722 33.4718 24.6385 33.5947 24.5046C33.7044 24.3885 33.9367 24.5642 34.095 24.6951C34.8935 25.3633 36.0221 26.4966 37.1034 27.5559C37.315 27.7105 38.265 28.2989 39.5241 27.4719C40.2884 26.9705 40.4412 26.3551 40.4197 25.8905C40.3665 25.2755 39.8868 24.8375 39.8868 24.8375L36.441 21.3718C36.441 21.3718 36.077 21.0609 36.2053 20.9038C36.3109 20.7716 36.5469 20.9621 36.7019 21.0917C37.7997 22.0104 40.771 24.7361 40.771 24.7361C40.8141 24.7657 41.8401 25.4972 43.1093 24.6892C43.5628 24.3986 43.8529 23.9614 43.8774 23.4533C43.9209 22.5722 43.2993 22.0484 43.2993 22.0484Z" fill="white"/>
<path fill-rule="evenodd" clip-rule="evenodd" d="M26.5873 26.4426C26.0528 26.4359 25.4688 26.7535 25.3924 26.7074C25.3498 26.6796 25.4249 26.465 25.4747 26.3412C25.5258 26.2179 26.2301 24.0996 24.5146 23.3643C23.2023 22.7999 22.3996 23.4348 22.1239 23.7212C22.0517 23.7964 22.0192 23.7904 22.0107 23.6946C21.9841 23.3136 21.814 22.2813 20.6811 21.9357C19.0618 21.4399 18.0206 22.5702 17.7567 22.9782C17.6385 22.0549 16.8582 21.3385 15.9022 21.3376C14.8644 21.3368 14.022 22.1782 14.0208 23.216C14.0208 24.2547 14.8618 25.0965 15.9001 25.0965C16.4047 25.0977 16.862 24.8958 17.1998 24.5719C17.2103 24.5816 17.2145 24.5993 17.2091 24.6356C17.1301 25.1003 16.9844 26.7898 18.7532 27.4779C19.4625 27.7533 20.0655 27.5488 20.5658 27.1978C20.7149 27.0927 20.7389 27.137 20.7174 27.2772C20.6541 27.7115 20.7347 28.642 22.0386 29.1708C23.0308 29.5742 23.6177 29.1619 24.0024 28.8063C24.1696 28.6534 24.2156 28.6779 24.2237 28.9144C24.2709 30.1719 25.3156 31.17 26.5835 31.1712C27.8904 31.1725 28.9493 30.1161 28.9497 28.8092C28.9519 27.502 27.8937 26.4566 26.5873 26.4426Z" fill="white"/>
<path fill-rule="evenodd" clip-rule="evenodd" d="M33.173 12.2356C34.8358 13.4842 40.9768 18.8252 43.6339 21.1446C44.7731 20.6373 49.3227 18.6677 55.4214 17.3144C55.4915 17.6987 55.5481 18.0848 55.5781 18.4759C50.5387 19.6121 46.2598 21.1737 44.3872 21.9805C44.6701 22.4455 44.8031 22.9866 44.76 23.523C44.6967 24.312 44.2795 24.9904 43.5866 25.4331C43.0457 25.7781 42.4774 25.9526 41.8985 25.9526C41.7005 25.9526 41.5008 25.9319 41.3048 25.8909C41.3226 26.5173 41.1292 27.4749 40.0115 28.2077C39.4322 28.5874 38.8259 28.7796 38.2094 28.7796C38.0122 28.7796 37.8151 28.7594 37.6225 28.7197C37.6219 28.7233 37.6215 28.7269 37.6211 28.7305C37.6206 28.7342 37.6202 28.7379 37.6196 28.7416C37.5613 29.2443 37.1555 29.8352 36.5847 30.2466C36.0045 30.6694 35.4299 30.8734 34.8315 30.8734C34.5052 30.873 34.2206 30.8126 33.9617 30.7374C33.9288 30.802 33.8908 30.8637 33.8482 30.922C33.6147 31.2557 33.1038 31.6844 32.0081 31.8229C31.8738 31.8394 31.7399 31.8491 31.5968 31.8491C30.4931 31.8478 29.4007 31.327 28.8827 31.0394C28.2789 31.662 27.4496 32.0138 26.5861 32.0126C25.2831 32.0126 24.1144 31.2202 23.6233 30.024C23.3573 30.1216 23.0786 30.1718 22.7932 30.1718C22.444 30.1718 22.0851 30.0966 21.7253 29.9518C20.7006 29.5353 20.2425 28.8903 20.0389 28.3729C19.835 28.4248 19.6268 28.451 19.4195 28.4506C19.0995 28.4506 18.7735 28.3868 18.4513 28.263C17.348 27.8339 16.6264 26.9972 16.4005 25.8943C16.2367 25.9243 16.0695 25.9391 15.9019 25.9391C14.4021 25.9378 13.1827 24.7167 13.1839 23.2172C13.1844 22.859 13.2557 22.5034 13.3929 22.1735C12.988 21.8567 10.591 20.1803 3.33572 18.5689C3.07857 18.5106 1.7688 18.1972 1.7688 18.1972C1.80891 17.8043 1.87056 17.4157 1.95036 17.0314C2.4334 17.1729 3.22298 17.3984 3.5671 17.4774C10.6691 19.0909 13.3224 20.7767 13.9913 21.2878C14.5013 20.7822 15.19 20.4958 15.9057 20.4958C16.7231 20.4958 17.4996 20.8742 18.0143 21.5142C18.5506 21.1327 19.1522 20.9401 19.8054 20.9401C20.18 20.9401 20.5672 21.0081 20.956 21.1429C21.6607 21.3828 22.2004 21.8432 22.5259 22.4755C22.8358 22.3568 23.1652 22.2981 23.5084 22.2981C23.9463 22.2981 24.3968 22.3974 24.8486 22.5929C26.4181 23.2662 26.5325 24.7961 26.4747 25.6037C26.5118 25.6024 26.5523 25.6012 26.5903 25.6012C28.3587 25.6024 29.7951 27.0419 29.7943 28.8113C29.7943 29.281 29.69 29.7486 29.4886 30.1739C29.9302 30.4084 30.7878 30.7986 31.5917 30.7986C31.6872 30.7986 31.7834 30.7936 31.8772 30.7813C32.6566 30.6833 32.9171 30.4223 32.994 30.3163C33.0463 30.2411 33.0729 30.1925 33.0755 30.1714L30.9263 27.801C30.7941 27.6764 30.4821 27.3351 30.6898 27.1074C30.7502 27.0407 30.8287 27.006 30.9174 27.006C31.0945 27.006 31.2658 27.1497 31.4037 27.2653L31.4072 27.2683C32.4577 28.1456 33.7278 29.4424 33.865 29.5847L33.8959 29.6168C33.9765 29.7118 34.1441 29.7815 34.3924 29.8259C34.4946 29.8445 34.6116 29.8546 34.7332 29.8546C34.9607 29.8546 35.5346 29.817 35.9644 29.4643C36.0421 29.3984 36.1232 29.3216 36.1992 29.2383L36.2878 29.1251C36.7448 28.5415 36.2626 27.9561 36.2317 27.9186L36.2308 27.9175L33.7114 25.0863C33.7114 25.0863 33.6168 24.9984 33.537 24.892C33.3427 24.6331 33.3968 24.4772 33.4749 24.3906C33.5332 24.3294 33.6083 24.2981 33.6924 24.2981C33.8629 24.2981 34.0403 24.4265 34.2071 24.5651C34.8833 25.1294 35.8029 26.0347 36.6971 26.915L36.7312 26.9486L37.2269 27.4364C37.3092 27.4943 37.6808 27.7355 38.2115 27.7355C38.6156 27.7355 39.0277 27.5995 39.4352 27.3308C40.0069 26.9558 40.2818 26.4742 40.2547 25.899C40.2083 25.3663 39.7827 24.9672 39.7776 24.9634L36.325 21.4913C36.0995 21.2992 35.9078 21.0073 36.0788 20.7961C36.1333 20.7285 36.2135 20.6892 36.3047 20.6897C36.4745 20.6897 36.6429 20.8189 36.8161 20.9625C37.7458 21.7417 40.0423 23.837 40.7076 24.444C40.8202 24.5468 40.8861 24.6069 40.8906 24.6107C40.9168 24.6293 41.3137 24.8992 41.8905 24.9004C42.2747 24.9004 42.6547 24.7817 43.0229 24.5477C43.4473 24.277 43.6913 23.8859 43.712 23.4462C43.75 22.6571 43.1998 22.1824 43.1939 22.1773C43.1099 22.103 34.4828 14.5536 32.5333 13.0884C31.4401 12.2668 30.8275 12.0514 30.1941 11.9712C30.1245 11.9615 30.0506 11.9589 29.9712 11.9581C29.7069 11.9581 29.3775 12.0033 29.1098 12.0763C28.1514 12.3374 26.8986 13.2274 26.0174 13.9277L26.0055 13.9371C24.9036 14.8135 23.8633 15.6408 22.8713 15.863C22.5605 15.9327 22.2223 15.9691 21.8655 15.9682C20.9239 15.9674 19.911 15.7093 19.3448 15.3283C19.0425 15.1247 18.8263 14.8852 18.7203 14.6352C18.4526 14.0147 18.8588 13.5112 19.0454 13.3224L21.4205 10.7522C21.5742 10.5984 21.7279 10.4451 21.8812 10.2943C21.3061 10.4045 20.7584 10.5562 20.2623 10.6951L20.2545 10.6973C19.4171 10.9319 18.5525 11.1741 17.6854 11.1741C17.4018 11.1735 17.1181 11.1516 16.8439 11.1305C16.7414 11.1226 16.6401 11.1148 16.5407 11.1082C15.2263 11.0233 11.0626 9.9378 7.64083 8.53463C7.95413 8.28543 8.27587 8.04129 8.61028 7.80433C11.8856 9.04488 16.0028 10.0548 16.8207 10.0797C16.8251 10.0799 16.8336 10.0803 16.8458 10.0809C16.964 10.0866 17.4221 10.1084 17.6875 10.1084C18.3967 10.1089 19.1235 9.90654 19.9649 9.6723L19.9701 9.67085C20.9159 9.40644 21.9791 9.1095 23.2108 9.07951C24.4775 8.03875 26.3607 6.85185 29.7043 6.77286C29.7791 6.77159 29.8542 6.77032 29.929 6.77032C32.7748 6.77159 35.5097 8.06198 35.6245 8.11689C37.8049 9.18131 40.0504 9.72112 42.2984 9.72323C44.4995 9.72365 46.78 9.19905 49.1745 8.16124C49.5 8.40538 49.8167 8.65459 50.1211 8.91098C47.396 10.1659 44.8039 10.7876 42.2916 10.7872C39.8815 10.7851 37.4832 10.2094 35.16 9.07571C34.8814 8.94688 32.405 7.83727 29.9273 7.83558C29.8614 7.83558 29.7938 7.83685 29.7284 7.83896C25.748 7.9302 24.0181 9.65945 22.1877 11.4909L19.8502 14.0113L19.8358 14.0295C19.7256 14.1697 19.6957 14.2664 19.7425 14.3264C20.0271 14.6897 20.7867 14.9334 21.632 14.9346C21.9698 14.9346 22.3085 14.8962 22.6378 14.8219C23.3908 14.6538 24.3846 13.8637 25.3471 13.0984L25.3545 13.0926L25.4081 13.0504C26.4438 12.2267 27.5142 11.3756 28.5896 11.0352C29.0638 10.8844 29.5181 10.8075 29.9412 10.8075C30.3964 10.8083 30.7502 10.8958 31.0057 10.9735C31.5744 11.1429 32.2225 11.5205 33.173 12.2356ZM24.3946 28.9087C24.4386 30.0816 25.4008 31.002 26.5852 31.0033C27.7958 31.0033 28.7813 30.0195 28.7813 28.8094C28.7821 27.6115 27.7966 26.6252 26.5856 26.6121H26.5848C26.2757 26.6117 25.9455 26.7253 25.726 26.801L25.713 26.8054C25.5724 26.8535 25.4852 26.8833 25.4143 26.8833H25.3675L25.3046 26.8529C25.1745 26.7663 25.18 26.6168 25.3181 26.2776C25.3269 26.2569 26.057 24.2113 24.4474 23.5207C24.1202 23.3796 23.8031 23.3091 23.505 23.3078C22.8543 23.3078 22.438 23.6398 22.2472 23.8396C22.2007 23.8869 22.1365 23.9427 22.0491 23.9427C22.0183 23.9427 21.8595 23.9317 21.8418 23.7087C21.8152 23.326 21.6438 22.4077 20.6317 22.0985C20.38 22.0212 20.1305 21.9824 19.8894 21.9824C18.6189 21.9811 17.9281 23.0261 17.9002 23.0713L17.6477 23.4599L17.5886 23.0007C17.4801 22.1496 16.7547 21.5084 15.9026 21.5084C14.9594 21.5072 14.1913 22.2734 14.1909 23.2166C14.1901 24.1606 14.9577 24.9264 15.9005 24.9277C16.3418 24.9277 16.761 24.7579 17.0819 24.4487L17.1909 24.3448L17.307 24.4411C17.3674 24.4901 17.3906 24.5631 17.3788 24.6582C17.2981 25.1262 17.1685 26.6802 18.8148 27.3213C19.0137 27.3978 19.213 27.4366 19.4072 27.4366C19.7598 27.4366 20.1068 27.3137 20.4687 27.0595C20.5569 26.9969 20.6224 26.9708 20.6862 26.9708H20.7643L20.8411 27.04C20.9044 27.1144 20.8998 27.2102 20.8863 27.3023C20.8352 27.6478 20.8525 28.5074 22.1032 29.0138C22.3544 29.1165 22.5925 29.168 22.8121 29.168C23.2968 29.168 23.6287 28.9222 23.8884 28.681C23.9817 28.5969 24.0623 28.5412 24.1552 28.5412C24.3816 28.5412 24.3917 28.8086 24.3946 28.9087Z" fill="#2B3375"/>
<path fill-rule="evenodd" clip-rule="evenodd" d="M140.637 0.192617C140.637 0.192617 137.461 -0.146982 137.461 2.40508L137.458 5.78459C137.107 5.22028 136.649 4.77804 136.085 4.46041C135.523 4.14193 134.878 3.98142 134.151 3.98142C132.575 3.98142 131.319 4.5677 130.377 5.74024C129.434 6.91363 128.965 8.60402 128.965 10.6484C128.965 12.422 129.443 13.8771 130.399 15.0087C131.355 16.1398 133.231 16.6365 134.895 16.6365C140.702 16.6365 140.635 11.6558 140.635 11.6558L140.637 0.192617ZM136.855 13.0793C136.395 13.7391 135.718 14.069 134.834 14.069C133.945 14.069 133.285 13.7365 132.85 13.0738C132.414 12.4102 132.197 11.4438 132.197 10.3372C132.197 9.30993 132.409 8.45121 132.839 7.75892C133.267 7.06663 133.938 6.71943 134.855 6.71943C135.456 6.71943 135.983 6.90993 136.438 7.2905C137.178 7.92154 137.548 9.05269 137.548 10.518C137.548 11.5659 137.317 12.4195 136.855 13.0793ZM147.695 3.88374C149.755 3.88374 151.289 4.51647 152.3 5.78448C153.312 7.04995 153.817 8.54731 153.817 10.2749C153.817 12.0333 153.312 13.5357 152.3 14.7855C151.29 16.0328 149.755 16.6575 147.695 16.6575C145.638 16.6575 144.103 16.0328 143.092 14.7855C142.08 13.5357 141.574 12.0333 141.574 10.2749C141.574 8.54731 142.08 7.04995 143.092 5.78448C144.102 4.51647 145.638 3.88374 147.695 3.88374ZM147.686 14.0302C148.604 14.0302 149.306 13.7041 149.797 13.0532C150.286 12.4023 150.533 11.4756 150.533 10.2752C150.533 9.07647 150.286 8.15144 149.797 7.50392C149.306 6.8564 148.604 6.53243 147.686 6.53243C146.771 6.53243 146.066 6.85598 145.571 7.50392C145.076 8.15186 144.83 9.07647 144.83 10.2752C144.83 11.4756 145.076 12.4019 145.571 13.0532C146.066 13.7046 146.771 14.0302 147.686 14.0302ZM122.942 3.94197C124.262 3.94197 125.436 4.20469 126.461 4.72465C127.486 5.24799 127.999 6.23341 127.998 7.68051V12.1946C127.995 12.2298 127.993 12.2709 127.99 12.3172L127.99 12.3177C127.929 13.3424 127.715 16.9183 121.154 16.6254C120.061 16.5751 119.154 16.3137 118.443 15.6923C117.728 15.0719 117.373 14.1899 117.373 13.052C117.373 11.5736 117.946 10.505 119.094 9.84355C119.722 9.48326 120.65 9.22476 121.871 9.06974L122.946 8.93796C123.533 8.86446 123.951 8.7728 124.203 8.66298C124.655 8.47037 124.88 8.17386 124.88 7.76879C124.88 7.27713 124.706 6.93627 124.361 6.74999C124.014 6.56034 123.506 6.46784 122.834 6.46784C122.082 6.46784 121.551 6.652 121.238 7.01905C121.013 7.29023 120.865 7.65812 120.791 8.12191H117.757C117.826 7.06974 118.121 6.20723 118.645 5.52972C119.479 4.47206 120.911 3.94197 122.942 3.94197ZM123.969 13.7461C124.548 13.3486 124.849 12.6247 124.87 11.5733V10.405C124.67 10.5313 124.469 10.631 124.262 10.707C124.058 10.7839 123.776 10.8566 123.42 10.9237L122.704 11.0568C122.034 11.1721 121.553 11.317 121.26 11.4851C120.764 11.7719 120.518 12.2166 120.518 12.819C120.518 13.3562 120.668 13.7444 120.97 13.9835C121.273 14.2213 121.64 14.3425 122.074 14.3425C122.759 14.3425 123.391 14.1427 123.969 13.7461ZM112.556 7.3575C112.184 6.87302 111.607 6.63141 110.824 6.63141C109.71 6.63141 108.947 7.15644 108.537 8.20354C108.321 8.76067 108.211 9.499 108.211 10.419C108.211 11.2963 108.321 12.0016 108.537 12.5343C108.932 13.5324 109.675 14.0304 110.767 14.0304C111.542 14.0304 112.09 13.8318 112.416 13.4373C112.742 13.0411 112.939 12.5275 113.008 11.8977H116.379C116.302 12.8506 115.939 13.752 115.289 14.6018C114.254 15.9721 112.718 16.6576 110.684 16.6576C108.652 16.6576 107.156 16.0857 106.197 14.9423C105.239 13.7989 104.759 12.3159 104.759 10.4954C104.759 8.4405 105.289 6.84176 106.349 5.69667C107.406 4.55454 108.869 3.98178 110.733 3.98178C112.318 3.98178 113.613 4.32096 114.624 4.99298C115.632 5.6688 116.23 6.85993 116.415 8.56763H113.032C112.97 8.11991 112.81 7.71568 112.556 7.3575ZM103.851 3.98221C96.9019 3.98221 97.3128 10.1368 97.3128 10.1368V16.3881H100.466V10.5246C100.466 9.56447 100.588 8.85233 100.828 8.38939C101.261 7.56996 102.106 7.15856 103.367 7.15856C103.463 7.15856 103.587 7.16363 103.741 7.17081C103.895 7.17799 104.069 7.1915 104.27 7.21516V4.00502L104.14 3.99707C104.072 3.99298 104.025 3.99016 104.001 3.9877C103.959 3.98432 103.909 3.98221 103.851 3.98221ZM92.2696 13.1214C92.1374 13.3106 91.9947 13.4728 91.8385 13.5987C91.3926 13.9649 90.7875 14.0772 90.0748 14.0772C89.4009 14.0772 88.874 13.975 88.396 13.6739C87.6098 13.1906 87.1669 12.3716 87.1196 11.1699H95.8451C95.8573 10.1359 95.824 9.34397 95.7408 8.79191C95.5951 7.85379 95.2763 7.02549 94.7869 6.31462C94.2427 5.50701 93.5502 4.91609 92.7167 4.54101C91.8811 4.16847 90.9429 3.98093 89.9004 3.98093C88.1435 3.98093 86.7172 4.53552 85.6164 5.64175C84.5169 6.75094 83.9646 8.34207 83.9646 10.4168C83.9646 12.6331 84.5748 14.2318 85.7942 15.2143C87.0119 16.1968 88.4201 16.6893 90.0131 16.6893C91.944 16.6893 93.4476 16.1068 94.5205 14.9402C95.0986 14.3273 95.4613 13.7199 95.6141 13.1214H92.2696ZM88.0287 7.24837C88.4721 6.79262 89.0948 6.56453 89.8984 6.56453C90.6381 6.56453 91.2575 6.77826 91.757 7.21036C92.2553 7.64035 92.534 8.27266 92.591 9.10223H87.1939C87.3071 8.3225 87.5866 7.7054 88.0287 7.24837ZM82.6966 16.3868H79.8169V9.13151C79.8169 8.46836 79.5978 6.89159 77.6977 6.89159C76.431 6.89159 75.5143 7.80563 75.5143 9.13151V16.3868H72.6305V9.13151C72.6305 8.46836 72.4341 6.89159 70.5349 6.89159C69.2458 6.89159 68.3507 7.80563 68.3507 9.13151V16.3868H65.4685V9.20035C65.4685 6.20521 67.4555 3.93953 70.5349 3.93953C72.0638 3.93953 73.3077 4.58198 74.1167 5.61133C74.9671 4.58156 76.2334 3.93953 77.6973 3.93953C80.8417 3.93953 82.6966 6.11313 82.6966 9.20035V16.3868Z" fill="#2B3375"/>
<path fill-rule="evenodd" clip-rule="evenodd" d="M113.1 22.3563C112.087 21.0862 110.549 20.4526 108.487 20.4526C106.427 20.4526 104.889 21.0862 103.876 22.3563C102.863 23.6243 102.356 25.1242 102.356 26.8543C102.356 28.6157 102.862 30.119 103.876 31.3718C104.889 32.6195 106.427 33.2471 108.487 33.2471C110.549 33.2471 112.087 32.6195 113.1 31.3718C114.112 30.1185 114.618 28.6157 114.618 26.8543C114.618 25.1238 114.112 23.6243 113.1 22.3563ZM110.59 29.6347C110.099 30.2882 109.395 30.6142 108.477 30.6142C107.56 30.6142 106.852 30.2882 106.358 29.6347C105.861 28.9843 105.614 28.0559 105.614 26.8537C105.614 25.6525 105.861 24.727 106.358 24.0787C106.852 23.4295 107.56 23.1059 108.477 23.1059C109.395 23.1059 110.099 23.4295 110.59 24.0787C111.081 24.727 111.327 25.6529 111.327 26.8537C111.327 28.0559 111.081 28.9843 110.59 29.6347ZM98.0509 32.2126V31.4367C97.5045 32.2929 96.7656 32.8234 95.8388 33.0392C94.9111 33.2504 93.9907 33.1752 93.082 32.8082C92.1679 32.4432 91.3842 31.7632 90.7302 30.7719C90.0778 29.7767 89.7514 28.472 89.7514 26.8534C89.7514 24.9628 90.1842 23.4274 91.0498 22.2523C91.9171 21.0773 93.3092 20.5404 95.224 20.4884C97.1118 20.439 98.2088 20.8656 99.283 21.6792C100.457 22.5717 101.152 23.9406 101.152 26.0758V32.5358C101.157 34.5902 99.7242 38.4006 95.224 38.0766C92.4356 37.8747 90.8885 36.7309 90.025 34.1379H93.3539C93.5971 34.5649 93.9687 34.8931 94.4733 35.1203C94.9724 35.3514 95.4765 35.4109 95.9748 35.3045C96.4764 35.1981 96.9336 34.8994 97.3457 34.412C97.7545 33.9233 97.9897 33.19 98.0509 32.2126ZM92.8523 26.9474C92.8523 29.0526 93.4603 30.2205 94.6772 30.4507C95.8911 30.6763 96.7896 30.3941 97.3672 29.6017C97.6408 29.2685 97.8376 28.7392 97.9592 28.0241C98.0804 27.3069 98.0897 26.596 97.9824 25.8949C97.8777 25.1907 97.6261 24.5652 97.23 24.0148C96.8361 23.467 96.258 23.1903 95.4972 23.1903C94.4635 23.1903 93.7651 23.5734 93.3999 24.3346C93.0326 25.0991 92.8523 25.9688 92.8523 26.9474ZM68.6261 35.4948C68.6261 35.9231 68.4711 36.2897 68.1595 36.5947C67.8517 36.9005 67.4801 37.053 67.0452 37.053H65.4678V26.0726C65.4678 23.9374 66.1877 22.6002 67.3716 21.6962C68.1545 21.099 69.3198 20.5288 71.5045 20.5288C72.9789 20.5288 74.7063 21.1015 75.6386 22.2394C76.6857 23.5193 77.1219 24.9448 77.1219 26.8075C77.1219 28.734 76.6583 30.288 75.7306 31.4829C74.8017 32.6453 73.6093 33.224 72.1535 33.224C71.3808 33.224 70.6997 33.0867 70.1115 32.8126C69.4908 32.506 68.9977 32.0325 68.6261 31.3904V35.4948ZM73.919 26.946C73.919 25.754 73.6876 24.8378 73.221 24.1954C72.7566 23.5559 72.092 23.2327 71.2251 23.2327C70.3895 23.2327 69.7389 23.5563 69.2727 24.1954C68.8412 24.777 68.6259 25.6953 68.6259 26.946C68.6259 28.1096 68.8568 28.9776 69.3217 29.5588C69.7845 30.2009 70.4516 30.5219 71.3176 30.5219C72.1215 30.5219 72.7566 30.2004 73.221 29.5588C73.6876 28.9168 73.919 28.0488 73.919 26.946ZM83.525 20.5765C84.8462 20.5765 86.0221 20.8405 87.0494 21.36C88.0767 21.8838 88.5897 22.8705 88.5897 24.3209V28.8422C88.587 28.8776 88.5845 28.9189 88.5818 28.9655C88.5205 29.9924 88.3069 33.5748 81.736 33.281C80.6407 33.2303 79.7329 32.9689 79.0202 32.3463C78.3045 31.7237 77.9485 30.8413 77.9485 29.7009C77.9485 28.2217 78.5219 27.1505 79.6734 26.4874C80.3012 26.1266 81.2306 25.8677 82.4534 25.7127L83.5305 25.5813C84.1183 25.507 84.5371 25.4158 84.7883 25.3051C85.2418 25.1129 85.4673 24.8155 85.4673 24.4101C85.4673 23.9167 85.2925 23.5758 84.9471 23.3887C84.6 23.1995 84.0921 23.1066 83.4173 23.1066C82.6653 23.1066 82.1325 23.2907 81.8192 23.6591C81.5946 23.9302 81.4463 24.2985 81.3716 24.7632H78.3324C78.4008 23.7097 78.6967 22.8451 79.2207 22.1672C80.0568 21.1083 81.4907 20.5765 83.525 20.5765ZM84.551 30.3958C85.1299 29.9983 85.4317 29.2743 85.4516 28.2213V27.0488C85.2515 27.1755 85.0505 27.276 84.8423 27.3512C84.6396 27.4294 84.3584 27.5012 83.9999 27.5696L83.2834 27.7018C82.6116 27.818 82.1307 27.9624 81.836 28.1314C81.3403 28.419 81.0924 28.8651 81.0924 29.4674C81.0924 30.0051 81.2436 30.3945 81.5472 30.634C81.8495 30.8718 82.2177 30.993 82.6526 30.993C83.3387 30.993 83.9725 30.7937 84.551 30.3958Z" fill="#00B0EA"/>
</svg>
