<?xml version="1.0" encoding="UTF-8"?>
<svg width="100px" height="54px" viewBox="0 0 100 54" version="1.1" xmlns="http://www.w3.org/2000/svg" xmlns:xlink="http://www.w3.org/1999/xlink">
    <!-- Generator: Sketch 52.4 (67378) - http://www.bohemiancoding.com/sketch -->
    <title>Artboard</title>
    <desc>Created with Sketch.</desc>
    <g id="Artboard" stroke="none" stroke-width="1" fill="none" fill-rule="evenodd">
        <path d="M0.441304348,25.925 C0.62173913,25.0782609 0.789130435,24.2282609 1.14347826,23.4304348 C2.43043478,20.5336957 4.59130435,18.6630435 7.74130435,18.1782609 C10.0456522,17.823913 12.2706522,18.2391304 14.2391304,19.6119565 C14.9836957,20.1315217 15.6913043,20.1119565 16.4554348,19.5847826 C21.4163043,16.1630435 28.2532609,18.423913 29.998913,24.5630435 C30.2663043,25.5043478 30.3815217,26.4652174 30.3826087,27.4402174 C30.3880435,31.8913043 30.3902174,36.3423913 30.3934783,40.7934783 C30.3945652,41.8206522 30.0445652,42.1717391 29.0293478,42.1728261 C27.9793478,42.173913 26.9282609,42.176087 25.8782609,42.1717391 C25.0793478,42.1684783 24.6913043,41.7815217 24.6913043,40.9891304 C24.6934783,36.3152174 24.6934783,31.6402174 24.7032609,26.9663043 C24.7065217,25.1456522 23.2869565,23.6652174 21.5032609,23.6565217 C19.7152174,23.6467391 18.2597826,25.1021739 18.2597826,26.9184783 C18.2576087,31.5532609 18.2630435,36.1880435 18.2652174,40.823913 C18.2652174,41.8184783 17.9108696,42.1728261 16.9152174,42.173913 C15.8652174,42.175 14.8141304,42.1771739 13.7641304,42.1728261 C12.9521739,42.1695652 12.5619565,41.7771739 12.5608696,40.9597826 C12.5576087,36.4826087 12.5423913,32.0043478 12.5663043,27.5271739 C12.5706522,26.6217391 12.501087,25.7684783 11.9347826,25.0282609 C11.0576087,23.8826087 9.89456522,23.426087 8.49565217,23.7619565 C7.15652174,24.0836957 6.31521739,24.9652174 5.98586957,26.3130435 C5.91413043,26.6065217 5.89130435,26.9076087 5.8923913,27.2108696 C5.89673913,31.2021739 5.89565217,35.1945652 5.90217391,39.1858696 C5.90326087,39.7630435 5.95869565,40.3391304 5.94891304,40.9152174 C5.93369565,41.7956522 5.53043478,42.1706522 4.64673913,42.1728261 C3.675,42.175 2.70326087,42.1543478 1.73152174,42.1804348 C1.16413043,42.1956522 0.732608696,42.0195652 0.441304348,41.5271739 C0.441304348,36.3271739 0.441304348,31.126087 0.441304348,25.925 Z M69.1543478,53.9782609 C68.576087,53.7619565 68.3434783,53.348913 68.3445652,52.7304348 C68.3543478,45.0358696 68.3434783,37.3413043 68.3532609,29.6456522 C68.3597826,24.326087 72.0402174,19.5706522 77.0728261,18.3402174 C82.3728261,17.0456522 87.6717391,19.5054348 90.1130435,24.3923913 C92.5380435,29.2478261 91.6413043,35.2228261 87.8793478,38.8967391 C85.4597826,41.2586957 82.5119565,42.323913 79.1380435,42.15 C77.8608696,42.0847826 76.6206522,41.7869565 75.4413043,41.2673913 C75.2978261,41.2043478 75.1532609,41.1347826 75.0032609,41.0923913 C74.5771739,40.973913 74.3847826,41.1195652 74.3663043,41.5641304 C74.3597826,41.7217391 74.3619565,41.8793478 74.3619565,42.0369565 C74.3619565,45.5826087 74.3554348,49.1282609 74.3684783,52.6728261 C74.3706522,53.2978261 74.1521739,53.7380435 73.5663043,53.976087 C72.0956522,53.9782609 70.625,53.9782609 69.1543478,53.9782609 Z M85.625,30.1304348 C85.6478261,28.8945652 85.3021739,27.7673913 84.6673913,26.7228261 C82.8217391,23.6869565 78.8717391,23.0391304 76.3217391,25.35 C73.8097826,27.626087 73.4847826,31.4021739 75.5706522,34.075 C77.3771739,36.3902174 80.4434783,36.9543478 82.8478261,35.3608696 C84.7043478,34.1304348 85.5652174,32.3326087 85.625,30.1304348 Z M33.2706522,30.2630435 C33.2869565,26.7304348 34.3336957,23.8521739 36.598913,21.4858696 C38.7804348,19.2065217 41.4826087,18.0532609 44.6543478,18.0228261 C47.9869565,17.9913043 50.823913,19.1706522 53.1021739,21.5880435 C54.9619565,23.5608696 55.9902174,25.9402174 56.2586957,28.6467391 C56.5391304,31.4673913 56.0271739,34.1228261 54.5206522,36.5347826 C52.4717391,39.8152174 49.5032609,41.6521739 45.6304348,41.9402174 C42.1271739,42.201087 39.1119565,41.0815217 36.6565217,38.5619565 C34.3434783,36.1858696 33.301087,33.2880435 33.2706522,30.2630435 Z M50.3326087,30.1434783 C50.3728261,28.8706522 49.9826087,27.7336957 49.3054348,26.6826087 C47.601087,24.0347826 44.1271739,23.426087 41.676087,25.3456522 C38.9978261,27.4434783 38.6032609,31.5097826 40.8271739,34.0956522 C42.551087,36.1 45.2271739,36.6217391 47.4,35.3326087 C49.3597826,34.1695652 50.276087,32.3902174 50.3326087,30.1434783 Z M65.1565217,31.1826087 C65.1565217,33.7684783 65.1532609,36.3532609 65.1586957,38.9391304 C65.1597826,39.5684783 65.2097826,40.1967391 65.2076087,40.826087 C65.2054348,41.8032609 64.8173913,42.173913 63.8369565,42.175 C62.7869565,42.176087 61.7369565,42.1782609 60.6869565,42.173913 C59.8847826,42.1706522 59.4684783,41.7717391 59.4673913,40.9619565 C59.4663043,39.9391304 59.5141304,38.9163043 59.5152174,37.8945652 C59.5206522,31.7782609 59.5173913,25.6630435 59.5173913,19.5467391 C59.5173913,19.4152174 59.5163043,19.2847826 59.5173913,19.1532609 C59.5271739,18.2434783 59.9304348,17.8902174 60.8097826,18.0663043 C63.0076087,18.5076087 64.3717391,19.8521739 64.9815217,21.9858696 C65.1184783,22.4663043 65.1576087,22.9641304 65.1565217,23.4663043 C65.1532609,26.0380435 65.1565217,28.6097826 65.1565217,31.1826087 Z M59.5195652,12.4206522 C59.5228261,10.901087 60.9402174,9.50543478 62.4706522,9.51413043 C63.9402174,9.52282609 65.3641304,10.9391304 65.3782609,12.4054348 C65.3923913,13.898913 63.8967391,15.3913043 62.4065217,15.3717391 C60.9152174,15.3521739 59.5163043,13.9217391 59.5195652,12.4206522 Z" id="Combined-Shape" fill="#142D49"></path>
        <path d="M99.4913043,8.41956522 C99.6891304,7.675 99.4597826,7.04021739 98.6815217,5.87173913 C98.6771739,5.86630435 98.673913,5.86195652 98.6706522,5.85543478 C97.9,4.71413043 96.8141304,3.83586957 95.6815217,3.00543478 C94.2184783,1.93152174 92.6293478,1.11086957 90.8826087,0.629347826 C90.8706522,0.625 90.8586957,0.620652174 90.8467391,0.616304348 C89.8967391,0.318478261 88.4565217,0.106521739 87.5728261,1.11195652 C87.5706522,1.11413043 87.5695652,1.11630435 87.5673913,1.11847826 C87.3456522,1.325 87.1532609,1.5673913 86.9913043,1.84565217 C86.9380435,1.93695652 86.8891304,2.02934783 86.8391304,2.12282609 C86.5434783,2.62717391 86.4445652,2.96847826 86.4445652,2.96847826 L86.4478261,2.96847826 C86.375,3.15434783 86.3065217,3.34347826 86.2478261,3.53586957 C85.5663043,5.79673913 85.4706522,8.1076087 85.7152174,10.4358696 C85.8391304,11.6130435 86.1108696,12.7619565 86.6586957,13.8315217 C87.2586957,15.0021739 88.201087,15.5478261 89.5097826,15.4391304 C89.875,15.4086957 90.2413043,15.3521739 90.5967391,15.2663043 C92.7945652,14.7358696 94.7195652,13.6608696 96.4826087,12.2771739 C97.3184783,11.6217391 98.0913043,10.9130435 98.6804348,10.0619565 L98.6815217,10.0641304 C98.6815217,10.0641304 98.9304348,9.75326087 99.226087,9.10543478 C99.25,9.05326087 99.2728261,9 99.2956522,8.94565217 C99.323913,8.87934783 99.3532609,8.81413043 99.3815217,8.7423913 C99.4108696,8.66956522 99.4304348,8.60108696 99.4521739,8.53043478 C99.4630435,8.49673913 99.4782609,8.46630435 99.4891304,8.4326087 C99.4913043,8.42826087 99.4913043,8.42391304 99.4913043,8.41956522 Z" id="Path" fill="#209AD4"></path>
        <path d="M90.051087,10.6445652 C89.8945652,10.8 89.7076087,10.8815217 89.5032609,10.8706522 C89.1434783,10.8804348 88.8967391,10.7173913 88.7641304,10.4195652 C88.6336957,10.126087 88.6521739,9.81956522 88.8815217,9.57391304 C89.1847826,9.24782609 89.5097826,8.94130435 89.8206522,8.62065217 C90.275,8.15217391 90.2771739,7.70978261 89.8282609,7.24565217 C89.5369565,6.94347826 89.2293478,6.65652174 88.9413043,6.35108696 C88.598913,5.98804348 88.6032609,5.56304348 88.9358696,5.23586957 C89.2847826,4.8923913 89.6706522,4.88695652 90.0434783,5.25217391 C90.7554348,5.94891304 91.4619565,6.65434783 92.1576087,7.3673913 C92.5021739,7.72065217 92.5054348,8.17717391 92.1630435,8.52826087 C91.4684783,9.24130435 90.7565217,9.94021739 90.051087,10.6445652 Z M95.9119565,8.4923913 C95.2054348,9.21521739 94.4847826,9.92391304 93.7706522,10.6380435 C93.6152174,10.7934783 93.4315217,10.8847826 93.2652174,10.8717391 C92.8663043,10.876087 92.6336957,10.7086957 92.4891304,10.4130435 C92.3315217,10.0902174 92.4065217,9.78913043 92.6347826,9.53804348 C92.926087,9.2173913 93.2413043,8.91956522 93.5445652,8.61086957 C94.0163043,8.13043478 94.0184783,7.72826087 93.55,7.25108696 C93.2554348,6.95108696 92.951087,6.66195652 92.6619565,6.3576087 C92.3282609,6.00543478 92.3195652,5.59673913 92.6217391,5.2673913 C92.9445652,4.91521739 93.3815217,4.86413043 93.7391304,5.20434783 C94.4891304,5.91956522 95.2228261,6.65326087 95.9391304,7.40217391 C96.2695652,7.74891304 96.2467391,8.15 95.9119565,8.4923913 Z" id="Combined-Shape" fill="#FFFFFF"></path>
    </g>
</svg>