<svg width="38" height="20" viewBox="0 0 38 20" fill="none" xmlns="http://www.w3.org/2000/svg">
<path d="M9.68665 0.000472255C8.94918 0.0140919 8.17303 0.179617 7.44402 0.507321C6.71825 0.83469 6.04318 1.31195 5.44515 1.86998C4.85101 2.43166 4.32773 3.0638 3.86881 3.73948C3.40826 4.41549 3.00556 5.12939 2.65811 5.84994C2.30839 6.5665 2.0162 7.29767 1.75619 8.01024C1.49585 8.72282 1.28328 9.42011 1.09802 10.0875C0.911462 10.7545 0.762277 11.3916 0.634869 11.9819C0.382005 13.1618 0.226648 14.1582 0.131092 14.8568C0.0855887 15.2041 0.0524329 15.4743 0.0335811 15.6627C0.0111421 15.8502 0.0010814 15.9536 0.0010814 15.9536C-0.0073736 16.0187 0.0345582 16.0769 0.0985863 16.0865C0.163916 16.1001 0.228269 16.0539 0.23672 15.9868C0.23672 15.9868 0.25687 15.8907 0.285473 15.7043C0.312774 15.5182 0.35828 15.2423 0.415483 14.8983C0.540615 14.211 0.719698 13.2362 1.01676 12.0816C1.16432 11.504 1.34536 10.8788 1.55305 10.2287C1.75944 9.58163 1.9941 8.90495 2.27622 8.21797C2.55541 7.53398 2.87067 6.83703 3.23502 6.15736C3.59741 5.4767 4.00987 4.808 4.47009 4.18816C4.92707 3.56532 5.43735 2.997 5.99768 2.50976C6.55606 2.02685 7.17067 1.63234 7.80154 1.37975C8.42915 1.12617 9.07756 1.02746 9.68665 1.03909C10.2944 1.0557 10.87 1.183 11.3767 1.37144C11.8867 1.56221 12.3261 1.8055 12.7093 2.04446C13.0909 2.28741 13.414 2.51741 13.6681 2.7258C13.7006 2.75105 13.7273 2.77532 13.7575 2.80057C13.7335 2.81087 13.7075 2.81486 13.6844 2.8255C13.4019 2.94216 13.1341 3.08939 12.8718 3.24925C12.6095 3.40446 12.3554 3.58294 12.1162 3.77271C11.8783 3.96282 11.6478 4.17354 11.4336 4.38757C11.2178 4.59995 11.015 4.81565 10.8242 5.04398C10.4387 5.50097 10.1069 5.98653 9.80853 6.46479C9.21862 7.42796 8.79577 8.38448 8.4922 9.23165C8.18896 10.0808 8.01053 10.818 7.93155 11.3421C7.89157 11.6043 7.87174 11.8044 7.86654 11.9487C7.8623 12.0241 7.86654 12.0294 7.86654 12.065C7.86654 12.1006 7.86654 12.1065 7.86654 12.1065C7.86654 12.1657 7.914 12.2112 7.97217 12.2146C8.03198 12.2179 8.08398 12.1727 8.08593 12.1148C8.08593 12.1148 8.08373 12.0906 8.08593 12.0567C8.08783 12.0211 8.08688 12.0304 8.09406 11.9653C8.10577 11.8337 8.13176 11.6353 8.18344 11.3837C8.28127 10.8851 8.48344 10.1762 8.81723 9.3646C9.15005 8.55631 9.60995 7.63602 10.2229 6.73899C10.5275 6.29031 10.8726 5.84794 11.2549 5.43449C11.4447 5.2271 11.6364 5.03301 11.848 4.84456C12.0577 4.65512 12.2777 4.47465 12.5062 4.31279C12.7318 4.14828 12.97 3.9944 13.2131 3.86411C13.4533 3.73217 13.6987 3.62216 13.9525 3.53176C14.0767 3.48323 14.208 3.44701 14.3344 3.40712C14.364 3.39947 14.3871 3.38917 14.4157 3.3822C14.5148 3.35795 14.6162 3.33234 14.7163 3.31572C14.8437 3.29046 14.9718 3.27651 15.0982 3.25756C15.1603 3.24857 15.2221 3.24027 15.2851 3.23264C15.3339 3.2283 15.38 3.22663 15.4314 3.22432H15.4801C15.7297 3.20868 15.9784 3.23662 16.2195 3.25755C16.4587 3.29045 16.6869 3.33067 16.9102 3.3905C17.361 3.50649 17.7767 3.66934 18.1453 3.84749C18.5171 4.02729 18.8454 4.21906 19.1285 4.40418C19.2679 4.50023 19.3992 4.58797 19.5185 4.67837C19.6365 4.76578 19.7466 4.84954 19.8435 4.92764C19.9371 5.00409 20.0288 5.0679 20.1035 5.12706C20.1763 5.18788 20.2329 5.23973 20.2823 5.28493C20.3847 5.37101 20.4448 5.41787 20.4448 5.41787L20.4529 5.43448C20.4581 5.43881 20.4708 5.43947 20.4773 5.44279C20.7172 5.62792 21.0587 5.58106 21.2411 5.33478C21.4221 5.08917 21.3756 4.74152 21.1355 4.55374C21.1355 4.55374 21.0685 4.51021 20.9567 4.4208C20.8988 4.37892 20.8348 4.32807 20.7536 4.26293C20.6694 4.20211 20.5706 4.13331 20.461 4.05521C20.3544 3.97544 20.2293 3.89302 20.0954 3.80594C19.9641 3.71454 19.8146 3.6288 19.6566 3.53175C19.3329 3.34264 18.9621 3.13724 18.5353 2.95843C18.1108 2.7763 17.6288 2.60979 17.1052 2.50145C16.8416 2.44661 16.5748 2.41337 16.2927 2.39343C16.0115 2.37948 15.7242 2.37249 15.4314 2.40175C15.3608 2.40707 15.2897 2.40971 15.2201 2.41836C15.1831 2.38678 15.1285 2.33726 15.0495 2.26879C14.977 2.20565 14.8837 2.13054 14.7732 2.04446C14.6617 1.95804 14.5395 1.85834 14.3913 1.75364C14.1027 1.53429 13.7335 1.28436 13.2944 1.03077C12.8507 0.776186 12.3226 0.524589 11.718 0.324511C11.1141 0.129749 10.4238 -0.00916642 9.68665 0.000472255ZM35.2331 8.10165C34.9257 8.10165 34.4898 8.23293 34.2581 8.35091L34.1443 8.40908L34.2175 8.74144C33.7836 9.58728 29.0565 18.9664 29.009 19.0611C28.8322 19.3745 28.7084 19.6261 28.7084 19.6261C28.6609 19.7095 28.6583 19.7866 28.6921 19.8421C28.7279 19.9073 28.8062 19.9335 28.9359 19.9335H29.846C30.1661 19.9335 30.2246 19.8521 30.3172 19.6842L31.9179 16.4106H34.055C34.55 16.3983 34.9949 15.8844 35.0056 15.3055V15.1393H32.5761L34.7781 10.6691L36.4113 19.5015C36.5017 19.9352 36.5417 20 36.7607 20C36.9609 20 37.3727 19.8827 37.6708 19.7923L37.8171 19.7424C37.9519 19.7005 38.0179 19.6071 37.9958 19.4931L35.8263 8.67496C35.6895 8.16413 35.4239 8.10165 35.2331 8.10165ZM26.0757 8.10996C25.2677 8.10996 23.9781 8.30538 23.5568 8.45893L23.5406 8.46726C23.2783 8.66036 23.0742 9.11767 23.0449 9.37292C23.0455 9.43973 23.0953 9.51417 23.1912 9.51417C23.2029 9.51417 23.2894 9.50222 23.4106 9.48924H23.4268C23.5565 9.47661 23.7167 9.45202 23.8493 9.43939C23.7187 10.1729 23.4476 12.0288 23.1506 13.9844C22.8031 16.3165 22.4349 18.7211 22.2568 19.7092C22.2431 19.785 22.2616 19.8491 22.2974 19.9003C22.3533 19.9794 22.4501 19.9947 22.4924 20H23.5325C23.7369 20 23.8529 19.8431 23.89 19.7009C23.9023 19.6105 25.2131 10.7146 25.4501 9.28983C25.5986 9.28053 25.8654 9.28152 25.9864 9.28152C26.7534 9.28152 27.3742 9.51284 27.7821 9.94623C28.1728 10.363 28.371 10.9539 28.3428 11.6662C28.2699 13.529 27.3885 14.4746 25.7263 14.4746C25.4927 14.4746 25.3262 14.46 25.1576 14.3915C25.0542 14.3443 24.9921 14.3921 24.9869 14.5078C24.9639 14.8604 25.0857 15.1891 25.3119 15.3886C25.5092 15.5607 25.6997 15.6129 26.1651 15.6129C27.6511 15.6129 29.8976 14.5746 30.0085 11.6994C30.0527 10.6438 29.7871 9.79401 29.2122 9.18181C28.5462 8.47257 27.4883 8.10996 26.0757 8.10996ZM18.2184 8.11828C13.307 8.11828 11.3485 11.9686 11.2305 14.5577C11.1463 16.1769 11.5568 17.5313 12.4249 18.4712C13.3402 19.4626 14.755 19.9914 16.512 20H16.5852C17.5931 20 18.535 19.8614 19.6241 19.5513L19.7135 19.5264L19.7379 19.4267C19.7853 19.1575 19.8744 18.642 19.9816 18.0391C20.2205 16.7057 20.5182 15.0373 20.591 14.6657C20.6057 14.5434 20.6135 14.3875 20.5179 14.2752C20.4471 14.1878 20.3356 14.1529 20.1848 14.1505C20.0785 14.1505 19.5484 14.2031 19.4535 14.217C18.871 14.2998 18.0878 14.5068 18.0803 14.5078L18.064 14.5161C17.7692 14.7338 17.4933 15.5105 17.4627 15.7292C17.4575 15.7645 17.454 15.7914 17.4709 15.8123C17.5066 15.8609 17.5661 15.8954 17.6334 15.8954L17.9015 15.8622C18.092 15.8436 18.5776 15.7668 18.7628 15.7375C18.7553 15.7774 18.7501 15.8289 18.7384 15.8954C18.6471 16.472 18.4274 17.8154 18.259 18.6373C18.0071 18.7174 17.4393 18.8285 16.9265 18.8285C15.7034 18.8208 14.6994 18.4389 14.0338 17.7234C13.347 16.9786 13.022 15.9037 13.0831 14.6075C13.2232 11.5435 15.342 9.39785 18.2428 9.39785H18.2753C19.159 9.40317 19.9621 9.73121 20.2254 9.83823C20.3362 9.88341 20.4461 9.91301 20.5504 9.91301C21.0106 9.91301 21.2645 9.49125 21.3548 9.09873L21.3792 8.99903L21.3061 8.93256C20.7721 8.46061 19.5227 8.12493 18.2672 8.11829L18.2184 8.11828Z" fill="#004877"/>
</svg>
