<svg width="37" height="37" viewBox="0 0 37 37" fill="none" xmlns="http://www.w3.org/2000/svg">
<rect width="37" height="37" fill="#8A05BE"/>
<path d="M18.1046 15.2329C18.1046 12.6104 15.1571 11 13.0433 11C11.6281 11 10.7449 11.6914 10.7449 12.8041V13.5141H10.1498C9.10515 13.5141 8 14.6204 8 15.6658V23.6288C7.99975 23.7271 8.01892 23.8244 8.05643 23.9152C8.09394 24.006 8.14904 24.0886 8.21859 24.1582C8.28814 24.2278 8.37076 24.283 8.46174 24.3207C8.55271 24.3584 8.65025 24.3779 8.74878 24.3779H10.6889C10.7005 24.3779 10.7114 24.3779 10.723 24.3779C10.9151 24.3694 11.0965 24.2874 11.2296 24.149C11.3627 24.0105 11.4372 23.8263 11.4377 23.6346C11.4377 23.6346 11.4377 15.9455 11.4377 14.2106H13.0529C13.4811 14.2111 13.8916 14.381 14.1943 14.6829C14.497 14.9848 14.6672 15.3941 14.6676 15.821V23.6288C14.6673 23.7272 14.6865 23.8246 14.7241 23.9155C14.7617 24.0064 14.8169 24.0891 14.8866 24.1586C14.9563 24.2282 15.0391 24.2834 15.1302 24.3211C15.2213 24.3587 15.319 24.378 15.4176 24.3779H17.359C17.5576 24.3778 17.7479 24.2991 17.8883 24.1591C18.0287 24.0191 18.1076 23.8293 18.1078 23.6314C18.1085 20.1572 18.1046 15.2329 18.1046 15.2329ZM8.87679 23.6846C8.82811 23.6846 8.78141 23.6654 8.74692 23.6311C8.71244 23.5969 8.69298 23.5504 8.69281 23.5019V15.6658C8.69281 15.0104 9.49626 14.2048 10.1498 14.2048H10.7449C10.7449 19.9443 10.7449 22.881 10.7449 23.5044C10.7445 23.5529 10.725 23.5993 10.6906 23.6335C10.6561 23.6677 10.6095 23.687 10.5609 23.6872L8.87679 23.6846ZM17.415 23.5031C17.415 23.5271 17.4103 23.5508 17.401 23.5729C17.3918 23.595 17.3783 23.6151 17.3612 23.6319C17.3442 23.6488 17.324 23.6621 17.3017 23.6712C17.2795 23.6802 17.2557 23.6848 17.2317 23.6846H15.545C15.4964 23.6845 15.4499 23.6652 15.4155 23.6309C15.3812 23.5967 15.3618 23.5503 15.3617 23.5019V15.8146C15.3617 15.5124 15.3019 15.2131 15.1859 14.934C15.0699 14.6548 14.8998 14.4011 14.6854 14.1875C14.471 13.9738 14.2165 13.8044 13.9364 13.6888C13.6563 13.5733 13.3561 13.5139 13.0529 13.5141H11.4377V12.7996C11.4377 12.3853 11.6461 11.6907 13.0459 11.6907C15.7528 11.6907 17.4144 13.754 17.4144 15.2329C17.4118 15.2329 17.4156 20.0405 17.415 23.5031ZM28.8827 13.4981H26.9432C26.7447 13.4982 26.5543 13.5769 26.4139 13.7169C26.2736 13.8569 26.1946 14.0467 26.1944 14.2446V23.6725H24.5779C24.1498 23.6719 23.7394 23.5022 23.4367 23.2004C23.1341 22.8986 22.9638 22.4894 22.9633 22.0627V14.2446C22.9631 14.0467 22.8842 13.8569 22.7438 13.7169C22.6034 13.5769 22.413 13.4982 22.2145 13.4981H20.2731C20.0745 13.4982 19.8841 13.5769 19.7436 13.7169C19.6031 13.8568 19.524 14.0466 19.5237 14.2446C19.5237 17.6521 19.5269 22.6412 19.5269 22.6412C19.5269 25.2636 22.475 26.8741 24.5888 26.8741C26.004 26.8741 26.8866 26.1827 26.8866 25.07V24.3613H27.4816C28.5263 24.3613 29.6315 23.2556 29.6315 22.2102V14.2446C29.6306 14.047 29.5514 13.8578 29.4111 13.7183C29.2708 13.5788 29.0809 13.5003 28.8827 13.5V13.4981ZM26.1938 25.0738C26.1938 25.4881 25.9854 26.1827 24.5888 26.1827C21.8819 26.1827 20.2197 24.1201 20.2197 22.6412C20.2197 22.6412 20.2165 17.8573 20.2165 14.3677C20.2166 14.3438 20.2214 14.32 20.2307 14.2979C20.24 14.2758 20.2536 14.2558 20.2707 14.2389C20.2878 14.222 20.308 14.2087 20.3303 14.1997C20.3526 14.1906 20.3764 14.1861 20.4005 14.1862H22.0865C22.1353 14.1862 22.1821 14.2056 22.2166 14.24C22.2511 14.2744 22.2705 14.321 22.2705 14.3697V22.0607C22.2705 22.6709 22.5136 23.256 22.9463 23.6875C23.379 24.1189 23.9659 24.3613 24.5779 24.3613H26.1944L26.1938 25.0738ZM28.9419 22.2102C28.9419 22.865 28.1384 23.6705 27.4849 23.6705H26.8898C26.8898 19.6621 26.8898 15.1694 26.8898 14.3709C26.8899 14.3471 26.8947 14.3234 26.904 14.3014C26.9133 14.2794 26.9268 14.2594 26.9438 14.2426C26.9609 14.2258 26.9811 14.2125 27.0033 14.2035C27.0254 14.1945 27.0492 14.1899 27.0732 14.1901H28.7553C28.7796 14.1898 28.8037 14.1944 28.8263 14.2034C28.8488 14.2125 28.8693 14.2259 28.8867 14.2429C28.904 14.2598 28.9178 14.2801 28.9273 14.3024C28.9368 14.3247 28.9417 14.3486 28.9419 14.3729V22.2102Z" fill="white" stroke="white" stroke-width="0.2"/>
</svg>
