<svg width="33px" height="18px" viewBox="0 0 33 18" version="1.1" xmlns="http://www.w3.org/2000/svg" xmlns:xlink="http://www.w3.org/1999/xlink">
    <g id="Page-1" stroke="none" stroke-width="1" fill="none" fill-rule="evenodd">
        <g id="Artboard" transform="translate(-243.000000, -194.000000)" fill="#820AD1" fill-rule="nonzero">
            <g id="Group" transform="translate(243.000000, 194.000000)">
                <path d="M5.95728065,1.66659467 C7.00088605,0.614542819 8.3851837,0 10.0114796,0 C13.1796846,0 15.2802319,2.21966341 15.6821129,5.54485861 C15.8124107,6.62468804 15.8112071,8.14712621 15.8099064,9.91047553 C15.8096541,10.0913045 15.8096541,10.2747153 15.8096541,10.4603975 L15.8096541,17.0662552 L11.4527729,17.0662552 L11.4527729,12.1803595 C11.4527729,12.1803595 11.4438819,7.99871639 11.4172671,7.21720137 C11.3003252,3.8134237 9.20036028,1.67465287 5.95687298,1.67235441 C4.9782806,2.66442695 4.45394454,3.87742725 4.3766239,5.73211316 C4.36598576,5.99080632 4.36866471,6.90774409 4.37219782,8.11622124 C4.37402261,8.74235731 4.37608035,9.44678464 4.3766239,10.1784479 C4.3798464,13.3631149 4.3766239,17.0669735 4.3766239,17.0669735 L0.0197253991,17.0669735 L0.0197253991,9.54761402 C0.0197253991,9.28996914 0.0148284964,9.03013064 0.00992031489,8.76926326 C1.72419092e-15,8.24451954 -0.00992070887,7.71573799 0.0197253991,7.19213962 C0.0689510616,6.3192686 0.226310892,5.46120944 0.650778495,4.66408663 C1.62237844,2.83791793 3.61318207,1.66211811 5.7355492,1.66211811 C5.80968617,1.66211811 5.88388137,1.66376236 5.95728065,1.66648596 L5.95728065,1.66659467 Z" id="Path"></path>
                <path d="M32.9803689,10.2789861 C33.0098761,9.75538776 33,9.22654797 32.9900752,8.70186249 C32.985222,8.44099511 32.9803689,8.18115661 32.9803689,7.92351173 L32.9803689,0.404148368 L28.6233906,0.404148368 C28.6233906,0.404148368 28.6202845,4.10799146 28.6233906,7.29261957 C28.6239729,8.02430228 28.6261083,8.72867138 28.6278555,9.35480744 C28.6313498,10.5633428 28.6340675,11.4802612 28.6233906,11.7389543 C28.5461282,13.5937179 28.0217921,14.8066794 27.0431997,15.798783 C23.7997318,15.7966088 21.699864,13.6576438 21.5828056,10.2539244 C21.5562103,9.47240936 21.5449509,7.533026 21.5449509,5.28684489 L21.5449509,0.400954984 L17.1913504,0.404771514 L17.1913504,7.01065062 C17.1913504,7.19633275 17.1910981,7.37968536 17.1910981,7.56057257 C17.1897198,9.32392189 17.1885938,10.8463018 17.3188916,11.9261895 C17.7199184,15.2514041 19.820524,17.4710481 22.9886707,17.4710481 C24.6150637,17.4710481 25.9993808,16.856482 27.0430056,15.8044321 C27.1161913,15.8071498 27.1903477,15.8087999 27.2645041,15.8087999 C29.3868906,15.8087999 31.3776593,14.6330137 32.3492632,12.8068644 C32.7738181,12.0096834 32.9310607,11.151663 32.9803689,10.278792 L32.9803689,10.2789861 Z" id="Path"></path>
            </g>
        </g>
    </g>
</svg>