<svg width="70" height="14" viewBox="0 0 70 14" fill="none" xmlns="http://www.w3.org/2000/svg">
<path fill-rule="evenodd" clip-rule="evenodd" d="M13.8255 5.01463C13.8255 4.68882 13.9184 4.45419 14.1037 4.309C14.2895 4.16381 14.5515 4.0918 14.8883 4.0918C15.0968 4.0918 15.2885 4.11735 15.4627 4.16962C15.6363 4.22247 15.7525 4.25964 15.8111 4.28287V8.86216C15.8111 9.652 15.9958 10.2537 16.3681 10.6648C16.7398 11.0766 17.3083 11.2834 18.0749 11.2834C18.841 11.2834 19.4095 11.0766 19.7812 10.6648C20.1529 10.2537 20.3387 9.652 20.3387 8.86216V5.01463C20.3387 4.68882 20.4311 4.45419 20.6169 4.309C20.8028 4.16381 21.0577 4.0918 21.383 4.0918C21.6042 4.0918 21.8011 4.11735 21.9747 4.16962C22.1496 4.22247 22.2657 4.25964 22.3232 4.28287V9.29773C22.3232 9.89011 22.2216 10.4209 22.0189 10.8913C21.815 11.3618 21.5258 11.759 21.1483 12.0836C20.7714 12.4089 20.3213 12.6557 19.7986 12.8241C19.2765 12.992 18.7016 13.0767 18.0749 13.0767C17.4477 13.0767 16.8733 12.992 16.3512 12.8241C15.828 12.6557 15.3814 12.4089 15.0097 12.0836C14.638 11.759 14.3482 11.3618 14.1391 10.8913C13.9306 10.4209 13.8255 9.89011 13.8255 9.29773V5.01463Z" fill="#EE6513"/>
<path fill-rule="evenodd" clip-rule="evenodd" d="M23.8907 2.54002C23.8907 2.21421 23.9831 1.98016 24.1695 1.83439C24.3547 1.6892 24.6103 1.61719 24.9355 1.61719C25.144 1.61719 25.338 1.64274 25.5186 1.69559C25.6986 1.74786 25.8171 1.78561 25.8758 1.80826V4.08948H28.4009C28.7842 4.08948 29.0537 4.16789 29.2105 4.32411C29.3673 4.4815 29.4445 4.70974 29.4445 5.01231C29.4445 5.21035 29.4167 5.39213 29.3586 5.56055C29.2999 5.72897 29.2535 5.84803 29.2192 5.91772H25.8758V9.80126C25.8758 10.1027 25.9158 10.3495 25.9977 10.5406C26.079 10.7322 26.1917 10.8861 26.3369 11.0017C26.4827 11.1184 26.6505 11.1997 26.8421 11.2468C27.0332 11.2927 27.2342 11.3153 27.4421 11.3153C27.7795 11.3153 28.0931 11.2636 28.3829 11.1591C28.6727 11.0545 28.8829 10.9558 29.0101 10.8635L29.811 12.1864C29.7181 12.2561 29.588 12.3438 29.4196 12.4478C29.2506 12.5523 29.045 12.6511 28.801 12.7434C28.5571 12.8369 28.2842 12.9147 27.9828 12.9792C27.6808 13.0425 27.3503 13.0744 26.9908 13.0744C25.9687 13.0744 25.1968 12.8108 24.6747 12.2817C24.1515 11.7549 23.8907 11.0609 23.8907 10.2014V2.54002Z" fill="#EE6513"/>
<path fill-rule="evenodd" clip-rule="evenodd" d="M35.2961 11.2842C35.6904 11.2842 36.0534 11.2116 36.3844 11.0664C36.7149 10.9212 36.9994 10.7243 37.2375 10.474C37.4757 10.2243 37.6586 9.92868 37.7864 9.58545C37.9136 9.24396 37.9774 8.86995 37.9774 8.46284C37.9774 8.05631 37.9136 7.67881 37.7864 7.33036C37.6586 6.98248 37.4757 6.68397 37.2375 6.43424C36.9994 6.1851 36.7149 5.98764 36.3844 5.84245C36.0534 5.69726 35.6904 5.62408 35.2961 5.62408C34.8895 5.62408 34.5213 5.69726 34.1903 5.84245C33.8593 5.98764 33.5776 6.188 33.3459 6.44237C33.113 6.69849 32.9312 7.00048 32.7971 7.34836C32.6641 7.69682 32.5973 8.0685 32.5973 8.46284C32.5973 8.88041 32.6641 9.26371 32.7971 9.61158C32.9312 9.96062 33.1159 10.2562 33.3546 10.4996C33.5921 10.7435 33.8767 10.9351 34.2083 11.0745C34.5382 11.2145 34.9011 11.2842 35.2961 11.2842ZM30.6297 0.922828C30.6297 0.609798 30.722 0.377494 30.9078 0.226497C31.0931 0.0754989 31.355 0 31.6913 0C31.9004 0 32.092 0.0261342 32.2657 0.0784026C32.4399 0.131252 32.5555 0.16842 32.6147 0.191651V5.18909C32.9045 4.81741 33.3052 4.50147 33.8157 4.24013C34.3268 3.97879 34.9128 3.84754 35.5742 3.84754C36.2131 3.84754 36.8026 3.96137 37.3421 4.18786C37.8816 4.41436 38.3526 4.73378 38.7522 5.14554C39.1535 5.55788 39.4671 6.04513 39.6924 6.60789C39.9195 7.17123 40.0322 7.78916 40.0322 8.46284C40.0322 9.12432 39.916 9.74051 39.6843 10.3085C39.452 10.8776 39.1262 11.3655 38.7098 11.7714C38.291 12.178 37.7945 12.4974 37.2201 12.7291C36.6452 12.9614 36.0156 13.077 35.3309 13.077C34.6456 13.077 34.0161 12.973 33.4417 12.764C32.8662 12.5549 32.3714 12.2413 31.9526 11.8237C31.5345 11.4056 31.2098 10.8834 30.9775 10.2562C30.7452 9.62901 30.6297 8.8926 30.6297 8.04527V0.922828Z" fill="#EE6513"/>
<path fill-rule="evenodd" clip-rule="evenodd" d="M41.1989 7.21242C41.1989 6.1444 41.5265 5.3174 42.1828 4.73141C42.8384 4.14485 43.7473 3.85156 44.9077 3.85156C45.6394 3.85156 46.2341 3.95378 46.6929 4.15588C47.1517 4.35973 47.3811 4.66985 47.3811 5.08858C47.3811 5.28604 47.326 5.47711 47.2156 5.66237C47.1047 5.84822 47.0153 5.96437 46.9461 6.01083C46.7481 5.91791 46.5048 5.83079 46.2144 5.74949C45.924 5.66876 45.5924 5.62753 45.2213 5.62753C43.8641 5.62753 43.1846 6.34767 43.1846 7.78679V12.8371H41.1989V7.21242Z" fill="#EE6513"/>
<path fill-rule="evenodd" clip-rule="evenodd" d="M53.9972 8.93612C53.8817 8.91289 53.6639 8.87804 53.3445 8.83158C53.0245 8.7857 52.5465 8.76189 51.9077 8.76189C51.1178 8.76189 50.544 8.88095 50.184 9.11906C49.8239 9.35717 49.6439 9.73176 49.6439 10.2422C49.6439 10.4513 49.681 10.6424 49.7571 10.8172C49.8326 10.9914 49.9633 11.1389 50.1485 11.2615C50.3344 11.3829 50.587 11.4764 50.9064 11.5397C51.2258 11.6035 51.6237 11.6355 52.0999 11.6355C52.633 11.6355 53.057 11.6152 53.3706 11.5739C53.6836 11.5344 53.8933 11.5019 53.9972 11.4787V8.93612ZM55.9643 12.8022C55.8487 12.8249 55.6663 12.851 55.4166 12.8806C55.1675 12.9091 54.8736 12.9387 54.5373 12.9672C54.2005 12.9962 53.823 13.0223 53.4049 13.0462C52.9879 13.0682 52.5523 13.081 52.0999 13.081C51.1939 13.081 50.454 13.002 49.8791 12.8452C49.3047 12.689 48.8517 12.4799 48.5212 12.2186C48.1908 11.9572 47.9637 11.6558 47.8417 11.3126C47.7198 10.9711 47.6594 10.6197 47.6594 10.2591C47.6594 9.78345 47.732 9.36588 47.8772 9.00581C48.0218 8.64632 48.2599 8.34374 48.5904 8.10099C48.9214 7.85707 49.3541 7.67413 49.8878 7.55159C50.4221 7.42963 51.0725 7.36865 51.8385 7.36865C52.2788 7.36865 52.6975 7.38375 53.0912 7.41278C53.4862 7.44182 53.7823 7.46796 53.9798 7.49119C53.9798 7.08465 53.9124 6.74781 53.78 6.48124C53.6465 6.2141 53.4635 6.00502 53.2318 5.8546C52.9989 5.70361 52.7201 5.59907 52.3955 5.54099C52.0703 5.48292 51.7102 5.45388 51.3159 5.45388C50.6544 5.45388 50.123 5.52938 49.7223 5.68038C49.3221 5.83137 49.0584 5.95856 48.9301 6.06368C48.8604 6.00502 48.7646 5.89526 48.6426 5.73206C48.5212 5.57003 48.4603 5.37257 48.4603 5.14027C48.4603 4.97824 48.5038 4.81795 48.5904 4.66114C48.678 4.50492 48.8314 4.36554 49.0521 4.24358C49.2727 4.12162 49.5689 4.02637 49.94 3.9561C50.3117 3.88641 50.7821 3.85156 51.3495 3.85156C52.0354 3.85156 52.6592 3.91893 53.2225 4.05192C53.7864 4.1855 54.2702 4.39748 54.6761 4.68786C55.0827 4.97824 55.3986 5.36154 55.6251 5.83718C55.8516 6.31282 55.9643 6.88778 55.9643 7.56088V12.8022Z" fill="#EE6513"/>
<path fill-rule="evenodd" clip-rule="evenodd" d="M57.7404 5.02149C57.7404 4.69568 57.8339 4.46105 58.0192 4.31586C58.205 4.17067 58.4664 4.09866 58.8032 4.09866C59.0117 4.09866 59.2039 4.12421 59.3776 4.17648C59.5512 4.22933 59.6674 4.2665 59.726 4.28973V12.8397H57.7404V5.02149ZM58.7335 0.179688C59.0704 0.179688 59.3543 0.29584 59.5867 0.528725C59.8184 0.761029 59.9345 1.04502 59.9345 1.38128C59.9345 1.7187 59.8184 2.00269 59.5867 2.23442C59.3543 2.46788 59.0704 2.58345 58.7335 2.58345C58.3973 2.58345 58.1127 2.46788 57.8798 2.23442C57.6481 2.00269 57.5319 1.7187 57.5319 1.38128C57.5319 1.04502 57.6481 0.761029 57.8798 0.528725C58.1127 0.29584 58.3973 0.179688 58.7335 0.179688Z" fill="#EE6513"/>
<path fill-rule="evenodd" clip-rule="evenodd" d="M61.5023 7.56088C61.5023 6.9807 61.6097 6.46092 61.824 6.00212C62.0383 5.54332 62.3351 5.15479 62.712 4.83595C63.0895 4.51653 63.5367 4.27319 64.0536 4.10477C64.5693 3.93635 65.1355 3.85156 65.75 3.85156C66.3662 3.85156 66.9347 3.93635 67.4574 4.10477C67.9795 4.27319 68.4296 4.51653 68.8065 4.83595C69.1834 5.15479 69.4773 5.54332 69.6864 6.00212C69.8949 6.46092 70 6.9807 70 7.56088V12.8371H68.015V8.06556C68.015 7.27689 67.8227 6.6758 67.4406 6.26404C67.0567 5.8517 66.4934 5.64495 65.75 5.64495C64.9962 5.64495 64.4305 5.8517 64.0536 6.26404C63.6761 6.6758 63.4873 7.27689 63.4873 8.06556V12.8371H61.5023V7.56088Z" fill="#EE6513"/>
<path fill-rule="evenodd" clip-rule="evenodd" d="M9.34502 11.0843C8.96868 11.4537 8.52789 11.7423 8.02204 11.9525C7.5162 12.161 6.96622 12.2656 6.37326 12.2656C5.77973 12.2656 5.23033 12.161 4.72507 11.9525C4.21864 11.7423 3.77727 11.4537 3.40093 11.0843C3.0246 10.7161 2.72957 10.2805 2.51702 9.77816C2.31143 9.29323 2.20573 8.7688 2.19818 8.20604H3.19883C3.20928 8.37911 3.24645 8.54114 3.31092 8.6933C3.38816 8.87624 3.4956 9.03421 3.63149 9.16778C3.76797 9.30194 3.92884 9.40705 4.11236 9.48197C4.29588 9.55863 4.49567 9.59696 4.71113 9.59696C4.92659 9.59696 5.12521 9.55863 5.30931 9.48197C5.49283 9.40705 5.6537 9.30194 5.79018 9.16778C5.92666 9.03421 6.0341 8.87624 6.11076 8.6933C6.16245 8.57308 6.19613 8.44531 6.21298 8.31174H6.53355C6.5504 8.44531 6.58408 8.57308 6.63577 8.6933C6.71359 8.87624 6.81987 9.03421 6.95693 9.16778C7.09283 9.30194 7.2537 9.40705 7.43722 9.48197C7.62074 9.55863 7.82052 9.59696 8.0354 9.59696C8.25144 9.59696 8.45064 9.55863 8.63416 9.48197C8.81769 9.40705 8.97856 9.30194 9.11504 9.16778C9.25151 9.03421 9.35895 8.87624 9.43619 8.6933C9.50066 8.54114 9.53783 8.37911 9.54886 8.20604H10.5472C10.5414 8.7688 10.4351 9.29323 10.2295 9.77816C10.0164 10.2805 9.72135 10.7161 9.34502 11.0843ZM5.61131 8.10092C5.61131 8.22753 5.58808 8.34484 5.54278 8.45345C5.4969 8.56089 5.43359 8.65439 5.35171 8.73453C5.26982 8.81468 5.17516 8.87682 5.06655 8.92154C4.95679 8.96684 4.8389 8.98949 4.71113 8.98949C4.58278 8.98949 4.46431 8.96684 4.35512 8.92154C4.24652 8.87682 4.15128 8.81468 4.06997 8.73453C3.98808 8.65439 3.92478 8.56089 3.87948 8.45345C3.8336 8.34484 3.81037 8.22753 3.81037 8.10092C3.81037 7.97548 3.8336 7.85759 3.87948 7.74898C3.92478 7.64096 3.98808 7.54746 4.06997 7.46731C4.15128 7.38833 4.24652 7.32561 4.35512 7.28089C4.46431 7.23559 4.58278 7.21294 4.71113 7.21294C4.8389 7.21294 4.95679 7.23559 5.06655 7.28089C5.17516 7.32561 5.26982 7.38833 5.35171 7.46731C5.43359 7.54746 5.4969 7.64096 5.54278 7.74898C5.58808 7.85759 5.61131 7.97548 5.61131 8.10092ZM8.93616 8.10092C8.93616 8.22753 8.91351 8.34484 8.86705 8.45345C8.82175 8.56089 8.75787 8.65439 8.67714 8.73453C8.59583 8.81468 8.50001 8.87682 8.39083 8.92154C8.28222 8.96684 8.16375 8.98949 8.0354 8.98949C7.90763 8.98949 7.78916 8.96684 7.68056 8.92154C7.57079 8.87682 7.47555 8.81468 7.39482 8.73453C7.31352 8.65439 7.25021 8.56089 7.20375 8.45345C7.15787 8.34484 7.13522 8.22753 7.13522 8.10092C7.13522 7.97548 7.15787 7.85759 7.20375 7.74898C7.25021 7.64096 7.31352 7.54746 7.39482 7.46731C7.47555 7.38833 7.57079 7.32561 7.68056 7.28089C7.78916 7.23559 7.90763 7.21294 8.0354 7.21294C8.16375 7.21294 8.28222 7.23559 8.39083 7.28089C8.50001 7.32561 8.59583 7.38833 8.67714 7.46731C8.75787 7.54746 8.82175 7.64096 8.86705 7.74898C8.91351 7.85759 8.93616 7.97548 8.93616 8.10092ZM2.56986 6.40568C3.28013 6.17164 4.22213 5.87313 4.22213 5.87313C6.29428 5.21396 6.57189 4.43458 6.57189 4.43458C6.57189 4.43458 7.00804 5.21396 8.51221 5.72794C8.51221 5.72794 9.34327 6.00148 10.1163 6.28082C10.1552 6.35748 10.1952 6.43414 10.2295 6.51545C10.3654 6.83603 10.4578 7.17403 10.5065 7.52771H9.44316L9.43619 7.50913C9.35895 7.32619 9.25151 7.1688 9.11504 7.03465C8.97856 6.90049 8.81769 6.79537 8.63416 6.7193C8.45064 6.6438 8.25144 6.60605 8.0354 6.60605C7.82052 6.60605 7.62074 6.6438 7.43722 6.7193C7.2537 6.79537 7.09283 6.90049 6.95693 7.03465C6.81987 7.1688 6.71359 7.32619 6.63577 7.50913C6.61138 7.56662 6.59105 7.62528 6.57421 7.6851H6.17232C6.15606 7.62528 6.13573 7.56662 6.11076 7.50913C6.0341 7.32619 5.92666 7.1688 5.79018 7.03465C5.6537 6.90049 5.49283 6.79537 5.30931 6.7193C5.12521 6.6438 4.92659 6.60605 4.71113 6.60605C4.49567 6.60605 4.29588 6.6438 4.11236 6.7193C3.92884 6.79537 3.76797 6.90049 3.63149 7.03465C3.4956 7.1688 3.38816 7.32619 3.31092 7.50913C3.30801 7.51494 3.30627 7.52132 3.30337 7.52771H2.24057C2.28936 7.17403 2.38112 6.83603 2.51702 6.51545C2.53328 6.4777 2.55302 6.44285 2.56986 6.40568ZM12.2593 4.37593C11.9335 3.6099 11.4845 2.94551 10.909 2.38276C10.3346 1.81884 9.66153 1.37804 8.8897 1.05921C8.11729 0.739787 7.27867 0.580078 6.37326 0.580078C5.46786 0.580078 4.62924 0.739787 3.85683 1.05921C3.085 1.37804 2.41132 1.81884 1.83695 2.38276C1.26257 2.94551 0.812484 3.6099 0.487839 4.37593C0.162032 5.14253 0 5.97302 0 6.86623C0 7.7606 0.162032 8.58992 0.487839 9.35653C0.812484 10.1231 1.26257 10.7869 1.83695 11.3503C2.41132 11.9136 3.085 12.3544 3.85683 12.6738C4.62924 12.9927 5.46786 13.1524 6.37326 13.1524C7.27867 13.1524 8.11729 12.9927 8.8897 12.6738C9.66153 12.3544 10.3346 11.9136 10.909 11.3503C11.4845 10.7869 11.9335 10.1231 12.2593 9.35653C12.5833 8.58992 12.7459 7.7606 12.7459 6.86623C12.7459 5.97302 12.5833 5.14253 12.2593 4.37593Z" fill="#EE6513"/>
</svg>
