<?xml version="1.0" encoding="UTF-8"?>
<svg width="200px" height="37px" viewBox="0 0 200 37" version="1.1" xmlns="http://www.w3.org/2000/svg" xmlns:xlink="http://www.w3.org/1999/xlink">
    <title>Yampi-Logo-PB-SVG-fundo-transparente</title>
    <defs>
        <path d="M1.77553957,8.21258993 C-0.460071942,10.4482014 -0.460071942,14.0723022 1.77661871,16.3086331 L1.77661871,16.3086331 C4.0118705,18.5442446 7.63669065,18.5446043 9.87230216,16.3093525 L9.87230216,16.3093525 L14.1471223,12.0341727 L14.0971223,10.3197842 C13.9877698,6.51115108 12.476259,2.8852518 9.86438849,0.123741007 L9.86438849,0.123741007 L1.77553957,8.21258993 Z" id="path-1"></path>
        <linearGradient x1="33.7257306%" y1="78.7149654%" x2="77.5301213%" y2="27.1445781%" id="linearGradient-3">
            <stop stop-color="#54CA2F" offset="0%"></stop>
            <stop stop-color="#319A11" offset="100%"></stop>
        </linearGradient>
        <path d="M3.20071942,4.25935252 C1.07697842,6.38273381 0.0100719424,9.16294964 0,11.9464029 L0,11.9464029 L0,12.026259 C0.0100719424,14.8097122 1.07697842,17.5902878 3.20071942,19.7140288 L3.20071942,19.7140288 L11.6654676,28.1784173 C13.9007194,30.4140288 17.526259,30.4151079 19.7622302,28.1798561 L19.7622302,28.1798561 C21.997482,25.9442446 21.9964029,22.318705 19.7604317,20.0830935 L19.7604317,20.0830935 L11.9708633,12.2935252 C9.17410072,9.4971223 7.55431655,5.73633094 7.44064748,1.78417266 L7.44064748,1.78417266 L7.39172662,0.0679856115 L3.20071942,4.25935252 Z" id="path-4"></path>
        <linearGradient x1="51.1512145%" y1="87.6566319%" x2="47.5903405%" y2="4.16313403%" id="linearGradient-6">
            <stop stop-color="#0057B5" offset="0%"></stop>
            <stop stop-color="#0090DB" offset="100%"></stop>
        </linearGradient>
        <path d="M4.47122302,1.90935252 L0.197122302,6.18381295 L0.246402878,7.89892086 C0.355755396,11.7061151 1.86726619,15.3338129 4.47877698,18.0953237 L4.47877698,18.0953237 L12.5679856,10.0061151 C14.8032374,7.77086331 14.802518,4.14568345 12.5665468,1.90935252 L12.5665468,1.90935252 C11.4485612,0.791726619 9.98381295,0.232733813 8.51870504,0.232733813 L8.51870504,0.232733813 C7.05395683,0.232733813 5.58884892,0.791726619 4.47122302,1.90935252" id="path-7"></path>
        <linearGradient x1="59.8549731%" y1="25.3411561%" x2="22.7415089%" y2="76.5651013%" id="linearGradient-9">
            <stop stop-color="#007CC3" offset="0%"></stop>
            <stop stop-color="#004690" offset="100%"></stop>
        </linearGradient>
        <path d="M1.77553957,1.90899281 C-0.460071942,4.14496403 -0.459352518,7.77122302 1.77661871,10.0064748 L1.77661871,10.0064748 L9.56618705,17.7960432 C12.3629496,20.5928058 13.9841727,24.3517986 14.0971223,28.3046763 L14.0971223,28.3046763 L14.1467626,30.0201439 L18.0330935,26.1334532 C22.4683453,21.6985612 22.4683453,14.5064748 18.0330935,10.071223 L18.0330935,10.071223 L9.87230216,1.91079137 C8.75431655,0.792446043 7.28848921,0.233093525 5.82266187,0.233093525 L5.82266187,0.233093525 C4.35791367,0.233453237 2.89316547,0.791726619 1.77553957,1.90899281" id="path-10"></path>
        <linearGradient x1="49.5802189%" y1="13.7921736%" x2="50.9045354%" y2="94.8136201%" id="linearGradient-12">
            <stop stop-color="#54CA2F" offset="0%"></stop>
            <stop stop-color="#8CE65D" offset="100%"></stop>
        </linearGradient>
    </defs>
    <g id="Yampi-Logo-PB-SVG-fundo-transparente" stroke="none" stroke-width="1" fill="none" fill-rule="evenodd">
        <g id="Group-18" transform="translate(0.000000, -0.000000)">
            <g id="Group-3" transform="translate(17.985612, 18.112374)">
                <mask id="mask-2" fill="white">
                    <use xlink:href="#path-1"></use>
                </mask>
                <g id="Clip-2"></g>
                <path d="M1.77553957,8.21258993 C-0.460071942,10.4482014 -0.460071942,14.0723022 1.77661871,16.3086331 L1.77661871,16.3086331 C4.0118705,18.5442446 7.63669065,18.5446043 9.87230216,16.3093525 L9.87230216,16.3093525 L14.1471223,12.0341727 L14.0971223,10.3197842 C13.9877698,6.51115108 12.476259,2.8852518 9.86438849,0.123741007 L9.86438849,0.123741007 L1.77553957,8.21258993 Z" id="Fill-1" fill="url(#linearGradient-3)" mask="url(#mask-2)"></path>
            </g>
            <g id="Group-6" transform="translate(0.000000, 6.241871)">
                <mask id="mask-5" fill="white">
                    <use xlink:href="#path-4"></use>
                </mask>
                <g id="Clip-5"></g>
                <path d="M3.20071942,4.25935252 C1.07697842,6.38273381 0.0100719424,9.16294964 0,11.9464029 L0,11.9464029 L0,12.026259 C0.0100719424,14.8097122 1.07697842,17.5902878 3.20071942,19.7140288 L3.20071942,19.7140288 L11.6654676,28.1784173 C13.9007194,30.4140288 17.526259,30.4151079 19.7622302,28.1798561 L19.7622302,28.1798561 C21.997482,25.9442446 21.9964029,22.318705 19.7604317,20.0830935 L19.7604317,20.0830935 L11.9708633,12.2935252 C9.17410072,9.4971223 7.55431655,5.73633094 7.44064748,1.78417266 L7.44064748,1.78417266 L7.39172662,0.0679856115 L3.20071942,4.25935252 Z" id="Fill-4" fill="url(#linearGradient-6)" mask="url(#mask-5)"></path>
            </g>
            <g id="Group-9" transform="translate(7.194245, 0.126763)">
                <mask id="mask-8" fill="white">
                    <use xlink:href="#path-7"></use>
                </mask>
                <g id="Clip-8"></g>
                <path d="M4.47122302,1.90935252 L0.197122302,6.18381295 L0.246402878,7.89892086 C0.355755396,11.7061151 1.86726619,15.3338129 4.47877698,18.0953237 L4.47877698,18.0953237 L12.5679856,10.0061151 C14.8032374,7.77086331 14.802518,4.14568345 12.5665468,1.90935252 L12.5665468,1.90935252 C11.4485612,0.791726619 9.98381295,0.232733813 8.51870504,0.232733813 L8.51870504,0.232733813 C7.05395683,0.232733813 5.58884892,0.791726619 4.47122302,1.90935252" id="Fill-7" fill="url(#linearGradient-9)" mask="url(#mask-8)"></path>
            </g>
            <g id="Group-12" transform="translate(17.985612, 0.126763)">
                <mask id="mask-11" fill="white">
                    <use xlink:href="#path-10"></use>
                </mask>
                <g id="Clip-11"></g>
                <path d="M1.77553957,1.90899281 C-0.460071942,4.14496403 -0.459352518,7.77122302 1.77661871,10.0064748 L1.77661871,10.0064748 L9.56618705,17.7960432 C12.3629496,20.5928058 13.9841727,24.3517986 14.0971223,28.3046763 L14.0971223,28.3046763 L14.1467626,30.0201439 L18.0330935,26.1334532 C22.4683453,21.6985612 22.4683453,14.5064748 18.0330935,10.071223 L18.0330935,10.071223 L9.87230216,1.91079137 C8.75431655,0.792446043 7.28848921,0.233093525 5.82266187,0.233093525 L5.82266187,0.233093525 C4.35791367,0.233453237 2.89316547,0.791726619 1.77553957,1.90899281" id="Fill-10" fill="url(#linearGradient-12)" mask="url(#mask-11)"></path>
            </g>
            <g id="Group-17" transform="translate(50.719424, 2.644748)">
                <path d="M93.0282374,11.9778058 L90.9789568,11.9778058 C89.8897482,11.9778058 89.0066547,12.8608993 89.0066547,13.9490288 L89.0066547,25.1781655 L84.2534173,25.1781655 L84.2534173,13.7108993 C84.2534173,10.3796043 86.953777,7.67852518 90.2850719,7.67852518 L95.5098921,7.67852518 L93.0282374,11.9778058 Z M127.513489,14.4680935 C131.458813,15.0709712 133.375719,16.7713309 133.375719,19.666295 C133.375719,21.461259 132.663849,22.9083813 131.260971,23.9670144 C129.858453,25.0252878 127.886151,25.5619784 125.398741,25.5619784 C122.270683,25.5619784 119.565647,24.8688129 117.666727,23.5821223 L119.685432,20.0846403 L119.703777,20.0957914 C121.363129,21.1454317 123.291547,21.677446 125.434712,21.677446 C127.567086,21.677446 128.648381,21.1270863 128.648381,20.0418345 C128.648381,19.6242086 128.418885,19.2853597 127.965647,19.035 C127.505216,18.7810432 126.783993,18.5871583 125.757374,18.4421942 L124.341187,18.2450719 C120.301259,17.6911151 118.336871,15.9670144 118.336871,12.9760072 C118.336871,11.2047842 118.991187,9.79866906 120.280036,8.7997482 C121.571403,7.80154676 123.383993,7.29543165 125.667446,7.29543165 C128.179317,7.29543165 130.813849,7.90622302 133.00018,8.94255396 L130.992986,12.4198921 C130.433633,12.1968705 129.342986,11.7731295 128.681475,11.5914748 C127.682554,11.3184532 126.716007,11.1742086 125.811691,11.1619784 C124.943345,11.1619784 124.271403,11.303705 123.819245,11.5832014 C123.365647,11.8641367 123.135791,12.2547842 123.135791,12.7432734 C123.135791,13.1907554 123.378597,13.529964 123.83795,13.7238489 C124.302698,13.9202518 125.021043,14.092554 125.972122,14.2346403 L127.513489,14.4680935 L127.513489,14.4680935 Z M136.317086,25.1778058 L141.071043,25.1778058 L141.071043,7.67852518 L136.317086,7.67852518 L136.317086,25.1778058 Z M138.693345,5.34830935 C137.257014,5.34830935 136.089388,4.17996403 136.089388,2.74435252 C136.089388,1.30802158 137.257014,0.138597122 138.693345,0.138597122 C140.129676,0.138597122 141.298022,1.30730216 141.298022,2.74363309 C141.298022,4.17996403 140.129676,5.34830935 138.693345,5.34830935 L138.693345,5.34830935 Z M74.3991007,20.8616187 L68.7667266,20.8616187 L68.7667266,14.4990288 L73.7609712,14.4990288 L73.7624101,14.4990288 L74.3991007,14.4990288 C76.0217626,14.4990288 77.3411871,15.9263669 77.3411871,17.6814029 C77.3411871,19.4346403 76.0217626,20.8616187 74.3991007,20.8616187 L74.3991007,20.8616187 Z M68.7667266,5.1673741 L73.7616906,5.1673741 C75.0124101,5.1673741 76.030036,6.29291367 76.030036,7.67600719 C76.030036,9.05802158 75.0124101,10.1821223 73.7616906,10.1821223 L68.7667266,10.1821223 L68.7667266,5.1673741 Z M77.9127698,12.3008273 C79.8526978,11.2026259 80.5854317,9.26809353 80.5854317,7.67456835 C80.5854317,3.90586331 77.5303957,0.850467626 73.7609712,0.850467626 L64.0116906,0.850467626 L64.0116906,25.1785252 L74.3991007,25.1785252 C78.5401079,25.1785252 81.8969424,21.8209712 81.8969424,17.6806835 C81.8969424,15.3278058 80.3595324,13.0144964 77.9127698,12.3008273 L77.9127698,12.3008273 Z M149.255935,25.1781655 L144.501978,25.1781655 L144.501978,0.139316547 C147.127518,0.139316547 149.255935,2.26773381 149.255935,4.89399281 L149.255935,25.1781655 Z M105.201978,21.7896763 C102.366007,21.7896763 100.058813,19.4360791 100.058813,16.542554 C100.058813,13.6493885 102.366007,11.2957914 105.201978,11.2957914 C108.038669,11.2957914 110.345504,13.6493885 110.345504,16.542554 C110.345504,19.4360791 108.038669,21.7896763 105.201978,21.7896763 L105.201978,21.7896763 Z M110.573201,7.67888489 L110.573201,9.48284173 C108.920324,8.0702518 106.823921,7.29507194 104.644065,7.29507194 C99.6077338,7.29507194 95.5098921,11.392554 95.5098921,16.4288849 C95.5098921,21.4652158 99.6077338,25.5623381 104.644065,25.5623381 C106.823921,25.5623381 108.920324,24.7867986 110.573201,23.3742086 L110.573201,25.1781655 L114.873201,25.1781655 L114.873201,7.67888489 L110.573201,7.67888489 Z" id="Fill-13" fill="#54CA30"></path>
                <path d="M50.5839568,21.7894604 C47.7472662,21.7894604 45.4400719,19.4358633 45.4400719,16.5423381 C45.4400719,13.6491727 47.7472662,11.2955755 50.5839568,11.2955755 C53.4199281,11.2955755 55.7271223,13.6491727 55.7271223,16.5423381 C55.7271223,19.4358633 53.4199281,21.7894604 50.5839568,21.7894604 L50.5839568,21.7894604 Z M55.9548201,7.67830935 L55.9548201,9.48298561 C54.3015827,8.07003597 52.2048201,7.29557554 50.0260432,7.29557554 C44.9889928,7.29557554 40.8922302,11.3923381 40.8922302,16.4286691 C40.8922302,21.465 44.9889928,25.5617626 50.0260432,25.5617626 C52.2048201,25.5617626 54.3015827,24.7865827 55.9548201,23.3736331 L55.9548201,25.0772302 C55.9548201,28.5308273 52.2782014,29.0459353 50.0864748,29.0459353 C48.1433094,29.0459353 46.0580576,28.3711151 44.2889928,27.3218345 L42.1084173,31.0988129 C45.5285612,33.086223 48.9041007,33.383705 50.4091367,33.383705 C52.0461871,33.383705 60.1796403,32.9847842 60.251223,25.1779496 L60.2544604,25.1779496 L60.2544604,7.67830935 L55.9548201,7.67830935 Z M28.5048201,21.7894604 C25.6681295,21.7894604 23.3609353,19.436223 23.3609353,16.5426978 C23.3609353,13.6495324 25.6681295,11.2955755 28.5048201,11.2955755 C31.3407914,11.2955755 33.6479856,13.6495324 33.6479856,16.5426978 C33.6479856,19.436223 31.3407914,21.7894604 28.5048201,21.7894604 L28.5048201,21.7894604 Z M33.8753237,7.67866906 L33.8753237,9.48298561 C32.222446,8.07039568 30.1256835,7.29521583 27.9461871,7.29521583 C22.9098561,7.29521583 18.8130935,11.3926978 18.8130935,16.4290288 C18.8130935,21.4653597 22.9098561,25.5621223 27.9461871,25.5621223 C30.1256835,25.5621223 32.222446,24.7869424 33.8753237,23.3739928 L33.8753237,25.1783094 L38.1753237,25.1783094 L38.1753237,7.67866906 L33.8753237,7.67866906 Z M9.89438849,12.2257914 L4.74978417,12.2257914 L4.74978417,5.16715827 L9.89438849,5.16715827 C11.7084173,5.16715827 13.1846763,6.75061151 13.1846763,8.69701439 C13.1846763,10.643777 11.7084173,12.2257914 9.89438849,12.2257914 L9.89438849,12.2257914 Z M9.89366906,0.850251799 L0.0645323741,0.850251799 L0.0645323741,25.1790288 L4.74978417,25.1790288 L4.74978417,16.5426978 L9.89366906,16.5426978 C14.2271223,16.5426978 17.7393525,13.0293885 17.7393525,8.69593525 C17.7393525,4.36356115 14.2271223,0.850251799 9.89366906,0.850251799 L9.89366906,0.850251799 Z" id="Fill-15" fill="#0058B5"></path>
            </g>
        </g>
    </g>
</svg>