<svg width="159" height="37" viewBox="0 0 159 37" fill="none" xmlns="http://www.w3.org/2000/svg">
<path d="M19.2275 10.9224C19.5962 8.67145 19.0529 6.67271 17.7527 5.43079C16.472 4.15007 14.3569 3.52911 11.3103 3.52911C8.63243 3.52911 6.36201 3.68435 4.51855 4.01424L4.46034 4.03364L0.656974 27.1255L0.618164 27.2419H5.72166L7.0994 18.8784C7.4875 18.956 7.99203 18.9948 8.69061 18.9948C11.7372 18.9948 14.3569 18.141 16.2586 16.511C17.7721 15.2497 18.8394 13.2704 19.2275 10.9224ZM14.1046 11.0582C13.7165 13.3674 11.9312 14.7452 9.33101 14.7452C8.61299 14.7452 8.16671 14.7064 7.81742 14.6287L8.92347 7.89525C9.33101 7.79819 10.0102 7.74001 10.8834 7.74001C12.1447 7.74001 13.0955 8.06986 13.6389 8.71026C14.1046 9.29241 14.2598 10.0685 14.1046 11.0582Z" fill="#1256A7"/>
<path d="M31.859 17.1495C32.2664 14.6268 31.9366 12.7058 30.8693 11.4444C29.8797 10.2801 28.2497 9.67859 26.018 9.67859C22.6416 9.67859 20.216 10.8623 19.5562 11.2116L19.498 11.2504L19.8667 14.8597L20.0026 14.7821C21.0504 14.1417 22.8744 13.5208 24.5433 13.5208C25.5718 13.5208 26.2897 13.7536 26.6778 14.1999C26.9689 14.5492 27.0854 15.0344 26.9689 15.6165L26.9495 15.7523C20.934 15.7718 17.2471 18.1003 16.5485 22.3112C16.2962 23.786 16.6455 25.2025 17.4799 26.1728C18.2755 27.1236 19.4786 27.6087 20.9146 27.6087C22.8163 27.6087 24.5433 26.8908 25.8046 25.5712L25.824 27.2206H30.4618V27.1236C30.423 26.3086 30.5782 24.9115 30.8693 23.0486L31.859 17.1495ZM26.2509 20.9722C26.1927 21.2827 26.1151 21.5932 26.018 21.8455C25.5135 22.9322 24.3298 23.7277 23.2237 23.7277C22.6804 23.7277 22.2535 23.5531 21.9818 23.2426C21.7101 22.9127 21.6131 22.4276 21.7101 21.826C21.9818 20.1378 23.6118 19.2646 26.542 19.2452L26.2509 20.9722Z" fill="#1256A7"/>
<path d="M50.1575 10.1093H45.675L45.2093 12.0498C44.5107 10.5168 43.1911 9.7406 41.2506 9.7406C37.0204 9.7406 33.3334 13.5246 32.4796 18.7639C32.0333 21.4612 32.499 23.7898 33.7991 25.3228C34.8082 26.5065 36.2248 27.1275 37.9324 27.1275C39.6983 27.1275 41.3089 26.4094 42.512 25.0705L42.3761 25.9049C41.9104 28.6992 40.1834 30.2904 37.6025 30.2904C35.7591 30.2904 34.1484 29.6307 33.2558 29.0291L33.1588 28.9515L31.4512 33.1624L31.5094 33.2012C32.7707 34.0162 34.847 34.5013 37.0592 34.5013C39.8535 34.5013 42.1627 33.8028 43.8897 32.4056C45.8302 30.8338 47.0139 28.4082 47.6155 24.7212L49.1679 15.2904C49.5753 12.8066 49.8665 11.3901 50.1381 10.2451L50.1575 10.1093ZM43.7539 17.0951L43.3464 19.5983C43.2494 20.1805 43.1135 20.6656 42.9583 20.9955C42.4344 22.218 41.2701 23.0524 40.067 23.0524C39.3296 23.0524 38.7474 22.8002 38.3205 22.2956C37.6608 21.5194 37.4473 20.1999 37.6996 18.6669C38.1653 15.8338 39.7565 13.9321 41.6387 13.9321C42.9001 13.9321 43.6957 14.7471 43.8121 16.1637C43.8315 16.4353 43.7927 16.7652 43.7539 17.0951Z" fill="#1256A7"/>
<path d="M71.3112 3.70245H66.1881L64.6936 12.6676H56.7572L58.232 3.70245H53.0897L49.2281 27.1242L49.2087 27.2407H54.351L55.9617 17.4799H63.9174L62.3071 27.2407H67.4302L71.2913 3.81888L71.3112 3.70245Z" fill="#1256A7"/>
<path d="M78.296 2.84869H73.1729L72.5132 6.82668H77.6557L78.296 2.84869Z" fill="#1256A7"/>
<path d="M71.9716 10.1066L69.177 27.1247L69.1577 27.2411H74.2809L77.1135 10.1066H71.9716Z" fill="#1256A7"/>
<path d="M92.501 11.5038C91.5311 10.3589 90.1531 9.71851 88.62 9.71851C86.3693 9.71851 84.4095 10.6306 82.915 12.3382L83.0701 10.0872H78.588L78.5687 10.1648C78.355 11.8142 78.122 13.6577 77.7532 15.8505L74.7649 33.9747L74.7456 34.0911H79.8688L81.2461 25.7858C81.8865 26.9113 83.3224 27.6099 85.0498 27.6099C88.5621 27.6099 92.8118 24.738 93.8403 18.4507C94.3449 15.5788 93.8596 13.1144 92.501 11.5038ZM88.6399 18.6836C88.1547 21.5749 86.5829 23.3796 84.5453 23.3796C83.2065 23.3796 82.2553 22.4094 82.1581 20.9734C82.1581 20.6241 82.178 20.2748 82.236 19.8867L82.6241 17.5581C82.682 17.2283 82.7599 16.8983 82.8764 16.6461C83.4389 15.1325 84.8362 14.0458 86.1749 14.0458C86.9511 14.0458 87.5915 14.3175 88.0188 14.822C88.6979 15.6176 88.9308 16.9954 88.6399 18.6836Z" fill="#1256A7"/>
<path d="M107.112 22.7614C105.657 23.2659 104.279 23.4793 102.649 23.4793C101.194 23.4793 100.029 23.0719 99.3695 22.3345C98.9235 21.8299 98.7291 21.1895 98.7877 20.4521H108.995L109.014 20.394C109.169 19.9282 109.383 19.1326 109.519 18.2982C109.984 15.4651 109.538 13.0783 108.257 11.5647C107.229 10.3616 105.715 9.7406 103.755 9.7406C101.194 9.7406 98.9042 10.7497 97.1188 12.6902C95.605 14.3202 94.5186 16.5712 94.1498 18.8804C93.7038 21.5971 94.1498 23.848 95.4499 25.381C96.6921 26.8558 98.7291 27.632 101.31 27.632C103.522 27.632 105.579 27.2633 107.267 26.5453L107.326 26.5259L107.267 22.7614H107.112ZM102.862 13.4275C103.581 13.4275 104.124 13.641 104.512 14.0873C105.191 14.8829 105.094 16.1831 105.017 16.6682H99.3894C99.7383 15.4069 100.845 13.4275 102.862 13.4275Z" fill="#1256A7"/>
<path d="M120.521 9.6969C119.066 9.6969 116.95 10.609 115.631 13.1316L115.941 10.1044H111.517V10.2014C111.381 11.5986 111.168 13.151 110.721 15.7707L108.819 27.239H113.942L115.378 18.5649C115.456 18.138 115.553 17.7306 115.669 17.4007C116.271 15.7707 117.649 14.8004 119.395 14.8004C119.938 14.8004 120.307 14.8586 120.695 14.9362L120.792 14.9557L121.647 9.81333L121.549 9.79395C121.239 9.73571 121.006 9.6969 120.521 9.6969Z" fill="#1256A7"/>
<path d="M158.166 10.1252C158.166 9.87294 157.953 9.6789 157.7 9.69833L156.342 9.75652C156.187 9.17437 155.974 8.63103 155.721 8.08769L156.788 7.2533C156.983 7.09806 157.021 6.82639 156.866 6.63234L154.693 3.83804C154.538 3.64399 154.266 3.60518 154.072 3.76042L153.005 4.59483C152.539 4.22613 152.054 3.89625 151.53 3.60518L151.898 2.30504C151.957 2.07219 151.821 1.81992 151.588 1.76171L148.192 0.791461C147.959 0.733246 147.707 0.86908 147.649 1.10194L147.28 2.40207C147.105 2.38266 146.912 2.38266 146.737 2.38266C146.252 2.38266 145.786 2.42147 145.321 2.47969L144.835 1.21837C144.738 0.98551 144.486 0.86908 144.253 0.966105L140.954 2.22742C140.721 2.32445 140.605 2.57671 140.702 2.80957L141.187 4.07089C140.702 4.40078 140.236 4.76947 139.809 5.17697L138.664 4.43959C138.451 4.30375 138.179 4.36197 138.043 4.57542L136.103 7.54435C135.967 7.75783 136.025 8.0295 136.239 8.16531L137.364 8.9027C137.151 9.44604 137.015 10.0282 136.898 10.6103L135.54 10.6686C135.288 10.688 135.094 10.882 135.113 11.1343L135.288 14.666C135.307 14.9182 135.502 15.1123 135.754 15.0929L137.112 15.0347C137.267 15.6168 137.481 16.1602 137.733 16.6841L136.685 17.5379C136.491 17.6932 136.452 17.9648 136.607 18.1589L138.819 20.9144C138.975 21.1085 139.247 21.1472 139.441 20.992L140.508 20.1382C140.974 20.5069 141.459 20.8368 141.983 21.1085L141.614 22.4086C141.555 22.6414 141.691 22.8936 141.924 22.9519L145.34 23.9027C145.572 23.961 145.825 23.8251 145.883 23.5922L146.252 22.2921C146.407 22.2921 146.562 22.3115 146.698 22.3115C147.145 22.3115 147.591 22.2727 148.017 22.2145L148.483 23.4758C148.561 23.7087 148.833 23.8251 149.065 23.7475L152.384 22.5055C152.617 22.4279 152.733 22.1563 152.655 21.9234L152.19 20.6427C152.675 20.3128 153.14 19.9442 153.567 19.5366L154.693 20.2934C154.907 20.4292 155.178 20.3711 155.314 20.177L157.274 17.2275C157.41 17.014 157.351 16.7423 157.157 16.6065L156.032 15.8497C156.245 15.3063 156.4 14.7242 156.517 14.142L157.876 14.0839C158.127 14.0839 158.322 13.8704 158.302 13.6181L158.166 10.1252ZM146.717 20.9726C141.963 20.9726 138.082 17.0916 138.082 12.3374C138.082 7.58316 141.963 3.7022 146.717 3.7022C151.472 3.7022 155.353 7.58316 155.353 12.3374C155.353 17.111 151.491 20.9726 146.717 20.9726Z" fill="#1256A7"/>
<path d="M142.486 27.2003L141.594 27.2391C141.497 26.851 141.361 26.5018 141.186 26.1525L141.885 25.6091C142.021 25.5121 142.04 25.318 141.943 25.2016L140.507 23.3775C140.41 23.2417 140.216 23.2223 140.1 23.3193L139.402 23.8627C139.11 23.6104 138.781 23.397 138.431 23.2029L138.683 22.3491C138.722 22.1938 138.645 22.0386 138.49 21.9804L136.258 21.34C136.102 21.3012 135.947 21.3788 135.889 21.5341L135.636 22.3879C135.521 22.3879 135.404 22.3685 135.288 22.3685C134.977 22.3685 134.667 22.3879 134.356 22.4267L134.045 21.5923C133.988 21.437 133.812 21.3594 133.657 21.4176L131.484 22.252C131.329 22.3103 131.251 22.4849 131.309 22.6401L131.62 23.4746C131.29 23.688 130.999 23.9403 130.708 24.212L129.951 23.7268C129.816 23.6298 129.641 23.6686 129.543 23.8044L128.283 25.7449C128.185 25.8808 128.224 26.0554 128.36 26.1525L129.097 26.6376C128.962 27.0063 128.864 27.3749 128.787 27.763L127.894 27.8019C127.739 27.8019 127.603 27.9571 127.623 28.1123L127.739 30.4215C127.739 30.5767 127.894 30.7126 128.05 30.6932L128.942 30.6544C129.039 31.0231 129.195 31.3917 129.35 31.741L128.651 32.3038C128.535 32.4008 128.496 32.5949 128.612 32.7113L130.067 34.516C130.164 34.6324 130.359 34.6712 130.475 34.5548L131.174 33.992C131.484 34.2249 131.795 34.4577 132.144 34.6324L131.911 35.4862C131.872 35.6415 131.969 35.7967 132.124 35.8549L134.356 36.4758C134.511 36.5147 134.667 36.4177 134.724 36.2624L134.957 35.4086C135.055 35.4086 135.152 35.4086 135.248 35.4086C135.54 35.4086 135.831 35.3892 136.122 35.3504L136.433 36.1848C136.491 36.34 136.665 36.4177 136.801 36.3594L138.974 35.5444C139.129 35.4862 139.207 35.3115 139.149 35.1757L138.838 34.3413C139.169 34.1279 139.46 33.8756 139.75 33.6233L140.488 34.1279C140.624 34.2249 140.798 34.1861 140.895 34.0503L142.176 32.1098C142.273 31.9739 142.234 31.7993 142.098 31.7022L141.361 31.2171C141.497 30.8484 141.614 30.4797 141.672 30.0916L142.564 30.0528C142.719 30.0528 142.855 29.917 142.855 29.7424L142.759 27.4331C142.797 27.3361 142.662 27.2003 142.486 27.2003ZM135.288 34.613C132.164 34.613 129.621 32.0709 129.621 28.9467C129.621 25.8225 132.164 23.2805 135.288 23.2805C138.412 23.2805 140.954 25.8225 140.954 28.9467C140.954 32.0709 138.412 34.613 135.288 34.613Z" fill="#1256A7"/>
<path d="M128.554 21.3415L128.729 20.7205C128.807 20.7205 128.865 20.7205 128.942 20.7205C129.156 20.7205 129.369 20.7011 129.563 20.6817L129.796 21.2833C129.835 21.3997 129.952 21.4579 130.068 21.3997L131.659 20.8175C131.776 20.7787 131.834 20.6623 131.776 20.5459L131.543 19.9443C131.776 19.7891 132.009 19.6144 132.202 19.4204L132.746 19.7891C132.843 19.8473 132.979 19.8279 133.037 19.7309L133.968 18.3337C134.026 18.2367 134.007 18.1009 133.91 18.0427L133.367 17.6934C133.464 17.4411 133.541 17.15 133.6 16.8784L134.24 16.8589C134.356 16.8589 134.454 16.7619 134.454 16.6455L134.395 14.9572C134.395 14.8408 134.298 14.7438 134.181 14.7438L133.541 14.7632C133.464 14.4915 133.367 14.2199 133.25 13.9676L133.755 13.5601C133.852 13.4825 133.871 13.3467 133.793 13.269L132.746 11.9495C132.668 11.8525 132.532 11.8331 132.455 11.9107L131.95 12.3182C131.737 12.1436 131.504 11.9883 131.252 11.8525L131.426 11.2315C131.465 11.1151 131.388 10.9986 131.271 10.9598L129.641 10.4941C129.524 10.4553 129.408 10.5329 129.369 10.6493L129.195 11.2703C129.117 11.2703 129.02 11.2703 128.942 11.2703C128.709 11.2703 128.496 11.2897 128.263 11.3091L128.03 10.7076C127.992 10.5912 127.856 10.5329 127.759 10.5912L126.187 11.1927C126.071 11.2315 126.012 11.3674 126.071 11.4644L126.304 12.0659C126.071 12.2212 125.857 12.3958 125.643 12.5898L125.1 12.2406C125.003 12.1824 124.867 12.2017 124.809 12.2988L123.878 13.7153C123.819 13.8124 123.839 13.9482 123.936 14.0064L124.479 14.3557C124.382 14.6274 124.305 14.8991 124.266 15.1707L123.626 15.2095C123.509 15.2095 123.412 15.3065 123.431 15.4424L123.509 17.1306C123.509 17.247 123.606 17.3441 123.742 17.3247L124.382 17.2858C124.46 17.5575 124.557 17.8292 124.673 18.0814L124.169 18.489C124.072 18.5666 124.052 18.7024 124.13 18.78L125.178 20.0995C125.255 20.1966 125.391 20.216 125.469 20.1383L125.973 19.7309C126.187 19.9055 126.439 20.0607 126.672 20.1966L126.497 20.8175C126.459 20.934 126.536 21.0504 126.652 21.0892L128.283 21.5355C128.399 21.5161 128.516 21.4579 128.554 21.3415ZM124.809 15.9663C124.809 13.696 126.652 11.8331 128.942 11.8331C131.232 11.8331 133.076 13.6765 133.076 15.9663C133.076 18.2367 131.232 20.0995 128.942 20.0995C126.652 20.0995 124.809 18.2367 124.809 15.9663Z" fill="#1256A7"/>
<path d="M147.008 12.2399C147.067 12.2981 147.183 12.2981 147.241 12.2399L152.112 7.3693C152.17 7.31105 152.17 7.19462 152.112 7.13644L150.889 5.9139C150.831 5.85569 150.715 5.85569 150.657 5.9139L145.767 10.7845C145.708 10.8428 145.708 10.9592 145.767 11.0174L147.008 12.2399Z" fill="#1256A7"/>
<path d="M151.569 13.9477H141.886C141.788 13.9477 141.711 14.0253 141.711 14.1224L141.847 16.7808C141.847 17.5765 142.487 18.2168 143.283 18.2168H150.152C150.948 18.2168 151.588 17.5765 151.588 16.7808L151.724 14.1224C151.743 14.0253 151.665 13.9477 151.569 13.9477ZM144.583 16.9749C144.583 17.266 144.35 17.4988 144.059 17.4988C143.768 17.4988 143.535 17.266 143.535 16.9749V15.209C143.535 14.9179 143.768 14.6851 144.059 14.6851C144.35 14.6851 144.583 14.9179 144.583 15.209V16.9749ZM147.241 16.9749C147.241 17.266 147.008 17.4988 146.717 17.4988C146.426 17.4988 146.193 17.266 146.193 16.9749V15.209C146.193 14.9179 146.426 14.6851 146.717 14.6851C147.008 14.6851 147.241 14.9179 147.241 15.209V16.9749ZM149.9 16.9749C149.9 17.266 149.667 17.4988 149.376 17.4988C149.085 17.4988 148.852 17.266 148.852 16.9749V15.209C148.852 14.9179 149.085 14.6851 149.376 14.6851C149.667 14.6851 149.9 14.9179 149.9 15.209V16.9749Z" fill="#1256A7"/>
<path d="M152.17 11.4454H148.949L147.145 13.2501C147.086 13.3083 146.97 13.3083 146.912 13.2501L145.107 11.4454H141.284C141.187 11.4454 141.11 11.5231 141.11 11.62V13.3471C141.11 13.4441 141.187 13.5217 141.284 13.5217H152.17C152.268 13.5217 152.345 13.4441 152.345 13.3471V11.62C152.326 11.5231 152.248 11.4454 152.17 11.4454Z" fill="#1256A7"/>
<path d="M138.761 26.6792L131.581 27.1061C131.484 27.1061 131.426 27.1837 131.426 27.2808L131.659 31.0841C131.659 31.1811 131.736 31.2393 131.833 31.2393L139.014 30.8124C139.11 30.8124 139.169 30.7348 139.169 30.6378L138.936 26.8344C138.916 26.7374 138.839 26.6598 138.761 26.6792ZM135.559 30.2109L135.579 30.6378L135.171 30.6572L135.152 30.2691C134.88 30.2691 134.589 30.2109 134.434 30.1333L134.531 29.6481C134.705 29.7257 134.958 29.8034 135.229 29.784C135.462 29.7646 135.617 29.6676 135.617 29.4929C135.617 29.3376 135.462 29.2407 135.152 29.163C134.705 29.0466 134.376 28.8526 134.356 28.445C134.337 28.0764 134.569 27.7659 135.016 27.6688L134.997 27.2808L135.404 27.2613L135.424 27.63C135.695 27.63 135.889 27.6688 136.045 27.7271L135.947 28.2122C135.831 28.1733 135.637 28.0764 135.346 28.0957C135.074 28.1152 134.997 28.2316 134.997 28.348C134.997 28.4838 135.152 28.5614 135.521 28.6779C136.025 28.8137 136.238 29.0466 136.258 29.4153C136.258 29.7646 136.025 30.0945 135.559 30.2109Z" fill="#1256A7"/>
<path d="M134.279 12.9L133.057 11.6775C132.998 11.6193 132.882 11.6193 132.824 11.6775L129.136 15.3644L126.924 13.1523C126.866 13.0941 126.75 13.0941 126.691 13.1523L125.469 14.3748C125.411 14.433 125.411 14.5494 125.469 14.6077L129.001 18.1393C129.04 18.1781 129.098 18.1976 129.136 18.1781C129.195 18.1781 129.234 18.1781 129.272 18.1393L134.279 13.1329C134.337 13.0746 134.337 12.9777 134.279 12.9Z" fill="#19B515"/>
</svg>
