<svg width="155" height="41" viewBox="0 0 155 41" fill="none" xmlns="http://www.w3.org/2000/svg">
<path d="M25.8926 34.7638C23.8986 36.6747 21.5723 37.921 18.9137 38.3364C12.6824 39.2503 6.78355 35.7608 4.78956 29.8619C2.71249 23.88 5.1219 17.3995 10.6054 14.2424C15.6734 11.3345 22.3201 12.3314 26.225 16.6518C26.8065 17.2333 26.8065 17.2333 26.0588 17.4826C22.4031 18.6457 19.9107 21.8029 19.7445 25.7078C19.5783 29.4465 21.7385 32.936 25.228 34.4315C25.4772 34.5146 25.6434 34.6807 25.8926 34.7638Z" fill="#A7DCDA"/>
<path d="M0.137362 20.7231C0.137362 9.34077 9.35956 1.11557 19.4957 0.949408C28.9671 0.866325 38.9371 8.42687 39.1863 20.3908C39.4356 31.4408 30.6288 40.2476 19.9111 40.4138C8.03023 40.4969 0.0542788 30.6931 0.137362 20.7231ZM25.8931 34.7641C25.6438 34.598 25.3946 34.5149 25.2284 34.4318C21.7389 32.9363 19.5788 29.4468 19.7449 25.7081C19.9111 21.8032 22.4036 18.563 26.0592 17.4829C26.807 17.2336 26.807 17.2336 26.2254 16.6521C22.2374 12.3318 15.6739 11.3348 10.6058 14.2427C5.12233 17.3998 2.71293 23.8803 4.79 29.8622C6.78399 35.678 12.6829 39.2506 18.9141 38.3367C21.6558 37.9213 23.9822 36.7581 25.8931 34.7641ZM4.20842 19.3938C4.2915 19.2276 4.37459 19.0615 4.45767 18.8953C6.78399 14.6581 10.2735 12.1656 15.0923 11.5009C20.3265 10.8363 24.6468 12.6641 27.9701 16.7351C28.1363 16.9844 28.3025 17.0675 28.6348 17.0675C30.9611 17.0675 32.9551 17.8152 34.6998 19.3938C34.7829 19.4769 34.9491 19.7261 35.1153 19.56C35.2814 19.4769 35.1983 19.2276 35.1983 19.0615C35.2814 17.8152 35.2814 16.4859 35.0322 15.2397C34.0352 8.92537 29.2164 3.85731 22.7359 2.4449C17.0863 1.28174 10.6058 3.4419 6.78399 9.00845C4.62384 12.0825 3.79301 15.572 4.20842 19.3938ZM36.4446 26.1235C36.4446 21.8032 32.9551 18.3968 28.7179 18.3968C24.3976 18.3968 20.9912 21.8863 20.9912 26.2066C20.9912 30.5269 24.3976 34.0164 28.7179 34.0164C33.0382 33.9333 36.4446 30.4438 36.4446 26.1235Z" fill="black"/>
<path d="M115.706 26.0397C115.291 26.1228 115.208 26.372 115.042 26.5382C113.629 27.7844 111.968 27.9506 110.223 27.4521C108.977 27.0367 108.395 26.1228 108.229 24.8765C107.813 22.0517 109.475 18.8946 112.217 17.2329C114.875 15.6543 117.7 15.4882 120.608 16.1528C120.94 16.2359 121.107 16.319 121.024 16.6513C120.027 20.7224 119.445 24.8765 118.116 28.7814C117.285 31.1908 115.457 32.4371 112.965 32.7694C111.137 33.0187 109.392 32.8525 107.647 32.4371C107.232 32.354 107.066 32.1878 107.149 31.6893C107.315 31.1908 107.315 30.4431 107.647 30.1108C108.063 29.7784 108.561 30.36 109.06 30.4431C110.472 30.7754 111.884 30.8585 113.214 30.1938C114.958 29.4461 115.291 27.7844 115.706 26.0397ZM116.454 17.9807C116.122 17.9807 115.623 18.0637 115.125 18.2299C112.798 19.2269 111.22 21.8856 111.552 24.4611C111.635 25.292 112.217 25.7905 113.131 25.7074C114.294 25.6243 114.958 24.9596 115.54 24.0457C116.62 22.4671 116.869 20.6393 117.285 18.8946C117.534 18.0637 117.451 17.9807 116.454 17.9807Z" fill="black"/>
<path d="M79.4799 26.1244C78.566 27.0383 77.486 27.6199 76.1566 27.703C73.4149 27.8691 71.8363 26.2075 72.0856 23.4657C72.5841 19.1454 76.1566 16.5699 79.563 15.9883C81.2247 15.739 82.8033 15.9052 84.3818 16.1545C84.8803 16.2375 84.9634 16.4868 84.8803 16.9022C84.0495 20.4748 83.3848 24.1304 82.3878 27.703C81.4739 31.1094 79.7292 32.5218 76.2397 32.8541C74.6611 33.0203 73.0826 32.8541 71.504 32.4387C71.0886 32.3556 70.9224 32.1064 71.0886 31.691C71.2547 31.1925 71.2547 30.4447 71.5871 30.1124C72.0025 29.78 72.5841 30.3616 73.0826 30.4447C73.9965 30.6109 74.8273 30.694 75.7412 30.6109C77.486 30.3616 78.566 29.3646 79.1476 27.703C79.3138 27.1214 79.3969 26.5398 79.563 26.0413C79.563 25.9582 79.563 25.7921 79.563 25.7921C79.4799 25.8752 79.4799 26.0413 79.4799 26.1244ZM80.4769 17.9823C80.3939 17.9823 80.2277 17.9823 80.1446 17.9823C77.2367 18.3977 75.1596 21.721 75.5751 24.5458C75.6581 25.3767 76.3228 25.7921 77.1536 25.709C78.2337 25.6259 78.8984 24.9612 79.4799 24.1304C80.56 22.5518 80.8924 20.6409 81.3078 18.8131C81.4739 18.0654 81.3909 17.9823 80.4769 17.9823Z" fill="black"/>
<path d="M52.7286 12.2493C53.6425 12.2493 54.4733 12.2493 55.3872 12.2493C59.209 12.2493 60.9538 15.5726 59.126 19.0621C57.8797 21.3053 55.7196 21.8869 53.3932 21.97C52.6455 21.97 51.8147 21.97 51.0669 21.97C50.5684 21.97 50.4023 22.1361 50.3192 22.6346C50.0699 24.1301 49.7376 25.6256 49.4053 27.1211C49.3222 27.6196 49.156 27.7858 48.6575 27.7858C47.9929 27.7858 47.2451 27.7858 46.5804 27.7858C45.9989 27.7858 45.9158 27.6196 46.0819 27.1211C46.9128 23.4655 47.6605 19.7267 48.4083 16.0711C48.6575 14.991 48.9068 13.994 49.0729 12.9139C49.156 12.4154 49.4053 12.2493 49.9038 12.2493C50.7346 12.2493 51.7316 12.2493 52.7286 12.2493ZM53.144 14.4925C52.8947 14.4925 52.5624 14.4925 52.3132 14.4925C52.0639 14.4925 51.8978 14.5756 51.8978 14.8248C51.5654 16.3203 51.3162 17.7327 50.9838 19.2282C50.9008 19.4775 50.9838 19.6436 51.3162 19.6436C52.4793 19.6436 53.7256 19.6436 54.8057 19.1451C55.9688 18.6466 56.3842 17.6497 56.3842 16.4034C56.3842 15.5726 55.8857 14.9079 54.9718 14.5756C54.3072 14.4925 53.7256 14.4925 53.144 14.4925Z" fill="black"/>
<path d="M93.4395 11.9992C94.4365 11.9992 95.4335 12.1654 96.5136 12.4146C97.0952 12.5808 97.2614 12.747 97.0121 13.3285C96.7629 13.827 96.7629 14.5748 96.4305 14.824C96.0151 15.1564 95.4335 14.5748 94.935 14.4917C93.6888 14.2424 92.5256 14.1594 91.2794 14.6579C90.9471 14.824 90.6147 14.9902 90.3655 15.2394C89.5346 16.0703 89.5347 16.9842 90.5316 17.6488C91.1963 18.1473 92.0271 18.3966 92.7749 18.812C93.6057 19.2274 94.3535 19.6428 94.935 20.3075C96.4305 22.0522 96.0151 24.794 94.0211 26.2895C92.1102 27.785 89.867 27.9511 87.5407 27.868C86.6267 27.785 85.7128 27.6188 84.7158 27.3695C84.2173 27.2865 84.1343 27.0372 84.3004 26.6218C84.5497 26.0402 84.5497 25.2925 84.882 24.9601C85.3805 24.5447 85.9621 25.2094 86.4606 25.2925C87.873 25.5417 89.2023 25.7079 90.6147 25.1263C91.0301 24.9601 91.3625 24.7109 91.6948 24.3786C92.4425 23.4646 92.2764 22.4676 91.3625 21.803C90.5316 21.2214 89.6177 20.8891 88.7038 20.3906C87.6237 19.809 86.5437 19.1443 86.2113 17.815C85.7128 15.9041 86.7098 13.827 88.6207 12.9131C90.1993 12.2485 91.7779 11.9992 93.4395 11.9992Z" fill="black"/>
<path d="M66.7705 25.708C65.8566 26.8712 64.6934 27.7851 63.1148 27.9512C60.7885 28.1174 59.293 26.705 59.2099 24.3787C59.1269 20.3076 62.1178 16.8181 66.3551 15.9873C68.0998 15.655 69.7615 15.8211 71.5062 16.1535C72.0878 16.2366 72.1709 16.4858 72.0878 17.0674C71.5062 19.5599 71.0077 22.1354 70.4261 24.6279C70.26 25.4587 70.0938 26.2896 70.1769 27.1204C70.1769 27.5358 70.0938 27.702 69.5953 27.702C68.8476 27.702 68.0998 27.702 67.3521 27.702C66.9367 27.702 66.8536 27.5358 66.9367 27.2035C67.0197 26.7881 67.0197 26.3727 67.1028 25.8742C67.1859 25.7911 67.269 25.6249 67.1028 25.5418C66.8536 25.4587 66.7705 25.6249 66.7705 25.708ZM62.6163 23.714C62.6163 24.4618 62.6163 25.2095 63.4472 25.5418C64.278 25.8742 65.0257 25.6249 65.6904 25.0433C66.1058 24.711 66.4382 24.2956 66.6874 23.8802C67.5182 22.5508 67.9336 20.9723 68.266 19.4768C68.3491 18.9783 68.8476 18.3967 68.4321 18.0644C67.9336 17.649 67.269 17.8982 66.6043 18.0644C66.5212 18.0644 66.3551 18.1475 66.272 18.1475C64.1118 19.1445 62.6163 21.3877 62.6163 23.714Z" fill="black"/>
<path d="M141.794 22.634C141.877 20.64 142.874 18.2306 145.45 16.7351C147.444 15.655 149.604 15.4057 151.764 16.3197C153.176 16.9012 154.007 18.0644 154.09 19.5599C154.423 25.0434 150.185 28.9483 144.951 27.702C142.874 27.2035 141.794 25.6249 141.794 22.634ZM145.117 23.1325C145.117 24.1294 145.2 25.0434 146.197 25.5419C147.111 25.9573 148.108 25.7911 148.856 25.0434C150.351 23.5479 151.016 21.72 150.767 19.643C150.601 18.4798 149.853 17.8982 148.607 17.8982C147.942 17.8982 147.36 18.2306 146.945 18.646C145.699 19.9753 145.283 21.5539 145.117 23.1325Z" fill="black"/>
<path d="M128.418 25.791C127.421 27.0373 126.258 27.8681 124.679 27.9512C123.516 28.0343 122.436 27.8681 121.688 26.788C121.024 25.8741 121.107 24.794 121.273 23.797C121.688 21.3876 122.27 18.9782 122.769 16.5688C122.852 16.1534 123.018 15.9872 123.433 15.9872C124.098 15.9872 124.763 15.9872 125.51 15.9872C126.009 15.9872 126.092 16.0703 126.009 16.5688C125.51 18.729 125.095 20.9722 124.596 23.2155C124.513 23.4647 124.513 23.6309 124.513 23.8801C124.43 24.5448 124.43 25.2925 125.178 25.6249C125.926 25.9572 126.673 25.8741 127.338 25.3756C128.335 24.6279 128.667 23.5478 128.917 22.3846C129.332 20.4737 129.748 18.5628 130.08 16.6519C130.163 16.1534 130.329 15.9042 130.911 15.9872C131.575 16.0703 132.157 16.0703 132.822 15.9872C133.403 15.9872 133.486 16.1534 133.32 16.6519C132.655 19.8921 131.991 23.1324 131.326 26.3726C131.077 27.6188 131.077 27.6189 129.748 27.6189C128.252 27.6189 128.252 27.6188 128.335 26.1234C128.418 26.1234 128.418 26.0403 128.418 25.791Z" fill="black"/>
<path d="M101.498 27.9515C100.418 27.9515 99.4209 27.7853 98.507 27.2868C97.4269 26.7052 96.8453 25.8744 96.6791 24.6282C96.2637 20.5571 99.0055 16.4029 103.409 15.8214C104.323 15.7383 105.237 15.7383 106.151 16.0706C108.394 16.7353 108.975 19.3108 107.314 20.9725C106.317 21.9695 104.987 22.3018 103.658 22.5511C102.661 22.7172 101.664 22.8003 100.667 22.8003C100.252 22.8003 100.086 22.9665 100.002 23.3819C99.7532 24.7943 100.584 25.8744 101.996 26.0406C103.243 26.2067 104.406 25.9575 105.486 25.3759C105.901 25.1267 106.151 25.0436 106.067 25.7082C105.984 27.2037 105.984 27.1206 104.572 27.6191C103.575 27.8684 102.578 27.9515 101.498 27.9515ZM100.335 21.0556C101.747 21.0556 103.077 20.9725 104.24 20.3078C105.071 19.8924 105.486 19.0616 105.154 18.3139C104.904 17.7323 104.074 17.483 103.16 17.8154C101.747 18.3139 100.999 19.5601 100.335 21.0556Z" fill="black"/>
<path d="M137.059 16.0706C137.142 16.0706 137.225 16.0706 137.308 16.0706C138.554 16.0706 138.554 16.0706 138.388 17.2337C138.388 17.3999 138.139 17.566 138.388 17.6491C138.637 17.7322 138.637 17.566 138.803 17.3999C139.717 16.4029 140.797 15.7382 142.21 15.7382C142.708 15.7382 142.957 15.9044 142.791 16.4029C142.708 16.569 142.708 16.8183 142.625 17.0675C142.459 17.566 142.459 18.1476 142.21 18.563C141.877 19.0615 141.296 18.563 140.797 18.7292C139.634 18.9785 138.886 19.6431 138.305 20.6401C137.723 21.6371 137.557 22.7172 137.308 23.7973C137.059 24.9604 136.809 26.1236 136.56 27.2867C136.477 27.7022 136.394 27.7852 135.978 27.7852C135.231 27.7852 134.483 27.7852 133.818 27.7852C133.32 27.7852 133.237 27.6191 133.32 27.2037C133.818 25.0435 134.234 22.8833 134.732 20.6401C134.981 19.3939 135.314 18.1476 135.48 16.9014C135.563 16.3198 135.812 16.0706 136.394 16.1536C136.56 16.0706 136.809 16.0706 137.059 16.0706Z" fill="black"/>
<path d="M4.20772 19.3935C3.79231 15.5717 4.62313 12.0822 6.78329 9.00809C10.6051 3.44153 17.0856 1.28137 22.7352 2.44453C29.2157 3.85694 34.0345 8.925 35.1146 15.2393C35.3638 16.4856 35.3638 17.8149 35.2807 19.0612C35.2807 19.2273 35.3638 19.3935 35.1976 19.5597C35.0315 19.6427 34.8653 19.4766 34.7822 19.3935C33.0375 17.8149 31.0435 17.0672 28.7172 17.0672C28.3848 17.0672 28.3018 16.9841 28.0525 16.7348C24.7292 12.6638 20.4089 10.8359 15.1747 11.5006C10.4389 12.0822 6.86637 14.6578 4.54005 18.895C4.37389 19.0612 4.2908 19.2273 4.20772 19.3935Z" fill="#DDE460"/>
<path d="M36.4446 26.1231C36.4446 30.4434 32.9551 33.9329 28.7179 33.9329C24.4807 33.9329 20.9912 30.4434 20.9912 26.1231C20.9912 21.8028 24.3976 18.3133 28.7179 18.3133C33.0382 18.3133 36.4446 21.8028 36.4446 26.1231Z" fill="#F6DF3F"/>
</svg>
