<svg width="50" height="50" viewBox="0 0 50 50" fill="none" xmlns="http://www.w3.org/2000/svg">
<rect x="0.5" y="0.5" width="49" height="49" rx="9.5" fill="white" stroke="#E5E5E5"/>
<path d="M44 24.8416C44 25.7142 43.9364 26.5222 43.8409 27.3624C42.9497 34.2462 38.3987 39.9666 32.2563 42.4873V28.7198H31.4288C31.4607 28.3643 31.4607 28.041 31.4924 27.8796C31.6835 23.2903 34.2931 21.4158 34.5796 18.895C34.7387 17.473 34.6113 14.3381 34.6113 14.3381C34.6113 14.3381 35.0251 13.9503 35.8207 14.0796C36.6483 14.2088 36.8711 14.4351 37.2212 13.9503C37.2212 13.9503 37.2212 13.918 37.2529 13.918C37.6348 13.4978 37.8895 13.6271 37.794 13.0454C37.6667 12.4637 37.603 12.1082 37.0938 12.0112C36.68 11.9143 34.6113 9.94283 34.4522 9.84587C34.3249 9.78124 34.2295 9.68428 34.1021 9.61964C33.9748 9.55501 33.8476 9.49038 33.7203 9.39342C33.2111 9.10256 32.5428 8.90864 31.8426 8.8117C31.1423 8.71474 30.3467 8.74706 29.5828 8.97329C29.4874 9.0056 29.392 9.03792 29.2964 9.07023C29.201 9.10256 29.1055 9.13488 29.0099 9.19952C28.8191 9.26415 28.6281 9.39342 28.469 9.49038C28.4053 9.5227 28.3736 9.5227 28.3417 9.55501L28.2143 9.65197C28.1189 9.7166 28.0235 9.78124 27.9279 9.84587L27.8644 9.8782C27.8644 9.8782 27.8325 9.91052 27.8007 9.91052L27.8961 9.94283L27.8007 10.0398L27.7051 10.1367L27.6734 10.1691L27.6414 10.2014L27.5779 10.266C27.4823 10.363 27.3869 10.4599 27.2915 10.5569C27.1959 10.6538 27.1322 10.7508 27.0686 10.8477C27.0051 10.9447 26.9414 11.0417 26.8458 11.1386C26.7821 11.2356 26.7186 11.3325 26.655 11.4295C26.5913 11.5264 26.5276 11.6234 26.4959 11.7527C26.4322 11.8496 26.4003 11.9789 26.3685 12.0758C26.3049 12.1728 26.2729 12.3021 26.2412 12.4313C26.2094 12.5606 26.1775 12.6576 26.1458 12.7868C26.0184 13.207 25.9865 13.6918 26.0184 14.1442C26.0502 14.5967 26.1458 15.0491 26.3366 15.4693C26.3685 15.5985 26.4322 15.6955 26.4639 15.7925C26.4959 15.8894 26.5594 16.0187 26.623 16.1156L26.8141 16.4065L26.8458 16.4388L26.8777 16.4711L26.9095 16.5358L27.0051 16.6327C27.0051 16.665 27.0368 16.665 27.0686 16.6974L27.1322 16.762L27.2596 16.8913C27.355 16.9882 27.4506 17.0529 27.546 17.1175C27.6414 17.1821 27.737 17.2468 27.8325 17.3114C27.9279 17.376 28.0235 17.4407 28.1189 17.473C28.6281 17.7639 29.201 17.8608 29.7102 17.8608C27.8961 18.1517 26.7504 17.473 26.1138 16.859C24.2998 17.6669 21.9447 18.6688 21.0854 19.1212C19.876 19.7353 18.4439 20.3816 18.1892 22.7086C17.1072 22.8055 15.9933 22.5793 15.9296 22.547C15.9933 22.6439 16.8844 24.0983 18.1574 24.0014C18.0938 26.8775 16.948 28.9137 16.407 29.3661C15.866 29.8186 15.675 29.8186 15.7387 31.0143C15.8023 32.1778 15.3249 34.5694 15.0067 34.9572C14.6884 35.345 14.6247 35.4743 14.7839 35.8944C14.9112 36.2176 14.8794 36.8964 14.8475 37.1548H14.4656V40.4513C9.72357 36.9933 6.63647 31.4022 6.63647 25.0032C6.63647 14.4997 15.0067 6 25.3501 6C35.6934 6 44 14.3381 44 24.8416Z" fill="url(#paint0_linear_18198_16431)"/>
<path d="M20.5119 26.5693C20.5739 28.3229 20.636 31.2778 20.5429 32.4142C20.4808 33.2585 20.4808 34.33 20.4498 34.9469H19.395V42.9673C18.6193 42.6751 17.8747 42.3829 17.1612 42.0257V37.0575H16.6027C16.6027 36.8304 16.6027 36.3433 16.2925 35.499C16.0132 34.6872 16.4476 32.7388 16.944 31.4725C17.1301 31.0505 17.3163 30.6608 17.5024 30.4659C18.0919 29.8814 19.6432 28.128 20.5119 26.5693Z" fill="url(#paint1_linear_18198_16431)"/>
<path d="M25.5245 25.6367C25.5245 26.8306 25.5245 28.5406 25.4601 29.5408C25.3958 30.3474 25.3958 31.5088 25.3637 32.2832H24.4309V43.898C23.627 43.8657 22.8551 43.769 22.1154 43.6399V34.9611H21.5044C21.5044 34.5416 21.5044 33.7672 21.5687 32.6058C21.633 30.799 23.1124 28.4114 22.823 25.7012C23.4662 25.8627 24.2381 25.9272 25.0099 25.7982C25.2029 25.7335 25.3637 25.669 25.5245 25.6367Z" fill="url(#paint2_linear_18198_16431)"/>
<path d="M30.1463 26.6171C30.2108 27.0042 30.2753 27.9074 30.2753 28.7461H29.5981V43.3263C28.8565 43.5198 28.0502 43.6489 27.2764 43.7134V32.1977H26.438C26.438 31.6816 26.5025 30.7783 26.7281 29.6171C27.1796 27.3268 28.5984 25.9074 30.1463 24.5205C30.0818 25.1979 30.0495 26.101 30.1463 26.6171Z" fill="url(#paint3_linear_18198_16431)"/>
<path d="M43.8409 27.3624C42.9498 34.2462 38.3986 39.9665 32.2563 42.4873V28.7198H31.4287C31.4606 28.3643 31.4606 28.041 31.4924 27.8794C31.6834 23.2902 34.2931 21.4158 34.5795 18.895C34.7386 17.473 34.6114 14.3381 34.6114 14.3381C34.6114 14.3381 35.025 13.9503 35.8207 14.0796C36.6482 14.2088 36.871 14.4351 37.2211 13.9503C37.2211 13.9503 37.2211 13.918 37.2528 13.918L43.8409 27.3624Z" fill="url(#paint4_linear_18198_16431)"/>
<g opacity="0.8">
<path opacity="0.8" d="M27.6097 15.4636L27.6733 15.5606L27.737 15.6898C27.737 15.7221 27.7689 15.7221 27.7689 15.7221L27.8007 15.7545C27.8324 15.7868 27.8324 15.7868 27.8324 15.8191C27.8644 15.8514 27.928 15.9161 27.9598 15.9807C27.9917 16.0453 28.0554 16.0777 28.1189 16.11C28.1825 16.1423 28.2145 16.2069 28.2781 16.2392C28.6918 16.5624 29.2965 16.6917 29.8057 16.6271H29.9012L29.9966 16.5947C30.0603 16.5624 30.1239 16.5624 30.1876 16.5301C30.2513 16.4978 30.3149 16.4978 30.3786 16.4655L30.474 16.4332L30.506 16.4008H30.5377C30.5377 16.4008 30.506 16.4332 30.506 16.4008L30.6014 16.3362C30.6331 16.3039 30.6968 16.3039 30.6968 16.2716L30.7605 16.2069C30.7924 16.1746 30.7924 16.1746 30.8241 16.1423C30.9196 16.0453 31.0152 15.9484 31.1106 15.8514C31.4288 15.4636 31.5244 14.9142 31.4924 14.4617C31.4607 14.2032 31.397 14.0093 31.2697 13.8154C31.2697 13.8477 31.2697 13.8154 31.2697 13.8154V13.783L31.1742 13.7184C31.1423 13.6861 31.1423 13.6538 31.1423 13.6215C31.1106 13.5891 31.0788 13.5245 31.0469 13.4922C31.0152 13.4599 30.9832 13.4276 30.9515 13.3629C30.9196 13.3306 30.8878 13.2983 30.8241 13.266C30.506 13.0074 30.1876 12.8781 29.8694 12.8781C29.5511 12.8458 29.3602 12.9104 29.2009 12.9751C29.1055 13.0074 29.0738 13.0397 29.0101 13.0397C28.9782 13.072 28.9464 13.072 28.9464 13.072L28.8828 12.9751C28.8828 12.9751 28.9145 12.9751 28.9464 12.9428C28.9782 12.9104 29.0419 12.8781 29.1374 12.8458C29.2965 12.7489 29.5193 12.6519 29.8694 12.6196C30.0603 12.6196 30.2513 12.6196 30.4104 12.6519C30.6331 12.6842 30.8241 12.7812 31.0152 12.9104C31.0788 12.9428 31.1106 12.9751 31.1742 13.0397C31.2379 13.1044 31.2697 13.1367 31.3333 13.169C31.3653 13.2336 31.4288 13.266 31.4924 13.3306C31.5244 13.3629 31.5244 13.3629 31.5561 13.3952L31.588 13.4276L31.6198 13.4599C31.6198 13.4599 31.6198 13.4599 31.6198 13.4922C31.7789 13.7184 31.9062 13.977 32.0016 14.3001C32.1926 14.8819 32.129 15.6252 31.7471 16.2716C31.8108 16.1746 31.8745 16.11 31.938 16.013C32.1926 15.6575 32.3837 15.2697 32.5108 14.8172C32.7018 14.2678 32.7338 13.6861 32.4791 13.1367C32.1609 12.4257 31.4607 11.9409 30.7605 11.747C30.3786 11.65 29.9968 11.5854 29.583 11.65C29.5193 11.65 29.4556 11.65 29.4239 11.6824C29.3602 11.6824 29.2965 11.7147 29.2646 11.7147C29.1374 11.747 29.0419 11.7793 28.9145 11.8116C28.8828 11.8116 28.851 11.8439 28.8191 11.8439L28.7237 11.8763C28.66 11.9086 28.5963 11.9409 28.5646 11.9409L28.5327 11.9732C28.5327 11.9732 28.6281 11.9086 28.5646 11.9409L28.5327 11.9732L28.4372 12.1025L28.3099 12.1671L28.2781 12.1995L28.2462 12.2318C28.2145 12.2641 28.1825 12.2964 28.1189 12.2964C28.0871 12.3287 28.0235 12.3934 27.9917 12.4257C27.9598 12.458 27.8961 12.5226 27.8644 12.555C27.8324 12.5873 27.7689 12.6519 27.737 12.6842C27.7053 12.7489 27.6734 12.7812 27.6097 12.8458L27.5143 13.0074C27.4825 13.072 27.4506 13.1367 27.4188 13.169C27.3869 13.2336 27.3552 13.2983 27.3232 13.3629C27.2278 13.6215 27.1641 13.8477 27.1324 14.1386C27.1005 14.4294 27.1324 14.688 27.1961 14.9465C27.1961 15.0111 27.2278 15.0758 27.2596 15.1404C27.2915 15.2051 27.2915 15.2697 27.3232 15.3343L27.6097 15.4636C27.6097 15.4636 27.6734 15.4959 27.6097 15.4636Z" fill="url(#paint5_linear_18198_16431)"/>
</g>
<defs>
<linearGradient id="paint0_linear_18198_16431" x1="44" y1="6" x2="7.52291" y2="43.353" gradientUnits="userSpaceOnUse">
<stop stop-color="#1F9AEA"/>
<stop offset="1" stop-color="#49F898"/>
</linearGradient>
<linearGradient id="paint1_linear_18198_16431" x1="20.5904" y1="26.5693" x2="12.4048" y2="28.7586" gradientUnits="userSpaceOnUse">
<stop stop-color="#1F9AEA"/>
<stop offset="1" stop-color="#49F898"/>
</linearGradient>
<linearGradient id="paint2_linear_18198_16431" x1="25.5245" y1="25.6367" x2="17.856" y2="27.3249" gradientUnits="userSpaceOnUse">
<stop stop-color="#1F9AEA"/>
<stop offset="1" stop-color="#49F898"/>
</linearGradient>
<linearGradient id="paint3_linear_18198_16431" x1="30.2753" y1="24.5205" x2="22.8955" y2="25.9959" gradientUnits="userSpaceOnUse">
<stop stop-color="#1F9AEA"/>
<stop offset="1" stop-color="#49F898"/>
</linearGradient>
<linearGradient id="paint4_linear_18198_16431" x1="43.8409" y1="13.918" x2="22.9583" y2="22.9904" gradientUnits="userSpaceOnUse">
<stop stop-opacity="0.5"/>
<stop offset="1" stop-color="#F9F9F9" stop-opacity="0"/>
</linearGradient>
<linearGradient id="paint5_linear_18198_16431" x1="32.6622" y1="11.624" x2="27.6674" y2="17.1391" gradientUnits="userSpaceOnUse">
<stop stop-color="#1F9AEA"/>
<stop offset="1" stop-color="#49F898"/>
</linearGradient>
</defs>
</svg>
