<?xml version="1.0" encoding="UTF-8"?>
<svg width="125px" height="25px" viewBox="0 0 125 25" version="1.1" xmlns="http://www.w3.org/2000/svg" xmlns:xlink="http://www.w3.org/1999/xlink">
    <!-- Generator: Sketch 52.4 (67378) - http://www.bohemiancoding.com/sketch -->
    <title>rakutenpay</title>
    <desc>Created with Sketch.</desc>
    <g id="Page-1" stroke="none" stroke-width="1" fill="none" fill-rule="evenodd">
        <g id="rakutenpay" fill="#BC2025" fill-rule="nonzero">
            <path d="M66.3309038,9.60084039 C65.7369062,6.21729197 61.4824312,6.40081763 60.84096,9.60084039 L66.3309038,9.60084039 Z M63.6698789,4.18654539 C67.1383393,4.18654539 70.2575029,7.41377868 69.506225,12.3209178 L60.7257499,12.3189879 C61.12638,15.4410462 64.5965772,17.0256189 66.6788499,13.9033678 L69.3711379,15.4850459 C67.6404778,17.9826154 65.580398,18.5434203 63.9726672,18.5434203 C60.787697,18.5434203 57.611218,15.5956245 57.611218,11.3643074 C57.611218,7.34025263 60.1419803,4.18654539 63.6698789,4.18654539 Z M31.5737387,10.9372388 L37.6389612,18.1956671 L33.3680828,18.1956671 L28.8723807,12.5831799 L28.8723807,18.1956671 L25.733533,18.1956671 L25.733533,0 L28.8723807,0 L28.8723807,9.29264868 L32.5293842,4.53314053 L36.8023854,4.53314053 L31.5737387,10.9372388 Z M56.6289411,14.9628375 L58.6380737,17.6831078 C57.6789546,18.260895 56.50331,18.5430342 55.6563132,18.5430342 C53.3831816,18.5430342 51.1237516,16.7207079 51.1245236,13.6698599 L51.1245236,7.77581237 L49.5119683,7.77581237 L49.5119683,4.5329475 L51.1245236,4.5329475 L51.1243305,1.12836408 L54.1726697,1.12836408 L54.1728628,4.5329475 L56.7796597,4.5329475 L56.7796597,7.77581237 L54.1728628,7.77581237 L54.1728628,13.6225795 C54.1728628,14.9116972 55.1117188,15.2988186 55.6096116,15.2988186 C56.0096628,15.2988186 56.3551,15.1517666 56.6289411,14.9628375 Z M3.18805803,4.36872013 L3.187865,9.65931395 L5.26840092,9.65931395 C6.69993921,9.65931395 7.87075934,8.47556408 7.87075934,7.01256961 C7.87075934,5.55343487 6.69993921,4.36872013 5.26840092,4.36872013 L3.18805803,4.36872013 Z M3.187865,18.1954742 L0,18.1954742 L0,1.12836408 L5.26840092,1.12836408 C8.46031842,1.12836408 11.0557296,3.76565224 11.0557296,7.01256961 C11.0557296,8.98966737 10.0902421,10.735187 8.62010737,11.8085513 L13.3373524,18.1954742 L9.34649053,18.1954742 L5.44285632,12.9023716 L3.187865,12.9023716 C3.187865,12.9023716 3.187865,18.1954742 3.187865,18.1954742 Z M73.7680333,18.1956671 L70.7196941,18.1956671 L70.7196941,4.53314053 L73.7680333,4.53314053 L73.7680333,5.04106842 C73.7680333,5.04106842 74.8595379,4.19754526 76.3588129,4.19754526 C79.5966601,4.19754526 81.8111253,6.87671053 81.8111253,10.1697505 L81.8111253,18.1956671 L78.7627861,18.1956671 L78.7629791,10.1697505 C78.7629791,8.66430013 77.7453864,7.39274368 76.2656026,7.39274368 C74.7846609,7.39274368 73.7680333,8.66430013 73.7680333,10.1697505 L73.7680333,18.1956671 Z M45.3651771,4.53314053 L48.4133234,4.53314053 L48.4133234,18.1956671 L45.3651771,18.1956671 L45.3651771,17.6875463 C45.3651771,17.6875463 44.2736725,18.5312624 42.7743976,18.5312624 C39.5367433,18.5312624 37.3220851,15.8520972 37.3220851,12.5588642 L37.3220851,4.53314053 L40.3702313,4.53314053 L40.3702313,12.5590571 C40.3702313,14.0645075 41.3878239,15.3358711 42.8676078,15.3358711 C44.3485495,15.3358711 45.3651771,14.0645075 45.3651771,12.5590571 L45.3651771,4.53314053 Z M18.0754396,15.2411171 C19.7873804,15.2411171 20.9939021,13.5282113 20.9939021,11.3646933 C20.9939021,9.20252618 19.7873804,7.48962039 18.0754396,7.48962039 C16.3656216,7.48962039 15.1135562,9.20252618 15.1135562,11.3646933 C15.1135562,13.5282113 16.3656216,15.2411171 18.0754396,15.2411171 Z M20.9473934,4.5329475 L23.9953467,4.53314053 L23.9953467,18.1956671 L20.9473934,18.1954742 L20.9473934,17.5897046 C20.0284145,18.1862111 19.2039966,18.5312624 18.0754396,18.5310693 C14.6077511,18.5310693 11.9735507,15.31638 11.9735507,11.3646933 C11.9735507,7.41416461 14.6077511,4.19735237 18.0754396,4.19735237 C19.2041896,4.19735237 20.0284145,4.5439475 20.9473934,5.13929605 L20.9473934,4.5329475 Z M65.8588707,20.7557626 L20.3049574,24.7665017 L16.3621479,20.7555696 L65.8588707,20.7557626 Z M104.971845,15.2410978 C106.683786,15.2410978 107.890308,13.5281921 107.890308,11.3646741 C107.890308,9.20269987 106.683786,7.48960118 104.971845,7.48960118 C103.262027,7.48960118 102.010155,9.20250684 102.010155,11.3646741 C102.010155,13.5281921 103.262027,15.2410978 104.971845,15.2410978 Z M107.843992,4.53312118 L110.891753,4.53312118 L110.891753,18.1956479 L107.843799,18.1956479 L107.843799,17.5896853 C106.92482,18.1861917 106.100595,18.531243 104.971845,18.531243 C101.50435,18.531243 98.8701495,15.3163607 98.8701495,11.3646741 C98.8701495,7.41414526 101.50435,4.19733303 104.971845,4.19733303 C106.100595,4.19733303 106.92482,4.54392816 107.843799,5.13927684 L107.843992,4.53312118 Z M92.3579814,9.65931395 C93.7895197,9.65931395 94.9603399,8.47556408 94.9603399,7.01256961 C94.9603399,5.55343487 93.7895197,4.36872013 92.3579814,4.36872013 L90.2776386,4.36872013 L90.2774455,9.65931395 L92.3579814,9.65931395 Z M98.1453101,7.01256961 C98.1453101,8.98966737 97.1798226,10.735187 95.7096879,11.8085513 L95.7166353,11.8180074 C94.8144457,12.4764611 93.724292,12.8811437 92.5453667,12.91974 L92.5324368,12.9023716 L90.2774455,12.9023716 L90.2774455,12.9245646 C90.2774455,12.9689504 90.2774455,18.1954742 90.2774455,18.1954742 L87.0895805,18.1954742 L87.0895805,12.9245646 L87.0895805,1.12836408 L92.3579814,1.12836408 C95.5498989,1.12836408 98.1453101,3.76565224 98.1453101,7.01256961 Z M124.608816,4.54601237 L119.827114,18.1473638 C119.111346,20.1833209 117.715509,21.2549484 115.820236,21.2549484 C114.973238,21.2549484 113.797594,20.9728092 112.838475,20.3950218 L114.472644,18.0524168 C114.746486,18.2413459 115.091922,18.388398 115.491974,18.388398 C115.558745,18.388398 115.633622,18.3808717 115.712938,18.3656262 C116.956318,17.9572768 116.428128,16.9198071 115.434272,14.2433437 C114.336399,11.2868638 112.057092,4.54601237 112.057092,4.54601237 L115.048116,4.54601237 L118.184262,13.3266805 L121.271968,4.54601237 L124.608816,4.54601237 Z" id="Combined-Shape"></path>
        </g>
    </g>
</svg>