<svg width="91" height="30" viewBox="0 0 91 30" fill="none" xmlns="http://www.w3.org/2000/svg">
<path d="M90.0085 18.9662H69.9563C67.0336 18.9662 65.7945 17.8312 65.2894 16.3084H71.6097C75.8339 16.3084 78.435 14.4469 78.435 10.4289C78.435 6.41095 75.8282 4.34142 71.604 4.34142H69.595C65.8116 4.34142 61.2071 6.54337 60.2405 11.8156H54.5861V0.293152H49.7982V11.8156H43.8904C38.2266 11.844 35.0731 14.7118 34.6607 18.9662H24.7746C21.8519 18.9662 20.6129 17.8312 20.1078 16.3084H26.428C30.6522 16.3084 33.2533 14.4469 33.2533 10.4289C33.2533 6.41095 30.6541 4.34142 26.4299 4.34142H24.4209C20.6374 4.34142 16.033 6.54337 15.0663 11.8156H10.9178C8.31861 11.8156 6.01261 12.6139 4.74327 14.1802V12.1693H0.0461426V28.7445C0.0461426 29.6904 0.34125 29.9855 1.25684 29.9855H3.62148C4.5068 29.9855 4.83218 29.6904 4.83218 28.7445V22.2162C4.83218 17.2826 7.93459 16.3065 11.1259 16.3065H15.1099C16.1049 21.2023 20.2042 23.5442 24.9468 23.5442H35.2528C36.437 26.3818 39.2651 27.8573 43.7977 27.8573H46.5445C51.0354 27.8573 54.8169 24.666 54.8169 19.9689V16.3065H60.2783C61.2733 21.2023 65.3727 23.5442 70.1152 23.5442H90.0085C90.2709 23.5402 90.5209 23.4321 90.7037 23.2437C90.8864 23.0554 90.9867 22.8021 90.9827 22.5397V19.9102C90.9787 19.6558 90.8738 19.4135 90.6911 19.2364C90.5084 19.0594 90.2628 18.9622 90.0085 18.9662ZM24.243 8.83234H26.5774C27.6406 8.83234 28.3802 9.275 28.3802 10.3457C28.3802 11.3502 27.6425 11.8231 26.5774 11.8231H19.9753C20.3669 10.1509 21.466 8.83234 24.243 8.83234ZM49.7982 20.1183C49.7982 21.9797 48.3813 23.3096 46.5482 23.3096H43.4761C40.9942 23.3096 39.3692 22.3354 39.3692 19.8818C39.3692 17.4888 40.9942 16.3065 43.4761 16.3065H49.7982V20.1183ZM69.4172 8.83234H71.7421C72.8052 8.83234 73.5449 9.275 73.5449 10.3457C73.5449 11.3502 72.8071 11.8231 71.7421 11.8231H65.14C65.541 10.1509 66.6345 8.83234 69.4172 8.83234Z" fill="#FF7800"/>
</svg>
