<svg width="50" height="50" viewBox="0 0 50 50" fill="none" xmlns="http://www.w3.org/2000/svg">
<rect width="50" height="50" rx="10" fill="#16182A"/>
<path d="M29.2921 40.5642C28.8811 40.5643 28.4759 40.4676 28.1093 40.2818L18.6814 35.5656C15.8633 34.1334 13.6108 31.7922 12.2883 28.921C10.9657 26.0497 10.6505 22.8162 11.3935 19.7436C12.1366 16.671 13.8945 13.9389 16.3829 11.9892C18.8713 10.0396 21.9447 8.98643 25.1059 9.00013C28.2671 9.01384 31.3312 10.0936 33.8026 12.0647C36.274 14.0359 38.0082 16.7831 38.7246 19.8621C39.441 22.9411 39.0977 26.1717 37.7503 29.0313C36.4029 31.891 34.1302 34.2125 31.2998 35.6203L31.7921 37.0722C31.9295 37.4684 31.9693 37.892 31.908 38.3069C31.8467 38.7217 31.6863 39.1157 31.4402 39.4554C31.1951 39.7967 30.8727 40.0751 30.4993 40.2678C30.1259 40.4605 29.7122 40.5621 29.2921 40.5642Z" fill="white"/>
<path fill-rule="evenodd" clip-rule="evenodd" d="M19.6136 33.4877C17.2134 32.2662 15.295 30.2713 14.1682 27.8251C13.0406 25.377 12.7718 22.62 13.4053 20.0002C14.0389 17.3803 15.5378 15.0509 17.6594 13.3885C19.7811 11.7262 22.4016 10.8283 25.0969 10.84C27.7922 10.8516 30.4048 11.7723 32.512 13.4529C34.6192 15.1336 36.0978 17.476 36.7086 20.1012C37.3195 22.7264 37.0268 25.4809 35.878 27.9192C34.7291 30.3575 32.7913 32.3369 30.378 33.5372L28.7589 34.3425L29.8342 37.5136L29.8365 37.5204C29.8648 37.602 29.873 37.6892 29.8604 37.7746C29.8478 37.86 29.8148 37.9412 29.7641 38.0111L29.7616 38.0146L29.759 38.0181C29.7046 38.0939 29.6329 38.1558 29.55 38.1986C29.4684 38.2407 29.3783 38.2632 29.2866 38.2644C29.2027 38.2638 29.12 38.2437 29.0451 38.2057L29.0402 38.2032L19.6136 33.4877Z" fill="#00E673"/>
<path d="M27.6854 20.5349L36.1263 21.6021C36.4919 21.6484 36.7889 21.9194 36.8683 22.2793L36.9694 22.7375C37.139 23.5058 38.2238 23.5349 38.4344 22.7768C38.4805 22.6108 38.4684 22.434 38.4002 22.2758L35.318 15.125C34.9858 14.3545 34.4419 13.694 33.7495 13.2201L30.3239 10.8764C29.5863 10.3716 28.7133 10.1016 27.8194 10.1016H20.2192C20.0001 10.1016 19.7898 10.1873 19.6331 10.3403C18.98 10.9782 19.6716 12.0526 20.5226 11.7224L20.806 11.6124C21.2721 11.4316 21.7963 11.6648 21.9741 12.1321L24.0962 17.7115C24.679 19.2435 26.0592 20.3293 27.6854 20.5349Z" fill="url(#paint0_linear)"/>
<path d="M37.1957 21.6797H37.1809V21.8068H37.1957V21.6797Z" fill="url(#paint1_linear)"/>
<path d="M25.052 31.5273C22.8084 31.5246 20.6575 30.6321 19.0711 29.0457C17.4847 27.4593 16.5922 25.3084 16.5895 23.0649C16.5997 22.7904 16.716 22.5306 16.9138 22.34C17.1116 22.1494 17.3756 22.043 17.6502 22.043C17.9249 22.043 18.1889 22.1494 18.3867 22.34C18.5845 22.5306 18.7008 22.7904 18.711 23.0649C18.713 24.746 19.3817 26.3577 20.5704 27.5464C21.7591 28.7352 23.3708 29.4039 25.052 29.4058C25.3264 29.4161 25.5863 29.5323 25.7768 29.7301C25.9674 29.9279 26.0739 30.1919 26.0739 30.4666C26.0739 30.7412 25.9674 31.0052 25.7768 31.203C25.5863 31.4008 25.3264 31.5171 25.052 31.5273" fill="white"/>
<defs>
<linearGradient id="paint0_linear" x1="19.7296" y1="32.2039" x2="35.327" y2="10.1016" gradientUnits="userSpaceOnUse">
<stop stop-color="white"/>
<stop offset="1" stop-color="white" stop-opacity="0"/>
</linearGradient>
<linearGradient id="paint1_linear" x1="40.7817" y1="21.2031" x2="40.783" y2="21.2031" gradientUnits="userSpaceOnUse">
<stop stop-color="white"/>
<stop offset="1" stop-color="white"/>
</linearGradient>
</defs>
</svg>
