<?xml version="1.0" encoding="UTF-8"?>
<svg width="40px" height="40px" viewBox="0 0 40 40" version="1.1" xmlns="http://www.w3.org/2000/svg" xmlns:xlink="http://www.w3.org/1999/xlink">
    <!-- Generator: Sketch 52.4 (67378) - http://www.bohemiancoding.com/sketch -->
    <title>Artboard</title>
    <desc>Created with Sketch.</desc>
    <g id="Artboard" stroke="none" stroke-width="1" fill="none" fill-rule="evenodd">
        <polygon id="Path" fill="#FD0D1A" points="4.92987397e-15 0 40 0 40 40 0 40"></polygon>
        <path d="M19.6760008,33.6653333 C27.7600008,33.6653333 34.3546675,30.384 34.3546675,26.364 C34.3546675,23.4226667 30.8253341,20.88 25.7680008,19.724 C25.7386675,18.9826667 25.8293341,17.8853333 25.2893341,16.676 C24.5053341,14.9093333 22.7733341,12.9373333 21.3733341,10.992 C19.9773341,9.05466667 20.2973341,7.612 20.2146675,7 C19.5933341,7.38666667 18.0506675,9.008 18.8320008,11.7706667 C19.6066675,14.5106667 22.4893341,17.5346667 23.3800008,19.108 C24.2693341,20.684 24.1213341,22.1253333 23.8666675,23.0133333 C23.6106675,23.9013333 23.1293341,24.2653333 22.7333341,24.52 C22.7600008,23.9306667 22.7400008,23.132 22.3786675,22.276 C22.0160008,21.4213333 20.2626675,19.3773333 18.9853341,17.8733333 C17.7120008,16.3693333 16.4746675,14.1146667 17.0306675,12.3213333 C16.4813341,12.656 15.3066675,14.128 15.3706675,15.8453333 C15.4306675,17.5626667 16.8613341,19.8906667 17.7440008,20.9906667 C18.6280008,22.0906667 20.1653341,24.2946667 20.4693341,25.5093333 C20.7720008,26.7226667 20.6640008,27.5893333 20.4040008,28.216 C20.1866675,28.736 19.4506675,29.3213333 19.4506675,29.3213333 C19.4506675,29.3213333 19.5173341,28.4746667 19.2133341,27.8253333 C18.9106675,27.176 15.3986675,22.4106667 15.0533341,21.912 C14.7360008,21.456 13.9133341,20.5133333 13.9586675,19.6426667 C8.70133414,20.756 5.00000081,23.3533333 5.00000081,26.3653333 C4.99733414,30.384 11.5920008,33.6653333 19.6760008,33.6653333 Z" id="Path" fill="#FFFFFF"></path>
    </g>
</svg>