<svg width="50" height="50" viewBox="0 0 50 50" fill="none" xmlns="http://www.w3.org/2000/svg">
<rect width="50" height="50" rx="10" fill="#E0F7E5"/>
<path d="M33.8749 16.5186C33.8583 16.369 33.7253 16.3025 33.6255 16.3025C33.5258 16.3025 31.3483 16.1363 31.3483 16.1363C31.3483 16.1363 29.8357 14.6236 29.6528 14.474C29.4866 14.3078 29.1708 14.3577 29.0378 14.3909C29.0212 14.3909 28.7054 14.4907 28.1901 14.6569C27.6748 13.1775 26.7938 11.8311 25.2147 11.8311H25.0651C24.6329 11.266 24.0678 11 23.6023 11C19.9454 11 18.1835 15.5711 17.6349 17.8982C16.2054 18.347 15.1915 18.6462 15.0751 18.6961C14.2772 18.9454 14.2606 18.9621 14.1609 19.7101C14.0778 20.2752 12 36.3489 12 36.3489L28.1734 39.3742L36.95 37.4792C36.9666 37.446 33.8915 16.6682 33.8749 16.5186ZM27.2925 14.8896C26.8935 15.006 26.4115 15.1556 25.9294 15.3218V15.0226C25.9294 14.125 25.8131 13.3936 25.597 12.8118C26.4281 12.9116 26.9434 13.8258 27.2925 14.8896ZM24.583 12.9947C24.7991 13.5598 24.9487 14.3577 24.9487 15.4548V15.621C24.0511 15.9036 23.1037 16.1861 22.1229 16.502C22.6715 14.4076 23.7187 13.377 24.583 12.9947ZM23.5192 11.9641C23.6854 11.9641 23.8517 12.0306 23.9846 12.1303C22.8045 12.6788 21.5578 14.0585 21.0425 16.851C20.2613 17.1004 19.5133 17.3165 18.7985 17.5492C19.3969 15.4215 20.8929 11.9641 23.5192 11.9641Z" fill="#95BF47"/>
<path d="M33.6257 16.2797C33.526 16.2797 31.3485 16.1135 31.3485 16.1135C31.3485 16.1135 29.8358 14.6009 29.653 14.4513C29.5865 14.3848 29.5034 14.3516 29.4369 14.3516L28.2235 39.3847L37 37.4897C37 37.4897 33.9249 16.6787 33.9083 16.5291C33.8418 16.3795 33.7254 16.313 33.6257 16.2797Z" fill="#5E8E3E"/>
<path d="M25.2142 21.1309L24.1504 24.339C24.1504 24.339 23.1863 23.8237 22.0394 23.8237C20.3273 23.8237 20.2442 24.9041 20.2442 25.1701C20.2442 26.6328 24.0673 27.198 24.0673 30.6388C24.0673 33.3482 22.3552 35.0936 20.0447 35.0936C17.2522 35.0936 15.8559 33.3648 15.8559 33.3648L16.6039 30.9047C16.6039 30.9047 18.0667 32.168 19.2967 32.168C20.1112 32.168 20.4436 31.5364 20.4436 31.071C20.4436 29.1594 17.3187 29.0763 17.3187 25.9181C17.3187 23.2751 19.2136 20.7153 23.0533 20.7153C24.4828 20.6987 25.2142 21.1309 25.2142 21.1309Z" fill="white"/>
</svg>
