<svg width="26" height="29" viewBox="0 0 26 29" fill="none" xmlns="http://www.w3.org/2000/svg">
<path d="M17.7882 21.6855C18.0668 19.4172 16.5965 17.9704 12.7156 16.7396C10.8358 16.1022 9.95032 15.2676 9.97103 14.117C10.0495 12.8432 11.2438 11.9142 12.8276 11.8832C13.9253 11.905 15.1447 12.1714 16.3304 12.9576C16.4713 13.0458 16.5705 13.0319 16.6506 12.9115C16.7604 12.736 17.0328 12.3146 17.1244 12.1636C17.1864 12.0649 17.1985 11.9375 17.0415 11.8238C16.8167 11.6581 16.1863 11.3226 15.8479 11.1819C14.9284 10.7993 13.8964 10.5584 12.7959 10.5606C10.4775 10.5703 8.65052 12.0279 8.4981 13.973C8.39839 15.3766 9.09759 16.5168 10.5989 17.386C10.917 17.5702 12.6393 18.2509 13.3243 18.4629C15.4792 19.1296 16.5981 20.3249 16.3348 21.7184C16.0958 22.9829 14.7572 23.7994 12.9122 23.8242C11.4492 23.7688 10.1328 23.1761 9.11195 22.3871C9.08609 22.3679 8.95788 22.2691 8.94046 22.2559C8.81423 22.1576 8.67649 22.1641 8.59267 22.2911C8.53054 22.3846 8.13606 22.9508 8.03645 23.0995C7.94288 23.2304 7.99295 23.3024 8.09015 23.3826C8.51673 23.736 9.08258 24.1225 9.46851 24.318C10.5288 24.8552 11.6797 25.1497 12.9041 25.1959C13.6914 25.2489 14.6846 25.0808 15.4255 24.7682C16.7567 24.2067 17.6163 23.0852 17.7882 21.6855ZM12.9992 1.69172C10.4871 1.69172 8.43948 4.04466 8.3436 6.98989H17.6548C17.5589 4.04466 15.5112 1.69172 12.9992 1.69172ZM22.5362 28.9707L22.4401 28.9714L3.26615 28.9686H3.26571C1.96153 28.9201 1.00252 27.8696 0.871682 26.5653L0.858861 26.3303L0.00153407 7.58665L0.00164365 7.58654C0.000438305 7.57238 0 7.55812 0 7.54363C0 7.24122 0.243917 6.99544 0.546897 6.99L6.5907 6.98989C6.73885 3.10096 9.55135 0 12.9992 0C16.447 0 19.2595 3.10096 19.4077 6.98989H25.4341H25.4427C25.7506 6.98989 26 7.23774 26 7.54363C26 7.55321 25.9998 7.56269 25.9993 7.57216V7.57249L25.0599 26.39L25.0514 26.5493C24.9379 27.8698 23.863 28.9349 22.5362 28.9707Z" fill="#FF4A36"/>
</svg>
