<?xml version="1.0" encoding="UTF-8"?>
<svg width="40px" height="42px" viewBox="0 0 40 42" version="1.1" xmlns="http://www.w3.org/2000/svg" xmlns:xlink="http://www.w3.org/1999/xlink">
    <!-- Generator: Sketch 52.4 (67378) - http://www.bohemiancoding.com/sketch -->
    <title>Group 30</title>
    <desc>Created with Sketch.</desc>
    <g id="CONFIGURACOES" stroke="none" stroke-width="1" fill="none" fill-rule="evenodd">
        <g id="CHECKOUT---AFILIACOES-DEPOSITO" transform="translate(-548.000000, -3703.000000)">
            <g id="Group-30" transform="translate(548.000000, 3703.000000)">
                <path d="M29.7584475,18.7535395 C28.5977688,19.7465158 27.7043224,19.9144328 27.3132725,19.5109091 C27.0567296,19.2465415 27.0053616,18.7358182 27.1995504,18.0751897 C27.8150753,15.9794229 28.2937179,13.8639012 28.6913001,11.7135178 C28.6942694,11.7126462 28.6978324,11.7111937 28.7010986,11.7094506 C31.0399745,10.6383261 33.388649,9.65551779 35.9852556,9.38969763 C34.7583627,12.8189229 32.5349905,16.3774269 29.7584475,18.7535395 M28.5579809,25.7892036 C27.0926575,25.472253 26.3916182,24.8293458 26.4367508,24.2445415 C26.4661463,23.8610632 26.8073128,23.4921107 27.4068038,23.2318103 C29.2495186,22.4326067 31.0687762,21.5523498 32.7817349,20.4983656 C32.7847041,20.5001087 32.7879703,20.5018518 32.7909396,20.5035949 C35.060632,21.6371798 37.2409502,23.0755138 38.9948844,24.8973261 C35.805913,26.113417 31.858299,26.5038676 28.5579809,25.7892036 M22.4971538,29.5194012 C21.7898791,28.0055336 21.8427317,26.9788577 22.3219682,26.6238498 C22.6367084,26.3911482 23.1373234,26.4353063 23.7210774,26.7723024 C25.5026257,27.8010119 27.3388081,28.7620316 29.263474,29.525502 C29.2640679,29.5289881 29.2646617,29.5333458 29.2655525,29.536832 C29.957684,32.3664368 30.3606108,35.3360692 30.1827529,38.2484704 C26.9789353,36.1954091 24.0714486,32.8899427 22.4971538,29.5194012 M15.6150329,26.8039684 C16.4096034,25.1494921 17.2579173,24.5272115 17.8422651,24.7006482 C18.2255949,24.8139486 18.5070795,25.2680217 18.6101124,25.9972115 C18.9370265,28.2989526 19.4106214,30.5588597 19.9869523,32.8184763 C19.9848738,32.8216719 19.9816076,32.8257391 19.9792322,32.8289348 C17.9862736,35.5966601 15.8478218,38.2609625 13.1651071,40.4287767 C12.8482884,35.9563162 13.6775992,30.838915 15.6150329,26.8039684 M13.5389353,19.1962826 C15.3567084,18.8212292 16.3493277,19.1300455 16.5723181,19.7171739 C16.7189989,20.1026858 16.537281,20.6177668 16.0224136,21.167419 C14.3213319,22.9831304 12.7618834,24.8923874 11.264492,26.8789209 L11.2508335,26.8789209 C7.58767338,27.1438696 3.77634783,26.9962885 0.201671262,26.123585 C3.84404666,22.9668617 8.78160764,20.1779289 13.5389353,19.1962826 M18.1822439,13.0280929 C19.542456,14.2200711 19.9147996,15.172085 19.6107487,15.6909427 C19.412106,16.0308439 18.9156479,16.1920791 18.1878855,16.10783 C15.7501336,15.8269032 13.3183203,15.7173794 10.8580021,15.6996581 C10.8556267,15.696753 10.8526575,15.6923953 10.8496882,15.6891996 C8.52654931,12.9845158 6.42551007,9.93760672 5.07479958,6.64724704 C9.6789141,7.71459486 14.6610138,9.94254545 18.1822439,13.0280929 M25.4043436,13.1268676 C25.394842,14.815334 24.9473765,15.665668 24.3924242,15.729 C24.0286914,15.770834 23.6100276,15.476253 23.229667,14.8650119 C21.9843648,12.8636621 20.6202927,10.9555672 19.1727847,9.08233399 C19.1733786,9.07855731 19.1748632,9.07449012 19.1760509,9.07042292 C19.7378324,6.11473518 20.6372174,3.10152569 22.1752874,0.480800395 C24.0999533,4.27462055 25.4278006,8.90628261 25.4043436,13.1268676" id="Fill-1" fill="#146E37"></path>
                <path d="M29.5834401,3.14591621 C29.4462609,5.40088458 29.28028,7.66108221 28.9682121,9.8678253 C28.8835885,10.4662838 28.7876819,11.163517 28.6914783,11.7137502 C28.6941506,11.7125881 28.6980106,11.7108451 28.7009799,11.709683 C31.0395589,10.6385585 33.3879364,9.65604071 35.9845429,9.38993004 C34.3538324,6.87785692 32.166982,4.72108221 29.5834401,3.14591621 M38.8572895,16.214681 C37.3575228,17.421185 35.8152959,18.5905032 34.1857731,19.6122403 C33.7302906,19.8981059 33.2127508,20.2432364 32.781913,20.4988885 C32.7845854,20.5003411 32.7878515,20.5020842 32.7908208,20.5038273 C35.0602163,21.6368312 37.2402375,23.0751652 38.9941718,24.896687 C39.4098664,21.8860921 39.3769077,19.2098787 38.8572895,16.214681 M36.3515419,31.8048154 C34.4832916,31.3420269 32.6221676,30.8159063 30.8352747,30.126517 C30.3263457,29.9298391 29.7339809,29.7215407 29.2633552,29.5254439 C29.2639491,29.52893 29.2648399,29.5332877 29.2654337,29.5367739 C29.9575652,32.3660881 30.360789,35.33543 30.1829311,38.2475407 C32.7002587,36.583768 34.8102057,34.3639518 36.3515419,31.8048154 M22.9082757,41.1779538 C22.0388802,39.0333806 21.203334,36.8734103 20.5400042,34.6960091 C20.355614,34.0911593 20.1382651,33.3881158 19.9868335,32.8187087 C19.984755,32.8219043 19.9814889,32.825681 19.9794104,32.8288767 C17.9867487,35.5960209 15.8485938,38.2597423 13.166473,40.427847 C16.4050308,41.3557482 19.5506511,41.7912285 22.9082757,41.1779538 M5.66081018,35.7386632 C7.01270838,33.3285605 8.43646235,30.9414083 9.9944263,28.6910881 C10.4080424,28.0937917 10.8733234,27.4073075 11.2643733,26.8785723 C11.2596225,26.8788628 11.2551686,26.8788628 11.2507147,26.8788628 C7.58844539,27.144102 3.7780106,26.9965209 0.203630965,26.1241079 C1.11786214,29.7305466 2.99234783,33.0883055 5.66081018,35.7386632 M-5.93849416e-05,16.5150723 C2.87298409,16.171104 5.76027996,15.857349 8.61996182,15.762351 C9.3587105,15.7376573 10.196929,15.7013431 10.8581803,15.6998905 C10.855508,15.6966949 10.8528356,15.6923372 10.8498664,15.6891415 C8.52702439,12.9850387 6.42628208,9.93842016 5.07557158,6.6486415 C2.51340827,9.41898142 0.763630965,12.8575032 -5.93849416e-05,16.5150723 M22.1745748,0.481904348 C20.6368017,3.10204862 19.7380106,6.1152581 19.1759321,9.07036482 C19.1750414,9.07443202 19.1738537,9.07849921 19.1729629,9.0825664 C18.7869608,8.59159802 18.2747656,8.00011186 17.831754,7.4612087 C16.1520509,5.41511976 14.2965684,3.50034308 12.4182227,1.62100909 C15.500895,0.410437945 18.8867275,0.0133055336 22.1745748,0.481904348" id="Fill-3" fill="#64C832"></path>
            </g>
        </g>
    </g>
</svg>