<svg width="50" height="50" viewBox="0 0 50 50" fill="none" xmlns="http://www.w3.org/2000/svg">
<rect width="50" height="50" rx="10" fill="#593B8A"/>
<path d="M27.3501 9H21.6526L18.8011 13.918L21.6526 18.8333H27.3501L30.1989 13.918L27.3501 9Z" fill="white"/>
<path d="M37.1512 14.5417H31.4537L28.6049 19.4569L31.4537 24.375H37.1512L40 19.4569L37.1512 14.5417Z" fill="white"/>
<path d="M37.1512 25.6251H31.4537L28.6049 30.5403L31.4537 35.4583H37.1512L40 30.5403L37.1512 25.6251Z" fill="white"/>
<path d="M17.5491 25.6251H11.8488L9 30.5403L11.8488 35.4583H17.5491L20.3978 30.5403L17.5491 25.6251Z" fill="white"/>
<path d="M17.5491 14.5417H11.8488L9 19.4569L11.8488 24.375H17.5491L20.3978 19.4569L17.5491 14.5417Z" fill="white"/>
<path d="M27.3501 31.1667H21.6526L18.8011 36.082L21.6526 41H27.3501L30.1989 36.082L27.3501 31.1667Z" fill="white"/>
<path d="M27.4218 20.0834H21.7243L18.8755 24.9986L21.7243 29.9166H27.4218L30.2706 24.9986L27.4218 20.0834ZM24.5731 28.0264C24.0512 28.0255 23.5383 27.8905 23.0841 27.6344C22.6298 27.3784 22.2496 27.0098 21.9801 26.5645C21.7107 26.1192 21.5611 25.6122 21.5458 25.0925C21.5306 24.5727 21.6502 24.0578 21.8931 23.5976C22.1359 23.1374 22.4939 22.7474 22.9323 22.4653C23.3708 22.1832 23.8749 22.0186 24.3958 21.9873C24.9168 21.9561 25.437 22.0593 25.9063 22.287C26.3755 22.5146 26.7778 22.8591 27.0744 23.2869H26.5394C26.184 22.8818 25.7115 22.5961 25.1868 22.4691C24.662 22.342 24.1106 22.3798 23.6083 22.5773C23.1059 22.7747 22.6772 23.1222 22.3808 23.572C22.0845 24.0217 21.9351 24.5518 21.9531 25.0896C21.9711 25.6273 22.1556 26.1463 22.4813 26.5754C22.8071 27.0046 23.2581 27.3228 23.7725 27.4865C24.287 27.6502 24.8396 27.6513 25.3547 27.4897C25.8699 27.3281 26.3222 27.0117 26.6497 26.5839H27.1571C26.886 27.0243 26.5062 27.3882 26.0538 27.6407C25.6014 27.8932 25.0916 28.026 24.5731 28.0264Z" fill="white"/>
</svg>
