<svg width="50" height="50" viewBox="0 0 50 50" fill="none" xmlns="http://www.w3.org/2000/svg">
<rect width="50" height="50" rx="10" fill="#0C5C9D"/>
<path fill-rule="evenodd" clip-rule="evenodd" d="M12 24.8534C12.0163 17.7281 17.8037 11.9765 24.9322 12.0001C32.0828 12.0222 37.8421 17.7855 37.8199 24.8962C37.7978 32.0215 32.0059 37.7701 24.8789 37.7392C17.7342 37.7082 11.9838 31.9552 12 24.8534ZM27.5076 24.7456C27.479 24.715 27.4554 24.6893 27.4348 24.667C27.3978 24.6267 27.3705 24.5971 27.342 24.5687L25.5908 22.8224L25.5892 22.8208C23.5471 20.7844 21.5049 18.7479 19.4653 16.7078C19.3308 16.5722 19.2687 16.6017 19.1518 16.7196C18.2543 17.6247 17.3524 18.5253 16.443 19.4185C16.301 19.5586 16.2833 19.6264 16.4356 19.7767C17.2974 20.6287 18.1563 21.4841 19.0151 22.3395L19.0174 22.3418C19.761 23.0824 20.5045 23.823 21.25 24.5613C21.3816 24.6925 21.3875 24.7559 21.2515 24.89C20.475 25.6592 19.7005 26.4304 18.926 27.2016C18.087 28.037 17.2479 28.8725 16.406 29.7056C16.2626 29.8486 16.2759 29.9194 16.4105 30.052C17.3183 30.9453 18.2203 31.8459 19.1193 32.7509C19.2317 32.8644 19.2864 32.8659 19.4017 32.7524C22.0588 30.1021 24.7189 27.4578 27.3804 24.8134C27.4019 24.794 27.4297 24.7816 27.4598 24.7682C27.4753 24.7613 27.4915 24.7541 27.5076 24.7456ZM35.0509 24.6529C35.0674 24.6713 35.0847 24.6905 35.1038 24.7108C35.0812 24.7342 35.0619 24.7549 35.0442 24.7738C35.033 24.7858 35.0224 24.7972 35.0121 24.8081C34.5682 25.2495 34.1243 25.691 33.6804 26.1325C31.458 28.3428 29.2353 30.5535 27.0156 32.7662C26.9107 32.8709 26.8589 32.8502 26.7672 32.7574C25.852 31.8391 24.9337 30.9237 24.0111 30.0128C23.8957 29.8993 23.8972 29.8433 24.0111 29.7298C24.6576 29.0876 25.3031 28.4446 25.9487 27.8015C26.9169 26.837 27.8851 25.8725 28.8565 24.9112C29.0014 24.7668 29.0251 24.696 28.8639 24.5368C28.0044 23.6872 27.1479 22.8341 26.2914 21.981C25.5492 21.2418 24.807 20.5025 24.0628 19.7655C23.9223 19.6269 23.9253 19.5576 24.0643 19.422C24.9796 18.5229 25.886 17.6164 26.7894 16.7069C26.9033 16.5919 26.9639 16.5772 27.0881 16.701C29.1333 18.7467 31.1811 20.7888 33.2289 22.8307C33.8135 23.4137 34.398 23.9966 34.9825 24.5796C35.0058 24.6028 35.0276 24.6271 35.0509 24.6529Z" fill="white"/>
</svg>
