<svg width="50" height="50" viewBox="0 0 50 50" fill="none" xmlns="http://www.w3.org/2000/svg">
<rect x="0.5" y="0.5" width="49" height="49" rx="9.5" fill="white" stroke="#E5E5E5"/>
<g clip-path="url(#clip0_18198_15818)">
<path fill-rule="evenodd" clip-rule="evenodd" d="M40.9556 32.8137C40.9527 33.7741 40.438 34.6609 39.6033 35.1435L39.3953 35.2312C39.5222 34.7804 39.5913 34.3058 39.5913 33.8153C39.5913 30.9122 37.2172 28.5506 34.2987 28.5506C31.3805 28.5506 29.0062 30.9122 29.0062 33.8153C29.0062 35.8128 30.1303 37.5539 31.7823 38.4459L26.82 40.5412C26.2469 40.8725 25.5286 40.46 25.5306 39.8006L25.5725 25.0933C25.5752 24.1329 26.0899 23.246 26.9246 22.7635L39.7079 17.3657C40.281 17.0344 40.9993 17.447 40.9973 18.1063L40.9556 32.8137ZM38.7193 15.3664L25.9366 20.7637C25.0947 21.2504 24.0555 21.2518 23.2122 20.7676L10.333 15.3629C9.76174 15.0348 9.7606 14.2151 10.3309 13.8855L23.1135 8.48804C23.9553 8.00151 24.9947 7.99994 25.838 8.48419L38.7172 13.8889C39.2885 14.217 39.2896 15.0367 38.7193 15.3664ZM23.5697 25.1086L23.5279 39.8151C23.526 40.4712 22.8117 40.8801 22.2405 40.552L9.36131 35.1475C8.51802 34.6632 7.9996 33.7671 8.00245 32.7985L8.04431 18.092C8.04617 17.4357 8.76045 17.0269 9.33174 17.3551L22.2109 22.7596C23.0542 23.2439 23.5726 24.14 23.5697 25.1086ZM34.2987 30.5427C36.113 30.5427 37.5887 32.0106 37.5887 33.8153C37.5887 35.6199 36.113 37.088 34.2987 37.088C32.4846 37.088 31.0087 35.6199 31.0087 33.8153C31.0087 32.0106 32.4846 30.5427 34.2987 30.5427ZM39.3497 40.5058C39.6272 40.9825 39.4626 41.5914 38.9835 41.8661C38.5043 42.1421 37.892 41.9785 37.6159 41.5019L36.0396 38.7869C36.6819 38.5635 37.2683 38.2221 37.7705 37.7852L39.3497 40.5058Z" fill="url(#paint0_linear_18198_15818)"/>
</g>
<defs>
<linearGradient id="paint0_linear_18198_15818" x1="8.00244" y1="42.0002" x2="8.00244" y2="8.12207" gradientUnits="userSpaceOnUse">
<stop stop-color="#ED5F4D"/>
<stop offset="1" stop-color="#F08D4F"/>
</linearGradient>
<clipPath id="clip0_18198_15818">
<rect width="33" height="34" fill="white" transform="translate(8 8)"/>
</clipPath>
</defs>
</svg>
