<svg width="60" height="15" viewBox="0 0 60 15" fill="none" xmlns="http://www.w3.org/2000/svg">
<path d="M3.48413 3.22308H0V0.0410156H10.8V3.22308H7.30758V12.5458H3.48827L3.48413 3.22308Z" fill="#074C78"/>
<path d="M13.9737 8.44095C13.5383 8.63344 13.0812 8.77239 12.6123 8.85474C11.8427 9.0244 11.4413 9.21474 11.4371 9.82302C11.478 10.0717 11.6118 10.2956 11.8116 10.4493C12.0114 10.603 12.2621 10.6749 12.513 10.6506C12.7006 10.6625 12.8886 10.6358 13.0654 10.5721C13.2423 10.5084 13.4042 10.4091 13.5411 10.2803C13.678 10.1515 13.787 9.99602 13.8615 9.82341C13.9359 9.65081 13.9741 9.46477 13.9737 9.27681V8.44095ZM17.284 10.5099C17.2239 11.2115 17.3676 11.9156 17.6978 12.5375L14.164 12.4878C14.0772 12.2209 14.038 11.9408 14.0482 11.6603H14.0109C13.2744 12.4878 12.2068 12.732 11.0896 12.7237C9.34335 12.7237 7.90335 11.8672 7.91163 9.96785C7.91163 7.1044 11.2799 7.22854 13.0427 6.90992C13.5185 6.81475 13.9737 6.69475 13.9737 6.10302C13.9737 5.5113 13.4027 5.27544 12.844 5.27544C11.7806 5.27544 11.5654 5.80923 11.5489 6.19406H8.33783C8.45783 3.64923 10.8661 3.24372 13.0137 3.25613C17.3585 3.24372 17.313 5.03958 17.284 6.78578V10.5099Z" fill="#074C78"/>
<path d="M22.9985 5.79723C21.7571 5.79723 21.4757 6.95585 21.4675 8.0193C21.4592 9.08275 21.7323 10.2745 22.9737 10.2786C24.215 10.2827 24.5006 9.11999 24.5047 8.03585C24.5088 6.95172 24.2399 5.80137 22.9985 5.7931V5.79723ZM18.1819 0H21.6371L21.6123 4.48551H21.6454C21.9298 4.09741 22.3045 3.78453 22.7372 3.57398C23.1698 3.36344 23.6473 3.26158 24.1281 3.27724C27.1612 3.27724 27.9681 5.87999 27.9557 8.01103C27.9557 10.2786 26.6895 12.8027 24.124 12.7862C22.4316 12.7862 21.9102 12.1283 21.4799 11.5448H21.4468V12.5172H18.1819V0Z" fill="#074C78"/>
<path d="M32.8055 2.55679C31.4979 2.55679 31.3159 3.82299 31.3076 4.77885C31.2993 5.73471 31.469 7.02988 32.7766 7.03816C34.0841 7.04644 34.2662 5.7554 34.2745 4.7954C34.2828 3.8354 34.1131 2.57748 32.8055 2.55679ZM32.7641 9.55402C29.3628 9.55402 27.84 7.27402 27.8524 4.7623C27.8648 2.25058 29.4166 0.0243753 32.8179 0.045065C36.2193 0.0657546 37.7421 2.30437 37.7297 4.82023C37.7172 7.33609 36.1655 9.57471 32.7641 9.55402Z" fill="#074C78"/>
<path d="M41.3751 2.55679C40.0675 2.55679 39.8854 3.82299 39.8813 4.78299C39.8772 5.74299 40.0427 7.03402 41.3503 7.0423C42.6579 7.05057 42.8399 5.75954 42.8441 4.79954C42.8482 3.83954 42.6827 2.56506 41.3751 2.55679ZM41.3337 9.55402C37.9323 9.55402 36.4096 7.27402 36.4261 4.7623C36.4427 2.25058 37.9903 0.0243753 41.3917 0.045065C44.793 0.0657546 46.3158 2.30851 46.3034 4.82023C46.291 7.33195 44.7392 9.57471 41.3379 9.55402" fill="#074C78"/>
<path d="M46.6633 0.0449219H50.044V12.5456H46.6633V0.0449219Z" fill="#074C78"/>
<path d="M56.3504 8.40898C55.9148 8.60105 55.4577 8.73998 54.989 8.82277C54.2193 8.99243 53.8179 9.18277 53.8138 9.79518C53.8546 10.0439 53.9885 10.2678 54.1883 10.4215C54.3881 10.5751 54.6388 10.6471 54.8897 10.6228C55.0799 10.6349 55.2706 10.6073 55.4495 10.5416C55.6284 10.4758 55.7916 10.3735 55.9287 10.241C56.0658 10.1086 56.1738 9.94905 56.2456 9.77252C56.3175 9.59599 56.3518 9.4064 56.3462 9.21587L56.3504 8.40898ZM59.6607 10.4779C59.6607 11.1566 59.6193 11.9552 60 12.5469H56.5283C56.4359 12.254 56.3939 11.9476 56.4041 11.6407H56.3669C55.6304 12.4683 54.5628 12.7124 53.4497 12.7041C51.7035 12.7041 50.2593 11.8476 50.2717 9.94415C50.2717 7.0807 53.6359 7.20898 55.4028 6.88622C55.8745 6.79933 56.3462 6.66277 56.3504 6.0876C56.3545 5.51243 55.7793 5.26002 55.2207 5.26002C54.1573 5.26002 53.9421 5.79381 53.9255 6.17864H50.7145C50.8345 3.62967 53.2428 3.22416 55.3904 3.24071C59.7186 3.26554 59.6731 5.0614 59.6607 6.8076V10.4779Z" fill="#074C78"/>
<path d="M29.1476 9.55078C31.5958 10.6268 34.2445 11.1712 36.9186 11.148C39.8152 11.148 42.0414 10.6142 44.8386 9.55078V12.5673C42.381 13.8079 39.6675 14.4569 36.9145 14.4625C33.9683 14.4625 31.8414 13.8377 29.1435 12.5673L29.1476 9.55078Z" fill="#074C78"/>
</svg>
