<?xml version="1.0" encoding="UTF-8"?>
<svg width="142px" height="30px" viewBox="0 0 142 30" version="1.1" xmlns="http://www.w3.org/2000/svg" xmlns:xlink="http://www.w3.org/1999/xlink">
    <!-- Generator: Sketch 52.4 (67378) - http://www.bohemiancoding.com/sketch -->
    <title>Artboard</title>
    <desc>Created with Sketch.</desc>
    <defs>
        <linearGradient x1="2.03731343%" y1="113.141141%" x2="106.274627%" y2="-7.85435435%" id="linearGradient-1">
            <stop stop-color="#2FDFBF" offset="0%"></stop>
            <stop stop-color="#2FDFBF" offset="0%"></stop>
            <stop stop-color="#2F74FF" offset="100%"></stop>
        </linearGradient>
    </defs>
    <g id="Artboard" stroke="none" stroke-width="1" fill="none" fill-rule="evenodd">
        <path d="M29.3641975,9.58208955 C29.3641975,5.82089552 27.1728395,2.23880597 23.5351852,0.71641791 C22.3518519,0.223880597 21.1246914,2.30926389e-14 19.8975309,2.30926389e-14 C18.012963,2.30926389e-14 16.1722222,0.582089552 14.6382716,1.6119403 C13.1481481,0.582089552 11.3512346,2.30926389e-14 9.42283951,2.30926389e-14 C8.7654321,2.30926389e-14 8.06419753,0.0895522388 7.36296296,0.223880597 C3.85679012,0.985074627 1.05185185,3.76119403 0.219135802,7.29850746 L0.219135802,7.3880597 C0.087654321,8.01492537 1.77635684e-15,8.68656716 1.77635684e-15,9.31343284 C1.77635684e-15,10.7014925 0.306790123,12.0447761 0.788888889,13.2537313 L5.52222222,25.2985075 C6.22345679,27.1343284 7.62592593,28.6567164 9.55432099,29.3731343 C10.2555556,29.641791 10.9567901,29.7761194 11.7018519,29.8208955 L28.0932099,29.8208955 L25.1567901,21.8955224 L28.662963,13.2537313 C29.1012346,12.0447761 29.3641975,10.7910448 29.3641975,9.58208955 Z M3.1117284,9.31343284 C3.1117284,8.91044776 3.15555556,8.46268657 3.24320988,8.05970149 L3.24320988,7.97014925 C3.7691358,5.68656716 5.69753086,3.76119403 7.97654321,3.31343284 C8.45864198,3.2238806 8.94074074,3.17910448 9.37901235,3.17910448 C10.4308642,3.17910448 11.3950617,3.44776119 12.2716049,3.89552239 C11.8333333,4.52238806 11.4388889,5.14925373 11.1320988,5.91044776 L6.13580247,18.4477612 L3.63765432,12.0895522 C3.3308642,11.1492537 3.1117284,10.2089552 3.1117284,9.31343284 Z M25.7265432,12.0447761 L21.7382716,21.8507463 L23.5351852,26.6865672 L11.8333333,26.6865672 C11.4388889,26.6865672 11.0444444,26.5970149 10.65,26.4179104 C9.07222222,25.8358209 8.15185185,24.3134328 8.15185185,22.7462687 C8.15185185,22.2985075 8.23950617,21.8059701 8.41481481,21.3134328 L14.0685185,7.11940299 C15.0765432,4.65671642 17.4432099,3.17910448 19.941358,3.17910448 C20.7302469,3.17910448 21.562963,3.31343284 22.3518519,3.67164179 C24.8061728,4.70149254 26.2524691,7.07462687 26.2524691,9.58208955 C26.208642,10.3880597 26.0771605,11.238806 25.7265432,12.0447761 Z" id="Shape" fill="url(#linearGradient-1)" fill-rule="nonzero"></path>
        <path d="M47.1141975,9.2238806 L41.504321,9.2238806 L41.504321,25.1641791 C40.9345679,25.2537313 40.4524691,25.3432836 39.8388889,25.3432836 C39.312963,25.3432836 38.787037,25.2537313 38.217284,25.1641791 L38.217284,9.2238806 L32.6074074,9.2238806 C32.4759259,8.73134328 32.4320988,8.23880597 32.4320988,7.70149254 C32.4320988,7.1641791 32.4759259,6.71641791 32.6074074,6.17910448 L47.1141975,6.17910448 C47.245679,6.67164179 47.2895062,7.1641791 47.2895062,7.70149254 C47.2895062,8.23880597 47.245679,8.68656716 47.1141975,9.2238806 Z M56.9753086,16.5671642 L56.9753086,24.2238806 C55.3537037,25.0298507 52.9432099,25.6119403 50.6641975,25.6119403 C46.6320988,25.6119403 44.6160494,23.8656716 44.6160494,21.0895522 C44.6160494,18.1791045 47.0703704,16.6567164 50.4012346,16.6567164 C51.7160494,16.6567164 52.8117284,16.8358209 53.7759259,17.1940299 L53.7759259,16.3880597 C53.7759259,14.6865672 52.6802469,13.7014925 50.4888889,13.7014925 C48.8234568,13.7014925 47.4648148,14.3283582 46.6759259,14.9552239 C45.887037,14.5522388 45.317284,13.7910448 45.1858025,12.8059701 C45.9746914,12 48.0783951,10.8358209 50.7080247,10.8358209 C54.3018519,10.7910448 56.9753086,12.4029851 56.9753086,16.5671642 Z M50.9271605,23.0149254 C51.9790123,23.0149254 52.8993827,22.8358209 53.7759259,22.5671642 L53.7759259,19.5671642 C52.8993827,19.1641791 51.8037037,18.9850746 50.6641975,18.9850746 C49.0425926,18.9850746 47.9469136,19.5671642 47.9469136,20.8656716 C47.9469136,22.1641791 48.9111111,23.0149254 50.9271605,23.0149254 Z M73.1475309,18.0895522 C73.1475309,22.7910448 69.7290123,25.5671642 65.9160494,25.5671642 C64.7765432,25.5671642 63.8561728,25.4328358 62.9796296,25.1641791 L62.9796296,29.6865672 C62.4537037,29.8208955 61.9277778,29.8208955 61.3580247,29.8208955 C60.7882716,29.8208955 60.3061728,29.7761194 59.6925926,29.6865672 L59.6925926,12.9402985 C61.0074074,11.8208955 63.1987654,10.7910448 65.7845679,10.7910448 C69.9919753,10.7910448 73.1475309,13.2537313 73.1475309,18.0895522 Z M69.8604938,18.1343284 C69.8604938,15.4477612 68.1512346,13.8358209 65.6530864,13.8358209 C64.6888889,13.8358209 63.8123457,14.0597015 62.9796296,14.5074627 L62.9796296,22.0298507 C63.7685185,22.4328358 64.6450617,22.6119403 65.6969136,22.6119403 C68.1512346,22.6119403 69.8604938,20.9104478 69.8604938,18.1343284 Z M86.9969136,25.119403 C86.4709877,25.2537313 85.9450617,25.2537313 85.3753086,25.2537313 C84.8493827,25.2537313 84.2796296,25.2089552 83.7098765,25.119403 L83.7098765,13.9253731 L78.8888889,13.880597 L78.8888889,25.119403 C78.362963,25.2089552 77.837037,25.2537313 77.3111111,25.2537313 C76.741358,25.2537313 76.2592593,25.2089552 75.645679,25.119403 L75.645679,13.9253731 L73.8049383,13.9253731 C73.7611111,13.5223881 73.6734568,13.2089552 73.6734568,12.761194 C73.6734568,12.3134328 73.717284,11.9104478 73.8049383,11.5074627 L75.645679,11.5074627 C75.7333333,7.34328358 78.6259259,5.55223881 81.6938272,5.55223881 C84.0166667,5.55223881 85.462963,6.35820896 86.2080247,7.02985075 C86.1203704,7.92537313 85.462963,9 84.7617284,9.31343284 C83.8851852,8.68656716 83.1839506,8.32835821 81.8253086,8.32835821 C80.1598765,8.32835821 78.8888889,9.13432836 78.8888889,11.2835821 L78.8888889,11.5074627 L86.9969136,11.5522388 L86.9969136,25.119403 Z M90.8098765,25.119403 L90.8098765,5.7761194 C91.3358025,5.64179104 91.8617284,5.64179104 92.4314815,5.64179104 C93.0012346,5.64179104 93.5709877,5.68656716 94.0969136,5.7761194 L94.0969136,25.119403 C93.5709877,25.2537313 93.0012346,25.2537313 92.4314815,25.2537313 C91.9055556,25.2537313 91.3796296,25.2537313 90.8098765,25.119403 Z M97.3839506,6.94029851 C97.3839506,5.7761194 98.3481481,4.8358209 99.5314815,4.8358209 C100.670988,4.8358209 101.591358,5.7761194 101.591358,6.94029851 C101.591358,8.10447761 100.62716,9.04477612 99.5314815,9.04477612 C98.3481481,9.04477612 97.3839506,8.10447761 97.3839506,6.94029851 Z M97.9098765,25.119403 L97.9098765,11.1940299 C98.4796296,11.0597015 99.0055556,11.0597015 99.5753086,11.0597015 C100.101235,11.0597015 100.670988,11.1044776 101.196914,11.1940299 L101.196914,25.119403 C100.670988,25.2537313 100.145062,25.2537313 99.5753086,25.2537313 C99.0055556,25.2537313 98.4358025,25.2537313 97.9098765,25.119403 Z M116.317284,16.5671642 L116.317284,24.2238806 C114.695679,25.0298507 112.285185,25.6119403 110.006173,25.6119403 C105.974074,25.6119403 103.958025,23.8656716 103.958025,21.0895522 C103.958025,18.1791045 106.412346,16.6567164 109.74321,16.6567164 C111.058025,16.6567164 112.153704,16.8358209 113.117901,17.1940299 L113.117901,16.3880597 C113.117901,14.6865672 112.022222,13.7014925 109.830864,13.7014925 C108.165432,13.7014925 106.80679,14.3283582 106.017901,14.9552239 C105.229012,14.5522388 104.659259,13.7910448 104.527778,12.8059701 C105.316667,12 107.42037,10.8358209 110.05,10.8358209 C113.643827,10.7910448 116.317284,12.4029851 116.317284,16.5671642 Z M110.269136,23.0149254 C111.320988,23.0149254 112.241358,22.8358209 113.117901,22.5671642 L113.117901,19.5671642 C112.241358,19.1641791 111.145679,18.9850746 110.006173,18.9850746 C108.384568,18.9850746 107.288889,19.5671642 107.288889,20.8656716 C107.288889,22.1641791 108.253086,23.0149254 110.269136,23.0149254 Z M128.676543,24.0447761 C127.843827,24.761194 126.441358,25.5671642 124.55679,25.5671642 C121.62037,25.5671642 119.429012,24.2238806 119.429012,20.8656716 L119.429012,14.0597015 L117.106173,14.0597015 C117.018519,13.6119403 116.974691,13.1641791 116.974691,12.6716418 C116.974691,12.2238806 117.018519,11.7761194 117.106173,11.3283582 L119.429012,11.3283582 L119.429012,7.6119403 C119.998765,7.47761194 120.524691,7.47761194 121.094444,7.47761194 C121.664198,7.47761194 122.146296,7.52238806 122.672222,7.6119403 L122.672222,11.3283582 L127.8,11.3283582 C127.931481,11.7761194 127.931481,12.2238806 127.931481,12.6716418 C127.931481,13.1641791 127.887654,13.5671642 127.8,14.0597015 L122.672222,14.0597015 L122.672222,20.0597015 C122.672222,22.119403 123.63642,22.6567164 124.995062,22.6567164 C125.959259,22.6567164 126.835802,22.119403 127.274074,21.7164179 C127.975309,22.1641791 128.588889,23.1044776 128.676543,24.0447761 Z M141.824691,19.0746269 L132.138889,19.0746269 C132.401852,21.358209 133.804321,22.7910448 136.083333,22.7910448 C138.055556,22.7910448 139.238889,21.9850746 140.115432,21.358209 C140.816667,21.8507463 141.430247,22.7910448 141.517901,23.641791 C140.378395,24.5820896 138.581481,25.6119403 135.82037,25.6119403 C131.700617,25.6119403 128.764198,22.8358209 128.764198,18.2686567 C128.764198,13.9253731 131.744444,10.7910448 135.645062,10.7910448 C139.326543,10.7910448 141.912346,13.3432836 141.912346,17.1044776 C141.912346,17.8208955 141.912346,18.2686567 141.824691,19.0746269 Z M138.712963,16.8358209 C138.712963,15.1791045 137.880247,13.5223881 135.645062,13.4776119 C133.629012,13.4776119 132.401852,14.9104478 132.138889,16.8358209 L138.712963,16.8358209 Z" id="Combined-Shape" fill="#1B1464"></path>
    </g>
</svg>