<svg width="50" height="50" viewBox="0 0 50 50" fill="none" xmlns="http://www.w3.org/2000/svg">
<rect width="50" height="50" rx="10" fill="url(#paint0_linear)"/>
<path fill-rule="evenodd" clip-rule="evenodd" d="M38.4983 20.6469C38.4983 17.2528 36.5208 14.0203 33.2382 12.6465C32.1703 12.202 31.0629 12 29.9555 12C28.2549 12 26.5938 12.5253 25.2096 13.4546C23.8649 12.5253 22.2434 12 20.5032 12C19.9099 12 19.2771 12.0808 18.6443 12.202C15.4803 12.8889 12.9492 15.3941 12.1977 18.5862V18.667C12.0791 19.2327 12 19.8388 12 20.4045C12 21.6571 12.2768 22.8692 12.7119 23.9602L16.9832 34.8294C17.616 36.4861 18.8816 37.8599 20.6218 38.5064C21.2546 38.7488 21.8874 38.87 22.5597 38.9104H37.3514L34.7015 31.7586L37.8655 23.9602C38.261 22.8692 38.4983 21.7379 38.4983 20.6469ZM14.8081 20.405C14.8081 20.0413 14.8476 19.6373 14.9267 19.2736V19.1928C15.4013 17.1321 17.1415 15.3946 19.1981 14.9906C19.6331 14.9098 20.0682 14.8694 20.4637 14.8694C21.4129 14.8694 22.283 15.1118 23.074 15.5159C22.6785 16.0815 22.3225 16.6472 22.0457 17.3341L17.537 28.6478L15.2827 22.9102C15.0058 22.0616 14.8081 21.2131 14.8081 20.405ZM31.6166 31.7187L35.2157 22.8698C35.5321 22.1424 35.6507 21.3747 35.6903 20.6474C35.6903 18.3847 34.3851 16.2432 32.1703 15.3138C31.4585 14.9906 30.707 14.8694 29.9951 14.8694C27.7408 14.8694 25.6051 16.2028 24.6954 18.4251L19.5935 31.2338C19.4353 31.6783 19.3562 32.1227 19.3562 32.5268C19.3562 33.941 20.1868 35.3148 21.6106 35.8401C21.9665 36.0017 22.3225 36.0825 22.6784 36.0825H33.2382L31.6166 31.7187Z" fill="white"/>
<defs>
<linearGradient id="paint0_linear" x1="0" y1="0" x2="50" y2="50" gradientUnits="userSpaceOnUse">
<stop stop-color="#0835C6"/>
<stop offset="1" stop-color="#30D7AB"/>
</linearGradient>
</defs>
</svg>
