<svg width="200" height="58" viewBox="0 0 200 58" fill="none" xmlns="http://www.w3.org/2000/svg">
<path d="M38.2204 20.9372C41.9832 23.6129 46.5928 25.1872 51.5714 25.1872V15.6571C50.6292 15.6573 49.6894 15.5596 48.7676 15.3653V22.8668C43.7894 22.8668 39.1804 21.2925 35.4166 18.617V38.0651C35.4166 47.7941 27.4882 55.6804 17.7086 55.6804C14.0596 55.6804 10.668 54.583 7.85059 52.7009C11.0662 55.9716 15.5506 58.0005 20.5118 58.0005C30.292 58.0005 38.2208 50.1142 38.2208 40.3849V20.9372H38.2204ZM41.6792 11.3225C39.7562 9.23264 38.4936 6.53189 38.2204 3.54608V2.32031H35.5634C36.2322 6.11527 38.5134 9.35745 41.6792 11.3225ZM14.0362 45.2352C12.9618 43.8339 12.3812 42.1197 12.3838 40.357C12.3838 35.9074 16.0102 32.2996 20.4842 32.2996C21.318 32.2994 22.1468 32.4264 22.9414 32.6772V22.9341C22.0128 22.8075 21.0756 22.7537 20.1388 22.7735V30.357C19.3436 30.1062 18.5144 29.9788 17.6804 29.9796C13.2064 29.9796 9.58019 33.587 9.58019 38.0373C9.58019 41.1839 11.3928 43.9082 14.0362 45.2352Z" fill="#FF004F"/>
<path d="M35.4167 18.6168C39.1805 21.2923 43.7895 22.8666 48.7677 22.8666V15.3651C45.9889 14.7763 43.5289 13.3318 41.6793 11.3225C38.5133 9.35725 36.2323 6.11507 35.5635 2.32031H28.5843V40.3845C28.5685 44.822 24.9483 48.4151 20.4839 48.4151C17.8531 48.4151 15.5159 47.1677 14.0357 45.2352C11.3925 43.9082 9.57991 41.1837 9.57991 38.0375C9.57991 33.5876 13.2061 29.9798 17.6801 29.9798C18.5373 29.9798 19.3635 30.1126 20.1385 30.3572V22.7737C10.5307 22.9711 2.80371 30.7804 2.80371 40.3847C2.80371 45.1791 4.72791 49.5254 7.85091 52.7011C10.6683 54.583 14.0599 55.6806 17.7089 55.6806C27.4887 55.6806 35.4169 47.7939 35.4169 38.0651V18.6168H35.4167Z" fill="black"/>
<path d="M48.7676 15.3647V13.3364C46.2618 13.3402 43.8052 12.6421 41.6792 11.322C43.5612 13.3716 46.0394 14.7849 48.7676 15.3647ZM35.5634 2.31997C35.4996 1.95729 35.4506 1.59223 35.4166 1.22577V0H25.7802V38.0646C25.7648 42.5015 22.1448 46.0946 17.68 46.0946C16.3692 46.0946 15.1316 45.7851 14.0356 45.2351C15.5158 47.1673 17.853 48.4146 20.4838 48.4146C24.9478 48.4146 28.5686 44.8219 28.5842 40.3844V2.31997H35.5634ZM20.1388 22.7733V20.614C19.3336 20.5045 18.5218 20.4496 17.709 20.45C7.9284 20.4498 0 28.3365 0 38.0646C0 44.1636 3.116 49.5386 7.851 52.7004C4.728 49.5249 2.8038 45.1784 2.8038 40.3842C2.8038 30.78 10.5306 22.9708 20.1388 22.7733Z" fill="#00F2EA"/>
<path d="M160.425 47.7053C167.423 47.7053 173.096 42.1048 173.096 35.1968C173.096 28.2891 167.423 22.6875 160.425 22.6875H158.516C165.514 22.6875 171.187 28.2889 171.187 35.1968C171.187 42.1048 165.514 47.7053 158.516 47.7053H160.425Z" fill="#FF004F"/>
<path d="M158.343 22.6875H156.434C149.437 22.6875 143.763 28.2889 143.763 35.1968C143.763 42.1048 149.437 47.7053 156.434 47.7053H158.343C151.344 47.7053 145.671 42.1048 145.671 35.1968C145.671 28.2891 151.344 22.6875 158.343 22.6875Z" fill="#00F2EA"/>
<path d="M62.0122 17.0332V23.3737H69.4744V47.5336H76.9396V23.5448H83.014L85.0968 17.0334H62.0122V17.0332ZM123.109 17.0332V23.3737H130.571V47.5336H138.036V23.5448H144.11L146.193 17.0334H123.109V17.0332ZM86.4866 20.6313C86.4866 18.6445 88.1158 17.0332 90.1286 17.0332C92.1432 17.0332 93.7742 18.6445 93.7742 20.6313C93.7742 22.6182 92.1442 24.2296 90.1286 24.2296C88.1158 24.2286 86.4866 22.6182 86.4866 20.6313ZM86.4866 26.8006H93.7742V47.5336H86.4866V26.8006ZM96.899 17.0332V47.5334H104.189V39.652L106.446 37.594L113.561 47.7046H121.371L111.13 32.9686L120.329 24.0574H111.478L104.189 31.2538V17.0332H96.899ZM175.524 17.0332V47.5334H182.816V39.652L185.071 37.594L192.189 47.7046H200L189.758 32.9686L198.957 24.0574H190.106L182.816 31.2538V17.0332H175.524Z" fill="black"/>
<path d="M158.515 47.7053C165.513 47.7053 171.187 42.1048 171.187 35.1968C171.187 28.2891 165.513 22.6875 158.515 22.6875H158.342C151.344 22.6875 145.671 28.2889 145.671 35.1968C145.671 42.1048 151.344 47.7053 158.342 47.7053H158.515ZM152.267 35.1968C152.267 31.8366 155.027 29.1147 158.43 29.1147C161.831 29.1147 164.591 31.8366 164.591 35.1968C164.591 38.557 161.831 41.2805 158.43 41.2805C155.027 41.2799 152.267 38.557 152.267 35.1968Z" fill="black"/>
</svg>
