<svg width="50" height="50" viewBox="0 0 38 38" fill="none" xmlns="http://www.w3.org/2000/svg">
<path d="M0 6C0 2.68629 2.68629 0 6 0H32C35.3137 0 38 2.68629 38 6V32C38 35.3137 35.3137 38 32 38H6C2.68629 38 0 35.3137 0 32V6Z" fill="#0050DC"/>
<g clip-path="url(#clip0_538_5494)">
<path fill-rule="evenodd" clip-rule="evenodd" d="M8.64555 15.2845C9.14411 15.2845 9.54835 14.8806 9.54835 14.3824C9.54835 13.8842 9.14411 13.4804 8.64555 13.4804H6.80896V11.8925C6.80627 11.3953 6.40203 10.9934 5.90448 10.9934C5.4066 10.9934 5.00236 11.3953 5 11.8925V17.796C5 20.1782 6.25684 22.2875 8.64589 22.2875C9.14478 22.2875 9.54902 21.8837 9.54902 21.3855C9.54902 20.8873 9.14478 20.4834 8.64589 20.4834C7.25463 20.4834 6.8093 18.6917 6.8093 17.796V15.2842L8.64555 15.2845Z" fill="white"/>
<path d="M11.2096 23.7715V25.0058C11.3495 24.8035 11.5946 24.6981 11.828 24.6981C12.388 24.6981 12.8002 25.1499 12.8002 25.7223C12.8002 26.2365 12.4152 26.7389 11.82 26.7389C11.5906 26.7389 11.365 26.6415 11.2092 26.4819V26.6924H10.8555V23.7718H11.2096V23.7715ZM11.2096 26.116C11.3417 26.3069 11.5714 26.4119 11.7735 26.4119C12.2249 26.4119 12.4387 26.0496 12.4387 25.7149C12.4387 25.3526 12.1858 25.0257 11.7813 25.0257C11.5711 25.0257 11.3068 25.1543 11.2096 25.3957V26.116Z" fill="white"/>
<path d="M13.3791 24.7451L13.8849 26.2209H13.8926L14.4099 24.7451H14.7949L13.702 27.5684L13.3909 27.4475L13.6983 26.6337L12.9863 24.7451H13.3791Z" fill="white"/>
<path d="M19.2973 23.2812H18.6543V26.6857H19.2973V23.2812Z" fill="white"/>
<path d="M17.0417 24.2981C16.3681 24.2981 15.8223 24.8449 15.8223 25.519C15.8223 26.1934 16.3684 26.7399 17.0417 26.7399C17.7149 26.7399 18.2611 26.1931 18.2611 25.519C18.2611 24.8449 17.7153 24.2981 17.0417 24.2981ZM17.0417 26.1187C16.7111 26.1187 16.4431 25.8503 16.4431 25.5193C16.4431 25.1883 16.7111 24.92 17.0417 24.92C17.3722 24.92 17.6403 25.1883 17.6403 25.5193C17.6403 25.8503 17.3722 26.1187 17.0417 26.1187Z" fill="white"/>
<path d="M21.8144 25.2378C21.6153 25.156 21.4388 25.0789 21.4388 24.9291C21.4388 24.8156 21.5474 24.7476 21.6698 24.7476C21.8511 24.7476 22.0186 24.8385 22.1406 24.9473L22.407 24.4668C22.1379 24.3052 21.9869 24.2439 21.6698 24.2439C21.2353 24.2439 20.8187 24.489 20.8187 24.9745C20.8187 25.3921 21.1311 25.5557 21.4163 25.6783C21.6517 25.7826 21.8689 25.8554 21.8689 26.0234C21.8689 26.1685 21.6967 26.2321 21.5656 26.2321C21.3345 26.2321 21.1852 26.1278 21.0043 25.9506L20.748 26.4065C21.0171 26.622 21.2263 26.7406 21.5975 26.7406C22.0593 26.7406 22.5122 26.4998 22.5122 25.9735C22.5116 25.519 22.1221 25.3648 21.8144 25.2378Z" fill="white"/>
<path d="M20.4145 24.2981H19.7715V26.6857H20.4145V24.2981Z" fill="white"/>
<path d="M24.0928 26.1228C24.0114 26.1635 23.9344 26.1908 23.8349 26.1908C23.699 26.1908 23.6449 26.1046 23.6267 25.9639C23.6176 25.8958 23.6176 25.8322 23.6176 25.7595V24.8335H24.2243V24.2978H23.6176V23.7712H23.0742L22.9746 24.2978H22.6895V24.8335H22.9746V25.8275C22.9746 25.9682 22.9837 26.109 23.02 26.2268C23.1061 26.5356 23.355 26.7396 23.7262 26.7396C23.9119 26.7396 24.1382 26.6898 24.2922 26.5989L24.0928 26.1228Z" fill="white"/>
<path d="M20.4145 23.281H19.7715V23.8302H20.4145V23.281Z" fill="white"/>
<path fill-rule="evenodd" clip-rule="evenodd" d="M11.8764 13.5818C11.4002 13.5815 11.014 13.9808 11.0137 14.4738V21.3987C11.0162 21.8903 11.4018 22.2877 11.8764 22.2877C12.351 22.2877 12.7369 21.8903 12.7392 21.3987V14.4738C12.7388 14.2371 12.6479 14.01 12.4863 13.8427C12.3243 13.6754 12.1052 13.5815 11.8764 13.5818Z" fill="white"/>
<path fill-rule="evenodd" clip-rule="evenodd" d="M11.8601 10C11.2324 10.0011 10.7239 10.5104 10.7246 11.1385C10.7253 11.7662 11.2345 12.2749 11.8626 12.2745C12.4903 12.2742 12.9991 11.7651 12.9991 11.1374C12.9984 10.509 12.4886 10 11.8601 10Z" fill="white"/>
<path fill-rule="evenodd" clip-rule="evenodd" d="M18.5692 13.2942C16.2048 13.2942 14.2812 15.2284 14.2812 17.6063V21.3856C14.2812 21.8839 14.682 22.2877 15.1764 22.2877C15.6708 22.2877 16.0715 21.8839 16.0715 21.3856V17.6063C16.0715 16.2216 17.192 15.0947 18.5688 15.0947C19.9457 15.0947 21.0662 16.2216 21.0662 17.6063V21.3852C21.0662 21.8835 21.4669 22.2873 21.9613 22.2873C22.4557 22.2873 22.8564 21.8835 22.8564 21.3852V17.6063C22.8574 15.2287 20.9335 13.2942 18.5692 13.2942Z" fill="white"/>
<path fill-rule="evenodd" clip-rule="evenodd" d="M32.1056 13.5577C31.8682 13.5573 31.6405 13.6526 31.4729 13.8222C31.3048 13.9918 31.2105 14.222 31.2102 14.4619V18.2621C31.2068 19.6499 30.0881 20.7782 28.713 20.7782C27.3359 20.7782 26.2159 19.6465 26.2159 18.256V14.4615C26.2159 13.9612 25.8152 13.5557 25.3208 13.5557C24.8265 13.5557 24.4258 13.9612 24.4258 14.4615V18.256C24.4258 20.6439 26.3492 22.5862 28.7134 22.5862C29.5137 22.5862 30.7671 22.0054 31.2105 21.427V22.5062C31.2105 23.8969 30.0904 25.0286 28.713 25.0286C28.3927 25.0269 28.096 25.1989 27.9353 25.4792C27.7746 25.7599 27.7746 26.1055 27.9353 26.3861C28.096 26.6664 28.3927 26.8384 28.713 26.8367C31.0775 26.8367 33.0009 24.894 33.0009 22.5062V14.4619C33.0003 13.9622 32.5996 13.5573 32.1056 13.5577Z" fill="white"/>
</g>
<defs>
<clipPath id="clip0_538_5494">
<rect width="28" height="17.5686" fill="white" transform="translate(5 10)"/>
</clipPath>
</defs>
</svg>
