<svg width="66" height="41" viewBox="0 0 66 41" fill="none" xmlns="http://www.w3.org/2000/svg">
<g clip-path="url(#clip0_543_5495)">
<path fill-rule="evenodd" clip-rule="evenodd" d="M8.50764 12.3325C9.67113 12.3325 10.6145 11.39 10.6145 10.2274C10.6145 9.06473 9.67113 8.12223 8.50764 8.12223H4.22159V4.41646C4.2153 3.25616 3.27193 2.31836 2.11079 2.31836C0.948874 2.31836 0.005503 3.25616 0 4.41646V18.1936C0 23.753 2.9331 28.6755 8.50842 28.6755C9.6727 28.6755 10.6161 27.733 10.6161 26.5703C10.6161 25.4077 9.6727 24.4652 8.50842 24.4652C5.26165 24.4652 4.22237 20.2839 4.22237 18.1936V12.3318L8.50764 12.3325Z" fill="#0050DC"/>
<path d="M14.4924 32.1389V35.0195C14.8189 34.5473 15.391 34.3013 15.9357 34.3013C17.2424 34.3013 18.2046 35.3558 18.2046 36.6916C18.2046 37.8915 17.306 39.0639 15.9168 39.0639C15.3816 39.0639 14.855 38.8368 14.4916 38.4643V38.9554H13.666V32.1397H14.4924V32.1389ZM14.4924 37.6102C14.8008 38.0557 15.3369 38.3009 15.8085 38.3009C16.8618 38.3009 17.3609 37.4554 17.3609 36.6744C17.3609 35.8289 16.7707 35.0659 15.8266 35.0659C15.3361 35.0659 14.7192 35.3661 14.4924 35.9295V37.6102Z" fill="#0050DC"/>
<path d="M19.5573 34.4114L20.7376 37.8554H20.7557L21.9627 34.4114H22.8613L20.3107 41L19.5847 40.7179L20.3021 38.8187L18.6406 34.4114H19.5573Z" fill="#0050DC"/>
<path d="M33.3716 30.9949H31.8711V38.9398H33.3716V30.9949Z" fill="#0050DC"/>
<path d="M28.1055 33.3679C26.5335 33.3679 25.2598 34.644 25.2598 36.2171C25.2598 37.791 26.5343 39.0663 28.1055 39.0663C29.6767 39.0663 30.9512 37.7902 30.9512 36.2171C30.9512 34.644 29.6774 33.3679 28.1055 33.3679ZM28.1055 37.6166C27.334 37.6166 26.7085 36.9903 26.7085 36.2179C26.7085 35.4455 27.334 34.8192 28.1055 34.8192C28.8769 34.8192 29.5024 35.4455 29.5024 36.2179C29.5024 36.9903 28.8769 37.6166 28.1055 37.6166Z" fill="#0050DC"/>
<path d="M39.2425 35.561C38.7779 35.3701 38.3659 35.1902 38.3659 34.8405C38.3659 34.5757 38.6194 34.417 38.9051 34.417C39.3281 34.417 39.7189 34.6291 40.0038 34.8829L40.6254 33.7616C39.9975 33.3845 39.6451 33.2415 38.9051 33.2415C37.8911 33.2415 36.9187 33.8135 36.9187 34.9466C36.9187 35.9209 37.6478 36.3028 38.3133 36.5888C38.8627 36.8324 39.3697 37.0021 39.3697 37.3942C39.3697 37.7329 38.9678 37.8814 38.6618 37.8814C38.1226 37.8814 37.7742 37.6378 37.3519 37.2245L36.7539 38.2884C37.3818 38.7913 37.8699 39.0679 38.7363 39.0679C39.8139 39.0679 40.871 38.5061 40.871 37.2779C40.8694 36.2172 39.9606 35.8573 39.2425 35.561Z" fill="#0050DC"/>
<path d="M35.9771 33.3679H34.4766V38.9398H35.9771V33.3679Z" fill="#0050DC"/>
<path d="M44.5621 37.626C44.3722 37.7211 44.1925 37.7847 43.9602 37.7847C43.6431 37.7847 43.5167 37.5835 43.4744 37.2551C43.4532 37.0964 43.4532 36.9479 43.4532 36.7781V34.6173H44.869V33.3671H43.4532V32.1382H42.1849L41.9526 33.3671H41.2871V34.6173H41.9526V36.9369C41.9526 37.2653 41.9738 37.5938 42.0586 37.8688C42.2595 38.5893 42.8402 39.0655 43.7067 39.0655C44.1399 39.0655 44.6681 38.9492 45.0275 38.7371L44.5621 37.626Z" fill="#0050DC"/>
<path d="M35.9771 30.9941H34.4766V32.2757H35.9771V30.9941Z" fill="#0050DC"/>
<path fill-rule="evenodd" clip-rule="evenodd" d="M16.0466 8.35864C14.9353 8.35787 14.034 9.28986 14.0332 10.4403V26.6009C14.0392 27.7483 14.939 28.6756 16.0466 28.6756C17.1541 28.6756 18.0547 27.7483 18.06 26.6009V10.4403C18.0592 9.88794 17.847 9.35803 17.4698 8.96757C17.0919 8.57712 16.5805 8.35787 16.0466 8.35864Z" fill="#0050DC"/>
<path fill-rule="evenodd" clip-rule="evenodd" d="M16.0112 0C14.5463 0.0024578 13.3597 1.19122 13.3613 2.65689C13.363 4.12174 14.5512 5.30885 16.017 5.30804C17.482 5.30722 18.6694 4.11928 18.6694 2.65443C18.6677 1.18794 17.4778 0 16.0112 0Z" fill="#0050DC"/>
<path fill-rule="evenodd" clip-rule="evenodd" d="M31.6669 7.6875C26.1493 7.6875 21.6602 12.2014 21.6602 17.7506V26.5704C21.6602 27.7333 22.5953 28.6756 23.7491 28.6756C24.9029 28.6756 25.8381 27.7333 25.8381 26.5704V17.7506C25.8381 14.5193 28.4529 11.8893 31.6661 11.8893C34.8793 11.8893 37.4942 14.5193 37.4942 17.7506V26.5696C37.4942 27.7325 38.4293 28.6748 39.5831 28.6748C40.7369 28.6748 41.6721 27.7325 41.6721 26.5696V17.7506C41.6744 12.2022 37.1845 7.6875 31.6669 7.6875Z" fill="#0050DC"/>
<path fill-rule="evenodd" clip-rule="evenodd" d="M63.2544 8.30232C62.7005 8.30153 62.1691 8.52378 61.7778 8.91958C61.3857 9.31538 61.1656 9.85253 61.1648 10.4125V19.281C61.157 22.5197 58.5462 25.1528 55.3372 25.1528C52.1235 25.1528 49.5096 22.5118 49.5096 19.2669V10.4117C49.5096 9.24391 48.5745 8.29761 47.4208 8.29761C46.2671 8.29761 45.332 9.24391 45.332 10.4117V19.2669C45.332 24.8395 49.8208 29.3723 55.338 29.3723C57.2058 29.3723 60.1309 28.0169 61.1656 26.6669V29.1854C61.1656 32.4311 58.5517 35.0721 55.3372 35.0721C54.5896 35.0682 53.8972 35.4695 53.5223 36.1237C53.1473 36.7786 53.1473 37.5851 53.5223 38.2401C53.8972 38.8943 54.5896 39.2956 55.3372 39.2917C60.8552 39.2917 65.3439 34.758 65.3439 29.1854V10.4125C65.3424 9.24627 64.4073 8.30153 63.2544 8.30232Z" fill="#0050DC"/>
</g>
<defs>
<clipPath id="clip0_543_5495">
<rect width="65.3438" height="41" fill="white"/>
</clipPath>
</defs>
</svg>
