<svg width="50" height="50" viewBox="0 0 50 50" fill="none" xmlns="http://www.w3.org/2000/svg">
<rect width="50" height="50" rx="10" fill="#0050DC"/>
<path fill-rule="evenodd" clip-rule="evenodd" d="M24.9113 17.9578C24.9403 18.9537 24.1153 19.9211 22.9914 19.9261C21.9091 19.931 21.0329 19.0424 21.0358 17.944C21.0387 16.8663 21.9256 15.958 22.9856 15.9708C24.153 15.9866 24.9365 16.9569 24.9113 17.9578Z" fill="white"/>
<path fill-rule="evenodd" clip-rule="evenodd" d="M33.3705 17.9684C33.3657 19.053 32.5049 19.914 31.4303 19.91C30.3703 19.9061 29.5095 18.984 29.524 17.928C29.5375 16.9389 30.3113 15.9853 31.4506 15.9863C32.591 15.9873 33.4024 16.9379 33.3705 17.9684Z" fill="white"/>
<path fill-rule="evenodd" clip-rule="evenodd" d="M27.22 24.9448C28.0876 24.9182 28.8304 25.6905 28.8227 26.5939C28.8159 27.4046 28.164 28.2311 27.2084 28.2183C26.2673 28.2065 25.5951 27.4756 25.6038 26.5624C25.6125 25.5576 26.4463 24.9084 27.22 24.9448Z" fill="white"/>
<path fill-rule="evenodd" clip-rule="evenodd" d="M24.5545 26.6022C24.5342 27.5056 23.8146 28.2139 22.9412 28.1922C22.0592 28.1705 21.3773 27.4248 21.4005 26.5067C21.4189 25.7836 22.0176 24.9561 22.9848 24.9709C23.9703 24.9857 24.571 25.7846 24.5545 26.6022Z" fill="white"/>
<path fill-rule="evenodd" clip-rule="evenodd" d="M24.5033 30.8974C24.5023 31.7672 23.8156 32.4617 22.9635 32.4558C22.1336 32.4499 21.4382 31.7337 21.4431 30.8885C21.4479 30.0216 22.1346 29.3439 22.9925 29.336C23.8108 29.3291 24.5313 30.0551 24.5033 30.8974Z" fill="white"/>
<path fill-rule="evenodd" clip-rule="evenodd" d="M27.2066 23.7258C26.4076 23.7238 25.7722 23.0766 25.777 22.2639C25.7819 21.4 26.4744 20.7902 27.2317 20.805C28.0296 20.8207 28.6438 21.4581 28.6506 22.2797C28.6583 23.0973 27.9378 23.7672 27.2066 23.7258Z" fill="white"/>
<path fill-rule="evenodd" clip-rule="evenodd" d="M14.5149 23.6798C13.8156 23.6956 13.1154 23.1291 13.1144 22.2662C13.1134 21.3993 13.8156 20.8516 14.4946 20.8516C15.2713 20.8516 15.8912 21.4751 15.8922 22.2662C15.8932 23.0454 15.2771 23.6769 14.5149 23.6798Z" fill="white"/>
<path fill-rule="evenodd" clip-rule="evenodd" d="M25.872 17.9474C25.872 17.1938 26.4736 16.585 27.2183 16.5859C27.9582 16.5869 28.5714 17.2016 28.5598 17.9552C28.5482 18.6685 28.0443 19.3176 27.2116 19.3176C26.4349 19.3176 25.872 18.696 25.872 17.9474Z" fill="white"/>
<path fill-rule="evenodd" clip-rule="evenodd" d="M35.6898 16.7925C36.3359 16.7935 36.8282 17.3038 36.8253 17.9678C36.8224 18.6051 36.3098 19.1223 35.6821 19.1223C35.0689 19.1223 34.536 18.5845 34.5389 17.9589C34.5427 17.2506 35.1327 16.76 35.6898 16.7925Z" fill="white"/>
<path fill-rule="evenodd" clip-rule="evenodd" d="M15.637 17.9545C15.6699 18.4598 15.2453 19.1031 14.4996 19.111C13.8806 19.1169 13.3651 18.5751 13.3612 17.9426C13.3574 17.3191 13.8884 16.7871 14.5103 16.791C15.1428 16.794 15.638 17.3062 15.637 17.9545Z" fill="white"/>
<path fill-rule="evenodd" clip-rule="evenodd" d="M24.0893 35.2122C24.0864 35.827 23.5719 36.3599 22.9683 36.3402C22.2758 36.3175 21.8686 35.7629 21.8735 35.1945C21.8783 34.6655 22.2681 34.0941 22.9761 34.0784C23.5844 34.0646 24.0922 34.5975 24.0893 35.2122Z" fill="white"/>
<path fill-rule="evenodd" clip-rule="evenodd" d="M18.7444 16.8301C19.348 16.8311 19.8383 17.3276 19.8461 17.9462C19.8538 18.558 19.3364 19.0811 18.7299 19.0742C18.1293 19.0673 17.6351 18.5521 17.6428 17.9423C17.6505 17.3177 18.1351 16.8291 18.7444 16.8301Z" fill="white"/>
<path fill-rule="evenodd" clip-rule="evenodd" d="M35.6939 23.3511C35.0875 23.3521 34.6174 22.8812 34.6155 22.2694C34.6136 21.6557 35.0797 21.1858 35.6813 21.1759C36.2394 21.1661 36.7598 21.6005 36.7627 22.2576C36.7675 22.9718 36.1823 23.3747 35.6939 23.3511Z" fill="white"/>
<path fill-rule="evenodd" clip-rule="evenodd" d="M18.7387 23.3509C18.1468 23.3499 17.6603 22.8583 17.6632 22.2614C17.6661 21.6585 18.1468 21.1768 18.7445 21.1777C19.3384 21.1787 19.821 21.6673 19.8201 22.2663C19.8181 22.8672 19.3345 23.3509 18.7387 23.3509Z" fill="white"/>
<path fill-rule="evenodd" clip-rule="evenodd" d="M21.9226 22.2603C21.9235 21.6535 22.3839 21.1826 22.9758 21.1836C23.5581 21.1846 24.0398 21.6683 24.0456 22.2584C24.0514 22.8514 23.5591 23.3489 22.9691 23.3469C22.3839 23.3449 21.9216 22.8652 21.9226 22.2603Z" fill="white"/>
<path fill-rule="evenodd" clip-rule="evenodd" d="M32.5088 22.2652C32.5088 22.8553 32.0252 23.3469 31.4468 23.3449C30.881 23.3429 30.3964 22.8523 30.3906 22.2761C30.3848 21.6899 30.8704 21.1895 31.4468 21.1875C32.0262 21.1846 32.5088 21.6742 32.5088 22.2652Z" fill="white"/>
<path fill-rule="evenodd" clip-rule="evenodd" d="M27.2221 36.192C26.665 36.2245 26.2336 35.7231 26.2375 35.205C26.2423 34.6592 26.6669 34.2218 27.2066 34.2149C27.7444 34.208 28.2028 34.6631 28.1932 35.2099C28.1825 35.8532 27.6564 36.2186 27.2221 36.192Z" fill="white"/>
<path fill-rule="evenodd" clip-rule="evenodd" d="M28.1234 30.8918C28.1553 31.3292 27.7675 31.8287 27.2104 31.8307C26.719 31.8326 26.3012 31.4041 26.2935 30.9066C26.2857 30.3973 26.7045 29.9639 27.2065 29.9629C27.7269 29.9629 28.1224 30.3628 28.1234 30.8918Z" fill="white"/>
<path fill-rule="evenodd" clip-rule="evenodd" d="M9 26.3633C9.05416 26.3072 9.07447 26.2333 9.09962 26.1623C9.37721 25.3565 10.2999 25.0965 10.9354 25.5122C11.3551 25.787 11.5486 26.1968 11.5031 26.6923C11.4518 27.2489 11.0795 27.6597 10.6017 27.7996C10.0223 27.97 9.31047 27.6361 9.09769 26.9957C9.07641 26.9307 9.06384 26.8608 9.00097 26.8194C9 26.6667 9 26.515 9 26.3633Z" fill="#00389A"/>
<path fill-rule="evenodd" clip-rule="evenodd" d="M27.2289 37.8374C28.1371 37.8058 28.8886 38.591 28.8857 39.5337C28.8838 40.3878 28.2338 41.2222 27.2105 41.2281C26.2607 41.233 25.5324 40.4065 25.5431 39.5042C25.5547 38.6067 26.3246 37.7743 27.2289 37.8374Z" fill="#00389A"/>
<path fill-rule="evenodd" clip-rule="evenodd" d="M41.5377 22.2683C41.5812 23.0938 40.8597 23.9282 39.9341 23.9223C39.0472 23.9174 38.3024 23.2544 38.2957 22.2732C38.2879 21.2773 39.0655 20.6094 39.9389 20.6094C40.8191 20.6094 41.588 21.4063 41.5377 22.2683Z" fill="#00389A"/>
<path fill-rule="evenodd" clip-rule="evenodd" d="M25.6726 13.6279C25.6465 12.8842 26.2017 12.0606 27.2192 12.0547C28.1535 12.0498 28.7667 12.8093 28.7628 13.6368C28.759 14.55 28.0519 15.2169 27.2114 15.214C26.2733 15.211 25.6446 14.418 25.6726 13.6279Z" fill="#00389A"/>
<path fill-rule="evenodd" clip-rule="evenodd" d="M31.4535 12.1136C32.1044 12.0713 32.9546 12.6416 32.9507 13.6356C32.9478 14.4552 32.3191 15.1635 31.4477 15.1615C30.5269 15.1586 29.9379 14.3902 29.9495 13.6307C29.965 12.5934 30.8161 12.0722 31.4535 12.1136Z" fill="#00389A"/>
<path fill-rule="evenodd" clip-rule="evenodd" d="M20.1837 26.5992C20.1933 27.3666 19.5434 28.0601 18.7377 28.0562C17.9581 28.0522 17.3014 27.4178 17.2966 26.5706C17.2917 25.8564 17.8953 25.0929 18.7764 25.1117C19.5134 25.1264 20.1962 25.7697 20.1837 26.5992Z" fill="#00389A"/>
<path fill-rule="evenodd" clip-rule="evenodd" d="M35.6976 25.1629C36.424 25.1462 37.0846 25.7481 37.0875 26.5677C37.0904 27.3656 36.481 28.0138 35.6773 28.001C34.7411 27.9862 34.2845 27.2129 34.2923 26.5687C34.3019 25.7688 34.948 25.1363 35.6976 25.1629Z" fill="#00389A"/>
<path fill-rule="evenodd" clip-rule="evenodd" d="M22.9974 38.1662C23.6454 38.1229 24.336 38.7307 24.3254 39.5218C24.3138 40.3167 23.7296 40.8999 22.9607 40.893C22.1811 40.8861 21.6327 40.2232 21.6385 39.503C21.6433 38.7977 22.2304 38.1229 22.9974 38.1662Z" fill="#00389A"/>
<path fill-rule="evenodd" clip-rule="evenodd" d="M18.7368 32.2483C18.1187 32.2917 17.4078 31.7715 17.3943 30.9076C17.3827 30.0968 18.0288 29.5146 18.7445 29.5176C19.4612 29.5205 20.0821 30.0988 20.087 30.8741C20.0937 31.7331 19.4041 32.2867 18.7368 32.2483Z" fill="#00389A"/>
<path fill-rule="evenodd" clip-rule="evenodd" d="M35.6985 12.323C36.4229 12.3259 36.9762 12.9002 36.982 13.6391C36.9878 14.2804 36.4936 14.9749 35.6743 14.9591C34.9228 14.9453 34.3851 14.3927 34.3899 13.6351C34.3947 12.8244 35.0079 12.3003 35.6985 12.323Z" fill="#00389A"/>
<path fill-rule="evenodd" clip-rule="evenodd" d="M27.2298 8.00065C27.9542 8.0036 28.5075 8.57792 28.5133 9.31675C28.5191 9.95806 28.0248 10.6526 27.2056 10.6368C26.4541 10.623 25.9163 10.0704 25.9212 9.31281C25.926 8.50305 26.5382 7.97898 27.2298 8.00065Z" fill="#00389A"/>
<path fill-rule="evenodd" clip-rule="evenodd" d="M15.7541 26.5746C15.7927 27.3135 15.1379 27.8651 14.4996 27.8651C13.8738 27.8661 13.2297 27.3401 13.2384 26.5687C13.2471 25.7629 13.8825 25.2881 14.517 25.2891C15.1844 25.29 15.7966 25.8732 15.7541 26.5746Z" fill="#00389A"/>
<path fill-rule="evenodd" clip-rule="evenodd" d="M41.1295 26.5565C41.1691 27.2185 40.6033 27.8086 39.9427 27.8145C39.3015 27.8204 38.7202 27.3239 38.7095 26.5969C38.6989 25.862 39.2608 25.3399 39.9243 25.3379C40.6381 25.3349 41.142 25.9339 41.1295 26.5565Z" fill="#00389A"/>
<path fill-rule="evenodd" clip-rule="evenodd" d="M11.4798 22.2599C11.4817 22.9357 10.9439 23.5041 10.2891 23.5041C9.61501 23.5031 9.05017 22.9859 9.05404 22.2589C9.05694 21.5211 9.62178 21.0384 10.2582 21.0275C10.9275 21.0157 11.4778 21.5792 11.4798 22.2599Z" fill="#00389A"/>
<path fill-rule="evenodd" clip-rule="evenodd" d="M13.3137 35.2197C13.3311 34.6286 13.7122 34.0129 14.4995 34.0021C15.1408 33.9932 15.6872 34.4602 15.6853 35.2098C15.6834 35.9152 15.1978 36.4097 14.5189 36.4166C13.7741 36.4245 13.3466 35.857 13.3137 35.2197Z" fill="#00389A"/>
<path fill-rule="evenodd" clip-rule="evenodd" d="M22.9692 12.4446C23.5669 12.4131 24.1617 12.8929 24.1598 13.6406C24.1588 14.2257 23.7555 14.8237 22.9769 14.8375C22.2873 14.8493 21.8085 14.2622 21.7998 13.6406C21.7921 13.0042 22.3608 12.3914 22.9692 12.4446Z" fill="#00389A"/>
<path fill-rule="evenodd" clip-rule="evenodd" d="M14.5167 29.7147C15.1329 29.6674 15.6871 30.2703 15.6725 30.8948C15.6571 31.5529 15.1483 32.076 14.5061 32.0789C13.8213 32.0819 13.3416 31.4849 13.3397 30.8771C13.3377 30.289 13.8958 29.6565 14.5167 29.7147Z" fill="#00389A"/>
<path fill-rule="evenodd" clip-rule="evenodd" d="M31.4486 32.0415C30.8412 32.0622 30.3121 31.5371 30.317 30.9067C30.3218 30.2338 30.8015 29.7413 31.4428 29.7364C32.1353 29.7314 32.5831 30.2861 32.585 30.888C32.587 31.5332 32.0811 32.0425 31.4486 32.0415Z" fill="#00389A"/>
<path fill-rule="evenodd" clip-rule="evenodd" d="M35.683 36.3102C35.1142 36.3466 34.5939 35.856 34.591 35.2177C34.5871 34.5478 35.122 34.1035 35.6868 34.1016C36.272 34.0996 36.7865 34.6128 36.7798 35.2216C36.773 35.859 36.2236 36.3486 35.683 36.3102Z" fill="#00389A"/>
<path fill-rule="evenodd" clip-rule="evenodd" d="M34.6191 30.8815C34.6229 30.248 35.0766 29.7978 35.7091 29.8008C36.2904 29.8038 36.7827 30.2943 36.7701 30.8815C36.7566 31.5504 36.2768 31.9897 35.6888 31.9907C35.0234 31.9927 34.5833 31.4233 34.6191 30.8815Z" fill="#00389A"/>
<path fill-rule="evenodd" clip-rule="evenodd" d="M32.5058 35.2145C32.4961 35.8194 32.0705 36.2893 31.4457 36.2863C30.8113 36.2833 30.3915 35.8046 30.3944 35.2076C30.3973 34.5959 30.8354 34.1299 31.4535 34.1368C32.1441 34.1447 32.499 34.6648 32.5058 35.2145Z" fill="#00389A"/>
<path fill-rule="evenodd" clip-rule="evenodd" d="M21.971 9.3147C21.9632 8.68226 22.44 8.28526 22.9643 8.27935C23.592 8.27344 24.0088 8.77978 23.9992 9.32553C23.9895 9.89788 23.5784 10.3579 22.973 10.3609C22.4159 10.3648 21.9468 9.90576 21.971 9.3147Z" fill="#00389A"/>
<path fill-rule="evenodd" clip-rule="evenodd" d="M31.4621 27.6078C30.9099 27.6156 30.433 27.1822 30.4388 26.5793C30.4437 25.9528 30.907 25.542 31.4612 25.5469C32.0018 25.5509 32.4574 25.9587 32.4632 26.5773C32.469 27.1467 32.0144 27.6088 31.4621 27.6078Z" fill="#00389A"/>
<path fill-rule="evenodd" clip-rule="evenodd" d="M39.9155 18.9538C39.4252 18.9922 38.9193 18.4986 38.9309 17.9391C38.9416 17.3973 39.3884 16.9126 39.9117 16.9343C40.4523 16.957 40.9059 17.3017 40.9175 17.9568C40.9272 18.4908 40.4726 18.9794 39.9155 18.9538Z" fill="#00389A"/>
<path fill-rule="evenodd" clip-rule="evenodd" d="M18.7447 14.6409C18.1973 14.6428 17.7388 14.1877 17.7485 13.6302C17.7572 13.1199 18.0986 12.6362 18.7467 12.6194C19.2815 12.6056 19.7313 13.0795 19.7342 13.6213C19.7371 14.1798 19.2902 14.6399 18.7447 14.6409Z" fill="#00389A"/>
<path fill-rule="evenodd" clip-rule="evenodd" d="M14.5187 14.6387C13.9732 14.6446 13.5186 14.1866 13.5167 13.63C13.5148 13.0852 13.9577 12.6153 14.5003 12.6252C15.0681 12.635 15.4908 13.0497 15.4888 13.6221C15.4869 14.2417 15.0691 14.6003 14.5187 14.6387Z" fill="#00389A"/>
<path fill-rule="evenodd" clip-rule="evenodd" d="M32.3858 9.31122C32.4128 9.75058 32.0927 10.2688 31.4534 10.2747C30.8895 10.2796 30.5171 9.85697 30.5142 9.31615C30.5113 8.78321 30.9359 8.33892 31.4505 8.34779C32.0327 8.35764 32.4216 8.85118 32.3858 9.31122Z" fill="#00389A"/>
<path fill-rule="evenodd" clip-rule="evenodd" d="M32.3036 39.5341C32.2997 40.0277 31.9158 40.4158 31.438 40.4079C30.965 40.4 30.5955 39.9991 30.5926 39.5075C30.5897 39.0672 30.9428 38.6426 31.4525 38.6485C32.0386 38.6554 32.3278 39.1401 32.3036 39.5341Z" fill="#00389A"/>
<path fill-rule="evenodd" clip-rule="evenodd" d="M18.7406 36.0835C18.2793 36.0845 17.8731 35.6787 17.8847 35.2088C17.8982 34.6857 18.2861 34.334 18.7416 34.3359C19.2271 34.3389 19.5956 34.7152 19.5985 35.2088C19.6005 35.6777 19.2504 36.0619 18.7406 36.0835Z" fill="#00389A"/>
<path fill-rule="evenodd" clip-rule="evenodd" d="M39.133 30.8988C39.1127 30.4013 39.4966 30.0732 39.9145 30.0742C40.4116 30.0752 40.7298 30.4584 40.724 30.8988C40.7182 31.3509 40.3671 31.6987 39.9241 31.7154C39.5218 31.7312 39.0953 31.3283 39.133 30.8988Z" fill="#00389A"/>
<path fill-rule="evenodd" clip-rule="evenodd" d="M10.2728 18.7474C9.82695 18.777 9.48747 18.382 9.47876 17.9652C9.46812 17.4402 9.91787 17.1318 10.2583 17.1309C10.7061 17.1299 11.0727 17.5032 11.0717 17.9593C11.0708 18.313 10.7603 18.777 10.2728 18.7474Z" fill="#00389A"/>
<path fill-rule="evenodd" clip-rule="evenodd" d="M9.48734 30.879C9.48927 30.4465 9.85777 30.0879 10.292 30.0958C10.7224 30.1027 11.0552 30.4652 11.0513 30.9223C11.0474 31.3361 10.6683 31.7203 10.2582 31.6996C9.8365 31.6769 9.48637 31.3706 9.48734 30.879Z" fill="#00389A"/>
<path fill-rule="evenodd" clip-rule="evenodd" d="M18.7397 38.7496C19.1788 38.723 19.5357 39.1161 19.5173 39.5249C19.496 39.9928 19.2262 40.2903 18.7455 40.3179C18.3373 40.3415 17.9679 39.9564 17.9659 39.5288C17.963 39.0895 18.3257 38.721 18.7397 38.7496Z" fill="#00389A"/>
<path fill-rule="evenodd" clip-rule="evenodd" d="M18.0309 9.31189C18.0357 8.90898 18.351 8.60163 18.7485 8.59769C19.117 8.59375 19.4623 8.94051 19.4527 9.32766C19.443 9.71283 19.1277 10.0458 18.7572 10.0448C18.3568 10.0448 18.026 9.71086 18.0309 9.31189Z" fill="#00389A"/>
</svg>
