<svg width="94" height="42" viewBox="0 0 94 42" fill="none" xmlns="http://www.w3.org/2000/svg">
<path d="M69.8874 13.3401C69.8874 12.8225 69.8874 12.3049 69.8874 11.7647C69.8649 10.1443 68.357 9.06409 66.8942 9.60422C65.9714 9.9418 65.4088 10.752 65.4088 11.8098C65.4088 14.8255 65.4088 17.8637 65.4088 20.8794C65.4088 21.1945 65.4088 21.5096 65.3638 21.8247C64.9137 25.358 61.4028 27.7886 57.9145 26.9559C55.1013 26.3033 53.1658 23.8502 53.1658 20.9695C53.1658 17.9762 53.1658 14.983 53.1658 11.9673C53.1658 11.7422 53.1433 11.5397 53.1208 11.3146C52.9633 10.1894 51.8605 9.33415 50.7127 9.46919C49.4975 9.60422 48.6873 10.5269 48.6873 11.7872C48.6873 14.848 48.6873 17.9087 48.6873 20.9695C48.6873 21.8022 48.7773 22.6349 48.9798 23.4226C49.9701 27.181 52.3106 29.7016 55.9565 31.0069C57.0368 31.3895 58.1846 31.5695 59.3323 31.547C60.5701 31.5245 61.7404 31.1194 62.8432 30.5793C63.7659 30.1517 64.6211 29.6116 65.3638 28.8239C65.3863 28.8914 65.4088 28.9139 65.4088 28.9364C65.3863 30.0166 65.5213 31.0744 65.3413 32.1547C64.9587 34.6528 63.5183 36.3182 61.1328 37.1734C60.4351 37.4209 59.7149 37.3984 58.9947 37.4885C57.8695 37.6235 57.0368 38.5687 57.0143 39.6715C56.9918 40.7517 57.802 41.697 58.8822 41.8995C59.4449 41.9895 60.0075 41.922 60.5701 41.832C64.1485 41.3144 66.8266 39.4689 68.5821 36.3182C69.5273 34.6303 69.8649 32.7848 69.8649 30.8719C69.8649 25.0429 69.8874 19.1915 69.8874 13.3401Z" fill="#004FE1"/>
<path d="M44.997 19.2592C44.997 18.6516 44.9295 18.044 44.7945 17.4363C44.2768 15.0057 43.0615 12.9802 41.1261 11.3823C38.853 9.51439 36.2424 8.7267 33.3392 9.01927C30.5035 9.31184 28.1629 10.5721 26.3175 12.7327C24.7646 14.5781 23.8869 16.7161 23.8419 19.1242C23.7744 22.365 23.8194 25.6283 23.8194 28.8691C23.8194 30.2644 25.1472 31.2997 26.4975 31.0071C27.5103 30.8045 28.253 29.9043 28.253 28.8691C28.253 26.5735 28.253 24.2555 28.253 21.9599C28.253 21.0372 28.2305 20.1145 28.2755 19.2142C28.388 17.4813 29.0857 16.0635 30.3685 14.9157C32.6865 12.8452 36.3774 12.9352 38.6055 15.0957C39.8883 16.3335 40.5184 17.8639 40.5184 19.6418C40.5184 22.7026 40.5184 25.7633 40.5184 28.8241C40.5184 30.2869 41.8913 31.3447 43.3091 30.9846C44.2543 30.737 44.952 29.8818 44.952 28.8916C44.952 27.2262 44.952 25.5608 44.952 23.8954C44.997 22.365 44.997 20.8121 44.997 19.2592Z" fill="#004FE1"/>
<path d="M5.68047 13.948C7.03079 13.948 8.38112 13.948 9.73144 13.948C10.7667 13.948 11.6669 13.2504 11.9145 12.2601C12.162 11.2699 11.7344 10.2796 10.8117 9.76201C10.4066 9.53696 9.9565 9.46944 9.50639 9.46944C8.22358 9.46944 6.94077 9.46944 5.63545 9.46944C5.27537 9.46944 5.27537 9.46944 5.27537 9.08685C5.27537 7.57899 5.27537 6.07112 5.27537 4.58576C5.27537 3.9331 5.02781 3.37047 4.51018 2.94286C3.81251 2.31271 3.00232 2.17768 2.14711 2.58278C1.2694 2.98787 0.841797 3.70805 0.841797 4.67578C0.841797 7.35393 0.841797 10.0321 0.841797 12.7102C0.841797 15.1183 0.841797 17.5264 0.841797 19.912C0.841797 20.4071 0.841797 20.8797 0.886808 21.3748C1.04435 23.2878 1.51696 25.1107 2.46219 26.7761C3.60997 28.8016 5.27537 30.2195 7.57092 30.8271C8.42613 31.0522 9.30384 31.1872 10.1816 31.0522C11.3068 30.8721 12.0945 29.7919 11.982 28.6441C11.892 27.5413 10.9242 26.6411 9.79896 26.6411C8.56116 26.6186 7.57092 26.101 6.85075 25.1107C5.77049 23.6479 5.34288 21.96 5.29787 20.1595C5.25286 18.2241 5.29787 16.2661 5.29787 14.3306C5.29787 13.948 5.29787 13.948 5.68047 13.948Z" fill="#004FE1"/>
<path d="M17.1137 9.58166C16.1235 9.89673 15.5383 10.7519 15.5383 11.8772C15.5383 16.5133 15.5383 21.1269 15.5383 25.7631C15.5383 26.7758 15.5383 27.7885 15.5383 28.7788C15.5608 30.3317 16.8887 31.3894 18.3515 31.0068C19.3418 30.7593 20.0169 29.859 20.0169 28.7563C20.0169 25.9206 20.0169 23.1074 20.0169 20.2717C20.0169 19.5966 20.0169 18.9439 20.0169 18.2688C20.0169 16.1082 20.0169 13.9252 20.0169 11.7647C20.0169 10.1893 18.5766 9.10904 17.1137 9.58166Z" fill="#004FE1"/>
<path d="M85.6867 27.1136C86.5644 26.7985 87.0145 26.1459 87.1045 25.2232C87.2171 23.8503 86.722 22.725 85.1241 22.5C84.1563 22.365 83.1886 22.41 82.2209 22.455C81.8833 22.455 81.7708 22.6125 81.7708 22.9726C81.7708 25.4932 81.7708 28.0138 81.7708 30.5344C81.7708 30.8945 81.9958 31.0971 82.3784 31.0971C82.7835 31.0971 83.0311 30.8945 83.0311 30.5344C83.0311 30.0618 83.0311 29.5892 83.0311 29.0941C83.0311 28.644 83.0311 28.1939 83.0311 27.7438C83.0311 27.3612 83.0311 27.3612 83.4136 27.3612C84.1788 27.3612 84.1788 27.3612 84.5389 28.0588C84.989 28.9591 85.4391 29.8368 85.8892 30.737C86.0018 30.962 86.1593 31.1196 86.4294 31.0971C86.992 31.0746 87.2846 30.602 87.0145 30.1068C86.5419 29.2291 86.0693 28.3514 85.6192 27.4512C85.5292 27.2937 85.4616 27.2036 85.6867 27.1136ZM84.854 26.2809C84.3139 26.3709 83.7512 26.3259 83.2111 26.3484C83.0536 26.3484 83.0086 26.2584 83.0086 26.1234C83.0086 25.7408 83.0086 25.3582 83.0086 24.9981C83.0086 24.638 83.0086 24.2554 83.0086 23.8953C83.0086 23.6928 83.0761 23.6253 83.2786 23.6253C83.7512 23.6253 84.2238 23.6253 84.674 23.6478C85.3491 23.6703 85.7767 24.1204 85.7992 24.7955C85.7992 24.9531 85.7992 25.1106 85.7992 25.2907C85.7542 25.7858 85.3941 26.1909 84.854 26.2809Z" fill="#004FE1"/>
<path d="M17.7434 0.804749C16.258 0.804749 15.0427 2.02004 15.0427 3.5054C15.0427 4.96825 16.258 6.18355 17.6984 6.18355C19.2062 6.18355 20.399 5.01326 20.399 3.5054C20.4215 1.99754 19.2287 0.804749 17.7434 0.804749Z" fill="#004FE1"/>
<path d="M93.6536 24.638C93.5861 23.4452 92.7984 22.6125 91.6281 22.4775C90.7054 22.365 89.7827 22.41 88.8825 22.4325C88.4549 22.4325 88.3198 22.6125 88.3198 23.0401C88.3198 24.2779 88.3198 25.5157 88.3198 26.731C88.3198 27.9913 88.3198 29.2291 88.3198 30.4894C88.3198 30.692 88.3648 30.8495 88.5674 30.9621C89.1075 31.2321 89.6251 30.9395 89.6251 30.3319C89.6251 29.5667 89.6251 28.824 89.6251 28.0589C89.6251 27.8338 89.7152 27.7438 89.9402 27.7438C90.4578 27.7438 90.9755 27.7438 91.4706 27.6988C92.6184 27.6087 93.4286 26.8886 93.6536 25.7633C93.6761 25.4032 93.6761 25.0206 93.6536 24.638ZM92.3033 25.7858C92.1683 26.3709 91.7632 26.686 91.1105 26.7085C90.6829 26.731 90.2553 26.7085 89.8277 26.7085C89.6476 26.7085 89.6026 26.596 89.6026 26.4385C89.6026 26.0109 89.6026 25.5833 89.6026 25.1331C89.6026 24.7055 89.6026 24.2779 89.6026 23.8728C89.6026 23.6478 89.6702 23.5578 89.8952 23.5578C90.3453 23.5803 90.7729 23.5578 91.223 23.5803C91.8082 23.6028 92.1908 23.9178 92.3258 24.4805C92.4158 24.9306 92.4158 25.3582 92.3033 25.7858Z" fill="#004FE1"/>
<path d="M77.2915 23.6027C78.2367 23.6027 79.2044 23.6027 80.1497 23.6027C80.4197 23.6027 80.6448 23.5351 80.7348 23.2426C80.8923 22.77 80.6448 22.4324 80.1272 22.4324C79.1144 22.4324 78.1017 22.4324 77.0664 22.4324C76.7513 22.4324 76.4363 22.4324 76.1212 22.4549C75.6936 22.4999 75.5811 22.6349 75.5811 23.0625C75.5811 24.2778 75.5811 25.5156 75.5811 26.7309C75.5811 27.9462 75.5811 29.1615 75.5811 30.3768C75.5811 30.8944 75.7386 31.052 76.2562 31.0745C77.5615 31.0745 78.8894 31.0745 80.1947 31.0745C80.5548 31.0745 80.7573 30.8719 80.7573 30.5118C80.7573 30.1292 80.5548 29.9267 80.1722 29.9267C79.1819 29.9267 78.1692 29.9267 77.1789 29.9267C76.9539 29.9267 76.8639 29.8592 76.8639 29.6341C76.8639 28.9364 76.8639 28.2388 76.8639 27.5186C76.8639 27.3161 76.9314 27.226 77.1339 27.226C77.6065 27.226 78.0792 27.226 78.5293 27.226C78.8669 27.226 79.0469 27.046 79.0469 26.7534C79.0469 26.4383 78.8669 26.2358 78.5293 26.2358C78.0792 26.2358 77.6516 26.2358 77.2014 26.2358C76.8414 26.2358 76.8414 26.2358 76.8414 25.8532C76.8414 25.223 76.8414 24.6154 76.8414 23.9852C76.9089 23.6027 76.9089 23.6027 77.2915 23.6027Z" fill="#004FE1"/>
</svg>
