<svg width="50" height="50" viewBox="0 0 50 50" fill="none" xmlns="http://www.w3.org/2000/svg">
<rect width="50" height="50" rx="10" fill="#FF6600"/>
<path fill-rule="evenodd" clip-rule="evenodd" d="M31.3016 21.7459C32.4648 19.5215 34.7792 18 37.4383 18C41.2481 18 44.3549 21.1194 44.38 24.9422C44.38 28.765 41.2732 31.8844 37.4634 31.8844C34.7913 31.8844 32.4774 30.3629 31.3267 28.1384C30.1635 30.3629 27.8491 31.8844 25.19 31.8844C22.5178 31.8844 20.2039 30.3629 19.0533 28.1384C17.8901 30.3629 15.5756 31.8844 12.9166 31.8844C9.1068 31.8844 6 28.765 6 24.9422C6 21.1194 9.1068 18 12.8915 18C15.5636 18 17.8775 19.5215 19.0282 21.7459C20.1788 19.5215 22.5058 18 25.1649 18C27.8371 18 30.1509 19.5215 31.3016 21.7459ZM10.3208 21.9441C10.2183 21.9441 10.142 22.021 10.142 22.123V23.2862C10.142 23.3887 10.2189 23.4651 10.3208 23.4651H11.7273C11.868 23.4651 11.9956 23.4394 11.9956 23.4394V28.0421C11.9956 28.1446 12.0725 28.221 12.1745 28.221H13.6191C13.7216 28.221 13.798 28.1441 13.798 28.0421V23.4394C13.798 23.4394 13.9768 23.4651 14.1432 23.4651H15.4858C15.5883 23.4651 15.6646 23.3882 15.6646 23.2862V22.123C15.6646 22.0205 15.5878 21.9441 15.4858 21.9441H10.3208ZM40.0334 21.9441C40.1359 21.9441 40.2123 22.021 40.2123 22.123V23.2862C40.2123 23.3887 40.1354 23.4651 40.0334 23.4651H38.6908C38.5245 23.4651 38.3456 23.4394 38.3456 23.4394V28.0421C38.3456 28.1446 38.2687 28.221 38.1667 28.221H36.7221C36.6196 28.221 36.5432 28.1441 36.5432 28.0421V23.4394C36.5432 23.4394 36.4156 23.4651 36.2749 23.4651H34.8685C34.766 23.4651 34.6896 23.3882 34.6896 23.2862V22.123C34.6896 22.0205 34.7665 21.9441 34.8685 21.9441H40.0334ZM12.9159 30.3336C9.96232 30.3336 7.55899 27.9172 7.55899 24.9511C7.55899 21.985 9.96284 19.5686 12.9159 19.5686C15.8689 19.5686 18.2733 21.985 18.2733 24.9511C18.2602 27.9172 15.8569 30.3336 12.9159 30.3336ZM19.8206 24.9511C19.8206 27.9172 22.2239 30.3336 25.1774 30.3336C28.1305 30.3336 30.5343 27.9172 30.5343 24.9511C30.5343 21.985 28.131 19.5686 25.1774 19.5686C22.2244 19.5686 19.8206 21.985 19.8206 24.9511ZM37.4383 30.3336C34.4847 30.3336 32.0814 27.9172 32.0814 24.9511C32.0814 21.985 34.4853 19.5686 37.4383 19.5686C40.3913 19.5686 42.7952 21.985 42.7952 24.9511C42.7952 27.9172 40.3913 30.3336 37.4383 30.3336ZM28.0412 22.0142C28.0412 21.9117 27.9643 21.8223 27.8492 21.8223C27.7598 21.8223 26.494 21.8223 26.494 21.8353C26.392 21.8353 26.3151 21.9117 26.3151 22.0142V25.2873C26.3151 25.2873 26.2388 25.1085 26.1619 25.006C26.0725 24.8778 23.9118 21.9373 23.9118 21.9373C23.8736 21.8861 23.7711 21.8348 23.7073 21.8348H22.4928C22.3909 21.8348 22.314 21.9112 22.314 22.0137V27.8821C22.314 27.9841 22.3903 28.061 22.4928 28.061H23.8611C23.9631 28.061 24.04 27.9846 24.04 27.8821V24.609C24.04 24.609 24.1163 24.7878 24.1932 24.8904C24.257 24.9672 26.4433 27.959 26.4433 27.959C26.4945 28.0102 26.584 28.0615 26.6478 28.0615H27.8623C27.9643 28.0615 28.0412 27.9851 28.0412 27.8826V22.0142Z" fill="white"/>
</svg>
