<svg width="50" height="50" viewBox="0 0 50 50" fill="none" xmlns="http://www.w3.org/2000/svg">
<rect width="50" height="50" rx="10" fill="#52658C"/>
<mask id="mask0" mask-type="alpha" maskUnits="userSpaceOnUse" x="14" y="13" width="19" height="25">
<path fill-rule="evenodd" clip-rule="evenodd" d="M14 13H32.74V37.0732H14V13Z" fill="white"/>
</mask>
<g mask="url(#mask0)">
<path fill-rule="evenodd" clip-rule="evenodd" d="M32.74 35.31C32.6108 35.6172 32.5229 35.9493 32.3442 36.2263C31.9881 36.7787 31.4413 37.0634 30.7663 37.0668C29.1251 37.0749 27.4836 37.0594 25.8424 37.0732C24.8297 37.0816 23.8777 36.2169 23.8645 35.1474C23.8503 34.0272 23.7946 32.9017 23.8874 31.7885C23.9397 31.1589 23.681 30.76 23.3094 30.3413C22.8851 29.8631 22.4779 29.3712 22.0626 28.8856C21.8905 28.6845 21.69 28.5781 21.3987 28.5801C19.6602 28.5925 17.9217 28.5928 16.1832 28.5834C15.2949 28.5787 14.6154 28.1939 14.2261 27.4152C14.0921 27.1473 14.0277 26.8242 14.0201 26.5244C13.9948 25.5513 13.9938 24.5768 14.0149 23.6034C14.0405 22.4341 14.8755 21.5399 16.126 21.5466C17.7025 21.555 19.2803 21.5147 20.8554 21.5654C21.4704 21.5853 21.859 21.3791 22.2081 20.9301C22.6635 20.3432 23.1736 19.7962 23.6332 19.2122C23.7589 19.0524 23.8479 18.8221 23.8514 18.6226C23.8718 17.4608 23.8708 16.2983 23.8587 15.1361C23.8458 13.8735 24.7702 13.0028 26.0678 13.0028C27.5902 13.0028 29.113 12.9948 30.6354 13.0059C31.5802 13.0126 32.3746 13.6019 32.6292 14.4279C32.6638 14.5401 32.7029 14.6509 32.74 14.762V18.2811C32.723 18.2922 32.6929 18.3019 32.6915 18.315C32.5713 19.3885 31.5712 20.0732 30.5308 20.0504C28.8477 20.0134 27.1629 20.044 25.4787 20.0366C25.236 20.0356 25.0403 20.0893 24.8831 20.2737C24.3664 20.8791 23.8541 21.4886 23.3239 22.0829C23.0871 22.3482 22.8907 22.6198 22.89 22.9825C22.8879 24.3119 22.8779 25.6416 22.9 26.9706C22.9039 27.201 22.9984 27.4676 23.1407 27.6516C23.6017 28.247 24.1392 28.7876 24.5811 29.3947C25.0005 29.9716 25.5227 30.1291 26.2247 30.1083C27.7457 30.0636 29.2688 30.0985 30.7909 30.0921C31.2913 30.0898 31.6896 30.296 32.0598 30.5948C32.4685 30.9252 32.6119 31.3843 32.74 31.854V35.31Z" fill="white"/>
</g>
</svg>
