<?xml version="1.0" encoding="UTF-8"?>
<svg width="36px" height="30px" viewBox="0 0 36 30" version="1.1" xmlns="http://www.w3.org/2000/svg" xmlns:xlink="http://www.w3.org/1999/xlink">
    <!-- Generator: Sketch 52.4 (67378) - http://www.bohemiancoding.com/sketch -->
    <title>Combined Shape</title>
    <desc>Created with Sketch.</desc>
    <g id="Page-1" stroke="none" stroke-width="1" fill="none" fill-rule="evenodd">
        <g id="Artboard" transform="translate(-334.000000, -111.000000)" fill="#E73E51">
            <path d="M359.773165,119.53358 C362.557373,119.53358 362.281077,120.915057 362.281077,122.062746 C362.281077,123.06166 362.472359,124.018068 359.794418,124.018068 C357.116478,124.018068 354.831813,124.421884 354.831813,132.051888 L354.831813,139.511695 C354.831813,140.174379 354.289593,140.716598 353.626824,140.716598 L351.445961,140.716598 C350.783277,140.716598 350.241058,140.174379 350.241058,139.511695 L350.241058,131.719144 L350.241058,124.890396 L350.241058,120.630006 C350.241058,119.967322 350.783277,119.425102 351.445961,119.425102 L353.223008,119.425102 C353.885777,119.425102 354.427996,119.967322 354.427996,120.630006 L354.427996,121.728981 C354.897953,121.084575 357.279365,119.53358 359.773165,119.53358 Z M367.313675,119.517164 C367.976359,119.517164 368.518578,120.059383 368.518578,120.722067 L368.518578,139.511686 C368.518578,140.17437 367.976359,140.716589 367.313675,140.716589 L365.132727,140.716589 C364.470043,140.716589 363.927823,140.17437 363.927823,139.511686 L363.927823,120.722067 C363.927823,120.059383 364.470043,119.517164 365.132727,119.517164 L367.313675,119.517164 Z M366.223218,117.365664 C364.603362,117.365664 363.290236,116.052538 363.290236,114.432682 C363.290236,112.812826 364.603362,111.4997 366.223218,111.4997 C367.843074,111.4997 369.1562,112.812826 369.1562,114.432682 C369.1562,116.052538 367.843074,117.365664 366.223218,117.365664 Z M348.083743,137.025206 L348.083743,138.661725 C348.083743,139.405597 348.30529,140.369911 345.271226,140.631499 C343.514242,140.782994 341.318756,141.133421 339.284797,139.065541 C338.111434,137.872625 337.897794,136.553378 337.871099,131.200898 C337.869994,131.17973 337.867869,131.158816 337.867869,131.137393 L337.867869,123.592998 L335.704688,123.592998 C335.041919,123.592998 334.4997,123.050778 334.4997,122.388095 L334.4997,120.610962 C334.4997,119.948278 335.041919,119.406059 335.704688,119.406059 L337.867869,119.406059 L337.867869,116.516179 C337.867869,115.85341 338.410088,115.311191 339.072857,115.311191 L341.25372,115.311191 C341.916404,115.311191 342.458623,115.85341 342.458623,116.516179 L342.458623,119.406059 L346.793826,119.406059 C347.45651,119.406059 347.998729,119.948278 347.998729,120.610962 L347.998729,122.388095 C347.998729,123.050778 347.45651,123.592998 346.793826,123.592998 L342.458623,123.592998 L342.458623,129.53692 L342.458623,131.137393 L342.458623,134.283505 C342.458623,135.920024 343.514242,136.600136 345.02324,136.323841 C346.532238,136.047545 348.083743,135.601222 348.083743,137.025206 Z" id="Combined-Shape"></path>
        </g>
    </g>
</svg>