<svg width="80" height="25" viewBox="0 0 80 25" fill="#3B86FF" xmlns="http://www.w3.org/2000/svg"><path d="M26.6372 14.8983C25.1852 16.3596 23.4582 17.5187 21.5557 18.3088C19.6533 19.0989 17.6132 19.5042 15.5532 19.5014C13.4932 19.4987 11.4542 19.0878 9.55392 18.2926C7.65362 17.4974 5.92967 16.3337 4.48164 14.8685C6.01573 15.3566 7.61594 15.6052 9.22583 15.6055H9.5491C6.8294 15.0747 4.30213 13.8234 2.23125 11.9822C1.16373 10.199 0.460564 8.22185 0.162469 6.16508C-0.135625 4.10831 -0.022725 2.01283 0.494633 0C2.83205 5.46737 7.04512 9.9203 12.3748 12.5566C12.7188 13.4087 13.1771 14.2101 13.7372 14.9388C13.9794 15.2364 14.2462 15.5132 14.5348 15.7662C15.2087 16.3718 16.0924 16.6904 16.9978 16.6542C18.8855 16.533 19.6022 16.2809 20.1064 16.7956C20.1064 16.7956 20.2276 16.1905 19.3598 15.8874C19.1779 15.3929 19.1375 15.2717 18.2197 14.8291C17.9368 14.6982 17.5837 14.526 17.119 14.324C17.6135 14.4548 18.1283 14.5664 18.6334 14.6674C20.1934 14.9678 21.7783 15.1199 23.367 15.1216C24.4609 15.1143 25.5533 15.04 26.6382 14.8993"></path><path d="M39.0716 14.9282C39.0716 16.0288 38.0825 16.5031 37.1541 16.5031C36.165 16.5031 35.2058 16.0288 35.2058 14.9282V6.12673H31.7422V15.009C31.7422 17.9867 34.3399 19.5511 37.1425 19.5511C39.9327 19.5511 42.5025 17.9761 42.5025 15.009V6.12673H39.0706L39.0716 14.9282Z"></path><path d="M65.9512 19.3789H69.1714V10.386H65.9618L65.9512 19.3789Z"></path><path d="M67.5955 5.99975C67.2338 6.00148 66.8808 6.11044 66.581 6.31285C66.2813 6.51527 66.0484 6.80205 65.9117 7.13689C65.775 7.47174 65.7407 7.83961 65.8132 8.19394C65.8856 8.54828 66.0616 8.87316 66.3187 9.12748C66.5759 9.3818 66.9027 9.55413 67.2578 9.62266C67.6129 9.69118 67.9804 9.65283 68.3137 9.51245C68.647 9.37207 68.9312 9.13597 69.1302 8.83403C69.3293 8.5321 69.4344 8.17789 69.4321 7.81622C69.4395 7.57397 69.3969 7.3328 69.3069 7.10776C69.2169 6.88271 69.0815 6.6786 68.9092 6.50818C68.7369 6.33775 68.5313 6.20465 68.3053 6.11717C68.0792 6.0297 67.8376 5.98973 67.5955 5.99975Z"></path><path d="M49.6597 9.97231C49.4637 9.97395 49.2682 9.99067 49.0747 10.0223C48.4562 10.1066 47.8451 10.2382 47.2467 10.4158C46.9369 10.4475 46.6246 10.388 46.3481 10.2446C45.905 10.0594 45.424 9.98321 44.9453 10.0223H44.9347C44.8645 10.0223 44.7933 10.032 44.7327 10.032C44.521 10.0522 44.3084 10.082 44.1169 10.1128C44.3292 10.947 44.4311 11.8055 44.42 12.6662V12.7874C44.4306 13.181 44.42 13.4532 44.42 13.4532V24.0519H47.6402V19.1865C50.8094 20.4882 53.7371 18.1282 53.7371 14.7348C53.7467 12.2015 52.3238 10.0204 49.6597 9.97038V9.97231ZM47.57 16.4502V14.4211C47.5525 14.2244 47.5747 14.0262 47.6352 13.8382C47.6957 13.6502 47.7932 13.4762 47.9222 13.3266C48.0511 13.1769 48.2087 13.0547 48.3857 12.9671C48.5626 12.8794 48.7554 12.8281 48.9525 12.8163C50.0109 12.7557 50.5073 13.8054 50.5073 14.7405C50.5073 16.5166 49.145 17.1458 47.57 16.4464"></path><path d="M60.8943 10.0435H60.8847C60.0444 10.0132 59.2059 10.1398 58.412 10.4168C57.8463 10.538 57.5538 10.0233 56.1029 10.0233C56.0591 10.0211 56.0151 10.0243 55.9721 10.0329C55.5969 10.0376 55.2226 10.0698 54.8522 10.1291C55.0886 11.2229 55.1904 12.3415 55.1552 13.46H55.1456V19.375H58.3659V14.2075C58.3502 13.9978 58.3784 13.7871 58.4487 13.5888C58.5191 13.3906 58.63 13.2092 58.7744 13.0563C58.9189 12.9034 59.0936 12.7823 59.2874 12.7007C59.4813 12.6191 59.6901 12.5789 59.9004 12.5825C60.0941 12.5896 60.2841 12.6372 60.4582 12.7222C60.6323 12.8073 60.7867 12.9279 60.9113 13.0764C61.0358 13.2248 61.1279 13.3977 61.1815 13.5839C61.2351 13.7702 61.249 13.9656 61.2224 14.1575V19.376H64.4628V14.1479C64.5128 11.8571 63.5439 10.0397 60.9029 10.0397"></path><path d="M79.7095 17.371C79.6989 17.2806 79.6988 17.1892 79.6892 17.0881C79.6796 16.9467 79.6796 16.7755 79.6796 16.5628V5.55142H76.4594V10.3861C75.8994 10.1526 75.2996 10.0291 74.6929 10.0224C74.0845 10.0449 73.4865 10.1874 72.9332 10.4415C72.3799 10.6957 71.8823 11.0566 71.4688 11.5035C71.0553 11.9505 70.734 12.4746 70.5236 13.046C70.3131 13.6173 70.2175 14.2246 70.2422 14.8329C70.2422 17.5076 71.797 19.6377 74.5323 19.6272H74.6227C74.7477 19.6253 74.8724 19.6153 74.996 19.5973H75.0258C75.6154 19.5059 76.1987 19.3774 76.7721 19.2125C77.2156 19.1163 77.4889 19.4049 78.2663 19.5358C78.3875 19.556 78.5183 19.5762 78.6511 19.5858C78.7839 19.5954 78.9234 19.606 79.085 19.606C79.1821 19.6079 79.2791 19.5979 79.3737 19.5762C79.5839 19.5567 79.7929 19.5265 80 19.4857C79.8183 18.7945 79.7213 18.0837 79.7113 17.3691L79.7095 17.371ZM76.5421 15.1783C76.5628 15.3757 76.5429 15.5751 76.4836 15.7645C76.4244 15.9538 76.327 16.129 76.1975 16.2793C76.068 16.4297 75.9091 16.5519 75.7306 16.6385C75.5521 16.7252 75.3578 16.7744 75.1596 16.7832C74.0195 16.7832 73.5644 15.9452 73.5644 14.8349C73.5346 14.5879 73.5575 14.3375 73.6316 14.1001C73.7058 13.8627 73.8295 13.6437 73.9946 13.4577C74.1596 13.2716 74.3623 13.1227 74.5891 13.0208C74.816 12.9188 75.0619 12.8662 75.3106 12.8664C75.7364 12.8738 76.1558 12.9701 76.5421 13.1492V15.1783Z"></path></svg>