<?xml version="1.0" encoding="UTF-8"?>
<svg width="65px" height="73px" viewBox="0 0 65 73" version="1.1" xmlns="http://www.w3.org/2000/svg" xmlns:xlink="http://www.w3.org/1999/xlink">
    <!-- Generator: Sketch 52.4 (67378) - http://www.bohemiancoding.com/sketch -->
    <title>Artboard Copy 6</title>
    <desc>Created with Sketch.</desc>
    <g id="Artboard-Copy-6" stroke="none" stroke-width="1" fill="none" fill-rule="evenodd">
        <path d="M32.5283772,25.1230321 L32.5353742,25.1230321 C30.8525754,25.1230321 29.4619049,24.2466472 29.2799807,23.1113703 L27.6146745,4.26822157 C27.6146745,2.40524781 29.7942664,0.874635569 32.5353742,0.874635569 C35.2782314,0.874635569 37.4595725,2.40524781 37.4595725,4.26822157 L35.7925171,23.1113703 C35.6035958,24.2466472 34.2146745,25.1230321 32.5283772,25.1230321 Z M22.3406221,31.0093294 L22.3458699,31.0005831 C21.5044705,32.4577259 20.0438291,33.2221574 18.9715258,32.8233236 L1.82342089,24.8379009 C0.214091447,23.9055394 -0.0290572415,21.2553936 1.3441206,18.8816327 C2.71729844,16.5043732 5.13304188,15.3813411 6.74237133,16.3154519 L22.230418,27.1784257 C23.1225463,27.9078717 23.1872693,29.548688 22.3406221,31.0093294 Z M42.7213801,31.0005831 L42.7266279,31.0093294 C41.8852285,29.5521866 41.9499515,27.909621 42.8350827,27.1801749 L58.3266279,16.3172012 C59.9307095,15.3848397 62.3482022,16.5078717 63.7248786,18.8833819 C65.0910594,21.2571429 64.8619049,23.9090379 63.2455783,24.8396501 L46.0922256,32.8250729 C45.0199224,33.2239067 43.5645288,32.4594752 42.7213801,31.0005831 Z M32.5283772,48.6612245 C34.2146745,48.6612245 35.6035958,49.5341108 35.7925171,50.6676385 L37.4595725,69.5107872 C37.4595725,71.3772595 35.2782314,72.9043732 32.5353742,72.9043732 C29.7942664,72.9043732 27.6146745,71.3772595 27.6146745,69.5107872 L29.2799807,50.6676385 C29.4619049,49.5341108 30.8525754,48.6612245 32.5353742,48.6612245 L32.5283772,48.6612245 Z M42.7213801,42.7766764 C43.5645288,41.3142857 45.0199224,40.555102 46.0922256,40.9591837 L63.2455783,48.9358601 C64.8619049,49.8717201 65.0910594,52.5236152 63.7248786,54.9008746 C62.3482022,57.2676385 59.9307095,58.3924198 58.3266279,57.4670554 L42.8350827,46.6093294 C41.9499515,45.8728863 41.8852285,44.23207 42.7266279,42.7731778 L42.7213801,42.7766764 Z M22.3406221,42.7731778 C23.1872693,44.23207 23.1225463,45.8728863 22.230418,46.6093294 L6.74237133,57.4653061 C5.13304188,58.3959184 2.71729844,57.2693878 1.3441206,54.8991254 C-0.0290572415,52.5253644 0.214091447,49.8717201 1.82342089,48.9358601 L18.9715258,40.9609329 C20.0438291,40.555102 21.5044705,41.316035 22.3476191,42.7784257 L22.3406221,42.7731778 Z" id="Combined-Shape" fill="#FCBA2E"></path>
    </g>
</svg>