<svg width="26" height="30" viewBox="0 0 26 30" fill="none" xmlns="http://www.w3.org/2000/svg">
<path d="M24.5888 9.70226C24.5103 9.58442 24.3924 9.54514 24.2746 9.54514H22.1928C22.0357 9.54514 21.9178 9.6237 21.8393 9.78081L19.0504 16.8511L16.2223 9.78081C16.183 9.6237 16.0259 9.54514 15.8688 9.54514H13.8263C13.7085 9.54514 13.5906 9.58442 13.5121 9.70226C13.4335 9.82009 13.4335 9.93793 13.4728 10.0165L14.0227 11.5091L11.8623 16.8118L9.03422 9.74154C8.99494 9.58442 8.83782 9.50586 8.6807 9.50586H6.63818C6.52034 9.50586 6.4025 9.58442 6.32395 9.66298C6.24539 9.78081 6.24539 9.89865 6.28467 10.0165L10.3304 20.3469C10.3697 20.5041 10.5268 20.5826 10.6839 20.5826H13.0014C13.1585 20.5826 13.2764 20.5041 13.3549 20.3469L15.476 15.0835L17.5578 20.3469C17.5971 20.5041 17.7542 20.5826 17.9113 20.5826H20.2681C20.4252 20.5826 20.543 20.5041 20.6216 20.3469L24.7066 10.0165C24.6674 9.89865 24.6674 9.78081 24.5888 9.70226Z" fill="#0B286E"/>
<path d="M23.5676 23.3327C23.3712 23.1363 23.0569 23.1363 22.8998 23.3327C18.2649 27.732 11.0375 27.6534 6.48108 23.097C4.24216 20.8581 2.98523 17.9122 2.98523 14.7698C2.98523 11.6275 4.20288 8.64227 6.40252 6.40335C10.8411 1.92552 18.2256 1.84696 22.8605 6.20696C23.0569 6.40335 23.3712 6.36407 23.5283 6.20696L24.9423 4.7929C25.0209 4.71434 25.0995 4.55723 25.0995 4.43939C25.0995 4.32155 25.0602 4.16443 24.9423 4.08588C19.1683 -1.4525 9.89838 -1.33467 4.32072 4.28227C1.53189 7.0711 0 10.8026 0 14.7698C0 18.737 1.57117 22.4293 4.36 25.2181C7.14883 27.9677 10.8411 29.4996 14.769 29.4996H14.8083C18.5791 29.4996 22.1928 28.0462 24.9031 25.4145C24.9816 25.336 25.0602 25.1789 25.0602 25.061C25.0602 24.9432 25.0209 24.7861 24.9031 24.7075L23.5676 23.3327Z" fill="#0098FF"/>
</svg>
