<?xml version="1.0" encoding="UTF-8"?>
<svg width="135px" height="37px" viewBox="0 0 135 37" version="1.1" xmlns="http://www.w3.org/2000/svg" xmlns:xlink="http://www.w3.org/1999/xlink">
    <!-- Generator: Sketch 53.2 (72643) - https://sketchapp.com -->
    <title>-r3j-x8ZnM7 2</title>
    <desc>Created with Sketch.</desc>
    <g id="Page-1" stroke="none" stroke-width="1" fill="none" fill-rule="evenodd">
        <g id="-r3j-x8ZnM7-2" fill-rule="nonzero">
            <g id="-r3j-x8ZnM7">
                <path d="M9.7,31.8 L10.3,32.1 C12.8,33.6 15.6,34.3 18.4,34.3 L18.4,34.3 C27.2,34.3 34.4,27.1 34.4,18.3 C34.4,14.1 32.7,10 29.7,7 C26.7,4 22.7,2.3 18.4,2.3 C9.6,2.3 2.4,9.5 2.5,18.4 C2.5,21.4 3.4,24.3 4.9,26.8 L5.3,27.4 L3.7,33.3 L9.7,31.8 Z" id="Path" fill="#00E676"></path>
                <path d="M31.4,5.4 C28,1.9 23.3,0 18.5,0 C8.3,0 0.1,8.3 0.2,18.4 C0.2,21.6 1.1,24.7 2.6,27.5 L0,37 L9.7,34.5 C12.4,36 15.4,36.7 18.4,36.7 L18.4,36.7 C28.5,36.7 36.7,28.4 36.7,18.3 C36.7,13.4 34.8,8.8 31.4,5.4 Z M18.5,33.6 L18.5,33.6 C15.8,33.6 13.1,32.9 10.8,31.5 L10.2,31.2 L4.4,32.7 L5.9,27 L5.5,26.4 C1.1,19.3 3.2,9.9 10.4,5.5 C17.6,1.1 26.9,3.2 31.3,10.4 C35.7,17.6 33.6,26.9 26.4,31.3 C24.1,32.8 21.3,33.6 18.5,33.6 Z M27.3,22.5 L26.2,22 C26.2,22 24.6,21.3 23.6,20.8 C23.5,20.8 23.4,20.7 23.3,20.7 C23,20.7 22.8,20.8 22.6,20.9 L22.6,20.9 C22.6,20.9 22.5,21 21.1,22.6 C21,22.8 20.8,22.9 20.6,22.9 L20.5,22.9 C20.4,22.9 20.2,22.8 20.1,22.7 L19.6,22.5 L19.6,22.5 C18.5,22 17.5,21.4 16.7,20.6 C16.5,20.4 16.2,20.2 16,20 C15.3,19.3 14.6,18.5 14.1,17.6 L14,17.4 C13.9,17.3 13.9,17.2 13.8,17 C13.8,16.8 13.8,16.6 13.9,16.5 C13.9,16.5 14.3,16 14.6,15.7 C14.8,15.5 14.9,15.2 15.1,15 C15.3,14.7 15.4,14.3 15.3,14 C15.2,13.5 14,10.8 13.7,10.2 C13.5,9.9 13.3,9.8 13,9.7 L12.7,9.7 C12.5,9.7 12.2,9.7 11.9,9.7 C11.7,9.7 11.5,9.8 11.3,9.8 L11.2,9.9 C11,10 10.8,10.2 10.6,10.3 C10.4,10.5 10.3,10.7 10.1,10.9 C9.4,11.8 9,12.9 9,14 L9,14 C9,14.8 9.2,15.6 9.5,16.3 L9.6,16.6 C10.5,18.5 11.7,20.2 13.3,21.7 L13.7,22.1 C14,22.4 14.3,22.6 14.5,22.9 C16.6,24.7 19,26 21.7,26.7 C22,26.8 22.4,26.8 22.7,26.9 L22.7,26.9 C23,26.9 23.4,26.9 23.7,26.9 C24.2,26.9 24.8,26.7 25.2,26.5 C25.5,26.3 25.7,26.3 25.9,26.1 L26.1,25.9 C26.3,25.7 26.5,25.6 26.7,25.4 C26.9,25.2 27.1,25 27.2,24.8 C27.4,24.4 27.5,23.9 27.6,23.4 C27.6,23.2 27.6,22.9 27.6,22.7 C27.6,22.7 27.5,22.6 27.3,22.5 Z" id="Shape" fill="#FFFFFF"></path>
                <path d="M55.2,22.5 L55.1,22.5 L52.4,12.5 L50.3,12.5 L47.7,22.5 L47.6,22.5 L45.3,12.5 L42.8,12.5 L46.4,25.9 L48.7,25.9 L51.4,16.4 L51.5,16.4 L54.2,25.9 L56.4,25.9 L59.9,12.6 L57.5,12.6 L55.2,22.5 Z M67.4,15.5 C66.7,15.5 66,15.7 65.4,16 C64.9,16.3 64.4,16.8 64.2,17.3 L64,17.3 L64,11.8 L61.7,11.8 L61.7,25.9 L64,25.9 L64,20 C64,19.3 64.2,18.7 64.7,18.2 C65.2,17.7 65.8,17.5 66.5,17.5 C67.1,17.5 67.7,17.7 68.1,18.1 C68.5,18.6 68.7,19.2 68.6,19.8 L68.6,25.8 L71,25.8 L71,19.3 C71.1,18.3 70.7,17.3 70.1,16.5 C69.4,15.8 68.4,15.5 67.4,15.5 L67.4,15.5 Z M77.4,15.5 C76.3,15.5 75.3,15.7 74.4,16.3 C73.7,16.8 73.2,17.6 73.1,18.4 L75.3,18.4 C75.4,18.1 75.7,17.8 76,17.6 C76.4,17.4 76.9,17.3 77.3,17.3 C77.8,17.3 78.3,17.4 78.7,17.7 C79,18 79.2,18.4 79.2,18.9 L79.2,19.8 L76.6,20 C75.6,20 74.6,20.3 73.7,20.9 C73,21.4 72.7,22.2 72.7,23.1 C72.7,23.9 73,24.7 73.6,25.3 C74.3,25.9 75.1,26.2 76,26.1 C76.6,26.1 77.2,26 77.8,25.7 C78.3,25.4 78.7,25 79,24.6 L79.2,24.6 L79.2,26 L81.4,26 L81.4,19 C81.5,18 81.1,17.1 80.3,16.5 C79.5,15.7 78.4,15.4 77.4,15.5 L77.4,15.5 Z M79.2,22.2 C79.2,22.8 79,23.3 78.5,23.7 C78,24.1 77.4,24.3 76.8,24.3 C76.3,24.3 75.9,24.2 75.5,23.9 C75.2,23.7 75,23.3 75,22.9 C75,22.1 75.6,21.6 76.9,21.5 L79.2,21.4 L79.2,22.2 L79.2,22.2 Z M86.8,13.3 L84.5,13.3 L84.5,15.8 L82.8,15.8 L82.8,17.6 L84.5,17.6 L84.5,23.1 C84.4,23.9 84.7,24.7 85.3,25.2 C86,25.7 86.9,25.9 87.8,25.8 C88.2,25.8 88.6,25.8 89,25.7 L89,24 C88.7,24 88.5,24 88.2,24 C87.8,24 87.4,23.9 87.1,23.7 C86.9,23.4 86.7,23 86.8,22.6 L86.8,17.6 L89,17.6 L89,15.8 L86.8,15.8 C86.8,15.8 86.8,13.3 86.8,13.3 Z M96,20.1 L94.2,19.7 C93.8,19.6 93.4,19.5 93.1,19.2 C92.9,19 92.7,18.8 92.7,18.5 C92.7,18.1 92.9,17.8 93.2,17.6 C93.6,17.4 94.1,17.2 94.5,17.3 C95,17.3 95.4,17.4 95.8,17.6 C96.1,17.8 96.3,18.1 96.4,18.5 L98.6,18.5 C98.6,17.6 98.1,16.8 97.4,16.3 C96.5,15.8 95.5,15.5 94.5,15.5 C93.5,15.5 92.4,15.8 91.6,16.4 C90.9,16.9 90.5,17.8 90.5,18.6 C90.5,19.3 90.7,19.9 91.2,20.4 C91.8,20.9 92.6,21.3 93.4,21.4 L95.2,21.8 C96.1,22 96.6,22.4 96.6,23 C96.6,23.4 96.4,23.7 96.1,23.9 C95.7,24.1 95.2,24.3 94.7,24.2 C94.2,24.2 93.7,24.1 93.3,23.9 C93,23.7 92.7,23.4 92.6,23 L90.3,23 C90.3,23.9 90.8,24.7 91.6,25.2 C92.5,25.8 93.6,26 94.6,26 C95.7,26 96.8,25.7 97.7,25.1 C98.5,24.6 98.9,23.7 98.9,22.7 C98.9,22 98.7,21.4 98.2,20.9 C97.4,20.5 96.7,20.2 96,20.1 L96,20.1 Z M104.4,12.5 L99.6,25.9 L102,25.9 L103.2,22.5 L108.2,22.5 L109.3,25.9 L111.9,25.9 L107.1,12.5 L104.4,12.5 L104.4,12.5 Z M103.8,20.6 L105.6,15.1 L105.8,15.1 L107.6,20.6 L103.8,20.6 L103.8,20.6 Z M119,15.6 C118.3,15.6 117.7,15.8 117.1,16.1 C116.6,16.4 116.1,16.9 115.8,17.5 L115.6,17.5 L115.6,15.8 L113.4,15.8 L113.4,29.2 L115.7,29.2 L115.7,24.4 L115.9,24.4 C116.2,24.9 116.6,25.4 117.1,25.7 C117.7,26 118.3,26.2 119,26.1 C120.2,26.1 121.3,25.6 122,24.7 C122.8,23.6 123.2,22.2 123.1,20.9 C123.2,19.5 122.8,18.2 122,17.1 C121.3,16 120.1,15.5 119,15.6 L119,15.6 Z M120.1,23.2 C119.3,24.2 117.7,24.4 116.7,23.5 C116.6,23.4 116.5,23.3 116.4,23.2 C115.9,22.5 115.7,21.7 115.7,20.8 C115.7,19.9 115.9,19.1 116.4,18.4 C117.3,17.4 118.8,17.2 119.8,18.1 C119.9,18.2 120,18.3 120.1,18.4 C120.6,19.1 120.8,20 120.8,20.8 C120.8,21.7 120.6,22.5 120.1,23.2 L120.1,23.2 Z M133.6,17 C132.9,16.1 131.7,15.5 130.5,15.6 C129.8,15.6 129.2,15.8 128.6,16.1 C128.1,16.4 127.6,16.9 127.3,17.5 L127.1,17.5 L127.1,15.8 L125,15.8 L125,29.2 L127.3,29.2 L127.3,24.4 L127.5,24.4 C127.7,24.9 128.1,25.4 128.7,25.7 C129.3,26 129.9,26.2 130.6,26.1 C131.8,26.2 132.9,25.6 133.7,24.7 C134.5,23.6 134.9,22.2 134.8,20.9 C134.8,19.4 134.4,18.1 133.6,17 Z M131.7,23.2 C130.9,24.2 129.3,24.4 128.3,23.5 C128.2,23.4 128.1,23.3 128,23.2 C127.5,22.5 127.3,21.7 127.3,20.8 C127.3,19.9 127.5,19.1 128,18.4 C128.9,17.4 130.4,17.2 131.4,18.1 C131.5,18.2 131.6,18.3 131.7,18.4 C132.2,19.1 132.4,20 132.4,20.8 C132.4,21.7 132.1,22.5 131.7,23.2 L131.7,23.2 Z" id="Shape" fill="#000000"></path>
            </g>
        </g>
    </g>
</svg>