<svg width="50" height="50" viewBox="0 0 50 50" fill="none" xmlns="http://www.w3.org/2000/svg">
<rect width="50" height="50" rx="10" fill="#945C87"/>
<path fill-rule="evenodd" clip-rule="evenodd" d="M9.247 17.7759C9.67924 16.7416 10.7599 16.0006 11.8868 16.0006C20.3927 16.0006 28.8987 16.0006 37.4201 16.0006C38.1611 15.9852 38.9021 16.263 39.4424 16.757C40.0599 17.3128 40.415 18.1464 40.3995 18.98C40.3995 22.2373 40.3995 25.4946 40.3995 28.7673C40.3841 30.2338 39.1028 31.5614 37.6362 31.5923C34.5333 31.6077 31.4304 31.5923 28.3275 31.5923C28.7443 32.6266 29.1611 33.6455 29.5779 34.6798C27.7255 33.6609 25.9039 32.6112 24.036 31.6077C19.9605 31.5769 15.8696 31.6077 11.7787 31.5923C10.3122 31.546 9.03087 30.2338 9.01544 28.7673C9 25.5717 9.01544 22.3762 9 19.1961C9 18.7176 9.04631 18.2236 9.247 17.7759Z" fill="white"/>
<path fill-rule="evenodd" clip-rule="evenodd" d="M21.7206 18.0075C22.1837 17.5135 23.0791 17.6679 23.4341 18.2391C23.6194 18.5324 23.6348 18.9338 23.4804 19.2425C22.8321 20.5393 22.5542 21.9749 22.3072 23.3797C22.0139 25.2168 21.7669 27.0847 21.8595 28.9526C21.8904 29.4312 21.6588 30.0023 21.1494 30.1258C20.6709 30.2339 20.2232 29.9097 19.9144 29.5701C18.5251 28.0727 17.7378 26.143 17.1666 24.2133C16.5954 25.3403 16.0242 26.4826 15.4685 27.6096C15.0825 28.3814 14.6657 29.1687 14.0482 29.7862C13.7858 30.0486 13.3381 30.2802 12.9985 30.0178C12.4891 29.5701 12.3656 28.86 12.1495 28.2579C11.3313 25.4329 10.8682 22.5152 10.3896 19.613C10.2815 19.1345 10.4822 18.5478 10.9608 18.3626C11.3467 18.2237 11.8562 18.1928 12.1803 18.4861C12.4119 18.6868 12.4736 19.011 12.52 19.3043C12.8596 21.5581 13.2455 23.7965 13.8013 26.0041C14.7275 24.2442 15.6537 22.4844 16.58 20.7091C16.7189 20.4466 16.8887 20.1842 17.1357 20.0298C17.4753 19.8137 17.9693 19.8291 18.2626 20.1379C18.4942 20.3849 18.5868 20.7399 18.6486 21.0641C18.9264 22.5152 19.2969 23.9663 19.8372 25.3403C20.0688 23.2562 20.3621 21.1413 21.1185 19.1808C21.2883 18.764 21.4427 18.3472 21.7206 18.0075ZM26.9538 19.1345C27.9573 19.011 29.0379 19.3506 29.7171 20.107C30.2729 20.7399 30.5816 21.5581 30.6897 22.3763C30.8595 23.7811 30.597 25.2631 29.9178 26.5135C29.5319 27.2236 29.0379 27.9183 28.3278 28.3351C27.2935 28.968 25.9041 28.8909 24.9007 28.227C24.0979 27.6713 23.6503 26.7451 23.465 25.8188C23.0945 23.7039 23.7274 21.3574 25.3175 19.8909C25.7806 19.4741 26.3518 19.2117 26.9538 19.1345ZM27.1545 21.2957C26.676 21.4501 26.3672 21.8977 26.1048 22.2991C25.4564 23.3489 25.2712 24.7228 25.796 25.8497C25.935 26.143 26.1511 26.4672 26.5062 26.5289C26.8767 26.5907 27.2163 26.3746 27.4787 26.143C28.0653 25.6336 28.3586 24.8771 28.513 24.1207C28.6674 23.2717 28.5902 22.33 28.0962 21.589C27.8955 21.3111 27.4941 21.1876 27.1545 21.2957ZM34.9658 19.1345C35.9384 19.011 37.0035 19.3197 37.6828 20.0453C38.3003 20.7091 38.6245 21.589 38.7171 22.4844C38.856 23.8428 38.609 25.2631 37.9606 26.4672C37.5747 27.1927 37.0653 27.9029 36.3243 28.3351C35.3363 28.9372 34.0087 28.8754 33.0207 28.2888C32.3569 27.8874 31.9092 27.2082 31.6468 26.4826C30.9521 24.2751 31.5387 21.6816 33.1442 20.0144C33.6691 19.5513 34.302 19.2117 34.9658 19.1345ZM35.1819 21.2957C34.6571 21.4809 34.3483 21.9904 34.0704 22.4381C33.4838 23.4724 33.3295 24.8154 33.8698 25.9114C34.0087 26.2202 34.2711 26.5135 34.6262 26.5289C35.0121 26.5444 35.3517 26.2974 35.6296 26.0349C36.2317 25.4483 36.4941 24.6147 36.5867 23.7965C36.6793 23.0401 36.5559 22.2219 36.1082 21.5736C35.9229 21.3111 35.5216 21.1876 35.1819 21.2957Z" fill="#945C87"/>
</svg>
