<?xml version="1.0" encoding="UTF-8"?>
<svg width="601px" height="122px" viewBox="0 0 601 122" version="1.1" xmlns="http://www.w3.org/2000/svg" xmlns:xlink="http://www.w3.org/1999/xlink">
    <!-- Generator: Sketch 53.2 (72643) - https://sketchapp.com -->
    <title>woocommerce</title>
    <desc>Created with Sketch.</desc>
    <g id="Page-1" stroke="none" stroke-width="1" fill="none" fill-rule="evenodd">
        <g id="woocommerce">
            <path d="M1.7,11.8 C4.5,5.1 11.5,0.3 18.8,0.3 C73.9,0.3 129,0.3 184.2,0.3 C189,0.2 193.8,2 197.3,5.2 C201.3,8.8 203.6,14.2 203.5,19.6 C203.5,40.7 203.5,61.8 203.5,83 C203.4,92.5 195.1,101.1 185.6,101.3 C165.5,101.4 145.4,101.3 125.3,101.3 C128,108 130.7,114.6 133.4,121.3 C121.4,114.7 109.6,107.9 97.5,101.4 C71.1,101.2 44.6,101.4 18.1,101.3 C8.6,101 0.3,92.5 0.2,83 C0.1,62.3 0.2,41.6 0.1,21 C0.1,17.9 0.4,14.7 1.7,11.8" id="Path" fill="#945C87"></path>
            <path d="M82.5,13.3 C85.5,10.1 91.3,11.1 93.6,14.8 C94.8,16.7 94.9,19.3 93.9,21.3 C89.7,29.7 87.9,39 86.3,48.1 C84.4,60 82.8,72.1 83.4,84.2 C83.6,87.3 82.1,91 78.8,91.8 C75.7,92.5 72.8,90.4 70.8,88.2 C61.8,78.5 56.7,66 53,53.5 C49.3,60.8 45.6,68.2 42,75.5 C39.5,80.5 36.8,85.6 32.8,89.6 C31.1,91.3 28.2,92.8 26,91.1 C22.7,88.2 21.9,83.6 20.5,79.7 C15.2,61.4 12.2,42.5 9.1,23.7 C8.4,20.6 9.7,16.8 12.8,15.6 C15.3,14.7 18.6,14.5 20.7,16.4 C22.2,17.7 22.6,19.8 22.9,21.7 C25.1,36.3 27.6,50.8 31.2,65.1 C37.2,53.7 43.2,42.3 49.2,30.8 C50.1,29.1 51.2,27.4 52.8,26.4 C55,25 58.2,25.1 60.1,27.1 C61.6,28.7 62.2,31 62.6,33.1 C64.4,42.5 66.8,51.9 70.3,60.8 C71.8,47.3 73.7,33.6 78.6,20.9 C79.7,18.2 80.7,15.5 82.5,13.3 M116.4,20.6 C122.9,19.8 129.9,22 134.3,26.9 C137.9,31 139.9,36.3 140.6,41.6 C141.7,50.7 140,60.3 135.6,68.4 C133.1,73 129.9,77.5 125.3,80.2 C118.6,84.3 109.6,83.8 103.1,79.5 C97.9,75.9 95,69.9 93.8,63.9 C91.4,50.2 95.5,35 105.8,25.5 C108.8,22.8 112.5,21.1 116.4,20.6 M117.7,34.6 C114.6,35.6 112.6,38.5 110.9,41.1 C106.7,47.9 105.5,56.8 108.9,64.1 C109.8,66 111.2,68.1 113.5,68.5 C115.9,68.9 118.1,67.5 119.8,66 C123.6,62.7 125.5,57.8 126.5,52.9 C127.5,47.4 127,41.3 123.8,36.5 C122.5,34.7 119.9,33.9 117.7,34.6 M168.3,20.6 C174.6,19.8 181.5,21.8 185.9,26.5 C189.9,30.8 192,36.5 192.6,42.3 C193.5,51.1 191.9,60.3 187.7,68.1 C185.2,72.8 181.9,77.4 177.1,80.2 C170.7,84.1 162.1,83.7 155.7,79.9 C151.4,77.3 148.5,72.9 146.8,68.2 C142.3,53.9 146.1,37.1 156.5,26.3 C159.9,23.3 164,21.1 168.3,20.6 M169.7,34.6 C166.3,35.8 164.3,39.1 162.5,42 C158.7,48.7 157.7,57.4 161.2,64.5 C162.1,66.5 163.8,68.4 166.1,68.5 C168.6,68.6 170.8,67 172.6,65.3 C176.5,61.5 178.2,56.1 178.8,50.8 C179.4,45.9 178.6,40.6 175.7,36.4 C174.5,34.7 171.9,33.9 169.7,34.6" id="Shape" fill="#FFFFFF"></path>
            <path d="M237.7,22.5 C243.2,21.3 249,21.4 254.5,22.7 C254.5,27.2 254.5,31.7 254.5,36.2 C250,35.1 244.9,34.1 240.6,36.2 C235.4,38.8 232.5,44.7 232.5,50.3 C232.2,55.9 234.1,62.2 239.1,65.4 C243.7,68.4 249.6,67.8 254.6,66.4 C254.6,70.9 254.6,75.4 254.6,79.9 C247.9,81.8 240.6,81.6 234.1,79.2 C226.3,76.3 220.1,69.5 217.7,61.5 C215.9,55.4 215.7,48.9 217.1,42.7 C219.4,32.8 227.8,24.7 237.7,22.5 M278.3,21.8 C285.1,21 292.5,22.1 298,26.4 C303.3,30.5 305.9,37.2 306.9,43.6 C307.8,50.7 307.6,58.1 305.4,64.9 C303.5,70.7 299.6,76.1 294,78.8 C288.3,81.5 281.6,81.7 275.5,80.3 C269.9,79 264.9,75.3 262.1,70.2 C258.2,63.4 257.5,55.3 257.8,47.6 C258.1,41 259.8,34.1 264.2,29 C267.8,24.9 273,22.4 278.3,21.8 M280.4,34.7 C277.5,35.4 275.8,38.3 275.1,41 C273.7,46.4 273.9,52 274.3,57.5 C274.7,60.5 275,63.7 277.1,66.1 C279.9,69.3 285.6,68.9 288.1,65.6 C289.8,63.5 290.3,60.8 290.6,58.2 C291.2,53.6 291.3,48.9 290.6,44.3 C290.1,41.5 289.3,38.6 287.3,36.5 C285.5,34.7 282.8,34.1 280.4,34.7 M547.1,22.7 C552.9,21.2 559,21.4 564.8,22.6 C564.9,27.1 564.8,31.6 564.9,36.2 C560.5,35.1 555.6,34.1 551.3,36 C546.3,38.3 543.3,43.6 542.9,48.9 C542.3,54.9 543.9,61.7 549.2,65.2 C553.8,68.4 559.8,67.8 564.9,66.3 C564.8,70.8 565,75.4 564.8,79.9 C557.7,81.7 549.9,81.5 543.2,78.6 C535.8,75.4 530,68.6 527.9,60.8 C526.3,54.8 526.1,48.4 527.6,42.3 C529.8,32.9 537.7,25.2 547.1,22.7 M315.8,23.1 C322.2,23.1 328.7,23.1 335.1,23.1 C337.4,33.5 339.6,44 341.6,54.5 C343.4,43.9 345.9,33.5 348.4,23.1 C355,23.1 361.6,23.1 368.2,23.1 C370.8,42 373.3,60.9 375.8,79.7 C370.8,79.7 365.7,79.7 360.7,79.7 C359.3,66.8 358.1,53.8 356.6,40.9 C353.5,53.8 350.3,66.8 347.2,79.7 C343.8,79.7 340.3,79.7 336.9,79.7 C333.6,66.8 330.4,53.8 327,40.8 C325.7,53.7 324.4,66.7 323.1,79.7 C318.3,79.7 313.5,79.7 308.6,79.7 C311,60.9 313.4,42 315.8,23.1 M385,23.1 C391.4,23.1 397.9,23.1 404.3,23.1 C406.6,33.5 408.8,44 410.8,54.5 C412.7,44 415.1,33.5 417.6,23.1 L437.3,23.1 C439.9,42 442.4,60.9 444.9,79.7 C439.9,79.7 434.8,79.7 429.8,79.7 C428.4,66.8 427.1,53.8 425.7,40.9 C422.6,53.8 419.5,66.8 416.3,79.7 C412.9,79.7 409.4,79.7 406,79.7 C402.7,66.7 399.4,53.8 396.1,40.8 C394.8,53.8 393.5,66.7 392.2,79.7 C387.4,79.7 382.6,79.7 377.7,79.7 C380.2,60.9 382.6,42 385,23.1 M449.3,23.3 C459.6,23.1 470,23.3 480.3,23.2 C480.3,27.2 480.3,31.2 480.3,35.3 C475.1,35.4 469.9,35.3 464.7,35.3 C464.7,38.8 464.7,42.2 464.7,45.7 C469.2,45.7 473.7,45.7 478.2,45.7 C478.2,49.6 478.2,53.5 478.2,57.4 C473.7,57.4 469.2,57.4 464.7,57.4 C464.7,60.8 464.7,64.3 464.7,67.8 C469.9,67.8 475.2,67.8 480.4,67.8 C480.4,71.8 480.4,75.8 480.4,79.9 C470.1,79.9 459.7,79.9 449.4,79.9 C449.3,61 449.5,42.2 449.3,23.3 M484.7,23.1 C491.2,23.1 497.6,23 504.1,23.1 C510.2,23.3 516.7,24.8 521.2,29.1 C525.3,32.9 526.7,39.2 525.1,44.5 C523.8,48.8 520.6,52.3 516.6,54.2 C520.6,62.7 524.7,71.2 528.8,79.7 C523.4,79.7 518,79.7 512.7,79.7 C508.5,71 504.4,62.3 500.1,53.7 C500,62.4 500.1,71.1 500.1,79.7 C495,79.7 489.9,79.7 484.8,79.7 C484.7,60.9 484.7,42 484.7,23.1 M500,34 C500,38.5 500,43 500,47.5 C502.8,47.3 505.8,47.2 508.1,45.5 C510.8,43.5 510.5,39.4 508.8,36.8 C506.7,34.3 503,34.3 500,34 M569.2,23.2 C579.5,23.2 589.8,23.2 600.1,23.2 C600.1,27.2 600.1,31.3 600.1,35.3 C594.9,35.3 589.6,35.3 584.4,35.3 C584.4,38.8 584.4,42.2 584.4,45.7 C588.9,45.7 593.4,45.7 597.9,45.7 C597.9,49.6 597.9,53.5 597.9,57.4 L584.4,57.4 C584.4,60.9 584.4,64.3 584.4,67.8 C589.7,67.8 594.9,67.8 600.2,67.8 C600.2,71.8 600.2,75.8 600.2,79.9 C589.9,79.9 579.5,79.9 569.2,79.9 C569.1,60.9 569.2,42 569.2,23.2" id="Shape" fill="#000000" fill-rule="nonzero"></path>
        </g>
    </g>
</svg>