<svg width="301px" height="101px" viewBox="0 0 301 101" version="1.1" xmlns="http://www.w3.org/2000/svg" xmlns:xlink="http://www.w3.org/1999/xlink">
    <path d="M130.1612,75.9254457 C131.128088,75.1865427 131.824115,74.1492196 132.141315,72.9743866 L135.734574,59.9774945 L141.346173,39.6641165 L154.587712,39.6641165 L148.37214,59.9545588 L142.538829,78.9453118 C140.688891,85.1366862 134.971483,89.3616481 128.509831,89.3126733 L115.444131,89.3126733 L106.45334,59.9545588 L100.268348,39.6641165 L113.502243,39.6641165 L119.113842,59.9545588 L123.86153,77.0798755 L126.743782,77.0798755 C127.982191,77.1021303 129.189977,76.694131 130.1612,75.9254457 Z" id="Path" fill="#6F6F84"></path>
    <path d="M159.694727,49.3735595 L159.694727,39.6641165 L171.498963,39.6641165 L171.498963,49.3735595 L159.694727,49.3735595 Z M159.985245,89.3122446 L159.985245,53.333789 L171.498963,53.333789 L171.498963,89.3122446 L159.985245,89.3122446 Z" id="Shape" fill="#6F6F84"></path>
    <path d="M192.867382,54.2741524 L192.867382,56.0707816 C193.56769,55.5245765 194.314707,55.0410617 195.09979,54.625833 C195.961317,54.1777088 196.865377,53.816597 197.798556,53.5478555 C198.82508,53.2538041 199.869564,53.0265202 200.925456,52.8674299 C202.117683,52.6927046 203.321415,52.6083667 204.526359,52.6151373 L207.400966,52.6151373 C209.758366,52.5754194 212.099266,53.0149884 214.281674,53.9071813 C216.197418,54.7069767 217.933822,55.8819084 219.388688,57.3628256 C220.777702,58.8003883 221.866648,60.5000784 222.592039,62.3628064 C223.331742,64.2556161 223.707834,66.2709509 223.7007,68.3031507 L223.7007,89.3122446 L212.225107,89.3122446 L212.225107,68.2266984 C212.224929,67.3551255 212.090848,66.4887533 211.827555,65.6579009 C211.575284,64.8644813 211.143636,64.1398365 210.566092,63.540172 C209.937897,62.8994465 209.175469,62.4059573 208.333684,62.0952234 C207.298786,61.7156847 206.201746,61.5341414 205.099752,61.5600572 L202.722085,61.5600572 C200.80001,61.4698376 198.879825,61.7742572 197.079905,62.4545492 C195.971701,62.9078336 194.975222,63.5965 194.159426,64.4728901 C193.610446,65.0722458 193.228217,65.8050719 193.050868,66.5982642 C192.966177,67.0021319 192.904913,67.4105594 192.867382,67.8215011 L192.867382,89.3351803 L181.353665,89.3351803 L181.353665,53.333789 L191.949955,53.333789 C192.460325,53.3462407 192.867534,53.7636307 192.867382,54.2741524 Z" id="Path" fill="#6F6F84"></path>
    <path d="M266.873215,39.6641165 L278.341061,39.6641165 L278.341061,89.3122446 L268.990944,89.3122446 L268.272293,85.2067557 C266.62536,86.6683093 264.740333,87.8370778 262.69892,88.6624 C260.210062,89.6289564 257.554699,90.0940346 254.885494,90.0308963 L250.137806,90.0308963 C247.669876,90.04716 245.216095,89.657138 242.874836,88.8764664 C240.728156,88.1725613 238.737228,87.0615875 237.010944,85.6043077 C235.362698,84.2053357 234.026541,82.4758852 233.088941,80.5278745 C232.11093,78.4866866 231.618973,76.2467158 231.651638,73.9835571 L231.651638,68.94535 C231.637035,66.6492733 232.160717,64.3817264 233.180684,62.3245803 C234.174066,60.3323933 235.572387,58.5695182 237.286173,57.1487591 C239.101245,55.665365 241.174778,54.5301055 243.402357,53.8001481 C245.825545,52.9958354 248.364509,52.5954901 250.917619,52.6151373 L254.877849,52.6151373 C257.169156,52.5818641 259.44785,52.9599201 261.605652,53.731341 C263.50817,54.425062 265.292565,55.4075106 266.896151,56.6441739 L266.873215,39.6641165 Z M266.873215,74.7022087 L266.873215,67.5080467 C266.731543,66.92131 266.471371,66.369746 266.108692,65.8872578 C265.540788,65.0825363 264.818271,64.399004 263.983318,63.8765621 C262.838959,63.1431648 261.591885,62.5840432 260.283027,62.217547 C258.513014,61.731736 256.682415,61.5025893 254.847268,61.5371215 L253.1118,61.5371215 C251.79008,61.5274613 250.472397,61.6841449 249.189797,62.0034806 C248.053469,62.2784428 246.979501,62.7661386 246.024671,63.440784 C245.132238,64.0975063 244.415389,64.9640274 243.937523,65.9637101 C243.402988,67.1224206 243.141436,68.3883285 243.173,69.6640017 L243.173,72.9055795 C243.154507,74.0894854 243.37555,75.2649108 243.822845,76.3612238 C244.247456,77.3504294 244.899719,78.225352 245.726507,78.9147308 C246.639864,79.6479278 247.693578,80.1864931 248.822826,80.4972936 C250.194497,80.8746433 251.612895,81.0548391 253.035348,81.0324597 L254.831977,81.0324597 C256.695811,81.0719266 258.554011,80.8138434 260.336543,80.2679367 C261.647956,79.8690791 262.886923,79.2625018 264.006254,78.4713075 C264.820091,77.9049396 265.515988,77.1856727 266.055176,76.3535786 C266.398718,75.8411598 266.673733,75.2859905 266.873215,74.7022087 L266.873215,74.7022087 Z" id="Shape" fill="#6F6F84"></path>
    <path d="M288.203409,49.3735595 L288.203409,39.6641165 L300,39.6641165 L300,49.3735595 L288.203409,49.3735595 Z M288.493928,89.3122446 L288.493928,53.333789 L300,53.333789 L300,89.3122446 L288.493928,89.3122446 Z" id="Shape" fill="#6F6F84"></path>
    <path d="M25.1080857,20.1221596 L5.88033053,20.1221596 C3.95107273,20.0919482 2.13327253,21.0244936 1.03306415,22.6095916 C-0.0671442322,24.1946896 -0.305040593,26.2238381 0.398700132,28.0204302 L29.4505767,99.9238248 L40.9184227,50.2298253 C41.2487613,48.8020442 41.1313065,47.3071648 40.5820326,45.9484962 L32.0270195,24.732981 C30.8731522,21.9319659 28.1374266,20.1091564 25.1080857,20.1221596 Z" id="Path" fill="#001A9E"></path>
    <path d="M94.1750996,0 L72.8601965,0 C69.782621,-0.016308642 67.0130408,1.86554663 65.8953914,4.73305757 L29.4888029,99.9239888 L58.4718724,99.9239888 C61.548199,99.9441965 64.3183442,98.0649981 65.4366775,95.1990722 L99.1521448,7.04191723 C99.7533783,5.42533677 99.5175515,3.61614778 98.5220082,2.20770627 C97.5264648,0.799264758 95.8996473,-0.0267157897 94.1750996,0 Z" id="Path" fill="#00A3FF"></path>
</svg>