<?xml version="1.0" encoding="UTF-8"?>
<svg width="120px" height="80px" viewBox="0 0 120 80" version="1.1" xmlns="http://www.w3.org/2000/svg" xmlns:xlink="http://www.w3.org/1999/xlink">
    <!-- Generator: Sketch 48.2 (47327) - http://www.bohemiancoding.com/sketch -->
    <title>Group 2</title>
    <desc>Created with Sketch.</desc>
    <defs></defs>
    <g id="Page-1" stroke="none" stroke-width="1" fill="none" fill-rule="evenodd">
        <g id="Group-2" fill-rule="nonzero">
            <path d="M120,70 C120,75.5 115.5,80 110,80 L10,80 C4.5,80 0,75.5 0,70 L0,10 C0,4.5 4.5,0 10,0 L110,0 C115.5,0 120,4.5 120,10 L120,70 Z" id="Shape" fill="#F5F5F5"></path>
            <path d="M110,0 L10,0 C4.5,0 0,4.5 0,10 L0,70 C0,75.5 4.5,80 10,80 L110,80 C115.5,80 120,75.5 120,70 L120,10 C120,4.5 115.5,0 110,0 Z M110,2 C114.412,2 118,5.588 118,10 L118,70 C118,74.412 114.412,78 110,78 L10,78 C5.588,78 2,74.412 2,70 L2,10 C2,5.588 5.588,2 10,2 L110,2 Z" id="Shape" fill="#FFFFFF"></path>
            <g id="Group" transform="translate(17.000000, 28.000000)" fill="#0280FF">
                <path d="M42.6322594,7.47498502 C43.626557,4.31883059 43.5746111,4.8696499 43.846994,2.73137202 C44.0521137,1.12582085 41.1811043,1.15932567 41.1078473,3.06709036 C41.0399181,4.84083575 40.8807505,5.37959332 40.104892,8.58734518 C38.7170044,6.06175154 35.0987734,5.43588142 32.9796475,7.94271237 C33.7008962,4.95944283 33.8820409,2.68647556 33.8094498,0.922781615 C33.7481803,-0.580244796 30.7386486,-0.172156038 30.9437683,1.60292954 C31.1588775,3.47651931 31.24612,6.95834063 30.4482844,10.4354713 C30.4482844,10.4354713 30.4482844,10.4361414 30.4482844,10.4381517 C30.3150898,9.5737272 30.0606881,8.64430338 29.6597724,7.65390078 C28.9944655,5.821857 27.0538203,6.64674577 27.70048,8.57997412 C29.6584405,14.3340926 22.6837059,17.330094 21.4962761,11.9163845 C21.3810628,11.3930392 21.3797309,10.9186108 21.4549858,10.4951099 C21.524247,10.1433092 21.598836,9.9550121 21.7713229,9.56300566 C21.7833105,9.53486161 21.7986278,9.50872785 21.8139452,9.48460437 C22.5158807,8.21611173 23.8644759,7.75374516 23.7572543,8.29451302 C23.7505945,8.32935804 23.739939,8.36420305 23.7292834,8.39837797 C23.7219577,8.42317154 23.7133,8.44729502 23.7039764,8.47141849 C23.6946528,8.49487187 23.6839972,8.51899534 23.6726757,8.54244872 C23.6620201,8.56389181 23.6500326,8.58600499 23.6373791,8.60744808 C23.6220618,8.63291174 23.6034145,8.65837541 23.5841013,8.68383908 C23.5694499,8.70327187 23.5541325,8.72404486 23.5368172,8.74347766 C23.5135082,8.77028152 23.4848713,8.79708538 23.4562345,8.82388924 C23.4362553,8.84265194 23.4176081,8.86074455 23.394965,8.87950725 C23.3603344,8.9076513 23.31971,8.93579535 23.2790857,8.96393941 C23.2544447,8.98069182 23.2318016,8.99811433 23.2038307,9.01486674 C23.1552147,9.04502108 23.097941,9.07517542 23.0400014,9.10532976 C23.0113646,9.12007189 22.9860576,9.13481401 22.9560888,9.15022623 C22.8868276,9.18373105 22.8069109,9.21723588 22.7249962,9.2507407 C22.6963594,9.26280244 22.6717184,9.27486417 22.6417496,9.28625581 C22.5252043,9.33115228 22.3966715,9.37671884 22.2534874,9.4229555 C22.0543614,9.71310727 21.9597933,10.0615574 21.9145071,10.3396475 C22.1795644,10.2444938 22.4219785,10.1439793 22.6524051,10.0407845 C22.6657246,10.0347536 22.681042,10.0293928 22.6936955,10.024032 C22.6943614,10.0226918 22.6950274,10.0220218 22.6963594,10.0213517 C24.7935082,9.07115484 25.4155269,7.8401876 24.5364426,7.05215414 C23.6859952,6.28891425 20.2961929,7.4595728 18.9735706,10.1118147 C18.8630191,10.2974314 18.7085134,10.746396 18.7085134,10.746396 C18.7085134,10.746396 18.5287007,10.5245941 18.2449962,10.2089787 C17.6196476,9.55831499 16.8924052,9.0785259 16.1258703,8.82790982 C15.1768589,8.51765515 14.3470566,8.38095547 15.9440597,7.34699659 C22.508555,3.0215238 12.7673688,-3.0187259 4.33615134,2.03983245 C-2.90563842,6.38339785 0.813154486,10.1774841 2.1344448,10.7236128 C3.45706706,11.2704115 3.77340421,10.3664513 2.82572471,9.92686805 C1.87671327,9.48728476 0.167826706,7.58890142 3.72212429,5.0405245 C7.27575591,2.49281767 11.9961721,2.96657589 12.8153188,4.86495922 C13.9214999,7.43075865 9.26634903,8.41110981 11.5652876,9.41089376 C12.4050795,9.77475615 13.0763802,10.2123292 13.6024988,10.6981491 C13.6371294,10.7262932 13.672426,10.7584578 13.7097205,10.7973234 C13.7123844,10.8006739 13.7157142,10.8040243 13.7183781,10.8073748 C13.7270358,10.8160861 13.7350275,10.822787 13.7430191,10.8308282 L13.7416872,10.8308282 C14.0526966,11.1611858 14.263144,11.3548437 14.5188776,11.8346327 C14.5228735,11.8339626 14.5275353,11.8326224 14.5315311,11.8319524 C16.0186487,14.336773 14.4675977,16.4127319 13.4306778,17.7288014 C11.2496164,20.4976401 7.01536049,20.6691848 6.23417423,18.8753365 C5.13598485,16.3544335 7.21115653,14.4768232 9.75384122,13.2753402 C10.1441014,13.0910636 10.7055166,12.8947254 11.1943407,12.7372527 C12.1779827,12.4068951 13.1869317,12.1381864 14.1452668,11.9183948 C14.1212918,11.857416 14.090657,11.7910765 14.0506986,11.7180359 C13.9314895,11.4995845 13.7316976,11.2268552 13.4047049,10.898508 C12.6095332,11.0579909 10.891323,11.4701002 10.891323,11.4701002 C10.891323,11.4701002 9.60466328,8.66909695 7.24378921,7.32555351 C5.65744166,6.42561393 4.50131263,8.59069566 5.56154156,9.08656706 C8.07558941,10.2639266 9.15579752,11.8594263 9.15579752,11.8594263 C9.15579752,11.8594263 9.84907535,11.7555614 10.1247882,11.7053041 L9.20574549,11.9967961 L9.19841979,11.9967961 C4.31484021,13.6170894 0.28437197,16.3457223 2.19371639,21.6622677 C4.147681,27.1007708 13.0703865,27.5926216 17.4338412,22.1862832 C19.0468276,20.1873854 19.6874936,18.9008001 20.0677642,17.2731358 C20.0651003,17.2691152 20.0631024,17.2657647 20.0604385,17.2624142 C19.9059327,17.0446329 19.7734041,16.8436039 19.6508651,16.6486059 C19.6155685,16.5929879 19.5822699,16.53871 19.5496372,16.4851023 C19.4404177,16.3048464 19.3411877,16.1312914 19.2566091,15.9664476 C19.2492834,15.9517055 19.2399598,15.9356232 19.2326341,15.920211 C19.1480555,15.7506766 19.0794603,15.5905235 19.0175248,15.4323808 C18.9995436,15.3861441 18.9822283,15.3399074 18.9662449,15.2936708 C18.9129671,15.1449094 18.8676809,14.9994984 18.8323844,14.8560978 C18.7731128,14.6115126 18.7358183,14.371618 18.717837,14.1270328 C19.2699286,15.9416541 20.1723219,16.7638625 20.1723219,16.7638625 C22.7036851,19.4777532 27.5419785,18.8123474 29.5938411,15.4330508 C29.5938411,15.4417621 29.5931751,15.4491332 29.5931751,15.4571743 C29.6344655,15.3901647 29.6690961,15.3171242 29.7077225,15.2474341 C29.7476809,15.177074 29.7876392,15.107384 29.8249337,15.0336733 C29.9368172,14.8145518 30.0413749,14.5887293 30.1299493,14.3495048 C30.088659,14.1169814 30.0700118,13.9005402 30.0613541,13.6881196 C30.0593562,13.6385325 30.0573583,13.5889453 30.0566923,13.5393582 C30.0546944,13.3336386 30.0620201,13.1319395 30.0839972,12.9322508 C30.0993146,12.7928707 30.1186278,12.6541607 30.1432688,12.5134405 C30.1212917,12.9885389 30.1952147,13.4589466 30.2724675,13.9172926 C30.482915,14.9170766 30.9597516,15.8183563 31.8042053,16.4127319 C34.0372126,17.9841082 37.3724051,17.2784966 39.2571085,14.9009942 C39.2597724,14.8976438 39.2631022,14.8949634 39.2657661,14.8909428 C39.2544446,14.8460463 39.2484508,14.8085209 39.2377953,14.7649647 C39.2098244,14.6443473 39.1818535,14.5244 39.1612084,14.4165145 C39.1525507,14.3702778 39.1478889,14.3320823 39.1412292,14.287856 C39.1252458,14.1920322 39.1079306,14.0948682 39.097941,14.0084257 C39.0932791,13.9682199 39.0919472,13.934045 39.0879514,13.8958495 C39.0799597,13.8140977 39.071968,13.7316759 39.0686381,13.6579653 C39.0673062,13.6251305 39.0686381,13.5969865 39.0679722,13.565492 C39.0666402,13.4931215 39.0653083,13.4207511 39.0679722,13.3550817 C39.0693041,13.3282778 39.071968,13.3054945 39.0739659,13.2800308 C39.0779618,13.2143614 39.0826236,13.1500321 39.0899493,13.0903935 C39.0926132,13.0676103 39.096609,13.0468373 39.0999389,13.0247241 C39.1085965,12.9657556 39.1172542,12.9074572 39.1279097,12.8525093 C39.1312396,12.8344167 39.1359014,12.8169942 39.1398973,12.7989016 C39.1678681,12.6668926 39.1998348,12.5415845 39.2311355,12.4162765 C39.1758598,13.4797196 39.3316975,14.0137865 39.4828733,14.6021312 C39.7179618,15.336557 40.1235393,15.9945917 40.7428941,16.4958239 C43.624559,18.823739 48.0759222,17.1820027 49.6629357,12.9067871 C51.8346735,7.05014385 46.1319472,3.85512382 42.6322594,7.47498502 Z M35.4863697,14.1203318 C33.9932584,15.3553197 31.9054332,14.1886817 32.305017,10.8375292 C32.3323218,10.6090263 32.3696163,10.3718121 32.4215622,10.1245465 C32.4208963,10.1238764 32.4208963,10.1232063 32.4208963,10.1232063 C32.3749441,10.07965 32.3343198,10.0159909 32.3016871,9.94026998 C32.2950274,9.92418766 32.2916975,9.90207448 32.2857037,9.88532207 C32.2630607,9.822333 32.2417495,9.75599345 32.229096,9.68094264 C32.2231023,9.64408733 32.2244342,9.60321145 32.2211044,9.56434585 C32.2157766,9.50336707 32.2091169,9.44305839 32.2111148,9.37872913 C32.2124467,9.32981208 32.2237683,9.28089504 32.230428,9.2313079 C32.2390856,9.16496835 32.2437474,9.0979587 32.2623947,9.03362944 C32.2437474,9.42429569 32.3729462,9.54625325 32.5128005,9.72583911 C32.8337995,10.0387742 33.3832272,10.0635677 33.7028942,9.63336579 C35.9345695,6.41489239 38.7895955,11.391699 35.4863697,14.1203318 Z M44.8692625,14.0915177 C43.3108858,15.2145994 41.3675767,14.2717736 41.5846839,11.357524 C41.6006673,11.1471137 41.6279722,10.926652 41.6665986,10.6981491 C41.6679305,10.6894378 41.6679305,10.6820668 41.6699285,10.6733555 C41.7092209,10.4448526 41.7618327,10.204288 41.8257661,9.95702239 C41.829096,9.94429056 41.8304279,9.93423911 41.8337578,9.92150728 C41.779148,9.79016837 41.7431855,9.669551 41.7165466,9.55429441 C41.7078889,9.516769 41.7045591,9.48259408 41.6992313,9.44640887 C41.6865778,9.37135807 41.6772542,9.29764745 41.6752562,9.22862752 C41.6739243,9.18976192 41.6752562,9.15223652 41.6765882,9.11471111 C41.6792521,9.05306224 41.6845799,8.99275355 41.6939035,8.93512526 C41.6998972,8.89894005 41.705225,8.86342493 41.7132167,8.82857992 C41.731198,8.74883843 41.7525091,8.67110724 41.779814,8.59605644 C41.7764841,8.63425194 41.779814,8.65703522 41.779148,8.69054004 C41.7778161,8.69255033 41.7758182,8.69523072 41.7744862,8.6979111 C41.7744862,8.718014 41.7731543,8.7367767 41.7731543,8.7548693 C41.7744862,8.75017863 41.7771501,8.74481786 41.779148,8.74012718 C41.778482,9.04770147 41.8703863,9.15893748 41.9995851,9.35594585 C42.320584,9.71578766 42.910636,9.78011692 43.2855788,9.33986353 C45.9201678,6.03829816 48.6200221,11.3883485 44.8692625,14.0915177 Z" id="Shape"></path>
                <path d="M10.9240142,13.3741366 C10.455216,13.5777704 10.2142857,13.7862526 10.2142857,13.7862526 C10.2411364,13.8840291 10.2723412,13.9721088 10.3071745,14.05534 C10.8739414,15.4355243 12.3790302,14.8965414 12.0154576,13.4808019 C11.9929611,13.3919142 11.855805,13 11.855805,13 C11.855805,13 11.3935381,13.1705029 10.9240142,13.3741366 Z" id="Shape"></path>
                <path d="M52.4693068,13.9285714 C52.2015141,13.9285714 52,14.1249891 52,14.3931418 C52,14.6607252 52.2008446,14.8571429 52.4693068,14.8571429 C52.7277269,14.8571429 52.9285714,14.6607252 52.9285714,14.3931418 C52.9285714,14.1249891 52.7277269,13.9285714 52.4693068,13.9285714 Z" id="Shape"></path>
                <path d="M54.9982223,9.25922678 C54.9982223,8.63894978 55.52358,8.28086555 56.3256385,8.28086555 C56.8248218,8.28086555 57.4835444,8.46057824 58.0450477,8.90181312 L58.3479229,8.11255255 C57.83129,7.70216388 57.0915515,7.42857143 56.3705089,7.42857143 C55.0779919,7.42857143 54.2142365,8.17491553 54.2142365,9.33298945 C54.2142365,11.973693 57.7247228,10.9430274 57.715998,12.8789622 C57.715998,13.5837309 57.1544947,14.0155779 56.2545937,14.0155779 C55.5510008,14.0155779 54.757667,13.636706 54.1780909,12.9735125 L53.8571429,13.7312563 C54.4448206,14.3937792 55.3366199,14.8571429 56.2458689,14.8571429 C57.58201,14.8571429 58.4999838,14.0678823 58.4999838,12.8367163 C58.5087086,10.1644959 54.9982223,11.1535863 54.9982223,9.25922678 Z" id="Shape"></path>
                <polygon id="Shape" points="60.3571429 8.24562636 62.3284523 8.24562636 62.3284523 14.8571429 63.0202248 14.8571429 63.0202248 8.24562636 65 8.24562636 65 7.42857143 60.3571429 7.42857143"></polygon>
                <path d="M69.1832227,7.42857143 C67.3648848,7.42857143 65.9285714,9.04881415 65.9285714,11.1317917 C65.9285714,13.2047099 67.3648848,14.8571429 69.1832227,14.8571429 C70.9922581,14.8571429 72.4285714,13.2053805 72.4285714,11.1317917 C72.4285714,9.0588736 70.9922581,7.42857143 69.1832227,7.42857143 Z M69.1832227,14.0470215 C67.800244,14.0470215 66.6467281,12.7527051 66.6467281,11.1317917 C66.6467281,9.51154903 67.7996238,8.2279627 69.1832227,8.2279627 C70.5662014,8.2279627 71.7011122,9.51154903 71.7011122,11.1317917 C71.7011122,12.7527051 70.5662014,14.0470215 69.1832227,14.0470215 Z" id="Shape"></path>
                <path d="M79.78687,9.92302389 C79.78687,8.34167089 78.7618805,7.42857143 76.9851846,7.42857143 L74.2857143,7.42857143 L74.2857143,14.8571429 L75.0977559,14.8571429 L75.0977559,12.5121682 L76.9851846,12.5121682 C77.1477349,12.5121682 77.3102852,12.5013462 77.4621881,12.4905243 L78.9336585,14.8571429 L79.8571429,14.8571429 L78.1925996,12.3315774 C79.218299,11.9812177 79.78687,11.1540172 79.78687,9.92302389 Z M76.9851846,11.6951132 L75.0977559,11.6951132 L75.0977559,8.24562636 L76.9851846,8.24562636 C78.2742297,8.24562636 79.005351,8.81851173 79.005351,9.94399136 C79.005351,11.100584 78.2742297,11.6951132 76.9851846,11.6951132 Z" id="Shape"></path>
                <polygon id="Shape" points="82.4755626 14.0509098 82.4755626 11.5037005 85.8340977 11.5037005 85.8340977 10.6866456 82.4755626 10.6866456 82.4755626 8.24562636 86.2333688 8.24562636 86.2333688 7.42857143 81.7142857 7.42857143 81.7142857 14.8571429 86.3571429 14.8571429 86.3571429 14.0509098"></polygon>
            </g>
        </g>
    </g>
</svg>