<?xml version="1.0" encoding="UTF-8"?>
<svg width="120px" height="80px" viewBox="0 0 120 80" version="1.1" xmlns="http://www.w3.org/2000/svg" xmlns:xlink="http://www.w3.org/1999/xlink">
    <!-- Generator: Sketch 48.2 (47327) - http://www.bohemiancoding.com/sketch -->
    <title>Group 4</title>
    <desc>Created with Sketch.</desc>
    <defs></defs>
    <g id="Page-1" stroke="none" stroke-width="1" fill="none" fill-rule="evenodd">
        <g id="Group-4">
            <path d="M120,70 C120,75.5 115.5,80 110,80 L10,80 C4.5,80 0,75.5 0,70 L0,10 C0,4.5 4.5,0 10,0 L110,0 C115.5,0 120,4.5 120,10 L120,70 Z" id="Shape" fill="#F5F5F5" fill-rule="nonzero"></path>
            <g id="Group-3" transform="translate(12.000000, 26.000000)">
                <polygon id="Path" fill="#E42C79" points="14.1624486 0 24.2311936 4.25099395 28.3696471 14.4987468 24.2318066 24.7483794 14.2084246 29 4.13784044 24.7483794 0 14.4987468 4.13784044 4.25099395"></polygon>
                <polygon id="Path" fill="#F5F5F5" points="14.1651062 1.72225909 23.0379211 5.46833491 26.6848235 14.4988956 23.0384613 23.5311129 14.2056213 27.2777409 5.33118582 23.5311129 1.68482354 14.4988956 5.33118582 5.46833491"></polygon>
                <polygon id="Path" fill="#E42C79" points="14.7245818 19.39328 17.7387687 11.7610415 17.7387687 19.39328 19.3571241 19.39328 19.3571241 9.60609334 16.884228 9.60609334 14.18513 16.7902982 11.530782 9.60609334 9.01129696 9.60609334 9.01129696 19.3939067 10.6762414 19.3939067 10.6762414 11.7604149 13.5549523 19.3926534 14.7245818 19.3926534"></polygon>
                <g id="Group-2" transform="translate(34.000000, 9.000000)">
                    <path d="M13.8617647,2.25882353 C13.5980062,2.25976111 13.3446868,2.1558416 13.1575744,1.96994278 C12.970462,1.78404397 12.8648963,1.53140606 12.8641176,1.26764706 L12.8641176,1.26529412 C12.8641176,0.718235294 13.3111765,0.274705882 13.8617647,0.274705882 C14.1255233,0.273611727 14.3789051,0.377381411 14.5661279,0.563170019 C14.7533507,0.748958626 14.8590658,1.0015349 14.86,1.26529412 L14.86,1.26764706 C14.86,1.81470588 14.4129412,2.25823529 13.8617647,2.25823529 L13.8617647,2.25882353 Z M12.8647059,9.79411765 L12.8647059,2.83117647 L14.8823529,2.83117647 L14.8823529,9.79411765 L12.8641176,9.79411765 L12.8647059,9.79411765 Z M9.58,9.80411765 L9.58,6.10411765 C9.58,5.56235294 9.58,5.02470588 9.35235294,4.52529412 C9.17,4.16470588 8.76,3.98411765 8.39470588,4.02941176 C7.80294118,4.07411765 7.25588235,4.39 6.93705882,4.84117647 L6.93705882,9.79470588 L4.97705882,9.80411765 L4.97705882,6.10411765 C4.97705882,5.55705882 4.97705882,4.93470588 4.79470588,4.48058824 C4.61294118,4.16470588 4.24764706,3.93882353 3.83823529,3.98411765 C3.29117647,4.02941176 2.79058824,4.29941176 2.42529412,4.70588235 L2.42529412,9.80411765 L0.466470588,9.80411765 L0.466470588,2.49411765 L2.19764706,2.49411765 L2.33470588,3.39647059 C2.83588235,2.72 3.61,2.35882353 4.47588235,2.35882353 C5.34235294,2.35882353 6.16235294,2.81 6.57235294,3.57764706 C7.11941176,2.76529412 8.03117647,2.31411765 9.03294118,2.35882353 C9.80764706,2.35882353 10.4917647,2.72 10.9470588,3.30647059 C11.5394118,4.02882353 11.5852941,4.97588235 11.5852941,6.05941176 L11.5852941,9.80352941 L9.58,9.80352941 L9.58,9.80411765 Z" id="Shape" fill="#E42C79" fill-rule="nonzero"></path>
                    <path d="M6.57176471,3.57823529 C6.16235294,2.81117647 5.34235294,2.35941176 4.47588235,2.35941176 C3.61,2.35941176 2.83588235,2.72117647 2.33470588,3.39764706 L2.19764706,2.49529412 L0.466470588,2.49529412 L0.466470588,9.80411765 L2.42529412,9.80411765 L2.42529412,4.70588235 C2.79,4.29941176 3.29117647,4.02941176 3.83764706,3.98411765 C4.24764706,3.93882353 4.61294118,4.16470588 4.79470588,4.48058824 C4.97705882,4.93470588 4.97705882,5.55705882 4.97705882,6.10411765 L4.97705882,9.80411765 L6.93764706,9.79529412 L6.93764706,4.84117647 C7.25647059,4.38941176 7.80235294,4.07352941 8.39529412,4.02941176 C8.76,3.98352941 9.17,4.16470588 9.35235294,4.52470588 C9.58058824,5.02470588 9.58058824,5.56176471 9.58058824,6.10411765 L9.58058824,9.80352941 L11.5847059,9.80352941 L11.5847059,6.05941176 C11.5847059,4.97588235 11.5394118,4.02882353 10.9470588,3.30647059 C10.4917647,2.72058824 9.80823529,2.35941176 9.03294118,2.35941176 C8.98709727,2.35703983 8.94119934,2.35586296 8.89529412,2.35588235 C7.94823529,2.35588235 7.09411765,2.80235294 6.57176471,3.57764706 L6.57176471,3.57823529 Z" id="Shape"></path>
                    <path d="M18.0335294,2.70588235 L18.1688235,3.66882353 C18.6694118,2.96882353 19.5335294,2.53117647 20.4429412,2.53117647 C21.2164706,2.53117647 21.9441176,2.88117647 22.3988235,3.45058824 C22.99,4.14941176 23.0352941,5.06823529 23.0352941,6.07529412 L23.0352941,9.79470588 L21.0352941,9.79470588 L21.0352941,6.20647059 C21.0805882,5.68117647 20.9894118,5.15647059 20.8076471,4.67529412 C20.6264706,4.32529412 20.2164706,4.14941176 19.8529412,4.19352941 C19.2164706,4.19352941 18.5794118,4.54411765 18.2611765,5.11235294 L18.2611765,9.79470588 L16.2588235,9.79470588 L16.2588235,2.70647059 L18.0329412,2.70647059 L18.0335294,2.70588235 Z" id="Shape" fill="#E42C79" fill-rule="nonzero"></path>
                    <path d="M18.1694118,3.66882353 L18.0329412,2.70647059 L16.26,2.70647059 L16.26,9.79470588 L18.26,9.79470588 L18.26,5.11235294 C18.5794118,4.54411765 19.2158824,4.19411765 19.8523529,4.19411765 C20.2158824,4.14941176 20.6252941,4.32529412 20.8076471,4.67529412 C20.9894118,5.15647059 21.08,5.68117647 21.0347059,6.20705882 L21.0347059,9.79529412 L23.0347059,9.79529412 L23.0347059,6.07529412 C23.0347059,5.06941176 22.9894118,4.14941176 22.3988235,3.45058824 C21.9441176,2.88117647 21.2164706,2.53058824 20.4429412,2.53058824 C19.5335294,2.53058824 18.6694118,2.96882353 18.1694118,3.66882353 Z" id="Shape"></path>
                    <path d="M29.4305882,5.32235294 C29.4305882,4.59176471 28.7894118,3.99058824 28.01,3.99058824 C27.1847059,3.99058824 26.4517647,4.54941176 26.3141176,5.32235294 L29.4305882,5.32235294 Z M26.1764706,6.61058824 C26.3141176,7.55529412 27.0017647,8.28470588 28.0558824,8.28470588 C28.8352941,8.32823529 29.6141176,7.89823529 29.9805882,7.25411765 L31.31,8.07 C30.6223529,9.18647059 29.2935294,9.87352941 27.9182353,9.78764706 C25.6723529,9.78764706 24.1605882,8.32823529 24.1605882,6.22411765 C24.0682353,4.24823529 25.7182353,2.61705882 27.7805882,2.53117647 L27.9182353,2.53117647 C29.9805882,2.53117647 31.4929412,3.90529412 31.4929412,5.75176471 C31.4929412,6.05235294 31.4470588,6.35235294 31.4011765,6.65352941 L26.1764706,6.61 L26.1764706,6.61058824 Z" id="Shape" fill="#E42C79" fill-rule="nonzero"></path>
                    <path d="M27.7805882,2.53058824 L27.9188235,2.53058824 C29.9805882,2.53058824 31.4929412,3.90529412 31.4929412,5.75176471 C31.4929412,6.05176471 31.4470588,6.35294118 31.4011765,6.65352941 L26.1770588,6.61058824 C26.3147059,7.55529412 27.0011765,8.28470588 28.0558824,8.28470588 C28.8352941,8.32823529 29.6147059,7.89823529 29.9805882,7.25470588 L31.31,8.06941176 C30.6217647,9.18647059 29.2929412,9.87411765 27.9188235,9.78705882 C25.6723529,9.78705882 24.16,8.32823529 24.16,6.22411765 C24.0688235,4.24882353 25.7188235,2.61705882 27.7805882,2.53058824 Z M28.01,3.99058824 C27.1847059,3.99058824 26.4517647,4.54941176 26.3147059,5.32294118 L29.4311765,5.32294118 C29.4311765,4.59235294 28.7888235,3.99058824 28.0105882,3.99058824 L28.01,3.99058824 Z" id="Shape"></path>
                    <path d="M36.1058824,4.17941176 C35.6870588,3.86764706 35.2211765,3.68941176 34.7088235,3.68941176 C34.20007,3.6457847 33.7395087,3.99069955 33.6382353,4.49117647 L33.6382353,4.58 C33.6382353,5.11529412 34.3364706,5.38235294 35.0352941,5.60470588 C35.9670588,5.96117647 37.1311765,6.45117647 37.1311765,7.65352941 C37.1311765,9.16764706 35.8729412,9.79117647 34.5229412,9.79117647 C33.5796382,9.83210901 32.669609,9.43844227 32.0535294,8.72294118 L32.9852941,8.01 C33.3582353,8.45529412 33.9635294,8.72294118 34.5694118,8.72294118 C35.2682353,8.72294118 35.8729412,8.36588235 35.8729412,7.65352941 C35.8729412,7.11941176 35.2211765,6.85176471 34.4758824,6.58470588 C33.5441176,6.22823529 32.4264706,5.82764706 32.4264706,4.58 C32.4264706,3.19882353 33.5441176,2.53117647 34.7558824,2.53117647 C35.5470588,2.53117647 36.3394118,2.79823529 36.9441176,3.28823529 L36.1058824,4.17941176 Z" id="Shape" fill="#E42C79" fill-rule="nonzero"></path>
                    <path d="M32.4264706,4.58 C32.4264706,5.82705882 33.5441176,6.22882353 34.4758824,6.58470588 C35.2217647,6.85176471 35.8729412,7.11882353 35.8729412,7.65352941 C35.8729412,8.36588235 35.2676471,8.72294118 34.5688235,8.72294118 C33.9635294,8.72294118 33.3582353,8.45470588 32.9847059,8.00941176 L32.0541176,8.72294118 C32.6700594,9.43835046 33.5797762,9.83219258 34.5229412,9.79176471 C35.8729412,9.79176471 37.1311765,9.16823529 37.1311765,7.65352941 C37.1311765,6.45117647 35.9664706,5.96117647 35.0347059,5.60529412 C34.3358824,5.38235294 33.6382353,5.11470588 33.6382353,4.58 L33.6382353,4.49117647 C33.7305882,4.00117647 34.1964706,3.64529412 34.7088235,3.68941176 C35.2217647,3.68941176 35.6876471,3.86764706 36.1058824,4.17941176 L36.9447059,3.28882353 C36.3388235,2.79823529 35.5470588,2.53058824 34.7552941,2.53058824 C33.5435294,2.53058824 32.4258824,3.19882353 32.4258824,4.58 L32.4264706,4.58 Z" id="Shape"></path>
                    <path d="M40.0217647,4.05058824 L40.0217647,7.58588235 C40.0688235,8.27529412 40.3070588,8.70588235 41.0205882,8.70588235 C41.3058824,8.70588235 41.5905882,8.62 41.8282353,8.53352941 L42.2088235,9.48235294 C41.7811765,9.65470588 41.3058824,9.78411765 40.83,9.78411765 C40.0217647,9.87 39.2129412,9.43941176 38.8805882,8.74882353 C38.6905882,8.31823529 38.6429412,7.84411765 38.6429412,7.37 L38.6429412,4.09352941 L37.6917647,4.09352941 L37.6917647,3.01588235 L38.6905882,3.01588235 L38.6905882,1.42117647 L40.0217647,1.42117647 L40.0217647,3.01588235 L42.0658824,3.01588235 L42.0658824,4.09411765 L40.0217647,4.09411765 L40.0217647,4.05058824 Z" id="Shape" fill="#E42C79" fill-rule="nonzero"></path>
                    <path d="M38.6905882,1.42117647 L38.6905882,3.01647059 L37.6917647,3.01647059 L37.6917647,4.09411765 L38.6423529,4.09411765 L38.6423529,7.37 C38.6423529,7.84352941 38.6905882,8.31823529 38.8805882,8.74941176 C39.2129412,9.43882353 40.0217647,9.87058824 40.8305882,9.78470588 C41.3058824,9.78470588 41.7811765,9.65529412 42.2094118,9.48235294 L41.8282353,8.53352941 C41.59,8.62 41.3058824,8.70588235 41.0205882,8.70588235 C40.3070588,8.70588235 40.0694118,8.27529412 40.0211765,7.58588235 L40.0211765,4.05058824 L40.0211765,4.09411765 L42.0664706,4.09411765 L42.0664706,3.01647059 L40.0211765,3.01647059 L40.0211765,1.42117647 L38.6905882,1.42117647 Z" id="Shape"></path>
                    <path d="M51.8970588,3.86470588 C52.3552941,3.08235294 53.0676471,2.53117647 53.9335294,2.53117647 C54.2394118,2.53117647 54.4935294,2.57764706 54.7994118,2.62294118 L54.5447059,4.00176471 C54.3405882,3.91 54.0858824,3.86411765 53.8311765,3.86411765 C53.0176471,3.86411765 52.4570588,4.27823529 51.9488235,5.06 L51.9488235,9.79529412 L50.5223529,9.79529412 L50.5223529,2.66823529 L51.9482353,2.66823529 L51.8970588,3.86352941 L51.8970588,3.86470588 Z" id="Shape" fill="#E42C79" fill-rule="nonzero"></path>
                    <path d="M51.8970588,3.86470588 L51.9482353,2.66882353 L50.5223529,2.66882353 L50.5223529,9.79529412 L51.9482353,9.79529412 L51.9482353,5.06 C52.4570588,4.27764706 53.0170588,3.86411765 53.8311765,3.86411765 C54.0858824,3.86411765 54.34,3.91058824 54.5447059,4.00235294 L54.7988235,2.62235294 C54.4929412,2.57705882 54.2394118,2.53058824 53.9335294,2.53058824 C53.0676471,2.53058824 52.3552941,3.08235294 51.8970588,3.86411765 L51.8970588,3.86470588 Z" id="Shape"></path>
                    <path d="M56.2923529,5.46058824 L60.3276471,5.46058824 C60.2805882,4.46941176 59.4923529,3.61352941 58.4258824,3.61352941 C57.2664706,3.61352941 56.5241176,4.42529412 56.2923529,5.46058824 Z M56.1988235,6.45235294 C56.1988235,7.71352941 57.22,8.70529412 58.5182353,8.70529412 C59.4,8.74941176 60.2341176,8.29941176 60.6517647,7.57882353 L61.5794118,8.16411765 C60.9307638,9.24567792 59.7305822,9.87235354 58.4723529,9.78647059 C56.1988235,9.78647059 54.9470588,8.16411765 54.9470588,6.13647059 C54.8541176,4.19941176 56.3852941,2.57764706 58.3794118,2.53235294 L58.4723529,2.53235294 C60.2341176,2.48705882 61.6723529,3.88411765 61.7194118,5.59588235 L61.7194118,5.77647059 C61.7194118,6.00176471 61.7194118,6.27176471 61.6723529,6.49705882 L56.1988235,6.45235294 Z" id="Shape" fill="#E42C79" fill-rule="nonzero"></path>
                    <path d="M58.4729412,2.53294118 C58.5005882,2.53176471 58.5282353,2.53176471 58.5558824,2.53176471 C60.2794118,2.53176471 61.6729412,3.91117647 61.7188235,5.59647059 L61.7188235,5.77647059 C61.7188235,6.00176471 61.7188235,6.27117647 61.6717647,6.49647059 L56.1994118,6.45235294 C56.1994118,7.71352941 57.22,8.70529412 58.5182353,8.70529412 C59.4005882,8.74941176 60.2341176,8.29941176 60.6523529,7.57882353 L61.5794118,8.16411765 C60.9309193,9.24560421 59.7310599,9.87245744 58.4729412,9.78705882 C56.1994118,9.78705882 54.9470588,8.16352941 54.9470588,6.13705882 C54.8535294,4.2 56.3852941,2.57705882 58.3794118,2.53294118 L58.4729412,2.53294118 Z M58.4258824,3.61352941 C57.2664706,3.61352941 56.5235294,4.42529412 56.2923529,5.46117647 L60.3276471,5.46117647 C60.2811765,4.46941176 59.4923529,3.61352941 58.4258824,3.61352941 Z" id="Shape"></path>
                    <path d="M58.4729412,2.53294118 C58.5011765,2.53176471 58.5282353,2.53176471 58.5552941,2.53176471 C60.28,2.53176471 61.6729412,3.91117647 61.7188235,5.59647059 L61.7188235,5.77647059 C61.7188235,6.00176471 61.7188235,6.27117647 61.6717647,6.49647059 L56.1994118,6.45235294 C56.1994118,7.71352941 57.22,8.70529412 58.5182353,8.70529412 C59.4005882,8.74941176 60.2341176,8.29941176 60.6523529,7.57882353 L61.5794118,8.16411765 C60.9309193,9.24560421 59.7310599,9.87245744 58.4729412,9.78705882 C56.1994118,9.78705882 54.9470588,8.16352941 54.9470588,6.13705882 C54.8535294,4.2 56.3852941,2.57705882 58.3794118,2.53294118 L58.4729412,2.53294118 Z M58.4258824,3.61352941 C57.2664706,3.61352941 56.5235294,4.42529412 56.2923529,5.46117647 L60.3276471,5.46117647 C60.2811765,4.46941176 59.4923529,3.61352941 58.4258824,3.61352941 Z" id="Shape"></path>
                    <path d="M46.1094118,9.79470588 C44.2382353,9.79470588 42.7211765,8.15823529 42.7211765,6.13882353 C42.7211765,4.12 44.2382353,2.48352941 46.1094118,2.48352941 C47.98,2.48352941 49.4970588,4.12 49.4970588,6.13882353 C49.4970588,8.15823529 47.9805882,9.79470588 46.1088235,9.79470588 M46.1088235,8.54176471 C47.2994118,8.54176471 48.2641176,7.46647059 48.2641176,6.13882353 C48.2641176,4.81235294 47.2994118,3.73647059 46.1094118,3.73647059 C44.9194118,3.73647059 43.9547059,4.81235294 43.9547059,6.13882353 C43.9547059,7.46647059 44.9194118,8.54176471 46.1094118,8.54176471" id="Shape" fill="#E42C79" fill-rule="nonzero"></path>
                </g>
            </g>
        </g>
    </g>
</svg>