<?xml version="1.0" encoding="UTF-8"?>
<svg width="120px" height="80px" viewBox="0 0 120 80" version="1.1" xmlns="http://www.w3.org/2000/svg" xmlns:xlink="http://www.w3.org/1999/xlink">
    <!-- Generator: Sketch 48.2 (47327) - http://www.bohemiancoding.com/sketch -->
    <title>Group 2</title>
    <desc>Created with Sketch.</desc>
    <defs>
        <rect id="path-1" x="0" y="0" width="57.6744186" height="40"></rect>
    </defs>
    <g id="Page-1" stroke="none" stroke-width="1" fill="none" fill-rule="evenodd">
        <g id="Group-2">
            <path d="M120,70 C120,75.5 115.5,80 110,80 L10,80 C4.5,80 0,75.5 0,70 L0,10 C0,4.5 4.5,0 10,0 L110,0 C115.5,0 120,4.5 120,10 L120,70 Z" id="Shape" fill="#F5F5F5" fill-rule="nonzero"></path>
            <path d="M110,0 L10,0 C4.5,0 0,4.5 0,10 L0,70 C0,75.5 4.5,80 10,80 L110,80 C115.5,80 120,75.5 120,70 L120,10 C120,4.5 115.5,0 110,0 Z M110,2 C114.412,2 118,5.588 118,10 L118,70 C118,74.412 114.412,78 110,78 L10,78 C5.588,78 2,74.412 2,70 L2,10 C2,5.588 5.588,2 10,2 L110,2 Z" id="Shape" fill="#FFFFFF" fill-rule="nonzero"></path>
            <g id="tray" transform="translate(31.000000, 20.000000)">
                <mask id="mask-2" fill="white">
                    <use xlink:href="#path-1"></use>
                </mask>
                <g id="Rectangle-path"></g>
                <g id="Group" mask="url(#mask-2)" fill="#0C8FCD">
                    <g id="logo-tray-2017-azul">
                        <g id="_641809488">
                            <path d="M34.7512155,20.7710448 C32.8087173,21.760597 30.1886934,21.9247761 28.0143083,22.2146269 C25.1008583,22.6779104 23.7710765,25.5337313 24.9397267,27.4561194 C26.3699928,29.8074627 30.1393431,29.2385075 32.1136514,27.9943284 C35.034831,26.1528358 34.7176217,23.7376119 34.7512155,20.7710448 Z M11.1055958,21.3964179 L11.1055958,33.3761194 L17.8398274,33.3761194 L17.8398274,25.3191045 C17.8398274,19.8671642 17.2880556,14.241194 23.1090098,12.9853731 C23.9277487,12.7764179 24.7455958,12.6304478 25.5631455,12.5391045 L25.5631455,7.2561194 C17.5544282,7.3238806 11.1055958,10.3241791 11.1055958,21.3964179 Z M26.1847806,7.22746269 C35.82503,6.94776119 39.7201343,10.2698507 39.7237018,15.6620896 L39.7269719,24.581194 C39.7284584,28.2808955 38.1543035,31.3737313 34.5883002,32.7352239 C32.2221626,33.6376119 26.6066363,33.5791045 24.1254471,32.9414925 C17.8668808,31.3352239 17.0644929,20.2450746 24.4373052,18.5295522 C26.3902086,17.9337313 30.4098777,18.1734328 32.5164805,17.0286567 C33.9092879,16.2722388 34.5972189,14.321791 32.9481467,13.3271642 C32.3392951,12.96 31.517286,12.74 30.6405754,12.6179104 L30.6405754,12.6146269 C29.1627427,12.4250746 27.6840182,12.3653731 26.2058883,12.4785075 C26.1651594,10.7997015 26.2368065,8.89044776 26.1847806,7.22746269 Z M38.7280748,7.41701493 L44.3768976,23.5865672 C46.0539151,27.3889552 43.7606138,28.4552239 39.663649,28.2791045 L39.663649,33.3525373 L44.2466842,33.2871642 C48.1718149,33.2322388 49.9359386,30.0438806 50.9612947,26.5719403 L57.6744186,6.31313433 L53.8503668,6.26985075 C52.0672165,6.22865672 50.9916183,7.12447761 50.6220858,8.95701493 L48.1587341,17.5298507 L45.1858259,7.42149254 L38.7280748,7.41701493 Z M0,0.108955224 L3.63705586,0.108955224 C4.29228482,0.108955224 6.68398945,0.622985075 6.68398945,3.24716418 L6.68398945,7.43104478 L10.59158,7.43104478 C10.59158,10.8113433 10.6688756,12.7922388 6.68398945,12.7922388 L6.68398945,26.001791 C6.68398945,28.5023881 7.95401582,28.321194 10.59158,28.321194 L10.59158,33.3761194 L3.75448573,33.3761194 C0.535718053,33.3761194 0,31.4220896 0,28.5495522 L0,0.108955224 Z" id="Shape"></path>
                        </g>
                    </g>
                </g>
            </g>
        </g>
    </g>
</svg>