<?xml version="1.0" encoding="UTF-8"?>
<svg width="120px" height="80px" viewBox="0 0 120 80" version="1.1" xmlns="http://www.w3.org/2000/svg" xmlns:xlink="http://www.w3.org/1999/xlink">
    <!-- Generator: Sketch 48.2 (47327) - http://www.bohemiancoding.com/sketch -->
    <title>Group</title>
    <desc>Created with Sketch.</desc>
    <defs></defs>
    <g id="Page-1" stroke="none" stroke-width="1" fill="none" fill-rule="evenodd">
        <g id="Group" fill-rule="nonzero">
            <path d="M120,70 C120,75.5 115.5,80 110,80 L10,80 C4.5,80 0,75.5 0,70 L0,10 C0,4.5 4.5,0 10,0 L110,0 C115.5,0 120,4.5 120,10 L120,70 Z" id="Shape" fill="#F5F5F5"></path>
            <path d="M110,0 L10,0 C4.5,0 0,4.5 0,10 L0,70 C0,75.5 4.5,80 10,80 L110,80 C115.5,80 120,75.5 120,70 L120,10 C120,4.5 115.5,0 110,0 Z M110,2 C114.412,2 118,5.588 118,10 L118,70 C118,74.412 114.412,78 110,78 L10,78 C5.588,78 2,74.412 2,70 L2,10 C2,5.588 5.588,2 10,2 L110,2 Z" id="Shape" fill="#FFFFFF"></path>
            <g id="VTEX_Logo" transform="translate(18.000000, 25.000000)" fill="#FF3366">
                <path d="M60.0954545,11.2745455 L57.1172727,11.2745455 L57.1172727,21.4690909 C57.1157885,21.6612704 56.9603613,21.8166977 56.7681818,21.8181818 L54.4745455,21.8181818 C54.282366,21.8166977 54.1269387,21.6612704 54.1254545,21.4690909 L54.1254545,11.2745455 L51.1254545,11.2745455 C51.0346197,11.2782434 50.9461735,11.244916 50.8803665,11.1821937 C50.8145596,11.1194714 50.7770275,11.0327259 50.7763636,10.9418182 L50.7763636,9.13636364 C50.7770275,9.04545595 50.8145596,8.95871045 50.8803665,8.89598815 C50.9461735,8.83326584 51.0346197,8.7999384 51.1254545,8.80363636 L60.09,8.80363636 C60.2833677,8.79435892 60.4478995,8.94304688 60.4581818,9.13636364 L60.4581818,10.9418182 C60.4478975,11.1329248 60.286737,11.2807563 60.0954545,11.2745455 Z" id="Shape"></path>
                <path d="M69.6463636,21.75 C68.4722487,21.9179402 67.2868735,21.9945337 66.1009091,21.9790909 C63.84,21.9790909 61.8436364,21.4009091 61.8436364,18.2127273 L61.8436364,12.3954545 C61.8436364,9.20727273 63.8590909,8.64818182 66.1172727,8.64818182 C67.2941015,8.63206069 68.4703953,8.70774472 69.6354545,8.87454545 C69.8809091,8.91 69.9845455,8.99727273 69.9845455,9.22363636 L69.9845455,10.86 C69.9830613,11.0521795 69.827634,11.2076068 69.6354545,11.2090909 L65.9536364,11.2090909 C65.1354545,11.2090909 64.8327273,11.4818182 64.8327273,12.4009091 L64.8327273,13.9936364 L69.5072727,13.9936364 C69.6994522,13.9951204 69.8548795,14.1505478 69.8563636,14.3427273 L69.8563636,16.0063636 C69.8548795,16.1985431 69.6994522,16.3539705 69.5072727,16.3554545 L64.8327273,16.3554545 L64.8327273,18.2127273 C64.8327273,19.1236364 65.13,19.4045455 65.9536364,19.4045455 L69.6463636,19.4045455 C69.8385431,19.4060295 69.9939704,19.5614569 69.9954545,19.7536364 L69.9954545,21.39 C69.9981818,21.6081818 69.8918182,21.7145455 69.6463636,21.75 Z" id="Shape"></path>
                <path d="M82.8627273,21.8181818 L80.0781818,21.8181818 C79.8839959,21.832608 79.7016935,21.7234451 79.6227273,21.5454545 L77.2063636,17.7272727 L75.0245455,21.4745455 C74.9018182,21.6845455 74.7790909,21.8236364 74.5854545,21.8236364 L72,21.8236364 C71.9322802,21.835778 71.8626657,21.8172124 71.8099855,21.772961 C71.7573052,21.7287095 71.7270022,21.6633446 71.7272727,21.5945455 C71.7308435,21.5516915 71.7428951,21.5099744 71.7627273,21.4718182 L75.5618182,15.1472727 L71.7272727,9.13636364 C71.7074962,9.10407764 71.6953685,9.06769481 71.6918182,9.03 C71.7047997,8.89191314 71.8262905,8.78986077 71.9645455,8.80090909 L74.7845455,8.80090909 C74.9781818,8.80090909 75.1172727,8.97545455 75.2236364,9.13363636 L77.4654545,12.6790909 L79.6472727,9.13363636 C79.7263407,8.95432977 79.8923542,8.82853064 80.0863636,8.80090909 L82.68,8.80090909 C82.818255,8.78986077 82.9397457,8.89191314 82.9527273,9.03 C82.9491769,9.06769481 82.9370493,9.10407764 82.9172727,9.13636364 L79.0990909,15.1827273 L83.0727273,21.4554545 C83.1034347,21.5087738 83.1211844,21.5685623 83.1245455,21.63 C83.0918182,21.75 83.0018182,21.8181818 82.8627273,21.8181818 Z" id="Shape"></path>
                <path d="M46.5818182,8.83909091 C46.4509928,8.83617993 46.3365387,8.92659875 46.3090909,9.05454545 L43.7645455,18.4690909 C43.7290909,18.6627273 43.6772727,18.7418182 43.5190909,18.7418182 C43.3609091,18.7418182 43.3090909,18.6709091 43.2736364,18.4690909 L40.7372727,9.05454545 C40.7098249,8.92659875 40.5953708,8.83617993 40.4645455,8.83909091 L37.9609091,8.83909091 C37.8768698,8.8370256 37.7965743,8.87383159 37.7432836,8.93884642 C37.6899927,9.00386125 37.6696623,9.08981899 37.6881818,9.17181818 C37.6881818,9.17181818 40.7945455,19.9636364 40.8272727,20.0809091 C41.2418182,21.3681818 42.2481818,21.99 43.5272727,21.99 C44.7544249,22.0340325 45.85968,21.2525391 46.2272727,20.0809091 C46.2763636,19.9336364 49.3145455,9.17181818 49.3145455,9.17181818 C49.3320941,9.09021813 49.3113109,9.00507499 49.2581395,8.94073748 C49.204968,8.87639997 49.1252629,8.83995254 49.0418182,8.84181818 L46.5818182,8.83909091 Z" id="Shape"></path>
                <path d="M32.3918182,0.0872727273 L6.28636364,0.0872727273 C5.34172235,0.0959091215 4.46970033,0.595678118 3.98473096,1.40637316 C3.49976163,2.21706819 3.47179265,3.2217618 3.91090909,4.05818182 L6.52363636,9.03272727 L1.78909091,9.03272727 C1.1842171,9.02172093 0.618687472,9.33164378 0.302498465,9.84741308 C-0.0136905395,10.3631824 -0.0333161744,11.0077681 0.250909091,11.5418182 L8.65090909,27.4145455 C8.95233545,27.9845684 9.54427786,28.3411595 10.1890909,28.3411595 C10.833904,28.3411595 11.4258464,27.9845684 11.7272727,27.4145455 L14.0072727,23.1136364 L16.8709091,28.53 C17.3365121,29.4093289 18.2500098,29.959287 19.245,29.959287 C20.2399902,29.959287 21.1534879,29.4093289 21.6190909,28.53 L34.71,3.91636364 C35.1434444,3.10620717 35.1174409,2.12750404 34.6415877,1.34150697 C34.1657348,0.555509896 33.3105974,0.0787754075 32.3918182,0.0872727273 Z M20.7272727,10.4863636 L15,21.2263636 C14.8032274,21.5973275 14.4176482,21.8292675 13.9977273,21.8292675 C13.5778063,21.8292675 13.1922271,21.5973275 12.9954545,21.2263636 L7.34181818,10.59 C7.16738749,10.2626716 7.17757347,9.86780727 7.36864855,9.54990747 C7.55972365,9.23200767 7.90364146,9.03773438 8.27454545,9.03818182 L19.8436364,9.03818182 C20.1922201,9.0328161 20.5176498,9.21219573 20.6992363,9.50979573 C20.8808227,9.80739575 20.8914865,10.178836 20.7272727,10.4863636 Z" id="Shape"></path>
            </g>
        </g>
    </g>
</svg>