<?xml version="1.0" encoding="UTF-8"?>
<svg width="120px" height="80px" viewBox="0 0 120 80" version="1.1" xmlns="http://www.w3.org/2000/svg" xmlns:xlink="http://www.w3.org/1999/xlink">
    <!-- Generator: Sketch 48.2 (47327) - http://www.bohemiancoding.com/sketch -->
    <title>Group 3</title>
    <desc>Created with Sketch.</desc>
    <defs></defs>
    <g id="Page-1" stroke="none" stroke-width="1" fill="none" fill-rule="evenodd">
        <g id="Group-3" fill-rule="nonzero">
            <path d="M120,70 C120,75.5 115.5,80 110,80 L10,80 C4.5,80 0,75.5 0,70 L0,10 C0,4.5 4.5,0 10,0 L110,0 C115.5,0 120,4.5 120,10 L120,70 Z" id="Shape" fill="#F5F5F5"></path>
            <path d="M110,0 L10,0 C4.5,0 0,4.5 0,10 L0,70 C0,75.5 4.5,80 10,80 L110,80 C115.5,80 120,75.5 120,70 L120,10 C120,4.5 115.5,0 110,0 Z M110,2 C114.412,2 118,5.588 118,10 L118,70 C118,74.412 114.412,78 110,78 L10,78 C5.588,78 2,74.412 2,70 L2,10 C2,5.588 5.588,2 10,2 L110,2 Z" id="Shape" fill="#FFFFFF"></path>
            <g id="Group-2" transform="translate(18.000000, 23.000000)" fill="#1381BB">
                <path d="M18.2281566,25.788741 L13.0344723,25.788741 L9.13387826,19.0288035 L5.21348429,25.7884293 L0,25.7884293 L6.28633802,16.1356499 L0.531553028,7.1398529 L5.55434838,7.1398529 L9.12413058,13.4485046 L12.6530944,7.1398529 L17.6758897,7.1398529 L11.9613139,16.1153919 L18.208052,25.788741 L18.2281566,25.788741 Z M28.6051683,25.8195955 C28.1942428,25.9118473 27.7729603,25.9732446 27.3315733,26.0243571 C26.8904909,26.0757812 26.409504,26.1066357 25.8880032,26.1066357 C24.9857339,26.1066357 24.233335,26.0143839 23.6216683,25.8404768 C23.0103061,25.6653231 22.50891,25.4091373 22.1177844,25.0809578 C21.7266589,24.7527782 21.4363609,24.3426317 21.2356196,23.8701529 C21.0348784,23.3883243 20.8944509,22.8447866 20.7945372,22.23954 C20.6946235,21.6342934 20.6440575,20.9673379 20.6440575,20.2290118 C20.6340052,19.5003473 20.6340052,18.7208819 20.6340052,17.8899924 L20.6340052,10.6887422 L18.2680611,10.6887422 L18.2680611,7.1398529 L20.6340052,7.1398529 L20.6340052,2.49266853 L25.3668071,2.49266853 L25.3668071,7.1398529 L28.3444179,7.1398529 L28.3444179,10.6887422 L25.3668071,10.6887422 L25.3668071,19.6645929 C25.3668071,20.259243 25.4067117,20.7516681 25.4770777,21.1315835 C25.5574961,21.501214 25.6677667,21.798539 25.8179418,22.003924 C25.9687262,22.2189704 26.1390059,22.3626463 26.3497995,22.4346401 C26.5599838,22.5166071 26.8006295,22.5474616 27.0717368,22.5474616 C27.5527238,22.5474616 28.0742245,22.5162954 28.6054729,22.444925 L28.6054729,25.8093107 L28.6054729,25.8195955 L28.6051683,25.8195955 Z M38.4408793,26.2200805 C36.9366909,26.2200805 35.6033914,25.9941259 34.4501193,25.5428401 C33.2870996,25.0915543 32.3050211,24.4554532 31.5124131,23.6142788 C30.719805,22.7734162 30.1187998,21.7474266 29.6975174,20.5465949 C29.276235,19.3364133 29.0657461,17.9819325 29.0657461,16.4744259 C29.0657461,14.9354416 29.2759303,13.5716109 29.6874651,12.3604944 C30.1084429,11.160286 30.6997005,10.1349197 31.4822562,9.29343374 C32.2642027,8.46254423 33.2167335,7.81678164 34.3395441,7.38544214 C35.4626593,6.95410265 36.7453927,6.7287714 38.1898766,6.7287714 C39.5734376,6.7287714 40.8165711,6.93384466 41.9293293,7.354276 C43.03234,7.77564232 43.9848708,8.39055042 44.776565,9.21115511 C45.569173,10.0317598 46.1707874,11.0371797 46.5917652,12.2370764 C47.0130477,13.4372848 47.223232,14.8020504 47.223232,16.329815 L47.223232,17.4895074 L33.9191755,17.4895074 C33.9593847,18.4637612 34.0995075,19.3049355 34.3401533,20.0127188 C34.5807991,20.7102172 34.9015586,21.2952058 35.3027365,21.7468032 C35.693862,22.1977774 36.1647967,22.5362418 36.6960451,22.7522232 C37.2279027,22.9672696 37.8191603,23.0804027 38.4411839,23.0804027 C39.4241763,23.0804027 40.2560796,22.8653563 40.9378078,22.4343285 C41.6192314,22.0036123 42.1108798,21.2543781 42.4218917,20.197534 L46.8433772,20.197534 C46.6730974,21.1621263 46.341981,22.0344668 45.8609941,22.7830777 C45.3793979,23.542285 44.7774788,24.1777628 44.0558461,24.6910693 C43.3339087,25.2140372 42.4919531,25.5936409 41.5491699,25.8604231 C40.606996,26.1162972 39.5642991,26.25 38.4512362,26.25 L38.4408793,26.2200805 Z M42.441387,14.5146985 C42.2607504,12.9043437 41.7895111,11.704447 41.0477738,10.9044119 C40.3057318,10.1146617 39.3535056,9.7144884 38.1703813,9.7144884 C37.0168046,9.7144884 36.0645784,10.1146617 35.322841,10.9044119 C34.5807991,11.6941621 34.1193075,12.9043437 33.9292278,14.5146985 L42.4316393,14.5146985 L42.441387,14.5146985 Z M57.7817942,26.2200805 C56.3479718,26.2200805 55.0847337,26.0044108 53.9518708,25.5736946 C52.828451,25.1426668 51.876834,24.5068773 51.0939737,23.665703 C50.3123318,22.8348135 49.7107174,21.8091355 49.2894349,20.5983307 C48.8684571,19.3878375 48.6576636,18.0130987 48.6576636,16.4641411 C48.6576636,14.9148719 48.8684571,13.5304716 49.2894349,12.3196667 C49.7107174,11.0988887 50.3120272,10.0834956 51.0939737,9.25260608 C51.8765294,8.42171657 52.828451,7.78561549 53.9518708,7.36518415 C55.0746814,6.93415632 56.3479718,6.71879823 57.7817942,6.71879823 C58.8647002,6.71879823 59.8571356,6.86247418 60.7795096,7.1398529 C61.6918312,7.41691995 62.4941869,7.83735129 63.1658628,8.39086209 C63.847591,8.9449962 64.4093009,9.6222366 64.8202264,10.4425296 C65.2415089,11.2534728 65.5022592,12.1763024 65.6222775,13.2431197 L61.2410012,13.2431197 C61.1103214,12.3402364 60.7496573,11.62248 60.1382952,11.0889155 C59.5266284,10.5453779 58.7446819,10.2785957 57.7820988,10.2785957 C57.1302229,10.2785957 56.5386607,10.401702 56.0174646,10.6479145 C55.4859116,10.8944388 55.0344723,11.2737308 54.6537036,11.7864139 C54.2726303,12.2891239 53.9817231,12.9351982 53.7815911,13.7149752 C53.5707976,14.4944406 53.4705793,15.4175819 53.4705793,16.4850224 C53.4705793,17.5415549 53.570493,18.4540997 53.7815911,19.2335651 C53.9817231,20.0133421 54.2726303,20.6494432 54.6537036,21.162438 C55.0344723,21.6754328 55.4856069,22.0550364 56.0174646,22.3112222 C56.5484084,22.5680312 57.1402752,22.6911375 57.7820988,22.6911375 C58.2429812,22.6911375 58.6746205,22.6297402 59.0754937,22.4863759 C59.4867239,22.3529848 59.8373356,22.1575731 60.1480428,21.8911025 C60.4486978,21.6346051 60.6993958,21.3163987 60.8903894,20.9573647 C61.0704168,20.5880459 61.1907397,20.1881842 61.2510535,19.7266135 L65.6326344,19.7266135 C65.5025638,20.7522915 65.2217089,21.6757444 64.7906788,22.4760911 C64.3693964,23.286411 63.8177387,23.9633397 63.1460629,24.527447 C62.4643347,25.0918659 61.6823882,25.5122973 60.7697619,25.8096223 C59.8577448,26.1069474 58.8650048,26.2406502 57.7921511,26.2406502 L57.7817942,26.2200805 Z M72.2595319,5.64169615 C72.2595319,6.2781089 72.2497842,6.91358666 72.2296796,7.5702574 C72.2095751,8.21695498 72.1894705,8.84245957 72.1596182,9.43742134 C73.8136772,7.62168155 75.6785297,6.7085134 77.7636188,6.7085134 C81.9246586,6.7085134 84,9.00639351 84,13.5918689 L84,25.788741 L79.2681119,25.788741 L79.2681119,13.9820691 C79.2681119,12.6896089 79.0472661,11.7658443 78.6265929,11.2014253 C78.2053105,10.6273449 77.49373,10.339993 76.5204854,10.339993 C75.7988526,10.339993 75.0872722,10.5659476 74.3653348,10.9966637 C73.6534498,11.4273799 72.951617,12.0737658 72.2598365,12.9146285 L72.2598365,25.788741 L67.5273392,25.788741 L67.5273392,0 L72.2598365,0 L72.2598365,5.64169615 L72.2595319,5.64169615 Z" id="Shape"></path>
                <path d="M1.7710197,34.9786413 C1.39304896,34.9786413 1.07434403,34.9074455 0.806135995,34.7749596 C0.537323205,34.642164 0.33805703,34.4381728 0.198963798,34.184035 C0.0595681887,33.919063 0,33.6030159 0,33.225988 C0,32.8489602 0.0798274204,32.4211667 0.238877508,31.9317734 C0.398229972,31.4529047 0.59719377,31.0251112 0.836071278,30.6483929 C1.08462484,30.271365 1.35343763,29.9556274 1.66186175,29.690965 C1.97058825,29.4259931 2.29896923,29.2322169 2.64730707,29.1000404 C3.00562333,28.957649 3.37391802,28.8960492 3.75219113,28.8960492 C4.04035603,28.8960492 4.29919039,28.9372189 4.51841342,29.0186297 C4.7370317,29.10035 4.91634102,29.2220018 5.05543425,29.3752274 C5.19513223,29.5278339 5.28433333,29.7318252 5.33422547,29.9658425 C5.37413918,30.2001693 5.37413918,30.4753563 5.30459256,30.7706638 L4.31914725,30.7706638 C4.36903938,30.5976272 4.37871543,30.4450207 4.36903938,30.3125347 C4.34908253,30.1800488 4.29949277,30.0683024 4.22994615,29.9760575 C4.15042111,29.8844317 4.05063683,29.823451 3.92152203,29.7729949 C3.79210485,29.7219197 3.65240686,29.7017992 3.49335677,29.7017992 C3.26445769,29.7017992 3.04553704,29.7525648 2.82631401,29.8441906 C2.60769573,29.9358164 2.39845113,30.078827 2.19918496,30.2617691 C2.00022116,30.4456398 1.82091184,30.6796571 1.65188332,30.9650591 C1.48285481,31.2399366 1.34315682,31.5655797 1.22402045,31.9323925 C1.10458169,32.2995148 1.0347327,32.6251579 1.01477584,32.9006545 C0.994818989,33.1758415 1.02475427,33.4101683 1.10458169,33.603635 C1.17412831,33.7868866 1.29356706,33.9298972 1.45261715,34.021523 C1.61196961,34.1131488 1.80095498,34.1645335 2.02985406,34.1645335 C2.17892572,34.1645335 2.33858057,34.1437939 2.48765223,34.1029337 C2.64700469,34.0620736 2.7864003,33.9911874 2.92579591,33.9094671 C3.06519152,33.8175317 3.18463027,33.7160004 3.2940906,33.5835144 C3.40355092,33.4507189 3.49335677,33.2981124 3.55292496,33.1253854 L4.53837028,33.1253854 C4.39867229,33.4305984 4.22964377,33.7057854 4.0303776,33.9404217 C3.8314138,34.174439 3.61249315,34.3682152 3.37361564,34.5214408 C3.13443576,34.6740474 2.87590377,34.7966278 2.59741493,34.8777291 C2.31862371,34.9591398 2.04013487,35 1.76104127,35 L1.7710197,34.9786413 Z M13.9434918,28.8960492 C14.3317433,28.8960492 14.6601243,28.9675545 14.9289371,29.1000404 C15.1974475,29.2424319 15.3967137,29.4362081 15.5258285,29.7011801 C15.6652241,29.9655329 15.7250947,30.2815801 15.7151163,30.6586079 C15.7051378,31.0356358 15.6256128,31.4634293 15.4759364,31.9317734 C15.3168863,32.4109516 15.1176201,32.8489602 14.8690666,33.225988 C14.630189,33.6030159 14.3513978,33.9187535 14.0429737,34.184035 C13.7345496,34.4486974 13.4061686,34.642164 13.04755,34.7749596 C12.6892337,34.9176606 12.3212414,34.9786413 11.9429683,34.9786413 C11.5646952,34.9786413 11.2462926,34.9074455 10.9774798,34.7749596 C10.708667,34.642164 10.5100056,34.4381728 10.3703076,34.184035 C10.2312144,33.919063 10.1716462,33.6030159 10.1716462,33.225988 C10.1716462,32.8489602 10.2511712,32.4211667 10.4105237,31.9317734 C10.5698762,31.4529047 10.7691423,31.0251112 11.0077175,30.6483929 C11.2565734,30.271365 11.5253862,29.9556274 11.8335079,29.690965 C12.1422344,29.4259931 12.4706154,29.2322169 12.8189533,29.1000404 C13.1775719,28.957649 13.5455642,28.8960492 13.9238373,28.8960492 L13.9434918,28.8960492 Z M12.2211547,34.1639144 C12.4503562,34.1639144 12.6692768,34.1125297 12.8884999,34.0209039 C13.1077229,33.9292781 13.3163628,33.7862675 13.5056505,33.6030159 C13.7043119,33.4194547 13.8836212,33.1854374 14.0429737,32.9000354 C14.2123046,32.6245388 14.3513978,32.2988957 14.471139,31.9317734 C14.5905777,31.5649606 14.6601243,31.2393175 14.6797788,30.96444 C14.6997357,30.6889435 14.6698004,30.4549262 14.5905777,30.26115 C14.5210311,30.0782079 14.40129,29.9351974 14.2422399,29.8435715 C14.0828874,29.7519457 13.893902,29.7011801 13.6647006,29.7011801 C13.4361039,29.7011801 13.2171832,29.7519457 12.9979602,29.8435715 C12.7787372,29.9351974 12.5697949,30.0782079 12.3708311,30.26115 C12.171565,30.4450207 11.992558,30.679038 11.8232271,30.96444 C11.6541986,31.2393175 11.5151054,31.5649606 11.3953643,31.9317734 C11.2759255,32.2988957 11.2063789,32.6245388 11.1867244,32.9000354 C11.1667676,33.1752224 11.1967028,33.4095492 11.2762279,33.6030159 C11.3457745,33.7862675 11.4652133,33.9292781 11.6245657,34.0209039 C11.7836158,34.1125297 11.9729036,34.1639144 12.2015003,34.1639144 L12.2211547,34.1639144 Z M27.8573507,34.8362498 L26.8918622,34.8362498 L28.1158827,31.0864014 C28.1954077,30.8421691 28.2456022,30.6381778 28.2752352,30.4651413 C28.3051704,30.2917951 28.295192,30.1596187 28.2652567,30.0469437 C28.2353214,29.9351974 28.1754509,29.8636921 28.0859474,29.8129264 C27.9964439,29.7618512 27.8773076,29.7417307 27.7276311,29.7417307 C27.2598546,29.7417307 26.7022721,30.0469437 26.0458125,30.668823 L24.6820941,34.8260348 L23.7459362,34.8260348 L24.9708638,31.0761864 C25.0503888,30.8322636 25.0999786,30.6282724 25.1299138,30.4552358 C25.1498707,30.2815801 25.1498707,30.1497132 25.1199354,30.0367287 C25.0900001,29.9249823 25.0204535,29.8537866 24.9306477,29.8027114 C24.8411442,29.7519457 24.7220078,29.7318252 24.5723314,29.7318252 C24.1145332,29.7318252 23.5572532,30.0367287 22.9001888,30.6586079 L21.5370752,34.8158197 L20.5815651,34.8158197 L22.4823044,29.0183201 L23.4381168,29.0183201 L23.1989369,29.7519457 C23.8556989,29.1712362 24.453195,28.8753095 25.000799,28.8753095 C25.7869782,28.8753095 26.1749273,29.2319073 26.1652513,29.9351974 C26.4240857,29.7011801 26.6526824,29.5173093 26.8419701,29.3749179 C27.0309555,29.2319073 27.2102648,29.130376 27.3593365,29.0486557 C27.5087105,28.9777695 27.6481061,28.9263847 27.7772209,28.9059547 C27.896962,28.8855246 28.0260768,28.875 28.1455156,28.875 C29.2500973,28.875 29.5688022,29.5885051 29.1010256,31.0248016 L27.8573507,34.8254157 L27.8573507,34.8362498 Z M41.492116,34.8362498 L40.5269299,34.8362498 L41.7509504,31.0864014 C41.8304754,30.8421691 41.8800652,30.6381778 41.9103028,30.4651413 C41.9399357,30.2917951 41.9299573,30.1596187 41.900022,30.0469437 C41.8703891,29.9351974 41.8108209,29.8636921 41.7213175,29.8129264 C41.631814,29.7618512 41.5120729,29.7417307 41.3630012,29.7417307 C40.8952246,29.7417307 40.3379446,30.0469437 39.6808802,30.668823 L38.3174642,34.8260348 L37.3816086,34.8260348 L38.6059314,31.0761864 C38.6857589,30.8322636 38.735651,30.6282724 38.7652839,30.4552358 C38.7849384,30.2815801 38.7849384,30.1497132 38.7553055,30.0367287 C38.7253702,29.9249823 38.6558236,29.8537866 38.5660177,29.8027114 C38.4765143,29.7519457 38.3573779,29.7318252 38.2080038,29.7318252 C37.7502057,29.7318252 37.1929256,30.0367287 36.5355589,30.6586079 L35.1721428,34.8158197 L34.2166328,34.8158197 L36.1176745,29.0183201 L37.0728821,29.0183201 L36.834307,29.7519457 C37.4910689,29.1712362 38.0882627,28.8753095 38.6358667,28.8753095 C39.4220459,28.8753095 39.8102974,29.2319073 39.800319,29.9351974 C40.058851,29.7011801 40.2880524,29.5173093 40.4767354,29.3749179 C40.6660232,29.2319073 40.8450301,29.130376 40.9944041,29.0486557 C41.1434758,28.9777695 41.2831738,28.9263847 41.4122886,28.9059547 C41.531425,28.8855246 41.6611445,28.875 41.7805833,28.875 C42.885165,28.875 43.2035675,29.5885051 42.7360933,31.0248016 L41.4918136,34.8254157 L41.4918136,34.8362498 L41.492116,34.8362498 Z M50.0911015,34.9786413 C49.7031524,34.9786413 49.364793,34.9074455 49.0863041,34.7749596 C48.8078153,34.642164 48.5985707,34.4381728 48.449499,34.184035 C48.3004274,33.919063 48.230276,33.6030159 48.230276,33.225988 C48.230276,32.8489602 48.3104058,32.4211667 48.4594774,31.9317734 C48.6182252,31.4631197 48.8177937,31.0353262 49.0666496,30.6586079 C49.3152032,30.2815801 49.584016,29.9658425 49.8924401,29.7011801 C50.2011666,29.4362081 50.539526,29.2424319 50.8875615,29.1000404 C51.2461801,28.957649 51.604194,28.8858341 51.9824671,28.8858341 C52.3704163,28.8858341 52.6987973,28.957649 52.9679124,29.0898254 C53.2370276,29.2322169 53.4353867,29.4259931 53.5654086,29.690965 C53.7045018,29.9553179 53.76407,30.271365 53.7540916,30.6483929 C53.7444155,31.0254207 53.6648905,31.4532142 53.5155165,31.9218679 L53.4353867,32.1664098 L49.3847498,32.1664098 C49.2952464,32.5025774 49.255635,32.7981945 49.2653111,33.0424268 C49.2752895,33.2869687 49.3248793,33.501175 49.4149875,33.6639966 C49.5041886,33.8268181 49.6336058,33.9493986 49.7929582,34.0311189 C49.9520083,34.1125297 50.1509721,34.1533899 50.3698928,34.1533899 C50.5292452,34.1533899 50.6885977,34.1329598 50.8676046,34.0821941 C51.0366331,34.041334 51.2062664,33.9704478 51.3556405,33.878822 C51.5143882,33.786577 51.6537838,33.6748307 51.7735249,33.5423447 C51.8929637,33.4098587 51.9821648,33.2572522 52.0423377,33.0938116 L53.0471351,33.0938116 C52.9080419,33.3894287 52.7384086,33.6646157 52.5297688,33.8887274 C52.3208265,34.1227447 52.0822514,34.3168305 51.8330931,34.4799616 C51.5742587,34.6325681 51.2954675,34.7551486 51.0070002,34.8467744 C50.7082522,34.9281852 50.4095041,34.9690453 50.1110584,34.9690453 L50.0911015,34.9786413 Z M52.6888188,31.3718035 C52.7384086,31.0966165 52.748387,30.8523841 52.7287326,30.6483929 C52.7087757,30.4450207 52.6591859,30.271365 52.5696825,30.1289736 C52.480179,29.985963 52.3704163,29.8841222 52.221647,29.8129264 C52.0725754,29.7417307 51.9026397,29.7011801 51.7139567,29.7011801 C51.524669,29.7011801 51.3254028,29.7318252 51.1367198,29.8027114 C50.9474321,29.8739071 50.7678204,29.975748 50.5888134,30.1085435 C50.4095041,30.250935 50.2404756,30.4239715 50.0808207,30.6279628 C49.922073,30.8319541 49.7723966,31.0758768 49.6432818,31.3615884 L52.6788404,31.3615884 L52.6888188,31.3718035 Z M62.9995583,29.975748 C62.8804219,29.9249823 62.6908318,29.9048618 62.4422782,29.9048618 C62.1937247,29.9048618 61.9445663,29.975748 61.685732,30.108853 C61.4374808,30.2512445 61.1783441,30.4552358 60.8995528,30.7301132 L59.556396,34.8365594 L58.600886,34.8365594 L60.5016252,29.0390597 L61.4571353,29.0390597 L61.1983009,29.8333565 C61.8154515,29.2015717 62.38271,28.8855246 62.9200332,28.8855246 C62.9796014,28.8855246 63.0494504,28.8855246 63.1186946,28.8957396 C63.188846,28.9059547 63.2583926,28.9164793 63.3382201,28.9369093 L62.9995583,29.975748 Z M69.1801358,34.9786413 C68.8015603,34.9786413 68.4834602,34.9074455 68.2149497,34.7749596 C67.9461369,34.642164 67.7474755,34.4381728 67.6077775,34.184035 C67.4683819,33.919063 67.4088137,33.6030159 67.4088137,33.225988 C67.4088137,32.8489602 67.4883388,32.4211667 67.6473889,31.9317734 C67.8070437,31.4529047 68.0057051,31.0251112 68.244885,30.6483929 C68.493741,30.271365 68.7622514,29.9556274 69.0706755,29.690965 C69.379402,29.4259931 69.7074806,29.2322169 70.0561208,29.1000404 C70.4147394,28.957649 70.7827318,28.8960492 71.1613073,28.8960492 C71.4497745,28.8960492 71.7083065,28.9372189 71.9272272,29.0186297 C72.1461478,29.10035 72.3254571,29.2220018 72.4645504,29.3752274 C72.6042484,29.5278339 72.6934494,29.7318252 72.7433416,29.9658425 C72.7829529,30.2001693 72.7829529,30.4753563 72.7134063,30.7706638 L71.727961,30.7706638 C71.7775507,30.5976272 71.7872268,30.4450207 71.7775507,30.3125347 C71.7578963,30.1800488 71.7080041,30.0683024 71.6381551,29.9760575 C71.5586301,29.8844317 71.4594506,29.823451 71.329731,29.7729949 C71.2003138,29.7219197 71.0606158,29.7017992 70.9018681,29.7017992 C70.6726667,29.7017992 70.453746,29.7525648 70.2348254,29.8441906 C70.0156023,29.9358164 69.8066601,30.078827 69.6076963,30.2617691 C69.4087325,30.4456398 69.2297256,30.6796571 69.0600923,30.9650591 C68.8910638,31.2399366 68.7516682,31.5655797 68.6322294,31.9323925 C68.5127907,32.2995148 68.4429417,32.6251579 68.4232872,32.9006545 C68.4036327,33.1758415 68.4329633,33.4101683 68.5130931,33.603635 C68.5826397,33.7868866 68.7020784,33.9298972 68.8614309,34.021523 C69.0201786,34.1131488 69.2097687,34.1645335 69.4383654,34.1645335 C69.5877395,34.1645335 69.7470919,34.1437939 69.8961636,34.1029337 C70.0555161,34.0620736 70.1949117,33.9911874 70.3343073,33.9094671 C70.4734005,33.8175317 70.5931416,33.7160004 70.702602,33.5835144 C70.8123647,33.4507189 70.9018681,33.2981124 70.9614363,33.1253854 L71.9468816,33.1253854 C71.8077884,33.4305984 71.6381551,33.7057854 71.4394937,33.9404217 C71.2402275,34.174439 71.0210045,34.3682152 70.782127,34.5214408 C70.5432495,34.6740474 70.2844151,34.7966278 70.0059263,34.8777291 C69.7274375,34.9588303 69.4480415,35 69.1692503,35 L69.1801358,34.9786413 Z M79.4612423,34.9786413 C79.0732932,34.9786413 78.7349338,34.9074455 78.4558402,34.7749596 C78.1779561,34.642164 77.9687115,34.4381728 77.8196398,34.184035 C77.6702658,33.919063 77.6004168,33.6030159 77.6004168,33.225988 C77.6004168,32.8489602 77.6799418,32.4211667 77.8296182,31.9317734 C77.988366,31.4631197 78.1879345,31.0353262 78.4361857,30.6586079 C78.685344,30.2815801 78.9541568,29.9658425 79.2625809,29.7011801 C79.571005,29.4362081 79.9090621,29.2424319 80.2573999,29.1000404 C80.6157162,28.957649 80.9740324,28.8858341 81.3520032,28.8858341 C81.7402547,28.8858341 82.0686357,28.957649 82.3377509,29.0898254 C82.6065637,29.2322169 82.8052251,29.4259931 82.9349446,29.690965 C83.0743402,29.9553179 83.1339084,30.271365 83.12393,30.6483929 C83.1139516,31.0254207 83.0344265,31.4532142 82.8847501,31.9218679 L82.8052251,32.1664098 L78.7548906,32.1664098 C78.6650848,32.5025774 78.6254734,32.7981945 78.6351495,33.0424268 C78.6451279,33.2869687 78.6947177,33.501175 78.7842211,33.6639966 C78.8743294,33.8268181 79.0034442,33.9493986 79.1624943,34.0311189 C79.3218467,34.1125297 79.5208105,34.1533899 79.7397312,34.1533899 C79.8987813,34.1533899 80.0584361,34.1329598 80.237443,34.0821941 C80.4067739,34.041334 80.5758025,33.9704478 80.7254789,33.878822 C80.8842266,33.786577 81.0233198,33.6748307 81.1430609,33.5423447 C81.2628021,33.4098587 81.3517008,33.2572522 81.4115714,33.0938116 L82.4169735,33.0938116 C82.2778803,33.3894287 82.108247,33.6646157 81.8996072,33.8887274 C81.690665,34.1227447 81.4514851,34.3168305 81.2026291,34.4799616 C80.9440971,34.6325681 80.6653059,34.7551486 80.377141,34.8467744 C80.078393,34.9281852 79.7796449,34.9690453 79.4811992,34.9690453 L79.4612423,34.9786413 Z M82.0589596,31.3718035 C82.1085494,31.0966165 82.1185278,30.8523841 82.098571,30.6483929 C82.0789165,30.4450207 82.0293267,30.271365 81.9395209,30.1289736 C81.8500174,29.985963 81.7405571,29.8841222 81.5914854,29.8129264 C81.4421114,29.7417307 81.2727805,29.7011801 81.0834928,29.7011801 C80.8948098,29.7011801 80.6955436,29.7318252 80.5065582,29.8027114 C80.3172705,29.8739071 80.1385659,29.975748 79.9589542,30.1085435 C79.7799473,30.250935 79.6106164,30.4239715 79.4515663,30.6279628 C79.2925162,30.8319541 79.1428398,31.0758768 79.013725,31.3615884 L82.0489812,31.3615884 L82.0589596,31.3718035 Z" id="Shape"></path>
            </g>
        </g>
    </g>
</svg>