<?xml version="1.0" encoding="UTF-8"?>
<svg width="120px" height="80px" viewBox="0 0 120 80" version="1.1" xmlns="http://www.w3.org/2000/svg" xmlns:xlink="http://www.w3.org/1999/xlink">
    <!-- Generator: Sketch 52.4 (67378) - http://www.bohemiancoding.com/sketch -->
    <title>billet</title>
    <desc>Created with Sketch.</desc>
    <g id="Page-1" stroke="none" stroke-width="1" fill="none" fill-rule="evenodd">
        <g id="billet">
            <path d="M120,70 C120,75.5 115.5,80 110,80 L10,80 C4.5,80 0,75.5 0,70 L0,10 C0,4.5 4.5,0 10,0 L110,0 C115.5,0 120,4.5 120,10 L120,70 Z" id="Path" fill="#F5F5F5"></path>
            <path d="M110,0 L10,0 C4.5,0 0,4.5 0,10 L0,70 C0,75.5 4.5,80 10,80 L110,80 C115.5,80 120,75.5 120,70 L120,10 C120,4.5 115.5,0 110,0 Z M110,2 C114.412,2 118,5.588 118,10 L118,70 C118,74.412 114.412,78 110,78 L10,78 C5.588,78 2,74.412 2,70 L2,10 C2,5.588 5.588,2 10,2 L110,2 Z" id="Shape" fill="#D0D0D0" fill-rule="nonzero"></path>
            <polygon id="Path" fill="#000000" points="27.372 19.705 31.361 19.705 31.361 60.294 27.372 60.294"></polygon>
            <polygon id="Path" fill="#000000" points="51.907 19.705 55.896 19.705 55.896 60.294 51.907 60.294"></polygon>
            <polygon id="Path" fill="#000000" points="72.314 19.705 76.303 19.705 76.303 60.294 72.314 60.294"></polygon>
            <polygon id="Path" fill="#000000" points="80.43 19.705 84.419 19.705 84.419 60.294 80.43 60.294"></polygon>
            <polygon id="Path" fill="#000000" points="88.639 19.705 92.628 19.705 92.628 60.294 88.639 60.294"></polygon>
            <polygon id="Path" fill="#000000" points="60.023 19.705 68.135 19.705 68.135 60.294 60.023 60.294"></polygon>
            <polygon id="Path" fill="#000000" points="35.535 19.705 47.728 19.705 47.728 60.294 35.535 60.294"></polygon>
            <polygon id="Path" fill="#773CBC" points="16.601 42.121 103.399 42.121 103.399 48.176 16.601 48.176"></polygon>
        </g>
    </g>
</svg>