<?xml version="1.0" encoding="UTF-8"?>
<svg width="120px" height="80px" viewBox="0 0 120 80" version="1.1" xmlns="http://www.w3.org/2000/svg" xmlns:xlink="http://www.w3.org/1999/xlink">
    <!-- Generator: Sketch 49.3 (51167) - http://www.bohemiancoding.com/sketch -->
    <title>Group 2</title>
    <desc>Created with Sketch.</desc>
    <defs></defs>
    <g id="Page-1" stroke="none" stroke-width="1" fill="none" fill-rule="evenodd">
        <g id="Group-2">
            <path d="M120,70 C120,75.5 115.5,80 110,80 L10,80 C4.5,80 0,75.5 0,70 L0,10 C0,4.5 4.5,0 10,0 L110,0 C115.5,0 120,4.5 120,10 L120,70 Z" id="Shape" fill="#F5F5F5" fill-rule="nonzero"></path>
            <path d="M110,0 L10,0 C4.5,0 0,4.5 0,10 L0,70 C0,75.5 4.5,80 10,80 L110,80 C115.5,80 120,75.5 120,70 L120,10 C120,4.5 115.5,0 110,0 Z M110,2 C114.412,2 118,5.588 118,10 L118,70 C118,74.412 114.412,78 110,78 L10,78 C5.588,78 2,74.412 2,70 L2,10 C2,5.588 5.588,2 10,2 L110,2 Z" id="Shape" fill="#FFFFFF" fill-rule="nonzero"></path>
            <g id="Group" transform="translate(22.000000, 19.000000)">
                <path d="M0.374,14.596 C0.464,14.388 0.449,14.161 0.482,13.943 C1.022,10.443 3.49,6.9 7.517,5.793 C8.84,5.429 10.183,5.364 11.542,5.517 C12.447,5.619 13.329,5.821 14.198,6.09 C14.306,6.123 14.347,6.148 14.291,6.275 C13.782,7.437 13.28,8.602 12.781,9.768 C12.729,9.89 12.685,9.915 12.553,9.866 C11.217,9.375 9.856,9.261 8.513,9.784 C6.272,10.657 4.957,12.336 4.562,14.685 C4.14,17.194 5.615,19.547 7.606,20.65 C9.831,21.882 11.976,21.653 14.022,20.197 C14.205,20.066 14.377,19.918 14.548,19.772 C14.614,19.716 14.652,19.689 14.728,19.768 C15.618,20.704 16.511,21.638 17.408,22.567 C17.514,22.677 17.424,22.712 17.364,22.766 C15.955,24.036 14.317,24.861 12.46,25.232 C10.324,25.658 8.243,25.461 6.251,24.558 C3.978,23.528 2.374,21.825 1.355,19.562 C0.862,18.466 0.536,17.32 0.409,16.121 C0.406,16.095 0.402,16.072 0.373,16.064 C0.374,15.574 0.374,15.085 0.374,14.596 Z" id="Shape" fill="#000000" fill-rule="nonzero"></path>
                <path d="M75.626,15.913 C75.546,16.144 75.559,16.389 75.527,16.627 C75.391,17.657 75.117,18.649 74.754,19.619 C74.708,19.742 74.664,19.765 74.542,19.706 C73.395,19.16 72.246,18.618 71.094,18.083 C70.96,18.021 70.961,17.962 71.008,17.843 C71.329,17.032 71.524,16.189 71.51,15.316 C71.473,12.98 70.417,11.234 68.356,10.143 C66.183,8.993 63.596,9.334 61.753,10.96 C61.636,11.063 61.582,11.061 61.478,10.945 C60.63,9.996 59.776,9.054 58.921,8.111 C58.852,8.035 58.801,7.989 58.912,7.893 C60.355,6.65 62.006,5.84 63.888,5.535 C65.926,5.205 67.898,5.465 69.78,6.317 C72.098,7.367 73.818,9.028 74.847,11.373 C75.271,12.339 75.507,13.353 75.59,14.404 C75.593,14.444 75.574,14.494 75.626,14.52 L75.626,15.913 Z" id="Shape" fill="#1DAFEC" fill-rule="nonzero"></path>
                <path d="M21.67,0.524 C21.845,0.567 22.023,0.599 22.195,0.653 C23.44,1.048 24.191,2.206 24.077,3.544 C23.977,4.723 22.989,5.731 21.755,5.912 C20.077,6.159 18.586,4.843 18.628,3.151 C18.659,1.874 19.642,0.76 20.91,0.561 C20.952,0.554 20.999,0.565 21.031,0.524 L21.67,0.524 Z" id="Shape" fill="#1DAFEC" fill-rule="nonzero"></path>
                <path d="M35.896,5.394 C40.365,5.394 44.078,8.08 45.561,12.389 C45.626,12.578 45.674,12.773 45.746,12.96 C45.8,13.099 45.752,13.148 45.626,13.202 C42.134,14.682 38.643,16.166 35.153,17.65 C32.692,18.697 30.231,19.743 27.772,20.796 C27.62,20.861 27.553,20.837 27.469,20.698 C26.33,18.819 25.77,16.792 25.928,14.591 C26.214,10.59 29.022,6.685 33.493,5.673 C34.285,5.492 35.085,5.398 35.896,5.394 Z M40.382,11.645 C40.354,11.607 40.336,11.581 40.317,11.557 C38.237,8.974 34.353,8.702 31.939,10.976 C30.917,11.939 30.349,13.143 30.1,14.509 C30.005,15.032 29.961,15.559 29.979,16.112 C33.457,14.619 36.914,13.135 40.382,11.645 Z" id="Shape" fill="#000000" fill-rule="nonzero"></path>
                <path d="M47.68,10.945 C47.68,7.641 47.682,4.336 47.676,1.032 C47.676,0.856 47.725,0.82 47.892,0.821 C49.021,0.828 50.149,0.828 51.278,0.821 C51.426,0.82 51.476,0.843 51.476,1.008 C51.488,5.09 51.507,9.171 51.525,13.253 C51.535,15.529 51.546,17.805 51.55,20.081 C51.55,20.221 51.59,20.288 51.717,20.345 C52.701,20.778 53.68,21.221 54.663,21.656 C54.786,21.71 54.828,21.748 54.769,21.894 C54.302,23.033 53.844,24.175 53.389,25.319 C53.337,25.449 53.294,25.461 53.164,25.41 C52.396,25.109 51.619,24.833 50.854,24.525 C50.065,24.208 49.328,23.799 48.733,23.173 C48.126,22.534 47.802,21.769 47.747,20.895 C47.694,20.044 47.721,19.19 47.719,18.338 C47.714,15.874 47.717,13.41 47.717,10.945 C47.705,10.945 47.693,10.945 47.68,10.945 Z" id="Shape" fill="#000000" fill-rule="nonzero"></path>
                <path d="M65.38,25.476 C62.626,25.428 60.292,24.402 58.381,22.428 C56.85,20.846 55.929,18.95 55.62,16.772 C55.343,14.821 55.642,12.943 56.413,11.134 C56.451,11.046 56.481,11.024 56.573,11.07 C57.762,11.668 58.952,12.266 60.145,12.855 C60.279,12.921 60.219,12.984 60.184,13.058 C59.785,13.909 59.563,14.8 59.589,15.745 C59.624,17.003 60.069,18.109 60.889,19.049 C62.23,20.586 63.935,21.386 65.977,21.394 C67.336,21.399 68.525,20.924 69.488,19.941 C69.565,19.863 69.602,19.843 69.686,19.938 C70.525,20.878 71.369,21.814 72.214,22.747 C72.287,22.828 72.283,22.865 72.198,22.932 C70.644,24.144 68.928,25.006 66.971,25.341 C66.447,25.431 65.916,25.48 65.38,25.476 Z" id="Shape" fill="#000000" fill-rule="nonzero"></path>
                <path d="M23.282,18.528 C23.282,20.634 23.28,22.741 23.286,24.847 C23.287,25.036 23.246,25.096 23.044,25.094 C21.903,25.083 20.762,25.086 19.621,25.092 C19.485,25.093 19.444,25.066 19.443,24.92 C19.42,20.846 19.391,16.771 19.367,12.697 C19.366,12.56 19.32,12.503 19.201,12.451 C18.199,12.015 17.2,11.57 16.197,11.135 C16.065,11.078 16.055,11.026 16.11,10.903 C16.615,9.76 17.113,8.614 17.616,7.471 C17.643,7.41 17.638,7.301 17.776,7.355 C18.697,7.709 19.645,7.993 20.534,8.428 C21.295,8.8 21.994,9.255 22.526,9.93 C23.067,10.615 23.316,11.404 23.319,12.268 C23.327,14.355 23.321,16.443 23.321,18.53 C23.31,18.528 23.296,18.528 23.282,18.528 Z" id="Shape" fill="#000000" fill-rule="nonzero"></path>
                <path d="M43.029,22.634 C42.519,23.035 41.995,23.408 41.451,23.753 C40.416,24.41 39.326,24.947 38.129,25.242 C36.552,25.631 34.997,25.501 33.456,25.041 C32.513,24.76 31.612,24.375 30.727,23.947 C30.609,23.89 30.613,23.846 30.675,23.746 C31.339,22.692 32,21.637 32.655,20.578 C32.729,20.459 32.782,20.451 32.902,20.512 C33.703,20.923 34.54,21.224 35.44,21.336 C36.872,21.514 38.156,21.148 39.312,20.3 C39.545,20.129 39.767,19.946 39.975,19.746 C40.029,19.694 40.065,19.658 40.139,19.733 C41.097,20.701 42.059,21.663 43.029,22.634 Z" id="Shape" fill="#000000" fill-rule="nonzero"></path>
                <rect id="Rectangle" fill="#333333" x="8" y="29" width="60" height="13" rx="6.5"></rect>
                <text id="VERSÃO-3" font-family="Gotham-Bold, Gotham" font-size="9" font-weight="bold" fill="#FFFFFF">
                    <tspan x="14.222" y="39">VERSÃO 3</tspan>
                </text>
            </g>
        </g>
    </g>
</svg>