<?xml version="1.0" encoding="UTF-8"?>
<svg width="120px" height="80px" viewBox="0 0 120 80" version="1.1" xmlns="http://www.w3.org/2000/svg" xmlns:xlink="http://www.w3.org/1999/xlink">
    <!-- Generator: Sketch 52.4 (67378) - http://www.bohemiancoding.com/sketch -->
    <title>getnet</title>
    <desc>Created with Sketch.</desc>
    <g id="Page-1" stroke="none" stroke-width="1" fill="none" fill-rule="evenodd">
        <g id="getnet">
            <path d="M120,70 C120,75.5 115.5,80 110,80 L10,80 C4.5,80 0,75.5 0,70 L0,10 C0,4.5 4.5,0 10,0 L110,0 C115.5,0 120,4.5 120,10 L120,70 Z" id="Shape" fill="#F5F5F5"></path>
            <path d="M110,0 L10,0 C4.5,0 0,4.5 0,10 L0,70 C0,75.5 4.5,80 10,80 L110,80 C115.5,80 120,75.5 120,70 L120,10 C120,4.5 115.5,0 110,0 Z M110,2 C114.412,2 118,5.588 118,10 L118,70 C118,74.412 114.412,78 110,78 L10,78 C5.588,78 2,74.412 2,70 L2,10 C2,5.588 5.588,2 10,2 L110,2 Z" id="Shape" fill="#D0D0D0" fill-rule="nonzero"></path>
            <path d="M59.006,33.933 L62.8732,33.933 C62.899407,34.44403 62.925614,34.9436 62.951821,35.4808 C63.040269,35.431662 63.109061,35.400541 63.172941,35.35959 C64.301441,34.61597 65.531541,34.11969 66.855041,33.85429 C67.816511,33.66101 68.777941,33.66265 69.724741,33.898514 C71.171041,34.258854 72.040741,35.192514 72.347041,36.651914 C72.489541,37.330014 72.541951,38.017914 72.543591,38.709114 C72.545229,41.790014 72.543591,44.871014 72.543591,47.951914 C72.543591,48.046914 72.5354014,48.141914 72.530488,48.248384 L68.424188,48.248384 L68.424188,47.927354 C68.424188,45.147754 68.4291018,42.366554 68.4209121,39.587054 C68.4192742,39.156274 68.3963431,38.718954 68.3275501,38.293054 C68.1997901,37.513394 67.6740201,37.053154 66.8927501,36.949954 C66.2277501,36.861506 65.5889501,36.96142 64.9583501,37.164524 C64.3162801,37.370904 63.7020501,37.637884 63.1009501,37.999864 L63.1009501,48.248864 L59.0061501,48.248864 L59.0061501,33.932864 L59.006,33.933 Z M40.782,39.554 C40.793466,39.509776 40.804931,39.485207 40.803293,39.460638 C40.783638,38.736668 40.659153,38.037238 40.329933,37.382138 C40.080963,36.884208 39.681313,36.576278 39.152233,36.425588 C38.729643,36.304378 38.295593,36.291278 37.861533,36.324038 C36.947563,36.394469 36.254733,36.823608 35.810833,37.636038 C35.583163,38.052068 35.460313,38.502508 35.376783,38.966038 C35.342387,39.154398 35.326007,39.346038 35.298162,39.554058 L40.781962,39.554058 L40.782,39.554 Z M44.5329,42.1026 L35.2295,42.1026 C35.245879,42.35976 35.245879,42.58743 35.280276,42.81019 C35.321224,43.07226 35.372,43.33433 35.453896,43.58657 C35.751996,44.50381 36.385876,45.06397 37.316196,45.30147 C38.081106,45.49638 38.857496,45.49475 39.637096,45.43742 C40.836096,45.347334 41.989196,45.05251 43.122596,44.66432 C43.196303,44.639751 43.271646,44.621734 43.369926,44.592251 C43.650016,45.427591 43.923546,46.246551 44.200356,47.076951 C44.123373,47.122813 44.057856,47.167037 43.987426,47.203071 C42.845826,47.796001 41.630426,48.148161 40.359426,48.326671 C39.453646,48.454431 38.546226,48.511761 37.632226,48.479001 C36.700246,48.444605 35.779726,48.323401 34.903426,47.990901 C33.005026,47.270211 31.863426,45.889401 31.411326,43.927201 C31.145986,42.772501 31.067356,41.598101 31.150896,40.418801 C31.214775,39.534321 31.347446,38.656401 31.665206,37.824301 C32.515296,35.601601 34.107406,34.245401 36.456106,33.826101 C37.748406,33.593511 39.052206,33.618081 40.329806,33.935841 C42.457506,34.466531 43.776006,35.834241 44.295206,37.958641 C44.496676,38.777611 44.522876,39.622741 44.549086,40.463041 C44.565465,40.931491 44.5539998,41.401571 44.5539998,41.870041 C44.5539998,41.938834 44.5425338,42.007631 44.5327068,42.102631 L44.5329,42.1026 Z M79.368,39.551 L84.8452,39.551 C84.858304,39.518241 84.871407,39.501862 84.871407,39.487121 C84.856666,38.772981 84.743647,38.081821 84.429167,37.431521 C84.168737,36.895921 83.751067,36.566691 83.177767,36.414321 C82.796127,36.314407 82.409577,36.299661 82.021367,36.319321 C81.074647,36.366821 80.352267,36.787771 79.888767,37.624721 C79.559547,38.217651 79.443247,38.866321 79.367907,39.550921 L79.368,39.551 Z M88.599307,42.094621 L79.346607,42.094621 C79.331866,42.155225 79.312211,42.196171 79.312211,42.235481 C79.3171248,42.761261 79.390832,43.277181 79.587381,43.768581 C79.916601,44.597371 80.542291,45.083881 81.392381,45.301681 C82.157291,45.498231 82.935281,45.493321 83.713281,45.435991 C84.922081,45.347543 86.081681,45.042891 87.223381,44.656331 C87.282347,44.636676 87.341311,44.618659 87.436311,44.589176 C87.731141,45.414696 87.991571,46.243476 88.266741,47.078876 C88.186482,47.126376 88.120961,47.168962 88.052171,47.204996 C87.005571,47.745516 85.899971,48.092756 84.738671,48.277796 C83.729671,48.439956 82.717471,48.518576 81.697071,48.477626 C80.702851,48.439954 79.726671,48.302366 78.796271,47.919096 C77.119071,47.227886 76.033071,45.997796 75.571171,44.254996 C75.035571,42.240296 75.022461,40.202796 75.617033,38.199596 C76.283673,35.953996 77.790533,34.524096 80.059133,33.913096 C80.634043,33.759126 81.225333,33.711626 81.819933,33.698526 C82.760103,33.677233 83.698633,33.716543 84.606033,33.985166 C86.666533,34.596116 87.929433,35.968666 88.379833,38.061966 C88.510863,38.664726 88.558363,39.287166 88.596043,39.904666 C88.633715,40.558196 88.61406,41.213366 88.618974,41.868566 C88.618974,41.937359 88.607508,42.006156 88.599319,42.094596 L88.599307,42.094621 Z M103.01,31.115 L103.01,30 L104.12,30 L104.12,31.115 L103.01,31.115 Z M104.98,31.115 L104.98,30 L106.1,30 L106.1,31.115 L104.98,31.115 Z M106.96,31.115 L106.96,30 L108.07,30 L108.07,31.115 L106.96,31.115 Z M103.01,33.073 L103.01,31.957 L104.12,31.957 L104.12,33.073 L103.01,33.073 Z M104.98,33.073 L104.98,31.957 L106.1,31.957 L106.1,33.073 L104.98,33.073 Z M106.96,33.073 L106.96,31.957 L108.07,31.957 L108.07,33.073 L106.96,33.073 Z M103.01,35.032 L103.01,33.916 L104.12,33.916 L104.12,35.032 L103.01,35.032 Z M104.98,35.032 L104.98,33.916 L106.1,33.916 L106.1,35.032 L104.98,35.032 Z M106.96,35.032 L106.96,33.916 L108.07,33.916 L108.07,35.032 L106.96,35.032 Z M103.01,36.989 L103.01,35.873 L104.12,35.873 L104.12,36.989 L103.01,36.989 Z M104.98,36.989 L104.98,35.873 L106.1,35.873 L106.1,36.989 L104.98,36.989 Z M106.96,36.989 L106.96,35.873 L108.07,35.873 L108.07,36.989 L106.96,36.989 Z M100.6,45.035 L100.599925,45.0349268 C100.770264,45.9145268 100.940614,46.7875268 101.112595,47.6769268 C100.983194,47.7342588 100.873454,47.7866728 100.760435,47.8308968 C99.8858345,48.1617668 98.9784045,48.3452108 98.0513345,48.4352968 C97.2192345,48.5139188 96.3904945,48.5073688 95.5633345,48.3779688 C94.9442345,48.2796888 94.3643745,48.0782188 93.8271345,47.7571888 C92.9672045,47.2428888 92.4872845,46.4714088 92.2907345,45.5033888 C92.2006535,45.0595488 92.1678945,44.6107588 92.1678945,44.1586888 C92.1711704,41.8835888 92.1695325,39.6084888 92.1695325,37.3333888 C92.1695325,37.3317509 92.1744463,37.330113 92.1760842,37.328475 L92.1760842,36.966495 L90.1859842,36.966495 L90.1859842,33.959295 L92.1760842,33.959295 L92.1760842,30.000395 L96.2217842,30.000395 L96.2217842,33.959295 L100.331384,33.959295 L100.331384,36.966495 L96.2217842,36.966495 L96.2217842,43.036695 C96.2217842,43.085837 96.226698,43.125147 96.226698,43.174285 C96.228336,43.482225 96.261094,43.795065 96.32006,44.096445 C96.47736,44.902325 96.94416,45.29379 97.76476,45.360945 C98.35276,45.410085 98.93095,45.326553 99.50586,45.229915 C99.80232,45.179135 100.09551,45.111983 100.39034,45.054655 C100.44931,45.0431896 100.511552,45.0431896 100.6,45.035 Z M56.56,45.035 L56.5599245,45.0349268 C56.7302645,45.9145268 56.9006145,46.7875268 57.0725945,47.6769268 C56.9431945,47.7342588 56.8334545,47.7866728 56.7204345,47.8308968 C55.8458345,48.1617668 54.9384045,48.3452108 54.0113345,48.4352968 C53.1792345,48.5139188 52.3504945,48.5073688 51.5233345,48.3779688 C50.9042345,48.2796888 50.3243745,48.0782188 49.7871345,47.7571888 C48.9272045,47.2428888 48.4472845,46.4714088 48.2507345,45.5033888 C48.1606535,45.0595488 48.1278945,44.6107588 48.1278945,44.1586888 C48.1311704,41.8835888 48.1295325,39.6084888 48.1295325,37.3333888 C48.1295325,37.3317509 48.1344462,37.330113 48.1360842,37.328475 L48.1360842,36.966495 L46.1459842,36.966495 L46.1459842,33.959295 L48.1360842,33.959295 L48.1360842,30.000395 L52.1817842,30.000395 L52.1817842,33.959295 L56.2913842,33.959295 L56.2913842,36.966495 L52.1817842,36.966495 L52.1817842,43.036695 C52.1817842,43.085837 52.186698,43.125147 52.186698,43.174285 C52.188336,43.482225 52.221094,43.795065 52.28006,44.096445 C52.43736,44.902325 52.90416,45.29379 53.72476,45.360945 C54.31276,45.410085 54.89095,45.326553 55.46586,45.229915 C55.76232,45.179135 56.05551,45.111983 56.35034,45.054655 C56.40931,45.0431896 56.471552,45.0431896 56.56,45.035 Z M19.809,38.221 L19.809003,38.220914 C19.746762,38.582914 19.736935,38.964554 19.772969,39.329814 C19.867969,40.302754 20.452679,40.974304 21.363369,41.190514 C21.620529,41.251118 21.887509,41.262584 22.182339,41.301894 C22.498459,41.254394 22.845699,41.233096 23.176559,41.147924 C24.061079,40.920324 24.663839,40.391234 24.850559,39.462524 C24.925904,39.095644 24.916076,38.723834 24.8653,38.352024 C24.7212,37.328314 24.066,36.630554 23.0554,36.417624 C22.63441,36.329176 22.21182,36.324262 21.7876,36.3734 C20.72952,36.4979 19.99081,37.1711 19.809,38.221 Z M28.449103,46.494114 L28.4489581,46.4942363 C29.3809781,47.1346363 29.9296821,48.0010363 29.9804581,49.1476363 C30.0132181,49.8781363 29.9362281,50.5971963 29.6856281,51.2900363 C29.3842281,52.1287363 28.8420681,52.7756663 28.1017281,53.2621363 C27.3663281,53.7453263 26.5522481,54.0319663 25.7005281,54.2186863 C24.6440281,54.4479963 23.5794281,54.5495493 22.5098281,54.5757563 L22.513104,54.5855839 C22.408274,54.5888598 22.324738,54.582308 22.224824,54.583946 C22.010254,54.5855839 21.797324,54.583946 21.582754,54.5806701 C13.198154,54.4938701 15.212854,49.6029701 15.212854,49.6029701 L18.798254,49.6029701 C18.812995,49.7585701 18.826098,49.8961601 18.839202,50.0353801 C18.896532,50.5971901 19.184802,51.0099501 19.654892,51.3047801 C19.974312,51.5046001 20.323192,51.6290871 20.690092,51.6978801 C21.879292,51.9206391 23.068392,51.9271891 24.242792,51.6192591 C24.527792,51.5439091 24.807882,51.4079591 25.058482,51.2523591 C25.517102,50.9657391 25.744771,50.5234991 25.775892,49.9862591 C25.787358,49.7847891 25.787358,49.5767791 25.757875,49.3769491 C25.644875,48.6300491 25.178055,48.1517691 24.401675,48.0125491 C24.090465,47.9568591 23.769435,47.9421179 23.451675,47.9388421 C22.300175,47.9306524 21.150375,47.9470313 19.998875,47.9322903 C19.283175,47.9224633 18.565715,47.8864283 17.851575,47.8405663 C17.427325,47.8127163 17.011295,47.7177163 16.613275,47.5604763 C15.944975,47.2967763 15.525665,46.8201363 15.388075,46.1092763 C15.319282,45.7521763 15.296351,45.3918363 15.342213,45.0265763 C15.429023,44.3353663 15.756613,43.7850163 16.318423,43.3902763 C16.619803,43.1773463 16.958853,43.0184663 17.283163,42.8382963 C17.365063,42.7924383 17.451873,42.7531283 17.559973,42.6990763 C17.507556,42.6532143 17.479712,42.6220933 17.446953,42.5991623 C16.555963,42.0258623 16.026913,41.2052623 15.817253,40.1799623 C15.553553,38.8860623 15.691133,37.6412623 16.351223,36.4815623 C16.939223,35.4479623 17.828623,34.7567823 18.909623,34.2981623 C19.918623,33.8706623 20.981623,33.7068683 22.069223,33.6954023 C23.436923,33.6806623 24.768523,33.8739423 26.016623,34.4717823 C27.058323,34.9713823 27.903523,35.6870823 28.439123,36.7304823 C29.346523,38.4993823 29.169623,41.1184823 26.943723,42.5958823 C26.111723,43.1494623 25.187893,43.4639523 24.213323,43.6424823 C23.568023,43.7620503 22.916093,43.8111886 22.260923,43.8161023 C21.587723,43.8210163 20.914573,43.8423093 20.243023,43.8636023 C19.938373,43.8734323 19.645183,43.9405823 19.381473,44.1011023 C19.130873,44.2550623 18.970355,44.4647223 19.011303,44.7792023 C19.048983,45.0871323 19.234063,45.2804093 19.520703,45.3573923 C19.732003,45.4147203 19.954763,45.4491164 20.172603,45.4507543 C21.651603,45.458944 23.130703,45.4540302 24.608103,45.458944 C25.445103,45.460574 26.265693,45.581784 27.065003,45.835664 C27.554793,45.991274 28.021603,46.202564 28.449103,46.494114 Z" id="Combined-Shape" fill="#FF0000"></path>
        </g>
    </g>
</svg>