<?xml version="1.0" encoding="UTF-8"?>
<svg version="1.1" viewBox="0 0 120 80" xmlns="http://www.w3.org/2000/svg">
<title>getnet</title>
<desc>Created with Sketch.</desc>
<g fill="none" fill-rule="evenodd">
<path d="m120 70c0 5.5-4.5 10-10 10h-100c-5.5 0-10-4.5-10-10v-60c0-5.5 4.5-10 10-10h100c5.5 0 10 4.5 10 10v60z" fill="#F5F5F5" fill-rule="nonzero"/>
<path d="m59.006 33.933h3.8672c0.026207 0.51103 0.052414 1.0106 0.078621 1.5478 0.088448-0.049138 0.15724-0.080259 0.22112-0.12121 1.1285-0.74362 2.3586-1.2399 3.6821-1.5053 0.96147-0.19328 1.9229-0.19164 2.8697 0.044224 1.4463 0.36034 2.316 1.294 2.6223 2.7534 0.1425 0.6781 0.19491 1.366 0.19655 2.0572 0.001638 3.0809 0 6.1619 0 9.2428 0 0.095-0.0081896 0.19-0.013103 0.29647h-4.1063v-0.32103c0-2.7796 0.0049138-5.5608-0.0032759-8.3403-0.0016379-0.43078-0.024569-0.8681-0.093362-1.294-0.12776-0.77966-0.65353-1.2399-1.4348-1.3431-0.665-0.088448-1.3038 0.011466-1.9344 0.21457-0.64207 0.20638-1.2563 0.47336-1.8574 0.83534v10.249h-4.0948v-14.316z" fill="#f00"/>
<path d="m40.782 39.554c0.011466-0.044224 0.022931-0.068793 0.021293-0.093362-0.019655-0.72397-0.14414-1.4234-0.47336-2.0785-0.24897-0.49793-0.64862-0.80586-1.1777-0.95655-0.42259-0.12121-0.85664-0.13431-1.2907-0.10155-0.91397 0.070431-1.6068 0.49957-2.0507 1.312-0.22767 0.41603-0.35052 0.86647-0.43405 1.33-0.034396 0.18836-0.050776 0.38-0.078621 0.58802h5.4838zm3.7509 2.5486h-9.3034c0.016379 0.25716 0.016379 0.48483 0.050776 0.70759 0.040948 0.26207 0.091724 0.52414 0.17362 0.77638 0.2981 0.91724 0.93198 1.4774 1.8623 1.7149 0.76491 0.19491 1.5413 0.19328 2.3209 0.13595 1.199-0.090086 2.3521-0.38491 3.4855-0.7731 0.073707-0.024569 0.14905-0.042586 0.24733-0.072069 0.28009 0.83534 0.55362 1.6543 0.83043 2.4847-0.076983 0.045862-0.1425 0.090086-0.21293 0.12612-1.1416 0.59293-2.357 0.94509-3.628 1.1236-0.90578 0.12776-1.8132 0.18509-2.7272 0.15233-0.93198-0.034396-1.8525-0.1556-2.7288-0.4881-1.8984-0.72069-3.04-2.1015-3.4921-4.0637-0.26534-1.1547-0.34397-2.3291-0.26043-3.5084 0.063879-0.88448 0.19655-1.7624 0.51431-2.5945 0.85009-2.2227 2.4422-3.5789 4.7909-3.9982 1.2923-0.23259 2.5961-0.20802 3.8737 0.10974 2.1277 0.53069 3.4462 1.8984 3.9654 4.0228 0.20147 0.81897 0.22767 1.6641 0.25388 2.5044 0.016379 0.46845 0.0049138 0.93853 0.0049138 1.407 0 0.068793-0.011466 0.13759-0.021293 0.23259z" fill="#f00"/>
<path d="m79.368 39.551h5.4772c0.013104-0.032759 0.026207-0.049138 0.026207-0.063879-0.014741-0.71414-0.12776-1.4053-0.44224-2.0556-0.26043-0.5356-0.6781-0.86483-1.2514-1.0172-0.38164-0.099914-0.76819-0.11466-1.1564-0.095-0.94672 0.0475-1.6691 0.46845-2.1326 1.3054-0.32922 0.59293-0.44552 1.2416-0.52086 1.9262m9.2314 2.5437h-9.2527c-0.014741 0.060604-0.034396 0.10155-0.034396 0.14086 0.0049138 0.52578 0.078621 1.0417 0.27517 1.5331 0.32922 0.82879 0.95491 1.3153 1.805 1.5331 0.76491 0.19655 1.5429 0.19164 2.3209 0.13431 1.2088-0.088448 2.3684-0.3931 3.5101-0.77966 0.058966-0.019655 0.11793-0.037672 0.21293-0.067155 0.29483 0.82552 0.55526 1.6543 0.83043 2.4897-0.080259 0.0475-0.14578 0.090086-0.21457 0.12612-1.0466 0.54052-2.1522 0.88776-3.3135 1.0728-1.009 0.16216-2.0212 0.24078-3.0416 0.19983-0.99422-0.037672-1.9704-0.17526-2.9008-0.55853-1.6772-0.69121-2.7632-1.9213-3.2251-3.6641-0.5356-2.0147-0.54871-4.0522 0.045862-6.0554 0.66664-2.2456 2.1735-3.6755 4.4421-4.2865 0.57491-0.15397 1.1662-0.20147 1.7608-0.21457 0.94017-0.021293 1.8787 0.018017 2.7861 0.28664 2.0605 0.61095 3.3234 1.9835 3.7738 4.0768 0.13103 0.60276 0.17853 1.2252 0.21621 1.8427 0.037672 0.65353 0.018017 1.3087 0.022931 1.9639 0 0.068793-0.011466 0.13759-0.019655 0.22603" fill="#f00"/>
<polygon points="103.01 31.115 104.12 31.115 104.12 30 103.01 30" fill="#f00"/>
<polygon points="104.98 31.115 106.1 31.115 106.1 30 104.98 30" fill="#f00"/>
<polygon points="106.96 31.115 108.07 31.115 108.07 30 106.96 30" fill="#f00"/>
<polygon points="103.01 33.073 104.12 33.073 104.12 31.957 103.01 31.957" fill="#f00"/>
<polygon points="104.98 33.073 106.1 33.073 106.1 31.957 104.98 31.957" fill="#f00"/>
<polygon points="106.96 33.073 108.07 33.073 108.07 31.957 106.96 31.957" fill="#f00"/>
<polygon points="103.01 35.032 104.12 35.032 104.12 33.916 103.01 33.916" fill="#f00"/>
<polygon points="104.98 35.032 106.1 35.032 106.1 33.916 104.98 33.916" fill="#f00"/>
<polygon points="106.96 35.032 108.07 35.032 108.07 33.916 106.96 33.916" fill="#f00"/>
<polygon points="103.01 36.989 104.12 36.989 104.12 35.873 103.01 35.873" fill="#f00"/>
<polygon points="104.98 36.989 106.1 36.989 106.1 35.873 104.98 35.873" fill="#f00"/>
<polygon points="106.96 36.989 108.07 36.989 108.07 35.873 106.96 35.873" fill="#f00"/>
<path d="m100.6 45.035c-0.088448 0.0081896-0.15069 0.0081896-0.20966 0.019655-0.29483 0.057328-0.58802 0.12448-0.88448 0.17526-0.57491 0.096638-1.1531 0.18017-1.7411 0.13103-0.8206-0.067155-1.2874-0.45862-1.4447-1.2645-0.058966-0.30138-0.091724-0.61422-0.093362-0.92216 0-0.049138-0.0049138-0.088448-0.0049138-0.13759v-6.0702h4.1096v-3.0072h-4.1096v-3.9589h-4.0457v3.9589h-1.9901v3.0072h1.9901v0.36198c-0.0016379 0.001638-0.0065517 0.0032759-0.0065517 0.0049138 0 2.2751 0.0016379 4.5502-0.001638 6.8253 0 0.45207 0.032759 0.90086 0.12284 1.3447 0.19655 0.96802 0.67647 1.7395 1.5364 2.2538 0.53724 0.32103 1.1171 0.5225 1.7362 0.62078 0.82716 0.1294 1.6559 0.13595 2.488 0.057328 0.92707-0.090086 1.8345-0.27353 2.7091-0.6044 0.11302-0.044224 0.22276-0.096638 0.35216-0.15397-0.17198-0.8894-0.34233-1.7624-0.51267-2.642" fill="#f00"/>
<path d="m56.56 45.035c-0.088448 0.0081896-0.15069 0.0081896-0.20966 0.019655-0.29483 0.057328-0.58802 0.12448-0.88448 0.17526-0.57491 0.096638-1.1531 0.18017-1.7411 0.13103-0.8206-0.067155-1.2874-0.45862-1.4447-1.2645-0.058966-0.30138-0.091724-0.61422-0.093362-0.92216 0-0.049138-0.0049138-0.088448-0.0049138-0.13759v-6.0702h4.1096v-3.0072h-4.1096v-3.9589h-4.0457v3.9589h-1.9901v3.0072h1.9901v0.36198c-0.001638 0.001638-0.0065517 0.0032759-0.0065517 0.0049138 0 2.2751 0.0016379 4.5502-0.001638 6.8253 0 0.45207 0.032759 0.90086 0.12284 1.3447 0.19655 0.96802 0.67647 1.7395 1.5364 2.2538 0.53724 0.32103 1.1171 0.5225 1.7362 0.62078 0.82716 0.1294 1.6559 0.13595 2.488 0.057328 0.92707-0.090086 1.8345-0.27353 2.7091-0.6044 0.11302-0.044224 0.22276-0.096638 0.35216-0.15397-0.17198-0.8894-0.34233-1.7624-0.51267-2.642" fill="#f00"/>
<path d="m19.809 38.221c0.18181-1.0499 0.92052-1.7231 1.9786-1.8476 0.42422-0.049138 0.84681-0.044224 1.2678 0.044224 1.0106 0.21293 1.6658 0.91069 1.8099 1.9344 0.050776 0.37181 0.060604 0.74362-0.014741 1.1105-0.18672 0.92871-0.78948 1.4578-1.674 1.6854-0.33086 0.085172-0.6781 0.10647-0.99422 0.15397-0.29483-0.03931-0.56181-0.050776-0.81897-0.11138-0.91069-0.21621-1.4954-0.88776-1.5904-1.8607-0.036034-0.36526-0.026207-0.7469 0.036034-1.1089m8.6401 8.2732c-0.4275-0.29155-0.89431-0.50284-1.3841-0.65845-0.79931-0.25388-1.6199-0.37509-2.4569-0.37672-1.4774-0.0049138-2.9565 0-4.4355-0.0081897-0.21784-0.0016379-0.4406-0.036034-0.6519-0.093362-0.28664-0.076983-0.47172-0.27026-0.5094-0.57819-0.040948-0.31448 0.11957-0.52414 0.37017-0.6781 0.26371-0.16052 0.5569-0.22767 0.86155-0.2375 0.67155-0.021293 1.3447-0.042586 2.0179-0.0475 0.65517-0.0049137 1.3071-0.054052 1.9524-0.17362 0.97457-0.17853 1.8984-0.49302 2.7304-1.0466 2.2259-1.4774 2.4028-4.0965 1.4954-5.8654-0.5356-1.0434-1.3808-1.7591-2.4225-2.2587-1.2481-0.59784-2.5797-0.79112-3.9474-0.77638-1.0876 0.011466-2.1506 0.17526-3.1596 0.60276-1.081 0.45862-1.9704 1.1498-2.5584 2.1834-0.66009 1.1597-0.79767 2.4045-0.53397 3.6984 0.20966 1.0253 0.73871 1.8459 1.6297 2.4192 0.032759 0.022931 0.060603 0.054052 0.11302 0.099914-0.1081 0.054052-0.19491 0.093362-0.27681 0.13922-0.32431 0.18017-0.66336 0.33905-0.96474 0.55198-0.56181 0.39474-0.8894 0.94509-0.97621 1.6363-0.045862 0.36526-0.022931 0.7256 0.045862 1.0827 0.13759 0.71086 0.5569 1.1875 1.2252 1.4512 0.39802 0.15724 0.81405 0.25224 1.2383 0.28009 0.71414 0.045862 1.4316 0.081897 2.1473 0.091724 1.1515 0.014741 2.3013-0.0016379 3.4528 0.0065518 0.31776 0.0032758 0.63879 0.018017 0.95 0.073707 0.77638 0.13922 1.2432 0.6175 1.3562 1.3644 0.029483 0.19983 0.029483 0.40784 0.018017 0.60931-0.031121 0.53724-0.25879 0.97948-0.71741 1.2661-0.2506 0.1556-0.53069 0.29155-0.81569 0.3669-1.1744 0.30793-2.3635 0.30138-3.5527 0.078621-0.3669-0.068793-0.71578-0.19328-1.0352-0.3931-0.47009-0.29483-0.75836-0.70759-0.81569-1.2694-0.013104-0.13922-0.026207-0.27681-0.040948-0.43241h-3.5854s-2.0147 4.8909 6.3699 4.9777c0.21457 0.0032759 0.4275 0.0049138 0.64207 0.0032759 0.099914-0.001638 0.18345 0.0049138 0.28828 0.0016379l-0.0032759-0.0098276c1.0696-0.026207 2.1342-0.12776 3.1907-0.35707 0.85172-0.18672 1.6658-0.47336 2.4012-0.95655 0.74034-0.48647 1.2825-1.1334 1.5839-1.9721 0.2506-0.69284 0.32759-1.4119 0.29483-2.1424-0.050776-1.1466-0.59948-2.013-1.5315-2.6534" fill="#f00"/>
</g>
</svg>
