<?xml version="1.0" encoding="UTF-8" standalone="no"?>
<svg width="120px" height="80px" viewBox="0 0 120 80" version="1.1" xmlns="http://www.w3.org/2000/svg" xmlns:xlink="http://www.w3.org/1999/xlink">
    <!-- Generator: Sketch 50.2 (55047) - http://www.bohemiancoding.com/sketch -->
    <title>getnet</title>
    <desc>Created with Sketch.</desc>
    <defs></defs>
    <g id="Page-1" stroke="none" stroke-width="1" fill="none" fill-rule="evenodd">
        <g id="getnet" fill-rule="nonzero">
            <path d="M120,70 C120,75.5 115.5,80 110,80 L10,80 C4.5,80 0,75.5 0,70 L0,10 C0,4.5 4.5,0 10,0 L110,0 C115.5,0 120,4.5 120,10 L120,70 Z" id="Shape" fill="#F5F5F5"></path>
            <path d="M110,0 L10,0 C4.5,0 0,4.5 0,10 L0,70 C0,75.5 4.5,80 10,80 L110,80 C115.5,80 120,75.5 120,70 L120,10 C120,4.5 115.5,0 110,0 Z M110,2 C114.412,2 118,5.588 118,10 L118,70 C118,74.412 114.412,78 110,78 L10,78 C5.588,78 2,74.412 2,70 L2,10 C2,5.588 5.588,2 10,2 L110,2 Z" id="Shape" fill="#FFFFFF"></path>
            <g id="getnet-logo" transform="translate(15.000000, 30.000000)" fill="#FF0000">
                <path d="M44.006,3.933 L47.8732,3.933 C47.899407,4.44403 47.925614,4.9436 47.951821,5.4808 C48.040269,5.431662 48.109061,5.400541 48.172941,5.35959 C49.301441,4.61597 50.531541,4.11969 51.855041,3.85429 C52.816511,3.66101 53.777941,3.66265 54.724741,3.898514 C56.171041,4.258854 57.040741,5.192514 57.347041,6.651914 C57.489541,7.330014 57.541951,8.017914 57.543591,8.709114 C57.545229,11.790014 57.543591,14.871014 57.543591,17.951914 C57.543591,18.046914 57.5354014,18.141914 57.530488,18.248384 L53.424188,18.248384 L53.424188,17.927354 C53.424188,15.147754 53.4291018,12.366554 53.4209121,9.587054 C53.4192742,9.156274 53.3963431,8.718954 53.3275501,8.293054 C53.1997901,7.513394 52.6740201,7.053154 51.8927501,6.949954 C51.2277501,6.861506 50.5889501,6.96142 49.9583501,7.164524 C49.3162801,7.370904 48.7020501,7.637884 48.1009501,7.999864 L48.1009501,18.248864 L44.0061501,18.248864 L44.0061501,3.932864 L44.006,3.933 Z" id="Shape"></path>
                <path d="M25.782,9.554 C25.793466,9.509776 25.804931,9.485207 25.803293,9.460638 C25.783638,8.736668 25.659153,8.037238 25.329933,7.382138 C25.080963,6.884208 24.681313,6.576278 24.152233,6.425588 C23.729643,6.304378 23.295593,6.291278 22.861533,6.324038 C21.947563,6.394469 21.254733,6.823608 20.810833,7.636038 C20.583163,8.052068 20.460313,8.502508 20.376783,8.966038 C20.342387,9.154398 20.326007,9.346038 20.298162,9.554058 L25.781962,9.554058 L25.782,9.554 Z M29.5329,12.1026 L20.2295,12.1026 C20.245879,12.35976 20.245879,12.58743 20.280276,12.81019 C20.321224,13.07226 20.372,13.33433 20.453896,13.58657 C20.751996,14.50381 21.385876,15.06397 22.316196,15.30147 C23.081106,15.49638 23.857496,15.49475 24.637096,15.43742 C25.836096,15.347334 26.989196,15.05251 28.122596,14.66432 C28.196303,14.639751 28.271646,14.621734 28.369926,14.592251 C28.650016,15.427591 28.923546,16.246551 29.200356,17.076951 C29.123373,17.122813 29.057856,17.167037 28.987426,17.203071 C27.845826,17.796001 26.630426,18.148161 25.359426,18.326671 C24.453646,18.454431 23.546226,18.511761 22.632226,18.479001 C21.700246,18.444605 20.779726,18.323401 19.903426,17.990901 C18.005026,17.270211 16.863426,15.889401 16.411326,13.927201 C16.145986,12.772501 16.067356,11.598101 16.150896,10.418801 C16.214775,9.534321 16.347446,8.656401 16.665206,7.824301 C17.515296,5.601601 19.107406,4.245401 21.456106,3.826101 C22.748406,3.593511 24.052206,3.618081 25.329806,3.935841 C27.457506,4.466531 28.776006,5.834241 29.295206,7.958641 C29.496676,8.777611 29.522876,9.622741 29.549086,10.463041 C29.565465,10.931491 29.5539998,11.401571 29.5539998,11.870041 C29.5539998,11.938834 29.5425338,12.007631 29.5327068,12.102631 L29.5329,12.1026 Z" id="Shape"></path>
                <path d="M64.368,9.551 L69.8452,9.551 C69.858304,9.518241 69.871407,9.501862 69.871407,9.487121 C69.856666,8.772981 69.743647,8.081821 69.429167,7.431521 C69.168737,6.895921 68.751067,6.566691 68.177767,6.414321 C67.796127,6.314407 67.409577,6.299661 67.021367,6.319321 C66.074647,6.366821 65.352267,6.787771 64.888767,7.624721 C64.559547,8.217651 64.443247,8.866321 64.367907,9.550921 M73.599307,12.094621 L64.346607,12.094621 C64.331866,12.155225 64.312211,12.196171 64.312211,12.235481 C64.3171248,12.761261 64.390832,13.277181 64.587381,13.768581 C64.916601,14.597371 65.542291,15.083881 66.392381,15.301681 C67.157291,15.498231 67.935281,15.493321 68.713281,15.435991 C69.922081,15.347543 71.081681,15.042891 72.223381,14.656331 C72.282347,14.636676 72.341311,14.618659 72.436311,14.589176 C72.731141,15.414696 72.991571,16.243476 73.266741,17.078876 C73.186482,17.126376 73.120961,17.168962 73.052171,17.204996 C72.005571,17.745516 70.899971,18.092756 69.738671,18.277796 C68.729671,18.439956 67.717471,18.518576 66.697071,18.477626 C65.702851,18.439954 64.726671,18.302366 63.796271,17.919096 C62.119071,17.227886 61.033071,15.997796 60.571171,14.254996 C60.035571,12.240296 60.022461,10.202796 60.617033,8.199596 C61.283673,5.953996 62.790533,4.524096 65.059133,3.913096 C65.634043,3.759126 66.225333,3.711626 66.819933,3.698526 C67.760103,3.677233 68.698633,3.716543 69.606033,3.985166 C71.666533,4.596116 72.929433,5.968666 73.379833,8.061966 C73.510863,8.664726 73.558363,9.287166 73.596043,9.904666 C73.633715,10.558196 73.61406,11.213366 73.618974,11.868566 C73.618974,11.937359 73.607508,12.006156 73.599319,12.094596" id="Shape"></path>
                <polygon id="Shape" points="88.01 1.115 89.12 1.115 89.12 0 88.01 0"></polygon>
                <polygon id="Shape" points="89.98 1.115 91.1 1.115 91.1 0 89.98 0"></polygon>
                <polygon id="Shape" points="91.96 1.115 93.07 1.115 93.07 0 91.96 0"></polygon>
                <polygon id="Shape" points="88.01 3.073 89.12 3.073 89.12 1.957 88.01 1.957"></polygon>
                <polygon id="Shape" points="89.98 3.073 91.1 3.073 91.1 1.957 89.98 1.957"></polygon>
                <polygon id="Shape" points="91.96 3.073 93.07 3.073 93.07 1.957 91.96 1.957"></polygon>
                <polygon id="Shape" points="88.01 5.032 89.12 5.032 89.12 3.916 88.01 3.916"></polygon>
                <polygon id="Shape" points="89.98 5.032 91.1 5.032 91.1 3.916 89.98 3.916"></polygon>
                <polygon id="Shape" points="91.96 5.032 93.07 5.032 93.07 3.916 91.96 3.916"></polygon>
                <polygon id="Shape" points="88.01 6.989 89.12 6.989 89.12 5.873 88.01 5.873"></polygon>
                <polygon id="Shape" points="89.98 6.989 91.1 6.989 91.1 5.873 89.98 5.873"></polygon>
                <polygon id="Shape" points="91.96 6.989 93.07 6.989 93.07 5.873 91.96 5.873"></polygon>
                <path d="M85.6,15.035 C85.511552,15.0431896 85.44931,15.0431896 85.39034,15.054655 C85.09551,15.111983 84.80232,15.179135 84.50586,15.229915 C83.93095,15.326553 83.35276,15.410085 82.76476,15.360945 C81.94416,15.29379 81.47736,14.902325 81.32006,14.096445 C81.261094,13.795065 81.228336,13.482225 81.226698,13.174285 C81.226698,13.125147 81.2217842,13.085837 81.2217842,13.036695 L81.2217842,6.966495 L85.3313842,6.966495 L85.3313842,3.959295 L81.2217842,3.959295 L81.2217842,0.000395 L77.1760842,0.000395 L77.1760842,3.959295 L75.1859842,3.959295 L75.1859842,6.966495 L77.1760842,6.966495 L77.1760842,7.328475 C77.1744463,7.330113 77.1695325,7.3317509 77.1695325,7.3333888 C77.1695325,9.6084888 77.1711704,11.8835888 77.1678945,14.1586888 C77.1678945,14.6107588 77.2006535,15.0595488 77.2907345,15.5033888 C77.4872845,16.4714088 77.9672045,17.2428888 78.8271345,17.7571888 C79.3643745,18.0782188 79.9442345,18.2796888 80.5633345,18.3779688 C81.3904945,18.5073688 82.2192345,18.5139188 83.0513345,18.4352968 C83.9784045,18.3452108 84.8858345,18.1617668 85.7604345,17.8308968 C85.8734545,17.7866728 85.9831945,17.7342588 86.1125945,17.6769268 C85.9406145,16.7875268 85.7702645,15.9145268 85.5999245,15.0349268" id="Shape"></path>
                <path d="M41.56,15.035 C41.471552,15.0431896 41.40931,15.0431896 41.35034,15.054655 C41.05551,15.111983 40.76232,15.179135 40.46586,15.229915 C39.89095,15.326553 39.31276,15.410085 38.72476,15.360945 C37.90416,15.29379 37.43736,14.902325 37.28006,14.096445 C37.221094,13.795065 37.188336,13.482225 37.186698,13.174285 C37.186698,13.125147 37.1817842,13.085837 37.1817842,13.036695 L37.1817842,6.966495 L41.2913842,6.966495 L41.2913842,3.959295 L37.1817842,3.959295 L37.1817842,0.000395 L33.1360842,0.000395 L33.1360842,3.959295 L31.1459842,3.959295 L31.1459842,6.966495 L33.1360842,6.966495 L33.1360842,7.328475 C33.1344462,7.330113 33.1295325,7.3317509 33.1295325,7.3333888 C33.1295325,9.6084888 33.1311704,11.8835888 33.1278945,14.1586888 C33.1278945,14.6107588 33.1606535,15.0595488 33.2507345,15.5033888 C33.4472845,16.4714088 33.9272045,17.2428888 34.7871345,17.7571888 C35.3243745,18.0782188 35.9042345,18.2796888 36.5233345,18.3779688 C37.3504945,18.5073688 38.1792345,18.5139188 39.0113345,18.4352968 C39.9384045,18.3452108 40.8458345,18.1617668 41.7204345,17.8308968 C41.8334545,17.7866728 41.9431945,17.7342588 42.0725945,17.6769268 C41.9006145,16.7875268 41.7302645,15.9145268 41.5599245,15.0349268" id="Shape"></path>
                <path d="M4.809,8.221 C4.99081,7.1711 5.72952,6.4979 6.7876,6.3734 C7.21182,6.324262 7.63441,6.329176 8.0554,6.417624 C9.066,6.630554 9.7212,7.328314 9.8653,8.352024 C9.916076,8.723834 9.925904,9.095644 9.850559,9.462524 C9.663839,10.391234 9.061079,10.920324 8.176559,11.147924 C7.845699,11.233096 7.498459,11.254394 7.182339,11.301894 C6.887509,11.262584 6.620529,11.251118 6.363369,11.190514 C5.452679,10.974304 4.867969,10.302754 4.772969,9.329814 C4.736935,8.964554 4.746762,8.582914 4.809003,8.220914 M13.449103,16.494114 C13.021603,16.202564 12.554793,15.991274 12.065003,15.835664 C11.265693,15.581784 10.445103,15.460574 9.608103,15.458944 C8.130703,15.4540302 6.651603,15.458944 5.172603,15.4507543 C4.954763,15.4491164 4.732003,15.4147203 4.520703,15.3573923 C4.234063,15.2804093 4.048983,15.0871323 4.011303,14.7792023 C3.970355,14.4647223 4.130873,14.2550623 4.381473,14.1011023 C4.645183,13.9405823 4.938373,13.8734323 5.243023,13.8636023 C5.914573,13.8423093 6.587723,13.8210163 7.260923,13.8161023 C7.916093,13.8111886 8.568023,13.7620503 9.213323,13.6424823 C10.187893,13.4639523 11.111723,13.1494623 11.943723,12.5958823 C14.169623,11.1184823 14.346523,8.4993823 13.439123,6.7304823 C12.903523,5.6870823 12.058323,4.9713823 11.016623,4.4717823 C9.768523,3.8739423 8.436923,3.6806623 7.069223,3.6954023 C5.981623,3.7068683 4.918623,3.8706623 3.909623,4.2981623 C2.828623,4.7567823 1.939223,5.4479623 1.351223,6.4815623 C0.691133,7.6412623 0.553553,8.8860623 0.817253,10.1799623 C1.026913,11.2052623 1.555963,12.0258623 2.446953,12.5991623 C2.479712,12.6220933 2.507556,12.6532143 2.559973,12.6990763 C2.451873,12.7531283 2.365063,12.7924383 2.283163,12.8382963 C1.958853,13.0184663 1.619803,13.1773463 1.318423,13.3902763 C0.756613,13.7850163 0.429023,14.3353663 0.342213,15.0265763 C0.296351,15.3918363 0.319282,15.7521763 0.388075,16.1092763 C0.525665,16.8201363 0.944975,17.2967763 1.613275,17.5604763 C2.011295,17.7177163 2.427325,17.8127163 2.851575,17.8405663 C3.565715,17.8864283 4.283175,17.9224633 4.998875,17.9322903 C6.150375,17.9470313 7.300175,17.9306524 8.451675,17.9388421 C8.769435,17.9421179 9.090465,17.9568591 9.401675,18.0125491 C10.178055,18.1517691 10.644875,18.6300491 10.757875,19.3769491 C10.787358,19.5767791 10.787358,19.7847891 10.775892,19.9862591 C10.744771,20.5234991 10.517102,20.9657391 10.058482,21.2523591 C9.807882,21.4079591 9.527792,21.5439091 9.242792,21.6192591 C8.068392,21.9271891 6.879292,21.9206391 5.690092,21.6978801 C5.323192,21.6290871 4.974312,21.5046001 4.654892,21.3047801 C4.184802,21.0099501 3.896532,20.5971901 3.839202,20.0353801 C3.826098,19.8961601 3.812995,19.7585701 3.798254,19.6029701 L0.212854,19.6029701 C0.212854,19.6029701 -1.801846,24.4938701 6.582754,24.5806701 C6.797324,24.583946 7.010254,24.5855839 7.224824,24.583946 C7.324738,24.582308 7.408274,24.5888598 7.513104,24.5855839 L7.5098281,24.5757563 C8.5794281,24.5495493 9.6440281,24.4479963 10.7005281,24.2186863 C11.5522481,24.0319663 12.3663281,23.7453263 13.1017281,23.2621363 C13.8420681,22.7756663 14.3842281,22.1287363 14.6856281,21.2900363 C14.9362281,20.5971963 15.0132181,19.8781363 14.9804581,19.1476363 C14.9296821,18.0010363 14.3809781,17.1346363 13.4489581,16.4942363" id="Shape"></path>
            </g>
        </g>
    </g>
</svg>