<?xml version="1.0" encoding="UTF-8"?>
<svg width="120px" height="80px" viewBox="0 0 120 80" version="1.1" xmlns="http://www.w3.org/2000/svg" xmlns:xlink="http://www.w3.org/1999/xlink">
    <!-- Generator: Sketch 52.4 (67378) - http://www.bohemiancoding.com/sketch -->
    <title>iugu</title>
    <desc>Created with Sketch.</desc>
    <g id="Page-1" stroke="none" stroke-width="1" fill="none" fill-rule="evenodd">
        <g id="iugu">
            <path d="M120,70 C120,75.5 115.5,80 110,80 L10,80 C4.5,80 0,75.5 0,70 L0,10 C0,4.5 4.5,0 10,0 L110,0 C115.5,0 120,4.5 120,10 L120,70 Z" id="Shape" fill="#F5F5F5"></path>
            <path d="M110,0 L10,0 C4.5,0 0,4.5 0,10 L0,70 C0,75.5 4.5,80 10,80 L110,80 C115.5,80 120,75.5 120,70 L120,10 C120,4.5 115.5,0 110,0 Z M110,2 C114.412,2 118,5.588 118,10 L118,70 C118,74.412 114.412,78 110,78 L10,78 C5.588,78 2,74.412 2,70 L2,10 C2,5.588 5.588,2 10,2 L110,2 Z" id="Shape" fill="#D0D0D0" fill-rule="nonzero"></path>
            <path d="M52.1841523,28.9130435 L53.8795591,28.9130435 C54.3394041,28.9130435 54.7160922,29.288002 54.7160922,29.746651 L54.7160922,31.4357163 C54.7160922,31.8943653 54.3394041,32.2693238 53.8795591,32.2693238 L52.1841523,32.2693238 C51.7241005,32.2693238 51.3478261,31.8943653 51.3478261,31.4357163 L51.3478261,29.746651 C51.3478261,29.288002 51.7241005,28.9130435 52.1841523,28.9130435 Z M54.7160922,33.5228271 L54.7160922,47.1291407 L53.5932679,47.1291407 C52.3583266,47.1291407 51.3478261,46.1223802 51.3478261,44.8917578 L51.3478261,35.7602099 C51.3478261,34.5297937 52.3583266,33.5228271 53.5932679,33.5228271 L54.7160922,33.5228271 Z M60.6100925,33.5228271 L60.6100925,41.6653422 C60.6100925,43.1101382 61.7854587,44.2811877 63.2353253,44.2811877 C64.684985,44.2811877 65.8601444,43.1101382 65.8601444,41.6653422 L65.8601444,35.7602099 C65.8601444,34.5297937 66.8708518,33.5228271 68.105793,33.5228271 L69.2282036,33.5228271 L69.2282036,41.6653422 C69.2282036,44.9634926 66.5452575,47.6374681 63.2353253,47.6374681 C59.9253931,47.6374681 57.2420332,44.9634926 57.2420332,41.6653422 L57.2420332,35.7602099 C57.2420332,34.5297937 58.2525338,33.5228271 59.487475,33.5228271 L60.6100925,33.5228271 Z M80.4237634,45.5219107 L80.4237634,45.1933325 C79.7523029,45.8546116 78.7858631,46.3309882 77.3117941,46.3309882 C73.4621698,46.3309882 71.2440333,43.3599731 71.2440333,39.7134555 C71.2440333,36.0308644 73.9863476,33.0144997 77.7317155,33.0144997 C81.6280897,33.0144997 83.7918227,36.030246 83.7918227,39.6782065 C83.7918227,39.7942602 83.7891335,39.9096955 83.7837552,40.0243062 L83.7918227,40.0243062 L83.7918227,45.4936703 C83.7918227,49.4230043 81.1144617,51.7391304 77.2766283,51.7391304 C74.6923534,51.7391304 72.3567215,50.858112 72.3567215,48.7563656 L72.3567215,47.6374681 C73.691782,48.3974856 74.9728526,48.6619561 76.1984853,48.7510061 C77.9733255,48.8800463 80.4237634,48.5964053 80.4237634,45.5219107 Z M77.7317155,36.37078 C75.9984537,36.37078 74.6125062,37.7242585 74.6125062,39.7134555 C74.6125062,41.7026525 75.5268179,42.9747079 77.3117941,42.9747079 C79.2113696,42.9747079 80.4237634,41.522491 80.4237634,39.6782065 C80.4237634,37.833922 79.6623197,36.37078 77.7317155,36.37078 Z M89.6862367,33.5228271 L89.6862367,41.6653422 C89.6862367,43.1101382 90.8611892,44.2811877 92.3110558,44.2811877 C93.7609223,44.2811877 94.9362886,43.1101382 94.9362886,41.6653422 L94.9362886,35.7602099 C94.9362886,34.5297937 95.9465822,33.5228271 97.1815235,33.5228271 L98.3043478,33.5228271 L98.3043478,41.6653422 C98.3043478,44.9634926 95.620988,47.6374681 92.3110558,47.6374681 C89.0011235,47.6374681 86.3181774,44.9634926 86.3181774,41.6653422 L86.3181774,35.7602099 C86.3181774,34.5297937 87.3284711,33.5228271 88.5634124,33.5228271 L89.6862367,33.5228271 Z M32.8770724,37.6509759 L35.2535331,37.6509759 C35.8984092,37.6509759 36.4260728,38.1758988 36.4260728,38.8176781 L36.4260728,41.18252 C36.4260728,41.8245061 35.8984092,42.3494291 35.2535331,42.3494291 L32.8770724,42.3494291 C32.2321963,42.3494291 31.7047405,41.8245061 31.7047405,41.18252 L31.7047405,38.8176781 C31.7047405,38.1758988 32.2321963,37.6509759 32.8770724,37.6509759 Z M24.5919842,37.329776 C26.4659279,37.1018544 27.7498609,37.7730029 28.0029899,39.7736252 C28.2469746,41.6964812 28.9768504,43.2844868 30.1791088,44.364736 C31.4223085,45.4828342 33.241179,46.125234 35.6413316,46.1146859 C37.4265347,46.1062061 39.0473495,46.4689779 40.4844484,47.1169619 C42.0329407,47.8152045 43.368414,48.8408518 44.4665529,50.0888364 L45.5836037,51.3585377 C46.3872569,52.2712583 46.294152,53.6584364 45.3764038,54.4567825 C44.4580321,55.2551287 43.063537,55.1626777 42.2598839,54.2507844 L41.1426252,52.980049 C40.4545219,52.1986626 39.624683,51.5589515 38.666617,51.1279273 C37.7721451,50.7239973 36.7656563,50.4981439 35.6592044,50.5033146 C32.0892138,50.519447 29.2675953,49.4598803 27.2184565,47.6172726 C25.360723,45.9479846 24.1925476,43.6890373 23.7209963,41.0484971 C23.5931849,40.334329 23.5061069,39.3134387 23.4896888,38.5870678 C23.4705691,37.6799315 23.8010083,37.425743 24.5919842,37.329776 Z M43.5379979,42.6706289 C41.6648854,42.8985506 40.3809524,42.2271952 40.1276156,40.2261593 C39.8838388,38.3039238 39.1537551,36.7155045 37.9514967,35.6350485 C36.7080892,34.5175707 34.888803,33.8753778 32.4886504,33.8857191 C30.7040708,33.8933716 29.083256,33.5314271 27.6455336,32.8834431 C26.0970414,32.18458 24.7621916,31.1589327 23.6642605,29.9115686 L22.5463783,28.6416605 C21.7433487,27.7289399 21.8362457,26.3419686 22.7542017,25.5436224 C23.6719499,24.744449 25.0672763,24.8375204 25.8709295,25.7496206 L26.9879803,27.0195287 C27.6752524,27.8017424 28.5059225,28.4412466 29.463365,28.8724776 C30.357837,29.2764077 31.3649492,29.5014337 32.4716089,29.4972972 C36.0413917,29.480958 38.8623867,30.5399042 40.912149,32.3820982 C42.7696747,34.0524204 43.9374345,36.3105403 44.4098171,38.9519078 C44.5374207,39.6656624 44.6247065,40.6863458 44.6400854,41.4131304 C44.6600365,42.3196462 44.328766,42.5738346 43.5379979,42.6706289 Z" id="Combined-Shape" fill="#1A1919" fill-rule="nonzero"></path>
        </g>
    </g>
</svg>