<?xml version="1.0" encoding="UTF-8"?>
<svg width="120px" height="80px" viewBox="0 0 120 80" version="1.1" xmlns="http://www.w3.org/2000/svg" xmlns:xlink="http://www.w3.org/1999/xlink">
    <!-- Generator: Sketch 49.3 (51167) - http://www.bohemiancoding.com/sketch -->
    <title>Group</title>
    <desc>Created with Sketch.</desc>
    <defs>
        <polygon id="path-1" points="0 0 76.3043478 0 76.3043478 30 0 30"></polygon>
    </defs>
    <g id="Page-1" stroke="none" stroke-width="1" fill="none" fill-rule="evenodd">
        <g id="Group">
            <path d="M120,70 C120,75.5 115.5,80 110,80 L10,80 C4.5,80 0,75.5 0,70 L0,10 C0,4.5 4.5,0 10,0 L110,0 C115.5,0 120,4.5 120,10 L120,70 Z" id="Shape" fill="#F5F5F5" fill-rule="nonzero"></path>
            <path d="M110,0 L10,0 C4.5,0 0,4.5 0,10 L0,70 C0,75.5 4.5,80 10,80 L110,80 C115.5,80 120,75.5 120,70 L120,10 C120,4.5 115.5,0 110,0 Z M110,2 C114.412,2 118,5.588 118,10 L118,70 C118,74.412 114.412,78 110,78 L10,78 C5.588,78 2,74.412 2,70 L2,10 C2,5.588 5.588,2 10,2 L110,2 Z" id="Shape" fill="#FFFFFF" fill-rule="nonzero"></path>
            <g id="iugu-logo" transform="translate(22.000000, 25.000000)">
                <mask id="mask-2" fill="white">
                    <use xlink:href="#path-1"></use>
                </mask>
                <g id="Clip-2"></g>
                <path d="M30.1841523,3.91304348 L31.8795591,3.91304348 C32.3394041,3.91304348 32.7160922,4.28800196 32.7160922,4.746651 L32.7160922,6.4357163 C32.7160922,6.89436535 32.3394041,7.26932382 31.8795591,7.26932382 L30.1841523,7.26932382 C29.7241005,7.26932382 29.3478261,6.89436535 29.3478261,6.4357163 L29.3478261,4.746651 C29.3478261,4.28800196 29.7241005,3.91304348 30.1841523,3.91304348 Z M32.7160922,8.52282713 L31.5932679,8.52282713 C30.3583266,8.52282713 29.3478261,9.52979368 29.3478261,10.7602099 L29.3478261,19.8917578 C29.3478261,21.1223802 30.3583266,22.1291407 31.5932679,22.1291407 L32.7160922,22.1291407 L32.7160922,8.52282713 Z M38.6100925,8.52282713 L37.487475,8.52282713 C36.2525338,8.52282713 35.2420332,9.52979368 35.2420332,10.7602099 L35.2420332,16.6653422 C35.2420332,19.9634926 37.9253931,22.6374681 41.2353253,22.6374681 C44.5452575,22.6374681 47.2282036,19.9634926 47.2282036,16.6653422 L47.2282036,8.52282713 L46.105793,8.52282713 C44.8708518,8.52282713 43.8601444,9.52979368 43.8601444,10.7602099 L43.8601444,16.6653422 C43.8601444,18.1101382 42.684985,19.2811877 41.2353253,19.2811877 C39.7854587,19.2811877 38.6100925,18.1101382 38.6100925,16.6653422 L38.6100925,8.52282713 Z M58.4237634,20.5219107 L58.4237634,20.1933325 C57.7523029,20.8546116 56.7858631,21.3309882 55.3117941,21.3309882 C51.4621698,21.3309882 49.2440333,18.3599731 49.2440333,14.7134555 C49.2440333,11.0308644 51.9863476,8.01449969 55.7317155,8.01449969 C59.6280897,8.01449969 61.7918227,11.030246 61.7918227,14.6782065 C61.7918227,14.7942602 61.7891335,14.9096955 61.7837552,15.0243062 L61.7918227,15.0243062 L61.7918227,20.4936703 C61.7918227,24.4230043 59.1144617,26.7391304 55.2766283,26.7391304 C52.6923534,26.7391304 50.3567215,25.858112 50.3567215,23.7563656 L50.3567215,22.6374681 C51.691782,23.3974856 52.9728526,23.6619561 54.1984853,23.7510061 C55.9733255,23.8800463 58.4237634,23.5964053 58.4237634,20.5219107 Z M55.7317155,11.37078 C57.6623197,11.37078 58.4237634,12.833922 58.4237634,14.6782065 C58.4237634,16.522491 57.2113696,17.9747079 55.3117941,17.9747079 C53.5268179,17.9747079 52.6125062,16.7026525 52.6125062,14.7134555 C52.6125062,12.7242585 53.9984537,11.37078 55.7317155,11.37078 Z M67.6862367,8.52282713 L66.5634124,8.52282713 C65.3284711,8.52282713 64.3181774,9.52979368 64.3181774,10.7602099 L64.3181774,16.6653422 C64.3181774,19.9634926 67.0011235,22.6374681 70.3110558,22.6374681 C73.620988,22.6374681 76.3043478,19.9634926 76.3043478,16.6653422 L76.3043478,8.52282713 L75.1815235,8.52282713 C73.9465822,8.52282713 72.9362886,9.52979368 72.9362886,10.7602099 L72.9362886,16.6653422 C72.9362886,18.1101382 71.7609223,19.2811877 70.3110558,19.2811877 C68.8611892,19.2811877 67.6862367,18.1101382 67.6862367,16.6653422 L67.6862367,8.52282713 Z" id="Fill-1" fill="#1A1919" mask="url(#mask-2)"></path>
                <path d="M10.8770724,12.6509759 L13.2535331,12.6509759 C13.8984092,12.6509759 14.4260728,13.1758988 14.4260728,13.8176781 L14.4260728,16.18252 C14.4260728,16.8245061 13.8984092,17.3494291 13.2535331,17.3494291 L10.8770724,17.3494291 C10.2321963,17.3494291 9.70474052,16.8245061 9.70474052,16.18252 L9.70474052,13.8176781 C9.70474052,13.1758988 10.2321963,12.6509759 10.8770724,12.6509759 Z M2.59198419,12.329776 C4.46592791,12.1018544 5.74986095,12.7730029 6.00298987,14.7736252 C6.24697456,16.6964812 6.97685039,18.2844868 8.17910884,19.364736 C9.4223085,20.4828342 11.241179,21.125234 13.6413316,21.1146859 C15.4265347,21.1062061 17.0473495,21.4689779 18.4844484,22.1169619 C20.0329407,22.8152045 21.368414,23.8408518 22.4665529,25.0888364 L23.5836037,26.3585377 C24.3872569,27.2712583 24.294152,28.6584364 23.3764038,29.4567825 C22.4580321,30.2551287 21.063537,30.1626777 20.2598839,29.2507844 L19.1426252,27.980049 C18.4545219,27.1986626 17.624683,26.5589515 16.666617,26.1279273 C15.7721451,25.7239973 14.7656563,25.4981439 13.6592044,25.5033146 C10.0892138,25.519447 7.26759534,24.4598803 5.21845649,22.6172726 C3.36072299,20.9479846 2.19254758,18.6890373 1.72099626,16.0484971 C1.59318486,15.334329 1.50610685,14.3134387 1.4896888,13.5870678 C1.47056905,12.6799315 1.80100827,12.425743 2.59198419,12.329776 Z M21.5379979,17.6706289 C22.328766,17.5738346 22.6600365,17.3196462 22.6400854,16.4131304 C22.6247065,15.6863458 22.5374207,14.6656624 22.4098171,13.9519078 C21.9374345,11.3105403 20.7696747,9.05242037 18.912149,7.38209824 C16.8623867,5.5399042 14.0413917,4.48095803 10.4716089,4.49729723 C9.36494923,4.50143374 8.35783697,4.27640768 7.463365,3.87247763 C6.50592253,3.44124662 5.67525235,2.80174241 4.98798032,2.01952866 L3.87092947,0.749620557 C3.06727633,-0.162479561 1.67194993,-0.255551002 0.754201739,0.543622435 C-0.163754279,1.34196857 -0.256651345,2.72893986 0.546378325,3.64166046 L1.66426047,4.91156856 C2.76219156,6.15893269 4.09704135,7.18457996 5.6455336,7.88344307 C7.08325598,8.53142712 8.70407078,8.89337162 10.4886504,8.88571907 C12.888803,8.8753778 14.7080892,9.51757074 15.9514967,10.6350485 C17.1537551,11.7155045 17.8838388,13.3039238 18.1276156,15.2261593 C18.3809524,17.2271952 19.6648854,17.8985506 21.5379979,17.6706289 Z" id="Fill-3" fill="#1A1919" mask="url(#mask-2)"></path>
            </g>
        </g>
    </g>
</svg>