<?xml version="1.0" encoding="UTF-8"?>
<svg width="120px" height="80px" viewBox="0 0 120 80" version="1.1" xmlns="http://www.w3.org/2000/svg" xmlns:xlink="http://www.w3.org/1999/xlink">
    <!-- Generator: Sketch 52.4 (67378) - http://www.bohemiancoding.com/sketch -->
    <title>pag-seguro-uol</title>
    <desc>Created with Sketch.</desc>
    <defs>
        <radialGradient cx="66.0498338%" cy="17.4453005%" fx="66.0498338%" fy="17.4453005%" r="141.032126%" gradientTransform="translate(0.660498,0.174453),scale(1.000000,0.663907),translate(-0.660498,-0.174453)" id="radialGradient-1">
            <stop stop-color="#FFFF00" offset="0%"></stop>
            <stop stop-color="#FF9900" offset="100%"></stop>
        </radialGradient>
        <linearGradient x1="49.9867065%" y1="100.004982%" x2="49.9867065%" y2="0.00830288941%" id="linearGradient-2">
            <stop stop-color="#FF3000" offset="31.47%"></stop>
            <stop stop-color="#FFAD00" offset="100%"></stop>
        </linearGradient>
        <linearGradient x1="-4.90097708%" y1="96.5805836%" x2="112.484397%" y2="15.6470686%" id="linearGradient-3">
            <stop stop-color="#FF3000" offset="0%"></stop>
            <stop stop-color="#FFAD00" offset="100%"></stop>
        </linearGradient>
        <linearGradient x1="93.1053068%" y1="-45.599051%" x2="7.18283582%" y2="143.653618%" id="linearGradient-4">
            <stop stop-color="#FF1F00" offset="25.38%"></stop>
            <stop stop-color="#FFD900" offset="79.19%"></stop>
        </linearGradient>
        <radialGradient cx="64.0375499%" cy="-8.01706113%" fx="64.0375499%" fy="-8.01706113%" r="202.417361%" gradientTransform="translate(0.640375,-0.080171),scale(0.654889,1.000000),translate(-0.640375,0.080171)" id="radialGradient-5">
            <stop stop-color="#FF7D00" offset="44.67%"></stop>
            <stop stop-color="#FFEB00" offset="52.79%"></stop>
        </radialGradient>
        <radialGradient cx="80.7057997%" cy="10.2778588%" fx="80.7057997%" fy="10.2778588%" r="180.547367%" gradientTransform="translate(0.807058,0.102779),scale(0.884956,1.000000),translate(-0.807058,-0.102779)" id="radialGradient-6">
            <stop stop-color="#FF9C00" offset="0.51%"></stop>
            <stop stop-color="#FF0000" offset="38.07%"></stop>
        </radialGradient>
        <linearGradient x1="0.00876616261%" y1="49.9979037%" x2="100.002192%" y2="49.9979037%" id="linearGradient-7">
            <stop stop-color="#FF1F00" offset="25.38%"></stop>
            <stop stop-color="#FFD900" offset="69.04%"></stop>
        </linearGradient>
        <radialGradient cx="69.015552%" cy="35.5351705%" fx="69.015552%" fy="35.5351705%" r="153.769032%" gradientTransform="translate(0.690156,0.355352),scale(0.554027,1.000000),translate(-0.690156,-0.355352)" id="radialGradient-8">
            <stop stop-color="#FFFFFF" offset="8.12%"></stop>
            <stop stop-color="#FFD900" offset="37.56%"></stop>
            <stop stop-color="#FF8000" offset="81.22%"></stop>
        </radialGradient>
        <linearGradient x1="-21.3709244%" y1="10.9066945%" x2="121.551706%" y2="83.8480971%" id="linearGradient-9">
            <stop stop-color="#FFD900" offset="31.98%"></stop>
            <stop stop-color="#FF4700" offset="93.4%"></stop>
        </linearGradient>
    </defs>
    <g id="Page-1" stroke="none" stroke-width="1" fill="none" fill-rule="evenodd">
        <g id="pag-seguro-uol">
            <path d="M120,70 C120,75.5 115.5,80 110,80 L10,80 C4.5,80 0,75.5 0,70 L0,10 C0,4.5 4.5,0 10,0 L110,0 C115.5,0 120,4.5 120,10 L120,70 Z" id="Path" fill="#F5F5F5"></path>
            <path d="M110,0 L10,0 C4.5,0 0,4.5 0,10 L0,70 C0,75.5 4.5,80 10,80 L110,80 C115.5,80 120,75.5 120,70 L120,10 C120,4.5 115.5,0 110,0 Z M110,2 C114.412,2 118,5.588 118,10 L118,70 C118,74.412 114.412,78 110,78 L10,78 C5.588,78 2,74.412 2,70 L2,10 C2,5.588 5.588,2 10,2 L110,2 Z" id="Shape" fill="#D0D0D0" fill-rule="nonzero"></path>
            <g id="Group" transform="translate(13.000000, 22.000000)">
                <circle id="Oval" fill="#000000" cx="15.649" cy="15.057" r="14.683"></circle>
                <path d="M18.133,24.178 C17.528,23.073 17.358,21.61 17.763,20.019 C18.425,17.421 20.427,15.245 22.662,14.443 C23.965,16.659 24.375,19.288 23.65,21.754 C22.091,22.988 20.203,23.844 18.133,24.178 Z" id="Path" fill="url(#radialGradient-1)"></path>
                <path d="M20.723,26.125 C19.696,25.903 18.869,25.316 18.317,24.482 C20.256,24.084 22.032,23.263 23.533,22.126 C23.442,22.39 23.338,22.652 23.221,22.911 C22.634,24.199 21.771,25.28 20.723,26.125 Z" id="Path" fill="#FD0100"></path>
                <path d="M25.325,20.138 C25.732,18.092 25.477,15.999 24.662,14.116 C25.942,14.164 26.982,14.729 27.671,15.631 C27.237,17.31 26.424,18.843 25.325,20.138 Z" id="Path" fill="url(#linearGradient-2)"></path>
                <path d="M27.636,22.199 C27.015,23.147 26.282,24.014 25.457,24.783 C24.274,25.713 22.887,26.26 21.529,26.222 C21.521,26.222 21.512,26.221 21.504,26.221 C22.793,25.24 23.861,23.955 24.58,22.411 C24.858,21.813 25.072,21.201 25.225,20.584 C26.439,19.255 27.356,17.671 27.876,15.928 C28.59,17.056 28.816,18.613 28.382,20.318 C28.214,20.977 27.959,21.609 27.636,22.199 Z" id="Path" fill="url(#linearGradient-3)"></path>
                <path d="M20.981,26.594 C21.019,26.596 21.056,26.598 21.094,26.599 C22.067,26.625 23.041,26.408 23.958,25.997 C21.689,27.59 18.925,28.526 15.942,28.526 C15.39,28.526 14.845,28.493 14.31,28.43 C16.707,28.538 19.054,27.883 20.981,26.594 Z" id="Path" fill="url(#linearGradient-4)"></path>
                <path d="M17.22,24.66 C17.941,25.608 18.97,26.269 20.216,26.504 C17.538,28.371 13.853,28.817 10.465,27.41 C10.109,27.258 9.762,27.092 9.422,26.912 C5.85,24.969 3.807,21.283 4.034,17.628 C6.04,21.832 10.477,24.755 15.627,24.755 C16.167,24.755 16.699,24.723 17.22,24.66 Z" id="Path" fill="url(#radialGradient-5)"></path>
                <path d="M21.645,13.011 C19.084,13.979 16.888,16.462 16.254,19.416 C15.851,21.296 16.154,23.021 16.975,24.31 C16.71,24.327 16.442,24.337 16.172,24.337 C10.445,24.337 5.665,20.389 4.558,15.141 C4.632,14.94 4.714,14.74 4.804,14.542 C6.947,9.827 12.808,7.877 17.892,10.188 C19.395,10.871 20.662,11.849 21.645,13.011 Z" id="Path" fill="url(#radialGradient-6)"></path>
                <path d="M3.676,16.795 C3.409,19.733 4.462,22.678 6.534,24.882 C3.731,22.327 1.971,18.646 1.971,14.555 C1.971,11.241 3.126,8.197 5.055,5.801 C3.69,7.74 2.893,10.074 2.893,12.586 C2.893,14.065 3.17,15.483 3.676,16.795 Z" id="Path" fill="url(#linearGradient-7)"></path>
                <path d="M27.911,14.432 C27.027,13.318 25.704,12.621 24.102,12.577 C24.015,12.575 23.927,12.575 23.84,12.576 C22.72,10.836 21.071,9.377 18.996,8.451 C13.471,5.987 7.011,8.241 4.57,13.485 C4.5,13.635 4.435,13.786 4.373,13.937 C4.336,13.568 4.317,13.194 4.317,12.816 C4.317,6.455 9.626,1.296 16.172,1.296 C22.718,1.296 28.027,6.455 28.027,12.816 C28.028,13.365 27.988,13.904 27.911,14.432 Z" id="Path" fill="url(#radialGradient-8)"></path>
                <path d="M20.62,1.387 C26.035,3.311 29.913,8.48 29.913,14.554 C29.913,16.332 29.58,18.032 28.974,19.596 C29.335,17.733 29,16.032 28.157,14.771 C28.292,14.062 28.362,13.332 28.362,12.586 C28.363,7.559 25.172,3.243 20.62,1.387 Z" id="Path" fill="url(#linearGradient-9)"></path>
            </g>
            <path d="M80.197,32.464 C80.087,32.459 80.053,32.509 80.011,32.544 C79.293,33.161 78.497,33.649 77.613,33.988 C77.003,34.222 76.375,34.358 75.717,34.328 C74.832,34.288 74.164,33.901 73.729,33.116 C73.016,31.828 73.034,30.508 73.58,29.185 C74.407,27.184 75.901,25.914 77.96,25.281 C78.852,25.007 79.767,24.872 80.692,24.781 C81.504,24.701 82.319,24.673 83.135,24.666 C83.529,24.662 83.922,24.642 84.315,24.63 C84.381,24.628 84.447,24.626 84.512,24.63 C84.716,24.645 84.744,24.679 84.69,24.873 C84.635,25.072 84.565,25.266 84.511,25.465 C84.29,26.28 84.138,27.11 83.996,27.942 C83.738,29.457 83.536,30.983 83.166,32.477 C82.978,33.234 82.756,33.978 82.437,34.692 C81.765,36.194 80.664,37.251 79.137,37.862 C78.15,38.257 77.123,38.422 76.061,38.443 C74.974,38.465 73.912,38.315 72.856,38.086 C72.81,38.076 72.765,38.064 72.72,38.049 C72.522,37.984 72.495,37.95 72.533,37.743 C72.652,37.088 72.774,36.434 72.902,35.781 C72.95,35.537 72.991,35.513 73.227,35.586 C73.845,35.779 74.469,35.948 75.108,36.058 C75.908,36.196 76.708,36.246 77.505,36.03 C78.193,35.844 78.737,35.453 79.164,34.888 C79.71,34.171 79.991,33.344 80.197,32.464 Z M76.348,30.357 C76.34,30.72 76.41,31.067 76.549,31.4 C76.721,31.812 77.025,32.071 77.467,32.145 C77.736,32.19 78.011,32.192 78.279,32.131 C79.27,31.903 79.937,31.294 80.308,30.359 C80.788,29.15 80.971,27.861 81.305,26.612 C81.339,26.484 81.3,26.442 81.159,26.448 C81.038,26.454 80.918,26.479 80.797,26.495 C79.869,26.618 78.98,26.869 78.159,27.328 C76.974,27.99 76.382,29.008 76.348,30.357 Z" id="Shape" fill="#000000" fill-rule="nonzero"></path>
            <path d="M54.119,26.268 C54.605,25.974 55.08,25.693 55.579,25.455 C56.462,25.034 57.384,24.766 58.37,24.789 C58.829,24.8 59.284,24.866 59.724,25.014 C60.736,25.354 61.356,26.155 61.429,27.296 C61.492,28.276 61.228,29.192 60.832,30.074 C60.433,30.963 59.899,31.762 59.208,32.455 C58.595,33.07 57.843,33.439 57.034,33.706 C56.355,33.93 55.656,34.051 54.941,34.11 C54.065,34.182 53.199,34.11 52.331,34.025 C52.108,34.003 52.104,33.999 52.047,34.223 C51.794,35.233 51.544,36.243 51.293,37.253 C51.259,37.389 51.224,37.526 51.187,37.661 C51.12,37.904 51.101,37.921 50.833,37.923 C50.364,37.926 49.895,37.924 49.426,37.924 C49.032,37.924 48.638,37.927 48.244,37.923 C47.972,37.92 47.948,37.885 48.032,37.622 C48.359,36.604 48.691,35.588 49.016,34.57 C49.455,33.194 49.869,31.811 50.268,30.423 C50.654,29.08 51.014,27.731 51.347,26.374 C51.463,25.901 51.572,25.425 51.683,24.951 C51.756,24.643 51.778,24.623 52.101,24.624 C52.72,24.626 53.339,24.63 53.958,24.633 C54.014,24.633 54.071,24.632 54.127,24.64 C54.303,24.663 54.333,24.698 54.304,24.881 C54.241,25.279 54.169,25.676 54.103,26.073 C54.096,26.126 54.067,26.181 54.119,26.268 Z M56.923,26.653 C55.611,26.65 54.46,27.404 53.972,28.576 C53.788,29.017 53.631,29.469 53.502,29.93 C53.306,30.634 53.125,31.341 52.929,32.045 C52.829,32.404 52.835,32.419 53.222,32.373 C53.771,32.307 54.316,32.217 54.852,32.083 C55.665,31.881 56.455,31.61 57.147,31.123 C58.241,30.352 58.73,29.3 58.534,27.965 C58.443,27.343 58.113,26.892 57.477,26.712 C57.286,26.657 57.089,26.663 56.923,26.653 Z" id="Shape" fill="#000000" fill-rule="nonzero"></path>
            <path d="M68.983,32.39 C68.617,32.703 68.267,32.981 67.889,33.222 C67.044,33.763 66.149,34.189 65.141,34.308 C64.386,34.397 63.658,34.313 63.047,33.793 C62.679,33.481 62.456,33.067 62.277,32.632 C61.954,31.847 61.878,31.029 62.064,30.204 C62.525,28.154 63.718,26.668 65.595,25.733 C66.511,25.277 67.494,25.042 68.501,24.897 C69.644,24.732 70.793,24.67 71.947,24.667 C72.228,24.666 72.509,24.667 72.79,24.638 C72.929,24.623 73.071,24.629 73.212,24.629 C73.523,24.63 73.549,24.665 73.446,24.95 C73.106,25.894 72.811,26.853 72.55,27.821 C72.135,29.362 71.828,30.924 71.668,32.513 C71.622,32.97 71.574,33.426 71.563,33.885 C71.556,34.195 71.533,34.214 71.216,34.216 C70.513,34.219 69.809,34.22 69.106,34.219 C68.88,34.219 68.874,34.215 68.891,33.979 C68.92,33.577 68.956,33.176 68.99,32.775 C68.998,32.664 69.02,32.553 68.983,32.39 Z M65.135,30.326 C65.121,30.68 65.18,31.019 65.307,31.348 C65.503,31.855 65.872,32.124 66.414,32.164 C67.139,32.217 67.757,31.972 68.3,31.506 C68.75,31.12 69.012,30.621 69.199,30.069 C69.474,29.259 69.667,28.428 69.849,27.594 C69.919,27.274 70.003,26.956 70.078,26.637 C70.118,26.465 70.094,26.436 69.918,26.448 C69.815,26.455 69.714,26.479 69.612,26.492 C68.674,26.614 67.777,26.864 66.944,27.327 C65.765,27.983 65.177,28.99 65.135,30.326 Z" id="Shape" fill="#000000" fill-rule="nonzero"></path>
            <path d="M71.304,47.437 C71.203,47.426 71.153,47.519 71.083,47.575 C70.157,48.332 69.143,48.924 67.966,49.195 C67.336,49.34 66.704,49.364 66.079,49.153 C65.654,49.01 65.319,48.75 65.069,48.382 C64.299,47.25 64.147,46.016 64.547,44.728 C65.175,42.704 66.5,41.302 68.462,40.506 C69.275,40.176 70.127,39.992 70.995,39.879 C71.683,39.789 72.373,39.737 73.066,39.702 C73.854,39.662 74.641,39.665 75.428,39.651 C75.475,39.65 75.522,39.65 75.569,39.651 C75.853,39.655 75.875,39.674 75.789,39.937 C75.533,40.724 75.37,41.534 75.222,42.345 C75.027,43.415 74.874,44.492 74.687,45.563 C74.458,46.876 74.179,48.178 73.676,49.42 C72.851,51.457 71.321,52.656 69.214,53.173 C68.172,53.429 67.113,53.451 66.054,53.386 C65.335,53.342 64.622,53.209 63.921,53.03 C63.661,52.964 63.649,52.943 63.697,52.679 C63.81,52.061 63.926,51.444 64.045,50.827 C64.104,50.519 64.125,50.506 64.439,50.604 C65.129,50.819 65.83,50.993 66.544,51.104 C67.301,51.221 68.052,51.226 68.795,50.982 C69.435,50.771 69.939,50.383 70.337,49.855 C70.861,49.161 71.142,48.357 71.335,47.518 C71.341,47.491 71.341,47.461 71.304,47.437 Z M67.479,45.314 C67.468,45.629 67.518,45.932 67.613,46.23 C67.851,46.969 68.385,47.203 69.035,47.176 C69.869,47.141 70.536,46.748 71.05,46.094 C71.412,45.633 71.568,45.079 71.741,44.535 C72.048,43.569 72.183,42.56 72.467,41.587 C72.507,41.449 72.475,41.411 72.337,41.419 C72.225,41.426 72.114,41.45 72.003,41.464 C71.026,41.585 70.09,41.845 69.233,42.339 C68.092,42.997 67.516,44 67.479,45.314 Z" id="Shape" fill="#79B621" fill-rule="nonzero"></path>
            <path d="M99.333,55.491 C98.727,56.881 97.702,57.584 96.25,57.612 C95.561,57.625 94.922,57.401 94.356,56.993 C93.798,56.591 93.428,56.051 93.201,55.399 C93.115,55.46 93.124,55.539 93.113,55.608 C93.068,55.878 92.988,56.138 92.87,56.384 C92.588,56.975 92.103,57.328 91.484,57.482 C90.688,57.68 89.888,57.682 89.098,57.427 C88.304,57.171 87.842,56.607 87.627,55.822 C87.545,55.523 87.513,55.214 87.513,54.903 C87.513,53.89 87.511,52.877 87.513,51.864 C87.513,51.562 87.537,51.535 87.828,51.536 C88.137,51.537 88.446,51.511 88.754,51.57 C89.15,51.646 89.383,51.877 89.463,52.271 C89.493,52.419 89.504,52.568 89.504,52.718 C89.503,53.412 89.505,54.106 89.504,54.8 C89.504,54.97 89.518,55.136 89.577,55.298 C89.7,55.635 89.947,55.8 90.339,55.8 C90.736,55.801 91.005,55.622 91.124,55.284 C91.188,55.103 91.186,54.915 91.187,54.728 C91.189,53.856 91.188,52.984 91.188,52.111 C91.188,52.036 91.187,51.961 91.189,51.886 C91.195,51.564 91.222,51.534 91.548,51.535 C91.829,51.536 92.11,51.514 92.39,51.563 C92.9,51.652 93.148,51.92 93.168,52.439 C93.181,52.775 93.17,53.111 93.186,53.457 C93.887,51.939 95.094,51.274 96.717,51.426 C97.976,51.544 98.829,52.269 99.334,53.444 C99.334,53.302 99.334,53.159 99.334,53.017 C99.334,52.614 99.331,52.21 99.336,51.807 C99.339,51.576 99.37,51.539 99.595,51.538 C99.922,51.537 100.252,51.505 100.577,51.573 C100.996,51.661 101.21,51.885 101.277,52.309 C101.307,52.495 101.321,52.681 101.32,52.869 C101.317,53.657 101.319,54.445 101.319,55.232 C101.319,55.298 101.317,55.363 101.32,55.429 C101.33,55.662 101.353,55.691 101.581,55.695 C101.9,55.701 102.219,55.697 102.538,55.697 C102.932,55.697 103.326,55.694 103.72,55.699 C103.977,55.702 104.016,55.739 104.018,55.994 C104.021,56.265 104.041,56.537 103.987,56.808 C103.921,57.139 103.725,57.337 103.396,57.406 C103.23,57.441 103.064,57.461 102.894,57.461 C101.834,57.459 100.774,57.46 99.715,57.46 C99.687,57.46 99.659,57.46 99.631,57.46 C99.365,57.452 99.339,57.431 99.336,57.169 C99.332,56.719 99.335,56.269 99.334,55.819 C99.333,55.729 99.333,55.639 99.333,55.491 Z M95.013,54.498 C94.99,55.208 95.507,55.787 96.233,55.801 C96.97,55.815 97.531,55.253 97.537,54.509 C97.543,53.769 96.982,53.188 96.258,53.186 C95.547,53.183 95.016,53.742 95.013,54.498 Z" id="Shape" fill="#000000" fill-rule="nonzero"></path>
            <path d="M98.873,49.408 C97.872,49.413 96.935,49.189 96.121,48.584 C95.271,47.952 94.83,47.088 94.779,46.035 C94.723,44.862 95.117,43.818 95.779,42.875 C96.907,41.267 98.45,40.237 100.34,39.74 C101.448,39.449 102.568,39.426 103.665,39.819 C105.297,40.403 106.094,41.762 106.031,43.273 C105.991,44.229 105.658,45.105 105.129,45.903 C104.21,47.292 102.959,48.272 101.42,48.891 C100.537,49.245 99.72,49.405 98.873,49.408 Z M102.94,43.414 C102.94,43.283 102.949,43.151 102.939,43.02 C102.864,42.036 102.07,41.406 101.135,41.641 C100.74,41.74 100.374,41.903 100.047,42.148 C99.234,42.756 98.678,43.554 98.329,44.498 C98.138,45.014 98.065,45.551 98.111,46.102 C98.141,46.455 98.248,46.781 98.467,47.064 C98.664,47.318 98.92,47.491 99.242,47.531 C99.658,47.582 100.061,47.536 100.449,47.353 C100.969,47.108 101.398,46.747 101.766,46.318 C102.48,45.484 102.933,44.536 102.94,43.414 Z" id="Shape" fill="#79B621" fill-rule="nonzero"></path>
            <path d="M58.585,45.527 C58.173,45.519 57.761,45.523 57.35,45.475 C56.919,45.426 56.902,45.456 56.893,45.879 C56.892,45.926 56.894,45.973 56.892,46.02 C56.856,46.762 57.282,47.19 57.89,47.368 C58.333,47.498 58.789,47.526 59.253,47.506 C60.262,47.464 61.241,47.253 62.218,47.025 C62.448,46.971 62.509,47.017 62.466,47.239 C62.37,47.736 62.254,48.229 62.149,48.724 C62.123,48.846 62.044,48.886 61.93,48.902 C61.429,48.973 60.929,49.056 60.427,49.12 C59.953,49.18 59.478,49.238 59.002,49.27 C58.138,49.329 57.274,49.324 56.435,49.079 C55.124,48.697 54.262,47.873 53.96,46.506 C53.673,45.209 53.921,44.011 54.594,42.888 C55.179,41.911 55.969,41.131 56.943,40.55 C57.765,40.06 58.675,39.796 59.606,39.595 C59.993,39.512 60.384,39.462 60.776,39.451 C61.601,39.428 62.403,39.537 63.134,39.966 C63.614,40.248 63.955,40.641 64.154,41.161 C64.492,42.042 64.469,42.887 63.903,43.674 C63.614,44.076 63.233,44.379 62.802,44.62 C62.047,45.041 61.231,45.277 60.381,45.408 C59.784,45.501 59.186,45.54 58.585,45.527 Z M57.477,43.56 C57.63,43.517 57.745,43.485 57.859,43.453 C58.385,43.308 58.914,43.217 59.466,43.295 C59.87,43.352 60.269,43.295 60.649,43.134 C61.022,42.976 61.253,42.593 61.216,42.192 C61.179,41.795 60.882,41.497 60.483,41.468 C60.278,41.453 60.074,41.466 59.869,41.507 C59.142,41.653 58.546,42.015 58.069,42.575 C57.829,42.859 57.615,43.161 57.477,43.56 Z" id="Shape" fill="#79B621" fill-rule="nonzero"></path>
            <path d="M82.519,47.48 C82.341,47.615 82.179,47.737 82.018,47.86 C81.252,48.451 80.407,48.884 79.482,49.166 C78.918,49.338 78.34,49.413 77.759,49.34 C76.743,49.212 76.072,48.62 75.918,47.49 C75.813,46.721 75.974,45.979 76.131,45.236 C76.418,43.874 76.892,42.569 77.333,41.253 C77.488,40.791 77.649,40.331 77.811,39.871 C77.898,39.622 77.918,39.598 78.172,39.608 C78.912,39.638 79.652,39.654 80.393,39.666 C80.62,39.669 80.65,39.717 80.593,39.951 C80.427,40.635 80.219,41.306 80.008,41.977 C79.634,43.167 79.238,44.349 78.94,45.561 C78.895,45.743 78.851,45.926 78.822,46.111 C78.707,46.851 79.176,47.407 79.924,47.421 C80.855,47.438 81.614,47.045 82.247,46.398 C82.476,46.164 82.588,45.84 82.729,45.544 C83.371,44.19 83.77,42.753 84.178,41.319 C84.314,40.841 84.45,40.363 84.59,39.886 C84.664,39.633 84.699,39.606 84.968,39.605 C85.681,39.602 86.393,39.602 87.106,39.605 C87.401,39.606 87.425,39.636 87.337,39.914 C87.037,40.852 86.743,41.791 86.472,42.737 C85.916,44.676 85.437,46.633 85.156,48.633 C85.147,48.698 85.129,48.761 85.119,48.826 C85.099,48.961 85.021,49.019 84.887,49.015 C84.66,49.01 84.435,49.013 84.21,49 C83.724,48.971 83.238,48.934 82.753,48.899 C82.541,48.884 82.505,48.855 82.504,48.648 C82.503,48.386 82.494,48.123 82.537,47.862 C82.557,47.745 82.576,47.625 82.519,47.48 Z" id="Path" fill="#79B621"></path>
            <path d="M47.668,49.186 C46.688,49.208 45.685,49.084 44.69,48.886 C44.672,48.882 44.654,48.877 44.635,48.873 C44.313,48.802 44.309,48.797 44.451,48.488 C44.671,48.012 44.893,47.536 45.12,47.062 C45.255,46.78 45.272,46.777 45.541,46.904 C46.329,47.276 47.159,47.5 48.025,47.574 C48.391,47.605 48.754,47.542 49.087,47.363 C49.293,47.252 49.444,47.094 49.542,46.882 C49.695,46.551 49.648,46.241 49.39,45.977 C49.178,45.759 48.915,45.612 48.646,45.477 C48.16,45.232 47.673,44.992 47.187,44.748 C47.112,44.71 47.04,44.666 46.968,44.622 C46.023,44.054 45.885,43.24 46.131,42.374 C46.314,41.728 46.7,41.224 47.219,40.807 C48.19,40.027 49.29,39.59 50.533,39.476 C51.456,39.392 52.366,39.458 53.276,39.6 C53.304,39.604 53.332,39.607 53.359,39.612 C53.686,39.672 53.701,39.697 53.631,40.016 C53.522,40.51 53.414,41.005 53.306,41.499 C53.243,41.787 53.227,41.797 52.954,41.716 C52.404,41.552 51.839,41.467 51.268,41.419 C50.91,41.389 50.555,41.432 50.211,41.536 C49.899,41.63 49.673,41.827 49.549,42.137 C49.415,42.47 49.483,42.759 49.71,43.025 C49.945,43.3 50.244,43.494 50.543,43.688 C50.928,43.938 51.336,44.155 51.683,44.46 C52.401,45.091 52.807,45.849 52.551,46.827 C52.36,47.556 51.928,48.119 51.251,48.481 C50.562,48.85 49.82,49.027 49.052,49.13 C48.604,49.188 48.155,49.186 47.668,49.186 Z" id="Path" fill="#79B621"></path>
            <path d="M91.573,41.466 C91.775,41.229 91.979,41.026 92.206,40.845 C93.02,40.194 93.949,39.829 94.98,39.711 C95.213,39.684 95.445,39.647 95.68,39.664 C95.892,39.679 95.93,39.725 95.862,39.932 C95.638,40.619 95.404,41.302 95.18,41.988 C95.127,42.15 95.025,42.2 94.862,42.197 C94.544,42.191 94.225,42.178 93.911,42.257 C93.175,42.443 92.581,42.848 92.092,43.418 C91.382,44.245 90.952,45.219 90.62,46.243 C90.359,47.048 90.185,47.873 90.052,48.707 C90.019,48.912 89.988,48.942 89.779,48.949 C89.62,48.954 89.459,48.96 89.301,48.944 C88.562,48.873 87.82,48.913 87.08,48.897 C87.042,48.896 87.005,48.898 86.967,48.895 C86.744,48.881 86.715,48.844 86.784,48.638 C86.844,48.46 86.914,48.286 86.979,48.11 C87.527,46.611 87.951,45.074 88.349,43.53 C88.636,42.413 88.915,41.294 89.204,40.177 C89.351,39.607 89.323,39.666 89.854,39.663 C90.285,39.66 90.717,39.662 91.148,39.663 C91.563,39.664 91.603,39.698 91.56,40.119 C91.524,40.475 91.524,40.831 91.517,41.187 C91.517,41.269 91.493,41.356 91.573,41.466 Z" id="Path" fill="#79B621"></path>
        </g>
    </g>
</svg>