<?xml version="1.0" encoding="UTF-8"?>
<svg width="120px" height="80px" viewBox="0 0 120 80" version="1.1" xmlns="http://www.w3.org/2000/svg" xmlns:xlink="http://www.w3.org/1999/xlink">
    <!-- Generator: Sketch 52.4 (67378) - http://www.bohemiancoding.com/sketch -->
    <title>pagarme</title>
    <desc>Created with Sketch.</desc>
    <g id="Page-1" stroke="none" stroke-width="1" fill="none" fill-rule="evenodd">
        <g id="pagarme">
            <path d="M120,70 C120,75.5 115.5,80 110,80 L10,80 C4.5,80 0,75.5 0,70 L0,10 C0,4.5 4.5,0 10,0 L110,0 C115.5,0 120,4.5 120,10 L120,70 Z" id="Path" fill="#F5F5F5"></path>
            <path d="M110,0 L10,0 C4.5,0 0,4.5 0,10 L0,70 C0,75.5 4.5,80 10,80 L110,80 C115.5,80 120,75.5 120,70 L120,10 C120,4.5 115.5,0 110,0 Z M110,2 C114.412,2 118,5.588 118,10 L118,70 C118,74.412 114.412,78 110,78 L10,78 C5.588,78 2,74.412 2,70 L2,10 C2,5.588 5.588,2 10,2 L110,2 Z" id="Shape" fill="#D0D0D0" fill-rule="nonzero"></path>
            <g id="Group" transform="translate(11.000000, 25.000000)" fill="#93C649" fill-rule="nonzero">
                <path d="M6.892,20.606 L6.892,18.374 C6.892,17.05 6.243,16.505 5.075,16.505 C4.53,16.505 4.011,16.583 3.596,16.739 L3.596,22.059 C4.011,22.293 4.504,22.422 5.075,22.422 C6.269,22.422 6.892,21.852 6.892,20.606 Z M5.153,13.625 C8.138,13.625 10.188,15.416 10.188,18.452 L10.188,20.554 C10.188,23.461 8.293,25.251 5.568,25.251 C4.867,25.251 4.141,25.095 3.622,24.888 L3.622,28.625 C3.622,28.885 3.492,29.014 3.259,29.014 L0.742,29.014 C0.482,29.014 0.353,28.884 0.353,28.625 L0.353,14.818 C0.353,14.61 0.431,14.481 0.638,14.403 C1.935,13.936 3.7,13.625 5.153,13.625 Z M16.494,22.604 C16.987,22.604 17.558,22.526 17.947,22.422 L17.947,20.553 C17.532,20.475 16.935,20.423 16.468,20.423 C15.3,20.423 14.781,20.812 14.781,21.487 C14.807,22.267 15.482,22.604 16.494,22.604 Z M16.546,13.625 C19.479,13.625 21.217,15.156 21.217,18.4 L21.217,24.239 C21.217,24.447 21.113,24.602 20.906,24.654 C19.66,25.043 17.973,25.277 16.52,25.277 C13.458,25.277 11.511,24.135 11.511,21.618 C11.511,19.412 13.25,18.296 16.157,18.296 C16.806,18.296 17.429,18.348 17.974,18.426 L17.974,18.218 C17.974,17.102 17.559,16.479 16.183,16.479 C15.249,16.479 14.133,16.739 13.51,17.076 C13.328,17.18 13.095,17.154 12.991,16.946 L12.109,15.285 C12.005,15.077 12.005,14.922 12.161,14.818 C13.172,14.144 14.704,13.625 16.546,13.625 Z M28.147,21.903 C28.77,21.903 29.341,21.773 29.626,21.54 L29.626,16.713 C29.315,16.583 28.718,16.505 28.199,16.505 C27.057,16.505 26.356,16.972 26.356,18.322 L26.356,20.191 C26.382,21.436 27.083,21.903 28.147,21.903 Z M27.836,29.274 C26.071,29.274 24.825,28.911 23.632,28.132 C23.45,28.002 23.424,27.821 23.554,27.613 L24.67,25.9 C24.8,25.718 24.955,25.666 25.163,25.796 C25.838,26.211 26.746,26.497 27.706,26.497 C29.056,26.497 29.73,25.978 29.704,24.421 C29.107,24.603 28.354,24.732 27.732,24.732 C24.981,24.732 23.086,23.071 23.086,20.164 L23.086,18.425 C23.086,15.103 25.292,13.624 28.199,13.624 C29.782,13.624 31.365,13.987 32.637,14.48 C32.819,14.558 32.922,14.714 32.922,14.921 L32.922,23.927 C32.896,27.561 31.391,29.274 27.836,29.274 Z M39.514,22.604 C40.007,22.604 40.578,22.526 40.967,22.422 L40.967,20.553 C40.552,20.475 39.955,20.423 39.488,20.423 C38.32,20.423 37.801,20.812 37.801,21.487 C37.801,22.267 38.476,22.604 39.514,22.604 Z M39.54,13.625 C42.473,13.625 44.211,15.156 44.211,18.4 L44.211,24.239 C44.211,24.447 44.107,24.602 43.9,24.654 C42.654,25.043 40.967,25.277 39.514,25.277 C36.452,25.277 34.505,24.135 34.505,21.618 C34.505,19.412 36.244,18.296 39.151,18.296 C39.8,18.296 40.423,18.348 40.968,18.426 L40.968,18.218 C40.968,17.102 40.553,16.479 39.177,16.479 C38.243,16.479 37.127,16.739 36.504,17.076 C36.322,17.18 36.089,17.154 35.985,16.946 L35.103,15.285 C34.999,15.077 34.999,14.922 35.155,14.818 C36.166,14.144 37.724,13.625 39.54,13.625 Z M46.781,24.966 C46.521,24.966 46.392,24.836 46.392,24.577 L46.392,14.923 C46.392,14.741 46.47,14.586 46.677,14.482 C47.845,13.911 49.22,13.6 50.596,13.6 C51.245,13.6 51.894,13.678 52.672,13.808 C52.906,13.86 53.009,13.99 53.009,14.223 L53.009,16.169 C53.009,16.429 52.853,16.558 52.594,16.506 C52.179,16.454 51.712,16.428 51.27,16.428 C50.621,16.428 50.05,16.532 49.661,16.713 L49.661,24.577 C49.661,24.837 49.531,24.966 49.298,24.966 L46.781,24.966 Z M55.19,24.914 L53.166,23.487 C52.958,23.331 52.958,23.02 53.166,22.864 L55.19,21.437 C55.45,21.255 55.787,21.437 55.787,21.748 L55.787,24.603 C55.787,24.914 55.449,25.096 55.19,24.914 Z M68.555,13.625 C71.358,13.625 73.304,15.286 73.304,18.296 L73.304,24.603 C73.304,24.863 73.174,24.992 72.941,24.992 L70.475,24.992 C70.215,24.992 70.086,24.862 70.086,24.603 L70.086,18.193 C70.086,17.155 69.567,16.532 68.451,16.532 C67.984,16.532 67.517,16.636 67.076,16.869 C67.232,17.284 67.284,17.751 67.284,18.244 L67.284,24.576 C67.284,24.836 67.154,24.965 66.921,24.965 L64.455,24.965 C64.195,24.965 64.066,24.835 64.066,24.576 L64.066,18.166 C64.066,17.05 63.547,16.479 62.509,16.479 C62.068,16.479 61.601,16.557 61.263,16.661 L61.263,24.551 C61.263,24.811 61.107,24.94 60.874,24.94 L58.408,24.94 C58.148,24.94 58.019,24.81 58.019,24.551 L58.019,14.923 C58.019,14.715 58.097,14.56 58.304,14.456 C59.55,13.937 61.081,13.626 62.456,13.626 C63.572,13.626 64.532,13.937 65.363,14.508 C66.479,13.936 67.413,13.625 68.555,13.625 Z M80.13,16.324 C79.144,16.324 78.495,16.843 78.495,18.011 L78.495,18.452 L81.765,18.452 L81.765,18.011 C81.765,16.843 81.091,16.324 80.13,16.324 Z M84.932,20.191 C84.932,20.425 84.776,20.554 84.517,20.554 L78.496,20.554 L78.496,20.891 C78.496,21.981 79.197,22.526 80.339,22.526 C81.403,22.526 82.285,22.215 83.038,21.747 C83.22,21.591 83.401,21.643 83.531,21.825 L84.647,23.304 C84.777,23.486 84.777,23.693 84.595,23.849 C83.505,24.679 82.13,25.25 80.261,25.25 C77.484,25.25 75.252,23.771 75.252,20.812 L75.252,18.14 C75.252,14.974 77.484,13.598 80.183,13.598 C82.804,13.598 84.932,14.922 84.932,18.14 L84.932,20.191 Z M85.58,0.726 L88.175,0.726 L88.175,3.321 L85.58,3.321 L85.58,0.726 Z M88.876,0.726 L91.471,0.726 L91.471,3.321 L88.876,3.321 L88.876,0.726 Z M92.146,0.726 L94.741,0.726 L94.741,3.321 L92.146,3.321 L92.146,0.726 Z M95.442,0.726 L97.648,0.726 L97.648,3.321 L95.442,3.321 L95.442,0.726 Z M85.58,4.022 L88.175,4.022 L88.175,6.617 L85.58,6.617 L85.58,4.022 Z M85.58,7.292 L88.175,7.292 L88.175,9.887 L85.58,9.887 L85.58,7.292 Z M85.58,10.588 L88.175,10.588 L88.175,12.794 L85.58,12.794 L85.58,10.588 Z M88.85,7.292 C88.85,7.292 90.253,7.292 90.693,7.291 L92.302,8.485 C92.458,8.589 92.639,8.589 92.795,8.511 C92.951,8.433 93.055,8.278 93.055,8.096 L93.055,5.864 C93.055,5.683 92.951,5.527 92.795,5.449 C92.665,5.371 92.458,5.371 92.328,5.475 L90.693,6.617 L88.85,6.617 L88.85,4.022 L94.741,4.022 L94.741,9.887 L91.445,9.887 L91.445,12.794 L88.85,12.794 L88.85,7.292 Z M95.442,4.022 L97.648,4.022 L97.648,6.617 L95.442,6.617 L95.442,4.022 Z M95.442,7.292 L97.648,7.292 L97.648,9.887 L95.442,9.887 L95.442,7.292 Z M92.146,10.588 L94.741,10.588 L94.741,12.794 L92.146,12.794 L92.146,10.588 Z M95.442,10.588 L97.648,10.588 L97.648,12.794 L95.442,12.794 L95.442,10.588 Z" id="Combined-Shape"></path>
            </g>
        </g>
    </g>
</svg>