<?xml version="1.0" encoding="UTF-8"?>
<svg width="120px" height="80px" viewBox="0 0 120 80" version="1.1" xmlns="http://www.w3.org/2000/svg" xmlns:xlink="http://www.w3.org/1999/xlink">
    <!-- Generator: Sketch 52.4 (67378) - http://www.bohemiancoding.com/sketch -->
    <title>paypal</title>
    <desc>Created with Sketch.</desc>
    <g id="Page-1" stroke="none" stroke-width="1" fill="none" fill-rule="evenodd">
        <g id="paypal">
            <path d="M120,70 C120,75.5 115.5,80 110,80 L10,80 C4.5,80 0,75.5 0,70 L0,10 C0,4.5 4.5,0 10,0 L110,0 C115.5,0 120,4.5 120,10 L120,70 Z" id="Shape" fill="#F5F5F5"></path>
            <path d="M110,0 L10,0 C4.5,0 0,4.5 0,10 L0,70 C0,75.5 4.5,80 10,80 L110,80 C115.5,80 120,75.5 120,70 L120,10 C120,4.5 115.5,0 110,0 Z M110,2 C114.412,2 118,5.588 118,10 L118,70 C118,74.412 114.412,78 110,78 L10,78 C5.588,78 2,74.412 2,70 L2,10 C2,5.588 5.588,2 10,2 L110,2 Z" id="Shape" fill="#D0D0D0" fill-rule="nonzero"></path>
            <g id="PayPal" transform="translate(16.000000, 29.000000)">
                <path d="M32.7949032,4.7896129 C34.4193548,4.7896129 35.6428387,5.21825806 36.3326452,6.02870968 C36.9607097,6.76677419 37.1686452,7.82064516 36.9514839,9.16193548 C36.4696129,12.2277419 34.6244516,13.7748387 31.4273548,13.7748387 L29.8909032,13.7748387 C29.5594839,13.7748387 29.2763226,14.016129 29.2252258,14.3447097 L28.6958065,17.7014839 C28.644,18.0300645 28.3615484,18.2713548 28.0294194,18.2713548 L25.7123226,18.2713548 C25.4632258,18.2713548 25.2730323,18.0499355 25.3120645,17.8043871 L27.2750323,5.35877419 C27.3268387,5.03090323 27.6092903,4.7896129 27.9414194,4.7896129 L32.7949032,4.7896129 Z M33.3548387,9.33509677 C33.4520645,8.72335484 33.374,8.28051613 33.1192258,7.98245161 C32.692,7.48283871 31.8652258,7.48283871 30.9887742,7.48283871 L30.6530968,7.48283871 C30.4543871,7.48283871 30.2840645,7.6276129 30.2535484,7.82419355 L29.7397419,11.0766452 L30.472129,11.0766452 C31.7587742,11.0766452 33.0894194,11.0766452 33.3548387,9.33509677 Z M47.3028387,9.27903226 C47.5512258,9.27903226 47.7407097,9.50116129 47.7009677,9.746 L46.4448387,17.7007742 C46.3923226,18.0293548 46.1112903,18.2706452 45.7784516,18.2706452 L43.6849032,18.2706452 C43.4372258,18.2706452 43.2470323,18.0492258 43.2860645,17.8022581 L43.3896774,17.1564516 C43.3896774,17.1564516 42.242129,18.4870968 40.1727097,18.4870968 C38.9669677,18.4870968 37.9535484,18.1393548 37.2452903,17.3047742 C36.4731613,16.3970968 36.1573548,15.0955484 36.3794839,13.7343871 C36.8067097,11.0056774 39.0003226,9.06045161 41.5686452,9.06045161 C42.6885161,9.06045161 43.8105161,9.30458065 44.3136774,10.0348387 L44.4761935,10.2704516 L44.5790968,9.6203871 C44.6096129,9.42380645 44.7806452,9.27903226 44.9786452,9.27903226 L47.3028387,9.27903226 Z M44.0631613,13.8025161 C44.1646452,13.1595484 44.024129,12.5761935 43.67,12.1581935 C43.3165806,11.7444516 42.7800645,11.5251613 42.1200645,11.5251613 C40.7965161,11.5251613 39.7249032,12.4456129 39.5155484,13.7620645 C39.4062581,14.407871 39.5368387,14.9876774 39.8803226,15.3950323 C40.2266452,15.8052258 40.766,16.0216774 41.4409032,16.0216774 C42.7850323,16.0216774 43.8389032,15.1303226 44.0631613,13.8025161 Z M59.6810323,9.27903226 C60.0081935,9.27903226 60.1990968,9.64593548 60.0131613,9.91419355 L52.2450323,21.1270968 C52.1194194,21.3087742 51.9121935,21.4166452 51.6907742,21.4166452 L49.3580645,21.4166452 C49.0294839,21.4166452 48.837871,21.0469032 49.0280645,20.7779355 L51.4466452,17.3636774 L48.8740645,9.81412903 C48.7853548,9.55154839 48.9790968,9.27903226 49.258,9.27903226 L51.5530968,9.27903226 C51.8511613,9.27903226 52.1144516,9.47490323 52.2003226,9.76019355 L53.5657419,14.319871 L56.7869677,9.57496774 C56.9132903,9.38974194 57.1226452,9.27903226 57.3454839,9.27903226 L59.6810323,9.27903226 Z" id="Combined-Shape" fill="#253B80" fill-rule="nonzero"></path>
                <path d="M67.4136774,4.7896129 C69.038129,4.7896129 70.2609032,5.21825806 70.95,6.02870968 C71.5780645,6.76677419 71.7874194,7.82064516 71.5695484,9.16193548 C71.0869677,12.2277419 69.2425161,13.7748387 66.0447097,13.7748387 L64.5089677,13.7748387 C64.1775484,13.7748387 63.8943871,14.016129 63.8432903,14.3447097 L63.2861935,17.8725161 C63.25,18.1024516 63.052,18.2713548 62.8206452,18.2713548 L60.3296774,18.2713548 C60.082,18.2713548 59.8918065,18.0499355 59.9308387,17.8043871 L61.8938065,5.35877419 C61.9456129,5.03090323 62.2280645,4.7896129 62.5594839,4.7896129 L67.4136774,4.7896129 Z M67.9736129,9.33509677 C68.0708387,8.72335484 67.9934839,8.28051613 67.7387097,7.98245161 C67.3114839,7.48283871 66.484,7.48283871 65.6082581,7.48283871 L65.2725806,7.48283871 C65.0731613,7.48283871 64.9042581,7.6276129 64.8737419,7.82419355 L64.3592258,11.0766452 L65.0909032,11.0766452 C66.3782581,11.0766452 67.7089032,11.0766452 67.9736129,9.33509677 Z M81.9209032,9.27903226 C82.17,9.27903226 82.3601935,9.50116129 82.321871,9.746 L81.0650323,17.7007742 C81.0132258,18.0293548 80.7307742,18.2706452 80.3993548,18.2706452 L78.3065161,18.2706452 C78.0574194,18.2706452 77.8672258,18.0492258 77.9062581,17.8022581 L78.009871,17.1564516 C78.009871,17.1564516 76.8623226,18.4870968 74.7929032,18.4870968 C73.5871613,18.4870968 72.5751613,18.1393548 71.8654839,17.3047742 C71.0933548,16.3970968 70.7789677,15.0955484 71.0003871,13.7343871 C71.4276129,11.0056774 73.6205161,9.06045161 76.1888387,9.06045161 C77.3087097,9.06045161 78.43,9.30458065 78.9331613,10.0348387 L79.0963871,10.2704516 L79.1992903,9.6203871 C79.2290968,9.42380645 79.3987097,9.27903226 79.598129,9.27903226 L81.9209032,9.27903226 Z M78.6812258,13.8025161 C78.784129,13.1595484 78.6436129,12.5761935 78.2880645,12.1581935 C77.9346452,11.7444516 77.398129,11.5251613 76.738129,11.5251613 C75.4145806,11.5251613 74.3443871,12.4456129 74.1336129,13.7620645 C74.0257419,14.407871 74.1549032,14.9876774 74.4983871,15.3950323 C74.8447097,15.8052258 75.3854839,16.0216774 76.0589677,16.0216774 C77.4030968,16.0216774 78.4583871,15.1303226 78.6812258,13.8025161 Z M84.6609677,5.13096774 C84.6914839,4.9343871 84.8618065,4.7896129 85.0598065,4.78890323 L87.3023871,4.78890323 C87.5500645,4.78890323 87.7402581,5.01103226 87.7012258,5.25658065 L85.7368387,17.7014839 C85.6857419,18.0300645 85.4032903,18.2713548 85.0704516,18.2713548 L83.0677419,18.2713548 C82.8200645,18.2713548 82.629871,18.0499355 82.6689032,17.8043871 L84.6609677,5.13096774 Z" id="Combined-Shape" fill="#179BD7" fill-rule="nonzero"></path>
                <path d="M5.15651613,20.6899355 L5.52767742,18.3323871 L4.70090323,18.3132258 L0.752967742,18.3132258 L3.49658065,0.916903226 C3.50509677,0.864387097 3.53277419,0.815419355 3.57322581,0.780645161 C3.61367742,0.745870968 3.66548387,0.726709677 3.71941935,0.726709677 L10.3761935,0.726709677 C12.586129,0.726709677 14.1112258,1.18658065 14.9074839,2.09425806 C15.2807742,2.52006452 15.5185161,2.96503226 15.6334839,3.45470968 C15.754129,3.96851613 15.7562581,4.5823871 15.6384516,5.33109677 L15.6299355,5.38574194 L15.6299355,5.86548387 L16.0032258,6.07696774 C16.3176129,6.24374194 16.5674194,6.43464516 16.7590323,6.65322581 C17.0783871,7.01729032 17.2849032,7.48 17.3721935,8.02858065 C17.4623226,8.59277419 17.4325161,9.26412903 17.2849032,10.0241935 C17.1145806,10.8985161 16.8392258,11.66 16.4673548,12.2830968 C16.1252903,12.8572258 15.6895484,13.3334194 15.1721935,13.7024516 C14.6782581,14.0530323 14.0913548,14.3191613 13.4278065,14.4894839 C12.7848387,14.6569677 12.0517419,14.7414194 11.2476774,14.7414194 L10.7296129,14.7414194 C10.3591613,14.7414194 9.99935484,14.8748387 9.71690323,15.114 C9.43374194,15.358129 9.2463871,15.6916774 9.18890323,16.0564516 L9.14987097,16.2686452 L8.49412903,20.4238065 L8.46432258,20.5763871 C8.45651613,20.6246452 8.44303226,20.6487742 8.42316129,20.6650968 C8.40541935,20.68 8.37987097,20.6899355 8.35503226,20.6899355 L5.15651613,20.6899355 Z" id="Shape" fill="#253B80"></path>
                <path d="M16.3566452,5.44109677 C16.3367742,5.56812903 16.3140645,5.698 16.2885161,5.83141935 C15.4106452,10.3385806 12.4072903,11.8956129 8.57148387,11.8956129 L6.61845161,11.8956129 C6.14935484,11.8956129 5.75406452,12.2362581 5.68096774,12.6989677 L4.68103226,19.0406452 L4.39787097,20.8382581 C4.35032258,21.142 4.58451613,21.4159355 4.89109677,21.4159355 L8.35503226,21.4159355 C8.76522581,21.4159355 9.11367742,21.117871 9.17825806,20.7133548 L9.21232258,20.5373548 L9.86451613,16.3985161 L9.9063871,16.1714194 C9.97025806,15.7654839 10.3194194,15.4674194 10.7296129,15.4674194 L11.2476774,15.4674194 C14.6037419,15.4674194 17.2309677,14.1048387 17.9988387,10.161871 C18.3196129,8.51470968 18.1535484,7.13935484 17.3047742,6.17206452 C17.047871,5.8803871 16.7292258,5.6383871 16.3566452,5.44109677 Z" id="Shape" fill="#179BD7"></path>
                <path d="M15.4383226,5.07490323 C15.3041935,5.03587097 15.1658065,5.0003871 15.023871,4.96845161 C14.8812258,4.93722581 14.7350323,4.90954839 14.5845806,4.88541935 C14.058,4.80025806 13.4810323,4.75980645 12.8629032,4.75980645 L7.64535484,4.75980645 C7.51690323,4.75980645 7.39483871,4.78890323 7.28554839,4.84141935 C7.04496774,4.95709677 6.86612903,5.18490323 6.82283871,5.46380645 L5.71290323,12.493871 L5.68096774,12.6989677 C5.75406452,12.2362581 6.14935484,11.8956129 6.61845161,11.8956129 L8.57148387,11.8956129 C12.4072903,11.8956129 15.4106452,10.337871 16.2885161,5.83141935 C16.3147742,5.698 16.3367742,5.56812903 16.3566452,5.44109677 C16.1345161,5.32329032 15.8939355,5.22251613 15.6349032,5.13664516 C15.5710323,5.11535484 15.5050323,5.09477419 15.4383226,5.07490323 Z" id="Shape" fill="#222D65"></path>
                <path d="M6.82283871,5.46380645 C6.86612903,5.18490323 7.04496774,4.95709677 7.28554839,4.84212903 C7.39554839,4.7896129 7.51690323,4.76051613 7.64535484,4.76051613 L12.8629032,4.76051613 C13.4810323,4.76051613 14.058,4.80096774 14.5845806,4.88612903 C14.7350323,4.91025806 14.8812258,4.93793548 15.023871,4.96916129 C15.1658065,5.00109677 15.3041935,5.03658065 15.4383226,5.0756129 C15.5050323,5.09548387 15.5710323,5.11606452 15.6356129,5.13664516 C15.8946452,5.22251613 16.1352258,5.324 16.3573548,5.44109677 C16.6185161,3.77548387 16.3552258,2.64141935 15.4546452,1.61451613 C14.4618065,0.484 12.669871,0 10.3769032,0 L3.72012903,0 C3.25174194,0 2.85219355,0.340645161 2.77980645,0.804064516 L0.00709677419,18.3792258 C-0.0475483871,18.7269677 0.220709677,19.0406452 0.571290323,19.0406452 L4.68103226,19.0406452 L5.71290323,12.493871 L6.82283871,5.46380645 Z" id="Shape" fill="#253B80"></path>
            </g>
        </g>
    </g>
</svg>