<?xml version="1.0" encoding="UTF-8"?>
<svg width="120px" height="80px" viewBox="0 0 120 80" version="1.1" xmlns="http://www.w3.org/2000/svg" xmlns:xlink="http://www.w3.org/1999/xlink">
    <!-- Generator: Sketch 52.2 (67145) - http://www.bohemiancoding.com/sketch -->
    <title>Group 2</title>
    <desc>Created with Sketch.</desc>
    <g id="Page-1" stroke="none" stroke-width="1" fill="none" fill-rule="evenodd">
        <g id="Group-2">
            <path d="M120,70 C120,75.5 115.5,80 110,80 L10,80 C4.5,80 0,75.5 0,70 L0,10 C0,4.5 4.5,0 10,0 L110,0 C115.5,0 120,4.5 120,10 L120,70 Z" id="Shape" fill="#F5F5F5"></path>
            <path d="M110,0 L10,0 C4.5,0 0,4.5 0,10 L0,70 C0,75.5 4.5,80 10,80 L110,80 C115.5,80 120,75.5 120,70 L120,10 C120,4.5 115.5,0 110,0 Z M110,2 C114.412,2 118,5.588 118,10 L118,70 C118,74.412 114.412,78 110,78 L10,78 C5.588,78 2,74.412 2,70 L2,10 C2,5.588 5.588,2 10,2 L110,2 Z" id="Shape" fill="#FFFFFF" fill-rule="nonzero"></path>
            <g id="Group" transform="translate(20.000000, 28.000000)" fill="#000000">
                <polygon id="Path" points="64.5352907 20.8266395 16.0336337 20.8266395 19.8971047 24.7567907"></polygon>
                <path d="M20.5266105,4.93009302 L20.5266105,5.5242093 C19.6260174,4.9407093 18.818343,4.60123256 17.7123198,4.60123256 C14.3144535,4.60123256 11.7332035,7.75330814 11.7332035,11.6244593 C11.7332035,15.4966744 14.3144593,18.6468605 17.7123198,18.6468605 C18.818343,18.6468605 19.6260174,18.3087965 20.5266105,17.7243547 L20.5266105,18.318 L23.5132674,18.318 L23.5132674,4.93009302 L20.5266105,4.93009302 Z M17.7123198,15.4229302 C16.0368779,15.4229302 14.8101047,13.7445291 14.8101047,11.6244651 C14.8101047,9.50581395 16.0368779,7.82729651 17.7123198,7.82729651 C19.3898488,7.82729651 20.5721977,9.50581395 20.5721977,11.6244651 C20.5721977,13.7445291 19.3898547,15.4229302 17.7123198,15.4229302 Z" id="Shape" fill-rule="nonzero"></path>
                <path d="M44.4536395,4.93009302 L44.4536395,12.7946453 C44.4536395,14.2698547 43.4573488,15.5157907 42.0061279,15.5157907 C40.5561802,15.5157907 39.5590814,14.2698547 39.5590814,12.7946453 L39.5590814,4.93009302 L36.5721919,4.93009302 L36.5721919,12.7946453 C36.5721919,16.0216512 38.7422384,18.6468663 41.914843,18.6468663 C43.3840407,18.6468663 44.4536395,17.8201744 44.4536395,17.8201744 L44.4536395,18.3180058 L47.4405291,18.3180058 L47.4405291,4.93009302 L44.4536395,4.93009302 Z" id="Path"></path>
                <path d="M72.2855523,18.3180058 L72.2855523,10.4533314 C72.2855523,8.97812209 73.2817267,7.73218605 74.7329477,7.73218605 C76.1828953,7.73218605 77.1799942,8.97812209 77.1799942,10.4533314 L77.1799942,18.3180058 L80.1668837,18.3180058 L80.1668837,10.4533314 C80.1668837,7.22644767 77.9969535,4.60123256 74.8242326,4.60123256 C73.3550349,4.60123256 72.2855523,5.42780814 72.2855523,5.42780814 L72.2855523,4.93009302 L69.2985407,4.93009302 L69.2985407,18.3180058 L72.2855523,18.3180058 Z" id="Path"></path>
                <path d="M3.12411628,18.3180058 L3.12411628,13.1311802 L5.33372093,13.1311802 L9.15891279,18.3180058 L13.0694767,18.3180058 L8.44716279,12.0594012 C9.88771512,11.0075698 10.8337733,9.29719186 10.8337733,7.35978488 C10.8337733,4.17809302 8.29044767,1.59381977 5.16273837,1.59381977 L0.00023255814,1.59381977 L0.00023255814,18.3180058 L3.12411628,18.318 L3.12411628,18.3180058 Z M3.12411628,4.76913953 L5.16274419,4.76913953 C6.56548256,4.76913953 7.71279651,5.93 7.71279651,7.35977907 C7.71279651,8.7933314 6.56548256,9.95337209 5.16274419,9.95337209 L3.12411628,9.95337209 L3.12411628,4.76913953 Z" id="Shape" fill-rule="nonzero"></path>
                <path d="M55.4909884,15.1501163 C55.2226919,15.3352558 54.8840988,15.4793314 54.4921512,15.4793314 C54.0041512,15.4793314 53.0841919,15.1000872 53.0841919,13.8368023 L53.0841919,8.10765698 L55.6385349,8.10765698 L55.6385349,4.92986047 L53.084186,4.92986047 L53.0839535,1.5937093 L50.0969477,1.5937093 L50.0971802,4.92986047 L48.5169709,4.92986047 L48.5169709,8.10765698 L50.0971802,8.10765698 L50.0971802,13.8831802 C50.0963663,16.872657 52.3103779,18.658314 54.5378488,18.658314 C55.3679128,18.658314 56.5198663,18.3818488 57.4596686,17.8156919 L55.4909884,15.1501163 Z" id="Path"></path>
                <polygon id="Path" points="30.9393198 11.2055698 36.0628547 4.93009302 31.8757558 4.93009302 28.2922965 9.59395349 28.2922965 0.488063953 25.2165523 0.488063953 25.2165523 18.3180058 28.2922965 18.3180058 28.2922965 12.8184826 32.6976977 18.3180058 36.8827093 18.3180058"></polygon>
                <path d="M62.3904186,4.59037791 C58.9332791,4.59037791 56.4535233,7.68073837 56.4535233,11.6239884 C56.4535233,15.7701919 59.5661512,18.6587791 62.6871395,18.6587791 C64.2624767,18.6587791 66.2811512,18.1092616 67.9770058,15.6618721 L65.3388023,14.1119709 C63.298436,17.1715349 59.8980174,15.618686 59.5053721,12.5593547 L68.1093605,12.5612442 C68.8454651,7.75271512 65.7890872,4.59037791 62.3904186,4.59037791 Z M64.9978837,9.89591279 L59.6182326,9.89591279 C60.246814,6.76023837 64.415814,6.58040698 64.9978837,9.89591279 Z" id="Shape" fill-rule="nonzero"></path>
            </g>
        </g>
    </g>
</svg>