<?xml version="1.0" encoding="UTF-8"?>
<svg width="120px" height="80px" viewBox="0 0 120 80" version="1.1" xmlns="http://www.w3.org/2000/svg" xmlns:xlink="http://www.w3.org/1999/xlink">
    <!-- Generator: Sketch 52.4 (67378) - http://www.bohemiancoding.com/sketch -->
    <title>rakutenpay</title>
    <desc>Created with Sketch.</desc>
    <g id="Page-1" stroke="none" stroke-width="1" fill="none" fill-rule="evenodd">
        <g id="rakutenpay">
            <path d="M120,70 C120,75.5 115.5,80 110,80 L10,80 C4.5,80 0,75.5 0,70 L0,10 C0,4.5 4.5,0 10,0 L110,0 C115.5,0 120,4.5 120,10 L120,70 Z" id="Shape" fill="#F5F5F5"></path>
            <path d="M110,0 L10,0 C4.5,0 0,4.5 0,10 L0,70 C0,75.5 4.5,80 10,80 L110,80 C115.5,80 120,75.5 120,70 L120,10 C120,4.5 115.5,0 110,0 Z M110,2 C114.412,2 118,5.588 118,10 L118,70 C118,74.412 114.412,78 110,78 L10,78 C5.588,78 2,74.412 2,70 L2,10 C2,5.588 5.588,2 10,2 L110,2 Z" id="Shape" fill="#D0D0D0" fill-rule="nonzero"></path>
            <path d="M63.4114869,38.2966387 C62.9600487,35.7251419 59.7266477,35.8646214 59.2391296,38.2966387 L63.4114869,38.2966387 Z M61.389108,34.1817745 C64.0251379,34.1817745 66.3957022,36.6344718 65.824731,40.3638975 L59.1515699,40.3624308 C59.4560488,42.7351951 62.0933987,43.9394704 63.6759259,41.5665595 L65.7220648,42.7686349 C64.4067631,44.6667877 62.8411025,45.0929994 61.6192271,45.0929994 C59.1986497,45.0929994 56.7845257,42.8526746 56.7845257,39.6368736 C56.7845257,36.578592 58.707905,34.1817745 61.389108,34.1817745 Z M36.9960414,39.3123015 L41.6056105,44.828707 L38.3597429,44.828707 L34.9430093,40.5632167 L34.9430093,44.828707 L32.5574851,44.828707 L32.5574851,31 L34.9430093,31 L34.9430093,38.062413 L37.722332,34.4451868 L40.9698129,34.4451868 L36.9960414,39.3123015 Z M56.0379952,42.3717565 L57.564936,44.4391619 C56.8360055,44.8782802 55.9425156,45.092706 55.298798,45.092706 C53.571218,45.092706 51.8540512,43.707738 51.8546379,41.3890935 L51.8546379,36.9096174 L50.6290959,36.9096174 L50.6290959,34.4450401 L51.8546379,34.4450401 L51.8544912,31.8575567 L54.171229,31.8575567 L54.1713757,34.4450401 L56.1525414,34.4450401 L56.1525414,36.9096174 L54.1713757,36.9096174 L54.1713757,41.3531604 C54.1713757,42.3328899 54.8849063,42.6271021 55.2633048,42.6271021 C55.5673437,42.6271021 55.829876,42.5153426 56.0379952,42.3717565 Z M15.4229241,34.3202273 L15.4227774,38.3410786 L17.0039847,38.3410786 C18.0919538,38.3410786 18.9817771,37.4414287 18.9817771,36.3295529 C18.9817771,35.2206105 18.0919538,34.3202273 17.0039847,34.3202273 L15.4229241,34.3202273 Z M15.4227774,44.8285604 L13,44.8285604 L13,31.8575567 L17.0039847,31.8575567 C19.429842,31.8575567 21.4023545,33.8618957 21.4023545,36.3295529 C21.4023545,37.8321472 20.668584,39.1587421 19.5512816,39.974499 L23.1363878,44.8285604 L20.1033328,44.8285604 L17.1365708,40.8058024 L15.4227774,40.8058024 C15.4227774,40.8058024 15.4227774,44.8285604 15.4227774,44.8285604 Z M69.0637053,44.828707 L66.7469675,44.828707 L66.7469675,34.4451868 L69.0637053,34.4451868 L69.0637053,34.831212 C69.0637053,34.831212 69.8932488,34.1901344 71.0326978,34.1901344 C73.4934617,34.1901344 75.1764552,36.2263 75.1764552,38.7290104 L75.1764552,44.828707 L72.8597174,44.828707 L72.8598641,38.7290104 C72.8598641,37.5848681 72.0864937,36.6184852 70.961858,36.6184852 C69.8363423,36.6184852 69.0637053,37.5848681 69.0637053,38.7290104 L69.0637053,44.828707 Z M47.4775346,34.4451868 L49.7941258,34.4451868 L49.7941258,44.828707 L47.4775346,44.828707 L47.4775346,44.4425352 C47.4775346,44.4425352 46.6479911,45.0837594 45.5085422,45.0837594 C43.0479249,45.0837594 41.3647847,43.0475939 41.3647847,40.5447368 L41.3647847,34.4451868 L43.6813758,34.4451868 L43.6813758,40.5448834 C43.6813758,41.6890257 44.4547462,42.655262 45.5793819,42.655262 C46.7048976,42.655262 47.4775346,41.6890257 47.4775346,40.5448834 L47.4775346,34.4451868 Z M26.7373341,42.583249 C28.0384091,42.583249 28.9553656,41.2814406 28.9553656,39.6371669 C28.9553656,37.9939199 28.0384091,36.6921115 26.7373341,36.6921115 C25.4378724,36.6921115 24.4863027,37.9939199 24.4863027,39.6371669 C24.4863027,41.2814406 25.4378724,42.583249 26.7373341,42.583249 Z M28.920019,34.4450401 L31.2364635,34.4451868 L31.2364635,44.828707 L28.920019,44.8285604 L28.920019,44.3681755 C28.221595,44.8215204 27.5950374,45.0837594 26.7373341,45.0836127 C24.1018908,45.0836127 22.0998985,42.6404488 22.0998985,39.6371669 C22.0998985,36.6347651 24.1018908,34.1899878 26.7373341,34.1899878 C27.5951841,34.1899878 28.221595,34.4534001 28.920019,34.905865 L28.920019,34.4450401 Z M63.0527417,46.7743796 L28.4317676,49.8225413 L25.4352324,46.7742329 L63.0527417,46.7743796 Z M92.7786025,42.5832343 C94.0796775,42.5832343 94.996634,41.281426 94.996634,39.6371523 C94.996634,37.9940519 94.0796775,36.6920969 92.7786025,36.6920969 C91.4791408,36.6920969 90.5277178,37.9939052 90.5277178,39.6371523 C90.5277178,41.281426 91.4791408,42.5832343 92.7786025,42.5832343 Z M94.9614341,34.4451721 L97.2777319,34.4451721 L97.2777319,44.8286924 L94.9612875,44.8286924 L94.9612875,44.3681608 C94.2628635,44.8215057 93.6364525,45.0837447 92.7786025,45.0837447 C90.1433059,45.0837447 88.1413136,42.6404341 88.1413136,39.6371523 C88.1413136,36.6347504 90.1433059,34.1899731 92.7786025,34.1899731 C93.6364525,34.1899731 94.2628635,34.4533854 94.9612875,34.9058504 L94.9614341,34.4451721 Z M83.1920659,38.3410786 C84.280035,38.3410786 85.1698583,37.4414287 85.1698583,36.3295529 C85.1698583,35.2206105 84.280035,34.3202273 83.1920659,34.3202273 L81.6110053,34.3202273 L81.6108586,38.3410786 L83.1920659,38.3410786 Z M87.5904357,36.3295529 C87.5904357,37.8321472 86.8566652,39.1587421 85.7393628,39.974499 L85.7446428,39.9816856 C85.0589787,40.4821104 84.2304619,40.7896692 83.3344787,40.8190024 L83.324652,40.8058024 L81.6108586,40.8058024 L81.6108586,40.8226691 C81.6108586,40.8564023 81.6108586,44.8285604 81.6108586,44.8285604 L79.1880812,44.8285604 L79.1880812,40.8226691 L79.1880812,31.8575567 L83.1920659,31.8575567 C85.6179232,31.8575567 87.5904357,33.8618957 87.5904357,36.3295529 Z M107.7027,34.4549694 L104.068607,44.7919965 C103.524623,46.3393239 102.463787,47.1537608 101.023379,47.1537608 C100.379661,47.1537608 99.4861715,46.939335 98.7572409,46.5002166 L99.9992095,44.7198368 C100.207329,44.8634229 100.469861,44.9751825 100.7739,44.9751825 C100.824646,44.9751825 100.881553,44.9694625 100.941833,44.9578759 C101.886802,44.6475304 101.485377,43.8590534 100.730047,41.8249412 C99.8956632,39.5780165 98.1633899,34.4549694 98.1633899,34.4549694 L100.436568,34.4549694 L102.820039,41.1282772 L105.166696,34.4549694 L107.7027,34.4549694 Z" id="Combined-Shape" fill="#BC2025"></path>
        </g>
    </g>
</svg>