<?xml version="1.0" encoding="UTF-8"?>
<svg width="120px" height="80px" viewBox="0 0 120 80" version="1.1" xmlns="http://www.w3.org/2000/svg" xmlns:xlink="http://www.w3.org/1999/xlink">
    <!-- Generator: Sketch 48.2 (47327) - http://www.bohemiancoding.com/sketch -->
    <title>Group 2</title>
    <desc>Created with Sketch.</desc>
    <defs></defs>
    <g id="Page-1" stroke="none" stroke-width="1" fill="none" fill-rule="evenodd">
        <g id="Group-2" fill-rule="nonzero">
            <path d="M120,70 C120,75.5 115.5,80 110,80 L10,80 C4.5,80 0,75.5 0,70 L0,10 C0,4.5 4.5,0 10,0 L110,0 C115.5,0 120,4.5 120,10 L120,70 Z" id="Shape" fill="#F5F5F5"></path>
            <g id="logo-rede" transform="translate(22.000000, 28.000000)" fill="#FF7800">
                <path d="M75.7261146,15.7181529 L58.8471338,15.7181529 C56.3869427,15.7181529 55.343949,14.7627389 54.9187898,13.4808917 L60.2388535,13.4808917 C63.794586,13.4808917 65.9840764,11.9140127 65.9840764,8.53184713 C65.9840764,5.14968153 63.7898089,3.40764331 60.2340764,3.40764331 L58.5429936,3.40764331 C55.3582803,3.40764331 51.4824841,5.2611465 50.6687898,9.69904459 L45.9092357,9.69904459 L45.9092357,0 L41.8789809,0 L41.8789809,9.69904459 L36.906051,9.69904459 C32.138535,9.72292994 29.4840764,12.1369427 29.1369427,15.7181529 L20.8152866,15.7181529 C18.3550955,15.7181529 17.3121019,14.7627389 16.8869427,13.4808917 L22.2070064,13.4808917 C25.7627389,13.4808917 27.9522293,11.9140127 27.9522293,8.53184713 C27.9522293,5.14968153 25.7643312,3.40764331 22.2085987,3.40764331 L20.5175159,3.40764331 C17.3328025,3.40764331 13.4570064,5.2611465 12.6433121,9.69904459 L9.15127389,9.69904459 C6.9633758,9.69904459 5.02229299,10.3710191 3.95382166,11.6894904 L3.95382166,9.99681529 L0,9.99681529 L0,23.9490446 C0,24.7452229 0.248407643,24.9936306 1.01910828,24.9936306 L3.00955414,24.9936306 C3.75477707,24.9936306 4.02866242,24.7452229 4.02866242,23.9490446 L4.02866242,18.4538217 C4.02866242,14.3009554 6.64012739,13.4792994 9.32643312,13.4792994 L12.6799363,13.4792994 C13.5175159,17.6003185 16.9681529,19.5716561 20.9601911,19.5716561 L29.6353503,19.5716561 C30.6321656,21.9601911 33.0127389,23.2022293 36.8280255,23.2022293 L39.1401274,23.2022293 C42.9203822,23.2022293 46.1035032,20.5159236 46.1035032,16.5621019 L46.1035032,13.4792994 L50.7006369,13.4792994 C51.5382166,17.6003185 54.9888535,19.5716561 58.9808917,19.5716561 L75.7261146,19.5716561 C75.9469959,19.5683032 76.1574955,19.4773297 76.3112928,19.3187542 C76.4650901,19.1601787 76.5495829,18.9469951 76.5461783,18.7261146 L76.5461783,16.5127389 C76.5428263,16.2986144 76.4545373,16.0945947 76.3007396,15.9455752 C76.146942,15.7965557 75.9402383,15.7147475 75.7261146,15.7181529 Z M20.3678344,7.18789809 L22.3328025,7.18789809 C23.227707,7.18789809 23.8503185,7.56050955 23.8503185,8.46178344 C23.8503185,9.30732484 23.2292994,9.70541401 22.3328025,9.70541401 L16.7754777,9.70541401 C17.1050955,8.2977707 18.0302548,7.18789809 20.3678344,7.18789809 Z M41.8789809,16.6878981 C41.8789809,18.2547771 40.6863057,19.3742038 39.1433121,19.3742038 L36.5573248,19.3742038 C34.4681529,19.3742038 33.1003185,18.5541401 33.1003185,16.4888535 C33.1003185,14.4745223 34.4681529,13.4792994 36.5573248,13.4792994 L41.8789809,13.4792994 L41.8789809,16.6878981 Z M58.3933121,7.18789809 L60.3503185,7.18789809 C61.2452229,7.18789809 61.8678344,7.56050955 61.8678344,8.46178344 C61.8678344,9.30732484 61.2468153,9.70541401 60.3503185,9.70541401 L54.7929936,9.70541401 C55.1305732,8.2977707 56.0509554,7.18789809 58.3933121,7.18789809 Z" id="Shape"></path>
            </g>
        </g>
    </g>
</svg>