<?xml version="1.0" encoding="UTF-8"?>
<svg width="120px" height="80px" viewBox="0 0 120 80" version="1.1" xmlns="http://www.w3.org/2000/svg" xmlns:xlink="http://www.w3.org/1999/xlink">
    <!-- Generator: Sketch 52.4 (67378) - http://www.bohemiancoding.com/sketch -->
    <title>stripe</title>
    <desc>Created with Sketch.</desc>
    <g id="Page-1" stroke="none" stroke-width="1" fill="none" fill-rule="evenodd">
        <g id="stripe">
            <path d="M120,70 C120,75.5 115.5,80 110,80 L10,80 C4.5,80 0,75.5 0,70 L0,10 C0,4.5 4.5,0 10,0 L110,0 C115.5,0 120,4.5 120,10 L120,70 Z" id="Shape" fill="#F5F5F5"></path>
            <path d="M110,0 L10,0 C4.5,0 0,4.5 0,10 L0,70 C0,75.5 4.5,80 10,80 L110,80 C115.5,80 120,75.5 120,70 L120,10 C120,4.5 115.5,0 110,0 Z M110,2 C114.412,2 118,5.588 118,10 L118,70 C118,74.412 114.412,78 110,78 L10,78 C5.588,78 2,74.412 2,70 L2,10 C2,5.588 5.588,2 10,2 L110,2 Z" id="Shape" fill="#D0D0D0" fill-rule="nonzero"></path>
            <g id="Stripe-Logo-(blue)" transform="translate(24.000000, 26.000000)" fill="#6772E5" fill-rule="nonzero">
                <path d="M72.244898,15.3768438 C72.244898,15.8617903 72.2053451,16.9125076 72.2053451,17.1751869 L62.5346774,17.1751869 C62.752218,19.559507 64.4529898,20.2465144 66.3713022,20.2465144 C68.3291675,20.2465144 69.871728,19.8221863 71.2165243,19.1351788 L71.2165243,23.1763993 C69.871728,23.9442312 68.0918505,24.4897959 65.7384569,24.4897959 C60.9130112,24.4897959 57.5510204,21.4184684 57.5510204,15.3364316 C57.5510204,10.2040816 60.3988244,6.12244898 65.1056116,6.12244898 C69.7926223,6.12244898 72.244898,10.2040816 72.244898,15.3768438 Z M62.4753481,13.4572641 L67.5776636,13.4572641 C67.5776636,11.1739745 66.2921966,10.2242877 65.0858351,10.2242877 C63.8399209,10.2242877 62.4753481,11.1739745 62.4753481,13.4572641 Z M49.548105,6.12244898 C53.0267691,6.12244898 56.3066525,9.31420284 56.3265306,15.1724852 C56.3265306,21.5761939 53.0864034,24.4851342 49.5282269,24.4851342 C47.7789557,24.4851342 46.7254174,23.7376981 46.0098065,23.2124728 L45.9899284,28.9293484 L41.0204082,30 L41.0204082,6.44566456 L45.393586,6.44566456 L45.6520011,7.69812494 C46.3477339,7.05169377 47.600053,6.12244898 49.548105,6.12244898 Z M48.3554201,20.0409199 C50.1842036,20.0409199 51.4166446,18.0208225 51.4166446,15.3138921 C51.4166446,12.6675645 50.1643255,10.6070652 48.3554201,10.6070652 C47.2223695,10.6070652 46.5067585,11.0110846 45.9899284,11.5969129 L46.0098065,19.0914742 C46.4868805,19.6166995 47.1826133,20.0409199 48.3554201,20.0409199 Z M34.2857143,4.89795918 L34.2857143,1.01008497 L39.1836735,4.4408921e-16 L39.1836735,3.86881601 L34.2857143,4.89795918 Z M34.2857143,6.73469388 L39.1836735,6.73469388 L39.1836735,24.4897959 L34.2857143,24.4897959 L34.2857143,6.73469388 Z M28.3970315,8.42603284 C29.5463822,6.2601322 31.825603,6.70133418 32.4489796,6.94198981 L32.4489796,11.554556 C31.8450835,11.333955 29.8970315,11.0531901 28.7476809,12.597397 L28.7476809,24.4897959 L23.877551,24.4897959 L23.877551,6.94198981 L28.0853432,6.94198981 L28.3970315,8.42603284 Z M18.3080974,2.44897959 L18.2883476,6.7578599 L22.0408163,6.7578599 L22.0408163,10.9873138 L18.2883476,10.9873138 L18.2883476,18.0364038 C18.2883476,20.9751793 21.4088216,20.0617761 22.0408163,19.8036404 L22.0408163,23.8345284 C21.3890718,24.191947 20.2040816,24.4897959 18.5845951,24.4897959 C15.6616195,24.4897959 13.4693878,22.3254275 13.4693878,19.386652 L13.4891376,3.48152234 L18.3080974,2.44897959 Z M5.12260967,11.5922853 C5.12260967,13.8528818 12.8368954,12.7831352 12.8571429,18.7979368 C12.8571429,22.4108545 9.96175478,24.4897959 5.75028121,24.4897959 C4.00899888,24.4897959 2.10573678,24.1466697 0.22272216,23.3393137 L0.22272216,18.5355461 C1.92350956,19.4640054 4.06974128,20.1502579 5.75028121,20.1502579 C6.88413948,20.1502579 7.69403825,19.8474994 7.69403825,18.9190401 C7.69403825,16.5171563 8.8817842e-16,17.4052478 8.8817842e-16,11.834492 C8.8817842e-16,8.26194214 2.73340832,6.12244898 6.84364454,6.12244898 C8.52418448,6.12244898 10.1844769,6.38483965 11.8650169,7.05090828 L11.8650169,11.7941242 C10.3262092,10.9665844 8.38245219,10.5023548 6.84364454,10.5023548 C5.77052868,10.5023548 5.12260967,10.8051133 5.12260967,11.5922853 Z" id="Combined-Shape"></path>
            </g>
        </g>
    </g>
</svg>