<?xml version="1.0" encoding="UTF-8"?>
<svg width="120px" height="80px" viewBox="0 0 120 80" version="1.1" xmlns="http://www.w3.org/2000/svg" xmlns:xlink="http://www.w3.org/1999/xlink">
    <!-- Generator: Sketch 52.4 (67378) - http://www.bohemiancoding.com/sketch -->
    <title>Group</title>
    <desc>Created with Sketch.</desc>
    <g id="Page-1" stroke="none" stroke-width="1" fill="none" fill-rule="evenodd">
        <g id="Group">
            <path d="M120,70 C120,75.5 115.5,80 110,80 L10,80 C4.5,80 0,75.5 0,70 L0,10 C0,4.5 4.5,0 10,0 L110,0 C115.5,0 120,4.5 120,10 L120,70 Z" id="Path" fill="#F5F5F5"></path>
            <path d="M110,0 L10,0 C4.5,0 0,4.5 0,10 L0,70 C0,75.5 4.5,80 10,80 L110,80 C115.5,80 120,75.5 120,70 L120,10 C120,4.5 115.5,0 110,0 Z M110,2 C114.412,2 118,5.588 118,10 L118,70 C118,74.412 114.412,78 110,78 L10,78 C5.588,78 2,74.412 2,70 L2,10 C2,5.588 5.588,2 10,2 L110,2 Z" id="Shape" fill="#D0D0D0" fill-rule="nonzero"></path>
            <polyline id="path44123" fill="#E00001" points="35.7009367 31.0370691 38.4999245 31.0370691 38.4999245 33.8364953 35.7009367 33.8364953 35.7009367 31.0370691"></polyline>
            <path d="M35.7009367,35.9728437 L38.4999245,35.9728437 L38.4999245,48.6458492 L35.7009367,48.6458492 L35.7009367,35.9728437 Z M16.0439413,35.9065663 L19.0257996,35.9065663 L21.5145725,45.4183731 L21.5639234,45.4183731 L23.9535512,35.9065663 L26.7877923,35.9065663 L29.0796002,45.4183731 L29.128951,45.4183731 L31.7159893,35.9065663 L34.5749078,35.9065663 L30.5822044,48.6456737 L27.6990529,48.6456737 L25.3340985,39.1836622 L25.2843073,39.1836622 L22.9435899,48.6456737 L19.9868504,48.6456737 L16.0439413,35.9065663 Z M40.048446,35.9065663 L42.6848362,35.9065663 L42.6848362,38.3715517 L42.7341901,38.3715517 C43.0545404,37.0152405 44.7303221,35.561979 46.455892,35.561979 C47.0957129,35.561979 47.2684469,35.6108955 47.5147679,35.6351255 L47.5147679,38.3459925 C47.1208307,38.2966396 46.7022171,38.223493 46.3073951,38.223493 C44.3848551,38.223493 42.8575693,39.7758906 42.8575693,42.5845724 L42.8575693,48.6456737 L40.048446,48.6456737 L40.048446,35.9065663 Z M56.2917049,41.1555987 C56.1925618,39.3811142 54.985189,37.7802405 53.0877627,37.7802405 C51.1405422,37.7802405 49.810671,39.2581684 49.737084,41.1555987 L56.2917049,41.1555987 Z M49.737084,43.0032327 C49.737084,44.9989234 50.821515,46.7738482 53.1622324,46.7738482 C54.7886592,46.7738482 55.7743885,46.0595587 56.2670305,44.654338 L58.9280981,44.654338 C58.312073,47.4387838 55.9466812,48.990742 53.1622324,48.990742 C49.1699694,48.990742 46.9279608,46.2067335 46.9279608,42.2889432 C46.9279608,38.6668268 49.2933516,35.5620297 53.0877627,35.5620297 C57.1047002,35.5620297 59.5683553,39.1837027 59.1008312,43.0032327 L49.737084,43.0032327 Z M69.1057639,40.1692981 C68.8841163,38.6168955 67.7503344,37.7801086 66.1974945,37.7801086 C64.7438007,37.7801086 62.6983148,38.5428662 62.6983148,42.4121915 C62.6983148,44.5308209 63.6351296,46.7737142 66.0741123,46.7737142 C67.7005392,46.7737142 68.8343251,45.6884025 69.1057639,43.8658853 L71.9140053,43.8658853 C71.3971273,47.1676545 69.3516445,48.9910525 66.0741123,48.9910525 C62.0822937,48.9910525 59.8891916,46.1576932 59.8891916,42.4121915 C59.8891916,38.5675528 61.9840283,35.5618978 66.1732584,35.5618978 C69.1300009,35.5618978 71.6430069,37.0398256 71.9140053,40.1692981 L69.1057639,40.1692981 Z M81.3275487,42.2640892 C80.465643,42.8312039 79.1102105,42.8060861 77.8777229,43.0277306 C76.6707905,43.2247007 75.5863564,43.6679918 75.5863564,45.1472448 C75.5863564,46.4039685 77.1881099,46.7736716 78.1733947,46.7736716 C79.405445,46.7736716 81.3275487,46.1334104 81.3275487,44.358926 L81.3275487,42.2640892 Z M84.136671,45.8135015 C84.136671,46.5026732 84.2851689,46.7736716 84.8024883,46.7736716 C84.9743406,46.7736716 85.1964245,46.7736716 85.4921004,46.7243177 L85.4921004,48.6706575 C85.0730454,48.8187141 84.1864632,48.9910068 83.717617,48.9910068 C82.5842724,48.9910068 81.7712772,48.59751 81.550074,47.4386072 C80.4405252,48.5230413 78.6418047,48.9910068 77.1383156,48.9910068 C74.8469521,48.9910068 72.7772332,47.7593969 72.7772332,45.2697422 C72.7772332,42.0917965 75.3153621,41.5749175 77.6807528,41.302601 C79.7011168,40.9333372 81.5002818,41.1554221 81.5002818,39.5047613 C81.5002818,38.0501796 79.9972331,37.780068 78.8634482,37.780068 C77.2863752,37.780068 76.1772637,38.4203262 76.054325,39.8004331 L73.2456421,39.8004331 C73.4421688,36.5228989 76.2261773,35.561847 79.0361822,35.561847 C81.5249552,35.561847 84.136671,36.5718155 84.136671,39.2584322 L84.136671,45.8135015 Z M86.4280344,35.9065663 L89.064865,35.9065663 L89.064865,38.3715517 L89.1142189,38.3715517 C89.4350095,37.0152405 91.1107943,35.561979 92.8359228,35.561979 C93.476181,35.561979 93.6489161,35.6108955 93.8947977,35.6351255 L93.8947977,38.3459925 C93.5008574,38.2966396 93.0818044,38.223493 92.6878642,38.223493 C90.7657605,38.223493 89.2380384,39.7758906 89.2380384,42.5845724 L89.2380384,48.6456737 L86.4280344,48.6456737 L86.4280344,35.9065663 Z M99.6412723,46.7738482 C102.154281,46.7738482 103.213603,44.4824857 103.213603,42.2642658 C103.213603,39.4551436 101.858611,37.7802405 99.6906252,37.7802405 C97.0537977,37.7802405 96.1174223,40.1205185 96.1174223,42.4123254 C96.1174223,44.6049831 97.2014099,46.7738482 99.6412723,46.7738482 Z M105.924896,48.6457153 L103.263392,48.6457153 L103.263392,46.921023 L103.213603,46.921023 C102.475075,48.3755986 100.872882,48.990742 99.2711359,48.990742 C95.2546297,48.990742 93.3078597,46.0088857 93.3078597,42.1906778 C93.3078597,37.5823927 96.0438292,35.5620297 98.8278428,35.5620297 C100.429589,35.5620297 102.203634,36.1533814 103.066417,37.55728 L103.115333,37.55728 L103.115333,31.0520049 L105.924896,31.0520049 L105.924896,48.6457153 Z" id="Combined-Shape" fill="#002946"></path>
        </g>
    </g>
</svg>