<?xml version="1.0" encoding="UTF-8"?>
<svg width="60px" height="40px" viewBox="0 0 60 40" version="1.1" xmlns="http://www.w3.org/2000/svg" xmlns:xlink="http://www.w3.org/1999/xlink">
    <!-- Generator: Sketch 52.4 (67378) - http://www.bohemiancoding.com/sketch -->
    <title>Artboard</title>
    <desc>Created with Sketch.</desc>
    <g id="Artboard" stroke="none" stroke-width="1" fill="none" fill-rule="evenodd">
        <path d="M60,35 C60,37.75 57.75,40 55,40 L5,40 C2.25,40 0,37.75 0,35 L0,5 C0,2.25 2.25,0 5,0 L55,0 C57.75,0 60,2.25 60,5 L60,35 Z" id="Path" fill="#129AD7"></path>
        <path d="M16.382,17.733 L17.57,20.472 L15.101,20.472 L16.382,17.733 Z M38.202,22.024 L34.073,22.024 L34.073,20.54 L38.202,20.54 L38.202,19.191 L34.073,19.191 L34.073,17.977 L38.202,17.977 L38.202,16.83 L41.265,19.893 L38.202,22.97 L38.202,22.024 Z M42.48,18.812 L40.456,16.626 L32.333,16.626 L32.333,23.373 L40.187,23.373 L42.414,21.16 L44.654,23.373 L46.746,23.373 L43.548,19.959 L46.841,16.626 L44.655,16.626 L42.48,18.812 Z M30.78,16.626 L27.946,16.626 L25.814,21.147 L23.52,16.626 L20.686,16.626 L20.686,23.171 L17.758,16.626 L15.1,16.626 L11.969,23.373 L13.885,23.373 L14.519,21.835 L18.162,21.835 L18.891,23.373 L22.413,23.373 L22.413,17.881 L24.909,23.373 L26.555,23.373 L29.038,17.975 L29.038,23.373 L30.779,23.373 L30.78,16.626 Z M16.989,23.333 L15.747,23.333 L16.989,23.333 Z M15.752,23.233 L15.115,24.723 L9.406,24.723 L13.912,15.277 L24.674,15.277 L25.76,17.363 L26.775,15.277 L30.598,15.277 L32.525,15.277 L41.284,15.277 L42.524,16.574 L43.856,15.277 L50.594,15.277 L45.81,19.989 L50.387,24.723 L43.867,24.723 L42.408,23.332 L40.961,24.723 L32.525,24.723 L30.598,24.723 L17.687,24.723 L16.987,23.233 L15.752,23.233 Z" id="Shape" fill="#FFFFFF" fill-rule="nonzero"></path>
    </g>
</svg>