<?xml version="1.0" encoding="UTF-8"?>
<svg width="60px" height="40px" viewBox="0 0 60 40" version="1.1" xmlns="http://www.w3.org/2000/svg" xmlns:xlink="http://www.w3.org/1999/xlink">
    <!-- Generator: Sketch 52.4 (67378) - http://www.bohemiancoding.com/sketch -->
    <title>Artboard</title>
    <desc>Created with Sketch.</desc>
    <g id="Artboard" stroke="none" stroke-width="1" fill="none" fill-rule="evenodd">
        <g id="aura-v2">
            <path d="M0,23.466 L0,35 C0,37.75 2.25,40 5,40 L55,40 C57.75,40 60,37.75 60,35 L60,24.834 C49.068,21.19 29.814,15.885 0,23.466 Z" id="Path" fill="#FFED00"></path>
            <path d="M0,23.466 L0,5 C0,2.25 2.25,0 5,0 L55,0 C57.75,0 60,2.25 60,5 L60,24.834 C49.068,21.19 29.814,15.885 0,23.466 Z" id="Combined-Shape" fill="#152884"></path>
            <path d="M0,22.63 L0,28.469 C29.814,20.889 49.068,26.194 60,29.836 L60,23.738 C52.381,20.912 29.491,14.586 0,22.63 Z" id="Path" fill="#EB212E"></path>
            <path d="M18.975,19.159 C20.474,15.016 23.905,11.438 29.867,11.477 C35.828,11.517 39.804,14.922 40.877,19.377 C33.195,18.579 28.074,18.439 18.975,19.159 Z" id="Path" fill="#FFED00"></path>
        </g>
    </g>
</svg>