<?xml version="1.0" encoding="UTF-8"?>
<svg width="60px" height="40px" viewBox="0 0 60 40" version="1.1" xmlns="http://www.w3.org/2000/svg" xmlns:xlink="http://www.w3.org/1999/xlink">
    <!-- Generator: Sketch 52.4 (67378) - http://www.bohemiancoding.com/sketch -->
    <title>Artboard</title>
    <desc>Created with Sketch.</desc>
    <g id="Artboard" stroke="none" stroke-width="1" fill="none" fill-rule="evenodd">
        <g id="banco-do-brasil">
            <path d="M60,35 C60,37.75 57.75,40 55,40 L5,40 C2.25,40 0,37.75 0,35 L0,5 C0,2.25 2.25,0 5,0 L55,0 C57.75,0 60,2.25 60,5 L60,35 Z" id="Path" fill="#FFED00"></path>
            <g id="Group" transform="translate(19.000000, 9.000000)" fill="#225198">
                <path d="M0.529,14.647 L13.429,6.044 L15.386,7.35 L4.443,14.645 L10.997,19.017 L14.517,16.67 L12.078,15.04 L17.075,11.71 L21.471,14.646 L10.997,21.625 L0.529,14.647 Z M17.557,3.298 L21.683,0.549 L21.683,3.156 L19.514,4.604 L17.557,3.298 Z M6.608,14.647 L17.555,7.353 L10.994,2.982 L7.479,5.331 L9.918,6.94 L4.917,10.276 L0.529,7.346 L10.996,0.375 L21.47,7.345 L8.565,15.953 L6.608,14.647 Z M0.318,18.843 L2.486,17.396 L4.443,18.702 L0.318,21.45 L0.318,18.843 Z" id="Combined-Shape"></path>
            </g>
        </g>
    </g>
</svg>