<?xml version="1.0" encoding="UTF-8"?>
<svg width="60px" height="40px" viewBox="0 0 60 40" version="1.1" xmlns="http://www.w3.org/2000/svg" xmlns:xlink="http://www.w3.org/1999/xlink">
    <!-- Generator: Sketch 52.4 (67378) - http://www.bohemiancoding.com/sketch -->
    <title>Artboard</title>
    <desc>Created with Sketch.</desc>
    <g id="Artboard" stroke="none" stroke-width="1" fill="none" fill-rule="evenodd">
        <g id="banco-do-brasil-v2">
            <path d="M60,35 C60,37.75 57.75,40 55,40 L5,40 C2.25,40 0,37.75 0,35 L0,5 C0,2.25 2.25,0 5,0 L55,0 C57.75,0 60,2.25 60,5 L60,35 Z" id="Path" fill="#F5F5F5"></path>
            <path d="M55,0 L5,0 C2.25,0 0,2.25 0,5 L0,35 C0,37.75 2.25,40 5,40 L55,40 C57.75,40 60,37.75 60,35 L60,5 C60,2.25 57.75,0 55,0 Z M55,1 C57.206,1 59,2.794 59,5 L59,35 C59,37.206 57.206,39 55,39 L5,39 C2.794,39 1,37.206 1,35 L1,5 C1,2.794 2.794,1 5,1 L55,1 Z" id="Shape" fill="#D0D0D0" fill-rule="nonzero"></path>
            <polygon id="Path" fill="#FFED00" points="15.587 5.587 44.413 5.587 44.413 34.413 15.587 34.413"></polygon>
            <path d="M19.708,23.585 L32.387,15.131 L34.311,16.415 L23.555,23.585 L29.997,27.882 L33.458,25.575 L31.061,23.972 L35.972,20.698 L40.293,23.584 L29.997,30.444 L19.708,23.585 Z M36.445,12.429 L40.499,9.727 L40.499,12.29 L38.368,13.713 L36.445,12.429 Z M25.683,23.585 L36.445,16.414 L29.996,12.117 L26.541,14.426 L28.938,16.008 L24.022,19.288 L19.709,16.408 L29.998,9.555 L40.293,16.408 L27.607,24.869 L25.683,23.585 Z M19.5,27.71 L21.632,26.288 L23.555,27.572 L19.5,30.273 L19.5,27.71 Z" id="Combined-Shape" fill="#225198"></path>
        </g>
    </g>
</svg>