<?xml version="1.0" encoding="UTF-8"?>
<svg width="60px" height="40px" viewBox="0 0 60 40" version="1.1" xmlns="http://www.w3.org/2000/svg" xmlns:xlink="http://www.w3.org/1999/xlink">
    <!-- Generator: Sketch 52.4 (67378) - http://www.bohemiancoding.com/sketch -->
    <title>Artboard</title>
    <desc>Created with Sketch.</desc>
    <g id="Artboard" stroke="none" stroke-width="1" fill="none" fill-rule="evenodd">
        <g id="boleto-barcode-v2">
            <path d="M60,35 C60,37.75 57.75,40 55,40 L5,40 C2.25,40 0,37.75 0,35 L0,5 C0,2.25 2.25,0 5,0 L55,0 C57.75,0 60,2.25 60,5 L60,35 Z" id="Path" fill="#F5F5F5"></path>
            <path d="M55,0 L5,0 C2.25,0 0,2.25 0,5 L0,35 C0,37.75 2.25,40 5,40 L55,40 C57.75,40 60,37.75 60,35 L60,5 C60,2.25 57.75,0 55,0 Z M55,1 C57.206,1 59,2.794 59,5 L59,35 C59,37.206 57.206,39 55,39 L5,39 C2.794,39 1,37.206 1,35 L1,5 C1,2.794 2.794,1 5,1 L55,1 Z" id="Shape" fill="#D0D0D0" fill-rule="nonzero"></path>
            <path d="M13.835,9.945 L15.811,9.945 L15.811,30.054 L13.835,30.054 L13.835,9.945 Z M25.991,9.945 L27.967,9.945 L27.967,30.054 L25.991,30.054 L25.991,9.945 Z M36.1,9.945 L38.076,9.945 L38.076,30.054 L36.1,30.054 L36.1,9.945 Z M40.121,9.945 L42.097,9.945 L42.097,30.054 L40.121,30.054 L40.121,9.945 Z M44.189,9.945 L46.165,9.945 L46.165,30.054 L44.189,30.054 L44.189,9.945 Z M30.012,9.945 L34.031,9.945 L34.031,30.054 L30.012,30.054 L30.012,9.945 Z M17.879,9.945 L23.92,9.945 L23.92,30.054 L17.879,30.054 L17.879,9.945 Z" id="Combined-Shape" fill="#000000"></path>
            <polygon id="Path" fill="#773CBC" points="8.499 21.051 51.501 21.051 51.501 24.051 8.499 24.051"></polygon>
        </g>
    </g>
</svg>