<?xml version="1.0" encoding="UTF-8"?>
<svg width="60px" height="40px" viewBox="0 0 60 40" version="1.1" xmlns="http://www.w3.org/2000/svg" xmlns:xlink="http://www.w3.org/1999/xlink">
    <!-- Generator: Sketch 52.4 (67378) - http://www.bohemiancoding.com/sketch -->
    <title>Artboard</title>
    <desc>Created with Sketch.</desc>
    <g id="Artboard" stroke="none" stroke-width="1" fill="none" fill-rule="evenodd">
        <g id="boleto-barcode">
            <path d="M60,35 C60,37.75 57.75,40 55,40 L5,40 C2.25,40 0,37.75 0,35 L0,5 C0,2.25 2.25,0 5,0 L55,0 C57.75,0 60,2.25 60,5 L60,35 Z" id="Path" fill="#FFFFFF"></path>
            <path d="M55,0 L5,0 C2.25,0 0,2.25 0,5 L0,35 C0,37.75 2.25,40 5,40 L55,40 C57.75,40 60,37.75 60,35 L60,5 C60,2.25 57.75,0 55,0 Z M55,1 C57.206,1 59,2.794 59,5 L59,35 C59,37.206 57.206,39 55,39 L5,39 C2.794,39 1,37.206 1,35 L1,5 C1,2.794 2.794,1 5,1 L55,1 Z" id="Shape" fill="#D0D0D0" fill-rule="nonzero" opacity="0.6"></path>
            <path d="M14,10 L15.976,10 L15.976,30.109 L14,30.109 L14,10 Z M26.156,10 L28.132,10 L28.132,30.109 L26.156,30.109 L26.156,10 Z M36.265,10 L38.241,10 L38.241,30.109 L36.265,30.109 L36.265,10 Z M40.286,10 L42.262,10 L42.262,30.109 L40.286,30.109 L40.286,10 Z M44.354,10 L46.33,10 L46.33,30.109 L44.354,30.109 L44.354,10 Z M30.177,10 L34.196,10 L34.196,30.109 L30.177,30.109 L30.177,10 Z M18.044,10 L24.085,10 L24.085,30.109 L18.044,30.109 L18.044,10 Z" id="Combined-Shape" fill="#000000"></path>
        </g>
    </g>
</svg>