<?xml version="1.0" encoding="UTF-8"?>
<svg width="60px" height="40px" viewBox="0 0 60 40" version="1.1" xmlns="http://www.w3.org/2000/svg" xmlns:xlink="http://www.w3.org/1999/xlink">
    <!-- Generator: Sketch 52.4 (67378) - http://www.bohemiancoding.com/sketch -->
    <title>Artboard</title>
    <desc>Created with Sketch.</desc>
    <g id="Artboard" stroke="none" stroke-width="1" fill="none" fill-rule="evenodd">
        <g id="bradesco">
            <path d="M60,35 C60,37.75 57.75,40 55,40 L5,40 C2.25,40 0,37.75 0,35 L0,5 C0,2.25 2.25,0 5,0 L55,0 C57.75,0 60,2.25 60,5 L60,35 Z" id="Path" fill="#EF182C"></path>
            <g id="Group" transform="translate(19.000000, 9.000000)" fill="#FFFFFF" fill-rule="nonzero">
                <path d="M10.234,21.887 L8.692,21.887 L8.692,13.989 L10.234,13.989 L10.234,21.887 Z M14.16,21.887 L11.636,21.887 L11.636,11.046 L14.16,11.046 L14.16,21.887 Z M20.741,11.557 C19.595,13.691 16.939,14.554 16.939,14.554 C16.643,14.677 16.512,14.488 16.512,14.488 C16.354,14.246 16.644,14.076 16.644,14.076 C18.379,12.881 18.837,11.558 18.837,11.558 C20.42,7.756 14.135,5.706 14.135,5.706 C10.436,4.313 6.096,4.92 6.096,4.92 C4.956,6.716 4.813,8.983 5.117,10.623 C5.483,12.639 6.423,14.054 6.423,14.054 C6.552,14.27 6.37,14.402 6.37,14.402 C6.16,14.54 5.968,14.339 5.968,14.339 C4.787,13.272 4.016,11.944 3.593,10.64 C2.643,7.709 3.553,5.349 3.553,5.349 C2.421,5.602 1.247,6.007 1.247,6.007 C0.921,6.159 0.8,5.95 0.8,5.95 C0.658,5.661 1.033,5.512 1.033,5.512 C2.297,4.804 3.983,4.257 3.983,4.257 C5.166,1.85 7.299,0.967 7.299,0.967 C10.764,-0.665 14.138,0.542 14.138,0.542 C16.592,1.304 17.836,3.029 17.836,3.029 C18.069,3.275 17.86,3.44 17.86,3.44 C17.694,3.605 17.479,3.402 17.479,3.402 C16.033,2.118 14.145,1.826 14.145,1.826 C9.856,1.007 7.311,3.494 7.311,3.494 C10.646,2.992 14.138,3.855 14.138,3.855 C16.077,4.286 17.584,5.093 17.584,5.093 C23.069,7.997 20.741,11.557 20.741,11.557 Z" id="Shape"></path>
            </g>
        </g>
    </g>
</svg>