<?xml version="1.0" encoding="UTF-8"?>
<svg width="60px" height="40px" viewBox="0 0 60 40" version="1.1" xmlns="http://www.w3.org/2000/svg" xmlns:xlink="http://www.w3.org/1999/xlink">
    <!-- Generator: Sketch 52.4 (67378) - http://www.bohemiancoding.com/sketch -->
    <title>Artboard</title>
    <desc>Created with Sketch.</desc>
    <g id="Artboard" stroke="none" stroke-width="1" fill="none" fill-rule="evenodd">
        <path d="M60,35 C60,37.75 57.75,40 55,40 L5,40 C2.25,40 0,37.75 0,35 L0,5 C0,2.25 2.25,0 5,0 L55,0 C57.75,0 60,2.25 60,5 L60,35 Z" id="Path" fill="#F5F5F5"></path>
        <path d="M55,0 L5,0 C2.25,0 0,2.25 0,5 L0,35 C0,37.75 2.25,40 5,40 L55,40 C57.75,40 60,37.75 60,35 L60,5 C60,2.25 57.75,0 55,0 Z M55,1 C57.206,1 59,2.794 59,5 L59,35 C59,37.206 57.206,39 55,39 L5,39 C2.794,39 1,37.206 1,35 L1,5 C1,2.794 2.794,1 5,1 L55,1 Z" id="Shape" fill="#D0D0D0" fill-rule="nonzero"></path>
        <circle id="Oval" fill="#773CBC" cx="43.402" cy="27.3005" r="6.221"></circle>
        <polygon id="Shape" fill="#FFFFFF" points="44.325 26.7365 44.325 24.7895 41.3425 24.7895 41.3425 23.75 39.33 25.763 41.3425 27.776 41.3425 26.7365"></polygon>
        <polygon id="Shape" fill="#FFFFFF" points="42.479 27.8645 42.479 29.8115 45.461 29.8115 45.461 30.851 47.474 28.838 45.461 26.8255 45.461 27.8645"></polygon>
        <path d="M30,12.9705 C26.124,12.9705 22.971,16.124 22.971,19.9995 C22.971,23.8755 26.1245,27.029 30,27.029 C33.876,27.029 37.0295,23.8755 37.0295,19.9995 C37.0295,16.124 33.876,12.9705 30,12.9705 Z" id="Shape" fill="#93C649"></path>
        <path d="M32.552,20.81 C32.473,20.6075 32.3455,20.4265 32.1745,20.272 C32.008,20.122 31.792,19.986 31.532,19.8675 C31.2765,19.7515 30.9615,19.6435 30.5955,19.5475 C30.242,19.453 29.9425,19.3675 29.696,19.291 C29.457,19.218 29.2585,19.1365 29.1055,19.0495 C28.9605,18.967 28.8555,18.8755 28.7935,18.7775 C28.732,18.6815 28.702,18.5645 28.702,18.4205 C28.702,18.278 28.7345,18.1525 28.799,18.0475 C28.866,17.939 28.9565,17.847 29.068,17.774 C29.1845,17.6985 29.3185,17.6415 29.4675,17.6035 C29.8155,17.514 30.236,17.529 30.526,17.638 C30.693,17.7005 30.8355,17.775 30.95,17.8605 C31.0645,17.9455 31.1555,18.0335 31.221,18.122 C31.2905,18.216 31.34,18.2915 31.368,18.3475 C31.423,18.4585 31.4775,18.528 31.5385,18.5655 C31.5985,18.6025 31.6725,18.6205 31.7655,18.6205 L32.1555,18.6205 C32.241,18.6205 32.3205,18.589 32.3855,18.528 C32.4565,18.4625 32.4885,18.378 32.4795,18.292 C32.4725,18.1375 32.4205,17.962 32.3245,17.7705 C32.2305,17.583 32.096,17.4005 31.9225,17.2265 C31.7495,17.0535 31.535,16.8995 31.286,16.7685 C31.06,16.6495 30.803,16.565 30.5195,16.5155 L30.5195,15.975 C30.5195,15.876 30.482,15.7855 30.4095,15.713 C30.3375,15.6415 30.2475,15.604 30.1485,15.604 L29.7585,15.604 C29.659,15.604 29.5685,15.642 29.497,15.7135 C29.425,15.7855 29.387,15.876 29.387,15.975 L29.387,16.5035 C29.1125,16.547 28.8655,16.6225 28.6505,16.729 C28.4105,16.849 28.209,16.9985 28.051,17.1735 C27.893,17.349 27.772,17.547 27.691,17.762 C27.6105,17.977 27.5695,18.198 27.5695,18.4205 C27.5695,18.648 27.6015,18.8615 27.6655,19.056 C27.73,19.254 27.8395,19.4375 27.9895,19.6015 C28.137,19.7625 28.3295,19.9065 28.5625,20.0295 C28.7925,20.151 29.073,20.255 29.397,20.3395 C29.7445,20.428 30.056,20.512 30.3305,20.5905 C30.599,20.6675 30.828,20.7535 31.011,20.8445 C31.1855,20.932 31.321,21.03 31.413,21.1355 C31.497,21.233 31.5375,21.3465 31.5375,21.4845 C31.5375,21.6275 31.5,21.753 31.423,21.868 C31.3435,21.987 31.2335,22.091 31.096,22.177 C30.9555,22.2655 30.789,22.334 30.6005,22.3825 C30.1875,22.486 29.686,22.4755 29.3565,22.3655 C29.177,22.306 29.024,22.2325 28.8995,22.1465 C28.7765,22.0615 28.6785,21.971 28.607,21.8765 C28.534,21.781 28.48,21.691 28.4445,21.6105 C28.396,21.4965 28.3375,21.4225 28.265,21.3835 C28.2005,21.349 28.1265,21.3315 28.045,21.3315 L27.655,21.3315 C27.5685,21.3315 27.4895,21.3645 27.4275,21.4265 C27.3645,21.4885 27.3315,21.5675 27.3315,21.659 C27.3385,21.854 27.3975,22.055 27.5075,22.257 C27.6145,22.455 27.7655,22.64 27.956,22.807 C28.1445,22.972 28.369,23.118 28.6235,23.2425 C28.8525,23.354 29.1095,23.4355 29.387,23.4845 L29.387,24.025 C29.387,24.124 29.425,24.215 29.497,24.2865 C29.5685,24.358 29.659,24.396 29.7585,24.396 L30.1485,24.396 C30.2475,24.396 30.338,24.3585 30.4105,24.286 C30.482,24.214 30.5195,24.124 30.5195,24.025 L30.5195,23.5085 C30.813,23.472 31.086,23.403 31.333,23.303 C31.611,23.1905 31.851,23.046 32.046,22.8735 C32.2445,22.699 32.3995,22.4905 32.507,22.255 C32.6145,22.0195 32.6695,21.7605 32.6695,21.4845 C32.669,21.237 32.63,21.0105 32.552,20.81 Z" id="Shape" fill="#FFFFFF"></path>
        <circle id="Oval" fill="#93C649" cx="18.996" cy="20" r="1.648"></circle>
        <path d="M35.7105,29.2325 L15.6055,29.2325 C15.343,29.2325 15.121,29.0105 15.121,28.748 L15.121,11.252 C15.121,10.9895 15.343,10.7675 15.6055,10.7675 L44.3945,10.7675 C44.657,10.7675 44.879,10.9895 44.879,11.252 L44.879,19.505 C45.5605,19.6335 46.2085,19.852 46.817,20.143 L46.817,11.252 C46.817,9.9165 45.7305,8.8295 44.3945,8.8295 L15.6055,8.8295 C14.27,8.8295 13.183,9.916 13.183,11.252 L13.183,28.748 C13.183,30.0835 14.2695,31.1705 15.6055,31.1705 L36.4745,31.1705 C36.1375,30.569 35.8825,29.9175 35.7105,29.2325 Z" id="Shape" fill="#93C649"></path>
        <path d="M42.532,19.4125 C42.2945,18.7945 41.7055,18.352 41.004,18.352 C40.0935,18.352 39.356,19.09 39.356,20 C39.356,20.153 39.3855,20.2975 39.426,20.4375 C40.3585,19.896 41.4085,19.535 42.532,19.4125 Z" id="Shape" fill="#93C649"></path>
    </g>
</svg>