<?xml version="1.0" encoding="UTF-8"?>
<svg width="60px" height="40px" viewBox="0 0 60 40" version="1.1" xmlns="http://www.w3.org/2000/svg" xmlns:xlink="http://www.w3.org/1999/xlink">
    <!-- Generator: Sketch 52.4 (67378) - http://www.bohemiancoding.com/sketch -->
    <title>Artboard</title>
    <desc>Created with Sketch.</desc>
    <g id="Artboard" stroke="none" stroke-width="1" fill="none" fill-rule="evenodd">
        <g id="elo-v2">
            <path d="M60,35 C60,37.75 57.75,40 55,40 L5,40 C2.25,40 0,37.75 0,35 L0,5 C0,2.25 2.25,0 5,0 L55,0 C57.75,0 60,2.25 60,5 L60,35 Z" id="Path" fill="#000000"></path>
            <g id="Group" transform="translate(15.000000, 12.000000)" fill="#FFFFFF" fill-rule="nonzero">
                <path d="M27.119,10.025 C26.796,11.608 25.395,12.8 23.717,12.8 C23.343,12.8 22.971,12.74 22.615,12.621 L21.844,14.924 C22.447,15.125 23.08,15.229 23.717,15.227 C26.569,15.227 28.949,13.202 29.499,10.511 L27.119,10.025 Z M19.808,13.748 L21.416,11.928 C20.697,11.292 20.246,10.363 20.246,9.327 C20.246,8.292 20.699,7.364 21.416,6.729 L19.807,4.909 C18.587,5.99 17.817,7.569 17.817,9.327 C17.817,11.087 18.587,12.667 19.808,13.748 Z M22.617,6.036 C22.963,5.92 23.332,5.858 23.718,5.858 C25.397,5.858 26.799,7.051 27.12,8.637 L29.501,8.152 C28.955,5.458 26.573,3.431 23.719,3.431 C23.083,3.43 22.452,3.533 21.85,3.733 C21.848,3.732 22.617,6.036 22.617,6.036 Z M15.491,0.772 L15.491,12.162 L17.467,12.982 L16.532,15.228 L14.577,14.416 C14.138,14.226 13.841,13.935 13.614,13.608 C13.398,13.272 13.236,12.813 13.236,12.195 L13.236,0.773 L15.491,0.773 L15.491,0.772 Z M6.487,3.431 C3.232,3.381 0.551,5.982 0.501,9.238 C0.482,10.459 0.834,11.6 1.455,12.549 L12.139,7.982 C11.538,5.408 9.25,3.473 6.487,3.431 Z M2.946,9.694 C2.931,9.557 2.921,9.418 2.925,9.276 C2.956,7.357 4.534,5.826 6.452,5.857 C7.495,5.871 8.422,6.35 9.049,7.088 L2.946,9.694 Z M8.824,11.809 C8.18,12.436 7.307,12.816 6.343,12.803 C5.683,12.792 5.069,12.594 4.55,12.264 L3.259,14.321 C4.172,14.899 5.228,15.213 6.309,15.228 C7.945,15.253 9.436,14.61 10.519,13.549 L8.824,11.809 Z" id="Shape"></path>
            </g>
        </g>
    </g>
</svg>