<?xml version="1.0" encoding="UTF-8"?>
<svg width="60px" height="40px" viewBox="0 0 60 40" version="1.1" xmlns="http://www.w3.org/2000/svg" xmlns:xlink="http://www.w3.org/1999/xlink">
    <!-- Generator: Sketch 52.4 (67378) - http://www.bohemiancoding.com/sketch -->
    <title>Artboard</title>
    <desc>Created with Sketch.</desc>
    <g id="Artboard" stroke="none" stroke-width="1" fill="none" fill-rule="evenodd">
        <g id="hiper-v2">
            <path d="M60,35 C60,37.75 57.75,40 55,40 L5,40 C2.25,40 0,37.75 0,35 L0,5 C0,2.25 2.25,0 5,0 L55,0 C57.75,0 60,2.25 60,5 L60,35 Z" id="Path" fill="#F5F5F5"></path>
            <path d="M55,0 L5,0 C2.25,0 0,2.25 0,5 L0,35 C0,37.75 2.25,40 5,40 L55,40 C57.75,40 60,37.75 60,35 L60,5 C60,2.25 57.75,0 55,0 Z M55,1 C57.206,1 59,2.794 59,5 L59,35 C59,37.206 57.206,39 55,39 L5,39 C2.794,39 1,37.206 1,35 L1,5 C1,2.794 2.794,1 5,1 L55,1 Z" id="Shape" fill="#D0D0D0" fill-rule="nonzero"></path>
            <path d="M37.917,38.993 C32.742,38.993 27.566,38.992 22.391,38.996 C22.19,38.996 22.098,38.966 22.046,38.732 C21.805,37.641 21.532,36.556 21.265,35.471 C21.032,34.527 20.787,33.586 20.557,32.642 C20.349,31.789 20.157,30.932 19.95,30.078 C19.764,29.307 19.564,28.539 19.377,27.769 C19.19,26.998 19.012,26.225 18.827,25.454 C18.667,24.789 18.502,24.126 18.34,23.462 C18.151,22.687 17.97,21.909 17.772,21.137 C17.607,20.496 17.479,19.855 17.492,19.188 C17.514,18.02 17.883,16.98 18.607,16.062 C19.425,15.023 20.494,14.367 21.759,14.032 C22.679,13.788 23.609,13.586 24.534,13.361 C25.501,13.126 26.467,12.882 27.435,12.651 C28.402,12.42 29.372,12.205 30.339,11.974 C31.306,11.743 32.269,11.497 33.236,11.265 C34.097,11.058 34.961,10.864 35.823,10.659 C36.616,10.47 37.406,10.268 38.199,10.08 C39.167,9.85 40.137,9.631 41.105,9.4 C41.791,9.236 42.471,9.045 43.161,8.895 C43.85,8.746 44.545,8.702 45.255,8.792 C46.23,8.915 47.118,9.244 47.915,9.807 C48.804,10.434 49.469,11.252 49.891,12.261 C50.182,12.957 50.3,13.7 50.485,14.425 C50.686,15.214 50.874,16.007 51.064,16.798 C51.248,17.568 51.424,18.34 51.609,19.109 C51.797,19.893 51.994,20.676 52.183,21.46 C52.37,22.238 52.55,23.018 52.736,23.797 C52.898,24.477 53.064,25.157 53.229,25.836 C53.37,26.417 53.512,26.997 53.653,27.578 C53.804,28.201 53.958,28.823 54.106,29.446 C54.266,30.118 54.419,30.792 54.58,31.464 C54.768,32.25 54.967,33.034 55.152,33.82 C55.496,35.28 55.418,36.691 54.637,38.014 C54.446,38.337 54.185,38.6 53.903,38.842 C53.781,38.947 53.642,38.998 53.468,38.998 C48.283,38.992 43.1,38.993 37.917,38.993 Z" id="Path" fill="#FF7900"></path>
            <g id="Group" transform="translate(21.000000, 22.000000)" fill="#FFFFFF">
                <path d="M0.888,5.12 C0.888,3.694 0.891,2.268 0.884,0.841 C0.883,0.664 0.925,0.6 1.113,0.605 C1.651,0.617 2.19,0.616 2.728,0.606 C2.902,0.603 2.952,0.656 2.951,0.828 C2.944,1.825 2.952,2.822 2.944,3.819 C2.942,4.008 2.99,4.069 3.187,4.067 C4.155,4.057 5.123,4.058 6.09,4.066 C6.265,4.067 6.311,4.016 6.31,3.845 C6.302,2.841 6.31,1.837 6.303,0.833 C6.302,0.667 6.339,0.603 6.518,0.606 C7.064,0.617 7.61,0.62 8.155,0.605 C8.364,0.599 8.368,0.7 8.368,0.857 C8.365,3.353 8.365,5.849 8.365,8.345 C8.365,8.723 8.359,9.102 8.368,9.48 C8.372,9.626 8.32,9.667 8.18,9.666 C7.62,9.66 7.059,9.659 6.499,9.666 C6.348,9.668 6.302,9.621 6.302,9.468 C6.308,8.347 6.301,7.227 6.309,6.106 C6.31,5.914 6.256,5.859 6.063,5.861 C5.103,5.871 4.142,5.869 3.182,5.862 C3.002,5.861 2.943,5.915 2.944,6.098 C2.951,7.211 2.943,8.325 2.951,9.438 C2.952,9.625 2.894,9.67 2.717,9.667 C2.179,9.656 1.64,9.657 1.102,9.666 C0.932,9.669 0.884,9.615 0.884,9.443 C0.891,8.002 0.888,6.561 0.888,5.12 Z" id="Path"></path>
                <path d="M14.775,6.948 C14.775,7.362 14.778,7.712 14.774,8.061 C14.773,8.184 14.805,8.249 14.945,8.25 C15.279,8.252 15.614,8.278 15.947,8.271 C16.49,8.26 16.924,8.039 17.16,7.531 C17.48,6.845 17.494,6.136 17.211,5.439 C16.955,4.81 16.461,4.533 15.855,4.623 C15.284,4.708 14.874,5.167 14.797,5.813 C14.749,6.213 14.791,6.613 14.775,6.948 Z M14.564,4.069 C15.09,3.337 15.796,3.043 16.615,3.011 C17.699,2.968 18.641,3.586 19.104,4.601 C19.486,5.438 19.523,6.312 19.394,7.204 C19.302,7.843 19.074,8.425 18.622,8.9 C18.072,9.477 17.367,9.715 16.596,9.795 C16.117,9.845 15.636,9.818 15.157,9.823 C14.739,9.827 14.778,9.781 14.777,10.192 C14.776,10.832 14.773,11.473 14.78,12.113 C14.782,12.264 14.738,12.315 14.583,12.312 C14.045,12.304 13.506,12.303 12.967,12.313 C12.806,12.316 12.755,12.275 12.758,12.108 C12.768,11.46 12.762,10.813 12.762,10.165 C12.762,9.82 12.762,9.823 12.422,9.802 C11.909,9.77 11.418,9.649 10.964,9.404 C10.118,8.948 9.702,8.201 9.532,7.284 C9.457,6.88 9.459,6.474 9.459,6.066 C9.459,5.156 9.461,4.246 9.456,3.337 C9.455,3.19 9.491,3.133 9.65,3.136 C10.203,3.145 10.756,3.146 11.309,3.136 C11.475,3.133 11.518,3.185 11.517,3.346 C11.511,4.409 11.502,5.471 11.519,6.534 C11.527,7.05 11.649,7.543 12.043,7.923 C12.188,8.063 12.363,8.149 12.553,8.204 C12.687,8.243 12.767,8.224 12.766,8.044 C12.759,6.546 12.779,5.047 12.7,3.55 C12.699,3.535 12.699,3.521 12.699,3.506 C12.701,3.103 12.671,3.172 13.035,3.169 C13.443,3.166 13.85,3.175 14.258,3.165 C14.43,3.161 14.484,3.219 14.487,3.39 C14.489,3.597 14.531,3.806 14.564,4.069 Z" id="Shape" fill-rule="nonzero"></path>
                <path d="M23.08,5.652 C23.422,5.652 23.763,5.65 24.105,5.653 C24.207,5.654 24.273,5.637 24.263,5.511 C24.191,4.574 23.506,4.158 22.735,4.405 C22.213,4.572 21.994,5.022 21.888,5.53 C21.861,5.659 21.949,5.652 22.033,5.652 L23.08,5.652 Z M23.994,7.052 C23.361,7.052 22.728,7.054 22.095,7.05 C21.94,7.049 21.869,7.067 21.929,7.258 C22.116,7.848 22.57,8.092 23.12,8.208 C23.878,8.367 24.623,8.241 25.357,8.051 C25.497,8.015 25.542,8.043 25.566,8.17 C25.632,8.519 25.698,8.868 25.772,9.215 C25.805,9.369 25.725,9.421 25.602,9.462 C24.857,9.709 24.092,9.81 23.309,9.795 C22.607,9.782 21.941,9.644 21.336,9.271 C20.6,8.816 20.185,8.142 20.03,7.305 C19.864,6.405 19.93,5.525 20.358,4.699 C20.917,3.622 21.813,3.06 23.023,2.994 C23.636,2.96 24.226,3.041 24.763,3.358 C25.374,3.719 25.754,4.264 25.96,4.93 C26.16,5.576 26.212,6.237 26.108,6.91 C26.084,7.065 25.992,7.051 25.891,7.051 C25.26,7.053 24.627,7.052 23.994,7.052 Z" id="Shape" fill-rule="nonzero"></path>
                <path d="M26.876,6.86 C26.876,6.271 26.881,5.682 26.875,5.092 C26.869,4.496 26.857,3.901 26.836,3.305 C26.83,3.154 26.879,3.122 27.017,3.125 C27.475,3.132 27.934,3.136 28.392,3.123 C28.55,3.119 28.595,3.181 28.599,3.318 C28.606,3.579 28.616,3.841 28.626,4.102 C28.628,4.151 28.619,4.219 28.678,4.232 C28.745,4.247 28.749,4.175 28.769,4.132 C29.042,3.563 29.472,3.18 30.091,3.025 C30.32,2.968 30.554,2.992 30.786,2.996 C30.908,2.998 30.895,3.092 30.895,3.169 C30.896,3.693 30.892,4.216 30.899,4.74 C30.901,4.89 30.85,4.933 30.706,4.906 C30.348,4.837 29.996,4.86 29.661,5.011 C29.093,5.266 28.919,5.751 28.917,6.326 C28.914,7.359 28.91,8.392 28.921,9.425 C28.923,9.624 28.861,9.669 28.674,9.665 C28.143,9.653 27.612,9.655 27.081,9.664 C26.919,9.667 26.87,9.619 26.871,9.455 C26.88,8.591 26.876,7.725 26.876,6.86 Z" id="Path"></path>
            </g>
            <path d="M31.488,24.347 C30.819,24.381 30.392,23.898 30.399,23.319 C30.407,22.716 30.845,22.296 31.484,22.295 C32.152,22.294 32.588,22.708 32.586,23.343 C32.585,23.94 32.14,24.347 31.488,24.347 Z" id="Path" fill="#FFE701"></path>
        </g>
    </g>
</svg>