<?xml version="1.0" encoding="UTF-8"?>
<svg width="60px" height="40px" viewBox="0 0 60 40" version="1.1" xmlns="http://www.w3.org/2000/svg" xmlns:xlink="http://www.w3.org/1999/xlink">
    <!-- Generator: Sketch 52.4 (67378) - http://www.bohemiancoding.com/sketch -->
    <title>Artboard</title>
    <desc>Created with Sketch.</desc>
    <g id="Artboard" stroke="none" stroke-width="1" fill="none" fill-rule="evenodd">
        <g id="hipercard">
            <path d="M60,35 C60,37.75 57.75,40 55,40 L5,40 C2.25,40 0,37.75 0,35 L0,5 C0,2.25 2.25,0 5,0 L55,0 C57.75,0 60,2.25 60,5 L60,35 Z" id="Path" fill="#BE232C"></path>
            <path d="M16.215,16.95 L16.389,16.951 L16.527,16.904 L16.665,16.857 L16.787,16.733 L16.909,16.609 L16.973,16.444 L17.037,16.279 L17.039,16.036 L17.041,15.793 L16.984,15.698 L16.927,15.603 L16.827,15.541 L16.727,15.479 L16.512,15.479 L16.297,15.479 L16.15,15.545 L16.003,15.611 L15.918,15.702 L15.833,15.793 L15.766,15.95 L15.699,16.107 L15.686,16.352 L15.673,16.597 L15.735,16.719 L15.797,16.841 L15.917,16.896 L16.037,16.95 L16.215,16.95 Z M43.919,23.936 L44.544,23.936 L44.544,23.745 L44.544,23.554 L44.616,23.08 C44.656,22.819 44.721,22.406 44.761,22.162 C44.801,21.918 44.851,21.609 44.873,21.475 C44.894,21.341 44.95,21.051 44.997,20.831 C45.044,20.611 45.103,20.372 45.128,20.301 C45.153,20.23 45.173,20.156 45.174,20.136 C45.174,20.116 45.228,19.987 45.292,19.85 L45.41,19.601 L45.566,19.394 L45.722,19.187 L45.892,19.059 C45.986,18.989 46.136,18.895 46.227,18.851 L46.391,18.771 L46.749,18.773 L47.107,18.775 L47.248,18.82 L47.389,18.865 L47.413,18.85 L47.437,18.835 L47.438,18.744 C47.439,18.694 47.469,18.507 47.506,18.329 L47.573,18.005 L47.498,17.976 C47.457,17.96 47.358,17.926 47.28,17.901 L47.137,17.856 L46.879,17.857 L46.621,17.858 L46.411,17.932 L46.201,18.006 L46.043,18.101 L45.885,18.196 L45.68,18.411 L45.475,18.626 L45.365,18.793 C45.304,18.885 45.251,18.955 45.246,18.95 C45.241,18.945 45.274,18.754 45.319,18.526 C45.364,18.298 45.401,18.082 45.402,18.046 L45.403,17.982 L44.873,17.982 L44.343,17.982 L44.343,18 C44.343,18.01 44.317,18.194 44.284,18.408 C44.252,18.622 44.187,19.036 44.14,19.327 C44.093,19.618 44.016,20.089 43.969,20.372 C43.922,20.655 43.851,21.061 43.811,21.274 C43.771,21.487 43.701,21.86 43.654,22.104 C43.607,22.348 43.531,22.741 43.484,22.977 C43.437,23.213 43.375,23.526 43.346,23.671 L43.293,23.936 L43.919,23.936 Z M29.408,23.936 L30.019,23.936 L30.037,23.677 C30.047,23.535 30.082,23.248 30.114,23.04 C30.146,22.832 30.212,22.417 30.26,22.118 C30.308,21.819 30.398,21.321 30.46,21.011 C30.522,20.701 30.591,20.394 30.614,20.327 C30.637,20.261 30.657,20.188 30.657,20.167 C30.657,20.146 30.703,20.028 30.759,19.906 C30.815,19.784 30.92,19.597 30.992,19.491 L31.122,19.297 L31.297,19.135 L31.472,18.973 L31.687,18.87 L31.902,18.767 L32.231,18.769 L32.56,18.771 L32.722,18.819 C32.811,18.846 32.892,18.867 32.901,18.867 C32.91,18.867 32.918,18.837 32.918,18.799 C32.918,18.761 32.95,18.573 32.99,18.38 C33.03,18.187 33.062,18.02 33.062,18.01 C33.062,18 32.969,17.963 32.854,17.929 C32.74,17.894 32.582,17.858 32.503,17.848 L32.36,17.83 L32.174,17.863 C32.072,17.881 31.919,17.921 31.836,17.952 C31.752,17.983 31.614,18.052 31.529,18.107 C31.444,18.162 31.311,18.268 31.235,18.343 C31.158,18.418 31.029,18.57 30.948,18.68 C30.867,18.79 30.782,18.906 30.76,18.938 L30.719,18.995 L30.744,18.88 C30.758,18.817 30.796,18.611 30.829,18.422 C30.862,18.233 30.896,18.056 30.904,18.028 L30.919,17.978 L30.373,17.978 L29.827,17.978 L29.827,18.047 C29.827,18.085 29.795,18.314 29.755,18.555 C29.716,18.797 29.651,19.2 29.611,19.452 C29.571,19.704 29.5,20.142 29.453,20.425 C29.406,20.708 29.335,21.114 29.295,21.327 C29.255,21.54 29.184,21.913 29.137,22.157 C29.09,22.401 29.012,22.8 28.964,23.045 C28.916,23.289 28.858,23.577 28.836,23.686 C28.814,23.794 28.795,23.894 28.795,23.908 L28.795,23.933 L29.408,23.936 Z M15.004,23.936 L15.62,23.936 L15.637,23.891 C15.647,23.866 15.654,23.801 15.654,23.746 C15.654,23.691 15.693,23.405 15.74,23.111 C15.787,22.817 15.866,22.338 15.914,22.047 C15.962,21.756 16.034,21.331 16.072,21.102 C16.111,20.874 16.18,20.494 16.226,20.257 C16.272,20.021 16.342,19.654 16.382,19.441 C16.422,19.228 16.5,18.824 16.557,18.542 C16.613,18.26 16.666,18.018 16.674,18.005 L16.69,17.98 L16.067,17.988 L15.444,17.996 L15.392,18.368 C15.363,18.573 15.301,18.979 15.253,19.27 C15.205,19.561 15.133,20.006 15.093,20.258 C15.053,20.51 14.982,20.916 14.936,21.16 C14.89,21.404 14.82,21.778 14.78,21.99 C14.74,22.203 14.668,22.576 14.621,22.82 C14.573,23.064 14.509,23.386 14.479,23.536 C14.449,23.686 14.416,23.837 14.406,23.872 L14.389,23.936 L15.004,23.936 Z M7.302,23.936 L7.998,23.936 L8.048,23.628 C8.075,23.459 8.129,23.133 8.167,22.905 C8.205,22.677 8.276,22.251 8.324,21.96 C8.372,21.669 8.445,21.237 8.486,21.001 C8.527,20.765 8.591,20.398 8.629,20.187 C8.667,19.975 8.705,19.795 8.714,19.786 L8.73,19.77 L10.601,19.77 L12.472,19.77 L12.493,19.791 L12.514,19.812 L12.482,19.977 C12.464,20.068 12.411,20.348 12.365,20.6 C12.318,20.852 12.24,21.277 12.191,21.545 C12.142,21.813 12.071,22.193 12.033,22.39 C11.995,22.587 11.919,22.999 11.863,23.306 C11.807,23.613 11.762,23.88 11.762,23.9 L11.762,23.936 L12.461,23.936 L13.16,23.936 L13.191,23.757 C13.208,23.659 13.235,23.481 13.252,23.363 C13.269,23.245 13.308,22.994 13.34,22.805 C13.372,22.616 13.436,22.242 13.482,21.975 C13.528,21.708 13.605,21.25 13.654,20.959 C13.702,20.668 13.774,20.243 13.813,20.014 C13.852,19.785 13.922,19.399 13.968,19.155 C14.014,18.911 14.091,18.499 14.139,18.239 C14.187,17.979 14.259,17.586 14.298,17.366 C14.338,17.146 14.41,16.746 14.459,16.478 C14.508,16.21 14.57,15.898 14.596,15.784 L14.644,15.576 L13.937,15.576 L13.23,15.576 L13.211,15.712 C13.2,15.787 13.166,15.996 13.135,16.177 C13.104,16.358 13.047,16.68 13.009,16.893 C12.971,17.106 12.901,17.511 12.854,17.795 C12.807,18.078 12.747,18.454 12.721,18.629 L12.673,18.947 L11.635,18.968 L10.597,18.989 L9.727,18.968 C9.249,18.957 8.855,18.945 8.851,18.942 C8.848,18.939 8.864,18.828 8.887,18.695 C8.91,18.562 8.954,18.33 8.984,18.181 C9.014,18.032 9.072,17.735 9.112,17.522 C9.152,17.309 9.197,17.045 9.213,16.935 C9.229,16.825 9.261,16.641 9.285,16.527 C9.309,16.413 9.355,16.172 9.386,15.993 C9.418,15.813 9.451,15.646 9.461,15.621 L9.478,15.576 L8.777,15.576 L8.075,15.576 L8.03,15.827 C8.005,15.965 7.972,16.161 7.957,16.264 C7.942,16.367 7.889,16.695 7.841,16.994 C7.793,17.293 7.721,17.738 7.683,17.982 C7.645,18.226 7.573,18.671 7.526,18.97 C7.479,19.269 7.4,19.733 7.351,20.001 C7.302,20.269 7.232,20.649 7.195,20.846 C7.158,21.043 7.087,21.416 7.037,21.676 C6.987,21.936 6.915,22.303 6.876,22.492 C6.837,22.681 6.794,22.9 6.781,22.979 C6.767,23.058 6.723,23.285 6.683,23.484 C6.642,23.683 6.609,23.866 6.609,23.892 L6.609,23.939 L7.303,23.939 L7.303,23.936 L7.302,23.936 Z M49.44,23.263 L49.224,23.274 L49.078,23.248 C48.998,23.234 48.869,23.195 48.793,23.162 L48.654,23.102 L48.537,23.006 L48.42,22.91 L48.333,22.743 L48.246,22.576 L48.206,22.39 L48.166,22.204 L48.169,21.832 L48.172,21.46 L48.218,21.131 L48.264,20.802 L48.336,20.573 C48.375,20.447 48.408,20.328 48.408,20.309 C48.408,20.29 48.447,20.187 48.495,20.08 C48.542,19.973 48.622,19.809 48.671,19.714 C48.72,19.62 48.813,19.472 48.876,19.387 C48.939,19.301 49.052,19.173 49.127,19.101 C49.202,19.029 49.32,18.935 49.391,18.891 L49.519,18.812 L49.744,18.734 L49.969,18.656 L50.441,18.656 L50.913,18.656 L51.185,18.731 C51.335,18.773 51.493,18.821 51.538,18.838 L51.619,18.869 L51.603,18.948 C51.594,18.991 51.56,19.181 51.527,19.37 C51.494,19.559 51.429,19.92 51.383,20.172 C51.337,20.424 51.266,20.804 51.225,21.017 C51.184,21.23 51.125,21.5 51.094,21.618 C51.063,21.736 51.018,21.9 50.996,21.981 C50.973,22.063 50.919,22.205 50.876,22.296 C50.833,22.387 50.757,22.52 50.707,22.591 C50.657,22.662 50.574,22.76 50.521,22.809 C50.468,22.858 50.354,22.945 50.268,23.003 L50.111,23.108 L49.883,23.18 L49.655,23.252 L49.44,23.263 Z M48.953,24.076 L49.225,24.079 L49.483,24.037 C49.625,24.014 49.805,23.977 49.884,23.955 C49.963,23.933 50.104,23.875 50.199,23.826 L50.371,23.738 L50.519,23.608 L50.667,23.478 L50.823,23.27 C50.909,23.156 50.986,23.043 50.995,23.019 L51.012,22.976 L50.998,23.119 C50.99,23.198 50.972,23.327 50.958,23.405 C50.944,23.484 50.924,23.635 50.914,23.741 L50.895,23.934 L51.457,23.934 L52.019,23.934 L52.019,23.741 L52.019,23.548 L52.105,22.818 C52.152,22.416 52.222,21.882 52.26,21.63 C52.298,21.378 52.357,21.017 52.39,20.828 C52.424,20.639 52.483,20.298 52.523,20.069 C52.562,19.841 52.633,19.441 52.68,19.181 C52.727,18.921 52.803,18.509 52.848,18.265 C52.893,18.021 52.964,17.641 53.004,17.42 C53.045,17.2 53.118,16.813 53.166,16.561 C53.214,16.309 53.285,15.955 53.323,15.774 C53.361,15.593 53.392,15.435 53.392,15.423 L53.392,15.402 L52.779,15.402 L52.166,15.402 L52.148,15.581 C52.138,15.679 52.091,16.005 52.044,16.304 C51.997,16.603 51.919,17.08 51.872,17.363 C51.825,17.646 51.78,17.921 51.771,17.974 L51.756,18.069 L51.708,18.048 C51.681,18.037 51.537,17.997 51.388,17.959 L51.116,17.891 L50.744,17.862 L50.372,17.833 L50.057,17.862 L49.742,17.891 L49.456,17.963 L49.17,18.035 L48.898,18.168 L48.626,18.301 L48.426,18.449 L48.226,18.597 L48.053,18.783 C47.958,18.885 47.82,19.054 47.747,19.158 L47.614,19.348 L47.458,19.672 C47.372,19.85 47.268,20.086 47.227,20.196 C47.186,20.306 47.112,20.551 47.064,20.739 L46.976,21.082 L46.933,21.527 L46.89,21.972 L46.922,22.33 L46.954,22.688 L46.992,22.817 C47.013,22.888 47.058,23.014 47.091,23.098 L47.151,23.25 L47.261,23.399 L47.371,23.548 L47.497,23.651 L47.623,23.754 L47.795,23.839 C47.889,23.886 48.048,23.947 48.147,23.974 C48.246,24.001 48.407,24.034 48.505,24.047 C48.601,24.062 48.802,24.074 48.953,24.076 Z M39.633,23.265 L39.404,23.277 L39.252,23.238 C39.169,23.217 39.042,23.169 38.971,23.133 L38.841,23.066 L38.77,22.982 C38.731,22.936 38.672,22.845 38.638,22.78 L38.577,22.662 L38.565,22.387 L38.553,22.112 L38.602,21.945 C38.629,21.853 38.691,21.694 38.741,21.591 L38.832,21.404 L39.006,21.232 L39.18,21.06 L39.364,20.971 L39.548,20.882 L39.777,20.828 L40.006,20.774 L40.722,20.774 L41.438,20.774 L41.483,20.793 L41.528,20.812 L41.49,21.037 C41.469,21.161 41.419,21.384 41.379,21.534 C41.339,21.684 41.268,21.904 41.222,22.023 C41.176,22.142 41.137,22.248 41.137,22.257 C41.137,22.267 41.09,22.353 41.032,22.45 L40.927,22.626 L40.755,22.796 C40.661,22.89 40.573,22.966 40.56,22.966 C40.547,22.966 40.489,22.998 40.431,23.038 L40.325,23.11 L40.093,23.183 L39.861,23.256 L39.633,23.265 Z M39.276,24.066 L39.663,24.055 L39.906,23.993 L40.149,23.931 L40.306,23.857 C40.393,23.816 40.534,23.735 40.621,23.677 C40.708,23.619 40.842,23.509 40.919,23.433 C40.996,23.357 41.111,23.226 41.174,23.143 C41.237,23.06 41.292,22.996 41.296,23 C41.301,23.005 41.286,23.137 41.264,23.294 C41.242,23.451 41.223,23.66 41.223,23.759 L41.222,23.938 L41.747,23.938 L42.272,23.938 L42.288,23.53 L42.304,23.122 L42.379,22.592 C42.42,22.301 42.487,21.869 42.527,21.633 C42.567,21.397 42.637,20.997 42.682,20.745 C42.727,20.493 42.799,20.1 42.841,19.872 L42.918,19.457 L42.921,19.098 L42.924,18.739 L42.843,18.573 L42.762,18.407 L42.652,18.301 L42.542,18.195 L42.361,18.104 L42.18,18.013 L41.911,17.953 L41.642,17.893 L41.272,17.865 L40.902,17.837 L40.425,17.867 C40.163,17.883 39.793,17.915 39.604,17.938 L39.26,17.98 L39.026,17.981 L38.792,17.982 L38.758,18.147 C38.739,18.238 38.687,18.453 38.642,18.625 C38.597,18.797 38.565,18.943 38.57,18.948 C38.575,18.953 38.7,18.925 38.848,18.885 C38.996,18.845 39.31,18.78 39.547,18.739 L39.976,18.666 L40.363,18.65 L40.75,18.634 L40.999,18.678 L41.248,18.722 L41.414,18.804 L41.58,18.886 L41.673,19.025 L41.766,19.164 L41.765,19.383 L41.764,19.602 L41.715,19.842 L41.666,20.082 L40.636,20.086 L39.606,20.09 L39.269,20.182 C39.084,20.233 38.878,20.3 38.813,20.332 C38.747,20.364 38.682,20.39 38.667,20.39 C38.652,20.39 38.542,20.451 38.422,20.526 L38.203,20.662 L38.031,20.834 C37.936,20.929 37.815,21.07 37.762,21.149 C37.709,21.228 37.622,21.392 37.57,21.515 L37.475,21.737 L37.431,21.987 L37.387,22.237 L37.387,22.499 L37.387,22.761 L37.429,22.979 L37.471,23.197 L37.549,23.339 C37.592,23.417 37.67,23.532 37.723,23.594 L37.819,23.707 L37.99,23.811 L38.161,23.915 L38.357,23.97 C38.465,24.001 38.629,24.037 38.722,24.052 L38.891,24.079 L39.276,24.066 Z M34.565,24.076 L34.88,24.08 L35.238,24.038 C35.435,24.015 35.697,23.976 35.82,23.952 C35.943,23.928 36.143,23.881 36.264,23.847 C36.385,23.813 36.494,23.776 36.507,23.765 C36.52,23.754 36.554,23.624 36.583,23.476 C36.612,23.328 36.648,23.13 36.664,23.035 C36.68,22.941 36.688,22.858 36.682,22.852 C36.676,22.846 36.655,22.854 36.635,22.87 C36.615,22.886 36.474,22.945 36.323,23.001 L36.047,23.103 L35.654,23.179 L35.261,23.255 L34.927,23.244 L34.593,23.233 L34.403,23.167 L34.213,23.101 L34.066,22.973 L33.92,22.845 L33.823,22.668 L33.726,22.491 L33.68,22.254 L33.634,22.017 L33.634,21.71 L33.634,21.403 L33.69,21.031 L33.746,20.659 L33.806,20.459 C33.839,20.349 33.876,20.22 33.888,20.173 C33.901,20.126 33.953,19.99 34.005,19.872 C34.057,19.754 34.149,19.571 34.21,19.466 L34.321,19.275 L34.457,19.134 L34.593,18.993 L34.737,18.904 L34.881,18.815 L35.066,18.758 C35.168,18.727 35.348,18.686 35.466,18.668 L35.681,18.635 L35.996,18.651 L36.311,18.667 L36.683,18.741 L37.055,18.816 L37.206,18.872 C37.289,18.903 37.361,18.928 37.365,18.928 C37.369,18.928 37.389,18.822 37.409,18.692 C37.429,18.562 37.464,18.348 37.488,18.217 C37.511,18.086 37.525,17.973 37.518,17.966 C37.511,17.959 37.399,17.941 37.269,17.927 C37.139,17.913 36.786,17.886 36.485,17.869 L35.937,17.838 L35.55,17.868 L35.163,17.898 L34.877,17.958 L34.591,18.018 L34.407,18.092 C34.306,18.133 34.157,18.206 34.077,18.255 C33.997,18.304 33.895,18.37 33.85,18.401 C33.805,18.432 33.67,18.555 33.55,18.674 L33.331,18.89 L33.209,19.069 C33.142,19.168 33.025,19.373 32.95,19.526 L32.814,19.804 L32.709,20.105 C32.651,20.27 32.571,20.541 32.531,20.706 L32.457,21.007 L32.43,21.279 L32.403,21.551 L32.403,21.909 L32.403,22.267 L32.43,22.475 L32.457,22.683 L32.543,22.897 L32.629,23.111 L32.728,23.266 L32.827,23.421 L32.985,23.576 L33.143,23.731 L33.31,23.819 L33.477,23.907 L33.696,23.968 C33.816,24.001 33.99,24.04 34.083,24.053 C34.176,24.062 34.393,24.074 34.565,24.076 Z M26,20.043 C25.207,20.043 24.559,20.037 24.559,20.03 C24.559,20.023 24.593,19.923 24.634,19.808 C24.675,19.693 24.748,19.522 24.795,19.427 L24.881,19.256 L25.07,19.068 L25.259,18.88 L25.445,18.791 C25.547,18.742 25.683,18.689 25.746,18.673 C25.809,18.657 25.989,18.635 26.147,18.625 L26.433,18.607 L26.653,18.635 L26.873,18.663 L27.033,18.736 L27.193,18.809 L27.281,18.904 C27.329,18.956 27.387,19.033 27.409,19.074 L27.449,19.15 L27.475,19.318 L27.501,19.486 L27.471,19.765 L27.441,20.044 L26,20.044 L26,20.043 Z M25.461,24.076 L25.776,24.08 L26.091,24.051 C26.264,24.035 26.548,24.002 26.721,23.978 C26.894,23.954 27.193,23.899 27.386,23.857 L27.736,23.78 L27.753,23.651 C27.763,23.58 27.802,23.369 27.84,23.182 L27.91,22.842 L27.895,22.827 L27.88,22.812 L27.773,22.864 C27.714,22.892 27.531,22.96 27.366,23.015 L27.066,23.114 L26.751,23.175 L26.436,23.236 L25.935,23.237 L25.434,23.238 L25.262,23.183 C25.168,23.153 25.029,23.098 24.953,23.06 L24.816,22.992 L24.703,22.89 L24.59,22.788 L24.502,22.634 L24.414,22.48 L24.359,22.287 L24.304,22.094 L24.304,21.736 L24.304,21.378 L24.353,21.059 L24.402,20.74 L24.833,20.72 L25.264,20.7 L26.857,20.71 L28.45,20.72 L28.498,20.516 C28.524,20.404 28.565,20.172 28.588,20.001 L28.63,19.69 L28.631,19.428 L28.632,19.166 L28.587,18.97 L28.542,18.774 L28.467,18.645 C28.426,18.574 28.353,18.471 28.306,18.416 C28.258,18.361 28.173,18.284 28.117,18.244 C28.061,18.204 27.95,18.138 27.872,18.096 L27.729,18.02 L27.479,17.96 L27.229,17.9 L26.921,17.871 L26.613,17.842 L26.327,17.861 L26.041,17.88 L25.697,17.946 L25.353,18.012 L25.138,18.098 C25.02,18.145 24.84,18.231 24.737,18.289 C24.635,18.347 24.493,18.441 24.422,18.499 C24.351,18.556 24.228,18.668 24.149,18.747 C24.07,18.826 23.953,18.968 23.889,19.062 C23.825,19.156 23.727,19.324 23.671,19.434 C23.615,19.544 23.542,19.699 23.509,19.778 C23.476,19.857 23.416,20.018 23.375,20.136 C23.335,20.254 23.271,20.48 23.234,20.637 C23.197,20.794 23.146,21.054 23.121,21.213 L23.075,21.503 L23.075,21.929 L23.075,22.355 L23.119,22.541 C23.143,22.643 23.189,22.798 23.221,22.885 C23.253,22.972 23.312,23.1 23.352,23.171 C23.392,23.242 23.478,23.356 23.543,23.425 C23.608,23.494 23.725,23.598 23.804,23.656 C23.883,23.715 24.023,23.797 24.115,23.839 L24.283,23.916 L24.518,23.973 C24.647,24.004 24.842,24.041 24.951,24.055 C25.057,24.061 25.288,24.074 25.461,24.076 Z M19.516,23.289 L19.277,23.303 L19.121,23.275 L18.965,23.247 L18.806,23.175 L18.647,23.103 L18.536,22.997 L18.425,22.891 L18.361,22.748 C18.326,22.669 18.281,22.536 18.261,22.451 L18.225,22.297 L18.24,22.05 L18.255,21.803 L18.329,21.416 C18.37,21.203 18.442,20.804 18.491,20.528 C18.539,20.252 18.613,19.849 18.654,19.631 L18.729,19.235 L18.893,19.098 C18.983,19.023 19.126,18.922 19.211,18.874 L19.365,18.787 L19.565,18.725 L19.765,18.663 L20.023,18.648 L20.281,18.633 L20.491,18.678 L20.701,18.723 L20.849,18.791 L20.997,18.859 L21.121,18.984 L21.245,19.109 L21.312,19.241 C21.349,19.314 21.401,19.456 21.427,19.557 L21.475,19.741 L21.46,20.285 L21.445,20.829 L21.371,21.151 C21.331,21.328 21.254,21.598 21.2,21.752 L21.102,22.032 L20.983,22.258 C20.917,22.383 20.816,22.551 20.758,22.632 C20.7,22.713 20.607,22.818 20.552,22.866 C20.497,22.914 20.405,22.987 20.347,23.03 L20.242,23.108 L19.999,23.191 L19.756,23.274 L19.516,23.289 Z M16.865,26.599 L17.481,26.599 L17.498,26.554 C17.508,26.529 17.515,26.471 17.515,26.424 C17.515,26.377 17.535,26.208 17.56,26.047 C17.585,25.886 17.643,25.516 17.689,25.225 C17.735,24.934 17.805,24.496 17.843,24.252 C17.881,24.008 17.928,23.695 17.947,23.558 C17.966,23.42 17.989,23.307 17.998,23.307 C18.007,23.307 18.047,23.368 18.086,23.442 L18.158,23.577 L18.317,23.737 L18.476,23.897 L18.671,23.975 L18.866,24.053 L19.099,24.083 L19.332,24.113 L19.628,24.095 L19.924,24.077 L20.244,23.994 L20.564,23.911 L20.736,23.833 C20.83,23.79 20.998,23.696 21.108,23.624 L21.308,23.493 L21.495,23.306 C21.598,23.203 21.743,23.039 21.817,22.94 C21.891,22.841 21.952,22.754 21.952,22.745 C21.952,22.736 21.989,22.675 22.033,22.609 C22.077,22.543 22.169,22.36 22.236,22.203 C22.303,22.046 22.408,21.762 22.469,21.573 L22.58,21.229 L22.637,20.931 C22.669,20.767 22.709,20.497 22.727,20.33 L22.76,20.026 L22.741,19.768 L22.722,19.51 L22.662,19.252 L22.602,18.994 L22.505,18.801 L22.408,18.608 L22.22,18.41 L22.033,18.212 L21.812,18.098 L21.591,17.984 L21.348,17.926 L21.105,17.868 L20.862,17.85 L20.619,17.832 L20.348,17.863 L20.077,17.894 L19.856,17.95 L19.635,18.007 L19.443,18.096 C19.337,18.145 19.183,18.228 19.101,18.281 C19.019,18.334 18.934,18.394 18.912,18.416 C18.891,18.437 18.839,18.477 18.798,18.504 L18.723,18.553 L18.776,18.302 C18.805,18.164 18.829,18.034 18.83,18.015 L18.831,17.979 L18.306,17.979 L17.781,17.979 L17.689,18.559 C17.638,18.878 17.558,19.371 17.511,19.654 C17.464,19.937 17.393,20.363 17.353,20.599 C17.313,20.835 17.243,21.254 17.196,21.53 C17.149,21.806 17.072,22.244 17.024,22.503 C16.976,22.763 16.906,23.143 16.868,23.348 C16.83,23.553 16.759,23.939 16.71,24.207 C16.661,24.475 16.582,24.9 16.535,25.152 C16.488,25.404 16.411,25.803 16.364,26.04 C16.317,26.277 16.272,26.498 16.263,26.534 L16.247,26.598 L16.865,26.599 Z" id="Shape" fill="#FFFFFF" fill-rule="nonzero"></path>
        </g>
    </g>
</svg>