<?xml version="1.0" encoding="UTF-8"?>
<svg width="60px" height="40px" viewBox="0 0 60 40" version="1.1" xmlns="http://www.w3.org/2000/svg" xmlns:xlink="http://www.w3.org/1999/xlink">
    <!-- Generator: Sketch 52.4 (67378) - http://www.bohemiancoding.com/sketch -->
    <title>Artboard</title>
    <desc>Created with Sketch.</desc>
    <defs>
        <linearGradient x1="3.10183327%" y1="50.0022029%" x2="97.2795397%" y2="50.0022029%" id="linearGradient-1">
            <stop stop-color="#007D40" offset="0%"></stop>
            <stop stop-color="#53B232" offset="100%"></stop>
        </linearGradient>
        <linearGradient x1="0.00802890405%" y1="49.9972487%" x2="99.9959855%" y2="49.9972487%" id="linearGradient-2">
            <stop stop-color="#762A2E" offset="0%"></stop>
            <stop stop-color="#E30138" offset="100%"></stop>
        </linearGradient>
        <linearGradient x1="0.00802890405%" y1="49.9966924%" x2="99.9959855%" y2="49.9966924%" id="linearGradient-3">
            <stop stop-color="#1B2D74" offset="0%"></stop>
            <stop stop-color="#006BB6" offset="100%"></stop>
        </linearGradient>
    </defs>
    <g id="Artboard" stroke="none" stroke-width="1" fill="none" fill-rule="evenodd">
        <g id="jcb-v2">
            <path d="M60,35 C60,37.75 57.75,40 55,40 L5,40 C2.25,40 0,37.75 0,35 L0,5 C0,2.25 2.25,0 5,0 L55,0 C57.75,0 60,2.25 60,5 L60,35 Z" id="Path" fill="#F5F5F5"></path>
            <path d="M55,0 L5,0 C2.25,0 0,2.25 0,5 L0,35 C0,37.75 2.25,40 5,40 L55,40 C57.75,40 60,37.75 60,35 L60,5 C60,2.25 57.75,0 55,0 Z M55,1 C57.206,1 59,2.794 59,5 L59,35 C59,37.206 57.206,39 55,39 L5,39 C2.794,39 1,37.206 1,35 L1,5 C1,2.794 2.794,1 5,1 L55,1 Z" id="Shape" fill="#D0D0D0" fill-rule="nonzero"></path>
            <path d="M38.579,10.915 L38.579,10.913 C36.915,10.913 35.55,12.261 35.55,13.942 L35.533,29.071 L39.977,29.071 C41.641,29.071 43.006,27.723 43.006,26.042 L43.006,10.915 L38.579,10.915 Z" id="Path" fill="url(#linearGradient-1)"></path>
            <path d="M29.309,10.914 C27.645,10.914 26.28,12.262 26.28,13.943 L26.28,29.087 L30.724,29.087 C32.388,29.087 33.753,27.739 33.753,26.058 L33.753,10.914 L29.309,10.914 Z" id="Path" fill="url(#linearGradient-2)"></path>
            <path d="M20.039,10.914 C18.375,10.914 17.01,12.262 17.01,13.943 L16.994,29.054 L21.438,29.054 C23.102,29.054 24.467,27.706 24.467,26.025 L24.467,10.914 L20.039,10.914 Z" id="Path" fill="url(#linearGradient-3)"></path>
        </g>
    </g>
</svg>