<?xml version="1.0" encoding="UTF-8"?>
<svg width="60px" height="40px" viewBox="0 0 60 40" version="1.1" xmlns="http://www.w3.org/2000/svg" xmlns:xlink="http://www.w3.org/1999/xlink">
    <!-- Generator: Sketch 52.4 (67378) - http://www.bohemiancoding.com/sketch -->
    <title>Artboard</title>
    <desc>Created with Sketch.</desc>
    <g id="Artboard" stroke="none" stroke-width="1" fill="none" fill-rule="evenodd">
        <g id="mastercard-black">
            <path d="M60,35 C60,37.75 57.75,40 55,40 L5,40 C2.25,40 0,37.75 0,35 L0,5 C0,2.25 2.25,0 5,0 L55,0 C57.75,0 60,2.25 60,5 L60,35 Z" id="Path" fill="#000000"></path>
            <circle id="Oval" fill="#F79E1B" cx="35.27" cy="20.012" r="8.599"></circle>
            <circle id="Oval" fill="#EB001B" cx="24.73" cy="19.988" r="8.599"></circle>
            <path d="M26.671,19.993 C26.665,22.757 27.962,25.219 29.984,26.797 C32.014,25.228 33.323,22.773 33.33,20.01 C33.336,17.246 32.039,14.784 30.017,13.206 C27.986,14.773 26.677,17.229 26.671,19.993 Z" id="Path" fill="#FF5F00"></path>
        </g>
    </g>
</svg>