<?xml version="1.0" encoding="UTF-8"?>
<svg width="60px" height="40px" viewBox="0 0 60 40" version="1.1" xmlns="http://www.w3.org/2000/svg" xmlns:xlink="http://www.w3.org/1999/xlink">
    <!-- Generator: Sketch 52.4 (67378) - http://www.bohemiancoding.com/sketch -->
    <title>Artboard</title>
    <desc>Created with Sketch.</desc>
    <g id="Artboard" stroke="none" stroke-width="1" fill="none" fill-rule="evenodd">
        <g id="santander">
            <path d="M60,35 C60,37.75 57.75,40 55,40 L5,40 C2.25,40 0,37.75 0,35 L0,5 C0,2.25 2.25,0 5,0 L55,0 C57.75,0 60,2.25 60,5 L60,35 Z" id="Path" fill="#FD0D1A"></path>
            <g id="Group" transform="translate(6.000000, 6.000000)" fill="#FFFFFF">
                <path d="M24.284,0.905 C24.233,1.358 24.254,1.843 24.384,2.236 C24.559,2.764 24.802,3.145 25.695,4.307 C26.638,5.533 26.939,5.978 27.164,6.614 C27.347,7.134 27.351,7.434 27.273,7.906 C28.099,8.063 29.453,8.502 30.36,9.046 C31.202,9.564 31.814,10.235 32.038,10.886 C32.171,11.271 32.165,11.868 32.024,12.242 C31.889,12.601 31.704,12.9 31.43,13.199 C30.344,14.389 28.193,15.244 25.602,15.516 C25.029,15.576 23.624,15.619 23.143,15.591 C19.682,15.39 16.899,14.194 16.106,12.569 C15.777,11.893 15.785,11.311 16.132,10.643 C16.418,10.092 17.203,9.411 18.126,8.911 C19.014,8.484 19.847,8.164 20.74,7.913 C20.783,8.496 21.92,9.89 22.296,10.383 C23.116,11.457 23.441,11.969 23.673,12.379 C23.812,12.625 23.891,12.783 23.852,13.252 C23.852,13.252 24.168,12.966 24.287,12.723 C24.441,12.409 24.496,12.09 24.466,11.681 C24.43,11.188 24.347,10.886 24.111,10.403 C23.882,9.934 23.553,9.459 22.929,8.692 C22.047,7.609 21.72,7.015 21.586,6.242 C21.436,5.385 21.677,4.473 22.171,4.03 C22.278,3.933 22.451,3.839 22.451,3.839 C22.451,3.839 22.436,4.06 22.436,4.311 C22.436,4.842 22.497,5.118 22.7,5.523 C22.953,6.025 23.303,6.495 24.376,7.772 C25.326,8.903 25.621,9.477 25.621,10.195 L25.621,10.541 C25.621,10.541 25.872,10.35 25.988,10.174 C26.356,9.618 26.415,8.751 26.134,7.983 C25.942,7.456 25.63,6.977 24.709,5.82 C23.772,4.642 23.378,3.698 23.378,2.911 C23.378,2.124 23.55,1.374 24.284,0.905 Z" id="Path"></path>
                <path d="M5.634,24.838 C5.653,24.606 5.635,24.377 5.61,24.255 C5.51,23.775 5.156,23.293 4.644,22.939 C4.489,22.832 4.022,22.59 3.539,22.366 C2.572,21.919 2.3,21.757 2.059,21.487 C1.823,21.222 1.736,20.987 1.734,20.61 C1.732,20.359 1.747,20.283 1.828,20.105 C2.091,19.531 2.748,19.226 3.512,19.323 C3.963,19.38 4.199,19.481 4.464,19.729 C4.742,19.989 4.883,20.289 4.959,20.783 L4.982,21.061 L5.4,21.061 L5.365,19.147 L5.226,19.112 C5.121,19.086 4.427,18.954 4.06,18.907 C3.512,18.838 3.29,18.83 2.967,18.867 C2.342,18.939 1.825,19.176 1.435,19.57 C1.038,19.971 0.845,20.396 0.815,20.938 C0.784,21.494 0.962,21.954 1.359,22.349 C1.692,22.68 1.835,22.766 2.865,23.256 C4.184,23.883 4.482,24.068 4.682,24.54 C4.856,24.949 4.868,25.408 4.688,25.775 C4.229,26.714 2.784,26.958 1.884,26.251 C1.548,25.987 1.302,25.587 1.222,25.175 L1.179,24.96 L0.823,24.96 L0.887,26.792 C0.887,26.792 1.572,26.976 1.891,27.01 C2.132,27.036 2.373,27.082 2.615,27.082 C3.102,27.082 3.328,27.146 3.833,26.978 C4.355,26.804 5.503,26.457 5.634,24.838 Z" id="Path"></path>
                <path d="M8.843,21.829 C9.4,21.829 9.887,22.073 10.118,22.432 C10.337,22.772 10.339,23.064 10.339,23.256 L10.339,25.9 C10.339,26.213 10.566,26.314 10.893,26.204 L11.139,26.109 L11.139,26.457 L9.921,26.989 C9.78,27.052 9.683,26.908 9.615,26.642 L9.538,26.387 L9.335,26.545 C9.048,26.769 8.668,26.978 8.111,26.978 C7.585,26.98 7.241,26.908 6.899,26.363 C6.739,26.048 6.722,25.624 6.857,25.319 C7.013,24.965 7.323,24.784 8.624,24.281 L9.503,23.951 L9.503,23.707 C9.503,22.802 9.259,22.524 8.946,22.35 C8.694,22.21 8.36,22.246 8.041,22.454 C7.778,22.626 7.698,22.916 7.833,23.215 C7.937,23.445 7.902,23.373 7.902,23.38 L7.188,23.757 C7.188,23.757 7.065,23.545 7.029,23.43 C6.865,22.892 7.076,22.589 7.883,22.145 C8.306,21.913 8.554,21.829 8.843,21.829 Z M9.505,24.334 C9.505,24.334 8.36,24.817 8.14,24.929 C7.964,25.019 7.763,25.178 7.696,25.308 C7.609,25.477 7.623,25.786 7.731,25.969 C7.832,26.141 7.954,26.282 8.114,26.352 C8.171,26.377 8.363,26.421 8.497,26.422 C8.769,26.423 9.055,26.31 9.347,26.067 L9.506,25.935 L9.506,24.334 L9.505,24.334 Z" id="Shape" fill-rule="nonzero"></path>
                <path d="M13.089,21.829 L13.089,22.765 L13.328,22.539 C13.846,22.049 14.341,21.829 14.724,21.829 C15.594,21.829 16.394,22.595 16.359,23.673 L16.359,26.178 C16.359,26.456 16.429,26.63 16.707,26.63 L17.159,26.63 L17.159,26.978 L14.758,26.978 L14.758,26.63 L15.106,26.63 C15.384,26.63 15.489,26.456 15.489,26.178 L15.489,23.673 C15.489,23.151 15.297,22.89 15.141,22.733 C14.932,22.524 14.678,22.466 14.306,22.489 C14.017,22.508 13.72,22.661 13.38,22.936 L13.158,23.115 L13.158,26.351 C13.158,26.525 13.228,26.629 13.402,26.629 L13.854,26.629 L13.854,26.977 L11.488,26.977 L11.488,26.63 L11.801,26.63 C12.079,26.63 12.288,26.456 12.288,26.178 L12.288,23.499 C12.288,22.803 12.079,22.594 11.488,22.907 L11.488,22.535 C11.871,22.42 12.567,22.072 12.949,21.828 L13.089,21.828 L13.089,21.829 Z" id="Path"></path>
                <path d="M19.804,26.978 C20.117,26.978 20.191,26.943 20.483,26.697 L21.057,26.213 L20.918,25.969 L20.662,26.105 C20.28,26.309 19.978,26.351 19.596,26.177 C19.27,26.029 19.074,25.516 19.074,25.237 L19.074,22.42 L20.675,22.419 L20.849,21.932 L19.074,21.932 L19.074,20.331 L18.9,20.331 C18.482,21.097 17.856,21.827 17.091,22.28 L17.091,22.419 L18.204,22.419 L18.204,25.238 C18.204,25.899 18.448,26.386 18.83,26.665 C19.193,26.929 19.422,26.978 19.804,26.978 Z" id="Path"></path>
                <path d="M23.493,21.829 C24.05,21.829 24.537,22.073 24.768,22.432 C24.987,22.772 24.989,23.064 24.989,23.256 L24.989,25.9 C24.989,26.213 25.216,26.314 25.543,26.204 L25.789,26.109 L25.789,26.457 L24.571,26.989 C24.43,27.052 24.333,26.908 24.265,26.642 L24.188,26.387 L23.985,26.545 C23.698,26.769 23.318,26.978 22.761,26.978 C22.235,26.98 21.891,26.908 21.549,26.363 C21.389,26.048 21.372,25.624 21.507,25.319 C21.663,24.965 21.973,24.784 23.274,24.281 L24.153,23.951 L24.153,23.707 C24.153,22.802 23.909,22.524 23.596,22.35 C23.344,22.21 23.01,22.246 22.691,22.454 C22.428,22.626 22.348,22.916 22.483,23.215 C22.587,23.445 22.552,23.373 22.552,23.38 L21.838,23.757 C21.838,23.757 21.715,23.545 21.679,23.43 C21.515,22.892 21.726,22.589 22.533,22.145 C22.955,21.913 23.203,21.829 23.493,21.829 Z M24.154,24.334 C24.154,24.334 23.009,24.817 22.789,24.929 C22.613,25.019 22.412,25.178 22.345,25.308 C22.258,25.477 22.272,25.786 22.38,25.969 C22.481,26.141 22.603,26.282 22.763,26.352 C22.82,26.377 23.012,26.421 23.146,26.422 C23.418,26.423 23.704,26.31 23.996,26.067 L24.155,25.935 L24.155,24.334 L24.154,24.334 Z" id="Shape" fill-rule="nonzero"></path>
                <path d="M27.738,21.829 L27.738,22.765 L27.977,22.539 C28.495,22.049 28.99,21.829 29.373,21.829 C30.243,21.829 31.043,22.595 31.008,23.673 L31.008,26.178 C31.008,26.456 31.078,26.63 31.356,26.63 L31.808,26.63 L31.808,26.978 L29.407,26.978 L29.407,26.63 L29.755,26.63 C30.033,26.63 30.138,26.456 30.138,26.178 L30.138,23.673 C30.138,23.151 29.946,22.89 29.79,22.733 C29.581,22.524 29.327,22.466 28.955,22.489 C28.666,22.508 28.369,22.661 28.029,22.936 L27.807,23.115 L27.807,26.351 C27.807,26.525 27.877,26.629 28.051,26.629 L28.503,26.629 L28.503,26.977 L26.137,26.977 L26.137,26.63 L26.45,26.63 C26.728,26.63 26.937,26.456 26.937,26.178 L26.937,23.499 C26.937,22.803 26.728,22.594 26.137,22.907 L26.137,22.535 C26.52,22.42 27.216,22.072 27.598,21.828 L27.738,21.828 L27.738,21.829 Z" id="Path"></path>
                <path d="M38.072,26.387 L38.072,26.039 C37.689,26.213 37.515,26.213 37.384,26.124 C37.197,25.997 37.202,25.76 37.202,25.76 L37.202,18.105 L37.098,18.105 C36.594,18.424 35.985,18.731 35.463,18.905 L35.463,19.288 C35.741,19.184 35.95,19.128 36.124,19.218 C36.238,19.281 36.298,19.357 36.298,19.531 L36.298,20.811 L36.298,22.133 L36.094,22.05 C35.684,21.884 35.472,21.846 34.976,21.847 C34.561,21.848 34.474,21.859 34.227,21.941 C33.083,22.323 32.351,23.441 32.411,24.713 C32.445,25.441 32.656,26.013 33.132,26.42 C33.619,26.838 34.037,26.977 34.524,26.977 C35.185,26.977 35.568,26.845 36.047,26.52 C36.194,26.42 36.333,26.316 36.333,26.316 C36.368,26.664 36.453,26.873 36.577,27.047 L38.072,26.387 Z M34.465,26.325 C33.815,26.093 33.342,25.291 33.281,24.317 C33.205,23.099 33.88,22.247 34.92,22.247 C35.357,22.247 35.693,22.367 36.097,22.667 L36.297,22.816 L36.279,25.943 L36.056,26.078 C35.677,26.307 35.493,26.361 35.044,26.376 C34.72,26.386 34.611,26.377 34.465,26.325 Z" id="Shape" fill-rule="nonzero"></path>
                <path d="M41.813,26.926 C42.102,26.849 42.492,26.7 42.944,26.421 L42.944,26.073 C42.561,26.351 41.955,26.524 41.413,26.525 C40.825,26.526 40.369,26.351 40.056,26.003 C39.594,25.49 39.464,25.063 39.385,24.02 L43.049,24.02 C43.049,24.02 43.049,23.498 42.84,23.011 C42.697,22.677 42.562,22.419 42.179,22.176 C41.821,21.948 41.337,21.851 40.926,21.849 C40.499,21.846 40.433,21.854 40.201,21.939 C39.118,22.334 38.38,23.456 38.471,24.572 C38.558,25.651 39.189,26.516 40.141,26.864 C40.562,27.017 41.357,27.047 41.813,26.926 Z M39.812,22.629 C40.056,22.385 40.334,22.246 40.786,22.246 C41.204,22.246 41.482,22.35 41.76,22.629 C41.969,22.838 42.073,23.012 42.118,23.603 L39.385,23.603 C39.43,23.186 39.569,22.872 39.812,22.629 Z" id="Shape" fill-rule="nonzero"></path>
                <path d="M45.101,21.829 L45.101,22.977 C45.284,22.662 45.449,22.455 45.762,22.142 C46.004,21.9 46.319,21.829 46.562,21.829 C46.736,21.829 47.188,21.968 47.188,21.968 L47.188,23.012 L47.014,23.012 C46.944,22.734 46.701,22.594 46.353,22.594 C45.901,22.594 45.605,22.777 45.422,23.051 C45.239,23.325 45.17,23.464 45.17,24.056 L45.17,26.353 C45.17,26.527 45.24,26.631 45.414,26.631 L45.866,26.631 L45.866,26.979 L43.5,26.979 L43.5,26.63 L43.813,26.63 C44.091,26.63 44.3,26.456 44.3,26.178 L44.3,23.499 C44.3,22.733 44.022,22.768 43.534,22.977 L43.534,22.629 C43.986,22.455 44.543,22.211 44.961,21.829 L45.101,21.829 Z" id="Path"></path>
            </g>
        </g>
    </g>
</svg>