<svg width="24" height="19" viewBox="0 0 24 19" fill="none" xmlns="http://www.w3.org/2000/svg">
<path fill-rule="evenodd" clip-rule="evenodd" d="M5.9 9.75001L2.50343e-07 9.75001L0 8.25001L5.9 8.25001V9.75001Z" fill="#222222"/>
<path fill-rule="evenodd" clip-rule="evenodd" d="M3.7 6.04999L3.7 11.95H2.2L2.2 6.04999H3.7Z" fill="#222222"/>
<path d="M18.75 17.8C18.75 18.3523 18.3023 18.8 17.75 18.8C17.1977 18.8 16.75 18.3523 16.75 17.8C16.75 17.2477 17.1977 16.8 17.75 16.8C18.3023 16.8 18.75 17.2477 18.75 17.8Z" fill="#222222"/>
<path fill-rule="evenodd" clip-rule="evenodd" d="M17.75 17.2C17.4186 17.2 17.15 17.4686 17.15 17.8C17.15 18.1314 17.4186 18.4 17.75 18.4C18.0814 18.4 18.35 18.1314 18.35 17.8C18.35 17.4686 18.0814 17.2 17.75 17.2ZM17.75 18.8C18.3023 18.8 18.75 18.3523 18.75 17.8C18.75 17.2477 18.3023 16.8 17.75 16.8C17.1977 16.8 16.75 17.2477 16.75 17.8C16.75 18.3523 17.1977 18.8 17.75 18.8Z" fill="#222222"/>
<path d="M12.75 17.8C12.75 18.3523 12.3023 18.8 11.75 18.8C11.1977 18.8 10.75 18.3523 10.75 17.8C10.75 17.2477 11.1977 16.8 11.75 16.8C12.3023 16.8 12.75 17.2477 12.75 17.8Z" fill="#222222"/>
<path fill-rule="evenodd" clip-rule="evenodd" d="M11.75 17.2C11.4186 17.2 11.15 17.4686 11.15 17.8C11.15 18.1314 11.4186 18.4 11.75 18.4C12.0814 18.4 12.35 18.1314 12.35 17.8C12.35 17.4686 12.0814 17.2 11.75 17.2ZM11.75 18.8C12.3023 18.8 12.75 18.3523 12.75 17.8C12.75 17.2477 12.3023 16.8 11.75 16.8C11.1977 16.8 10.75 17.2477 10.75 17.8C10.75 18.3523 11.1977 18.8 11.75 18.8Z" fill="#222222"/>
<path fill-rule="evenodd" clip-rule="evenodd" d="M4.95 0L6.01541 9.3141e-08C7.40883 2.14958e-07 8.59021 1.0246 8.78727 2.40402L10.2967 12.9697C10.3811 13.5609 10.8874 14 11.4846 14L20.55 14V15.6L11.4846 15.6C10.0912 15.6 8.90979 14.5754 8.71273 13.196L7.20335 2.63029C7.1189 2.03912 6.61259 1.6 6.01541 1.6L4.95 1.6V0Z" fill="#222222"/>
<path fill-rule="evenodd" clip-rule="evenodd" d="M10.95 2H20.6884C22.51 2 23.8466 3.71189 23.4048 5.4791L22.4048 9.4791C22.0932 10.7256 20.9733 11.6 19.6884 11.6H9.95V10H19.6884C20.2391 10 20.7191 9.62524 20.8526 9.09104L21.8526 5.09104C22.042 4.33367 21.4691 3.6 20.6884 3.6H10.95V2Z" fill="#222222"/>
</svg>
