<svg width="18" height="14" viewBox="0 0 18 14" fill="none" xmlns="http://www.w3.org/2000/svg">
<path fill-rule="evenodd" clip-rule="evenodd" d="M4.2 9.80001V0.200012H5.8V9.80001H4.2Z" fill="#222222"/>
<path fill-rule="evenodd" clip-rule="evenodd" d="M1.8 13.8V0.200012H0.199997V13.8H1.8Z" fill="#222222"/>
<path fill-rule="evenodd" clip-rule="evenodd" d="M17.8 13.8V0.200012H16.2V13.8H17.8Z" fill="#222222"/>
<path fill-rule="evenodd" clip-rule="evenodd" d="M9.8 9.80001V0.200012H8.2V9.80001H9.8Z" fill="#222222"/>
<path fill-rule="evenodd" clip-rule="evenodd" d="M13.8 9.80001V0.200012L12.2 0.200012V9.80001H13.8Z" fill="#222222"/>
<path d="M9 12C9.55228 12 10 12.4477 10 13C10 13.5523 9.55228 14 9 14C8.44771 14 8 13.5523 8 13C8 12.4477 8.44771 12 9 12Z" fill="#222222"/>
<path fill-rule="evenodd" clip-rule="evenodd" d="M8.4 13C8.4 13.3314 8.66863 13.6 9 13.6C9.33137 13.6 9.6 13.3314 9.6 13C9.6 12.6686 9.33137 12.4 9 12.4C8.66863 12.4 8.4 12.6686 8.4 13ZM10 13C10 12.4477 9.55228 12 9 12C8.44771 12 8 12.4477 8 13C8 13.5523 8.44771 14 9 14C9.55228 14 10 13.5523 10 13Z" fill="#222222"/>
<path d="M5 12C5.55228 12 6 12.4477 6 13C6 13.5523 5.55228 14 5 14C4.44771 14 4 13.5523 4 13C4 12.4477 4.44771 12 5 12Z" fill="#222222"/>
<path fill-rule="evenodd" clip-rule="evenodd" d="M4.4 13C4.4 13.3314 4.66863 13.6 5 13.6C5.33137 13.6 5.6 13.3314 5.6 13C5.6 12.6686 5.33137 12.4 5 12.4C4.66863 12.4 4.4 12.6686 4.4 13ZM6 13C6 12.4477 5.55228 12 5 12C4.44771 12 4 12.4477 4 13C4 13.5523 4.44771 14 5 14C5.55228 14 6 13.5523 6 13Z" fill="#222222"/>
<path d="M13 12C13.5523 12 14 12.4477 14 13C14 13.5523 13.5523 14 13 14C12.4477 14 12 13.5523 12 13C12 12.4477 12.4477 12 13 12Z" fill="#222222"/>
<path fill-rule="evenodd" clip-rule="evenodd" d="M12.4 13C12.4 13.3314 12.6686 13.6 13 13.6C13.3314 13.6 13.6 13.3314 13.6 13C13.6 12.6686 13.3314 12.4 13 12.4C12.6686 12.4 12.4 12.6686 12.4 13ZM14 13C14 12.4477 13.5523 12 13 12C12.4477 12 12 12.4477 12 13C12 13.5523 12.4477 14 13 14C13.5523 14 14 13.5523 14 13Z" fill="#222222"/>
</svg>
