<svg width="19" height="19" viewBox="0 0 19 19" fill="none" xmlns="http://www.w3.org/2000/svg">
<path d="M14 18C14 18.5523 13.5523 19 13 19C12.4477 19 12 18.5523 12 18C12 17.4477 12.4477 17 13 17C13.5523 17 14 17.4477 14 18Z" fill="#222222"/>
<path fill-rule="evenodd" clip-rule="evenodd" d="M13 17.4C12.6686 17.4 12.4 17.6686 12.4 18C12.4 18.3314 12.6686 18.6 13 18.6C13.3314 18.6 13.6 18.3314 13.6 18C13.6 17.6686 13.3314 17.4 13 17.4ZM13 19C13.5523 19 14 18.5523 14 18C14 17.4477 13.5523 17 13 17C12.4477 17 12 17.4477 12 18C12 18.5523 12.4477 19 13 19Z" fill="#222222"/>
<path d="M8 18C8 18.5523 7.55228 19 7 19C6.44772 19 6 18.5523 6 18C6 17.4477 6.44772 17 7 17C7.55228 17 8 17.4477 8 18Z" fill="#222222"/>
<path fill-rule="evenodd" clip-rule="evenodd" d="M7 17.4C6.66863 17.4 6.4 17.6686 6.4 18C6.4 18.3314 6.66863 18.6 7 18.6C7.33137 18.6 7.6 18.3314 7.6 18C7.6 17.6686 7.33137 17.4 7 17.4ZM7 19C7.55228 19 8 18.5523 8 18C8 17.4477 7.55228 17 7 17C6.44772 17 6 17.4477 6 18C6 18.5523 6.44772 19 7 19Z" fill="#222222"/>
<path fill-rule="evenodd" clip-rule="evenodd" d="M0.200012 0.200012L1.26542 0.200012C2.65884 0.200012 3.84022 1.22462 4.03728 2.60403L5.54666 13.1697C5.63112 13.7609 6.13742 14.2 6.7346 14.2L15.8 14.2V15.8L6.7346 15.8C5.34118 15.8 4.1598 14.7754 3.96274 13.396L2.45336 2.83031C2.36891 2.23913 1.8626 1.80001 1.26542 1.80001L0.200012 1.80001L0.200012 0.200012Z" fill="#222222"/>
<path fill-rule="evenodd" clip-rule="evenodd" d="M6.20001 2.20001H15.9385C17.7601 2.20001 19.0967 3.9119 18.6549 5.67911L17.6549 9.67911C17.3432 10.9256 16.2233 11.8 14.9385 11.8H5.20001V10.2H14.9385C15.4891 10.2 15.9691 9.82526 16.1026 9.29106L17.1026 5.29105C17.292 4.53368 16.7191 3.80001 15.9385 3.80001H6.20001V2.20001Z" fill="#222222"/>
</svg>
