<svg width="18" height="18" viewBox="0 0 18 18" fill="none" xmlns="http://www.w3.org/2000/svg">
<path fill-rule="evenodd" clip-rule="evenodd" d="M9 0.200012C13.8601 0.200012 17.8 4.13991 17.8 9.00001C17.8 13.8601 13.8601 17.8 9 17.8C4.13989 17.8 0.200001 13.8601 0.200001 9.00001C0.200001 4.13991 4.13989 0.200012 9 0.200012ZM16.2 9.00001C16.2 5.02356 12.9764 1.80001 9 1.80001C5.02355 1.80001 1.8 5.02356 1.8 9.00001C1.8 12.9765 5.02355 16.2 9 16.2C12.9764 16.2 16.2 12.9765 16.2 9.00001Z" fill="#222222"/>
<path fill-rule="evenodd" clip-rule="evenodd" d="M9.8 4.20001V9.00001C9.8 9.21218 9.71571 9.41567 9.56569 9.5657L7 12.1314L5.86863 11L8.2 8.66864V4.20001H9.8Z" fill="#222222"/>
</svg>
