<svg width="20" height="20" viewBox="0 0 20 20" fill="none" xmlns="http://www.w3.org/2000/svg">
<path fill-rule="evenodd" clip-rule="evenodd" d="M16.869 15.3072C18.0462 16.258 19.8 15.4201 19.8 13.9069L19.8 3.00001C19.8 1.45361 18.5464 0.200012 17 0.200012L7.00001 0.200013C5.45361 0.200013 4.20001 1.45362 4.20001 3.00001V11C4.20001 12.5464 5.45362 13.8 7.00001 13.8H14.5789C14.8533 13.8 15.1194 13.8941 15.3329 14.0665L16.869 15.3072ZM18.2 13.9069C18.2 14.075 18.0052 14.1681 17.8744 14.0625L16.3383 12.8218C15.8401 12.4195 15.2192 12.2 14.5789 12.2H7.00001C6.33727 12.2 5.80001 11.6628 5.80001 11V3.00001C5.80001 2.33727 6.33727 1.80001 7.00001 1.80001L17 1.80001C17.6628 1.80001 18.2 2.33727 18.2 3.00001L18.2 13.9069Z" fill="#222222"/>
<path fill-rule="evenodd" clip-rule="evenodd" d="M2.12805 17.5186C1.99778 17.6272 1.80001 17.5345 1.80001 17.365V8.00001C1.80001 7.33727 2.33727 6.80001 3.00001 6.80001V5.20001C1.45362 5.20001 0.200012 6.45361 0.200012 8.00001L0.200012 17.365C0.200012 18.8911 1.97996 19.7248 3.15234 18.7478L3.95589 18.0781C4.17155 17.8984 4.44339 17.8 4.72411 17.8H11C12.5464 17.8 13.8 16.5464 13.8 15H12.2C12.2 15.6628 11.6628 16.2 11 16.2H4.72411C4.06909 16.2 3.4348 16.4297 2.9316 16.849L2.12805 17.5186Z" fill="#222222"/>
<path fill-rule="evenodd" clip-rule="evenodd" d="M8.20001 4.20001H15.8V5.80001H8.20001V4.20001Z" fill="#222222"/>
<path fill-rule="evenodd" clip-rule="evenodd" d="M8.20001 8.20001H15.8V9.80001H8.20001V8.20001Z" fill="#222222"/>
</svg>
