<svg width="20" height="16" viewBox="0 0 20 16" fill="none" xmlns="http://www.w3.org/2000/svg">
<path fill-rule="evenodd" clip-rule="evenodd" d="M16.1592 10.4286C18.17 10.4286 19.8 12.0586 19.8 14.0694C19.8 14.7727 19.2298 15.3429 18.5265 15.3429H7.87346C7.17015 15.3429 6.59999 14.7727 6.59999 14.0694C6.59999 12.0586 8.23004 10.4286 10.2408 10.4286H16.1592ZM18.174 13.7429C18.0177 12.771 17.1752 12.0286 16.1592 12.0286H10.2408C9.22484 12.0286 8.38227 12.771 8.22598 13.7429H18.174Z" fill="#222222"/>
<path fill-rule="evenodd" clip-rule="evenodd" d="M13.2 7.14287C14.6044 7.14287 15.7429 6.0044 15.7429 4.60001C15.7429 3.19563 14.6044 2.05715 13.2 2.05715C11.7956 2.05715 10.6571 3.19563 10.6571 4.60001C10.6571 6.0044 11.7956 7.14287 13.2 7.14287ZM13.2 8.74287C15.488 8.74287 17.3429 6.88805 17.3429 4.60001C17.3429 2.31197 15.488 0.457153 13.2 0.457153C10.912 0.457153 9.05714 2.31197 9.05714 4.60001C9.05714 6.88805 10.912 8.74287 13.2 8.74287Z" fill="#222222"/>
<path fill-rule="evenodd" clip-rule="evenodd" d="M6.15 8.95002L0.25 8.95002L0.25 7.45002L6.15 7.45002V8.95002Z" fill="#222222"/>
<path fill-rule="evenodd" clip-rule="evenodd" d="M3.95 5.25002L3.95 11.15L2.45 11.15L2.45 5.25002H3.95Z" fill="#222222"/>
</svg>
