<svg width="20" height="16" viewBox="0 0 20 16" fill="none" xmlns="http://www.w3.org/2000/svg">
<path fill-rule="evenodd" clip-rule="evenodd" d="M0.199997 2.77776C0.199997 1.35409 1.35411 0.199982 2.77777 0.199982L17 0.199982C18.5464 0.199982 19.8 1.45358 19.8 2.99998V13C19.8 14.5464 18.5464 15.8 17 15.8H3C1.4536 15.8 0.199997 14.5464 0.199997 13L0.199997 2.77776ZM2.77777 1.79998C2.23776 1.79998 1.8 2.23775 1.8 2.77776L1.8 13C1.8 13.6627 2.33726 14.2 3 14.2H17C17.6627 14.2 18.2 13.6627 18.2 13V2.99998C18.2 2.33724 17.6627 1.79998 17 1.79998L2.77777 1.79998Z" fill="#222222"/>
<path fill-rule="evenodd" clip-rule="evenodd" d="M0.199997 4.20001L19.8 4.20001V5.80001L0.199997 5.80001L0.199997 4.20001Z" fill="#222222"/>
<path fill-rule="evenodd" clip-rule="evenodd" d="M0.199997 5.20001H19.8V6.80001H0.199997V5.20001Z" fill="#222222"/>
<path fill-rule="evenodd" clip-rule="evenodd" d="M11.2 10.2H15.8V11.8H11.2V10.2Z" fill="#222222"/>
</svg>
