<svg width="8" height="17" viewBox="0 0 8 17" fill="none" xmlns="http://www.w3.org/2000/svg">
<path d="M1.72916 3.29236C1.72916 3.72077 1.72916 5.63293 1.72916 5.63293H0V8.49498H1.72916V17H5.28121V8.49522H7.66481C7.66481 8.49522 7.88804 7.12288 7.99625 5.62237C7.68601 5.62237 5.29465 5.62237 5.29465 5.62237C5.29465 5.62237 5.29465 3.95732 5.29465 3.66547C5.29465 3.37299 5.68193 2.97956 6.06471 2.97956C6.44677 2.97956 7.25314 2.97956 8 2.97956C8 2.58989 8 1.24348 8 1.02236e-08C7.00296 1.02236e-08 5.86865 1.02236e-08 5.36866 1.02236e-08C1.64135 -0.000197613 1.72916 2.8647 1.72916 3.29236Z" fill="#141316"/>
</svg>
