<svg width="20" height="19" viewBox="0 0 20 19" fill="none" xmlns="http://www.w3.org/2000/svg">
<path fill-rule="evenodd" clip-rule="evenodd" d="M17 3.20002C18.5464 3.20002 19.8 4.45362 19.8 6.00002C19.8 7.54641 18.5464 8.80002 17 8.80002L3 8.80002C1.4536 8.80002 0.199997 7.54641 0.199997 6.00002C0.199997 4.45362 1.4536 3.20002 3 3.20002L17 3.20002ZM18.2 6.00002C18.2 5.33727 17.6627 4.80002 17 4.80002H3C2.33725 4.80002 1.8 5.33727 1.8 6.00002C1.8 6.66276 2.33725 7.20002 3 7.20002L17 7.20002C17.6627 7.20002 18.2 6.66276 18.2 6.00002Z" fill="#222222"/>
<path fill-rule="evenodd" clip-rule="evenodd" d="M17 7.20002C17.4418 7.20002 17.8 7.5582 17.8 8.00003V16C17.8 17.5464 16.5464 18.8 15 18.8H5.06159C3.5236 18.8 2.27351 17.5595 2.26168 16.0216L2.20002 8.00618C2.19662 7.56437 2.55203 7.20345 2.99384 7.20005C3.43566 7.19665 3.79657 7.55206 3.79997 7.99387L3.86163 16.0093C3.8667 16.6684 4.40246 17.2 5.06159 17.2H15C15.6627 17.2 16.2 16.6628 16.2 16V8.00003C16.2 7.5582 16.5582 7.20002 17 7.20002Z" fill="#222222"/>
<path fill-rule="evenodd" clip-rule="evenodd" d="M9.2 18L9.2 4.00002L10.8 4.00002L10.8 18H9.2Z" fill="#222222"/>
<path fill-rule="evenodd" clip-rule="evenodd" d="M10.7392 2.80589C11.522 0.913998 14.3504 1.56844 14.2227 3.6119L14.2015 3.95013L15.7984 4.04993L15.8196 3.71171C16.06 -0.135803 10.7347 -1.36795 9.26077 2.19413L10.7392 2.80589Z" fill="#222222"/>
<path fill-rule="evenodd" clip-rule="evenodd" d="M9.26079 2.80586C8.47794 0.913967 5.64958 1.5684 5.7773 3.61187L5.79844 3.9501L4.20156 4.0499L4.18042 3.71167C3.93995 -0.135828 9.26524 -1.368 10.7392 2.19409L9.26079 2.80586Z" fill="#222222"/>
<path fill-rule="evenodd" clip-rule="evenodd" d="M10 3.80002C9.88954 3.80002 9.8 3.88956 9.8 4.00002H8.2C8.2 3.0059 9.00588 2.20002 10 2.20002C10.9941 2.20002 11.8 3.0059 11.8 4.00002H10.2C10.2 3.88956 10.1105 3.80002 10 3.80002Z" fill="#222222"/>
</svg>
