<svg width="32" height="32" viewBox="0 0 32 32" fill="none" xmlns="http://www.w3.org/2000/svg">
<path fill-rule="evenodd" clip-rule="evenodd" d="M23 9.00001C24.6569 9.00001 26 10.3432 26 12C26 13.6569 24.6569 15 23 15H9C7.34315 15 6 13.6569 6 12C6 10.3432 7.34315 9.00001 9 9.00001L23 9.00001ZM24 12C24 11.4477 23.5523 11 23 11H9C8.44772 11 8 11.4477 8 12C8 12.5523 8.44772 13 9 13H23C23.5523 13 24 12.5523 24 12Z"/>
<path fill-rule="evenodd" clip-rule="evenodd" d="M23 13C23.5523 13 24 13.4477 24 14V22C24 23.6569 22.6569 25 21 25H11.0616C9.41375 25 8.07436 23.6709 8.06169 22.0231L8.00003 14.0077C7.99578 13.4554 8.44004 13.0043 8.99231 13.0001C9.54458 12.9958 9.99572 13.4401 9.99997 13.9923L10.0616 22.0077C10.0659 22.557 10.5123 23 11.0616 23H21C21.5523 23 22 22.5523 22 22V14C22 13.4477 22.4477 13 23 13Z"/>
<path fill-rule="evenodd" clip-rule="evenodd" d="M15 23L15 10H17L17 23L15 23Z"/>
<path fill-rule="evenodd" clip-rule="evenodd" d="M16.924 8.88235C17.6205 7.19922 20.1367 7.78146 20.0231 9.59941L20.0019 9.93763L21.998 10.0624L22.0192 9.72417C22.2737 5.65115 16.6363 4.34679 15.076 8.11764L16.924 8.88235Z"/>
<path fill-rule="evenodd" clip-rule="evenodd" d="M15.076 8.88234C14.3795 7.19923 11.8633 7.78144 11.9769 9.59941L11.9981 9.93763L10.0019 10.0624L9.98081 9.72416C9.72624 5.65116 15.3637 4.34677 16.924 8.11763L15.076 8.88234Z"/>
<path fill-rule="evenodd" clip-rule="evenodd" d="M14 10C14 8.89544 14.8954 8.00001 16 8.00001C17.1046 8.00001 18 8.89544 18 10H14Z"/>
</svg>
