<svg width="24" height="20" viewBox="0 0 24 20" fill="none" xmlns="http://www.w3.org/2000/svg">
<path fill-rule="evenodd" clip-rule="evenodd" d="M21.5149 9.0756C21.5105 9.05158 21.4979 9.0119 21.4347 8.96268L12.4283 1.95771C12.2969 1.8555 12.1352 1.80001 11.9687 1.80001C11.8016 1.80001 11.6393 1.8559 11.5077 1.95878L2.53424 8.97176C2.47122 9.02102 2.4587 9.06069 2.45435 9.08477C2.44824 9.11859 2.45257 9.16784 2.47916 9.22007C2.50575 9.2723 2.54302 9.30479 2.57396 9.31975C2.59598 9.3304 2.63543 9.34362 2.71234 9.32165L3.50552 9.09503C4.65539 8.76649 5.80002 9.62989 5.80002 10.8258L5.80002 17C5.80002 17.6628 6.33728 18.2 7.00002 18.2H17C17.6628 18.2 18.2 17.6628 18.2 17L18.2 10.8258C18.2 9.62989 19.3447 8.76649 20.4945 9.09503L21.2569 9.31286C21.334 9.33488 21.3735 9.3216 21.3954 9.31095C21.4264 9.29597 21.4636 9.26342 21.4902 9.21107C21.5168 9.15872 21.521 9.1094 21.5149 9.0756ZM22.417 7.69972C23.9796 8.91512 22.7208 11.3951 20.8174 10.8513L20.055 10.6335C19.9272 10.597 19.8 10.6929 19.8 10.8258V17C19.8 18.5464 18.5464 19.8 17 19.8H7.00002C5.45363 19.8 4.20002 18.5464 4.20002 17V10.8258C4.20002 10.6929 4.07284 10.597 3.94508 10.6335L3.1519 10.8601C1.25068 11.4033 -0.00895822 8.92867 1.54899 7.71109L10.5224 0.698112C10.9354 0.375349 11.4445 0.200012 11.9687 0.200012C12.491 0.200012 12.9983 0.374098 13.4106 0.694747L22.417 7.69972Z" fill="#222222"/>
<path fill-rule="evenodd" clip-rule="evenodd" d="M12 12.8C11.3373 12.8 10.8 13.3373 10.8 14V19H9.20002V14C9.20002 12.4536 10.4536 11.2 12 11.2C13.5464 11.2 14.8 12.4536 14.8 14V19H13.2V14C13.2 13.3373 12.6628 12.8 12 12.8Z" fill="#222222"/>
</svg>
