<svg width="16" height="16" viewBox="0 0 16 16" fill="none" xmlns="http://www.w3.org/2000/svg">
<path fill-rule="evenodd" clip-rule="evenodd" d="M4.76649 0H11.2335C13.8617 0 16 2.13823 16 4.76649V11.2335C16 13.8618 13.8618 16 11.2335 16H4.76649C2.13823 16 0 13.8618 0 11.2335V4.76649C0 2.13823 2.13823 0 4.76649 0ZM11.2335 14.3904C12.977 14.3904 14.3904 12.977 14.3904 11.2335V4.76649C14.3904 3.02297 12.977 1.6096 11.2335 1.6096H4.76649C3.023 1.6096 1.6096 3.02297 1.6096 4.76649V11.2335C1.6096 12.977 3.023 14.3904 4.76649 14.3904H11.2335Z" fill="#141316"/>
<path fill-rule="evenodd" clip-rule="evenodd" d="M3.81461 8.00951C3.81461 5.69365 5.69873 3.80952 8.01461 3.80952C10.3305 3.80952 12.2146 5.69362 12.2146 8.00951C12.2146 10.3254 10.3305 12.2095 8.01461 12.2095C5.69873 12.2095 3.81461 10.3254 3.81461 8.00951ZM5.44826 8.00954C5.44826 9.42691 6.59724 10.5759 8.01461 10.5759C9.43195 10.5759 10.581 9.42688 10.581 8.00954C10.581 6.59217 9.43198 5.44318 8.01461 5.44318C6.59727 5.44318 5.44826 6.59217 5.44826 8.00954Z" fill="#141316"/>
<path d="M12.4438 5.04762C12.9961 5.04762 13.4438 4.5999 13.4438 4.04762C13.4438 3.49533 12.9961 3.04762 12.4438 3.04762C11.8915 3.04762 11.4438 3.49533 11.4438 4.04762C11.4438 4.5999 11.8915 5.04762 12.4438 5.04762Z" fill="#141316"/>
</svg>
