<svg width="15" height="12" viewBox="0 0 15 12" fill="none" xmlns="http://www.w3.org/2000/svg">
<path fill-rule="evenodd" clip-rule="evenodd" d="M5.2 5.20001H14.3V6.80001H5.2V5.20001Z" fill="#222222"/>
<path fill-rule="evenodd" clip-rule="evenodd" d="M5.2 0.200012H14.3V1.80001H5.2V0.200012Z" fill="#222222"/>
<path fill-rule="evenodd" clip-rule="evenodd" d="M5.2 10.2H14.3V11.8H5.2V10.2Z" fill="#222222"/>
<path d="M2 1C2 1.55228 1.55228 2 1 2C0.447715 2 0 1.55228 0 1C0 0.447715 0.447715 0 1 0C1.55228 0 2 0.447715 2 1Z" fill="#222222"/>
<path fill-rule="evenodd" clip-rule="evenodd" d="M1 0.4C0.668629 0.4 0.4 0.668629 0.4 1C0.4 1.33137 0.668629 1.6 1 1.6C1.33137 1.6 1.6 1.33137 1.6 1C1.6 0.668629 1.33137 0.4 1 0.4ZM1 2C1.55228 2 2 1.55228 2 1C2 0.447715 1.55228 0 1 0C0.447715 0 0 0.447715 0 1C0 1.55228 0.447715 2 1 2Z" fill="#222222"/>
<path d="M2 6C2 6.55228 1.55228 7 1 7C0.447715 7 0 6.55228 0 6C0 5.44772 0.447715 5 1 5C1.55228 5 2 5.44772 2 6Z" fill="#222222"/>
<path fill-rule="evenodd" clip-rule="evenodd" d="M1 5.4C0.668629 5.4 0.4 5.66863 0.4 6C0.4 6.33137 0.668629 6.6 1 6.6C1.33137 6.6 1.6 6.33137 1.6 6C1.6 5.66863 1.33137 5.4 1 5.4ZM1 7C1.55228 7 2 6.55228 2 6C2 5.44772 1.55228 5 1 5C0.447715 5 0 5.44772 0 6C0 6.55228 0.447715 7 1 7Z" fill="#222222"/>
<path d="M2 11C2 11.5523 1.55228 12 1 12C0.447715 12 0 11.5523 0 11C0 10.4477 0.447715 10 1 10C1.55228 10 2 10.4477 2 11Z" fill="#222222"/>
<path fill-rule="evenodd" clip-rule="evenodd" d="M1 10.4C0.668629 10.4 0.4 10.6686 0.4 11C0.4 11.3314 0.668629 11.6 1 11.6C1.33137 11.6 1.6 11.3314 1.6 11C1.6 10.6686 1.33137 10.4 1 10.4ZM1 12C1.55228 12 2 11.5523 2 11C2 10.4477 1.55228 10 1 10C0.447715 10 0 10.4477 0 11C0 11.5523 0.447715 12 1 12Z" fill="#222222"/>
</svg>
