<svg width="32" height="32" viewBox="0 0 32 32" fill="none" xmlns="http://www.w3.org/2000/svg">
<path fill-rule="evenodd" clip-rule="evenodd" d="M20 11C21.6569 11 23 12.3431 23 14V19C23 21.7614 20.7614 24 18 24H14C11.2386 24 9 21.7614 9 19L9 14C9 12.3431 10.3431 11 12 11L20 11ZM21 14C21 13.4477 20.5523 13 20 13L12 13C11.4477 13 11 13.4477 11 14L11 19C11 20.6569 12.3431 22 14 22H18C19.6569 22 21 20.6569 21 19V14Z" fill="#666666"/>
<path fill-rule="evenodd" clip-rule="evenodd" d="M16 8C14.8954 8 14 8.89543 14 10H12C12 7.79086 13.7909 6 16 6C18.2091 6 20 7.79086 20 10H18C18 8.89543 17.1046 8 16 8Z" fill="#666666"/>
<path fill-rule="evenodd" clip-rule="evenodd" d="M17 16L17 19H15L15 16H17Z" fill="#666666"/>
</svg>
