<svg width="14" height="18" viewBox="0 0 14 18" fill="none" xmlns="http://www.w3.org/2000/svg">
<path fill-rule="evenodd" clip-rule="evenodd" d="M11 5.19998C12.5464 5.19998 13.8 6.45358 13.8 7.99998V13C13.8 15.6509 11.651 17.8 9 17.8H5C2.34903 17.8 0.199997 15.6509 0.199997 13L0.199997 7.99998C0.199997 6.45358 1.4536 5.19998 3 5.19998L11 5.19998ZM12.2 7.99998C12.2 7.33724 11.6627 6.79998 11 6.79998L3 6.79998C2.33726 6.79998 1.8 7.33724 1.8 7.99998L1.8 13C1.8 14.7673 3.23269 16.2 5 16.2H9C10.7673 16.2 12.2 14.7673 12.2 13L12.2 7.99998Z" fill="#222222"/>
<path fill-rule="evenodd" clip-rule="evenodd" d="M7 1.79998C5.78497 1.79998 4.8 2.78496 4.8 3.99998H3.2C3.2 1.9013 4.90131 0.199982 7 0.199982C9.09868 0.199982 10.8 1.9013 10.8 3.99998H9.2C9.2 2.78496 8.21502 1.79998 7 1.79998Z" fill="#222222"/>
<path fill-rule="evenodd" clip-rule="evenodd" d="M7.8 10.2L7.8 12.8L6.2 12.8V10.2H7.8Z" fill="#222222"/>
</svg>
