<svg width="13" height="18" viewBox="0 0 13 18" fill="none" xmlns="http://www.w3.org/2000/svg">
<path fill-rule="evenodd" clip-rule="evenodd" d="M3.20001 0.200012H10C11.5464 0.200012 12.8 1.45361 12.8 3.00001V15C12.8 16.5464 11.5464 17.8 10 17.8H3.20001V16.2H10C10.6627 16.2 11.2 15.6628 11.2 15V3.00001C11.2 2.33727 10.6627 1.80001 10 1.80001H3.20001V0.200012Z" fill="#222222"/>
<path fill-rule="evenodd" clip-rule="evenodd" d="M0.200012 8.19999H7.30001V9.79999H0.200012V8.19999Z" fill="#222222"/>
<path fill-rule="evenodd" clip-rule="evenodd" d="M5.00001 4.86862L8.5657 8.43431C8.87812 8.74673 8.87812 9.25326 8.5657 9.56568L5.00001 13.1314L3.86864 12L6.86864 8.99999L3.86864 5.99999L5.00001 4.86862Z" fill="#222222"/>
</svg>
