<svg width="20" height="20" viewBox="0 0 20 20" fill="none" xmlns="http://www.w3.org/2000/svg">
<path fill-rule="evenodd" clip-rule="evenodd" d="M10 0.200012C15.4124 0.200012 19.8 4.58762 19.8 10C19.8 15.4124 15.4124 19.8 10 19.8C4.58761 19.8 0.199997 15.4124 0.199997 10C0.199995 4.58762 4.58761 0.200012 10 0.200012ZM18.2 10C18.2 5.47128 14.5287 1.80001 10 1.80001C5.47126 1.80001 1.8 5.47128 1.8 10C1.8 14.5287 5.47126 18.2 10 18.2C14.5287 18.2 18.2 14.5287 18.2 10Z" fill="#222222"/>
<path fill-rule="evenodd" clip-rule="evenodd" d="M6.89916 7.77269C7.21222 6.8335 8.09114 6.20001 9.08113 6.20001H12.8V7.80001H9.08113C8.77983 7.80001 8.51233 7.99281 8.41705 8.27865C8.26596 8.73193 8.60334 9.20001 9.08113 9.20001H10.9189C12.4887 9.20001 13.5973 10.738 13.1008 12.2273C12.7878 13.1665 11.9088 13.8 10.9189 13.8H7.19999V12.2H10.9189C11.2202 12.2 11.4876 12.0072 11.5829 11.7214C11.734 11.2681 11.3966 10.8 10.9189 10.8H9.08113C7.51125 10.8 6.40272 9.26201 6.89916 7.77269Z" fill="#222222"/>
<path fill-rule="evenodd" clip-rule="evenodd" d="M9.19999 7.80001V5.20001H10.8V7.80001H9.19999Z" fill="#222222"/>
<path fill-rule="evenodd" clip-rule="evenodd" d="M9.19999 14.8V12.2H10.8V14.8H9.19999Z" fill="#222222"/>
</svg>
