<svg width="32" height="32" viewBox="0 0 32 32" fill="none" xmlns="http://www.w3.org/2000/svg">
<path fill-rule="evenodd" clip-rule="evenodd" d="M16 6C21.5228 6 26 10.4772 26 16C26 21.5228 21.5228 26 16 26C10.4772 26 6 21.5228 6 16C6 10.4772 10.4772 6 16 6ZM24 16C24 11.5817 20.4183 8 16 8C11.5817 8 8 11.5817 8 16C8 20.4183 11.5817 24 16 24C20.4183 24 24 20.4183 24 16Z"/>
<path fill-rule="evenodd" clip-rule="evenodd" d="M12.7094 13.7094C13.0497 12.6886 14.0051 12 15.0811 12H19V14H15.0811C14.8659 14 14.6749 14.1377 14.6068 14.3419C14.4989 14.6657 14.7399 15 15.0811 15H16.9189C18.6253 15 19.8302 16.6717 19.2906 18.2906C18.9503 19.3114 17.9949 20 16.9189 20H13V18H16.9189C17.1341 18 17.3251 17.8623 17.3932 17.6581C17.5011 17.3343 17.2601 17 16.9189 17H15.0811C13.3747 17 12.1698 15.3283 12.7094 13.7094Z"/>
<path fill-rule="evenodd" clip-rule="evenodd" d="M15 14L15 11H17L17 14H15Z"/>
<path fill-rule="evenodd" clip-rule="evenodd" d="M15 21L15 18H17L17 21H15Z"/>
</svg>
