<svg width="16" height="18" viewBox="0 0 16 18" fill="none" xmlns="http://www.w3.org/2000/svg">
<path fill-rule="evenodd" clip-rule="evenodd" d="M11.5714 12.2C13.9068 12.2 15.8 14.0932 15.8 16.4286C15.8 17.186 15.186 17.8 14.4286 17.8L1.57143 17.8C0.814006 17.8 0.199997 17.186 0.199997 16.4286C0.199997 14.0932 2.09319 12.2 4.42857 12.2L11.5714 12.2ZM14.1902 16.2C14.0744 14.8553 12.9461 13.8 11.5714 13.8H4.42857C3.05386 13.8 1.92563 14.8553 1.8098 16.2L14.1902 16.2Z" fill="#222222"/>
<path fill-rule="evenodd" clip-rule="evenodd" d="M8 8.4C9.87777 8.4 11.4 6.87777 11.4 5C11.4 3.12223 9.87777 1.6 8 1.6C6.12223 1.6 4.6 3.12223 4.6 5C4.6 6.87777 6.12223 8.4 8 8.4ZM8 10C10.7614 10 13 7.76142 13 5C13 2.23858 10.7614 0 8 0C5.23857 0 3 2.23858 3 5C3 7.76142 5.23857 10 8 10Z" fill="#222222"/>
</svg>
