<svg width="32" height="32" viewBox="0 0 32 32" fill="none" xmlns="http://www.w3.org/2000/svg">
<path fill-rule="evenodd" clip-rule="evenodd" d="M11.9996 7.34375L20.9996 12.5337L20.0004 14.2663L11.0004 9.07631L11.9996 7.34375Z" fill="#666666"/>
<path fill-rule="evenodd" clip-rule="evenodd" d="M15.4993 16.8756L6.76928 11.8256L7.77073 10.0944L16 14.8548L24.2293 10.0944L25.2307 11.8256L16.5007 16.8756C16.191 17.0548 15.809 17.0548 15.4993 16.8756Z" fill="#666666"/>
<path fill-rule="evenodd" clip-rule="evenodd" d="M17 16V25H15V16H17Z" fill="#666666"/>
<path fill-rule="evenodd" clip-rule="evenodd" d="M14.5431 5.66543C15.4491 5.16206 16.5509 5.16206 17.4569 5.66543L24.4569 9.55432C25.4093 10.0834 26 11.0873 26 12.1768V19.8232C26 20.9127 25.4093 21.9165 24.4569 22.4457L17.4569 26.3345C16.5509 26.8379 15.4491 26.8379 14.5431 26.3345L7.54307 22.4457C6.59068 21.9165 6 20.9127 6 19.8232V12.1768C6 11.0873 6.59068 10.0834 7.54307 9.55432L14.5431 5.66543ZM16.4856 7.41375C16.1836 7.24596 15.8164 7.24596 15.5144 7.41375L8.51436 11.3026C8.19689 11.479 8 11.8136 8 12.1768V19.8232C8 20.1863 8.19689 20.521 8.51436 20.6973L15.5144 24.5862C15.8164 24.754 16.1836 24.754 16.4856 24.5862L23.4856 20.6973C23.8031 20.521 24 20.1863 24 19.8232V12.1768C24 11.8136 23.8031 11.479 23.4856 11.3026L16.4856 7.41375Z" fill="#666666"/>
</svg>
