<svg width="20" height="22" viewBox="0 0 20 22" fill="none" xmlns="http://www.w3.org/2000/svg">
<path fill-rule="evenodd" clip-rule="evenodd" d="M5.88851 2.80066L14.8885 7.80066L14.1115 9.19931L5.11148 4.19931L5.88851 2.80066Z" fill="#222222"/>
<path fill-rule="evenodd" clip-rule="evenodd" d="M9.61148 11.6993L0.611481 6.69931L1.38851 5.30066L10 10.0848L18.6115 5.30066L19.3885 6.69931L10.3885 11.6993C10.1469 11.8335 9.8531 11.8335 9.61148 11.6993Z" fill="#222222"/>
<path fill-rule="evenodd" clip-rule="evenodd" d="M10.8 11V20H9.20001V11H10.8Z" fill="#222222"/>
<path fill-rule="evenodd" clip-rule="evenodd" d="M8.64021 0.840275C9.48587 0.370462 10.5141 0.370461 11.3598 0.840274L18.3598 4.72916C19.2487 5.223 19.8 6.15994 19.8 7.1768V14.8232C19.8 15.8401 19.2487 16.777 18.3598 17.2708L11.3598 21.1597C10.5142 21.6295 9.48588 21.6295 8.64021 21.1597L1.64021 17.2708C0.75131 16.777 0.200012 15.8401 0.200012 14.8232V7.1768C0.200012 6.15994 0.75131 5.223 1.64021 4.72916L8.64021 0.840275ZM10.5828 2.23893C10.2204 2.03758 9.77967 2.03758 9.41724 2.23893L2.41724 6.12782C2.03628 6.33946 1.80001 6.741 1.80001 7.1768V14.8232C1.80001 15.259 2.03628 15.6605 2.41724 15.8722L9.41724 19.7611C9.77967 19.9624 10.2204 19.9624 10.5828 19.7611L17.5828 15.8722C17.9637 15.6605 18.2 15.259 18.2 14.8232V7.1768C18.2 6.741 17.9637 6.33946 17.5828 6.12781L10.5828 2.23893Z" fill="#222222"/>
</svg>
