<svg width="12" height="12" viewBox="0 0 12 12" fill="none" xmlns="http://www.w3.org/2000/svg">
<path fill-rule="evenodd" clip-rule="evenodd" d="M1.74131 1.47221C1.78359 1.42313 1.82793 1.37533 1.87433 1.32893L2.08204 1.12122C2.70688 0.496378 3.71995 0.496378 4.34479 1.12122L5.39825 2.17468C6.02309 2.79952 6.02309 3.81258 5.39825 4.43742L4.89168 4.94399C5.52224 5.79551 6.27447 6.5505 7.12365 7.18416L7.63432 6.67349C8.25916 6.04865 9.27222 6.04865 9.89706 6.67349L10.9505 7.72695C11.5754 8.35179 11.5754 9.36486 10.9505 9.98969L10.7428 10.1974C10.6331 10.3072 10.5156 10.4053 10.392 10.4917L10.2083 10.6852C9.52159 11.4086 8.49487 11.6995 7.53081 11.4439C4.1558 10.5489 1.51676 7.89301 0.622568 4.52093C0.371874 3.57554 0.643085 2.56163 1.3396 1.8707L1.74131 1.47221ZM2.72286 2.17746C2.6938 2.20652 2.66637 2.23643 2.64055 2.26708L2.62326 2.2876L2.18471 2.72264C1.79513 3.10909 1.64106 3.68004 1.78248 4.21336C2.56699 7.17182 4.88285 9.50021 7.83839 10.2839C8.37832 10.4271 8.95336 10.2642 9.33794 9.85906L9.61387 9.56838L9.67178 9.53032C9.75004 9.47888 9.82467 9.41849 9.89429 9.34888L10.102 9.14117C10.2582 8.98496 10.2582 8.73169 10.102 8.57548L9.04853 7.52202C8.89232 7.36581 8.63906 7.36581 8.48285 7.52202L7.2631 8.74177L6.85275 8.46372C5.57457 7.5976 4.4739 6.49308 3.61225 5.21184L3.33662 4.80199L4.54972 3.58889C4.70593 3.43268 4.70593 3.17942 4.54972 3.02321L3.49626 1.96975C3.34005 1.81354 3.08678 1.81354 2.93057 1.96975L2.72286 2.17746Z" fill="#222222"/>
</svg>
