<svg width="12" height="15" viewBox="0 0 12 15" fill="none" xmlns="http://www.w3.org/2000/svg">
<path d="M6.20093 0C2.15211 0.000625009 0 2.63504 0 5.50758C0 6.83947 0.732961 8.50137 1.90656 9.02825C2.24135 9.18138 2.19704 8.9945 2.48505 7.87574C2.50782 7.78261 2.49613 7.70198 2.42228 7.61511C0.744653 5.64445 2.09488 1.59315 5.96154 1.59315C11.5575 1.59315 10.5119 9.45701 6.93512 9.45701C6.01323 9.45701 5.32643 8.722 5.54367 7.81261C5.80707 6.72947 6.32279 5.56508 6.32279 4.78444C6.32279 2.81692 3.43648 3.10879 3.43648 5.71571C3.43648 6.52134 3.71711 7.0651 3.71711 7.0651C3.71711 7.0651 2.78845 10.8752 2.61613 11.587C2.32443 12.7921 2.65552 14.7427 2.68445 14.9108C2.70229 15.0033 2.80445 15.0327 2.86169 14.9565C2.95338 14.8346 4.0759 13.2083 4.39038 12.0327C4.50485 11.6045 4.97441 9.86701 4.97441 9.86701C5.28396 10.4345 6.17632 10.9095 7.12713 10.9095C9.95559 10.9095 12 8.38449 12 5.25132C11.9902 2.24753 9.45895 0 6.20093 0Z" fill="#222222"/>
</svg>
