<svg width="20" height="20" viewBox="0 0 20 20" fill="none" xmlns="http://www.w3.org/2000/svg">
<path fill-rule="evenodd" clip-rule="evenodd" d="M17.3539 8.30294L11.6971 2.64608C10.7598 1.70883 9.2402 1.70883 8.30294 2.64608L2.64608 8.30294C1.70883 9.2402 1.70883 10.7598 2.64608 11.6971L8.30294 17.3539C9.2402 18.2912 10.7598 18.2912 11.6971 17.3539L17.3539 11.6971C18.2912 10.7598 18.2912 9.2402 17.3539 8.30294ZM12.8284 1.51471C11.2663 -0.0473846 8.73366 -0.0473846 7.17157 1.51471L1.51471 7.17157C-0.0473846 8.73366 -0.0473846 11.2663 1.51471 12.8284L7.17157 18.4853C8.73366 20.0474 11.2663 20.0474 12.8284 18.4853L18.4853 12.8284C20.0474 11.2663 20.0474 8.73366 18.4853 7.17157L12.8284 1.51471Z" fill="#222222"/>
<path fill-rule="evenodd" clip-rule="evenodd" d="M16.6468 7.5958C15.5935 6.54248 13.9594 6.33884 12.6798 7.10142L9.99999 8.69843L7.32017 7.10142C6.04055 6.33884 4.40651 6.54248 3.35319 7.5958L2.50466 6.74727C3.9464 5.30554 6.18299 5.0268 7.93449 6.07058L9.99999 7.3015L12.0655 6.07059C13.817 5.0268 16.0536 5.30554 17.4953 6.74727L16.6468 7.5958Z" fill="#222222"/>
<path fill-rule="evenodd" clip-rule="evenodd" d="M3.35319 12.4041C4.40651 13.4575 6.04055 13.6611 7.32017 12.8985L10 11.3015L12.6798 12.8985C13.9594 13.6611 15.5935 13.4575 16.6468 12.4042L17.4953 13.2527C16.0536 14.6944 13.817 14.9731 12.0655 13.9294L10 12.6985L7.93449 13.9294C6.183 14.9731 3.9464 14.6944 2.50466 13.2527L3.35319 12.4041Z" fill="#222222"/>
</svg>
