<svg width="32" height="32" viewBox="0 0 32 32" fill="none" xmlns="http://www.w3.org/2000/svg">
<path fill-rule="evenodd" clip-rule="evenodd" d="M23.0712 14.5857L17.4143 8.92886C16.6333 8.14782 15.367 8.14782 14.5859 8.92886L8.92905 14.5857C8.148 15.3668 8.148 16.6331 8.92905 17.4141L14.5859 23.071C15.367 23.852 16.6333 23.852 17.4143 23.071L23.0712 17.4141C23.8522 16.6331 23.8522 15.3668 23.0712 14.5857ZM18.8285 7.51465C17.2664 5.95255 14.7338 5.95255 13.1717 7.51465L7.51483 13.1715C5.95274 14.7336 5.95274 17.2663 7.51483 18.8284L13.1717 24.4852C14.7338 26.0473 17.2664 26.0473 18.8285 24.4852L24.4854 18.8284C26.0475 17.2663 26.0475 14.7336 24.4854 13.1715L18.8285 7.51465Z" fill="#666666"/>
<path fill-rule="evenodd" clip-rule="evenodd" d="M22.3641 13.8786C21.4402 12.9547 20.007 12.7761 18.8847 13.445L16.0001 15.164L13.1155 13.445C11.9932 12.7761 10.56 12.9547 9.63615 13.8786L8.22194 12.4644C9.79315 10.8932 12.2306 10.5894 14.1394 11.7269L16.0001 12.8358L17.8609 11.7269C19.7696 10.5894 22.2071 10.8932 23.7783 12.4644L22.3641 13.8786Z" fill="#666666"/>
<path fill-rule="evenodd" clip-rule="evenodd" d="M9.63616 18.1212C10.56 19.0451 11.9932 19.2237 13.1155 18.5549L16.0001 16.8358L18.8847 18.5549C20.007 19.2237 21.4402 19.0451 22.3641 18.1212L23.7783 19.5355C22.2071 21.1067 19.7696 21.4104 17.8608 20.2729L16.0001 19.164L14.1394 20.2729C12.2306 21.4104 9.79315 21.1067 8.22194 19.5355L9.63616 18.1212Z" fill="#666666"/>
</svg>
