<svg width="21" height="18" viewBox="0 0 21 18" fill="none" xmlns="http://www.w3.org/2000/svg">
<path fill-rule="evenodd" clip-rule="evenodd" d="M0.714294 5.08331L3.2901 9.41845C3.39848 9.60086 3.57488 9.73274 3.78049 9.78508C3.98611 9.83743 4.2041 9.80594 4.3865 9.69757L8.72164 7.12176L7.90435 5.74625L4.25697 7.91341L2.08981 4.26602L0.714294 5.08331Z" fill="#222222"/>
<path fill-rule="evenodd" clip-rule="evenodd" d="M12 1.80001C8.02356 1.80001 4.80001 5.02356 4.80001 9.00001H3.20001C3.20001 4.13991 7.13991 0.200012 12 0.200012C16.8601 0.200012 20.8 4.13991 20.8 9.00001C20.8 13.8601 16.8601 17.8 12 17.8C9.12084 17.8 6.56458 16.4165 4.96042 14.2813L6.23961 13.3203C7.55457 15.0705 9.64527 16.2 12 16.2C15.9765 16.2 19.2 12.9765 19.2 9.00001C19.2 5.02356 15.9765 1.80001 12 1.80001Z" fill="#222222"/>
</svg>
