<svg width="32" height="32" viewBox="0 0 32 32" fill="none" xmlns="http://www.w3.org/2000/svg">
<path fill-rule="evenodd" clip-rule="evenodd" d="M4.44043 12.0135L7.11839 16.5206C7.25387 16.7486 7.47437 16.9134 7.73139 16.9789C7.98841 17.0443 8.26089 17.005 8.4889 16.8695L12.996 14.1915L11.9744 12.4721L8.32698 14.6393L6.15982 10.9919L4.44043 12.0135Z" fill="#666666"/>
<path fill-rule="evenodd" clip-rule="evenodd" d="M16.0002 9C12.1342 9 9.00023 12.134 9.00023 16H7.00023C7.00023 11.0294 11.0297 7 16.0002 7C20.9708 7 25.0002 11.0294 25.0002 16C25.0002 20.9706 20.9708 25 16.0002 25C13.0555 25 10.4411 23.5847 8.80074 21.4015L10.3997 20.2001C11.6785 21.9022 13.711 23 16.0002 23C19.8662 23 23.0002 19.866 23.0002 16C23.0002 12.134 19.8662 9 16.0002 9Z" fill="#666666"/>
</svg>
