<svg width="16" height="18" viewBox="0 0 16 18" fill="none" xmlns="http://www.w3.org/2000/svg">
<path fill-rule="evenodd" clip-rule="evenodd" d="M7 0.200012C10.7555 0.200012 13.8 3.24448 13.8 7.00001C13.8 10.7555 10.7555 13.8 7 13.8C3.24446 13.8 0.199997 10.7555 0.199997 7.00001C0.199997 3.24448 3.24446 0.200012 7 0.200012ZM12.2 7.00001C12.2 4.12813 9.87188 1.80001 7 1.80001C4.12812 1.80001 1.8 4.12813 1.8 7.00001C1.8 9.87189 4.12812 12.2 7 12.2C9.87188 12.2 12.2 9.87189 12.2 7.00001Z" fill="#222222"/>
<path fill-rule="evenodd" clip-rule="evenodd" d="M11.0753 10.8711L15.6289 16.0753L14.4247 17.1289L9.87113 11.9248L11.0753 10.8711Z" fill="#222222"/>
</svg>
