<svg width="18" height="16" viewBox="0 0 18 16" fill="none" xmlns="http://www.w3.org/2000/svg">
<path fill-rule="evenodd" clip-rule="evenodd" d="M8.8 2.5332e-07C10.3464 3.27826e-07 11.6 1.2536 11.6 2.8L11.6 10.8099C10.8943 10.8799 10.2965 11.3168 10 11.9272L10 2.8C10 2.13726 9.46274 1.6 8.8 1.6L2.8 1.6C2.13726 1.6 1.6 2.13726 1.6 2.8L1.6 10.8C1.6 11.4627 2.13726 12 2.8 12H2.96642C2.85938 12.245 2.8 12.5156 2.8 12.8C2.8 13.0844 2.85938 13.355 2.96642 13.6H2.8C1.2536 13.6 -7.45058e-08 12.3464 0 10.8L3.42727e-07 2.8C4.17233e-07 1.2536 1.2536 -1.49012e-08 2.8 0L8.8 2.5332e-07ZM9.96642 12H6.63358C6.74062 12.245 6.8 12.5156 6.8 12.8C6.8 13.0844 6.74062 13.355 6.63358 13.6H9.96642C9.85938 13.355 9.8 13.0844 9.8 12.8C9.8 12.5156 9.85938 12.245 9.96642 12Z" fill="#222222"/>
<path fill-rule="evenodd" clip-rule="evenodd" d="M5.00001 11.8C4.33727 11.8 3.80001 12.3373 3.80001 13C3.80001 13.6628 4.33727 14.2 5.00001 14.2C5.66275 14.2 6.20001 13.6628 6.20001 13C6.20001 12.3373 5.66275 11.8 5.00001 11.8ZM2.20001 13C2.20001 11.4536 3.45362 10.2 5.00001 10.2C6.54641 10.2 7.80001 11.4536 7.80001 13C7.80001 14.5464 6.54641 15.8 5.00001 15.8C3.45362 15.8 2.20001 14.5464 2.20001 13Z" fill="#222222"/>
<path fill-rule="evenodd" clip-rule="evenodd" d="M12 11.8C11.3373 11.8 10.8 12.3373 10.8 13C10.8 13.6628 11.3373 14.2 12 14.2C12.6628 14.2 13.2 13.6628 13.2 13C13.2 12.3373 12.6628 11.8 12 11.8ZM9.20001 13C9.20001 11.4536 10.4536 10.2 12 10.2C13.5464 10.2 14.8 11.4536 14.8 13C14.8 14.5464 13.5464 15.8 12 15.8C10.4536 15.8 9.20001 14.5464 9.20001 13Z" fill="#222222"/>
<path fill-rule="evenodd" clip-rule="evenodd" d="M15.0627 6.19411C15.6629 6.79423 16 7.60816 16 8.45685V10.8C16 11.4627 15.4627 12 14.8 12H13.6336C13.7406 12.245 13.8 12.5156 13.8 12.8C13.8 13.0844 13.7406 13.355 13.6336 13.6H14.8C16.3464 13.6 17.6 12.3464 17.6 10.8V8.45685C17.6 7.18382 17.0943 5.96292 16.1941 5.06274L14.9515 3.8201C14.4264 3.295 13.7142 3 12.9716 3L10.8 3C10.5878 3 10.3843 3.08429 10.2343 3.23431C10.0843 3.38434 10 3.58783 10 3.8L10 11.9272C10.2965 11.3168 10.8943 10.8799 11.6 10.8099L11.6 4.6H12.9716C13.2898 4.6 13.5951 4.72643 13.8201 4.95147L15.0627 6.19411Z" fill="#222222"/>
</svg>
