<svg width="20" height="20" viewBox="0 0 20 20" fill="none" xmlns="http://www.w3.org/2000/svg">
<path fill-rule="evenodd" clip-rule="evenodd" d="M8.28751 1.69242C8.82517 0.0316048 11.1748 0.0316048 11.7125 1.69242L13.1338 6.08289C13.1606 6.16539 13.2374 6.22129 13.3241 6.22129H17.9314C19.6735 6.22129 20.3996 8.44924 18.992 9.47567L15.2583 12.1983C15.1885 12.2492 15.1592 12.3393 15.1859 12.4215L16.6105 16.8222C17.1477 18.4817 15.2468 19.8587 13.8375 18.831L10.1178 16.1186C10.0476 16.0674 9.95238 16.0674 9.88217 16.1186L6.16256 18.831C4.75317 19.8587 2.85227 18.4817 3.38951 16.8222L4.81416 12.4215C4.84078 12.3393 4.81156 12.2492 4.74172 12.1983L1.00804 9.47567C-0.399561 8.44924 0.326483 6.22129 2.06859 6.22129H6.67589C6.76262 6.22129 6.83946 6.16539 6.86617 6.08289L8.28751 1.69242ZM9.8808 2.08066C9.85747 2.09658 9.8295 2.12415 9.80973 2.18521L8.38839 6.57568C8.148 7.31825 7.45641 7.82129 6.67589 7.82129H2.06859C2.00463 7.82129 1.96979 7.83933 1.94741 7.85662C1.92018 7.87767 1.89366 7.9126 1.87843 7.95932C1.86321 8.00604 1.86406 8.04989 1.87366 8.08294C1.88155 8.11009 1.89908 8.1452 1.95075 8.18289L5.68443 10.9055C6.313 11.3639 6.57598 12.1742 6.33638 12.9143L4.91173 17.315C4.89199 17.376 4.89847 17.4147 4.90804 17.4413C4.9197 17.4737 4.94482 17.5097 4.98468 17.5386C5.02454 17.5674 5.06659 17.5801 5.101 17.5811C5.12924 17.5819 5.16806 17.576 5.21985 17.5382L8.93946 14.8258C9.5714 14.365 10.4286 14.365 11.0606 14.8258L14.7802 17.5382C14.832 17.576 14.8708 17.5819 14.899 17.5811C14.9334 17.5801 14.9755 17.5674 15.0153 17.5386C15.0552 17.5097 15.0803 17.4737 15.092 17.4413C15.1015 17.4147 15.108 17.376 15.0883 17.315L13.6636 12.9143C13.424 12.1742 13.687 11.3639 14.3156 10.9055L18.0493 8.18288C18.1009 8.1452 18.1185 8.11009 18.1264 8.08294C18.136 8.04988 18.1368 8.00603 18.1216 7.95932C18.1064 7.9126 18.0798 7.87767 18.0526 7.85662C18.0302 7.83933 17.9954 7.82129 17.9314 7.82129H13.3241C12.5436 7.82129 11.852 7.31826 11.6116 6.57568L10.1903 2.18521C10.1705 2.12415 10.1425 2.09658 10.1192 2.08066C10.0908 2.06126 10.0493 2.04681 10 2.04681C9.95074 2.04681 9.90924 2.06126 9.8808 2.08066Z" fill="#222222"/>
</svg>
