<svg width="32" height="32" viewBox="0 0 32 32" fill="none" xmlns="http://www.w3.org/2000/svg">
<path fill-rule="evenodd" clip-rule="evenodd" d="M14.0974 7.63084C14.6948 5.78549 17.3056 5.78549 17.903 7.63084L19.3243 12.0213L23.9316 12.0213C25.8673 12.0213 26.674 14.4968 25.11 15.6373L21.3763 18.3599L22.801 22.7606C23.3979 24.6045 21.2858 26.1345 19.7198 24.9926L16.0002 22.2802L12.2806 24.9926C10.7146 26.1345 8.60249 24.6045 9.19942 22.7606L10.6241 18.3599L6.89039 15.6373C5.32639 14.4968 6.1331 12.0213 8.06878 12.0213H12.6761L14.0974 7.63084ZM16.0002 8.24683L14.5789 12.6373C14.3118 13.4624 13.5433 14.0213 12.6761 14.0213L8.06878 14.0213L11.8025 16.7439C12.5009 17.2532 12.7931 18.1535 12.5268 18.9759L11.1022 23.3766L14.8218 20.6642C15.524 20.1522 16.4764 20.1522 17.1786 20.6642L20.8982 23.3766L19.4735 18.9759C19.2073 18.1535 19.4995 17.2532 20.1979 16.7439L23.9316 14.0213H19.3243C18.4571 14.0213 17.6886 13.4624 17.4215 12.6373L16.0002 8.24683Z" fill="#666666"/>
</svg>
