<svg width="11" height="10" viewBox="0 0 11 10" fill="none" xmlns="http://www.w3.org/2000/svg">
<path fill-rule="evenodd" clip-rule="evenodd" d="M8.78324 1.78244C8.88771 1.46427 8.57833 1.16626 8.2643 1.28255L1.87462 3.64875C1.52035 3.77994 1.52864 4.28386 1.88703 4.40333L4.27254 5.1985C4.7359 5.35295 5.10333 5.71059 5.27025 6.1696L5.96417 8.0779C6.09399 8.43489 6.60163 8.42689 6.72013 8.06598L8.78324 1.78244ZM7.84757 0.157233C9.10371 -0.307933 10.3412 0.884125 9.92336 2.15678L7.86025 8.44033C7.38625 9.88395 5.35568 9.91595 4.83642 8.48799L4.1425 6.57969C4.10077 6.46494 4.00891 6.37553 3.89307 6.33692L1.50756 5.54175C0.0739919 5.06389 0.0408281 3.04819 1.45789 2.52343L7.84757 0.157233Z" fill="#222222"/>
</svg>
