<svg width="14" height="14" viewBox="0 0 14 14" fill="none" xmlns="http://www.w3.org/2000/svg">
<path fill-rule="evenodd" clip-rule="evenodd" d="M4.67191 4.46961C4.69526 4.44264 4.7197 4.41636 4.74522 4.39083L4.85562 4.28037C5.22926 3.90654 5.83503 3.90654 6.20866 4.28037L6.76861 4.8406C7.14224 5.21442 7.14224 5.82051 6.76861 6.19434L6.56467 6.39837C6.86346 6.78872 7.21191 7.13864 7.60093 7.43903L7.80679 7.23306C8.18043 6.85923 8.7862 6.85923 9.15983 7.23306L9.71978 7.79329C10.0934 8.16711 10.0934 8.7732 9.71978 9.14703L9.60937 9.25749C9.54926 9.31763 9.48505 9.37172 9.41755 9.41966L9.32717 9.51493C8.93543 9.92781 8.34969 10.0939 7.7997 9.94795C5.96864 9.46215 4.53729 8.02073 4.05229 6.1908C3.90936 5.65152 4.06389 5.07306 4.4613 4.67864L4.67191 4.46961ZM5.34657 4.99249C5.33327 5.0058 5.32073 5.01948 5.30895 5.03347L5.2967 5.04802L5.06022 5.28272C4.88035 5.46125 4.80883 5.72562 4.87432 5.97271C5.28159 7.50936 6.4839 8.71856 8.01768 9.12549C8.2671 9.19167 8.53273 9.11636 8.71038 8.92912L8.8655 8.76563L8.90653 8.73864C8.94212 8.71524 8.97616 8.6877 9.00802 8.65582L9.11842 8.54536C9.15994 8.50383 9.15994 8.43649 9.11843 8.39495L8.55848 7.83472C8.51697 7.79318 8.44966 7.79318 8.40815 7.83472L7.69772 8.54551L7.40691 8.34835C6.71625 7.88011 6.12151 7.28299 5.65592 6.59032L5.46058 6.29971L6.16725 5.59267C6.20877 5.55114 6.20877 5.4838 6.16725 5.44226L5.60731 4.88203C5.5658 4.84049 5.49849 4.84049 5.45697 4.88203L5.34657 4.99249Z" fill="#222222"/>
<path fill-rule="evenodd" clip-rule="evenodd" d="M7.05327 1.60002C4.07094 1.60002 1.65327 4.01769 1.65327 7.00002C1.65327 7.9846 1.91623 8.90593 2.37533 9.69959C2.51142 9.93485 2.48976 10.1891 2.4726 10.3164C2.45162 10.4719 2.40594 10.6353 2.35637 10.7859C2.26456 11.0647 2.12848 11.3894 2.00375 11.687C1.99356 11.7113 1.98344 11.7354 1.97344 11.7593C1.92917 11.8651 1.88688 11.9667 1.8476 12.0635L2.2281 11.9217C2.4739 11.7883 2.73633 11.6484 2.96538 11.5484C3.10139 11.489 3.25555 11.4301 3.40641 11.3989C3.52162 11.375 3.80746 11.3274 4.06768 11.5004C4.92261 12.0688 5.94835 12.4 7.05327 12.4C10.0356 12.4 12.4533 9.98236 12.4533 7.00002C12.4533 4.01769 10.0356 1.60002 7.05327 1.60002ZM3.66672 12.666C4.65712 13.2591 5.81615 13.6 7.05327 13.6C10.6984 13.6 13.6533 10.6451 13.6533 7.00002C13.6533 3.35494 10.6984 0.400024 7.05327 0.400024C3.40819 0.400024 0.453275 3.35494 0.453275 7.00002C0.453275 8.15783 0.751913 9.24759 1.27672 10.1947C1.26672 10.2445 1.24785 10.3156 1.21655 10.4106C1.14029 10.6423 1.02215 10.9243 0.890859 11.2378C0.882787 11.2571 0.874666 11.2765 0.866502 11.296C0.732775 11.6154 0.585175 11.9709 0.495638 12.2724C0.451362 12.4215 0.41063 12.5913 0.401802 12.7559C0.394384 12.8942 0.399402 13.1863 0.621358 13.4165C0.87068 13.6751 1.19771 13.6492 1.32491 13.6311C1.48423 13.6084 1.64399 13.5517 1.7777 13.4965C2.05047 13.3839 2.37237 13.2092 2.6579 13.0539L2.67955 13.0421C2.69541 13.0335 2.71117 13.0249 2.72684 13.0164L3.66672 12.666ZM1.2855 10.1279C1.2855 10.1279 1.28592 10.1316 1.28513 10.1405C1.28483 10.1326 1.2855 10.1279 1.2855 10.1279Z" fill="#222222"/>
</svg>
