<?xml version="1.0" encoding="UTF-8"?>
<svg width="120px" height="80px" viewBox="0 0 120 80" version="1.1" xmlns="http://www.w3.org/2000/svg" xmlns:xlink="http://www.w3.org/1999/xlink">
    <!-- Generator: Sketch 48.2 (47327) - http://www.bohemiancoding.com/sketch -->
    <title>Group 2</title>
    <desc>Created with Sketch.</desc>
    <defs></defs>
    <g id="Page-1" stroke="none" stroke-width="1" fill="none" fill-rule="evenodd">
        <g id="Group-2" fill-rule="nonzero">
            <path d="M120,70 C120,75.5 115.5,80 110,80 L10,80 C4.5,80 0,75.5 0,70 L0,10 C0,4.5 4.5,0 10,0 L110,0 C115.5,0 120,4.5 120,10 L120,70 Z" id="Shape" fill="#F5F5F5"></path>
            <g id="logo-buscape" transform="translate(26.000000, 18.000000)">
                <path d="M12.3678947,44.6857895 C7.88526316,45.8415789 3.06,43.7384211 1.03263158,39.4910526 C-1.03973684,35.1552632 0.410526316,30.1957895 4.2,27.5865789 L27.2265789,13.3286842 L44.0305263,2.90210526 C50.7963158,-0.857368421 59.5436842,0.399473684 64.6776316,6.66947368 C64.6776316,6.66947368 66.7460526,9.15078947 67.6397368,13.1013158 C69.2676316,21.0023684 64.6397368,28.1218421 57.3410526,30.7642105 L38.3589474,36.6315789 L12.3678947,44.6857895 Z" id="Shape" fill="#312F25"></path>
                <path d="M15.2328947,30.3757895 L17.3171053,29.4205263 L19.1621053,33.21 C19.3436842,33.585 19.5821053,33.8368421 19.875,33.9655263 C20.1686842,34.0942105 20.4986842,34.0760526 20.8642105,33.9071053 C21.0757895,33.81 21.2447368,33.6836842 21.3710526,33.5281579 C21.4973684,33.3742105 21.5842105,33.2044737 21.6363158,33.0205263 C21.6884211,32.8365789 21.6994737,32.6415789 21.6710526,32.4378947 C21.6426316,32.2326316 21.5826316,32.0376316 21.4910526,31.8505263 L19.7621053,28.2994737 L21.8305263,27.3521053 L25.0357895,33.9339474 L23.0407895,34.8481579 L22.6405263,34.1731579 C22.5410526,34.5284211 22.3515789,34.8694737 22.0689474,35.1994737 C21.7871053,35.5286842 21.4484211,35.7836842 21.0528947,35.9652632 C20.2713158,36.3228947 19.545,36.3813158 18.8739474,36.1389474 C18.1997368,35.8981579 17.6502632,35.3376316 17.2223684,34.4573684 L15.2328947,30.3742105 L15.2328947,30.3757895 Z M26.2894737,30.8723684 C26.6068421,30.9671053 26.9786842,30.9986842 27.4026316,30.9623684 C27.8289474,30.9276316 28.2102632,30.8328947 28.5473684,30.6781579 C28.8568421,30.5360526 29.0944737,30.3821053 29.2610526,30.2139474 C29.4268421,30.0465789 29.4584211,29.8547368 29.3518421,29.64 C29.3107895,29.5563158 29.2515789,29.49 29.1742105,29.4386842 C29.0968421,29.3881579 28.9847368,29.3597368 28.8394737,29.3518421 C28.695,29.3439474 28.5023684,29.3542105 28.2631579,29.3834211 C28.0247368,29.4134211 27.7247368,29.4592105 27.3655263,29.5207895 C27.0734211,29.5744737 26.7734211,29.6060526 26.4655263,29.6155263 C26.1576316,29.625 25.8655263,29.5957895 25.5892105,29.5286842 C25.3144737,29.4592105 25.0626316,29.3392105 24.8313158,29.1702632 C24.6023684,29.0013158 24.4144737,28.7676316 24.2684211,28.4676316 C24.1184211,28.1597368 24.0552632,27.8478947 24.0789474,27.5336842 C24.1026316,27.2178947 24.1973684,26.9115789 24.3647368,26.6131579 C24.5305263,26.3131579 24.7673684,26.0344737 25.0713158,25.7747368 C25.3760526,25.5157895 25.7305263,25.2931579 26.1355263,25.1068421 C26.7142105,24.8415789 27.2518421,24.6726316 27.7460526,24.6 C28.2434211,24.5289474 28.7328947,24.5289474 29.2184211,24.6047368 L28.9847368,26.3415789 C28.6942105,26.3036842 28.38,26.2942105 28.0405263,26.3115789 C27.7010526,26.3289474 27.3536842,26.4205263 26.9960526,26.5839474 C26.6778947,26.7292105 26.4686842,26.88 26.3668421,27.0339474 C26.2657895,27.1902632 26.2507895,27.3434211 26.3234211,27.4918421 C26.4292105,27.7081579 26.655,27.7981579 27.0055263,27.7642105 C27.3544737,27.7294737 27.8163158,27.6615789 28.3918421,27.5589474 C29.1773684,27.4271053 29.8065789,27.4531579 30.2786842,27.6378947 C30.7523684,27.8210526 31.1210526,28.1842105 31.3839474,28.7273684 C31.5631579,29.0921053 31.6310526,29.4442105 31.5892105,29.7828947 C31.5497368,30.1223684 31.4281579,30.4444737 31.2276316,30.7460526 C31.0278947,31.0507895 30.7665789,31.3271053 30.4460526,31.5773684 C30.1255263,31.8276316 29.7765789,32.0384211 29.4007895,32.2105263 C28.7928947,32.4892105 28.1810526,32.6723684 27.5636842,32.7607895 C26.9455263,32.8492105 26.3889474,32.8081579 25.89,32.6344737 L26.2894737,30.8723684 Z M39.2289474,26.37 C39.0947368,26.7963158 38.85,27.2226316 38.4971053,27.6489474 C38.1434211,28.0736842 37.6539474,28.4305263 37.0263158,28.7171053 C36.4768421,28.9697368 35.9352632,29.1118421 35.4023684,29.1434211 C34.8694737,29.1765789 34.3681579,29.1086842 33.8960526,28.9405263 C33.4255263,28.7731579 32.9960526,28.5157895 32.6076316,28.1668421 C32.2207895,27.8194737 31.9010526,27.3868421 31.65,26.8721053 C31.4131579,26.3857895 31.2828947,25.8876316 31.2584211,25.3776316 C31.2347368,24.8676316 31.3057895,24.3797368 31.4747368,23.9139474 C31.6428947,23.4481579 31.9065789,23.0218421 32.2665789,22.6334211 C32.6273684,22.245 33.0718421,21.9307895 33.6031579,21.6860526 C34.2205263,21.4042105 34.8031579,21.2573684 35.3526316,21.2455263 C35.9005263,21.2344737 36.4089474,21.3221053 36.8778947,21.5076316 L36.2621053,23.4039474 C36.0252632,23.3060526 35.7647368,23.2421053 35.4789474,23.2128947 C35.1923684,23.1836842 34.8663158,23.2539474 34.5,23.4205263 C34.2489474,23.5365789 34.0484211,23.6889474 33.8984211,23.8768421 C33.7484211,24.0663158 33.6426316,24.2715789 33.5794737,24.495 C33.5178947,24.7184211 33.5021053,24.9528947 33.5321053,25.1952632 C33.5621053,25.44 33.6347368,25.6768421 33.7484211,25.9121053 C33.8534211,26.1276316 33.9931579,26.3226316 34.1668421,26.5010526 C34.3421053,26.6778947 34.5394737,26.8168421 34.7589474,26.9163158 C34.98,27.0165789 35.2136842,27.0726316 35.4615789,27.0844737 C35.7086842,27.0971053 35.9589474,27.045 36.2084211,26.9305263 C36.5660526,26.7671053 36.8321053,26.5626316 37.0057895,26.3163158 C37.1826316,26.0715789 37.3026316,25.8347368 37.3705263,25.6089474 L39.2281579,26.3715789 L39.2289474,26.37 Z M44.2421053,24.3813158 C44.1394737,24.75 43.9444737,25.0839474 43.6610526,25.3863158 C43.3768421,25.6878947 43.0184211,25.9389474 42.5842105,26.1363158 C42.3434211,26.2468421 42.0734211,26.3313158 41.7765789,26.3873684 C41.4789474,26.4426316 41.1789474,26.4457895 40.8765789,26.3952632 C40.5765789,26.3447368 40.2860526,26.2231579 40.0081579,26.0289474 C39.7318421,25.8363158 39.4981579,25.5426316 39.3071053,25.1494737 C39.1192105,24.7657895 39.0323684,24.3884211 39.0465789,24.0157895 C39.0592105,23.6431579 39.1571053,23.2934211 39.3386842,22.9626316 C39.5202632,22.6342105 39.7760526,22.3310526 40.1076316,22.0531579 C40.4392105,21.7752632 40.8260526,21.5344737 41.2681579,21.3315789 C41.5105263,21.2210526 41.7576316,21.1144737 42.0071053,21.0110526 C42.2573684,20.9084211 42.4255263,20.8476316 42.5123684,20.8310526 L42.4444737,20.6905263 C42.3615789,20.5223684 42.255,20.3968421 42.1263158,20.3115789 C41.9984211,20.2286842 41.8539474,20.175 41.6944737,20.1497368 C41.5365789,20.1260526 41.3707895,20.1339474 41.2010526,20.1710526 C41.0297368,20.2089474 40.8576316,20.2673684 40.6847368,20.3463158 C40.2221053,20.5594737 39.8652632,20.7907895 39.6157895,21.0426316 C39.3663158,21.2936842 39.1705263,21.5384211 39.0260526,21.7752632 L37.5710526,20.9321053 C37.6657895,20.7631579 37.7794737,20.5847368 37.9128947,20.3984211 C38.0471053,20.2113158 38.2176316,20.0178947 38.4276316,19.8189474 C38.6368421,19.62 38.8855263,19.4226316 39.1744737,19.2268421 C39.4642105,19.0326316 39.8107895,18.8423684 40.2165789,18.6560526 C41.2484211,18.1839474 42.1413158,18.1034211 42.8952632,18.4168421 C43.6492105,18.7294737 44.2468421,19.3405263 44.6889474,20.2468421 L46.5552632,24.0781579 L44.6005263,24.9734211 L44.2421053,24.3813158 Z M43.1289474,22.0942105 C43.0752632,22.1076316 42.9789474,22.1368421 42.8368421,22.185 C42.6947368,22.2323684 42.5368421,22.2971053 42.3631579,22.3768421 C41.7844737,22.6421053 41.4118421,22.9097368 41.25,23.1789474 C41.0842105,23.4473684 41.0747368,23.7276316 41.2160526,24.0181579 C41.4797368,24.5605263 41.9502632,24.6765789 42.6244737,24.3671053 C42.7902632,24.2928947 42.9386842,24.1934211 43.0721053,24.0686842 C43.2063158,23.9439474 43.3113158,23.8065789 43.3863158,23.6581579 C43.4621053,23.5097368 43.5031579,23.3471053 43.5126316,23.1718421 C43.5205263,22.9965789 43.4810526,22.8165789 43.3886842,22.6271053 L43.1281579,22.095 L43.1289474,22.0942105 Z M62.3684211,15.9576316 C62.3147368,16.0389474 62.2365789,16.1707895 62.1339474,16.3476316 C62.0328947,16.5260526 61.8844737,16.7234211 61.6878947,16.9397368 C61.4921053,17.1544737 61.2442105,17.3794737 60.9457895,17.6131579 C60.6457895,17.8476316 60.2802632,18.0647368 59.8460526,18.2628947 C59.2665789,18.5281579 58.7044737,18.6813158 58.1565789,18.7192105 C57.6094737,18.7586842 57.0986842,18.6986842 56.625,18.5376316 C56.1513158,18.3765789 55.725,18.1176316 55.3436842,17.76 C54.9623684,17.4023684 54.6457895,16.9626316 54.3907895,16.4368421 C54.1665789,15.9789474 54.0307895,15.4997368 53.9826316,15 C53.9352632,14.5026316 53.9826316,14.025 54.1271053,13.5710526 C54.2715789,13.1155263 54.5139474,12.6923684 54.855,12.3 C55.1968421,11.9115789 55.6405263,11.5894737 56.1915789,11.3368421 C56.7410526,11.0857895 57.2684211,10.9578947 57.7752632,10.9555263 C58.2805263,10.9523684 58.7573684,11.0518421 59.2042105,11.2531579 C59.6502632,11.4560526 60.0592105,11.7544737 60.4294737,12.1515789 C60.7989474,12.5478947 61.1186842,13.0231579 61.3878947,13.575 L61.5513158,13.9113158 L56.7181579,16.1265789 C56.9021053,16.4778947 57.2155263,16.7147368 57.6576316,16.8371053 C58.1013158,16.9610526 58.5986842,16.8963158 59.1497368,16.6444737 C59.6881579,16.3973684 60.0892105,16.1186842 60.3528947,15.81 C60.615,15.5005263 60.795,15.255 60.8952632,15.0718421 L62.3684211,15.9576316 Z M58.9531579,13.5221053 C58.8852632,13.3815789 58.7873684,13.2536842 58.6571053,13.1336842 C58.5284211,13.0152632 58.3776316,12.9221053 58.2023684,12.8534211 C58.0271053,12.7855263 57.8336842,12.7507895 57.6205263,12.7507895 C57.4073684,12.7507895 57.1815789,12.8060526 56.94,12.9165789 C56.6992105,13.0271053 56.5057895,13.1652632 56.3621053,13.3271053 C56.2176316,13.4905263 56.115,13.6618421 56.0526316,13.8386842 C55.9926316,14.0155263 55.9657895,14.1907895 55.9736842,14.3644737 C55.9815789,14.5381579 56.0210526,14.6960526 56.0881579,14.8357895 L58.9539474,13.5236842 L58.9531579,13.5221053 Z M14.7418421,32.9273684 C14.4118421,32.5918421 14.0455263,32.3297368 13.6428947,32.1434211 C13.2386842,31.9563158 12.8060526,31.8592105 12.3434211,31.8544737 C11.88,31.8489474 11.4078947,31.9571053 10.9255263,32.1765789 C10.5978947,32.3265789 10.2939474,32.535 10.0176316,32.8002632 C9.73894737,33.0647368 9.55184211,33.3386842 9.45394737,33.6236842 L7.86157895,30.3576316 C7.29078947,30.7160526 6.83210526,31.005 6.50368421,31.2142105 C6.30473684,31.3421053 6.11447368,31.4786842 5.92973684,31.6247368 L10.2134211,40.4178947 C10.6057895,40.3752632 11.085,40.2876316 11.6502632,40.1534211 C12.2171053,40.0215789 12.7902632,39.8218421 13.3689474,39.5565789 C13.9957895,39.2692105 14.5113158,38.925 14.9178947,38.5223684 C15.3228947,38.1181579 15.6165789,37.68 15.7997368,37.2071053 C15.9813158,36.7334211 16.0523684,36.2321053 16.0128947,35.7015789 C15.9734211,35.1726316 15.8234211,34.6397368 15.5628947,34.1068421 C15.3442105,33.6568421 15.0710526,33.2652632 14.7418421,32.9289474 L14.7418421,32.9273684 Z M13.7060526,36.7073684 C13.5718421,37.1928947 13.2284211,37.5615789 12.6781579,37.8126316 C12.4278947,37.9286842 12.2265789,38.0068421 12.0757895,38.0471053 C11.9242105,38.0881579 11.7789474,38.1126316 11.6415789,38.1181579 L10.6492105,36.0828947 C10.4494737,35.6723684 10.3997368,35.2910526 10.4992105,34.9413158 C10.6018421,34.5923684 10.8836842,34.3113158 11.3471053,34.0989474 C11.5871053,33.9884211 11.8168421,33.9426316 12.0339474,33.9631579 C12.2502632,33.9844737 12.4492105,34.0476316 12.63,34.1526316 C12.8115789,34.2592105 12.9757895,34.3989474 13.1257895,34.5710526 C13.2742105,34.7431579 13.3997368,34.9310526 13.4992105,35.1371053 C13.7723684,35.6992105 13.8418421,36.2226316 13.7060526,36.7081579 L13.7060526,36.7073684 Z M52.6365789,15.6694737 C52.3128947,15.3197368 51.9497368,15.0457895 51.5455263,14.8484211 C51.1428947,14.6494737 50.7071053,14.5421053 50.2405263,14.5278947 C49.7731579,14.5121053 49.2931579,14.6178947 48.8013158,14.8436842 C48.4247368,15.0157895 48.0986842,15.2542105 47.8223684,15.5581579 C47.5460526,15.8621053 47.3621053,16.2007895 47.2728947,16.5734211 L47.0692105,16.2292105 C47.0021053,16.1163158 46.9294737,16.0042105 46.8513158,15.8913158 L44.8539474,16.8055263 L49.3065789,25.9436842 C50.0597368,25.7068421 50.7907895,25.4723684 51.495,25.2426316 L50.1086842,22.3981579 C50.31,22.3744737 50.5302632,22.3428947 50.7702632,22.3002632 C51.0086842,22.2607895 51.2928947,22.1636842 51.6205263,22.0136842 C52.0357895,21.8242105 52.4210526,21.5613158 52.7771053,21.2265789 C53.1323684,20.8918421 53.4086842,20.5018421 53.6060526,20.0565789 C53.8034211,19.6128947 53.8981579,19.1171053 53.8902632,18.5707895 C53.8847368,18.0244737 53.7323684,17.4473684 53.4363158,16.8386842 C53.2271053,16.4084211 52.9610526,16.0176316 52.6373684,15.6686842 L52.6365789,15.6694737 Z M51.5794737,19.3634211 C51.4452632,19.8307895 51.1239474,20.1813158 50.6123684,20.4157895 C50.0834211,20.6605263 49.6381579,20.7552632 49.2821053,20.7 L48.4271053,18.9457895 C48.3363158,18.7578947 48.2786842,18.5621053 48.255,18.3552632 C48.2313158,18.1484211 48.2455263,17.9478947 48.2976316,17.7521053 C48.3497368,17.5563158 48.4444737,17.3755263 48.5818421,17.2097368 C48.7192105,17.0423684 48.9039474,16.9073684 49.1344737,16.8007895 C49.395,16.6823684 49.6381579,16.6271053 49.8623684,16.6397368 C50.0865789,16.6515789 50.2910526,16.7092105 50.4781579,16.8134211 C50.6628947,16.9160526 50.8334211,17.0581579 50.9865789,17.2397368 C51.1397368,17.4213158 51.2692105,17.6202632 51.3734211,17.8357895 C51.6418421,18.3884211 51.7113158,18.8976316 51.5786842,19.3642105 L51.5794737,19.3634211 Z" id="Shape" fill="#FFFFFF"></path>
                <path d="M56.1607895,9.05526316 L54.2723684,10.7826316 C53.9376316,11.0613158 53.4513158,11.0857895 53.1197368,10.8189474 L53.1134211,10.8134211 C52.7818421,10.5465789 52.7186842,10.0792105 52.9381579,9.70815789 L54.3434211,7.59078947 L55.3697368,6.04342105 C55.7976316,5.45684211 56.5823684,5.20184211 57.2518421,5.50894737 C57.2518421,5.50894737 57.5202632,5.62736842 57.7436842,5.91710526 C58.1778947,6.50131579 58.0563158,7.27736842 57.54,7.79368421 L56.16,9.05447368" id="Shape" fill="#D8272D"></path>
            </g>
        </g>
    </g>
</svg>