<?xml version="1.0" encoding="UTF-8"?>
<svg width="120px" height="80px" viewBox="0 0 120 80" version="1.1" xmlns="http://www.w3.org/2000/svg" xmlns:xlink="http://www.w3.org/1999/xlink">
    <!-- Generator: Sketch 48.2 (47327) - http://www.bohemiancoding.com/sketch -->
    <title>Group 2</title>
    <desc>Created with Sketch.</desc>
    <defs></defs>
    <g id="Page-1" stroke="none" stroke-width="1" fill="none" fill-rule="evenodd">
        <g id="Group-2" fill-rule="nonzero">
            <path d="M120,70 C120,75.5 115.5,80 110,80 L10,80 C4.5,80 0,75.5 0,70 L0,10 C0,4.5 4.5,0 10,0 L110,0 C115.5,0 120,4.5 120,10 L120,70 Z" id="Shape" fill="#F5F5F5"></path>
            <g id="olist" transform="translate(25.000000, 25.000000)" fill="#7891AB">
                <path d="M19.8461538,10.6153846 C18.9230769,9.69230769 17.7692308,8.88461538 16.3846154,8.30769231 C15,7.73076923 13.6153846,7.5 11.8846154,7.5 C10.2692308,7.5 8.76923077,7.73076923 7.38461538,8.30769231 C6.11538462,8.88461538 4.96153846,9.57692308 4.03846154,10.6153846 C3.11538462,11.5384615 2.42307692,12.8076923 1.84615385,14.1923077 C1.38461538,15.5769231 1.03846154,17.0769231 1.03846154,18.8076923 C1.03846154,20.5384615 1.26923077,22.0384615 1.84615385,23.4230769 C2.30769231,24.8076923 3.11538462,25.9615385 4.03846154,27 C4.96153846,27.9230769 6.11538462,28.7307692 7.38461538,29.3076923 C8.76923077,29.7692308 10.2692308,30 12,30 C13.6153846,30 15.1153846,29.7692308 16.5,29.1923077 C17.8846154,28.6153846 18.9230769,27.9230769 19.9615385,26.8846154 C20.8846154,25.9615385 21.5769231,24.6923077 22.1538462,23.3076923 C22.6153846,21.9230769 22.9615385,20.4230769 22.9615385,18.6923077 C22.9615385,16.9615385 22.7307692,15.4615385 22.1538462,14.0769231 C21.4615385,12.8076923 20.7692308,11.6538462 19.8461538,10.6153846 Z M16.8461538,21.3461538 C16.7307692,22.1538462 16.3846154,22.8461538 16.0384615,23.5384615 C15.6923077,24.2307692 15.1153846,24.6923077 14.4230769,25.0384615 C13.7307692,25.3846154 12.9230769,25.6153846 12,25.6153846 C11.0769231,25.6153846 10.2692308,25.3846154 9.57692308,25.0384615 C8.88461538,24.6923077 8.42307692,24.1153846 8.07692308,23.5384615 C7.73076923,22.8461538 7.38461538,22.1538462 7.26923077,21.3461538 C6.92307692,20.5384615 6.92307692,19.7307692 6.92307692,18.8076923 C6.92307692,18 7.03846154,17.0769231 7.15384615,16.2692308 C7.26923077,15.4615385 7.61538462,14.7692308 7.96153846,14.0769231 C8.30769231,13.5 8.88461538,12.9230769 9.46153846,12.5769231 C10.1538462,12.2307692 10.9615385,12 11.8846154,12 C12.8076923,12 13.6153846,12.2307692 14.3076923,12.5769231 C15,12.9230769 15.4615385,13.5 15.9230769,14.0769231 C16.2692308,14.6538462 16.6153846,15.4615385 16.7307692,16.2692308 C16.8461538,17.0769231 16.9615385,17.8846154 16.9615385,18.8076923 C17.0769231,19.7307692 16.9615385,20.5384615 16.8461538,21.3461538 Z M24,29.4230769 L29.7692308,29.4230769 L29.7692308,0 L24,0 L24,29.4230769 Z M31.3846154,29.4230769 L37.1538462,29.4230769 L37.1538462,8.07692308 L31.3846154,8.07692308 L31.3846154,29.4230769 Z M31.3846154,4.84615385 L37.1538462,4.84615385 L37.1538462,0 L31.3846154,0 L31.3846154,4.84615385 Z M55.3846154,18.4615385 C54.8076923,18 54,17.6538462 53.3076923,17.4230769 L50.8846154,16.7307692 C50.0769231,16.5 49.2692308,16.3846154 48.4615385,16.1538462 C47.6538462,16.0384615 46.9615385,15.8076923 46.3846154,15.5769231 C45.8076923,15.3461538 45.2307692,15.1153846 44.8846154,14.7692308 C44.5384615,14.4230769 44.3076923,13.9615385 44.3076923,13.5 C44.3076923,13.0384615 44.4230769,12.6923077 44.6538462,12.4615385 C44.8846154,12.2307692 45.1153846,12 45.4615385,11.8846154 C45.8076923,11.7692308 46.1538462,11.6538462 46.5,11.6538462 C46.8461538,11.6538462 47.1923077,11.5384615 47.5384615,11.5384615 C48.5769231,11.5384615 49.5,11.7692308 50.1923077,12.1153846 C51,12.4615385 51.3461538,13.2692308 51.4615385,14.4230769 L56.8846154,14.4230769 C56.7692308,13.1538462 56.4230769,12 55.8461538,11.1923077 C55.2692308,10.2692308 54.5769231,9.57692308 53.7692308,9.11538462 C52.9615385,8.53846154 52.0384615,8.19230769 50.8846154,7.96153846 C49.8461538,7.73076923 48.6923077,7.61538462 47.5384615,7.61538462 C46.3846154,7.61538462 45.3461538,7.73076923 44.1923077,7.96153846 C43.1538462,8.19230769 42.1153846,8.53846154 41.3076923,9 C40.5,9.46153846 39.8076923,10.1538462 39.2307692,11.0769231 C38.6538462,12 38.4230769,13.0384615 38.4230769,14.4230769 C38.4230769,15.3461538 38.6538462,16.1538462 39,16.8461538 C39.3461538,17.5384615 39.9230769,18 40.5,18.4615385 C41.0769231,18.9230769 41.8846154,19.2692308 42.5769231,19.5 L45,20.1923077 C47.0769231,20.6538462 48.6923077,21.1153846 49.8461538,21.4615385 C51,21.9230769 51.5769231,22.6153846 51.5769231,23.4230769 C51.5769231,24 51.4615385,24.3461538 51.2307692,24.6923077 C51,25.0384615 50.6538462,25.2692308 50.3076923,25.5 C49.9615385,25.7307692 49.5,25.8461538 49.0384615,25.9615385 C48.5769231,26.0769231 48.1153846,26.0769231 47.7692308,26.0769231 C47.1923077,26.0769231 46.6153846,25.9615385 46.1538462,25.8461538 C45.5769231,25.7307692 45.1153846,25.5 44.7692308,25.1538462 C44.3076923,24.9230769 44.0769231,24.4615385 43.7307692,24 C43.5,23.5384615 43.3846154,22.9615385 43.3846154,22.3846154 L38.0769231,22.3846154 C38.0769231,23.7692308 38.4230769,25.0384615 39,25.9615385 C39.5769231,26.8846154 40.2692308,27.6923077 41.1923077,28.2692308 C42.1153846,28.8461538 43.1538462,29.3076923 44.3076923,29.5384615 C45.4615385,29.7692308 46.6153846,29.8846154 47.8846154,29.8846154 C49.0384615,29.8846154 50.1923077,29.7692308 51.3461538,29.5384615 C52.5,29.3076923 53.5384615,28.8461538 54.3461538,28.2692308 C55.2692308,27.6923077 55.9615385,26.8846154 56.5384615,25.9615385 C57.1153846,25.0384615 57.3461538,23.8846154 57.3461538,22.3846154 C57.3461538,21.3461538 57.1153846,20.5384615 56.7692308,19.8461538 C56.4230769,19.5 55.9615385,18.9230769 55.3846154,18.4615385 Z M69.2307692,12 L69.2307692,8.07692308 L65.0769231,8.07692308 L65.0769231,1.73076923 L59.3076923,1.73076923 L59.3076923,8.07692308 L55.8461538,8.07692308 L57.6923077,12 L59.4230769,12 L59.4230769,24.5769231 C59.4230769,25.6153846 59.6538462,26.5384615 60,27.2307692 C60.3461538,27.9230769 60.8076923,28.3846154 61.3846154,28.7307692 C61.9615385,29.0769231 62.6538462,29.3076923 63.4615385,29.4230769 C64.2692308,29.5384615 65.0769231,29.6538462 66,29.6538462 L67.7307692,29.6538462 C68.3076923,29.6538462 68.8846154,29.5384615 69.3461538,29.5384615 L69.3461538,25.0384615 C69.1153846,25.0384615 68.7692308,25.1538462 68.5384615,25.1538462 L67.6153846,25.1538462 C66.6923077,25.1538462 66,25.0384615 65.6538462,24.6923077 C65.3076923,24.3461538 65.1923077,23.6538462 65.1923077,22.7307692 L65.1923077,12.1153846 L69.2307692,12.1153846 L69.2307692,12 Z" id="Shape"></path>
            </g>
        </g>
    </g>
</svg>