<?xml version="1.0" encoding="UTF-8"?>
<svg width="120px" height="80px" viewBox="0 0 120 80" version="1.1" xmlns="http://www.w3.org/2000/svg" xmlns:xlink="http://www.w3.org/1999/xlink">
    <!-- Generator: Sketch 48.2 (47327) - http://www.bohemiancoding.com/sketch -->
    <title>Group 2</title>
    <desc>Created with Sketch.</desc>
    <defs></defs>
    <g id="Page-1" stroke="none" stroke-width="1" fill="none" fill-rule="evenodd">
        <g id="Group-2" fill-rule="nonzero">
            <path d="M120,70 C120,75.5 115.5,80 110,80 L10,80 C4.5,80 0,75.5 0,70 L0,10 C0,4.5 4.5,0 10,0 L110,0 C115.5,0 120,4.5 120,10 L120,70 Z" id="Shape" fill="#F5F5F5"></path>
            <g id="zendesk-relationshapes-logo" transform="translate(20.000000, 32.000000)" fill="#03363D">
                <path d="M54.104,13.392 C55.1725201,13.4173672 56.2067498,13.0140464 56.976,12.272 L58.4,13.816 C57.282425,14.9687432 55.7238273,15.5863557 54.12,15.512 C50.64,15.512 48.392,13.192 48.392,10.056 C48.3592176,8.60614389 48.917973,7.2053963 49.9396584,6.17616528 C50.9613437,5.14693427 52.3579419,4.5778869 53.808,4.6 C57.264,4.6 59.224,7.24 59.048,10.904 L50.896,10.904 C51.1311015,12.4559141 52.5423982,13.550461 54.104,13.392 Z M56.592,9.16 C56.5145449,7.71749692 55.2825179,6.61082148 53.84,6.688 C52.3597769,6.60110399 51.0671017,7.68008498 50.888,9.152 L56.592,9.16 Z" id="Shape"></path>
                <polygon id="Shape" points="0 13.28 6.288 6.88 0.144 6.88 0.144 4.856 9.2 4.856 9.2 6.904 2.912 13.304 9.312 13.304 9.312 15.32 0 15.32"></polygon>
                <path d="M16.8,13.392 C17.8685201,13.4173672 18.9027498,13.0140464 19.672,12.272 L21.096,13.816 C19.978425,14.9687432 18.4198273,15.5863557 16.816,15.512 C13.336,15.512 11.088,13.192 11.088,10.056 C11.0552176,8.60614389 11.613973,7.2053963 12.6356584,6.17616528 C13.6573437,5.14693427 15.0539419,4.5778869 16.504,4.6 C19.96,4.6 21.92,7.24 21.744,10.904 L13.6,10.904 C13.8350165,12.4525189 15.2413308,13.5459283 16.8,13.392 Z M19.288,9.16 C19.2063073,7.72068189 17.9755626,6.61873614 16.536,6.696 C15.0645067,6.61746706 13.7826291,7.68977343 13.6,9.152 L19.288,9.16 Z" id="Shape"></path>
                <path d="M35.344,10.056 C35.2827585,8.62933837 35.8081996,7.23979293 36.7980929,6.21060622 C37.7879861,5.1814195 39.1560359,4.60231258 40.584,4.608 C41.9240453,4.598083 43.1991611,5.18434315 44.064,6.208 L44.064,0 L46.288,0 L46.288,15.296 L44.064,15.296 L44.064,13.856 C43.2115278,14.9114218 41.9246662,15.5209878 40.568,15.512 C39.1456535,15.4999179 37.7885395,14.9136105 36.804833,13.8862171 C35.8211264,12.8588238 35.2943051,11.4775295 35.344,10.056 Z M44.184,10.056 C44.184,8.22683291 42.7011671,6.744 40.872,6.744 C39.0428329,6.744 37.56,8.22683291 37.56,10.056 C37.56,11.8851671 39.0428329,13.368 40.872,13.368 C42.7011671,13.368 44.184,11.8851671 44.184,10.056 Z" id="Shape"></path>
                <path d="M60.44,13.08 L62.448,12 C62.9883314,12.9674291 64.020252,13.5557779 65.128,13.528 C66.384,13.528 67.032,12.88 67.032,12.144 C67.032,11.408 65.816,11.12 64.496,10.848 C62.712,10.472 60.872,9.888 60.872,7.728 C60.872,6.072 62.472,4.528 64.92,4.528 C66.582714,4.42792061 68.1784421,5.19701918 69.136,6.56 L67.272,7.648 C66.7494988,6.87191006 65.8629345,6.42106333 64.928,6.456 C63.736,6.456 63.128,7.04 63.128,7.712 C63.128,8.384 64.088,8.672 65.6,9.008 C67.32,9.384 69.264,9.952 69.264,12.128 C69.264,13.576 68.008,15.52 65.032,15.504 C63.163638,15.6410745 61.3808535,14.6999878 60.44,13.08 Z" id="Shape"></path>
                <polygon id="Shape" points="75.048 10.648 73.288 12.576 73.288 15.304 71.064 15.304 71.064 0 73.288 0 73.288 10.016 78 4.8 80.704 4.8 76.616 9.288 80.8 15.296 78.296 15.296"></polygon>
                <path d="M28.736,4.608 C26.096,4.608 23.888,6.328 23.888,9.176 L23.888,15.296 L26.152,15.296 L26.152,9.456 C26.0715595,8.72358452 26.3209599,7.99332419 26.8326128,7.46312194 C27.3442657,6.9329197 28.0651853,6.65768231 28.8,6.712 C30.48,6.712 31.312,7.744 31.312,9.456 L31.312,15.296 L33.6,15.296 L33.6,9.176 C33.6,6.328 31.376,4.608 28.736,4.608 Z" id="Shape"></path>
            </g>
        </g>
    </g>
</svg>