<svg width="36" height="36" viewBox="0 0 36 36" fill="none" xmlns="http://www.w3.org/2000/svg">
<path fill-rule="evenodd" clip-rule="evenodd" d="M18 9C19.864 9 21.375 10.511 21.375 12.375V21.375C20.1324 21.375 19.125 22.3824 19.125 23.625C19.125 24.0348 19.2346 24.4191 19.426 24.75H15.449C15.6404 24.4191 15.75 24.0348 15.75 23.625C15.75 23.2152 15.6404 22.8309 15.449 22.5H19.125L19.125 12.375C19.125 11.7537 18.6213 11.25 18 11.25L11.25 11.25C10.6287 11.25 10.125 11.7537 10.125 12.375L10.125 21.375C10.125 21.9963 10.6287 22.5 11.25 22.5H11.551C11.3596 22.8309 11.25 23.2152 11.25 23.625C11.25 24.0348 11.3596 24.4191 11.551 24.75H11.25C9.38604 24.75 7.875 23.239 7.875 21.375V12.375C7.875 10.511 9.38604 9 11.25 9H18Z"/>
<path fill-rule="evenodd" clip-rule="evenodd" d="M13.5 22.5C12.8787 22.5 12.375 23.0037 12.375 23.625C12.375 24.2463 12.8787 24.75 13.5 24.75C14.1213 24.75 14.625 24.2463 14.625 23.625C14.625 23.0037 14.1213 22.5 13.5 22.5ZM10.125 23.625C10.125 21.761 11.636 20.25 13.5 20.25C15.364 20.25 16.875 21.761 16.875 23.625C16.875 25.489 15.364 27 13.5 27C11.636 27 10.125 25.489 10.125 23.625Z"/>
<path fill-rule="evenodd" clip-rule="evenodd" d="M21.375 22.5C20.7537 22.5 20.25 23.0037 20.25 23.625C20.25 24.2463 20.7537 24.75 21.375 24.75C21.9963 24.75 22.5 24.2463 22.5 23.625C22.5 23.0037 21.9963 22.5 21.375 22.5ZM18 23.625C18 21.761 19.511 20.25 21.375 20.25C23.239 20.25 24.75 21.761 24.75 23.625C24.75 25.489 23.239 27 21.375 27C19.511 27 18 25.489 18 23.625Z"/>
<path fill-rule="evenodd" clip-rule="evenodd" d="M24.8865 16.3525C25.5194 16.9854 25.875 17.8439 25.875 18.739L25.875 21.375C25.875 21.9963 25.3713 22.5 24.75 22.5H23.324C23.5154 22.8309 23.625 23.2152 23.625 23.625C23.625 24.0348 23.5154 24.4191 23.324 24.75H24.75C26.614 24.75 28.125 23.239 28.125 21.375V18.739C28.125 17.2471 27.5324 15.8164 26.4775 14.7615L25.0795 13.3635C24.4466 12.7306 23.5881 12.375 22.693 12.375H20.25C19.9516 12.375 19.6655 12.4935 19.4545 12.7045C19.2435 12.9155 19.125 13.2016 19.125 13.5V23.625C19.125 22.3824 20.1324 21.375 21.375 21.375V14.625H22.693C22.9914 14.625 23.2775 14.7435 23.4885 14.9545L24.8865 16.3525Z"/>
</svg>
