<svg width="32" height="32" viewBox="0 0 32 32" fill="none" xmlns="http://www.w3.org/2000/svg">
<path fill-rule="evenodd" clip-rule="evenodd" d="M16 7C20.9706 7 25 11.0294 25 16C25 20.9706 20.9706 25 16 25C11.0294 25 7 20.9706 7 16C7 11.0294 11.0294 7 16 7ZM23 16C23 12.134 19.866 9 16 9C12.134 9 9 12.134 9 16C9 19.866 12.134 23 16 23C19.866 23 23 19.866 23 16Z"/>
<path fill-rule="evenodd" clip-rule="evenodd" d="M17 11V16C17 16.2652 16.8946 16.5196 16.7071 16.7071L14 19.4142L12.5858 18L15 15.5858V11H17Z"/>
</svg>
