<svg width="32" height="32" viewBox="0 0 32 32" fill="none" xmlns="http://www.w3.org/2000/svg">
<path fill-rule="evenodd" clip-rule="evenodd" d="M22.7433 22.4627C24.0513 23.5192 26 22.5882 26 20.9069L26 10C26 8.34315 24.6569 7 23 7L13 7C11.3431 7 10 8.34315 10 10V18C10 19.6569 11.3431 21 13 21H20.5789C20.8076 21 21.0293 21.0784 21.2072 21.2221L22.7433 22.4627ZM24 20.9069L22.4639 19.6662C21.9302 19.2351 21.2649 19 20.5789 19H13C12.4477 19 12 18.5523 12 18V10C12 9.44772 12.4477 9 13 9L23 9C23.5523 9 24 9.44771 24 10L24 20.9069Z"/>
<path fill-rule="evenodd" clip-rule="evenodd" d="M6 24.365C6 26.0606 7.97772 26.9869 9.28037 25.9014L10.0839 25.2318C10.2636 25.082 10.4902 25 10.7241 25H17C18.6569 25 20 23.6569 20 22H18C18 22.5523 17.5523 23 17 23H10.7241C10.0223 23 9.34269 23.246 8.80355 23.6953L8 24.365L8 15C8 14.4477 8.44772 14 9 14L9 12C7.34315 12 6 13.3431 6 15L6 24.365Z"/>
<path fill-rule="evenodd" clip-rule="evenodd" d="M14 11H22V13H14V11Z"/>
<path fill-rule="evenodd" clip-rule="evenodd" d="M14 15H22V17H14V15Z"/>
</svg>
